<svg width="192" height="192" fill="none" xmlns="http://www.w3.org/2000/svg"><path d="M50 96c13.255 0 24-10.745 24-24 0-4.465 1.035-8.886 3.045-13.011s4.956-7.873 8.67-11.03c3.715-3.158 8.125-5.662 12.978-7.37C103.546 38.878 108.747 38 114 38s10.454.88 15.307 2.588c4.853 1.709 9.263 4.213 12.977 7.37 3.715 3.158 6.661 6.906 8.671 11.03C152.965 63.115 154 67.536 154 72c0-6.566-1.655-13.068-4.872-19.134-3.216-6.066-7.93-11.578-13.873-16.221-5.943-4.643-12.998-8.326-20.763-10.839C106.727 23.293 98.405 22 90 22c-8.405 0-16.727 1.293-24.492 3.806-7.765 2.513-14.82 6.196-20.763 10.839-5.943 4.643-10.657 10.155-13.873 16.22C27.655 58.933 26 65.435 26 72c0 13.255 10.745 24 24 24Zm92 0c-13.255 0-24 10.745-24 24 0 4.465-1.035 8.886-3.045 13.011s-4.956 7.873-8.671 11.031c-3.714 3.157-8.124 5.661-12.977 7.37C88.454 153.121 83.253 154 78 154s-10.454-.879-15.307-2.588-9.263-4.213-12.977-7.37c-3.715-3.158-6.661-6.906-8.671-11.031C39.035 128.886 38 124.465 38 120c0 6.566 1.655 13.068 4.872 19.134 3.216 6.066 7.93 11.578 13.873 16.221 5.943 4.643 12.998 8.326 20.763 10.839C85.273 168.707 93.595 170 102 170c8.405 0 16.727-1.293 24.492-3.806 7.765-2.513 14.82-6.196 20.763-10.839 5.943-4.643 10.657-10.155 13.873-16.221C164.345 133.068 166 126.566 166 120c0-13.255-10.745-24-24-24Z" stroke="#000" stroke-width="12" stroke-linecap="round" stroke-linejoin="round"/></svg>