<svg xmlns="http://www.w3.org/2000/svg" width="192" height="192"><path d="M96 44.41c-.712 1.427-1.94 2.505-3.25 3.57-1.596 1.302-3.111 2.577-4.408 4.155-1.563 1.904-3.057 4.456-3.517 7.667A66 66 0 0 1 96 58.851c3.81 0 7.542.328 11.175.951-.46-3.212-1.954-5.763-3.517-7.668-1.296-1.578-2.812-2.853-4.408-4.153-1.31-1.067-2.538-2.144-3.249-3.57l-.001.001zm40.001 10.718c-1.33.88-2.931 1.2-4.6 1.467-2.032.329-3.982.676-5.895 1.395-2.302.866-4.867 2.325-6.87 4.87a65.6 65.6 0 0 1 19.348 11.18c1.205-3.01 1.187-5.964.786-8.392-.334-2.016-1.008-3.88-1.74-5.804-.602-1.579-1.126-3.124-1.028-4.715H136zM56 55.129c.098 1.591-.427 3.138-1.03 4.716-.731 1.925-1.406 3.788-1.74 5.803-.4 2.43-.418 5.384.787 8.394a65.6 65.6 0 0 1 19.349-11.181c-2.003-2.544-4.569-4.004-6.871-4.871-1.913-.718-3.863-1.065-5.895-1.394-1.668-.268-3.27-.587-4.599-1.466zm36.044 10.96a48.6 48.6 0 0 0-15.966 1.933l-.022.007c-8.632 2.553-16.665 7.622-23.212 14.273a60 60 0 0 0-5.318 6.186c4.591-3.96 9.517-7.434 14.668-10.195a67 67 0 0 1 3.498-1.747 62 62 0 0 1 3.558-1.514l.003-.002.003-.001c4.551-1.77 9.037-2.897 13.525-3.402 4.487-.504 8.979-.384 13.539.341 3.245.517 6.413 1.366 9.267 2.555q.83.346 1.63.734.79.383 1.553.813h.001l.008.004-.001.001c10.047 5.502 17.027 16.79 20.101 29.536a63.6 63.6 0 0 1 1.767 15.305v.149c.05 1.38.523 2.535 1.334 3.055q.227.146.489.221.267.076.566.073l.044-.001h.022c.65.036 1.778-.263 2.429-1.36q.196-.33.325-.756c.086-.29.146-.619.171-.988l.004-.076c.494-17.252-4.79-31.534-13.76-41.237a44 44 0 0 0-5.636-5.128 42.6 42.6 0 0 0-6.377-4.02l-.036-.017c-5.656-2.89-11.88-4.446-18.179-4.742zm23.029.827c20.335 12.95 30.553 34.085 29.762 57.496h11.952c-.102-26.802-17.558-49.518-41.714-57.497zm-25.04 11.29a37 37 0 0 0-3.363.002c-7.44.337-14.624 2.837-21.038 6.326a69 69 0 0 0-5.76 3.516 76 76 0 0 0-5.22 3.879l-.002.003a71 71 0 0 0-6.799 6.298 60 60 0 0 0-1.4 1.533c-1.22 1.384-3.102 3.325-2.544 5.33.442 1.591 2.495 1.122 3.21.574 1.097-.589 2.303-1.522 3.334-2.395 1.397-1.182 2.716-2.455 4.1-3.654C60.143 94.77 65.973 91.03 71.716 88.5a52 52 0 0 1 3.755-1.487 46 46 0 0 1 3.709-1.134l.006-.001c10.686-2.775 22.298-.977 29.732 7.738 7.162 8.394 8.47 19.63 8.58 30.796h6.211c.3-6.75-.277-14.746-2.461-21.73a39 39 0 0 0-1.484-3.99c-1.322-3.017-3.101-5.749-5.222-8.273-2.358-2.804-5.167-5.325-8.334-7.312a32 32 0 0 0-2.904-1.615v-.002c-.993-.485-2.02-.92-3.076-1.295l-.003-.001a35 35 0 0 0-10.193-1.986m-49.349 3.199a17 17 0 0 0-1.537.02 18 18 0 0 0-1.91.216c-2.016.334-3.879 1.01-5.803 1.74-1.579.603-3.125 1.126-4.716 1.029l.001.001h-.002c.88 1.33 1.2 2.93 1.468 4.598.329 2.033.675 3.984 1.394 5.896.863 2.292 2.313 4.845 4.837 6.844a65.6 65.6 0 0 1 11.206-19.326 14.6 14.6 0 0 0-4.938-1.019zm110.63 0a14.6 14.6 0 0 0-4.939 1.019 65.6 65.6 0 0 1 11.207 19.326c2.524-2 3.974-4.553 4.837-6.845.719-1.912 1.065-3.863 1.394-5.895.268-1.67.587-3.27 1.467-4.6h-.002c-1.59.097-3.137-.427-4.715-1.03-1.925-.73-3.786-1.405-5.802-1.74-.607-.1-1.246-.176-1.911-.215a17 17 0 0 0-1.536-.02m-62.907 10.53c-8.406-.09-16.727 3.66-23.9 8.753-8.926 6.338-16.294 14.944-22.733 23.723l8.138-.011c7.326-10.384 24.178-26.15 36.574-26.253 3.95-.033 7.967.894 10.937 3.544 2.152 1.92 4.76 5.648 4.633 8.674-.076 1.795-1.668 2.345-3.195 1.789-1.186-.432-2.024-1.517-2.854-2.657-2.697-3.703-6.904-5.515-11.519-4.883-5.504.752-12.327 5.026-16.728 8.913-3.795 3.352-7.278 7.021-10.564 10.884h8.75c3.206-3.871 6.593-7.173 10.946-9.885 1.377-.858 3.073-1.765 4.856-2.378 4.498-1.546 8.975-1.154 10.962 4.446.781 2.202.895 4.134.668 7.673v.144h5.949l.015-.182c.004-1.938-.038-3.244.137-5.165.15-1.655.665-3.37 2.203-3.575 3.268-.684 3.111 6.586 3.175 8.922h6.16c.294-7.275-.879-14.788-4.261-21.288-3.076-5.914-8.161-9.934-14.745-10.905a27 27 0 0 0-3.604-.282zm-47.339 15.97c-.663.04-1.377.388-2.005 1.152-.928 1.129-2.21 3.06-2.471 4.767-.05.32-.062.631-.029.923.032.284.107.554.235.8v.003h.002c.209.4.562.612 1.032.63q.147.005.316-.014.166-.019.356-.063h.006c.633-.152 1.266-.578 1.912-1.181.667-.623 1.348-1.436 2.056-2.336.992-1.258 1.092-2.475.7-3.354a2.3 2.3 0 0 0-.623-.83 2.15 2.15 0 0 0-1.207-.494 2 2 0 0 0-.28-.002zm-9.74 5.34c-3.184.47-5.715 1.956-7.608 3.509-1.578 1.296-2.853 2.813-4.153 4.408-1.067 1.31-2.144 2.537-3.57 3.248h14.37c.004-3.807.335-7.536.961-11.164zm129.34 0a66 66 0 0 1 .962 11.165h14.369c-1.426-.712-2.504-1.938-3.569-3.248-1.301-1.597-2.576-3.113-4.154-4.41-1.893-1.552-4.425-3.036-7.608-3.507m-76.471 4.443a6.3 6.3 0 0 0-1.447.107c-3.555.646-7.374 4.178-9.682 6.616l6.512-.029c.725-.477 2.145-1.022 2.728-.617.218.152.332.368.344.66l4.938-.014c.567-3.65-.333-6.565-3.393-6.723m-7.36 13.459q-2.727 0-5.121.359v15.845q1.868.239 4.332.239 5.326 0 7.882-2.262t2.554-6.379q.001-3.483-2.242-5.644-2.245-2.159-7.404-2.158zm72.614 0q-2.968 0-5.002.359v15.917h3.661v-6.343h1.15q1.268 0 1.843.574c.575.574.686 1.054.909 2.011q.67 2.86 1.15 3.758h3.78q-.107-.264-1.34-4.596-.67-2.405-2.177-2.967v-.097a4.3 4.3 0 0 0 2.09-1.527 3.95 3.95 0 0 0 .805-2.421q0-2.25-1.603-3.46-1.605-1.208-5.266-1.208m-109.3.144-5.099 16.132h3.854l1.197-4.213h4.834l1.317 4.213h4.021l-5.241-16.132zm17.758 0-5.099 16.132h3.854l1.197-4.213h4.835l1.317 4.213h4.02l-5.241-16.132zm32.548 0v16.132h3.71v-6.726h6.343v6.726h3.71v-16.132h-3.71v6.2h-6.343v-6.2zm22.426 0-5.099 16.132h3.854l1.197-4.213h4.834l1.318 4.213h4.02l-5.241-16.132zm17.758 0-5.099 16.132h3.854l1.196-4.213h4.836l1.316 4.213h4.021l-5.241-16.132zm19.219 2.584q1.328 0 2.054.579.723.582.722 1.648 0 1.064-.803 1.69-.801.631-2.189.632h-1.532v-4.43q.443-.119 1.748-.119m-107.44.12h.049q.43 1.76 1.89 6.487h-3.71l1.006-3.424zm17.759 0h.048q.43 1.76 1.89 6.487h-3.71l1.006-3.424zm17.015 0q2.598 0 3.981 1.305 1.382 1.305 1.381 3.793 0 2.717-1.512 4.169-1.516 1.455-4.28 1.456-1.03 0-1.34-.071v-10.508q.681-.144 1.77-.144m37.959 0h.047q.432 1.76 1.892 6.487h-3.71l1.005-3.424zm17.757 0h.049q.43 1.76 1.89 6.487h-3.71l1.006-3.424z"/></svg>