<svg xmlns="http://www.w3.org/2000/svg" width="192" height="192" viewBox="0 0 192 192"><path d="M95.996 19a77 77 0 1 0 .009 154 77 77 0 0 0-.009-154m.043 4.346q6.1.009 11.95.984c7.042 3.482 13.373 10.044 18.497 18.864 1.967 3.396 3.73 7.135 5.304 11.139H96.167zm-1.31.017.13 30.97H60.833a77 77 0 0 1 5.304-11.14c5.176-8.948 11.635-15.57 18.796-19q4.808-.745 9.796-.83m-13.774 1.54c-6.074 3.866-11.507 9.949-15.947 17.64a82 82 0 0 0-5.57 11.79H43.212a1.283 1.283 0 0 0-1.3 1.3v9.479a68.4 68.4 0 0 1-9.634-4.047 72.72 72.72 0 0 1 48.678-36.171zm31.012.196a72.72 72.72 0 0 1 47.352 35.264 68 68 0 0 1-8.572 3.747l-.043.017v-8.495a1.31 1.31 0 0 0-1.309-1.3h-16.212a82 82 0 0 0-5.578-11.79c-4.363-7.545-9.684-13.567-15.639-17.443M159.961 61.5a72.7 72.7 0 0 1 8.684 33.75h-17.94V65.505l.487-.172a73 73 0 0 0 8.77-3.832m-128.3.718q4.508 2.327 10.205 4.278l.043.008v59.184l-1.172.42a77 77 0 0 0-8.923 3.96 72.3 72.3 0 0 1-8.47-33.33h18.548V95.25h-18.53a72.2 72.2 0 0 1 8.315-33.03zm20.24 11.387h35.392c.368 0 .65.3.65.66v.316a.64.64 0 0 1-.65.641H51.91a.65.65 0 0 1-.659-.641v-.317c0-.36.3-.659.66-.659zm50.92 0h35.384c.377 0 .659.3.659.66v.316a.64.64 0 0 1-.659.641H102.84a.65.65 0 0 1-.659-.641v-.317c0-.36.3-.659.66-.659M51.91 84.36h35.392c.368 0 .65.283.65.66v.307a.64.64 0 0 1-.65.642H51.911a.65.65 0 0 1-.659-.642v-.308c0-.376.3-.659.66-.659m50.92 0h35.383c.377 0 .659.283.659.66v.307a.64.64 0 0 1-.659.642H102.84a.65.65 0 0 1-.659-.642v-.308c0-.376.3-.659.66-.659M51.92 95.114h35.391a.64.64 0 0 1 .65.65v.3a.64.64 0 0 1-.65.659h-35.4a.65.65 0 0 1-.66-.659v-.3c0-.367.3-.65.66-.65m50.92 0h35.383c.377 0 .659.283.659.65v.3a.64.64 0 0 1-.659.659H102.84a.65.65 0 0 1-.659-.659v-.3c0-.367.3-.65.66-.65m47.873 1.626h17.94a72.3 72.3 0 0 1-8.11 32.646 68.4 68.4 0 0 0-9.83-4.226zm-98.803 9.12h35.392c.368 0 .65.29.65.658v.3a.64.64 0 0 1-.65.658H51.911a.66.66 0 0 1-.659-.658v-.3c0-.368.308-.658.66-.658m50.92 0h35.383c.377 0 .659.29.659.658v.3a.65.65 0 0 1-.659.658H102.84a.65.65 0 0 1-.659-.658v-.3c0-.368.3-.658.66-.658m-50.929 10.754h35.392a.64.64 0 0 1 .65.658v.3a.64.64 0 0 1-.65.65H51.912a.65.65 0 0 1-.659-.65v-.3c0-.376.308-.658.66-.658m50.92 0h35.383c.377 0 .659.282.659.658v.3a.64.64 0 0 1-.659.65h-35.375a.65.65 0 0 1-.659-.65v-.3c0-.376.3-.658.66-.658m47.873 9.923c3.43 1.232 6.528 2.567 9.214 4.004a72.72 72.72 0 0 1-47.951 36.351c5.963-3.884 11.284-9.898 15.647-17.444a82 82 0 0 0 5.57-11.789h16.211a1.31 1.31 0 0 0 1.318-1.3zm-108.79.548v9.274c0 .718.59 1.3 1.3 1.3h16.22c1.635 4.243 3.508 8.204 5.578 11.79 4.44 7.69 9.873 13.773 15.947 17.64a72.72 72.72 0 0 1-48.507-35.88 68 68 0 0 1 8.752-3.875zm18.907 10.574h34.391l.12 30.978a68.4 68.4 0 0 1-10.403-.838c-7.16-3.44-13.62-10.052-18.796-19.01a81 81 0 0 1-5.304-11.13zm35.683 0h35.273a77 77 0 0 1-5.304 11.13c-5.116 8.829-11.447 15.391-18.488 18.873a73 73 0 0 1-11.353.975z"/></svg>