<svg xmlns="http://www.w3.org/2000/svg" width="192" height="192" viewBox="0 0 192 192"><path d="M95.995 16a80 80 0 1 0 .01 160 80 80 0 0 0-.01-160m.045 4.515q6.337.01 12.416 1.023c7.316 3.617 13.894 10.435 19.218 19.599 2.043 3.528 3.875 7.413 5.51 11.573h-37.01zm-1.361.018.135 32.177H59.462a80 80 0 0 1 5.51-11.574C70.35 31.839 77.06 24.959 84.5 21.396q4.996-.774 10.178-.862m-14.31 1.6C74.056 26.15 68.411 32.47 63.798 40.46a85 85 0 0 0-5.787 12.249H41.154a1.333 1.333 0 0 0-1.35 1.35v9.849a71 71 0 0 1-10.01-4.205 75.55 75.55 0 0 1 50.576-37.58zm32.22.203a75.55 75.55 0 0 1 49.196 36.638 71 71 0 0 1-8.906 3.893l-.044.018V54.06a1.36 1.36 0 0 0-1.36-1.35H134.63a85 85 0 0 0-5.796-12.25c-4.533-7.839-10.06-14.096-16.248-18.123m49.865 37.82a75.5 75.5 0 0 1 9.023 35.064h-18.64V64.317l.507-.178a76 76 0 0 0 9.111-3.982m-133.3.746q4.684 2.418 10.603 4.445l.045.008v61.49l-1.218.437a80 80 0 0 0-9.27 4.114 75.1 75.1 0 0 1-8.8-34.629h19.27v-1.547h-19.25a75 75 0 0 1 8.639-34.317zm21.03 11.831h36.77c.383 0 .676.312.676.686v.328a.665.665 0 0 1-.676.666H50.19a.675.675 0 0 1-.684-.666v-.329a.69.69 0 0 1 .685-.685zm52.903 0h36.763a.68.68 0 0 1 .685.686v.328a.665.665 0 0 1-.685.666h-36.744a.675.675 0 0 1-.684-.666v-.329a.69.69 0 0 1 .685-.685M50.19 83.907h36.771c.383 0 .676.294.676.686v.319a.665.665 0 0 1-.676.667h-36.77a.675.675 0 0 1-.684-.667v-.32a.68.68 0 0 1 .685-.685m52.904 0h36.762c.392 0 .685.294.685.686v.319a.665.665 0 0 1-.685.667h-36.753a.675.675 0 0 1-.684-.667v-.32a.68.68 0 0 1 .685-.685M50.201 95.08h36.77a.665.665 0 0 1 .676.676v.311a.665.665 0 0 1-.676.685H50.192a.675.675 0 0 1-.685-.685v-.311c0-.382.311-.676.685-.676m52.904 0h36.762c.392 0 .685.294.685.676v.311a.665.665 0 0 1-.685.685h-36.752a.675.675 0 0 1-.684-.685v-.311c0-.382.311-.676.685-.676m49.738 1.69h18.64a75.1 75.1 0 0 1-8.427 33.918 71 71 0 0 0-10.213-4.39zm-102.65 9.475h36.771a.67.67 0 0 1 .676.684v.311a.665.665 0 0 1-.676.684h-36.77a.686.686 0 0 1-.685-.684v-.311a.69.69 0 0 1 .685-.684m52.904 0h36.762c.392 0 .685.301.685.684v.311a.675.675 0 0 1-.685.684H103.11a.675.675 0 0 1-.684-.684v-.311c0-.383.312-.684.686-.684m-52.913 11.173h36.77a.665.665 0 0 1 .676.684v.311a.665.665 0 0 1-.675.676H50.198a.675.675 0 0 1-.685-.676v-.311c0-.391.32-.684.686-.684m52.904 0h36.762c.391 0 .684.293.684.684v.311a.665.665 0 0 1-.684.676h-36.753a.675.675 0 0 1-.685-.676v-.311a.68.68 0 0 1 .686-.684m49.738 10.31c3.563 1.28 6.782 2.667 9.573 4.16a75.55 75.55 0 0 1-49.82 37.767c6.196-4.035 11.725-10.284 16.258-18.124a85 85 0 0 0 5.787-12.248h16.843a1.36 1.36 0 0 0 1.369-1.35zm-113.03.57v9.635c0 .746.613 1.35 1.35 1.35h16.852c1.699 4.409 3.645 8.524 5.796 12.25 4.613 7.989 10.258 14.31 16.568 18.326a75.55 75.55 0 0 1-50.397-37.278 71 71 0 0 1 9.093-4.026zm19.644 10.985h35.73l.125 32.185a71 71 0 0 1-10.808-.87c-7.439-3.574-14.15-10.444-19.528-19.751a84 84 0 0 1-5.51-11.564zm37.073 0h36.647a80 80 0 0 1-5.511 11.564c-5.315 9.173-11.893 15.991-19.208 19.608a76 76 0 0 1-11.795 1.013z"/></svg>