<svg xmlns="http://www.w3.org/2000/svg" width="192" height="192"><path d="M40.003 96c8.675 0 15.434 7.294 18.753 15.306a40 40 0 0 0 8.672 12.978 40.007 40.007 0 0 0 56.568 0 40 40 0 0 0 8.672-12.978C135.987 103.294 142.743 96 151.418 96h24.58a80 80 0 0 1-6.09 30.616 80 80 0 0 1-17.34 25.953 80 80 0 0 1-25.954 17.341c-9.706 4.022-20.109 6.09-30.616 6.09s-20.909-2.068-30.616-6.09a80 80 0 0 1-43.294-43.294A80 80 0 0 1 15.998 96zM102.8 16c1.566 0 2.834 1.331 2.834 2.972v56.494c0 1.644 1.27 2.975 2.832 2.975h4.697c2.303 0 3.643 2.734 2.306 4.7l-17.162 25.216c-1.131 1.66-3.481 1.66-4.613 0L76.535 83.14c-1.34-1.966 0-4.7 2.303-4.7h4.694c1.566 0 2.835-1.331 2.835-2.975V18.972c0-1.64 1.268-2.972 2.834-2.972zM31.762 59.444c1.003-2.6 3.888-3.878 6.438-2.853 2.55 1.028 3.8 3.969 2.796 6.569l-3.415 8.834c-1.006 2.6-3.888 3.878-6.438 2.853-2.55-1.028-3.803-3.969-2.797-6.569zm122.84-2.853c2.55-1.025 5.434.253 6.438 2.853l3.415 8.834c1.006 2.6-.247 5.541-2.797 6.57-2.55 1.024-5.431-.254-6.437-2.854l-3.416-8.834c-1.003-2.6.247-5.54 2.797-6.57M62.546 27.488a4.9 4.9 0 0 1 6.972.84c1.697 2.194 1.331 5.379-.822 7.11l-7.306 5.884a4.897 4.897 0 0 1-6.969-.837c-1.7-2.197-1.331-5.381.822-7.113zm60.741.84a4.9 4.9 0 0 1 6.972-.84l7.303 5.884c2.153 1.732 2.522 4.916.822 7.113a4.9 4.9 0 0 1-6.972.837l-7.303-5.884c-2.153-1.731-2.519-4.916-.822-7.11"/></svg>