<svg xmlns="http://www.w3.org/2000/svg" width="192" height="192" viewBox="0 0 192 192"><path d="M87.224 47.832a.405.405 0 0 0-.408.408v9.551h-9.797a4.073 4.073 0 0 0-4.08 4.083v80.409a4.073 4.073 0 0 0 4.08 4.08h40a4.073 4.073 0 0 0 4.082-4.08v-80.41a4.073 4.073 0 0 0-4.082-4.082h-9.795v-9.55a.405.405 0 0 0-.408-.409zm-5.466 51.633h30.525c.137 0 .247.11.247.248v11.75a.25.25 0 0 1-.247.248H81.758a.25.25 0 0 1-.248-.248v-11.75c0-.138.11-.248.248-.248m0 13.265h30.525c.137 0 .247.11.247.248v11.75a.25.25 0 0 1-.247.248H81.758a.25.25 0 0 1-.248-.248v-11.75c0-.138.11-.248.248-.248m0 13.265h30.525c.137 0 .247.11.247.248v11.75a.25.25 0 0 1-.247.248H81.758a.25.25 0 0 1-.248-.248v-11.75c0-.138.11-.248.248-.248"/><path d="M81.757 99.465a.25.25 0 0 0-.248.248v11.75c0 .137.11.248.248.248h30.525a.25.25 0 0 0 .248-.248v-11.75a.25.25 0 0 0-.248-.248z" opacity=".8"/><path d="M81.757 112.73a.25.25 0 0 0-.248.248v11.75c0 .137.11.248.248.248h30.525a.25.25 0 0 0 .248-.248v-11.75a.25.25 0 0 0-.248-.248z" opacity=".7"/><path d="M96.347 16c-20.576.077-40.864 8.079-56.134 23.257-24.431 24.285-30.571 61.527-15.23 92.37s48.749 48.413 82.856 43.579 61.314-30.996 67.481-64.886a4.083 4.083 0 0 0-3.285-4.747 4.083 4.083 0 0 0-4.747 3.286c-5.543 30.461-29.94 53.92-60.595 58.265-30.656 4.345-60.611-11.41-74.4-39.13-13.791-27.722-8.285-61.118 13.674-82.945 21.959-21.829 55.387-27.132 83.024-13.176a4.083 4.083 0 0 0 5.484-1.804 4.083 4.083 0 0 0-1.804-5.483 79.8 79.8 0 0 0-36.325-8.584zm-14.59 109.99a.25.25 0 0 0-.248.248v11.75c0 .137.11.248.248.248h30.525a.25.25 0 0 0 .248-.248v-11.75a.25.25 0 0 0-.248-.248z" opacity=".6"/></svg>