<svg xmlns="http://www.w3.org/2000/svg" width="192" height="192" viewBox="0 0 192 192"><path d="M87.553 49.639a.39.39 0 0 0-.393.393v9.193h-9.429a3.92 3.92 0 0 0-3.928 3.929v77.394a3.92 3.92 0 0 0 3.928 3.928h38.5a3.92 3.92 0 0 0 3.929-3.928V63.154a3.92 3.92 0 0 0-3.929-3.929h-9.428v-9.193a.39.39 0 0 0-.393-.393zm-5.261 49.697h29.38c.132 0 .238.106.238.239v11.309a.24.24 0 0 1-.238.238h-29.38a.24.24 0 0 1-.239-.238v-11.31c0-.132.106-.238.239-.238m0 12.768h29.38c.132 0 .238.106.238.239v11.309a.24.24 0 0 1-.238.238h-29.38a.24.24 0 0 1-.239-.238v-11.31c0-.132.106-.238.239-.238m0 12.768h29.38c.132 0 .238.106.238.239v11.309a.24.24 0 0 1-.238.238h-29.38a.24.24 0 0 1-.239-.238v-11.31c0-.132.106-.238.239-.238"/><path d="M82.291 99.336a.24.24 0 0 0-.239.239v11.309c0 .132.107.238.239.238h29.38a.24.24 0 0 0 .239-.238v-11.31a.24.24 0 0 0-.239-.238z" opacity=".8"/><path d="M82.291 112.1a.24.24 0 0 0-.239.239v11.309c0 .132.107.238.239.238h29.38a.24.24 0 0 0 .239-.238v-11.31a.24.24 0 0 0-.239-.238z" opacity=".7"/><path d="M96.334 19.001c-19.804.074-39.332 7.776-54.029 22.385-23.515 23.374-29.425 59.22-14.659 88.906s46.921 46.598 79.749 41.945 59.015-29.834 64.951-62.453a3.93 3.93 0 0 0-3.162-4.569 3.93 3.93 0 0 0-4.569 3.163c-5.335 29.319-28.817 51.898-58.323 56.08s-58.338-10.982-71.61-37.664c-13.274-26.682-7.974-58.825 13.161-79.834 21.136-21.01 53.31-26.115 79.911-12.682a3.93 3.93 0 0 0 5.279-1.737 3.93 3.93 0 0 0-1.737-5.277 76.8 76.8 0 0 0-34.963-8.262zm-14.043 105.87a.24.24 0 0 0-.239.239v11.309c0 .132.107.238.239.238h29.38a.24.24 0 0 0 .239-.238v-11.31a.24.24 0 0 0-.239-.238z" opacity=".6"/></svg>