<svg xmlns="http://www.w3.org/2000/svg" width="192" height="192"><path d="M70.545 16c-19.119 0-33.057 16.125-34.272 31.598C34.41 70.687 50.279 85.506 81.874 97.82c.486.243.735.811.411 1.298L37.57 161.096c-4.941 6.318-.893 10.774 4.13 10.774 1.944 0 3.557-.893 6.392-4.62l45.285-64.478s.656-.494 1.06-.332c32.973 12.071 46.833 26.091 46.995 41.646.08 9.965-9.242 17.421-18.64 17.421-11.746 0-19.772-6.568-22.69-14.589-1.7-4.618-6.155-6.241-10.205-5.269-3.727.972-7.772 4.698-6.314 10.854C87.23 167.328 101.571 176 119.233 176c20.414 0 36.37-17.168 37.341-33.37 1.296-21.144-9.552-42.288-51.598-56.06l-.174-.174a.85.85 0 0 1-.474-1.297l41.709-57.104c3.726-4.78.161-9.476-4.7-9.557-2.025 0-3.556.483-5.743 3.48l-43.34 59.953s-.656.397-.98.316c-23.9-8.344-43.495-21.147-41.551-39.051.89-8.425 8.752-14.985 17.42-15.633 8.102-.567 14.333 3.89 19.194 7.373 3.078 2.269 7.298 2.115 9.16.333 2.512-2.35 3.797-6.814-.173-10.46C89.49 19.323 80.672 16 70.546 16zm62.231 52.294a8.83 9.073 75.26 0 0-8.339 11.266 8.83 9.073 75.26 1 0 17.547-4.62 8.83 9.073 75.26 0 0-9.208-6.646M52.729 97.408a9.236 9.48 72.02 0 0-9.351 12.184 9.239 9.482 72.02 1 0 18.038-5.854 9.236 9.48 72.02 0 0-8.687-6.33"/></svg>