<svg width="192" height="192" fill="none" xmlns="http://www.w3.org/2000/svg"><path d="M115 24.462A74.111 74.111 0 0 0 96 22c-40.87 0-74 33.13-74 74 0 16.48 5.387 31.701 14.496 44m119.008-88C164.613 64.299 170 79.52 170 96c0 40.869-33.131 74-74 74a74.115 74.115 0 0 1-19-2.462" stroke="#000" stroke-width="12" stroke-linecap="round" stroke-linejoin="round"/><path d="M111.839 93.723 145 24 90.93 80.82m20.909 12.903C110.734 85.965 104.063 80 96 80c-1.772 0-3.477.288-5.07.82m20.909 12.903c.106.744.161 1.504.161 2.277 0 7.064-4.578 13.059-10.929 15.18M90.929 80.82C84.58 82.94 80 88.936 80 96c0 .773.055 1.533.16 2.277m20.911 12.903L47 168l33.16-69.723m20.911 12.903c-1.593.532-3.299.82-5.071.82-8.063 0-14.734-5.965-15.84-13.723" stroke="#000" stroke-width="10" stroke-linecap="round" stroke-linejoin="round"/></svg>