<svg xmlns="http://www.w3.org/2000/svg" width="192" height="192" viewBox="0 0 192 192"><path d="M114.5 34.002a5.256 5.256 0 0 0-5.224 5.04v113.48a5.32 5.32 0 0 0 5.288 5.384h30.696l.04.104a30.48 30.48 0 0 0 30.696-30.12v-10.608a30.4 30.4 0 0 0-9.928-22.264 29.6 29.6 0 0 0 7.944-20.464V63.938a30.12 30.12 0 0 0-30.696-29.944zm-74.12.032a5.39 5.39 0 0 0-5.32 3.824l-18.896 70.624-.168 1.064v42.976a5.36 5.36 0 0 0 5.488 5.392h7.232a5.28 5.28 0 0 0 5.28-5.392v-33.6h36.056v33.6a5.32 5.32 0 0 0 5.288 5.392h7.264a5.32 5.32 0 0 0 5.288-5.392V108.49L68.996 37.842a5.36 5.36 0 0 0-5.28-3.816zm86.976 17.528h15.968a12.4 12.4 0 0 1 12.544 12.384l.112 10.608a12.52 12.52 0 0 1-12.56 12.52h-16.064zm-77.56.04h4.368l13.056 49.76H36.836zm77.56 53.24h17.912a12.4 12.4 0 0 1 12.544 12.344l.104 10.608a12.4 12.4 0 0 1-12.552 12.384h-18z"/></svg>