<svg xmlns="http://www.w3.org/2000/svg" width="192" height="192"><path d="M56.97 16c-1.743 0-3.296 1.359-3.296 3.296v29.636H51.74v20.723h1.934v103.05c0 1.743 1.553 3.296 3.296 3.296h78.06c1.743 0 3.296-1.553 3.296-3.296V72.952h1.934v-12.98h-1.934v-1.356h1.934V45.642h-1.934V19.297c0-1.937-1.553-3.296-3.296-3.296zm4.068 6.393h69.925c1.162 0 1.94.778 1.94 1.94v143.14c0 1.163-.778 2.133-1.94 2.133H61.038c-.969 0-1.94-.97-1.94-2.133V24.333c0-1.162.971-1.94 1.94-1.94m35.059 5.617c-4.456 0-14.529 17.243-15.885 21.892a124.6 124.6 0 0 1 31.768 0c-1.55-4.65-11.623-21.892-15.884-21.892M96 51.065c-5.569 0-11.136.382-16.559 1.157-2.712 11.235.384 32.158 3.483 43.2 4.068-.388 8.524-.585 13.173-.585 4.455 0 8.912.197 12.98.584 3.1-11.04 6.39-31.965 3.484-43.199A117.5 117.5 0 0 0 96 51.065M78.278 83.219c-4.649 1.162-8.135 8.909-8.135 13.75v3.682c0-2.518 4.455-4.069 10.654-5.037-.775-2.712-1.358-6.004-2.133-9.491 0-.968-.192-1.936-.386-2.905zm35.445 0c0 .968-.192 1.936-.386 2.904a88 88 0 0 1-2.133 9.491c6.124.928 10.47 2.387 10.654 4.722V96.97c0-4.842-3.486-12.589-8.135-13.751M96.097 98.326c-14.915 0-.194 22.66 0 23.242 0-.581 14.915-23.242 0-23.242m2.905 29.829c-.77 0-6.116.004-6.388.193h-.005c-1.163.193-.385 4.26-2.128 5.423-.387.194-.582.391-.97.391-.775.581-1.743 1.352-2.712 1.158-.58 0-1.546-.385-2.127-.579-2.518-.968-2.134-.97-3.296.579a4.2 4.2 0 0 1-.97 1.554c-.387.775-1.742 2.902-1.549 3.483 0 .388.198.584.392.777l2.127 1.742c1.356 1.356.97 1.743.97 4.068 0 1.162-.003 1.358-.584 2.132-.194.388-1.547 1.355-1.935 1.742-.774.775-1.547.97-.578 2.519.58.968 1.16 2.129 1.934 3.097 1.162 2.131.968 2.13 2.905 1.55 3.68-1.357 2.904-1.16 5.809.39.581.388.968.383 1.356 1.158.387.581.582 3.1.97 4.068.193.774.97.584 2.133.584 6.004 0 5.228.582 5.809-1.742.194-.775.192-1.551.386-2.326s.582-1.161 1.163-1.549c.58-.193.967-.583 1.548-.777 1.744-1.162 1.937-.774 4.068-.193 2.518.969 2.327 1.165 3.296-.578 3.68-6.005 3.486-4.457.193-7.557-1.55-1.356-1.163-1.549-1.163-4.067 0-1.162.003-1.359.584-1.94.387-.581 2.324-1.932 2.712-2.514.58-.58.387-1.166 0-1.747-.775-1.162-1.36-2.128-1.94-3.29-1.356-2.13-.968-2.13-2.905-1.356-3.874 1.356-3.097 1.164-5.81-.386-.774-.387-1.16-.582-1.548-1.163-.387-.774-.583-3.297-.97-4.265 0-.388-.196-.58-.777-.58zm-2.712 7.363c2.13.194 3.874.58 5.23 1.549.775.58 2.13 1.546 2.712 2.32v.199c1.55 1.937 2.132 3.29 2.326 6.195.193 1.937-.388 4.066-1.163 5.616-.388.387-.583.583-.777.97-.581.968-1.545 1.938-2.514 2.519-1.355.968-3.1 1.74-5.037 1.934-.969 0-1.94.001-3.103-.193-.387 0-2.127-.578-2.32-.771-.969-.194-1.552-.775-2.133-1.356-.775-.581-1.547-1.164-2.128-2.133-1.162-1.743-1.746-3.098-1.94-5.616-.194-2.131.58-4.651 1.549-6.2.775-1.163 2.519-3.096 3.875-3.677.968-.775 3.873-1.356 5.423-1.356m-.841 3.414c-.936 0-1.626.218-2.642.654-1.163.58-1.744.966-2.52 1.934l-.39.579c-.969 1.55-1.158 2.329-1.158 4.266 0 2.324.968 4.646 2.905 6.002l1.355.777c1.744.775 5.808.58 7.551-.97.775-.581.78-.387 1.554-1.356 0-.194 0-.192.193-.386.194-.387.192-.582.386-.97.387-.968.966-2.905.579-4.067 0-1.55-.965-3.49-2.128-4.652-.968-.968-2.908-1.742-4.651-1.742a8 8 0 0 0-1.035-.07zm.937 2.636c.34 0 .68.048 1.067.145.968.387 1.937 1.164 2.519 2.133.968 1.937.776 3.68-.386 5.23-.388.775-1.743 1.548-2.712 1.742-1.55.194-2.713-.389-3.682-.97-.193-.097-.249-.096-.273-.096h-.01l-.005-.005c-.014-.008-.036-.031-.096-.092 0-.193-.199-.192-.199-.385-2.13-2.325-1.162-6.976 2.712-7.557a4.3 4.3 0 0 1 1.066-.144z"/></svg>