<svg xmlns="http://www.w3.org/2000/svg" width="192" height="192" viewBox="0 0 192 192"><path d="M75.435 117.82v-10.911q0-9.088 6-15.447c6-6.36 8.855-6.368 14.567-6.368h6.855V70.551l20.575 21.815-20.575 21.815V99.638h-6.855a6.4 6.4 0 0 0-4.88 2.088 7.2 7.2 0 0 0-1.976 5.184v10.91zm-13.719 43.638h68.572V30.548H61.716v130.9zm0 14.543q-5.656 0-9.68-4.272a14.4 14.4 0 0 1-4.031-10.279V30.55q0-6 4.032-10.27a12.8 12.8 0 0 1 9.679-4.273h68.572q5.656 0 9.68 4.272 4.031 4.28 4.031 10.271v130.9q0 6-4.023 10.28-4.032 4.271-9.688 4.271z"/></svg>