<svg xmlns="http://www.w3.org/2000/svg" width="192" height="192" viewBox="0 0 192 192"><path d="M79.305 16.003a16.68 16.68 0 0 0-14.462 7.912c-.087.14-.187.308-.386.643-.119.201-.178.302-.235.396a16.68 16.68 0 0 1-13.86 8.003c-.11.003-.228.003-.462.006-.389.004-.583.005-.748.01-8.822.265-15.912 7.355-16.177 16.177-.005.166-.006.362-.01.751-.004.234-.004.349-.007.459a16.69 16.69 0 0 1-8.005 13.863l-.393.235c-.336.198-.503.296-.644.384-7.507 4.64-10.103 14.325-5.92 22.098.078.146.173.316.364.655.115.203.171.306.224.402a16.68 16.68 0 0 1 0 16.006c-.053.096-.109.198-.224.401-.19.34-.287.508-.365.654-4.181 7.773-1.586 17.457 5.921 22.098.141.087.308.185.644.383.2.12.302.178.395.236a16.69 16.69 0 0 1 8.003 13.863c.004.11.003.225.007.458.003.39.005.585.01.751.265 8.822 7.354 15.912 16.177 16.177.165.005.36.007.748.01.234.003.351.006.461.008a16.68 16.68 0 0 1 13.861 8.004c.057.093.117.194.235.395.198.335.299.503.386.644 4.64 7.507 14.325 10.102 22.098 5.92.146-.078.315-.173.653-.364l.402-.226a16.68 16.68 0 0 1 16.006 0c.097.053.198.11.402.226.34.19.51.286.655.365 7.773 4.181 17.457 1.586 22.098-5.921.088-.141.186-.31.384-.646.119-.2.178-.3.235-.393a16.68 16.68 0 0 1 13.861-8.004c.11-.003.228-.003.461-.006.389-.004.583-.007.749-.012 8.822-.265 15.912-7.355 16.177-16.177.005-.166.009-.36.012-.749l.006-.46a16.68 16.68 0 0 1 8.003-13.861l.396-.236c.335-.197.502-.298.643-.385 7.508-4.64 10.102-14.325 5.921-22.098-.078-.146-.174-.315-.365-.654-.115-.203-.173-.305-.225-.401a16.68 16.68 0 0 1 0-16.006c.052-.097.11-.198.225-.402.191-.34.287-.507.365-.653 4.182-7.773 1.587-17.457-5.92-22.098a38 38 0 0 0-.644-.386c-.201-.12-.302-.178-.396-.235a16.68 16.68 0 0 1-8.003-13.861c-.003-.11-.004-.228-.006-.461a37 37 0 0 0-.012-.749c-.266-8.822-7.355-15.912-16.177-16.177-.166-.005-.36-.008-.749-.012-.234-.003-.35-.003-.46-.006a16.68 16.68 0 0 1-13.862-8.003l-.235-.394c-.198-.335-.296-.504-.384-.645-4.64-7.508-14.325-10.103-22.098-5.921-.146.078-.316.174-.655.365a16.68 16.68 0 0 1-16.408.225c-.096-.052-.198-.11-.402-.225-.339-.191-.507-.287-.653-.365a16.6 16.6 0 0 0-7.636-1.991M63.524 85.611A10.39 10.39 0 0 1 73.913 96a10.39 10.39 0 0 1-10.389 10.389A10.39 10.39 0 0 1 53.135 96a10.39 10.39 0 0 1 10.389-10.389m32.473 0A10.39 10.39 0 0 1 106.386 96a10.39 10.39 0 0 1-10.389 10.389A10.39 10.39 0 0 1 85.608 96a10.39 10.39 0 0 1 10.389-10.389m32.473 0A10.39 10.39 0 0 1 138.859 96a10.39 10.39 0 0 1-10.389 10.389A10.39 10.39 0 0 1 118.08 96a10.39 10.39 0 0 1 10.39-10.389"/></svg>