<svg xmlns="http://www.w3.org/2000/svg" width="192" height="192" viewBox="0 0 192 192"><path d="M108.13 172.55a68 68 0 0 1-7.315-2.327c-6.023-2.284-8.17-2.293-15.186-.094-10.977 3.44-14.886 2.164-22.38-7.29-1.772-2.224-4.09-4.568-5.151-5.184-1.061-.625-4.671-1.788-8.025-2.584-6.844-1.625-9-2.566-11.182-4.885-2.404-2.558-3.465-5.253-4.509-11.48-.539-3.21-1.3-6.605-1.685-7.547-.41-1.01-2.84-3.798-5.895-6.75-6.793-6.562-7.913-8.658-7.58-14.09.171-2.987.685-5.023 2.207-9.01 2.482-6.485 2.55-8.769.471-15.143a36.8 36.8 0 0 1-1.737-8.298c-.214-3.32-.102-3.97 1.053-6.331q1.283-2.635 4.423-5.39c6.587-5.81 8.41-7.589 9.068-8.846.36-.719 1.31-4.013 2.097-7.315 1.685-7.101 2.549-8.966 5.39-11.575 2.42-2.242 4.996-3.2 11.207-4.192 8.077-1.284 7.931-1.207 14.082-7.503 6.503-6.656 8.436-7.769 13.346-7.717 3.003.034 4.056.325 12.576 3.413 3.85 1.403 6.477 1.25 12.807-.727 3.902-1.215 6.434-1.728 8.684-1.745 5.304-.043 7.187 1.283 15.656 11.07 1.403 1.626 3.149 3.252 3.884 3.637.727.376 3.747 1.232 6.699 1.9 12.089 2.728 14.356 5.038 16.512 16.82.625 3.404 1.369 6.8 1.668 7.545.291.753 2.995 3.764 6.006 6.707 6.46 6.28 7.563 8.24 7.512 13.27-.026 2.583-.428 4.277-2.002 8.418-2.832 7.434-2.909 9.18-.693 16.726 3.55 12.08 2.866 13.894-9.043 24.28-1.754 1.531-3.525 3.422-3.927 4.192-.402.787-1.258 3.824-1.908 6.759-2.584 11.66-5.176 14.236-16.349 16.195-8.555 1.497-8.333 1.386-14.74 7.87-7.162 7.264-9.942 8.513-16.042 7.221m-38.396-67.716c3.516-1.805 5.364-4.876 5.364-8.897 0-4.081-1.848-7.101-5.458-8.958-2.72-1.394-7.571-1.078-10.215.676-2.353 1.557-4.432 5.441-4.423 8.247.017 3.68 2.626 7.683 5.98 9.163 2.165.967 6.656.839 8.752-.23m31.261-.206c3.14-1.66 4.894-4.44 5.116-8.11.231-3.893-1.138-6.631-4.406-8.847-2.027-1.369-2.677-1.557-5.475-1.548-3.901.008-6.314 1.215-8.427 4.226-1.3 1.848-1.454 2.447-1.454 5.578 0 3.123.154 3.73 1.437 5.544 1.95 2.772 4.894 4.278 8.384 4.278 1.917 0 3.337-.334 4.825-1.121m30.252.47a12 12 0 0 0 3.08-2.241 9.847 9.847 0 0 0-7.186-16.811c-5.784 0-9.916 4.106-9.916 9.881 0 4.047 1.857 7.101 5.501 9.018 1.788.94 6.442 1.026 8.513.145z"/></svg>