<svg xmlns="http://www.w3.org/2000/svg" width="192" height="192" viewBox="0 0 192 192"><path d="M27.783 30.239c-9.488-2.416-14-3.56-10.72.136l.224.088c5.464 10.448 9.712 11.656 18.08 14.024 3.776 1.072 8.4 2.384 14.352 4.888 13.76 2-20.416 8.152-23.04 5.144 2.336 10.072 11.64 10.408 19.264 10.688 1.896.064 3.696.136 5.256.344 6.832 1.344 4.096 3.04.32 5.36-5.048 3.112-11.952 7.36-.16 13.464.376 1.168.608 2.56.856 4.08 1.2 7.248 2.864 17.28 23.152 18.16 5.56.24 11.36-.44 16.456-1.04 8.504-1.016 15.088-1.792 15.52 2.32.352 3.344-4.48 6.088-14.536 11.792a440 440 0 0 0-26.608 16.096c-7.696 5.896-1.712 8.296 3.344 10.32 2.744 1.104 5.208 2.096 5.088 3.472 4.24 6.616 7.68 5.064 10.736 3.68 2.448-1.104 4.648-2.096 6.832 1.28 2.552 3.736 7.84 9.36 12.472 9.256l7.808.208c0-10.056 3.336-21.064 9.264-26.32 5.184-5.336 10.4-9.016 15.184-12.4 12.384-8.736 21.92-15.464 20.824-43.648.152-13.992 10.664-30.448 18.248-30.832-2.104-.904-4.12-2.752-6.32-4.768l-.296-.272c-2.12-1.952-10.56-8.72-16.336-7.936-4.32.88-8.32 5.92-11.96 10.504-2.68 3.384-5.168 6.52-7.432 7.528-11.44 5.12-14.592 2.248-22.12-4.616q-1.6-1.464-3.536-3.176c-4.608-4.48-10.8-8.912-27.216-9.84-21.776-.064-41.224-5-53-7.992zm131.36 20.096c0 1.488-1.304 2.688-2.904 2.688s-2.896-1.2-2.896-2.688 1.296-2.696 2.896-2.696 2.896 1.2 2.896 2.696z"/></svg>