<svg xmlns="http://www.w3.org/2000/svg" width="192" height="192" viewBox="0 0 192 192"><path d="M173 142.51v22.422h-2.595l-9.524-16.447h-.178v16.447h-2.825V142.51h2.618l9.532 16.462h.17V142.51zm-31.577 22.422h-3.003l6.745-22.422h3.265l6.745 22.422h-3.003l-5.298-18.349h-.146zm.5-8.778h9.733v2.85h-9.733zm-5.343-6.352h-2.85q-.169-1.094-.615-1.925c-.447-.832-.662-1.024-1.094-1.417a4.6 4.6 0 0 0-1.462-.878 4.85 4.85 0 0 0-4.59.686 6.47 6.47 0 0 0-2.01 2.848 13.1 13.1 0 0 0-.73 4.605q0 2.733.73 4.62.74 1.879 2.018 2.849c1.278.97 1.817.962 2.888.962a4.62 4.62 0 0 0 3.133-1.155 5.4 5.4 0 0 0 1.101-1.386 6.2 6.2 0 0 0 .632-1.902h2.849a10.8 10.8 0 0 1-.886 3.05q-.654 1.385-1.67 2.386a7.32 7.32 0 0 1-5.183 2.095 7.24 7.24 0 0 1-4.335-1.386 9.24 9.24 0 0 1-3.003-3.973 16.2 16.2 0 0 1-1.085-6.16q0-3.596 1.1-6.16a9.24 9.24 0 0 1 3.004-3.966 7.16 7.16 0 0 1 4.32-1.386 7.47 7.47 0 0 1 5.112 2.002q1.04.97 1.717 2.387.67 1.394.909 3.203m-21.921-1.4a3.3 3.3 0 0 0-1.202-2.411 4.08 4.08 0 0 0-2.671-.862 4.3 4.3 0 0 0-2.002.439 3.1 3.1 0 0 0-1.31 1.178 3.1 3.1 0 0 0-.454 1.694q0 .808.308 1.386.324.577.84.97a7.7 7.7 0 0 0 1.116.647q.585.254 1.14.415l1.832.57a12 12 0 0 1 1.84.716q.94.447 1.749 1.178a4.3 4.3 0 0 1 1.293 1.818 6.2 6.2 0 0 1 .508 2.594 6.93 6.93 0 0 1-.824 3.388 5.85 5.85 0 0 1-2.371 2.326 7.7 7.7 0 0 1-3.742.854q-2.102 0-3.642-.8a5.93 5.93 0 0 1-2.403-2.264 7.7 7.7 0 0 1-.962-3.504h2.833a3.85 3.85 0 0 0 .663 2.025q.577.801 1.493 1.194a5.4 5.4 0 0 0 2.002.385 4.6 4.6 0 0 0 2.133-.447 3.39 3.39 0 0 0 2.018-3.187 2.62 2.62 0 0 0-.478-1.633 3.85 3.85 0 0 0-1.27-1.047 11 11 0 0 0-1.802-.74l-2.21-.723a8.5 8.5 0 0 1-3.573-2.156 5.4 5.4 0 0 1-1.309-3.765q0-1.94.878-3.388c.878-1.448 1.386-1.702 2.387-2.233a6.9 6.9 0 0 1 3.38-.816q1.902 0 3.358.8a6.01 6.01 0 0 1 3.18 5.398zM89.742 55.87a77 77 0 0 1-2.018-11.542c-1.247-11.288-.9-24.254 3.765-24.786l.447-.077a6.9 6.9 0 0 0-2.587-.385l-2.387-.077h-.046c-4.559 0-8.3 2.387-9.248 5.921-2.98 11.203.085 27.89 5.637 49.51l-1.44 3.55c-3.973 9.871-8.932 19.827-13.313 28.582l-.586 1.155a485 485 0 0 1-12.589 23.7l-.077.038.093.047c-13.467 23.823-22.768 32.378-26.657 33.918l-.424.2.023-.062-.97.216c-4.604.947-7.545 1.563-8.362-.801.031 1.863.678 3.78 2.441 4.85l3.788 1.926a11.4 11.4 0 0 0 5.16 1.247c9.355 0 20.196-11.673 35.01-37.883h-.007l5.143-10.202q3.25-5.79 6.63-12.35a231 231 0 0 0 11.596-25.91c5.19 9.632 11.642 17.793 19.173 24.338q1.14.994 2.394 1.964h.016l1.501 1.132q4.974 3.773 10.418 6.776l1.37.754-.022.008c12.897 7.007 28.08 11.781 37.868 11.781q2.772 0 4.743-.562c1.979-.508 3.65-1.655 4.689-3.272 1.779-2.772 2.325-6.468 2.002-10.372-.115 1.617-3.334 3.696-5.305 4.812l-.039.03c-.947.594-3.65.963-5.366.963-5.59 0-12.451-2.618-22.145-6.868h.03c-.6-.07-3.326-1.54-6.79-3.419-2.272-1.232-4.86-2.633-7.377-3.926l-.123.015c-3.966-2.349-8.078-4.882-11.32-7.977-8.662-8.293-15.884-19.773-20.396-32.41v-.015a200 200 0 0 1-4.343-14.537m77.83 68.174c-.947.593-3.65.963-5.367.963-5.59 0-12.451-2.626-22.152-6.869q5.613-.415 10.195-.415c5.598 0 7.222 0 12.728 1.432 5.46 1.386 5.498 4.289 4.597 4.89m-97.033.87a408 408 0 0 0 6.63-12.352 231 231 0 0 0 11.595-25.91c5.19 9.633 11.642 17.794 19.173 24.34.947.83 1.94 1.616 3.026 2.448-15.384 3.134-28.69 6.914-40.424 11.473m17.956-100.91c3.065 0 4.828 7.87 4.96 15.292.138 7.376-1.533 12.535-3.65 16.408-1.764-5.713-2.572-14.66-2.572-20.512 0 0-.139-11.188 1.263-11.188m-60.182 141.62c1.763-4.836 8.623-14.43 18.772-22.953.63-.508 2.21-2.033 3.65-3.411-10.604 17.325-17.726 24.2-22.423 26.364m142.19-51.766c-3.064-3.095-9.925-4.705-20.297-4.851-7.037-.085-15.477.562-24.408 1.802-3.965-2.349-8.07-4.882-11.319-7.97-8.662-8.3-15.885-19.78-20.389-32.415.27-1.194.54-2.21.77-3.273 0 0 4.866-28.35 3.557-37.937a10.8 10.8 0 0 0-.63-2.718l-.409-1.155c-1.309-3.118-3.927-6.437-8.03-6.26l-2.388-.077h-.046c-4.558 0-8.3 2.387-9.248 5.921-2.98 11.203.093 27.89 5.637 49.51l-1.44 3.55c-3.973 9.871-8.932 19.827-13.313 28.582l-.585 1.155a485 485 0 0 1-12.582 23.7l-3.927 2.117c-.27.185-6.992 3.781-8.57 4.751-13.352 8.162-22.23 17.425-23.7 24.793-.47 2.31-.123 5.313 2.256 6.738l3.788 1.932a11.4 11.4 0 0 0 5.16 1.248c9.516 0 20.573-12.081 35.772-39.231 17.594-5.852 37.621-10.741 55.17-13.413 13.351 7.7 29.774 13.044 40.154 13.044q2.772 0 4.736-.555a7.7 7.7 0 0 0 4.689-3.272c1.986-3.088 2.433-7.33 1.848-11.704-.131-1.294-1.17-2.91-2.256-4.02z"/></svg>