<svg xmlns="http://www.w3.org/2000/svg" width="192" height="192" viewBox="0 0 192 192"><path d="M151.88 165.3v-23.1h13.413v3.003h-10.148v7.038h9.186v2.987h-9.186v10.071zm-14.46 0h-7.007v-23.1h7.23q3.173 0 5.46 1.386 2.279 1.378 3.495 3.958 1.224 2.571 1.224 6.175t-1.232 6.198q-1.232 2.603-3.55 3.997-2.332 1.386-5.62 1.386m-3.742-3.05h3.565q2.464 0 4.104-.985a6.16 6.16 0 0 0 2.448-2.903q.809-1.902.817-4.643 0-2.718-.817-4.62a6.16 6.16 0 0 0-2.394-2.872 7.47 7.47 0 0 0-3.958-.978h-3.765zm-22.283 3.05v-23.1h7.7q2.533 0 4.18.977a6.16 6.16 0 0 1 2.488 2.695q.824 1.679.824 3.804 0 2.133-.84 3.835a6.16 6.16 0 0 1-2.487 2.687 8.1 8.1 0 0 1-4.173.978h-5.305v-2.95h5.005q1.594 0 2.587-.592a3.6 3.6 0 0 0 1.463-1.617q.462-1.032.462-2.341c0-1.309-.154-1.648-.462-2.325a3.47 3.47 0 0 0-1.463-1.587 5.4 5.4 0 0 0-2.626-.577h-4.096v20.112zM89.735 55.87a77 77 0 0 1-2.018-11.542c-1.247-11.288-.908-24.254 3.758-24.786l.454-.077a6.9 6.9 0 0 0-2.587-.385l-2.387-.077h-.046c-4.558 0-8.308 2.387-9.255 5.92-2.972 11.204.092 27.89 5.644 49.51l-1.448 3.55c-3.965 9.872-8.932 19.827-13.305 28.59l-.585 1.154a485 485 0 0 1-12.589 23.692l-.077.039.092.046c-13.475 23.823-22.768 32.378-26.657 33.918l-.423.2.023-.061-.97.215c-4.612.955-7.546 1.563-8.362-.8.023 1.863.677 3.78 2.44 4.85l3.789 1.925A11.4 11.4 0 0 0 30.385 173c9.355 0 20.197-11.673 35.01-37.883l-.007.008 5.144-10.21q3.249-5.79 6.63-12.351a231 231 0 0 0 11.595-25.91c5.19 9.632 11.634 17.794 19.173 24.339q1.14.993 2.395 1.963h.015l1.502 1.132q4.974 3.773 10.418 6.776l1.37.762h-.023c12.897 7.007 28.081 11.781 37.868 11.781q2.772 0 4.743-.562c1.98-.508 3.65-1.655 4.69-3.272 1.778-2.772 2.325-6.468 2.002-10.372-.116 1.617-3.334 3.696-5.306 4.812l-.038.031c-.947.6-3.65.963-5.367.963-5.59 0-12.451-2.618-22.152-6.869h.039c-.601-.069-3.327-1.54-6.792-3.418-2.271-1.232-4.858-2.634-7.376-3.927l-.123.015c-3.973-2.348-8.077-4.882-11.32-7.97-8.662-8.3-15.884-19.78-20.396-32.415v-.016a200 200 0 0 1-4.343-14.537m77.83 68.174c-.947.601-3.657.963-5.367.963-5.598 0-12.45-2.618-22.152-6.868q5.606-.416 10.195-.416c5.598 0 7.223 0 12.72 1.432 5.467 1.386 5.506 4.289 4.605 4.89m-97.033.87q3.249-5.79 6.63-12.351a231 231 0 0 0 11.595-25.91c5.19 9.632 11.642 17.794 19.173 24.339.947.831 1.94 1.617 3.026 2.448-15.384 3.134-28.697 6.915-40.424 11.473M88.49 24.003c3.065 0 4.828 7.87 4.959 15.292.139 7.377-1.532 12.535-3.65 16.408-1.763-5.713-2.571-14.66-2.571-20.512 0 0-.139-11.188 1.262-11.188m-60.182 141.62c1.764-4.835 8.624-14.429 18.765-22.953.64-.508 2.218-2.033 3.658-3.41-10.603 17.324-17.725 24.2-22.422 26.363m142.19-51.766c-3.065-3.095-9.925-4.704-20.297-4.843-7.038-.092-15.477.554-24.408 1.802-3.973-2.356-8.077-4.89-11.32-7.977-8.661-8.3-15.884-19.781-20.396-32.416.27-1.194.539-2.21.77-3.273 0 0 4.874-28.35 3.565-37.937a10.8 10.8 0 0 0-.632-2.718l-.408-1.155c-1.309-3.118-3.927-6.437-8.03-6.26l-2.388-.077h-.046c-4.558 0-8.3 2.387-9.247 5.93-2.98 11.195.092 27.88 5.636 49.51l-1.44 3.541c-3.973 9.871-8.932 19.827-13.313 28.59l-.585 1.154a485 485 0 0 1-12.582 23.692l-3.927 2.118c-.27.185-6.991 3.78-8.57 4.75-13.359 8.162-22.237 17.426-23.708 24.802-.462 2.31-.115 5.305 2.264 6.73l3.788 1.94c1.64.823 3.396 1.24 5.16 1.24 9.516 0 20.565-12.074 35.772-39.232 17.594-5.852 37.621-10.74 55.17-13.413 13.351 7.7 29.774 13.044 40.146 13.044q2.772 0 4.743-.554c1.98-.508 3.65-1.656 4.69-3.273 1.986-3.08 2.433-7.33 1.847-11.704-.13-1.293-1.17-2.91-2.256-4.011"/></svg>