<svg xmlns="http://www.w3.org/2000/svg" width="192" height="192" viewBox="0 0 192 192"><path d="M41.656 43.016q-3.896 0-7.544.08l-7.624.16q-3.984.072-9.536.24-.96 0-.952 1.424v100.66q0 1.44 1.272 1.432h18.904q1.272 0 1.272-1.432v-36.64h11.76a3.2 3.2 0 0 1 1.984.56q1.048.952 1.824 2.144c2.384 4.272 11.952 21.328 20.968 34.416a2.1 2.1 0 0 0 .8.72 3.2 3.2 0 0 0 1.424.232h23.04a.64.64 0 0 0 .72-.64 1.76 1.76 0 0 0-.4-1.264c-.832-1.472-22.104-34.728-27.96-42.359a34.5 34.5 0 0 0 10.32-6.44 29.6 29.6 0 0 0 6.992-9.44 27.7 27.7 0 0 0 2.544-11.92q0-10.328-4.848-17.4a30.4 30.4 0 0 0-13.896-10.8q-9.056-3.736-22.4-3.736zM49.68 62.24q8.896 0 14.296 3.256 5.4 3.264 5.408 10.56A12.8 12.8 0 0 1 67 84a13.6 13.6 0 0 1-6.752 4.688A31.9 31.9 0 0 1 49.84 90.2h-12.4V62.56q1.92-.16 5.168-.24t7.072-.08m58.35 6.88c-.847 0-1.28.784-1.28 1.632v47.927c0 5.512.305 9.84 1.633 13.696a25.5 25.5 0 0 0 5.56 9.536 20.8 20.8 0 0 0 8.416 5.4 32.8 32.8 0 0 0 10.72 1.671 43.2 43.2 0 0 0 10.967-1.512 28.4 28.4 0 0 0 11.12-6.111 14.4 14.4 0 0 0 .8 4.543c.32.744 1.096 1.2 1.904 1.113h17q1.272 0 1.112-1.272c-.104-1.056-.24-1.976-.4-3.52-.16-1.529.104-3.329.048-5.392q-.08-3.096-.08-7.072V70.232a.984.984 0 0 0-1.112-1.12h-19.904q-1.44 0-1.432 1.12v55.079q-2.536 2.056-5.56 3.256a18.4 18.4 0 0 1-6.671 1.192q-6.672 0-9.528-3.736a16.56 16.56 0 0 1-3.24-10.24v-45.4a1.12 1.12 0 0 0-1.272-1.271z"/></svg>