<svg xmlns="http://www.w3.org/2000/svg" width="192" height="192" viewBox="0 0 192 192"><path d="M35.757 172.52c-7.614-1.608-14.107-7.905-16.075-15.596-.796-3.123-.813-7.785-.034-10.694.308-1.163 8.555-21.122 18.316-44.341C67.522 31.618 65.083 37.23 67.787 33.295a40.2 40.2 0 0 1 8.47-8.333 38.5 38.5 0 0 1 13.345-5.577c2.379-.514 10.18-.505 12.542 0 10.9 2.344 19.514 8.811 24.28 18.256.684 1.343 5.457 12.43 10.607 24.63l12.38 29.215c2.976 6.972 15.826 37.428 20.283 48.036 2.738 6.518 3.44 9.436 3.183 13.295q-.514 8.058-6.494 13.978c-2.061 2.054-3.028 2.747-5.39 3.885-9.983 4.824-21.498 1.873-27.401-7.024-1.24-1.882-1.3-1.994-19.711-45.094-10.976-25.7-14.244-33.074-14.946-33.715a4.363 4.363 0 0 0-6.33.137c-.702.735-2.987 5.86-8.847 19.813-6.827 16.255-7.905 19.026-7.913 20.395-.017 1.71.539 2.737 2.087 3.91.779.572 1.412.64 8.093.812 6.408.163 7.477.257 9.24.864a21.99 21.99 0 0 1 14.064 14.09c1.035 3.08 1.197 8.273.35 11.635-1.043 4.183-2.515 6.759-5.697 9.975-2.344 2.37-3.191 2.995-5.664 4.21-4.893 2.395-3.764 2.326-33.809 2.31-22.26-.026-26.965-.103-28.753-.48"/></svg>