<svg width="192" height="192" fill="none" xmlns="http://www.w3.org/2000/svg"><path d="M102 22H46a6 6 0 0 0-6 6v136a6 6 0 0 0 6 6h108l-28-48.497" stroke="#000" stroke-width="12" stroke-linecap="round" stroke-linejoin="round"/><path d="M96 60H82a6 6 0 0 0-6 6v16a6 6 0 0 0 6 6h14m6 38a52.005 52.005 0 0 0 36.77-15.23 52.004 52.004 0 0 0 0-73.54A52.002 52.002 0 0 0 102 22" stroke="#000" stroke-width="12" stroke-linecap="round" stroke-linejoin="round"/><path d="M96 88a13.998 13.998 0 0 0 14-14 13.998 13.998 0 0 0-14-14m6 66c-15.098 0-29.677 3.91-41.002 10.995-11.324 7.086-18.617 16.86-20.51 27.49" stroke="#000" stroke-width="12" stroke-linecap="round" stroke-linejoin="round"/></svg>