<svg width="192" height="192" fill="none" xmlns="http://www.w3.org/2000/svg"><path d="M89 127a31.996 31.996 0 0 0 22.627-9.373 31.996 31.996 0 0 0 0-45.254A31.999 31.999 0 0 0 89 63m53 0v64M53 63l-29.672 61.5M53 63l30 64" stroke="#000" stroke-width="12" stroke-linecap="round" stroke-linejoin="round"/><path d="M83 127h7m0-64h-8a6 6 0 0 0-6 6v46m13-52h78M30 115h46" stroke="#000" stroke-width="12" stroke-linecap="round" stroke-linejoin="round"/><path d="m151.5 146.5 16.743-16.743a6 6 0 0 0 1.757-4.242v-59.03a6 6 0 0 0-1.757-4.242l-38.486-38.486A5.998 5.998 0 0 0 125.515 22h-59.03a6 6 0 0 0-4.242 1.757L23.757 62.243A6 6 0 0 0 22 66.485v59.03a6 6 0 0 0 1.757 4.242L40.5 146.5M28 170h136a6 6 0 0 0 6-6v-10a6 6 0 0 0-6-6H28a6 6 0 0 0-6 6v10a6 6 0 0 0 6 6Z" stroke="#000" stroke-width="12" stroke-linecap="round" stroke-linejoin="round"/></svg>