<svg xmlns="http://www.w3.org/2000/svg" width="192" height="192" viewBox="0 0 192 192"><path d="M95.999 23.999c-6.776 0-8.584 5.192-10.4 8 0 0-45.04 79.648-67.944 119.98-2.656 4.176-2.16 10.176 1.816 13.64 4.504 3.912 12.536 2.936 15.544-2.48l52.64-93.04c2.64-4.568 5.872-4.904 8.344-4.904s5.704.336 8.344 4.912c0 0 52.656 93.04 52.64 93.032 3.008 5.416 11.04 6.392 15.552 2.48 3.976-3.464 4.464-9.464 1.808-13.64-22.904-40.336-67.936-119.98-67.936-119.98-1.816-2.808-3.632-8-10.4-8zm-1.984 80c-1.656.04-3.32.48-4.856 1.36a10 10 0 0 0-3.768 13.8l25.72 43.76a10.36 10.36 0 0 0 14.048 3.704c4.928-2.8 6.592-8.936 3.744-13.784l-25.72-43.776a10.32 10.32 0 0 0-9.168-5.064m-23.016 40a10.7 10.7 0 0 0-5.144 1.488c-4.8 2.8-6.664 8.552-4.168 12.92l3 5.264c2.496 4.368 8.376 5.632 13.168 2.824 4.8-2.8 6.656-8.552 4.16-12.92l-3-5.264c-1.64-2.864-4.728-4.392-8.016-4.312"/></svg>