<svg width="192" height="192" fill="none" xmlns="http://www.w3.org/2000/svg"><path d="M22 28v130a6 6 0 0 0 6 6h136a6 6 0 0 0 6-6V28" stroke="#000" stroke-width="12" stroke-linecap="round" stroke-linejoin="round"/><path d="M84 136v-28a6 6 0 0 0-6-6H50a6 6 0 0 0-6 6v28a6 6 0 0 0 6 6h28a6 6 0 0 0 6-6Zm24-28h40M44 78h104m-40 58h40M22 28s12 8 20 8 10-8 18-8 10 8 18 8 10-8 18-8 10 8 18 8 10-8 18-8 10 8 18 8 20-8 20-8" stroke="#000" stroke-width="12" stroke-linecap="round" stroke-linejoin="round"/></svg>