<svg xmlns="http://www.w3.org/2000/svg" width="192" height="192" viewBox="0 0 192 192"><path d="M108.26 70.558c-.456-.888-1.264-1.656-1.88-2.432l-4-4.936c-.648-.816-1.512-2.4-2.432-2.896-.576-.304-1.136.52-1.48.856-.984.984-2 1.92-2.984 2.904-.304.304-.976.768-.976 1.256 0 .64 1.184 1.456 1.6 1.88 1.64 1.632 3.312 3.224 4.944 4.856l3.44 3.44c.824.824 1.672 1.712 2.824 2 2.32.6 3.84-.96 5.328-2.464 2.84-2.832 5.712-5.632 8.544-8.464l5.328-5.328c.496-.496 1.816-1.392 1.912-2.112.072-.512-.656-.944-.968-1.256-1.088-1.08-2.168-2.176-3.296-3.216-.328-.32-.872-1.144-1.408-.96-.72.232-1.424 1.496-1.904 2.064q-2.424 2.84-4.832 5.72-2.6 3.104-5.232 6.184c-.8.936-1.552 2.16-2.528 2.904M86.165 61.03c-3.76.496-7.608.224-11.36.72-1.24.16-2.96-.24-3.776.968-.72 1.072-.304 3.224-.304 4.472v66.438c0 1.36-.464 3.56.944 4.36.72.416 1.704.264 2.504.264h11.84c.896 0 2.024.16 2.712-.56s.496-1.808.496-2.728v-33.847c0-.832-.144-1.864.36-2.592.584-.824 1.616-.992 2.536-1.192 2.016-.432 4.2-.92 6.272-.664 2.616.32 3.968 2.096 4.32 4.6.528 3.792.144 7.848.144 11.68v22.479c0 .784-.08 1.576.48 2.192.975 1.056 3.087.64 4.375.64h8.384c1.376 0 2.88.16 4.24-.032.744-.104 1.392-.56 1.6-1.304.512-1.8.12-4.168.12-6.032V107.23c0-7.6.592-16.896-6.584-21.735a16 16 0 0 0-3.68-1.824 29.6 29.6 0 0 0-7.367-1.28c-3.36-.224-6.96.208-10.264.848-1.304.24-3.176 1.12-4.296.064-1.072-1.016-.64-3.264-.64-4.6V66.326c0-1.504.672-4.936-1.408-5.304a5.6 5.6 0 0 0-1.648.008m65.502 11.44c-1.68.224-3.4.168-5.088.384a66.4 66.4 0 0 0-10.504 2.216c-1.512.44-4.56.904-4.832 2.776-.192 1.256.544 2.928.848 4.152l1.136 4.624c.208.832.416 1.656 1.28 2.04.72.32 1.48.08 2.192-.112a43 43 0 0 1 6.584-1.248c2.84-.368 6.12-.648 8.935 0 1.416.32 2.8.928 3.68 2.136a6.4 6.4 0 0 1 1.016 2.664c.216 1.08.24 2.28.16 3.368-.224 2.96-4.32 1.472-6.112 1.328-6.783-.544-14 0-19.59 4.351-3.472 2.704-4.928 6.768-5.336 11.016-.576 5.92 1.168 12.008 6.36 15.432 4.96 3.264 11.2 4.016 17 4.16 3.031.072 6.071.032 9.087-.256a67 67 0 0 0 12.536-2.376c1.28-.376 3.56-.784 4.432-1.84.896-1.104.432-3.52.432-4.855v-21.471c0-8.288.696-17.84-6.272-23.807a16 16 0 0 0-3.68-2.376 24 24 0 0 0-6.351-1.896c-2.504-.4-5.376-.736-7.912-.4m-109.54.152c-1.776.232-3.616.176-5.408.368a64 64 0 0 0-10.496 2.168c-1.44.416-4.68.912-4.992 2.68-.224 1.304.544 2.96.848 4.231.36 1.52.768 3.024 1.12 4.544.184.84.352 1.712 1.224 2.12.776.368 1.656.032 2.424-.184q1.704-.472 3.448-.76 1.44-.24 2.904-.416c4.608-.56 12.416-1.44 13.52 4.64.208 1.144.264 2.368.184 3.528-.064.84-.704 1.656-1.56 1.792-1.432.216-3.176-.44-4.624-.544-6.8-.496-13.84.056-19.439 4.384-3.456 2.688-5.056 7.112-5.248 11.376-.256 5.776 1.176 11.264 6.192 14.72 4.92 3.4 11.144 3.992 16.928 4.24 2.752.12 5.56.088 8.304-.168 4.544-.432 9.12-1.064 13.48-2.496 1.2-.4 3.456-.744 4.24-1.808.84-1.12.384-3.52.384-4.856v-21.855c0-8.16.496-16.968-6.112-22.959a16 16 0 0 0-3.68-2.408 22.4 22.4 0 0 0-6.12-1.872c-2.376-.4-5.12-.784-7.52-.464m-.864 34.071c1.48-.176 4.656-.008 5.44 1.464.296.576.208 1.264.208 1.88v7.056c0 .808.024 1.584-.64 2.176-.512.464-1.28.536-1.952.624-2.84.36-6.6.464-8.848-1.64-2.4-2.24-2.04-7.248.24-9.456 1.552-1.504 3.504-1.864 5.552-2.104m109.85.08c1.504-.176 4.624-.12 5.6 1.232.536.744.36 1.792.36 2.664v5.64c0 .8.176 1.856-.24 2.584-.512.912-1.488 1.032-2.424 1.152-2.792.368-6.592.464-8.776-1.624-2.456-2.344-2.168-7.312.24-9.6 1.464-1.384 3.312-1.824 5.24-2.048"/></svg>