<svg xmlns="http://www.w3.org/2000/svg" width="192" height="192" viewBox="0 0 192 192"><path d="M134.33 40.908 92.174 91.033a42 42 0 0 0-2.835-3.557l-.014-.015A34.01 34.01 0 0 0 63.41 75.473c-1.507.09-3.02.104-4.526.179l24.938-34.12h-33.02L31.582 68.53c-3.163 4.662-5.965 10.056-8.387 15.104-4.279 8.917-7.218 18.12-7.198 28.103.008.594.003 1.189 0 1.783 0 20.726 18.295 37.527 40.862 37.527 12.04 0 23.467-4.876 31.23-13.327 0 0 3.344-3.64 5.164-6.062h39.775v19.434h29.953v-19.434h13.015v-27.01h-13.015v-63.74zm-1.301 39.893v23.846h-19.976zM56.435 97.212c7.877 0 14.263 6.386 14.263 14.263s-6.386 14.263-14.263 14.263-14.263-6.386-14.263-14.263 6.385-14.263 14.263-14.263"/></svg>