<svg xmlns="http://www.w3.org/2000/svg" width="192" height="192" viewBox="0 0 192 192"><path d="M97.377 22.312c10.895 1.409 19.506 4.943 24.991 10.253l3.993 3.86 1.083-5.494 1.084-5.501 23.74-.334L176 24.754l-.767 5.377c-.433 2.95-3.042 20.381-5.801 38.728a60334 60334 0 0 0-9.462 62.935c-2.434 16.271-4.734 30.842-5.101 32.41-.659 2.81-.834 2.834-23.924 2.834-17.79 0-23.257-.375-23.232-1.584a50 50 0 0 1 1.134-6.318l1.108-4.752-5.018 4.527c-17.322 15.655-50.148 15.505-67.728-.292-13.396-12.045-19.956-26.908-21.065-47.748-1.925-35.994 15.588-69.729 43.038-82.94 12.987-6.244 22.573-7.653 38.195-5.628zM81.556 69.284c-11.17 4.051-17.847 13.887-17.897 26.366-.033 8.961 2.084 14.271 7.986 19.998 13.87 13.471 38.812 7.386 44.855-10.945 2.517-7.602 1.083-18.606-3.243-24.841-6.86-9.903-20.773-14.546-31.7-10.586z"/></svg>