<svg xmlns="http://www.w3.org/2000/svg" width="192" height="192" viewBox="0 0 192 192"><path d="M32.401 103.73h13.633l-6.816-13.633zm17.513 7.72H28.561l-3.944 7.745H16L39.217 72.76l23.217 46.434h-8.616zm113.74-4.464q-4.56 4.464-10.905 4.464a15.28 15.28 0 0 1-15.433-15.44q0-6.32 4.464-10.898 4.632-4.552 10.97-4.536 6.336 0 10.904 4.536 4.52 4.56 4.528 10.897a15.2 15.2 0 0 1-4.528 10.977m5.465-27.377a22.24 22.24 0 0 0-16.37-6.816q-9.712.008-16.36 6.816c-4.537 4.569-6.817 10-6.817 16.401s2.28 11.873 6.817 16.37c4.496 4.568 9.96 6.816 16.36 6.816s11.874-2.28 16.37-6.817q6.888-6.704 6.88-16.369c0-6.4-2.28-11.833-6.88-16.4m-60.627-6.817h7.68v46.402h-7.68zm-36.85 36.37q2.28 2.28 5.4 2.28a7.36 7.36 0 0 0 5.432-2.208 7.44 7.44 0 0 0 2.28-5.504V72.793h7.825v30.97c0 4.256-1.52 7.888-4.537 10.969a15.44 15.44 0 0 1-10.969 4.504c-4.288 0-7.92-1.488-10.969-4.504z"/></svg>