<svg xmlns="http://www.w3.org/2000/svg" width="192" height="192" viewBox="0 0 192 192"><path d="M107.28 19.375c9.616.753 18.608 2.678 26.043 5.587 7.204 2.823 12.354 6.048 17 10.694 5.587 5.56 8.444 10.823 10.224 18.796.522 2.335.522 2.583.659 53.147.128 46.456.17 50.879.547 51.803 1.883 4.637 4.347 6.579 8.898 6.972l2.353.214-2.858 1.37a50.65 50.65 0 0 1-32.237 4.003c-8.47-1.685-15.34-5.219-20.824-10.72a41.1 41.1 0 0 1-9.068-13.706l-1.386-3.336c-.206-.514-.291-.548-.582-.249a34 34 0 0 0-1.985 4.09c-2.85 6.468-5.844 11.165-9.668 15.126-4.312 4.457-9.291 6.904-16.854 8.273-2.643.48-3.867.54-10.318.54-8.316 0-10.669-.258-16.983-1.849-14.647-3.696-25.187-12.405-29.345-24.255-1.574-4.474-1.908-6.69-1.89-12.696.008-4.628.085-5.818.555-7.94C22.256 112.8 29.7 104.742 43.5 99.335c5.15-2.02 10.087-3.311 20.336-5.305 7.375-1.446 15.17-3.37 19.241-4.765 14.014-4.791 21.09-13.732 23.245-29.371.522-3.773.59-13.945.12-17.676-.667-5.313-1.77-9.266-3.422-12.2-1.146-2.07-3.722-4.637-5.664-5.647-7.05-3.687-20.405-2.592-30.748 2.515-4.448 2.208-6.93 4.466-6.93 6.331 0 .514.069 1.01.163 1.104.086.086 1.985.188 4.21.214 3.61.051 4.277.128 6.279.736a24.38 24.38 0 0 1 16.752 17.077c.684 2.48.941 7.94.488 10.729-1.925 11.935-11.884 21.859-23.861 23.767a36.8 36.8 0 0 1-11.627-.573c-10.73-2.815-18.24-10.198-20.978-20.62-.856-3.302-1.087-9.034-.47-12.31 1.197-6.374 3.909-11.464 8.811-16.53C49.531 26.4 66.762 20.266 89.177 19.119a180 180 0 0 1 18.103.256M101.95 80.7a68.4 68.4 0 0 1-9.548 7.88c-8.684 5.869-13.004 14.519-14.929 29.893-.385 3.097-.445 5.552-.445 18.043 0 17.179.343 21.73 1.874 25.179 1.07 2.421 2.224 3.097 5.313 3.114 2.087 0 2.344-.051 3.85-.855 2.259-1.198 5.647-4.646 7.905-8.017a62.5 62.5 0 0 0 9.018-22.364c.556-2.857.556-2.96.556-29.294 0-17.402-.086-26.453-.248-26.496-.137-.043-1.643 1.275-3.346 2.926z"/></svg>