<svg xmlns="http://www.w3.org/2000/svg" width="192" height="192" viewBox="0 0 192 192"><path d="M30.242 18.217c-7.088 0-14.056 5.36-14.224 13.536q-.024.88-.016 1.752c0 44.511 35.744 80.727 79.999 80.727S176 78.008 176 33.497q0-.88-.016-1.736c-.168-8.176-7.136-13.544-14.216-13.544-8.664 0-14.856 7.264-14.832 15.08v.2c0 28.536-22.88 51.527-50.935 51.527S45.066 62.032 45.066 33.497v-.2c.024-7.816-6.16-15.08-14.824-15.08m22.648 119.54a4.36 4.36 0 0 1-4.2 4.208v.288a4.35 4.35 0 0 1 4.2 4.184h.424a4.35 4.35 0 0 1 4.208-4.184v-.288a4.36 4.36 0 0 1-4.208-4.208h-.192zm-23.128 2.992-9.256 23.84h3.056l2.128-5.68h11.544l2.136 5.68h2.92l-9.184-23.84zm14.448 0v23.84h2.976v-23.84zm14.944 0v23.768h14.88v-2.976H62.082v-7.472h10.032v-3H62.082v-7.336h11.184v-2.984zm-27.84 3.424 4.712 11.816h-9.04zm139.75.984v.36h.64v1.864h.432v-1.864h.648v-.36zm2.072 0v2.224h.344v-1.712l.648 1.712h.136l.656-1.712v1.712h.496v-2.224h-.576l-.576 1.512-.568-1.52zm-23.888 1.704c-2.992.12-5.872 1.672-5.872 4.92 0 2 1.144 3.344 2.92 4.128 1.568.72 3.28.928 4.84 1.496 1.208.504 2.272 1.288 2.136 2.712-.288 2.56-3.624 2.704-5.48 2.208a3.7 3.7 0 0 1-1.648-.864 8 8 0 0 1-1.208-1.208l-2.136 1.92s.36.368.496.368c1.92 1.92 4.272 2.768 6.976 2.632 2.28-.08 4.848-1 5.704-3.344.784-2.136.28-4.928-1.784-6.208-1.496-.92-3.344-1.2-5.056-1.632-1.28-.352-3.2-1-2.784-2.704.288-1.216 1.856-1.712 3-1.712 2.28 0 3.28.64 4.344 1.92l2.128-1.712c.08 0-1.568-1.488-1.704-1.632a8 8 0 0 0-4.88-1.28zm15.016 0c-2.984.12-5.864 1.672-5.864 4.92 0 2 1.136 3.344 2.92 4.128 1.568.72 3.28.928 4.84 1.496 1.208.504 2.272 1.288 2.128 2.712-.28 2.56-3.64 2.704-5.488 2.208a3.6 3.6 0 0 1-1.632-.864 8 8 0 0 1-1.208-1.208l-2.136 1.92s.352.368.496.368c1.92 1.92 4.272 2.768 6.976 2.632 2.28-.08 4.848-1 5.704-3.344.784-2.136.28-4.928-1.784-6.208-1.496-.92-3.344-1.2-5.056-1.632-1.28-.352-3.208-1-2.784-2.704.288-1.216 1.856-1.712 3-1.712 2.272 0 3.272.64 4.336 1.92l2.136-1.712c.072 0-1.568-1.488-1.712-1.632a8 8 0 0 0-4.872-1.28zm-61.463.08c-5.336 0-8.76 4.775-8.76 9.255v17.584h2.92v-11.744c1.144 2.208 4.2 3.2 6.48 3.2 4.696 0 8.816-3.768 8.816-9.247 0-5.624-4.048-9.048-9.456-9.048m30.104 0c-4.912 0-8.472 4.064-8.472 9.04 0 5.415 3.704 9.255 8.896 9.327 2.776 0 5.064-1.136 6.84-2.848l-1.92-2a6.4 6.4 0 0 1-4.768 2.08c-2.704.073-5.624-1.648-5.84-4.92h13.664v-1.424c0-5.2-2.272-9.255-8.4-9.255m-9.696.08c-2.184.064-4.2.671-5.536 2.207v-1.864h-2.92v17.304h2.92v-10.464c2.136-4.56 5.616-4.128 5.976-4.056v-3.135zm-47.823.343 6.976 8.76-6.624 8.472h3.416l4.84-6.344 4.848 6.344h3.416l-6.264-8.48 6.624-8.752h-3.776l-4.848 6.552-4.76-6.56zm-23.704.36v16.872h3v-16.872zm81.015 2.136c3.704 0 5.552 2.488 5.552 5.056h-10.6c.136-2.64 2.272-5.056 5.048-5.056m-29.592.2c3.912.08 6.096 2.32 6.096 5.92 0 4.352-2.56 6.344-6.048 6.344-4.056 0-5.904-3.344-5.976-5.12-.288-5.488 2.992-7.064 5.128-7.136z"/></svg>