<svg width="192" height="192" fill="none" xmlns="http://www.w3.org/2000/svg"><circle cx="52" cy="132" r="30" stroke="#000" stroke-width="12" stroke-linecap="round" stroke-linejoin="round"/><path d="M140 162c16.569 0 30-13.431 30-30 0-14.158-9.808-26.026-23-29.179-13.192-3.153-23-14.663-23-28.821 0-2.41.621-4.668 1.158-6.913A30.1 30.1 0 0 0 126 60c0-16.569-13.431-30-30-30-16.569 0-30 13.431-30 30 0 14.104 9.733 25.935 22.85 29.142C102.04 92.296 112 103.843 112 118c0 2.319-.619 4.577-1.117 6.745A30.062 30.062 0 0 0 110 132c0 16.569 13.431 30 30 30Z" stroke="#000" stroke-width="12" stroke-linecap="round" stroke-linejoin="round"/></svg>