<svg xmlns="http://www.w3.org/2000/svg" width="192" height="192" viewBox="0 0 192 192"><path d="M94.846 87.867c-7.023.68-12.503 3.296-17.087 8.095-3.12 3.296-5.44 7.024-7.631 12.255-3.192 7.664-3.944 8.736-12.04 17.047-6.983 7.2-9.919 11.071-12.503 16.271-4.047 8.16-4.367 14.687-1.143 21.494 4.335 8.992 12.07 13.575 21.886 12.895 4.191-.288 7.455-.936 16.799-3.263 16.055-4.048 17.599-3.976 35.757 1.44 7.311 2.183 12.535 2.471 16.943.927 4.16-1.4 7.2-4.335 9.535-9.103 2.216-4.512 2.68-6.727 2.68-12.751 0-4.44-.104-5.584-.856-7.88-2.328-7.415-4.552-10.678-13.151-19.166-4.048-4.016-7.448-7.704-8.272-9.032-.792-1.176-2.367-4.655-3.511-7.703-4.44-11.783-7.2-15.4-14.44-19.055-3.327-1.68-9.35-2.832-12.966-2.48zm51.556-12.503c-7.631 2.544-13.727 10.063-16.303 20.135-2.976 11.463.072 21.494 7.56 24.934 5.551 2.544 12.719.504 18.479-5.232 4.271-4.263 6.879-8.879 8.599-15.263 1.184-4.295 1.12-10.815-.104-14.543-1.616-4.903-3.976-7.807-7.775-9.527-2.648-1.224-7.56-1.472-10.463-.504zm-110.59-.608c-5.704 2.256-9.4 9.775-9.4 19.087 0 12.751 5.16 23.606 13.08 27.478 2.4 1.184 2.647 1.216 6.623 1.216 3.944 0 4.232-.032 6.52-1.184 3.84-1.896 6.24-5.16 7.743-10.527.856-3.192.856-12.327-.04-15.983-1.536-6.407-3.688-10.319-7.951-14.615-3.904-3.904-7.664-5.872-11.855-6.088-2.296-.112-3.192 0-4.736.608zm119.94-16.271c0 2-1.04 6.016-2.336 8.92a40 40 0 0 0-.896 2.111c0 .072.688.216 1.544.32 2.296.36 5.048 1.76 6.736 3.52l1.504 1.536-.288-1.792c-.64-4.376-4.624-15.335-5.872-16.087-.288-.176-.4.288-.4 1.472zm-123.17 1.176a56 56 0 0 0-2.368 5.92c-.864 2.72-2.368 8.59-2.368 9.279 0 .176.648-.4 1.4-1.256 1.616-1.864 4.512-3.44 6.88-3.76l1.68-.224-.824-1.856a33.6 33.6 0 0 1-2.472-8.383l-.424-2.76zm83.034-24.862c-6.624 2.4-11.391 9.391-14.215 20.927-1.224 4.832-1.4 13.07-.36 16.839 1.536 5.52 4.76 10.063 8.383 11.855 1.432.72 2.256.864 5.16.864 3.224 0 3.544-.08 6.264-1.4 4.16-2.04 7.775-5.808 9.959-10.319a48 48 0 0 0 2.616-6.952c.896-3.255.968-4.08.968-10.35 0-5.84-.104-7.2-.784-9.568-1.616-5.871-4.264-9.487-8.208-11.279-2.647-1.224-7.271-1.504-9.775-.608zm-48.717-.392c-8.671 2.44-13.327 12.359-11.863 25.15 1.4 11.967 7.24 22.534 14.263 25.83 1.792.824 2.544.96 5.48.96 3.12 0 3.583-.104 5.303-1.064 3.728-2.048 6.52-6.2 7.952-11.759 1.144-4.512 1.576-10.775 1.112-15.903-1.144-11.895-5.088-19.519-11.72-22.566-2.607-1.216-7.415-1.504-10.526-.64zm56.604-17.839c0 .36-.864 3.152-1.904 6.24l-1.896 5.615 1.864.184c1.936.216 4.192 1.144 6.16 2.648.64.504 1.288.824 1.4.72.504-.504-2.864-11.255-4.552-14.583-.784-1.576-1.072-1.76-1.072-.824m-58.18 1.504a67 67 0 0 0-3.44 10.135c-1.04 4.016-1.008 4.12.96 2.76 2.08-1.432 4.768-2.472 6.416-2.472q1.336.008 1.12-.464l-1.872-5.624c-.928-2.864-1.824-5.48-1.936-5.88-.208-.535-.464-.175-1.248 1.545"/></svg>