<svg xmlns="http://www.w3.org/2000/svg" width="192" height="192" viewBox="0 0 192 192"><path d="M40.268 54.173c-3.848 0-8.15 1.483-9.047 6.203a.72.72 0 0 0 .61.86l3.937.421a.88.88 0 0 0 .703-.75 3.08 3.08 0 0 1 3.25-2.437 2.72 2.72 0 0 1 2.281 1.062c.56.832.485 1.978.485 2.938v.515c-2.344.264-5.418.462-7.61 1.422a6.88 6.88 0 0 0-4.328 6.61c0 4.2 2.655 6.296 6.063 6.296 2.88 0 4.448-.673 6.672-2.937a9.6 9.6 0 0 0 2.328 2.703.8.8 0 0 0 .953-.094h.015c.8-.72 2.286-1.991 3.11-2.687a.8.8 0 0 0 0-1.078c-.736-1.016-1.532-1.854-1.532-3.75v-6.297c0-2.68.187-5.144-1.78-6.984-1.553-1.488-4.134-2.016-6.11-2.016m53.155 0c-3.856 0-8.158 1.483-9.062 6.203a.72.72 0 0 0 .61.86l3.936.421a.88.88 0 0 0 .704-.75 3.08 3.08 0 0 1 3.25-2.437 2.72 2.72 0 0 1 2.28 1.062c.577.832.485 1.978.485 2.938v.515c-2.36.264-5.41.462-7.61 1.422a6.88 6.88 0 0 0-4.327 6.61c0 4.2 2.646 6.296 6.062 6.296 2.872 0 4.448-.673 6.672-2.937a9.6 9.6 0 0 0 2.328 2.703.8.8 0 0 0 .953-.094h.016c.808-.72 2.325-1.991 3.11-2.687a.8.8 0 0 0 0-1.078c-.737-1.016-1.532-1.854-1.532-3.75v-6.297c0-2.68.195-5.144-1.78-6.984-1.553-1.488-4.127-2.016-6.095-2.016m62.249.187c-2.8 0-4.38 1.34-5.515 4.188h-.079v-3.14a.8.8 0 0 0-.719-.594h-3.78a.8.8 0 0 0-.782.671v20.796a.8.8 0 0 0 .719.766h4.046a.8.8 0 0 0 .782-.75V65.094a9.6 9.6 0 0 1 .64-3.937 2.64 2.64 0 0 1 2.376-1.657c2.791 0 2.515 3.322 2.515 5.594v11.265a.8.8 0 0 0 .735.656h4.046a.8.8 0 0 0 .797-.656V63.281c0-2.016-.007-4.82-1.062-6.484a5.28 5.28 0 0 0-4.719-2.438zm-92.107.016c-2.488 0-4.344 1.228-5.328 3.86h-.078v-2.72a.8.8 0 0 0-.734-.702h-3.782a.8.8 0 0 0-.78.75V76.36a.8.8 0 0 0 .718.687h4.062a.8.8 0 0 0 .781-.766v-11.03c0-2.4-.083-5.735 2.797-5.735 2.872 0 2.516 3.414 2.516 5.734v11.031a.8.8 0 0 0 .719.75h4.03a.8.8 0 0 0 .798-.75v-11.03a12.8 12.8 0 0 1 .375-3.985 2.72 2.72 0 0 1 2.421-1.703 2.11 2.11 0 0 1 2.36 1.797 24 24 0 0 1 .11 3.89v11.031a.8.8 0 0 0 .718.766h4.078a.8.8 0 0 0 .781-.766V63.172c0-2.232.264-4.779-1.016-6.53a5.984 5.984 0 0 0-10.297 1.577c-1.128-2.632-2.761-3.843-5.25-3.843zm68.936 0c-5.864 0-9.11 5.076-9.11 11.5 0 6.44 3.214 11.61 9.11 11.61 5.664 0 9.265-5.072 9.265-11.376 0-6.56-3.25-11.719-9.265-11.719zm-25.515.344a.736.736 0 0 0-.781.797v2.968a.744.744 0 0 0 .718.75h6.969l-7.984 11.422a3.6 3.6 0 0 0-.5 2.047v3c0 .432.489.928.953.688a15.36 15.36 0 0 1 14.062 0c.504.264.984-.24.984-.672v-3.156a1.36 1.36 0 0 0-.703-1.157 14.8 14.8 0 0 0-7.593-1.64l6.984-9.844a4 4 0 0 0 1-1.86v-2.546a.744.744 0 0 0-.797-.797zm25.515 3.906h.031a2.56 2.56 0 0 1 2.64 2 19.2 19.2 0 0 1 .61 5.531c0 2.664-.13 7.031-3.281 7.031s-3.156-5.417-3.156-7.953.172-6.609 3.156-6.609m-90.608 7.61c.183-.006.364 0 .547 0l.047.874c0 1.576.002 2.897-.781 4.297a3.28 3.28 0 0 1-2.813 1.844c-1.576 0-2.469-1.186-2.469-2.938 0-3.24 2.723-3.996 5.469-4.078zm53.124 0c.184-.006.363 0 .547 0l.031.874c0 1.576-.005 2.897-.797 4.297a3.28 3.28 0 0 1-2.797 1.844c-1.576 0-2.468-1.186-2.468-2.938 0-3.24 2.725-3.996 5.484-4.078zm18.296 11.733c-2.432.034-5.308.582-7.484 2.11-.664.472-.541 1.11.203 1.03 2.448-.287 7.915-.95 8.875.298.968 1.248-1.088 6.376-2 8.656-.272.696.32.973.953.453 4.08-3.416 5.129-10.57 4.297-11.594-.416-.512-2.412-.987-4.844-.953m-63.842 1.375c-.51.068-.731.692-.203 1.172A50.88 50.88 0 0 0 83.627 93.61c9.488 0 20.525-2.97 28.124-8.578 1.248-.936.17-2.34-1.125-1.812a68.8 68.8 0 0 1-26.203 5.39 69.1 69.1 0 0 1-34.36-9.125.95.95 0 0 0-.593-.14zm60.968 22.281a.8.8 0 0 0-.203.016h-2.188a1.2 1.2 0 0 0-.796.219 1.04 1.04 0 0 0-.297.719l-.625 5.125-2.922.406a1.2 1.2 0 0 0-.672.328 1.12 1.12 0 0 0-.219.781v1.219a.8.8 0 0 0 .938.937h2.734v11.656c-.021 2.134.506 3.715 1.578 4.766 1.072 1.05 2.73 1.578 4.953 1.578a14.4 14.4 0 0 0 3.688-.453 1.6 1.6 0 0 0 .859-.438 1.6 1.6 0 0 0 .25-.953v-1.515c0-.523-.239-.797-.719-.797a4.8 4.8 0 0 0-.984.125 8 8 0 0 1-1.578.125 3.52 3.52 0 0 1-2.36-.61 2.64 2.64 0 0 1-.703-2.046V111.39h5.203a.8.8 0 0 0 .922-.938v-1.968a.8.8 0 0 0-.922-.922h-5.203v-5a.8.8 0 0 0-.734-.938zm56.983 5.297c-3.221 0-5.74 1.02-7.531 3.047q-2.688 3.054-2.688 8.5 0 5.496 2.75 8.374c2.75 2.878 4.542 2.891 8.094 2.891a16.8 16.8 0 0 0 6.422-1.125 1.84 1.84 0 0 0 .875-.531 1.6 1.6 0 0 0 .187-.906v-1.516c.005-.565-.214-.844-.64-.844l-.297.031-.5.125a19.2 19.2 0 0 1-5.328.797c-2.31.01-4.036-.502-5.156-1.515-1.11-1.008-1.706-2.575-1.797-4.719h13.047a.96.96 0 0 0 .61-.187 1.2 1.2 0 0 0 .312-.75 24 24 0 0 0 .218-3c0-2.758-.736-4.897-2.218-6.406q-2.224-2.266-6.36-2.266m-141.58.016a20 20 0 0 0-7.312 1.266 2.1 2.1 0 0 0-.891.562 1.6 1.6 0 0 0-.172.844v1.578c.005.523.2.781.563.781a2.4 2.4 0 0 0 .718-.125 21 21 0 0 1 3.203-.781 19 19 0 0 1 3.094-.281c1.552-.01 2.631.273 3.25.843.619.571.938 1.571.938 3v2.5a21.6 21.6 0 0 0-4.907-.625 9.28 9.28 0 0 0-6.062 1.86 6.64 6.64 0 0 0-.422 9.593 6.64 6.64 0 0 0 4.797 1.781 9.6 9.6 0 0 0 3.562-.703 12 12 0 0 0 3.281-1.984l.204 1.219a.936.936 0 0 0 1.062.843h2.234a.8.8 0 0 0 .938-.922v-14.265q-.008-3.584-1.969-5.28c-1.306-1.131-3.346-1.704-6.109-1.704m24.265 0a10.4 10.4 0 0 0-3.75.703 10.4 10.4 0 0 0-3.281 2.094l-.25-1.313a.984.984 0 0 0-1.094-.844h-2.375a.8.8 0 0 0-.922.922v28.374a.8.8 0 0 0 .922.938h3.14a.8.8 0 0 0 .938-.938v-9.64a8.8 8.8 0 0 0 2.875 1.703 9.6 9.6 0 0 0 3.422.625 8.24 8.24 0 0 0 4.734-1.39 9.2 9.2 0 0 0 3.235-4.032 15.2 15.2 0 0 0 1.171-6.125c0-3.376-.796-6.067-2.375-8.078a7.76 7.76 0 0 0-6.39-3zm24.015 0a10.4 10.4 0 0 0-3.734.703 10.4 10.4 0 0 0-3.282 2.094l-.265-1.313a.984.984 0 0 0-1.094-.844h-2.36a.8.8 0 0 0-.937.922v28.374a.8.8 0 0 0 .938.938h3.14a.8.8 0 0 0 .922-.938v-9.64a8.8 8.8 0 0 0 2.89 1.703 9.6 9.6 0 0 0 3.423.625 8.24 8.24 0 0 0 4.718-1.39 9.2 9.2 0 0 0 3.25-4.032 15.2 15.2 0 0 0 1.157-6.125c0-3.376-.781-6.067-2.36-8.078a7.76 7.76 0 0 0-6.406-3zm19.187 0a9.36 9.36 0 0 0-5.875 1.703 5.6 5.6 0 0 0-2.203 4.672c0 2.736 1.572 4.716 4.719 5.922l3.515 1.36a6.4 6.4 0 0 1 2.203 1.171 2 2 0 0 1 .594 1.5 2.24 2.24 0 0 1-.984 2 5.6 5.6 0 0 1-3.094.656 20 20 0 0 1-5.406-.844 5.6 5.6 0 0 0-1.188-.25c-.394 0-.578.279-.578.844v1.516a1.6 1.6 0 0 0 .172.906 1.84 1.84 0 0 0 .875.531 16.8 16.8 0 0 0 6.172 1.11c2.715 0 4.839-.603 6.375-1.797a6.08 6.08 0 0 0 2.297-5.016 5.2 5.2 0 0 0-1.125-3.422 8.8 8.8 0 0 0-3.656-2.36l-3.25-1.28a8.8 8.8 0 0 1-2.375-1.235 1.92 1.92 0 0 1-.641-1.515 2 2 0 0 1 .906-1.797 5.6 5.6 0 0 1 2.844-.563 20 20 0 0 1 4.312.641 8 8 0 0 0 1.047.203.64.64 0 0 0 .532-.187 1.1 1.1 0 0 0 .156-.657v-1.484a1.6 1.6 0 0 0-.203-.953 1.6 1.6 0 0 0-.86-.484 16.8 16.8 0 0 0-5.28-.891zm35.859.016q-4.905-.007-7.656 3c-1.835 2.01-2.75 4.812-2.75 8.39q-.001 5.328 2.75 8.36c1.834 2.016 4.387 3.03 7.656 3.03 3.27.022 5.821-.983 7.656-3q2.751-3.022 2.75-8.39c-.005-3.583-.92-6.385-2.75-8.39q-2.744-3-7.656-3m25.109.39a6.9 6.9 0 0 0-3.203.782 12 12 0 0 0-3.156 2.625l-.516-2.406a.96.96 0 0 0-.312-.64 1.6 1.6 0 0 0-.797-.173h-2.235a.8.8 0 0 0-.921.938v19.703a.8.8 0 0 0 .937.922l3.063-.079a.8.8 0 0 0 .921-.937v-14.672a9.6 9.6 0 0 1 5.516-1.578c.344 0 .665.047.953.047.304.026.538.031.703.031.528 0 .797-.293.797-.89v-2.282a2 2 0 0 0-.156-.937.8.8 0 0 0-.5-.36 3.2 3.2 0 0 0-.907-.093zm12.906 3.204a4 4 0 0 1 3.281 1.36 6 6 0 0 1 1.125 3.936v.344h-9.765a6.56 6.56 0 0 1 1.656-4.11 4.8 4.8 0 0 1 3.703-1.53m-118.7.312a4.56 4.56 0 0 1 4 1.797q1.288 1.75 1.297 5.515.007 3.769-1.313 5.61a4.56 4.56 0 0 1-4.015 1.843 8.8 8.8 0 0 1-5.031-1.688v-11.5a8.8 8.8 0 0 1 5.062-1.578zm24.031 0a4.56 4.56 0 0 1 4 1.797c.859 1.168 1.281 3.004 1.281 5.515.005 2.512-.422 4.383-1.297 5.61a4.56 4.56 0 0 1-4.015 1.843h-.016a8.8 8.8 0 0 1-5.031-1.688v-11.5a8.8 8.8 0 0 1 5.078-1.578zm56.655 0q5.328-.049 5.328 7.437c0 4.987-1.776 7.485-5.328 7.485v.016c-3.552-.032-5.328-2.54-5.328-7.5s1.776-7.438 5.328-7.438m-104.14 8.765c.089-.002.174 0 .266 0a20 20 0 0 1 3.937.469v4.062a10.4 10.4 0 0 1-2.625 1.484 7.2 7.2 0 0 1-2.562.532 3.2 3.2 0 0 1-2.328-.813 3.04 3.04 0 0 1-.828-2.297c0-2.216 1.387-3.368 4.14-3.437"/></svg>