<svg xmlns="http://www.w3.org/2000/svg" width="192" height="192" viewBox="0 0 192 192"><path d="M58.059 44.898c-.588 0-1.239.16-1.72.64-.48.482-.656 1.148-.656 1.736v48.983c0 2.364.662 4.398 2.063 5.86 1.4 1.467 3.406 2.189 5.69 2.189.508 0 1.06-.026 1.672-.078.625-.056 1.129-.13 1.594-.282.48-.123.956-.354 1.313-.766.379-.436.547-1.034.547-1.563v-1.453c0-.563-.157-1.205-.625-1.673s-1.11-.625-1.672-.625a8.5 8.5 0 0 0-1.126.094 6.5 6.5 0 0 1-.86.062c-.957 0-1.383-.238-1.453-.312-.09-.096-.313-.565-.313-1.532V47.273c0-.588-.176-1.254-.656-1.735-.48-.48-1.131-.64-1.72-.64zM33.552 61.919a37.4 37.4 0 0 0-6.783.625 34.5 34.5 0 0 0-6.455 1.829c-1.046.404-1.782 1.553-1.782 2.673v1.234c0 .521.117 1.113.547 1.579s1.066.64 1.594.64c.456 0 .837-.107 1.25-.265v-.016c.263-.102.68-.228 1.22-.375h.015c3.43-.995 6.657-1.485 9.69-1.485 3.261 0 5.399.668 6.534 1.704 1.135 1.038 1.829 2.875 1.829 5.799v4.813a41 41 0 0 0-4.174-.89c-1.994-.315-3.853-.47-5.564-.47-4.64 0-8.453 1.14-11.253 3.517-2.795 2.373-4.22 5.746-4.22 9.753 0 3.624 1.156 6.7 3.47 8.956 2.318 2.263 5.493 3.376 9.253 3.376 4.44 0 8.723-1.43 12.769-4.22l.11 1.11c.043.578.243 1.211.718 1.656.484.454 1.132.61 1.72.61h1.61c.587 0 1.254-.16 1.734-.64.48-.482.641-1.148.641-1.736V74.563c0-4.044-1.22-7.334-3.735-9.503-2.516-2.168-6.143-3.141-10.738-3.141m55.751 0c-2.947 0-5.648.484-8.065 1.5-2.412 1.015-4.494 2.516-6.174 4.47-1.677 1.953-2.938 4.318-3.798 7.034-.86 2.72-1.281 5.741-1.281 9.065 0 6.735 1.6 12.051 4.954 15.739 3.35 3.686 8.254 5.502 14.364 5.502 4.29 0 8.362-.796 12.191-2.392l.016-.015h.016c1.012-.459 1.563-1.636 1.563-2.735v-1.063c0-.52-.117-1.112-.547-1.578-.429-.467-1.065-.657-1.594-.657-.46 0-.896.11-1.313.281v.016h-.016c-.222.094-.688.257-1.328.453-2.906.837-5.797 1.25-8.69 1.25-4.417 0-7.478-1.202-9.534-3.532-1.83-2.072-2.932-5.32-3.142-9.815a37 37 0 0 0 4.455.797c2.01.234 4.01.36 6.001.36 5.544 0 9.767-.838 12.676-2.767 2.912-1.933 4.408-5.114 4.408-9.034 0-3.95-1.36-7.255-4.064-9.534h-.016c-2.708-2.28-6.449-3.345-11.08-3.345zm72.209 0a37.3 37.3 0 0 0-6.768.625c-2.289.422-4.451 1.03-6.47 1.829-1.046.404-1.782 1.553-1.782 2.673v1.234c0 .521.132 1.113.563 1.579s1.066.64 1.594.64c.456 0 .822-.107 1.235-.265v-.016c.263-.102.695-.228 1.234-.375h.016c3.43-.995 6.656-1.485 9.69-1.485 3.26 0 5.398.667 6.534 1.704 1.135 1.038 1.812 2.875 1.812 5.799v4.814a41 41 0 0 0-4.173-.891c-1.993-.314-3.838-.47-5.548-.47-4.642 0-8.454 1.14-11.253 3.517-2.795 2.373-4.236 5.746-4.236 9.753 0 3.625 1.17 6.7 3.486 8.956 2.318 2.262 5.477 3.376 9.237 3.376 4.44 0 8.738-1.43 12.785-4.22l.094 1.079v.03c.043.58.258 1.211.734 1.657.484.454 1.132.61 1.72.61h1.61c.586 0 1.238-.16 1.718-.64.481-.482.657-1.148.657-1.736V74.563c0-4.044-1.236-7.334-3.751-9.502s-6.143-3.142-10.738-3.142m-50.859 1.141c-.505 0-1.058.098-1.532.5-.473.402-.687 1.056-.687 1.579 0 .484.136.664.25.89.113.227.251.448.422.704l.016.016 11.44 16.02-12.565 17.49c-.41.523-.782.837-.782 1.75 0 .523.213 1.161.688 1.563.475.403 1.027.5 1.532.5h2.14c1.01 0 2.016-.523 2.611-1.343v-.016l10.128-14.739 10.409 14.74v.015c.58.802 1.545 1.344 2.532 1.344h2.376c.504 0 1.057-.1 1.531-.5.475-.402.688-1.04.688-1.564 0-.818-.318-1.157-.672-1.688l-12.613-17.849 11.3-15.645.016-.016c.353-.53.657-.858.657-1.672 0-.523-.199-1.177-.673-1.579s-1.042-.5-1.547-.5h-2.063c-.988 0-1.952.558-2.532 1.36l-9.034 12.848-9.05-12.848v-.016c-.594-.818-1.599-1.344-2.61-1.344zm-21.741 5.22c3.135 0 5.323.627 6.658 1.673 1.335 1.045 2 2.525 2 4.845 0 2.154-.663 3.403-2.11 4.314-1.454.914-4.055 1.5-7.767 1.5-1.94 0-3.872-.126-5.783-.375a48 48 0 0 1-4.736-.86c.532-3.606 1.732-6.274 3.532-8.096 1.973-1.996 4.618-3 8.206-3zM32.474 85.441c2.77 0 5.689.386 8.737 1.126v7.924c-2.032 1.26-4.027 2.24-5.986 2.907-2.145.733-4.114 1.078-5.893 1.078-2.334 0-3.877-.55-4.845-1.469-.968-.92-1.516-2.314-1.516-4.501 0-2.494.73-4.114 2.204-5.252s3.881-1.813 7.299-1.813m127.97 0c2.77 0 5.673.386 8.721 1.126v7.924c-2.032 1.26-4.027 2.24-5.986 2.907-2.145.733-4.098 1.078-5.876 1.078-2.334 0-3.877-.55-4.846-1.469-.968-.92-1.516-2.314-1.516-4.501 0-2.494.73-4.114 2.204-5.252s3.881-1.813 7.299-1.813m-3.548 43.095c-16.425 12.107-40.232 18.566-60.729 18.566-28.741 0-54.615-10.63-74.189-28.31-1.538-1.39-.16-3.285 1.686-2.202 21.125 12.29 47.245 19.685 74.226 19.685 18.197 0 38.214-3.765 56.62-11.577 2.78-1.182 5.105 1.82 2.386 3.838m6.617-7.797c-2.085-2.671-13.822-1.262-19.09-.638-1.605.196-1.85-1.198-.404-2.205 9.349-6.58 24.689-4.68 26.476-2.475 1.79 2.22-.467 17.596-9.251 24.934-1.345 1.127-2.634.526-2.033-.967 1.972-4.927 6.396-15.966 4.302-18.65"/></svg>