<svg xmlns="http://www.w3.org/2000/svg" width="192" height="192" viewBox="0 0 192 192"><path d="M82.527 19.047a4.535 4.535 0 0 0-5.18 4.278 4.364 4.364 0 0 0 3.71 4.846 7.7 7.7 0 0 0 2.59 0 4.364 4.364 0 0 0 3.693-3.96 4.406 4.406 0 0 0-2.991-4.897 5.1 5.1 0 0 0-1.822-.267M35.552 32.082a13.7 13.7 0 0 0-7.537 2.925 3.4 3.4 0 0 1-.819.584c-.077-.042-.15-.082-.15-.117-.12-.385-.206-.776-.318-1.17a1.54 1.54 0 0 0-1.754-1.303c-1.164 0-2.363.034-3.526 0a2.74 2.74 0 0 0-2.323.769c0 13.604-.001 27.239.033 40.792a2.14 2.14 0 0 0 2.173.936c1.394-.035 2.8 0 4.194 0 2.447 0 2.457-.002 2.457-2.407v-11.08c0-.274-.124-.579.15-.819a13.1 13.1 0 0 0 6.751 2.69 11.38 11.38 0 0 0 9.141-2.84 14.55 14.55 0 0 0 4.044-6.484 24 24 0 0 0 .853-9.676 18 18 0 0 0-1.52-5.832 11.21 11.21 0 0 0-7.772-6.651 13.7 13.7 0 0 0-4.077-.317m77.039 0a14.6 14.6 0 0 0-2.908.284 20.5 20.5 0 0 0-6.918 2.908c-.274.162-.5.434-.886.434-.197-.581-.321-1.082-.518-1.62A1.4 1.4 0 0 0 100.007 33h-4.863a1.11 1.11 0 0 0-1.086.735 4.3 4.3 0 0 0-.117.92v26.972c0 1.326.344 1.704 1.705 1.704h5.214c1.437 0 1.755-.3 1.755-1.738V40.89a.625.625 0 0 1 .418-.752 13.7 13.7 0 0 1 6.801-1.32 2.91 2.91 0 0 1 2.724 2.34 8.6 8.6 0 0 1 .184 2.005v18.382c0 1.437.317 1.788 1.754 1.788h4.128c.625 0 1.198 0 1.788-.034a.94.94 0 0 0 .97-.935 5 5 0 0 0 .083-1.12V40.805a.64.64 0 0 1 .451-.702 13.7 13.7 0 0 1 6.684-1.287 2.91 2.91 0 0 1 2.64 2.14 6.9 6.9 0 0 1 .235 2.138v17.998a8.6 8.6 0 0 0 .084 1.27 1.07 1.07 0 0 0 .935.903 9 9 0 0 0 .92.033h4.746c1.745 0 1.971-.243 1.971-1.988V41.19c.006-.462-.005-.898-.033-1.32a7.76 7.76 0 0 0-7.955-7.771 17.37 17.37 0 0 0-8.823 1.938c-1.044.548-2.05 1.165-3.025 1.755-.034-.086-.076-.083-.033-.117a1.7 1.7 0 0 1-.251-.267 7.27 7.27 0 0 0-4.496-3.042 14.6 14.6 0 0 0-2.924-.284m49.331.25a17 17 0 0 0-3.91.067 13.26 13.26 0 0 0-11.965 9.96 21.4 21.4 0 0 0-.084 12.116 12.15 12.15 0 0 0 9.96 9.325 25.07 25.07 0 0 0 13.486-1.17 1.8 1.8 0 0 0 1.32-1.888c-.034-.941 0-1.907 0-2.874 0-1.164-.458-1.519-1.588-1.254-1.13.274-2.221.505-3.342.736a19.7 19.7 0 0 1-7.303.083 6.503 6.503 0 0 1-5.247-7.002 9 9 0 0 1 1.086.167 25.7 25.7 0 0 0 8.807.1 14.6 14.6 0 0 0 4.863-1.537 7.27 7.27 0 0 0 3.576-4.361 9.266 9.266 0 0 0-5.832-11.648 17 17 0 0 0-3.827-.82m-89.121.352a10.27 10.27 0 0 0-7.052 2.139 26 26 0 0 0-2.24 1.972 1.2 1.2 0 0 1-.634.467 60 60 0 0 0-.752-2.99 1.54 1.54 0 0 0-1.738-1.321H56.64c-1.788 0-1.972.2-1.972 1.989v26.404a9 9 0 0 0 .034.952 1.03 1.03 0 0 0 .936.97 9 9 0 0 0 .852.033h5.047a9 9 0 0 0 .852-.034.94.94 0 0 0 .953-.902 9 9 0 0 0 .033-1.02v-18.65c0-.427-.004-.814.535-1.002a18.8 18.8 0 0 1 7.587-1.086 8.6 8.6 0 0 0 1.587.033 1.11 1.11 0 0 0 1.12-1.036 8.6 8.6 0 0 0 .084-1.604c0-1.318.026-2.677-.05-3.994-.078-.976-.428-1.278-1.438-1.32zm6.534.267c-.933.043-1.286.388-1.32 1.32v13.787c0 4.432.01 8.873-.034 13.185a9 9 0 0 0 .034.936 1.11 1.11 0 0 0 1.053 1.003 2.6 2.6 0 0 0 .551.033h5.398a3.4 3.4 0 0 0 .652-.033.967.967 0 0 0 .935-.903c.04-.427.061-.859.067-1.286V35.14a9 9 0 0 0-.033-1.02c-.086-.89-.338-1.153-1.237-1.153v-.017c-2.019-.04-4.047-.04-6.066 0zm80.866 5.381a6 6 0 0 1 2.039.451 3 3 0 0 1 1.805 2.457 4.3 4.3 0 0 1-.134 2.022 3.42 3.42 0 0 1-2.941 2.256 8.6 8.6 0 0 1-2.524.184 31 31 0 0 1-4.595-.351c-.582-.086-.579-.086-.502-.702a10.3 10.3 0 0 1 .736-2.674 5.82 5.82 0 0 1 6.116-3.643m-128.23.451a10.5 10.5 0 0 1 3.426.05 4.79 4.79 0 0 1 3.693 2.791 11.1 11.1 0 0 1 1.003 3.96 19.7 19.7 0 0 1-.468 7.354 6 6 0 0 1-1.788 3.091 5.56 5.56 0 0 1-3.576 1.37 10.7 10.7 0 0 1-5.666-1.236 1.11 1.11 0 0 1-.651-1.086V48.04c0-2.335.034-4.674 0-7.002a1.2 1.2 0 0 1 .768-1.203 10.5 10.5 0 0 1 3.26-1.053zm28.092 38.402a3.4 3.4 0 0 0-.886.034 4.903 4.903 0 0 0-.785 9.642 8.6 8.6 0 0 0 1.37.167 4.877 4.877 0 0 0 5.548-5.581h-.016a4.36 4.36 0 0 0-2.824-3.86 5.1 5.1 0 0 0-2.407-.402m34.56.284c-1.575 0-1.873.298-1.873 1.872v13.386c0 .29.13.578-.083.869-.368-.043-.562-.289-.853-.451a13.78 13.78 0 0 0-13.369-.87 13 13 0 0 0-6.45 7.37 23.5 23.5 0 0 0-1.454 9.56 19.7 19.7 0 0 0 2.072 8.806 11.98 11.98 0 0 0 7.152 6.317 13.43 13.43 0 0 0 12.584-2.156c.291-.162.46-.45.836-.535a6 6 0 0 1 .451 1.454 1.455 1.455 0 0 0 1.437 1.12h1.003c1.489 0 2.932.043 4.378 0 1.164 0 1.478-.381 1.521-1.588V79.04c-.043-1.283-.364-1.57-1.604-1.57zm63.184 13.486a20.5 20.5 0 0 0-3.96.251 13.6 13.6 0 0 0-11.547 9.09 22.25 22.25 0 0 0 .05 15.626 13.18 13.18 0 0 0 9.726 8.69 20.5 20.5 0 0 0 7.77.417 14.2 14.2 0 0 0 12.869-13.319h-.05v-.568c-.044-.256-.09-.472.166-.635v.084a.34.34 0 0 1 .084-.167v-4.746c0-.043-.05-.041-.05-.084v.167a.6.6 0 0 1-.168-.618v-.334l.05-.05h-.032v-.402h.083c0-.043-.05-.041-.05-.084a17 17 0 0 0-.451-2.323 13.95 13.95 0 0 0-10.545-10.46 20.5 20.5 0 0 0-3.944-.535zm-34.308.368a14.374 14.374 0 0 0-14.405 10.628 23.1 23.1 0 0 0 .167 13.854 12.75 12.75 0 0 0 9.476 8.857 22.3 22.3 0 0 0 6.2.618 26.5 26.5 0 0 0 8.89-1.688 1.84 1.84 0 0 0 1.487-2.155v-2.992c-.043-1.198-.54-1.594-1.738-1.303a60 60 0 0 1-2.69.652 20.5 20.5 0 0 1-8.473.284 6.5 6.5 0 0 1-5.465-4.947 17 17 0 0 1-.45-2.54 1.7 1.7 0 0 1 .584.1 32.5 32.5 0 0 0 8.272.485 17.1 17.1 0 0 0 6.935-1.771 7.7 7.7 0 0 0 4.178-5.498 11.1 11.1 0 0 0-.033-4.563 9.58 9.58 0 0 0-6.785-7.236 18 18 0 0 0-6.15-.785m-103.41.652c-.821 0-1.106.432-.986 1.253a8.6 8.6 0 0 0 .535 1.604c2.481 6.537 5.005 13.041 7.487 19.535l3.141 8.222a2.31 2.31 0 0 0 2.49 1.705c1.82-.04 3.628-.04 5.448 0a2.01 2.01 0 0 0 2.072-1.37l.284-.753 8.323-21.624 2.473-6.567c.539-1.489.204-1.955-1.37-1.955h-6.267a1.71 1.71 0 0 0-1.655 1.203l-.25.752-5.715 19.184-.752 2.44c-.092.006-.118-.016-.084-.05-1.694-5.75-3.344-11.539-5.047-17.28-.487-1.574-.941-3.18-1.403-4.746-.248-.872-.696-1.554-1.688-1.554-2.31 0-4.674-.034-7.036 0zm36.932.05c-1.283 0-1.603.371-1.638 1.655v28.626a9 9 0 0 0 .034.785 1.155 1.155 0 0 0 1.27 1.203c2.233.043 4.435.043 6.668 0a1.18 1.18 0 0 0 1.287-1.253V93.679c0-1.284-.371-1.655-1.655-1.655zm67.38 5.665c.205 0 .371.084.585.084a3.696 3.696 0 0 1 3.041 5.013 3.68 3.68 0 0 1-3.292 2.557 10.3 10.3 0 0 1-2.573.2 43 43 0 0 1-4.997-.4c-.368-.043-.537-.209-.451-.585a10.3 10.3 0 0 1 1.638-4.512 6.25 6.25 0 0 1 6.049-2.356zm-38.67.334a12.5 12.5 0 0 1 6.367 1.103 1.11 1.11 0 0 1 .752 1.22c-.085 2.567-.05 5.046-.05 7.57v7.52a1.11 1.11 0 0 1-.652 1.154 10.27 10.27 0 0 1-6.517 1.253 5.65 5.65 0 0 1-4.412-3.075 11.1 11.1 0 0 1-1.153-4.178 21.4 21.4 0 0 1 .484-7.77 8.6 8.6 0 0 1 .836-2.023 5.3 5.3 0 0 1 4.345-2.774m70.421.201a7.7 7.7 0 0 1 2.373.084 5.3 5.3 0 0 1 3.76 2.941 12 12 0 0 1 1.203 4.68 17 17 0 0 1 .034 2.222 15.4 15.4 0 0 1-.585 5.297 7.7 7.7 0 0 1-1.153 2.39 5.39 5.39 0 0 1-3.927 2.24 7.7 7.7 0 0 1-2.357-.085 5.3 5.3 0 0 1-3.893-3.092 12 12 0 0 1-1.12-4.094 23.1 23.1 0 0 1 .334-7.27 9.4 9.4 0 0 1 1.12-2.74 5.39 5.39 0 0 1 4.211-2.573m4.88 38.569a43 43 0 0 0-7.67.852 25.7 25.7 0 0 0-9.091 3.944 3.4 3.4 0 0 0-1.103 1.036 1.28 1.28 0 0 0-.117 1.337 1.11 1.11 0 0 0 1.186.435l4.479-.552a60 60 0 0 1 10.21-.451 14.6 14.6 0 0 1 3.56.668 2.91 2.91 0 0 1 2.072 2.708 11 11 0 0 1-.033 2.222 37 37 0 0 1-1.27 6.016c-1.001 3.594-2.259 7.046-3.56 10.528a4.3 4.3 0 0 0-.25 1.12.856.856 0 0 0 1.186.886 3.4 3.4 0 0 0 1.187-.736 25.7 25.7 0 0 0 4.295-5.314 41.1 41.1 0 0 0 5.715-17.898 17 17 0 0 0-.117-3.192 2.48 2.48 0 0 0-1.504-2.039v-.017a12 12 0 0 0-1.939-.702 31.7 31.7 0 0 0-7.236-.852zm-140.32 1.905a1.3 1.3 0 0 0-.685.4 1.37 1.37 0 0 0-.251 1.488 2.6 2.6 0 0 0 .685 1.003c1.25 1.18 2.46 2.363 3.743 3.51a106.95 106.95 0 0 0 47.543 25.083 103 103 0 0 0 15.86 2.44c2.01.145 4.03.223 6.049.334a56 56 0 0 0 4.395 0 124 124 0 0 0 17.363-1.888 106.1 106.1 0 0 0 28.676-9.826 81.3 81.3 0 0 0 13.553-8.724 4.3 4.3 0 0 0 1.22-1.403 2.6 2.6 0 0 0 .167-.485 2.31 2.31 0 0 0-1.638-2.774 3 3 0 0 0-2.206.3 128 128 0 0 1-13.62 5.415 143 143 0 0 1-27.189 6.267 120 120 0 0 1-11.898.986 137 137 0 0 1-22.209-.986 154 154 0 0 1-15.257-2.791 142 142 0 0 1-42.58-17.797 9 9 0 0 0-.935-.485 1.3 1.3 0 0 0-.786-.066z"/></svg>