<svg xmlns="http://www.w3.org/2000/svg" width="192" height="192" viewBox="0 0 192 192"><path d="M122.46 89.779a4.08 4.08 0 0 0 1.624-3.496 3.2 3.2 0 0 0-.992-2.48q-.984-.936-3.6-1.896l-5.424-2.032q-7.08-2.608-7.08-8.904 0-4.129 3.216-6.673 3.232-2.544 8.456-2.544 4.144 0 8.104 1.464a2.4 2.4 0 0 1 1.08.664q.32.424.32 1.24v1.72q0 1.144-.832 1.144a5.6 5.6 0 0 1-1.464-.32 24 24 0 0 0-6.88-1.016q-6.128 0-6.136 4.136 0 1.648 1.024 2.6 1.016.96 4.016 2.105l4.976 1.904q3.768 1.464 5.424 3.464 1.656 2.008 1.656 5.168 0 4.52-3.376 7.2-3.384 2.656-9 2.656-5.352 0-9.624-1.776a2.4 2.4 0 0 1-1.056-.704q-.288-.368-.288-1.2v-1.784q0-1.152.768-1.144a6.4 6.4 0 0 1 1.6.376q4.2 1.344 8.728 1.336 3.128 0 4.76-1.2zM94.219 63.978q0-1.28 1.28-1.28h3.76q1.28 0 1.28 1.28v29.681q0 1.28-1.28 1.28h-2.744a1.6 1.6 0 0 1-.992-.264q-.352-.24-.48-.96l-.44-2.216q-5.936 4.384-12.184 4.384-4.528 0-6.96-2.544-2.408-2.528-2.416-7.184V63.979q0-1.28 1.28-1.28h3.76q1.28 0 1.28 1.28v20.16q0 3.416 1.328 5.04 1.344 1.624 4.28 1.624 4.592 0 9.248-3.056zM60.01 94.939q-1.28 0-1.28-1.28V73.075q0-3.168-1.216-4.72-1.2-1.512-3.824-1.52-4.664 0-9.376 2.864a8 8 0 0 1 .064.96v22.992q0 1.28-1.28 1.28h-3.76q-1.28 0-1.28-1.28V73.075q0-3.168-1.2-4.72-1.216-1.512-3.84-1.52-4.833 0-9.305 2.8v24.024q0 1.28-1.28 1.28h-3.76q-1.28 0-1.28-1.28V63.978q0-1.28 1.28-1.28h2.8q.64 0 .992.264.36.24.48.96l.384 2.032q6.12-4.2 11.92-4.2 5.936.016 8.049 4.512 6.312-4.504 12.624-4.512 4.408 0 6.768 2.48t2.352 7.056v22.368q0 1.28-1.272 1.28zm98.082 23.88c2.96-1.248 5.44 1.944 2.536 4.08-17.52 12.88-42.913 19.736-64.785 19.736-30.64 0-58.24-11.28-79.138-30.08-1.296-1.177-.64-2.689.672-2.689q.512 0 1.12.336c22.544 13.064 50.401 20.936 79.186 20.936a158 158 0 0 0 60.401-12.32zm-.664-48.961q-2.36 2.696-2.36 8.616v.824q0 5.784 2.4 8.48 2.392 2.705 7.552 2.705 2.672 0 5.736-.88a4.8 4.8 0 0 1 .96-.2q.832 0 .824 1.263v1.72q0 .84-.24 1.208a2.4 2.4 0 0 1-1.032.697q-3.12 1.336-7.272 1.336-7.52 0-11.512-4.289-3.992-4.28-3.984-12.416 0-8.08 4.112-12.496 4.12-4.416 11.64-4.416 3.448 0 6.76 1.2a2.1 2.1 0 0 1 .992.64q.288.384.288 1.28v1.712q0 1.28-.832 1.28a4.8 4.8 0 0 1-1.024-.2 19.2 19.2 0 0 0-5.28-.76q-5.368 0-7.728 2.696m8.064 65.681c-1.44 1.2-2.824.56-2.184-1.024 2.12-5.264 6.856-17.04 4.608-19.904-2.24-2.864-14.8-1.36-20.456-.68-1.712.2-1.976-1.28-.432-2.368 5.176-3.624 12.064-4.84 17.784-4.84 5.344 0 9.656 1.064 10.576 2.2 1.928 2.368-.504 18.784-9.896 26.617m-24.945-72.825q1.28 0 1.28 1.28v29.681q0 1.272-1.28 1.28h-3.76q-1.28-.008-1.28-1.28v-29.68q0-1.28 1.28-1.28zm1.056-12.304a3.76 3.76 0 0 1 1.048 2.768 3.76 3.76 0 0 1-1.04 2.76 4 4 0 0 1-2.912 1.04 4 4 0 0 1-2.904-1.04 3.76 3.76 0 0 1-1.04-2.76q0-1.728 1.04-2.768a4 4 0 0 1 2.904-1.04q1.848 0 2.904 1.04"/></svg>