<svg xmlns="http://www.w3.org/2000/svg" width="192" height="192" viewBox="0 0 192 192"><path d="M31.856 165.11c-7.92 0-15.856-7.928-15.856-15.856V59.379c0-7.928 7.928-15.856 15.856-15.856h128.29c7.928 0 15.856 7.928 15.856 15.856v89.875c0 7.936-7.928 15.864-15.856 15.864H83.142l14.035-14.027c5.554 3.952 12.75 6.521 19.808 6.521 8.887 0 17.986-4.065 23.76-9.839 5.773-5.781 9.839-14.88 9.839-23.76 0-8.879-4.066-17.978-9.839-23.76-5.773-5.773-14.88-9.838-23.76-9.838-4.643 0-9.351 1.114-13.612 3.008a27.4 27.4 0 0 1-14.482-24.166 27.38 27.38 0 0 1-27.378 27.378 27.4 27.4 0 0 1 24.394 14.921 33.3 33.3 0 0 0-2.52 12.457c0 6.798 2.382 13.718 6.09 19.182L67.555 165.11zm33.778-30.492c0-5.863 4.749-10.611 10.611-10.611-5.855 0-10.611-4.749-10.611-10.611 0 5.855-4.749 10.611-10.603 10.611 5.855 0 10.603 4.749 10.603 10.603M16 39.555c0-6.342 6.342-12.677 12.685-12.677h38.542l7.969 7.562h-47.78c-4.196 0-8.392 2.22-11.416 5.489zm75.67 84.558a25.264 25.264 0 0 0 25.264-25.272 25.264 25.264 0 0 0 25.264 25.272 25.264 25.264 0 0 0-25.264 25.264 25.264 25.264 0 0 0-25.264-25.272"/></svg>