<svg width="192" height="192" fill="none" xmlns="http://www.w3.org/2000/svg"><path d="M170 139a16.002 16.002 0 0 1-27.314 11.314A16.016 16.016 0 0 1 138 139" stroke="#000" stroke-width="12" stroke-linecap="round" stroke-linejoin="round"/><path d="M122 123a16.002 16.002 0 0 1 11.314 27.314A16.016 16.016 0 0 1 122 155m16-84v68m-80-16h64m-64 0s18-52 80-52" stroke="#000" stroke-width="12" stroke-linecap="round" stroke-linejoin="round"/><path d="M170 139V42.954c0-3.315-2.792-6.007-6.106-5.953C29.995 39.182 22.428 113.309 22 149.02c-.04 3.315 2.662 5.98 5.976 5.98H122" stroke="#000" stroke-width="12" stroke-linecap="round" stroke-linejoin="round"/></svg>