<svg xmlns="http://www.w3.org/2000/svg" width="192" height="192"><path d="M101.37 16.024c-4.35.09-8.727.404-13.06.4-9.105-.009-15.729 5.167-20.314 12.197-4.344 6.66-6.876 14.358-7.982 22.426-.971 7.073-1.047 6.868-7.153 7.06-.955.03-1.876.449-2.826.597-10.27 1.599-14.624 7.43-14.43 18.172.133 7.253-.14 14.514-.787 21.75v20.668c.763.973.306 2.112.424 3.173.617 5.602 1.128 11.304 5.12 15.73 3.929 4.356 8.996 5.98 14.84 5.47 2.985-.261 3.739 1.973 3.817 4.288.172 5.07 1.073 10.08 1.157 15.15.373 3.631 1.906 6.898 5.062 8.531 6.826 3.533 14.162 5.3 21.91 3.862 8.607-1.6 14.314-7.29 15.803-15.486 1.083-3.732.692-7.564.846-11.361.054-1.361-.505-3.402 1.713-3.51 2.194-.109 2.533 1.73 2.525 3.447-.018 3.726.621 7.31 2.057 10.744 3.196 7.67 5.31 9.083 13.644 9.09 2.878.002 5.758-.05 8.636.004 4.62.086 8.293-1.539 10.7-5.621 2.73-3.963 3.824-8.475 4.39-13.148.872-7.21 2.21-14.35 3.332-21.52 1.908-12.2 4.122-24.353 1.238-36.761-.723-3.114-1.287-6.776.778-9.602 2.337-3.197 3.654-6.641 4.363-10.43v-9.922c-1.086-7.252-4.411-13.196-10.281-17.668-1.24-.944-1.954-2.254-2.533-3.697-5.47-13.608-16.605-20.257-30.076-23.1-4.235-.893-8.562-1.024-12.912-.933zm-10.162 9.373a18 18 0 0 1 2.713.094c3.81.423 7.686.32 11.533.316 10.378-.007 18.34 4.64 25.404 13.285-3.115 0-5.504.101-7.88-.02-8.961-.451-17.805.193-26.522 2.438-6.162 1.588-10.14 6.31-10.357 12.666-.294 8.662-.461 17.195 4.102 25.21 4.245 7.451 11.195 9.79 18.728 10.954 9.839 1.522 19.297-1.391 28.724-3.658 3.876-.932 4.505-1.307 4.603 1.459l.016-.04c1.52 8.468.802 16.976.554 25.485-.376 12.906-6.208 24.984-5.53 38.078.243 4.706-1.303 5.83-5.913 5.941-2.065.051-4.132.016-6.197.016-5.995 0-7.033-.656-7.553-6.426-.265-2.942.461-5.978.781-8.967.138-1.283 1.385-1.155 2.192-1.55 3.45-1.687 6.676-3.694 9.463-6.713-4.006.646-7.978.359-11.941.457-4.97.121-9.847-.342-14.701-1.451-1.704-.39-3.593-.348-5.336-.09-2.16.318-3.51 1.412-3.89 4.011-.724 4.934-.737 9.85-.696 14.793.066 8.195-6.42 13.68-14.666 12.351-1.35-.217-2.672-.62-3.998-.974-3.688-.984-5.334-2.868-5.465-7.205-.251-8.332-1.349-16.668-2.586-24.93-.64-4.282-.423-8.508-.474-12.75-.137-11.155-.44-22.332.048-33.47.59-13.511.302-27.142 4.057-40.376 1.168-4.117 3.34-5.49 4.812-9.44 3.36-5.698 9.636-9.236 15.975-9.495zm29.293 20.969a38 38 0 0 1 3.2.105c6.432.486 12.687 2.052 18.181 5.643 3.646 2.383 6.375 5.572 7.07 10.102 1.426 5.27-1.144 11.088-6.898 13.834-9.813 4.685-20.055 7.363-31.117 5.193-11.806-2.315-19.623-13.895-16.596-24.98.692-2.539 1.723-4.946 4.272-6.267 7.255-1.486 14.457-3.566 21.889-3.63zM53.29 67.368a10 10 0 0 1 .816.004c1.024.047 2.118.248 3.272.61 1.521.475 1.378 1.556 1.299 2.583-.208 2.722-.547 5.432-.832 8.149.04 12.672.01 25.344.158 38.013.057 4.796.463 9.592.828 14.379.182 2.391-.822 3.027-3.098 3.09-7.208.2-10.852-3.382-11.7-12.546-1.105-11.908-1.047-23.836.591-35.709.333-2.41-.662-4.976.844-7.242.084-1.23.075-2.474.271-3.687.783-4.825 3.554-7.497 7.551-7.645z"/></svg>