<svg xmlns="http://www.w3.org/2000/svg" width="192" height="192" viewBox="0 0 192 192"><path d="M96 16a80 80 0 0 0-80 80 80 80 0 0 0 13.433 44.37l-4.26 4.26a12.126 12.126 0 0 0 0 17.186l5.012 5.012a12.126 12.126 0 0 0 17.186 0l4.26-4.26A80 80 0 0 0 96 176a80 80 0 0 0 80-80 80 80 0 0 0-13.433-44.37l4.26-4.26a12.126 12.126 0 0 0 0-17.186l-5.012-5.012a12.126 12.126 0 0 0-17.186 0l-4.26 4.26A80 80 0 0 0 96 16m-.075 37.654c4.414-.013 8.835 1.585 9.545 4.832l21.397 72.547a4.8 4.8 0 0 1-3.254 5.974l-3.399 1.003a4.8 4.8 0 0 1-5.975-3.253l-4.379-14.847H82.027l-4.379 14.847a4.8 4.8 0 0 1-5.975 3.253l-3.399-1.003a4.8 4.8 0 0 1-3.253-5.974l21.397-72.547c.683-3.196 5.092-4.82 9.506-4.832zm.019 19.069-10.631 36.048h21.263z"/></svg>