<svg width="192" height="192" fill="none" xmlns="http://www.w3.org/2000/svg"><path d="M132 105v59a6 6 0 0 0 6 6h20a6 6 0 0 0 6-6V74c0-50-43-52-68-52S35 35 35 35l10 25s26-12 47-12 40 4 40 26v7" stroke="#000" stroke-width="12" stroke-linecap="round" stroke-linejoin="round"/><path d="M132 81C27.828 86.123 25 147.387 26.398 165.182c.223 2.841 2.648 4.818 5.498 4.818H50.72c4.082 0 7.167-4.045 6.825-8.113C56.182 145.674 61.502 110.364 132 105" stroke="#000" stroke-width="12" stroke-linecap="round" stroke-linejoin="round"/></svg>