<svg xmlns="http://www.w3.org/2000/svg" width="192" height="192" viewBox="0 0 192 192"><path d="M36.769 27.435A17.73 17.73 0 0 0 19 45.204v79.962a17.73 17.73 0 0 0 17.769 17.769h92.577l36.314 20.968c3.263 1.884 7.342-.472 7.34-4.24V45.203a17.73 17.73 0 0 0-17.769-17.769zm54.048 16.832h10.365c1.64 0 2.962 1.32 2.962 2.961v51.827a2.955 2.955 0 0 1-2.962 2.962H90.817a2.955 2.955 0 0 1-2.961-2.961V47.229a2.955 2.955 0 0 1 2.961-2.962M96 109.155a8.144 8.144 0 0 1 8.144 8.144A8.144 8.144 0 0 1 96 125.443a8.144 8.144 0 0 1-8.144-8.144A8.144 8.144 0 0 1 96 109.155"/></svg>