<svg xmlns="http://www.w3.org/2000/svg" width="192" height="192" viewBox="0 0 192 192"><path d="M66.511 24.914C38.656 36.506 19.005 64.01 19.005 96.005c0 42.432 34.562 76.994 76.994 76.994s76.994-34.562 76.994-76.994c0-31.927-19.591-59.397-47.36-71.04-9.932-4.166-32.877-11.002-59.123-.06zM49.829 53.872a57.3 57.3 0 0 0 14.389 13.192l-7.126 12.345a5.758 5.758 0 1 0 9.966 5.757l7.469-12.926a60.74 60.74 0 0 0 43.262 0l7.468 12.926.026.086a5.79 5.79 0 0 0 7.905 1.95 5.73 5.73 0 0 0 2.061-7.699l-7.177-12.439a57.3 57.3 0 0 0 14.26-13.003 62.28 62.28 0 0 1 16.136 41.945A62.365 62.365 0 0 1 96 158.474a62.365 62.365 0 0 1-62.468-62.468c0-16.254 6.16-31.029 16.297-42.124zm-8.067 26.649v3.858h3.866v-3.858zm31.003 7.725v3.867h3.866v-3.867zm38.728 0v7.76h7.759v-7.76zM96 96.006v3.866h3.866v-3.867zm46.487 0v3.866h3.866v-3.867zm-100.73 7.759v3.858h3.866v-3.858zm15.51 7.725v7.76h7.759v-7.76zm61.98 0v3.867h3.858v-3.867zm-38.737 7.76v3.866h3.866v-3.867zm23.244 0v7.758h7.759v-7.759zm30.969 0v3.866h3.875v-3.867zM65 134.732v3.867h3.866v-3.867zm23.244 0v3.867h3.866v-3.867zm15.51 7.76v3.866h3.866v-3.867z"/></svg>