<svg width="192" height="192" fill="none" xmlns="http://www.w3.org/2000/svg"><path d="M164 87V63L96 21 28 63v66l68 42 31-19.147" stroke="#000" stroke-width="10" stroke-linecap="round" stroke-linejoin="round"/><path d="M146 137a18 18 0 1 0 0-36m0 36h-6a6 6 0 0 1-6-6v-23.999a6 6 0 0 1 6-6h6" stroke="#000" stroke-width="10" stroke-miterlimit="6" stroke-linecap="round" stroke-linejoin="round"/><path d="M96 171v-66l68-42" stroke="#000" stroke-width="10" stroke-linecap="round" stroke-linejoin="round"/><path d="M129.19 63 79 94v45.5m33.595-86.75L62 84v45m-17-10.5V74l51-31.5" stroke="#000" stroke-width="8" stroke-linecap="round" stroke-linejoin="round"/></svg>