<svg xmlns="http://www.w3.org/2000/svg" width="192" height="192" viewBox="0 0 192 192"><path d="M108.89 16.113c1.674-.442 3.164.45 3.734 1.96.48 1.271-.58 3.665-1.21 4.81-1.62 2.936-3.722 5.233-5.977 7.65-4.455 4.843-9.47 8.726-12.747 14.511.716-.732 1.378-1.523 2.08-2.222 1.255-1.253 2.715-2.485 4.015-3.678 5.422-4.986 12.038-9.55 19.706-9.493 1.4.01 3.688.048 4.824.956.922.737.456 1.812-.318 2.46-3.55 2.97-8.165 4.76-12.405 6.51l-6.548 2.728c-1.006.42-2.688 1.063-3.59 1.526 1.003-.001 2.258-.165 3.273-.265a311 311 0 0 1 5.503-.5c6.782-.488 13.98-.37 20.416 2.034 1.02.382 2.122 1.185 3.1 1.63 5.824 2.647 10.031 7.954 11.116 14.29.124.72.389 1.686.422 2.389.6 12.607-3.766 25.328-10.247 36.016-.928 1.53-2.344 3.04-3.342 4.554-3.987 5.833-9.012 10.698-14.325 15.286a181 181 0 0 1-9.911 7.973c-.675.51-1.356 1.014-2.028 1.528-2.842 2.175-5.95 4.009-8.885 6.056a377 377 0 0 0-6.65 4.734l10.822-3.806c5.114-1.766 10.318-3.454 15.613-4.573 4.563-.965 9.06-2.27 13.595-3.28a256 256 0 0 1 20.01-3.502c1.75-.228 5.02-.695 6.867-.273.2.045.362.486.438.686v.035c-.604 1.458-1.643 1.396-2.703 2.025-1.162.69-15.464 4.177-15.633 4.52.544-.146 1.164-.108 1.725-.174 3.308-.386 6.64-.653 9.946-1.048-1.856 1.498-3.719 2.01-4.018 4.551q.255.495.517.986c.839 0 1.605.085 2.44.165a59 59 0 0 1-2.199 11.936c-2.12.81-3.695 1.692-5.31 3.32-1.863 1.878-2.456 3.075-2.418 5.7-1.532.109-3.749.485-5.318.715q-4.678.681-9.348 1.415c-8.546 1.34-16.757 2.945-25.194 4.865-9.57 2.179-19.164 4.208-28.491 7.326-1.337.435-2.707.811-4.039 1.27-2.157.763-4.315 1.613-6.471 2.39-.811.291-1.639.614-2.457.889-.37.123-1.064.17-1.406.306h-.184c-.172-.093-.607-.17-.83-.227-.05-.06-.097-.11-.13-.184a.82.82 0 0 1-.027-.616c.68-1.952 3.65-2.573 5.294-3.277 2.356-1.008 5.084-1.81 7.366-2.922-4.154.777-8.397 1.501-12.49 2.57-2.804-3.428-1.594-11.352-2.086-15.93 1.54-1.553 3.515-3.306 5.127-4.845l8.922-8.615c3.346-3.236 6.621-6.569 9.855-9.918 1.41-1.46 3.003-2.844 4.465-4.25a133 133 0 0 0 5.63-5.81c1.819-2.023 3.669-4.505 5.281-6.646 5.811-7.72 13.406-16.964-.909-21.098a14 14 0 0 0-2.552-.426c-11.736-.796-25.133 1.856-35.259 7.805a54 54 0 0 1-1.12-2.038c-2.93-5.708-6.31-11.066-9.823-16.432 2.654-2.035 5.596-4.438 8.423-6.19 2.15-1.335 4.562-2.937 6.767-4.124-2.01.616-4.262 1.434-6.247 2.149-.602.217-1.962 1.11-2.627 1.45l-7.028 3.516c.503-1.375.363-2.086.59-3.392-1.787.468-2.544.962-4.13 1.843-1.135-1.292-1.786-2.46-2.14-4.197-.1-.49-.03-1.049-.247-1.507v-2.395c1.692-.928 3.928-2.442 5.666-3.495A230 230 0 0 1 55.3 58.875c4.725-2.5 9.514-4.811 14.586-6.54 2.106-.717 4.205-1.463 6.307-2.193a431 431 0 0 0 4.954-1.698c.957-.327 2.1-.682 3.014-1.082.758-3.075 2.277-7.48 3.827-10.2a62.8 62.8 0 0 1 12.911-16.178c2.568-2.3 4.586-3.93 7.994-4.87z"/></svg>