<svg xmlns="http://www.w3.org/2000/svg" width="192" height="192" viewBox="0 0 192 192"><path d="m109.05 53.415 29.503 29.595c-.652.766-1.096 1.38-1.625 1.9l-86.024 86.14a5.83 5.83 0 0 1-4.553 1.947c-8.048-.1-16.097-.03-24.145-.039-.858 0-1.717-.084-2.836-.153-.115-.92-.291-1.747-.299-2.575-.023-8.31.046-16.618-.046-24.927-.023-1.779.751-2.913 1.878-4.047l86.423-86.446c.43-.414.92-.751 1.724-1.395m44.618 14.234-29.357-29.28c.407-.667.606-1.165.95-1.51 4.638-4.63 9.23-9.306 13.967-13.835 4.56-4.37 10.516-5.22 16.035-2.354 1.433.736 2.736 1.825 3.901 2.951 3.296 3.174 6.562 6.37 9.689 9.712 5.496 5.88 5.504 13.743-.03 19.584-4.393 4.63-8.969 9.09-13.468 13.598-.352.36-.843.575-1.686 1.142"/></svg>