<svg xmlns="http://www.w3.org/2000/svg" width="192" height="192" viewBox="0 0 192 192"><path d="M95.367 20.078A21.13 21.13 0 0 0 74.235 41.21a21.13 21.13 0 0 0 21.132 21.132 26 26 0 0 0 2.507-.188l9.924 25.872a44.5 44.5 0 0 0-19.729 20.602l-26.847-9.24.034-.522a21.13 21.13 0 0 0-21.132-21.132A21.13 21.13 0 0 0 19 98.866a21.13 21.13 0 0 0 21.132 21.132 21.13 21.13 0 0 0 18.052-10.224l26.633 9.171a43 43 0 0 0-.906 8.428 44.55 44.55 0 0 0 44.549 44.549 44.55 44.55 0 0 0 44.54-44.55 44.55 44.55 0 0 0-44.54-44.54 44.5 44.5 0 0 0-10.54 1.361l-10.01-26.052a21.13 21.13 0 0 0 8.58-16.94 21.13 21.13 0 0 0-21.13-21.115z"/></svg>