<svg xmlns="http://www.w3.org/2000/svg" width="192" height="192" viewBox="0 0 192 192"><path d="M159.76 54.054h16.239v9.192H159.76v16.15h-9.191v-16.15h-16.24v-9.192h16.24V37.735h9.191zM85.028 27.375a19.095 19.095 0 0 0-19.095 19.111 19.095 19.095 0 0 0 19.095 19.095 16 16 0 0 0 2.264-.16l8.983 23.383a40.24 40.24 0 0 0-17.839 18.615l-24.279-8.36.033-.472a19.095 19.095 0 0 0-19.095-19.095A19.095 19.095 0 0 0 16 98.587a19.095 19.095 0 0 0 19.094 19.103 19.12 19.12 0 0 0 16.32-9.24l24.079 8.297a40 40 0 0 0-.824 7.615 40.27 40.27 0 0 0 40.27 40.262 40.27 40.27 0 0 0 40.262-40.262 40.27 40.27 0 0 0-40.262-40.27 40 40 0 0 0-9.528 1.232l-9.04-23.551a19.12 19.12 0 0 0 7.752-15.303A19.095 19.095 0 0 0 85.02 27.375z"/></svg>