<svg xmlns="http://www.w3.org/2000/svg" width="192" height="192" viewBox="0 0 192 192"><path d="M96 19a77 77 0 0 0-77 77 77 77 0 0 0 77 77 77 77 0 0 0 77-77 77 77 0 0 0-77-77m0 9.563a58.21 58.21 0 0 1 58.166 58.174 58.06 58.06 0 0 1-21.067 44.791 5.059 5.059 0 0 1-6.46-7.784 47.97 47.97 0 0 0 17.41-37.006c0-26.526-21.53-48.048-48.048-48.048S47.953 60.212 47.953 86.738c0 14.876 6.776 28.182 17.41 37.006a5.059 5.059 0 0 1-6.453 7.777 58.06 58.06 0 0 1-21.075-44.783 58.21 58.21 0 0 1 58.166-58.174m0 22.06a36.128 36.128 0 0 1 29.914 56.326 5.059 5.059 0 0 1-8.37-5.675A26.011 26.011 0 0 0 96 60.735a26.026 26.026 0 0 0-25.995 26.003c0 5.46 1.702 10.318 4.597 14.499a5.059 5.059 0 0 1-8.316 5.752 35.1 35.1 0 0 1-6.39-20.251A36.113 36.113 0 0 1 96 50.625m0 21.99a13.467 13.467 0 0 1 8.917 23.54l21.368 60.537a5.059 5.059 0 0 1-9.54 3.365l-6.446-18.25a58.2 58.2 0 0 1-28.606 0l-6.437 18.25a5.059 5.059 0 0 1-9.54-3.365l21.368-60.537a13.467 13.467 0 0 1 8.917-23.54m0 28.66L85.08 132.22a48.1 48.1 0 0 0 21.838 0z"/></svg>