<svg xmlns="http://www.w3.org/2000/svg" width="192" height="192" viewBox="0 0 192 192"><path d="M90.576 19a77 77 0 0 0-18.018 3.576l-1.266 14.921a63.3 63.3 0 0 0-14.99 8.838l-14.372-4.98a77 77 0 0 0-10.78 13.493l8.487 12.02a63.3 63.3 0 0 0-6.211 18.635l-13.92 5.321a77 77 0 0 0-.172 5.057 77 77 0 0 0 .856 11.439l14.271 3.79a63.3 63.3 0 0 0 7.965 18.848l-7.16 12.876a77 77 0 0 0 11.404 11.952l13.586-6.391a63.3 63.3 0 0 0 17.624 8.393l2.815 14.579A77 77 0 0 0 96.437 173l1.42-.017 6.502-14.091a63.3 63.3 0 0 0 16.59-4.509l11.746 9.548a77 77 0 0 0 15.032-10.481l-4.175-15.374a63.3 63.3 0 0 0 8.214-11.909l15.674-.248a77 77 0 0 0 5.227-18.531l-13.32-9.283A60 60 0 0 0 159.5 96a63.3 63.3 0 0 0-.941-10.549l12.089-10.472a77 77 0 0 0-7.683-18.06l-15.913 1.437a63.3 63.3 0 0 0-8.555-9.437l2.532-15.93a77 77 0 0 0-16.991-9.095l-10.943 11.002a63.3 63.3 0 0 0-14.408-2.335z"/></svg>