<svg xmlns="http://www.w3.org/2000/svg" width="192" height="192" viewBox="0 0 192 192"><path d="M90.364 16a80 80 0 0 0-18.72 3.715L70.33 35.218A65.8 65.8 0 0 0 54.755 44.4l-14.932-5.174a80 80 0 0 0-11.2 14.019l8.818 12.488a65.8 65.8 0 0 0-6.453 19.361l-14.463 5.528a80 80 0 0 0-.179 5.254 80 80 0 0 0 .89 11.885l14.827 3.938a65.8 65.8 0 0 0 8.275 19.582L32.9 144.659a80 80 0 0 0 11.849 12.417l14.115-6.64a65.8 65.8 0 0 0 18.31 8.72l2.925 15.147A80 80 0 0 0 96.454 176l1.475-.018 6.755-14.64a65.8 65.8 0 0 0 17.237-4.684l12.203 9.92a80 80 0 0 0 15.618-10.89l-4.338-15.973a65.8 65.8 0 0 0 8.534-12.373l16.285-.257a80 80 0 0 0 5.43-19.253l-13.838-9.645a62 62 0 0 0 .159-2.187 66 66 0 0 0-.978-10.96l12.56-10.88a80 80 0 0 0-7.983-18.764l-16.532 1.493a65.8 65.8 0 0 0-8.889-9.804l2.63-16.551a80 80 0 0 0-17.652-9.45l-11.37 11.431a65.8 65.8 0 0 0-14.969-2.426Z"/></svg>