<svg xmlns="http://www.w3.org/2000/svg" width="192" height="192" viewBox="0 0 192 192"><path d="m81.08 28.141-9.863 56.76H84.92l3.342-19.002 9.037.027h.002c6.231 0 10.059-.155 16.254-5.047 4.285-3.384 6.709-8.046 7.128-13.652.445-5.544-1.17-10.289-4.802-13.797l-.002-.002c-3.608-3.519-8.629-5.253-14.695-5.253h-.004zm47.863.002-9.865 56.758h13.707l2.705-15.633 5.322-4.943 9.235 20.576h15.492l-14.424-30.55L176 28.144h-18.035L141.29 46.172l-2.229 2.513 3.588-20.543h-13.707zm-82.611.008L16 84.91h15.17l5.56-11.121h16.76l1.711 11.12H69.19L58.382 28.15h-12.05zm46.42 11.81 8.996.03c2.05.07 3.33.692 4.264 1.895.911 1.183 1.285 2.78.963 5.091l-.004.016-.002.018a7.63 7.63 0 0 1-2.918 5.168l-.004.003-.006.004c-1.66 1.303-3.728 1.973-6.396 1.973l-7.372-.064 2.479-14.133zm-43.189 7.95 2.123 14.055h-9.104zm55.543 41.039L76.1 114.399l-8.71 49.461h43.071a12.37 12.37 0 0 0 6.655-2.045c2.125-1.3 3.79-2.939 4.902-4.898l15.008-24.738.014-.024a17 17 0 0 0 1.152-2.535c.42-1.056.705-2.007.834-2.889l.584-3.27c.422-2.389-.215-4.74-1.775-6.683-1.581-1.967-3.83-3.052-6.342-3.052h-25.701l5.889-14.4-1.405-.276.038-.088 1.439.157c.022-.101-.027-.204-.01-.305l.043.004v-.024l-.043-.008c.173-1.021.192-2.068-.09-3.068l-.015-.05-.018-.05a7.7 7.7 0 0 0-1.58-2.572l-.066-.072zm-45.23 24.768-8.83 50.135H64.92l8.83-50.135z"/></svg>