<svg xmlns="http://www.w3.org/2000/svg" width="192" height="192" viewBox="0 0 192 192"><path d="M165.9 18.388a4.94 4.94 0 0 1-1.057 6.52c-41.51 32.876-96.187 32.876-137.7 0a4.94 4.94 0 0 1-1.047-6.52 5.284 5.284 0 0 1 7.677-1.264c37.707 28.91 86.73 28.91 124.44 0a5.284 5.284 0 0 1 7.676 1.264M86.762 76.66c-1.689.154-6.259 1.237-6.259 1.237-10.296 2.773-12.717 12.51-12.717 12.51a20 20 0 0 0-.803 4.904v2.149c.135 3.324.849 5.807.849 5.807 3.432 15.896 20.339 41.997 23.97 47.49.252.27.46.171.46.171.389-.117.361-.506.361-.506 5.6-58.309-5.87-73.762-5.87-73.762m18.488 0s-11.524 15.462-5.925 73.807h.01c.044.361.297.452.297.452.37.144.57-.235.57-.235 3.72-5.618 20.528-31.593 23.951-47.416 0 0 1.852-7.668.063-12.861 0 0-2.547-9.88-12.852-12.5 0 0-2.962-.786-6.123-1.246M52.108 94.164s-9.8 9.7-10.296 19.987h.009v1.562l.027.361c.415 8.291 6.403 13.195 6.403 13.195 9.646 9.8 32.993 22.173 38.412 24.982.082.027.362.127.524-.09 0 0 .09-.072.127-.19v-.262l-.018-.045c-14.857-33.842-35.187-59.5-35.187-59.5m87.725 0s-20.267 25.577-35.115 59.355c0 0-.172.389.117.632 0 0 .09.073.199.1h.207l.118-.054c5.572-2.881 28.739-15.173 38.33-24.927 0 0 6.078-5.085 6.394-13.26.705-11.343-10.25-21.847-10.25-21.847m18.243 33.598s-33.038 18.488-50.126 30.5l.01.009s-.308.207-.2.596c0 0 .163.298.398.298 6.114.018 29.263.045 29.85-.072 0 0 2.99-.118 6.692-1.599 0 0 8.237-2.737 12.518-12.482 0 0 1.951-4.082 1.978-9.808v-.244a24.4 24.4 0 0 0-1.12-7.198m-124.21.09a24.84 24.84 0 0 0 1.048 17.53c4.218 9.293 12.265 12.102 12.265 12.102 3.721 1.598 7.433 1.716 7.433 1.716.587.1 23.121 0 29.154-.027.262 0 .398-.271.398-.271l.045-.09v-.235a.9.9 0 0 0-.18-.271v-.01c-17.07-12.011-50.163-30.445-50.163-30.445m49.214 34.302-38.863 1.427c4.209 7.83 11.308 13.918 18.705 12.048 5.103-1.328 16.663-9.736 20.475-12.572l-.009-.018c.298-.271.19-.497.19-.497-.09-.361-.497-.361-.497-.361zm25.74.036s-.343.045-.442.316c0 0-.082.361.144.542 3.721 2.79 14.993 11.019 20.44 12.608 0 0 .812.289 2.194.343h.83c3.64-.135 9.99-2.077 15.752-12.41l-38.927-1.409"/></svg>