<svg xmlns="http://www.w3.org/2000/svg" width="192" height="192"><path d="m105.76 24.963 64.18 26.773c3.882 1.62 6.062 3.815 6.062 6.105s-2.18 4.486-6.062 6.106l-64.18 26.772c-2.588 1.08-6.098 1.686-9.757 1.686s-7.17-.606-9.757-1.686l-64.18-26.772c-3.882-1.62-6.063-3.816-6.063-6.106s2.181-4.486 6.063-6.105l64.18-26.773c5.389-2.248 14.126-2.248 19.514 0"/><path d="m53.225 76.944-31.161 13c-3.881 1.62-6.063 3.816-6.063 6.106s2.181 4.487 6.063 6.106l64.179 26.772c2.588 1.079 6.098 1.684 9.758 1.684s7.17-.605 9.757-1.684l64.18-26.772c3.881-1.62 6.063-3.816 6.063-6.106s-2.182-4.487-6.064-6.106l-31.16-13-33.019 13.774c-2.587 1.08-6.098 1.687-9.757 1.687s-7.17-.608-9.758-1.687z" opacity=".8"/><path d="m53.103 115.1-31.04 12.949c-3.881 1.62-6.063 3.816-6.063 6.106s2.182 4.486 6.063 6.106l64.179 26.772c2.588 1.079 6.098 1.687 9.758 1.687s7.17-.608 9.757-1.687l64.18-26.772c3.881-1.62 6.063-3.817 6.063-6.106 0-2.29-2.182-4.487-6.064-6.106l-31.04-12.949-33.139 13.825c-2.587 1.08-6.098 1.685-9.757 1.685s-7.17-.606-9.758-1.685z" opacity=".6"/></svg>