<svg xmlns="http://www.w3.org/2000/svg" width="192" height="192" viewBox="0 0 192 192"><path d="M34.4 19A15.4 15.4 0 0 0 19 34.4v123.2A15.4 15.4 0 0 0 34.4 173h123.2a15.4 15.4 0 0 0 15.4-15.4V34.4A15.4 15.4 0 0 0 157.6 19zm46.186 15.385h30.828l2.303 19.25c2.053.77 3.858 1.603 5.398 2.496q2.308 1.362 4.617 3.67l17.701-7.7 15.414 26.183-15.4 11.55a25.4 25.4 0 0 1 0 12.333l15.4 11.55-15.4 26.183-17.715-7.7c-1.54 1.54-3.077 2.767-4.617 3.655-1.54.903-3.345 1.737-5.398 2.512l-2.303 19.25H80.6l-2.316-19.25c-2.054-.776-3.843-1.614-5.383-2.512a23 23 0 0 1-4.633-3.654L50.567 139.9l-15.414-26.182 15.4-11.551a25.4 25.4 0 0 1 0-12.332l-15.4-11.551 15.4-26.182L68.268 59.8c1.54-1.54 3.077-2.767 4.617-3.67 1.54-.893 3.345-1.726 5.399-2.496l2.302-19.25zM96 72.901a23.1 23.1 0 0 0-23.1 23.1 23.1 23.1 0 0 0 23.1 23.1 23.1 23.1 0 0 0 23.1-23.1 23.1 23.1 0 0 0-23.1-23.1"/></svg>