<svg xmlns="http://www.w3.org/2000/svg" width="192" height="192" viewBox="0 0 192 192"><path d="M44.752 140.5a56 56 0 0 1 10.856-3.04c2.808-.584 5.632-1.136 8.424-1.736a6.8 6.8 0 0 0 5.88-6.992v-1.473q0-43.514.025-87.06a16 16 0 0 1 .408-3.624 6.8 6.8 0 0 1 5.36-5.072c2.488-.648 5.04-1.104 7.576-1.616q10.776-2.192 21.561-4.352l22.25-4.512 19.696-3.945a56 56 0 0 1 6.513-1.04 4.83 4.83 0 0 1 5.424 4.72 24 24 0 0 1 .12 2.185q.032 28.08 0 56.178l.008.032v55.986a26.4 26.4 0 0 1-2.392 11.817 20.8 20.8 0 0 1-13.601 11.176 45.6 45.6 0 0 1-10.48 1.696 18.337 18.337 0 0 1-8.88-34.874 41.6 41.6 0 0 1 9.984-3.176c3.704-.8 7.424-1.497 11.112-2.353a6.08 6.08 0 0 0 4.992-5.056 8 8 0 0 0 .2-1.888q0-26.68-.016-53.346a8 8 0 0 0-.256-1.808 2.8 2.8 0 0 0-2.984-2.296 32 32 0 0 0-4.656.64q-11.168 2.208-22.345 4.48L83.273 67.48c-.16.024-.32.096-.472.128a4.4 4.4 0 0 0-3.817 4.8c-.024.408 0 .84 0 1.272q-.032 38.25-.032 76.499a30.4 30.4 0 0 1-2.112 12.025 20.88 20.88 0 0 1-14.049 12.08 43.2 43.2 0 0 1-10.536 1.689 18.033 18.033 0 0 1-18.817-15.121 18.29 18.29 0 0 1 11.312-20.353"/></svg>