<svg xmlns="http://www.w3.org/2000/svg" width="192" height="192" viewBox="0 0 192 192"><path d="M53.979 175.48c-8.04-2.144-14.6-8.92-16.224-16.752-.296-1.432-.432-13.28-.432-37.224 0-38.64-.08-37.304 2.464-42.343 1.616-3.2 6.088-7.664 9.328-9.296 4.944-2.496 3.912-2.432 38.656-2.432h31.648l-.008-6.048c-.016-9.304-1.36-14.344-5.224-19.536-4.112-5.52-11.016-8.92-18.168-8.92-11.272 0-20.752 8.12-22.688 19.44l-.48 2.768H57.835l.232-3.864c.904-15.456 11.616-29.92 27.448-33.68 3.432-.808 4.296-1.44 10.512-1.576 6.248-.128 7.16.624 10.512 1.584 13.104 3.76 22.24 13.224 26.24 26.32 1.008 3.304 1.08 4.008 1.232 13.48l.16 10 1.848.264c6.776.984 13.04 5.544 16.168 11.76 2.64 5.232 2.576 4.024 2.44 43.447-.136 39.248.032 36.592-2.672 41.647a22.72 22.72 0 0 1-11.48 10.144 40 40 0 0 1-1.648.608l-.272.096a8.8 8.8 0 0 1-3.056.544l-38.88.072c-34.448.064-40.775-.008-42.631-.504zm74.959-16.336c4.352-2.176 7.024-5.248 8.336-9.56.784-2.584.68-3.44.696-28.832l.016-23.12c0-1.736-.52-4.448-1.392-5.936a18.96 18.96 0 0 0-7.568-7.288l-.664-.328a9.6 9.6 0 0 0-4.208-.992l-27.296-.104c-32.56-.12-31.864-.16-35.84 2.36-2.504 1.6-4.136 3.528-5.616 6.656l-.032.064a12.8 12.8 0 0 0-1.2 5.344v49.671c0 1.216.272 2.424.8 3.528l.456.984q2.984 6.28 9.848 8.488c1.24.4 8.032.496 31.344.432l27.584-.072a9.14 9.14 0 0 0 4.104-.976zm-35.304-7.768c0-.976 3.872-5.68 5.024-6.104.616-.232 1.944-.704 2.944-1.064a16 16 0 0 0 9.536-9.256c.832-2.104.912-3.032 1.056-12.016.096-5.976-.008-10.632-.28-12.056-1.552-8.4-8.704-14.168-16.856-13.6-4.088.288-6.96 1.52-9.896 4.272s-4.48 5.64-5.16 9.648c-.336 2.016-.64 2.832-1.056 2.832-.456 0-.56-.56-.52-2.672.104-4.496 2.856-9.44 6.912-12.416a17.72 17.72 0 0 1 22.816 1.48c2.592 2.448 3.92 4.584 4.96 7.912.656 2.104.744 3.72.744 13.168-.008 10.312-.048 10.888-.96 13.44-2 5.704-6.08 9.52-12.36 11.568-1.704.56-2.288 1.04-3.736 3.032-1.616 2.224-3.168 3.12-3.168 1.832m6.552.144c-.416-.672.072-1 2.72-1.808 6.208-1.912 11.76-7.616 13.84-14.24.832-2.616.88-3.528.88-14.296s-.048-11.68-.872-14.28a25.6 25.6 0 0 0-2.248-4.952c-.968-1.528-1.264-2.32-.984-2.656.224-.264.616-.4.88-.296.744.288 2.856 4.056 3.88 6.912.872 2.432.928 3.224 1.056 14.104.144 12.888-.096 14.856-2.408 19.584-1.952 3.976-6.352 8.376-10.368 10.36-3.52 1.744-5.904 2.328-6.376 1.568m-13.152-1.392c-.36-.96 6.016-9.208 7.84-10.136a8 8 0 0 1 2.048-.776c1.584 0 4.872-1.392 6.28-2.664 1.944-1.76 2.752-3.216 3.336-6.056.288-1.416.64-2.184 1.008-2.184.424 0 .56.544.528 2.224-.104 5.088-4.104 9.136-10.176 10.288-2.448.464-3.104 1.04-6.904 6.032-1.616 2.12-3.12 3.864-3.336 3.864s-.496-.272-.616-.592zm-5.696-3.088c0-.28 1.44-2.472 3.2-4.864 4.952-6.72 4.512-4.952 4.736-19.024.216-13.176.216-13.184 2.392-15.016a6.64 6.64 0 0 1 8.712 0c2.416 1.96 2.016 3.04 2.384 13.04.144 4.08-.096 9.92-1.208 10.984-1.096 1.048-1.4 1.184-2.88.984a4 4 0 0 1-2.56-1.272c-.888-1.024-.904-1.192-.8-9.84.096-7.504-.224-8.344.288-8.344.152 0 .896-.224.992.152.216.856.096 2.928.216 8-.056 4.96-.256 8.776.592 8.984.928.864 2.144.896 2.96.08.768-.768.808-1.264.808-9.544 0-9.784-.224-10.912-2.448-12.272a5.12 5.12 0 0 0-5.408 0c-2.304 1.408-2.448 2.28-2.48 14.752-.008 9.568-.112 11.464-.688 12.92-.976 2.488-7.2 10.784-8.08 10.784-.4 0-.72-.224-.72-.504zm-4.36-4.528c0-.368 1.224-2.288 2.72-4.264s2.976-4.04 3.28-4.584c.416-.752.592-3.72.744-12.488.192-11.04.24-11.576 1.104-13.208 2.376-4.44 6.44-6.944 11.288-6.944 5.136 0 9.96 3.52 11.608 8.48.728 2.184 1.056 11.552.448 14.2-.112.48-.736.272-.872.272-.496 0-.408-1.12-.592-6.568-.24-7.36-.592-8.656-3.072-11.256-5.112-5.336-13.376-4.264-16.96 2.2l-1.168 2.112-.2 11.504c-.224 13.12.096 11.824-4.344 17.568-2.688 3.472-3.984 4.448-3.984 2.976m-3.096-6.176c-.416-.504-.176-1.032 1.504-3.224 1.104-1.44 2.184-3.072 2.4-3.632s.384-2.8.384-4.96c0-3.727.048-3.943.824-3.943.8 0 .824.16.696 4.895-.144 5.384-.328 5.856-3.896 9.872-1.224 1.384-1.48 1.52-1.912.992m-1.12-9.584c-.112-.32-.144-4.56-.064-9.424.136-8 .24-9.095 1.056-11.424a24.16 24.16 0 0 1 14.56-14.744c2.944-1.072 9.584-1.44 12.824-.72 2.544.56 6.224 2.113 7.256 3.04.512.464.592.784.288 1.145-.32.4-1.024.224-3.264-.8-8.848-4.064-18.008-2.448-24.72 4.335-5.28 5.36-6.48 9.272-6.488 21.328 0 6.768-.088 7.832-.616 7.832a.96.96 0 0 1-.824-.568z"/></svg>