<svg width="192" height="192" fill="none" xmlns="http://www.w3.org/2000/svg"><path d="m43.262 137.662 7.902-1.414a15.807 15.807 0 0 1 6.26.138 15.931 15.931 0 0 1 5.732 2.56 16.193 16.193 0 0 1 4.33 4.593 16.433 16.433 0 0 1 2.27 5.924 16.54 16.54 0 0 1-.136 6.356 16.42 16.42 0 0 1-2.522 5.819 16.17 16.17 0 0 1-4.524 4.396 15.926 15.926 0 0 1-5.836 2.304l-7.902 1.414a15.854 15.854 0 0 1-11.992-2.699c-3.487-2.478-5.861-6.261-6.6-10.517a16.49 16.49 0 0 1 2.658-12.174c2.442-3.539 6.168-5.95 10.36-6.7Zm80-16 7.902-1.414a15.81 15.81 0 0 1 6.261.138 15.93 15.93 0 0 1 5.731 2.56 16.199 16.199 0 0 1 4.331 4.593 16.44 16.44 0 0 1 2.269 5.924 16.54 16.54 0 0 1-.136 6.356 16.451 16.451 0 0 1-2.522 5.819 16.17 16.17 0 0 1-4.524 4.396 15.919 15.919 0 0 1-5.836 2.304l-7.902 1.414a15.853 15.853 0 0 1-11.992-2.699c-3.487-2.478-5.861-6.261-6.6-10.517a16.49 16.49 0 0 1 2.658-12.174c2.442-3.539 6.168-5.95 10.36-6.7Z" stroke="#000" stroke-width="12" stroke-linecap="round" stroke-linejoin="round"/><path d="M150 135.983V28.008c0-3.731-3.363-6.56-7.034-5.916l-68 11.912A6.005 6.005 0 0 0 70 39.921V152m0-91 80-14" stroke="#000" stroke-width="12" stroke-linecap="round" stroke-linejoin="round"/></svg>