<svg xmlns="http://www.w3.org/2000/svg" width="192" height="192"><path d="M164.98 16.242c-15.316 2.64-36.005 21.342-47.182 31.732a681 681 0 0 0-52.031 54.948c-12.805 14.879-25.538 29.831-36.97 45.808-.525.733-1.523 1.672-2.194 2.297-3.061 2.85-6.476 5.425-9.061 8.72-3.3 4.205-.646 8.457 1.909 12.55.665 1.065 2.123 3.198 2.245 3.217 1.903.287 2.844.428 4.906.199 12.197-3.05 20.456-22.937 27.473-32.433 1.8-2.436 3.74-4.672 5.702-6.981 13.19-15.845 27.604-30.814 42.034-45.55a1458 1458 0 0 1 39.23-38.986c6.343-6.04 12.257-11.696 18.893-17.444 5.576-4.832 9.642-8.784 16.069-12.698-2.94-3.996-4.755-5.42-9.03-5.449-.666-.01-1.33.033-1.994.07zM54.78 35.18a18 18 0 0 0-1.804.114c-3.223.765-4.858 2.081-6.59 4.86-4.272 6.846-3.89 14.59 3.195 19.23 3.005 1.968 7.217 1.427 10.513.546l.176-.049c3.893-1.57 7.453-3.693 9.017-7.735C73.266 41.86 63.844 35.078 54.78 35.18m76.778 76.798c-3.466.602-7.22 2.08-9.238 5.19-3.524 5.429-1.12 14.521 3.992 18.145 2.446 1.734 7.408 2.152 10.3 1.492 3.762-.945 6.114-2.547 8.221-5.862 6.659-10.47-2.326-19.554-13.275-18.965"/></svg>