<svg xmlns="http://www.w3.org/2000/svg" width="192" height="192" fill="none"><path stroke="#000" stroke-linecap="round" stroke-linejoin="round" stroke-width="7.875" d="M96 49.803 55.971 72.902v46.197L96 142.198l40.029-23.099V72.902zM29.165 63.714a10.926 10.926 0 1 1 21.819 0 10.926 10.926 0 1 1-21.819 0m55.909-32.252a10.926 10.926 0 1 1 21.819 0 10.926 10.926 0 1 1-21.819 0m55.91 32.252a10.926 10.926 0 1 1 21.819 0 10.926 10.926 0 1 1-21.819 0m0 64.576a10.926 10.926 0 1 1 21.819 0 10.926 10.926 0 1 1-21.819 0m-55.91 32.25a10.926 10.926 0 1 1 21.819 0 10.926 10.926 0 1 1-21.819 0m-55.909-32.25a10.926 10.926 0 1 1 21.819 0 10.926 10.926 0 1 1-21.819 0"/><path stroke="#000" stroke-width="7.875" d="m55.971 119.1-6.43 3.708M96 142.2v7.448m0-99.845v-7.48m40.03 76.777 6.464 3.74m-6.464-49.939 6.43-3.708m-86.489 3.708-6.464-3.74"/><path stroke="#000" stroke-linecap="round" stroke-width="7.875" d="M96.492 116.28V76.284"/></svg>