<svg width="192" height="192" viewBox="0 0 192 192" fill="none" xmlns="http://www.w3.org/2000/svg">
<path d="M29 44H44C49.5228 44 54 48.4772 54 54V83" stroke="black" stroke-width="12" stroke-linecap="round"/>
<path d="M54 66C53.5 79.5 39.0751 85 33 85C26.9249 85 22 80.0751 22 74" stroke="black" stroke-width="12"/>
<path d="M33 63H54" stroke="black" stroke-width="10"/>
<path d="M23 74C23 67.9249 27.4772 63 33 63" stroke="black" stroke-width="10"/>
<path d="M21 74C21 67.9249 26.3726 63 33 63" stroke="black" stroke-width="10"/>
<path d="M91 44H84C78.4772 44 74 48.4772 74 54V83" stroke="black" stroke-width="12" stroke-linecap="round"/>
<path d="M170 83V58.5C170 50.4919 163.508 44 155.5 44C147.492 44 141 50.4919 141 58.5V83" stroke="black" stroke-width="12" stroke-linecap="round"/>
<path d="M141 83V59C141 50.7157 134.284 44 126 44C117.716 44 111 50.7157 111 59V83" stroke="black" stroke-width="12" stroke-linecap="round"/>
<path d="M111 44V83" stroke="black" stroke-width="12" stroke-linecap="round"/>
<path d="M81 148V123.5C81 115.492 74.5081 109 66.5 109C58.4919 109 52 115.492 52 123.5V148" stroke="black" stroke-width="12" stroke-linecap="round"/>
<path d="M52 148V124C52 115.716 45.2843 109 37 109C28.7157 109 22 115.716 22 124V148" stroke="black" stroke-width="12" stroke-linecap="round"/>
<path d="M22 109V148" stroke="black" stroke-width="12" stroke-linecap="round"/>
<path d="M134.289 142.289C126.673 149.904 114.327 149.904 106.711 142.289C99.0962 134.673 99.0962 122.327 106.711 114.711C114.327 107.096 126.673 107.096 134.289 114.711" stroke="black" stroke-width="12" stroke-linecap="round"/>
</svg>
