<svg width="192" height="192" fill="none" xmlns="http://www.w3.org/2000/svg"><path d="M81 155a14.999 14.999 0 0 0 30 0m-.002 0V71.166l21.396 21.408a14.998 14.998 0 0 0 16.346 3.253A15.002 15.002 0 0 0 158 81.962a15.011 15.011 0 0 0-4.393-10.612l-43.465-43.49c-7.811-7.814-20.474-7.814-28.284 0L38.393 71.35a15.008 15.008 0 0 0-3.251 16.355 15.008 15.008 0 0 0 8.117 8.122 14.993 14.993 0 0 0 16.347-3.253l21.393-21.405V155" stroke="#000" stroke-width="12" stroke-linecap="round" stroke-linejoin="round"/></svg>