<svg xmlns="http://www.w3.org/2000/svg" width="192" height="192" viewBox="0 0 192 192"><path d="M86.741 19.307c-3.6.4-11.477 2.23-15.27 3.539-23.201 8.007-40.924 25.63-48.44 48.131-3.054 9.162-4.3 17.97-3.985 28.262.693 22.693 10.277 42.978 26.34 55.763 11.138 8.855 23.515 14.362 38.546 17.154 5.623 1.039 21.308 1.024 26.078-.023 9.731-2.13 16.354-5.538 19.624-10.093 2.677-3.723 2.524-5.53-.9-10.616-2.523-3.754-3.477-6.23-3.477-9.054 0-5.67 3.354-8.138 16.585-12.223 9.931-3.061 14.4-5 18.985-8.254 5.331-3.785 9.154-9.462 11.054-16.416.77-2.823 1.102-4.141 1.118-11.726.015-7.523-.325-9.266-1.125-12.898a79.23 79.23 0 0 0-20.524-38.309c-12.193-12.693-27.585-20.762-43.747-22.947-3.87-.523-17.17-.715-20.862-.3m47.347 18.693c0 .285-.539 4.108-1.208 8.5q-.666 4.218-1.2 8.454c0 .262-.885.585-1.985.731-3.23.431-8.262 3.2-11.293 6.231-4.946 4.946-6.77 10.277-6.777 19.885l-.008 5.616-1.63-2.793A44.6 44.6 0 0 0 97.3 70.898l-2.477-1.769.777-2.892a49 49 0 0 1 2.785-6.993c5.523-11.262 15.27-18.647 27.924-21.154 3.723-.746 7.77-.792 7.77-.108M79.323 68.314c16.077 3.308 28.847 16.523 31.678 32.747.5 2.862.616 7.585.616 25.524v22.016H93.964V127.44c-.016-23.539-.093-24.43-2.608-29.724-1.662-3.5-5.562-7.63-9.093-9.63-7.015-3.978-16.716-3.693-23.562.707-2.584 1.654-6.346 5.692-7.769 8.339-4.715 8.715-3.015 19.962 4.07 27.024 4.107 4.092 10.476 6.777 16.092 6.777 5.385 0 11.823-2.63 15.67-6.4l2.385-2.331v22.27l-3.308 1.261c-5.723 2.185-8.308 2.639-14.947 2.631-4.846-.008-6.661-.177-9.315-.869a40.77 40.77 0 0 1-19.577-11.385c-5.077-5.315-7.9-10.169-10.077-17.4-1-3.308-1.093-4.192-1.116-10.431-.015-8.231.646-11.262 3.962-18.054a40.23 40.23 0 0 1 28.562-22.047c4.115-.815 11.685-.754 16 .138m76.31 21.154c2.67 1.277 5.47 4.377 6.354 7.04.908 2.73.646 7.107-.57 9.476a14.3 14.3 0 0 1-6.007 5.839c-2.685 1.23-7.57 1.192-10.154-.077a14.6 14.6 0 0 1-6.062-6.062c-1.362-2.769-1.277-7.892.177-10.669 1.03-1.961 3.4-4.461 5.092-5.361 3.308-1.77 7.685-1.847 11.17-.185m-29.293 12.693c-.107.492-.538 3.492-.938 6.662l-.73 5.754-2.347 1.184c-1.292.654-3.154 1.923-4.123 2.823l-1.77 1.631v-18.093l2.308-.246c1.27-.138 2.67-.308 3.108-.385q1.373-.15 2.754-.177c1.823-.046 1.93 0 1.738.847"/></svg>