<svg width="192" height="192" fill="none" xmlns="http://www.w3.org/2000/svg"><path d="M95.189 143.133a21.61 21.61 0 0 1-6.585 13.027 21.74 21.74 0 0 1-13.425 5.803 21.725 21.725 0 0 1-13.116-3.475 21.607 21.607 0 0 1-8.41-10.611m80.675-82.18c9.533 10.886 13.821 26.146 11.351 40.388a49.281 49.281 0 0 1-17.23 29.434m-16.486-48.11a45.691 45.691 0 0 1-14.857 24.961 45.95 45.95 0 0 1-27.001 10.863c-13.192.765-26.614-4.549-35.691-14.12-9.078-9.572-13.637-23.23-12.13-36.314M170 57.807a41.813 41.813 0 0 0-19.259-22.748 42.036 42.036 0 0 0-29.594-3.948 41.819 41.819 0 0 0-22.648 14.296 41.583 41.583 0 0 0-9.135 25.121" stroke="#000" stroke-width="12" stroke-linecap="round" stroke-linejoin="round"/></svg>