<svg width="192" height="192" fill="none" xmlns="http://www.w3.org/2000/svg"><path d="M43.012 44.344a20.995 20.995 0 0 0 2.301 5.864c5.8 10.044 18.643 13.486 28.687 7.687 10.044-5.8 13.486-18.643 7.686-28.687a20.993 20.993 0 0 0-3.943-4.939m-34.73 20.075c9.363-9.604 21.316-16.671 34.73-20.075m-34.73 20.075c-8.506 8.723-14.875 19.539-18.263 31.602m52.993-51.677A74.15 74.15 0 0 1 96 22c6.301 0 12.417.787 18.257 2.27M24.749 75.945A74.059 74.059 0 0 0 22 96c0 6.95.958 13.676 2.75 20.054m0-40.108A20.991 20.991 0 0 1 31 75c11.598 0 21 9.402 21 21s-9.402 21-21 21c-2.177 0-4.276-.331-6.25-.946m0 0c3.388 12.063 9.757 22.879 18.262 31.602m0 0a20.984 20.984 0 0 1 2.301-5.864c5.8-10.045 18.643-13.486 28.687-7.687s13.486 18.642 7.686 28.687a21.018 21.018 0 0 1-3.943 4.939m-34.73-20.075c9.363 9.603 21.316 16.671 34.73 20.075m0 0A74.136 74.136 0 0 0 96 170c6.301 0 12.417-.787 18.257-2.269m34.731-123.387a21.025 21.025 0 0 1-2.301 5.864c-5.799 10.044-18.643 13.486-28.687 7.687-10.044-5.8-13.486-18.643-7.687-28.687a21.02 21.02 0 0 1 3.944-4.939m34.731 20.075c-9.364-9.604-21.317-16.671-34.731-20.075m34.731 20.075c8.505 8.723 14.874 19.539 18.262 31.602m0 0A74.037 74.037 0 0 1 170 96c0 6.95-.958 13.676-2.75 20.054m0-40.108A20.987 20.987 0 0 0 161 75c-11.598 0-21 9.402-21 21s9.402 21 21 21c2.177 0 4.276-.331 6.25-.946m0 0c-3.388 12.063-9.757 22.879-18.262 31.602m0 0a21.017 21.017 0 0 0-2.301-5.864c-5.799-10.045-18.643-13.486-28.687-7.687s-13.486 18.642-7.687 28.687a21.048 21.048 0 0 0 3.944 4.939m34.731-20.075c-9.364 9.603-21.317 16.671-34.731 20.075" stroke="#000" stroke-width="12" stroke-linecap="round" stroke-linejoin="round"/></svg>