<svg xmlns="http://www.w3.org/2000/svg" width="192" height="192" viewBox="0 0 192 192"><path d="M84.59 173.43c-6.32-2.96-13.768-10.576-17.159-17.559l-2.352-4.84-6.304.576c-8.615.784-19.799-2.656-26.055-8.008-11.8-10.104-13.152-25.255-3.616-40.543l4.136-6.631-2.504-3.784c-4.415-6.688-7-14.928-7-22.343q0-17.007 14.12-24.135c6.376-3.224 16.808-5.424 21.96-4.64 3.864.6 4.024.472 7.767-6.048 9.744-16.943 26.191-23.767 40.303-16.735 6.88 3.44 13.584 10.152 17.423 17.471l2.88 5.488 7.8.08c14.448.144 24.56 5.6 29.887 16.103 2.44 4.824 2.76 6.656 2.424 13.96-.32 7.2-.992 9.6-4.64 16.703l-4.272 8.296 2.336 3.28c10.24 14.4 9.936 31.142-.784 41.862-6.544 6.544-13.896 9.224-25.55 9.304l-8.416.056-2.272 4.68c-5.728 11.784-17.447 19.975-28.6 19.975a26.8 26.8 0 0 1-11.511-2.56zm19.319-20.311c2.336-2.344 4.256-4.704 4.256-5.256 0-.544-2.72-1.92-6.032-3.04-5.888-2.008-6.168-2.008-12.064 0-3.312 1.12-6.032 2.496-6.032 3.04 0 .552 1.92 2.912 4.264 5.256 3.184 3.192 5.144 4.256 7.8 4.256s4.616-1.064 7.808-4.256m-45.647-25.071a216 216 0 0 0-1.12-6.384c-.248-1.248-2.904-4.336-5.888-6.856l-5.44-4.576-2.24 6.016c-2.432 6.48-2.032 9.496 1.688 12.784 2.336 2.056 4.88 2.816 10.048 3 3.576.128 3.6.08 2.952-3.984m85.277 2.8c7.24-2.168 8.68-8.624 3.936-17.67l-1.512-2.88-5.744 5.28c-4.864 4.479-5.736 5.87-5.736 9.199 0 2.152-.304 4.696-.672 5.648-.824 2.16 3.32 2.343 9.736.424zm-26.055-21.47.616-25.44-22.119-12.576-21.807 12.504v25.04l21.575 12.207M51.318 77.746c4.16-3.472 4.92-4.792 5.952-10.416l1.184-6.44h-4.256c-4.848 0-10.136 2.36-11.136 4.984-1.2 3.12-.736 8.28 1.088 12.12.968 2.048 1.912 3.728 2.08 3.728s2.472-1.792 5.088-3.976m97.797-2.064c3.055-8.96-1.424-14.784-11.376-14.784-5.04 0-4.744-1.096-2.624 9.888.4 2.08 1.728 3.864 3.568 4.816 1.607.84 3.855 2.544 4.991 3.8 2.616 2.888 3.36 2.376 5.44-3.72m-46.678-27.335c3.152-1.176 5.728-2.536 5.728-3.016s-1.784-2.848-3.968-5.264c-3.288-3.64-4.664-4.392-8.096-4.392-3.424 0-4.8.752-8.095 4.392-2.176 2.416-3.96 4.816-3.96 5.344 0 .88 10.792 5.536 12.088 5.216.32-.08 3.16-1.104 6.304-2.28"/></svg>