<svg xmlns="http://www.w3.org/2000/svg" width="192" height="192" viewBox="0 0 192 192"><path d="M123.16 20.798c-2.48 0-3.184.2-4.704 1.36-2.592 1.976-3.6 3.888-3.6 6.848 0 3.664 1.536 6.104 4.984 7.896 2.752 1.432 6.416.72 9.184-1.8 1.728-1.576 2.44-3.36 2.44-6.096 0-2.96-1-4.872-3.6-6.848-1.52-1.16-2.216-1.36-4.704-1.36m-25.295 1.944c-3.416.064-6.848 2.232-9.792 6.496l-1.864 2.704 1.12 1.2c.608.64 1.272 1.184 1.456 1.184.192 0 .896-.928 1.56-2.056 1.632-2.8 4.64-5.416 6.64-5.792 2.312-.432 4.76.856 7.008 3.696 1.016 1.28 2.048 2.696 2.296 3.12.4.704.592.648 1.752-.496l1.304-1.28-1.792-2.608c-2.88-4.168-6.272-6.224-9.688-6.16zm37.719 2.088c-.6 0 .4 4.656 1.192 5.52 3.216 3.536 3.168 14.304-.12 27.31-.504 2-1.04 3.953-1.184 4.329-.16.432.32 1.064 1.304 1.688.864.56 1.704 1.008 1.856 1.016.368.008 2.032-5.608 3.368-11.384.832-3.6 1.516-6.5 1.54-12.572-.196-6.8-.797-7.169-1.54-9.5-1.216-2.648-3.008-4.736-4.936-5.736a8 8 0 0 0-1.48-.672m-72.678.48c-4.56.288-8.032 3.224-9.616 8.512-.936 3.12-1.024 11.44-.16 16.16.52 2.888 2.64 11.856 3.104 13.168.152.424.688.312 1.928-.424 1.44-.848 1.68-1.224 1.488-2.248a679 679 0 0 0-1.496-6.928 52.8 52.8 0 0 1-1.352-11.16c-.104-6.367.592-9.383 2.632-11.424 1.216-1.208 1.728-1.384 4.08-1.376 6.04.024 12.368 4.144 23.479 15.28l7.976 7.992-2.712 3.904C77.72 77.708 71.026 89.092 64.13 104.58c-13.4 30.08-16.28 51.415-7.92 58.742 4.752 4.184 12.336 2.616 21.863-4.504 4.152-3.112 10.68-9.008 10.68-9.656 0-.224-.744-.76-1.648-1.192l-1.64-.776-3.464 3.12c-4.96 4.488-8.672 7.2-12.496 9.112-3.8 1.896-7.792 2.528-9.688 1.52-5.76-3.064-5.48-16.736.72-36.03.96-2.969 1.784-5.44 1.84-5.505.048-.064 2.424.192 5.28.56 17.208 2.224 39.127 2.16 58.398-.16l6.92-.832.48 1.216c4.536 11.448 7.336 25.895 6.512 33.567-.912 8.504-5.176 10.536-13.44 6.4-4.448-2.24-7.944-4.792-13.48-9.856l-3.944-3.616-1.632.88c-.904.48-1.632 1.024-1.632 1.208 0 .536 8.248 7.952 11.888 10.696 4.248 3.192 6.84 4.704 10.016 5.848 3.416 1.232 7.6 1.216 10.176-.024 8.448-4.088 8.552-20.335.264-43.983-6.024-17.2-15.312-35.43-26.8-52.583-13.76-20.559-29.03-36.247-40.534-41.647a18.4 18.4 0 0 0-5.928-1.736 12 12 0 0 0-2.016-.032zm48.879 9.976-4.672 4.624c-2.56 2.536-5.064 5.168-5.544 5.832-.88 1.2-.872 1.232.28 2.704l1.168 1.488 5.624-5.768 5.616-5.768-1.24-1.56zM81.738 52.997a10 10 0 0 0-1.48.08 18.16 18.16 0 0 0-15.296 14.584c-.296 1.472-.392 3.44-.216 4.376l.32 1.696 2.232-1.88c2.672-2.248 5.784-3.696 9.672-4.48l2.864-.592 4.4-6.144c2.431-3.376 4.263-6.296 4.08-6.496-.465-.512-3.569-1.04-5.984-1.128zm31.559.32c-4.52 0-7.68 1.12-6.04 2.128.264.16 1.96 2.392 3.784 4.96l3.304 4.664 2.984.52c3.768.656 9.128 3.28 11.288 5.52l1.664 1.72.144-2.56c.464-8.584-8-16.96-17.128-16.96zm34.535.048c-.72.016-1.2.088-1.288.24a10.4 10.4 0 0 0-.584 1.96l-.328 1.544h3.512c4.088 0 7.368.976 8.96 2.672.928.992 1.12 1.696 1.112 4s-.352 3.44-1.96 6.576l-1.936 3.8 1.24.455c2.096.768 2.256.648 4.112-3.143 2.376-4.872 2.808-9.44 1.168-12.368-1.256-2.24-3.056-3.672-5.832-4.648-1.784-.64-6.016-1.136-8.176-1.088m-102.81.192a40 40 0 0 0-3.56.264c-10.136 1.112-13.568 7.72-9 17.336 1.704 3.6 2.104 3.88 4.28 3.056l1.208-.456-1.4-2.272c-1.88-3.048-2.92-7.192-2.344-9.28.96-3.504 4.944-5.2 11.712-5.008l1.52.016c1.416-.008 2.424-.104 2.456-.248a8 8 0 0 0-.224-1.76c-.24-1.216-.504-1.424-1.84-1.448a16 16 0 0 1-2.264-.176zm52.855 12.808 2.36 4.984c2.664 5.623 7.504 16.952 7.504 17.56 0 .216-1.44.528-3.2.696s-4.384.36-5.816.448c-2.792.176-10.24-.312-10.624-.688-.288-.296 4.536-12.016 7.512-18.256zm36.095 1.12.024 2.52c.008 1.392-.128 3.511-.32 4.703l-.344 2.176 1.8.592c.992.32 2.648 1.2 3.696 1.936 1.04.744 2.064 1.368 2.272 1.392.688.072-.192-3.472-1.576-6.367a20.8 20.8 0 0 0-3.456-4.904zm-72.798.072c-.16 0-1.296 1.072-2.528 2.384-2.36 2.527-4.256 6.135-4.8 9.167l-.336 1.832 2-1.448a19.2 19.2 0 0 1 4.328-2.224c2.2-.72 2.32-.848 1.984-2.04a24 24 0 0 1-.36-4.471c0-1.76-.128-3.2-.288-3.2m55.847 1.064-.104.04c-.112.104.64 1.44 1.656 2.984A264 264 0 0 1 128.909 89.5c.736 1.504 1.496 2.728 1.688 2.728.6 0 1.12-3.384 1.056-6.944-.04-2.52-.36-4.048-1.264-6.016-1.344-2.936-4.448-6.552-7.016-8.176-1.672-1.056-5.6-2.56-6.352-2.48zm-40.08 1.704c-1.495.056-6.567 2.928-8.679 5.12-4.16 4.32-5.712 9.223-4.928 15.552.184 1.464.512 2.664.736 2.664s1.88-2.832 3.688-6.288a240 240 0 0 1 6.448-11.448c1.736-2.84 3.16-5.24 3.16-5.344q0-.24-.288-.256zM48.48 75.7a72 72 0 0 0-5.496 1.32c-10.176 2.712-17.712 6.247-22.215 10.416-3.936 3.648-5.008 6.055-4.72 10.608q.03.469.168.92a.8.8 0 0 0 .136.272q.072.096.144.096c.248-.016.584-.2.952-.488a8 8 0 0 0 .568-.52 12 12 0 0 0 2.048-2.864q.148-.342.264-.696c1.471-5.104 11.847-10.895 25.83-14.415a8 8 0 0 0 1.608-.528 1.12 1.12 0 0 0 .48-.496 1.6 1.6 0 0 0 .12-.376 24 24 0 0 0 .272-2.56q.038-.346-.024-.688zm96.806.328.272 1.816c.152.992.512 2.04.8 2.32.296.288 2.656 1.12 5.24 1.872 8.656 2.495 17.712 7.68 19.52 11.168a6.88 6.88 0 0 1-.248 6.383c-2.832 4.584-14.224 10.032-26.935 12.88-4.216.944-4.08.76-2.936 3.8l.376 1.016 3.952-.92c5.616-1.304 14.416-4.32 18.24-6.24 16.608-8.375 16.584-19.59-.056-27.847-3.52-1.744-13.176-5.167-16.704-5.92zM60.91 80.445l-.2.032c-1.128.264-4.512 2.703-6.344 4.671-6.208 6.624-6.48 16.368-.656 23 2.384 2.72 2.968 2.271 5.96-4.496l2.616-5.912-1.12-3.104c-1.24-3.472-1.488-10.032-.464-12.552.304-.752.456-1.464.336-1.584a.16.16 0 0 0-.128-.048zm73.236.565c-.104 0 .442 1.699.554 3.986.16 3.528.016 4.696-1.016 7.76l-1.208 3.6 2.032 4.232c1.12 2.32 2.416 5.248 2.896 6.512.784 2.08.976 2.256 2.096 2 1.56-.376 2.704-1.72 4.264-5 1.064-2.264 1.232-3.216 1.208-7.12-.024-5.32-.912-7.736-4.096-11.192-2.717-2.96-7.59-4.648-6.73-4.778M27.007 99.004a10 10 0 0 0-.56.016 8.5 8.5 0 0 0-4.088 1.424c-5.336 3.536-4.8 11.592.976 14.528 4.16 2.112 9.224.32 11.312-4 2.912-6-1.968-11.992-7.648-11.976zm57.119.416 3.152.24c1.728.128 7.92.28 13.776.32l10.632.08.896 2.616c2.04 5.96 3.792 13.408 3.24 13.76-.304.176-3.256.472-6.568.64-6.024.304-22.103.28-27.28-.048-2.327-.144-2.719-.296-2.527-.976a273 273 0 0 1 2.984-10.856zm-44.463 10.976h-.04c-.68 1.144-1.216 3.344-.888 3.656.24.224 3.416 1.16 7.072 2.088 3.648.928 7 1.688 7.44 1.704.488 0 .992-.6 1.336-1.632.616-1.872.344-2.624-.936-2.624-.48 0-3.816-.736-7.416-1.648a120 120 0 0 0-6.56-1.544zm-3.872 7.464c-.136 0-.912 1.432-1.728 3.176-4.32 9.24-.888 15.944 8.8 17.2 4.304.568 4.44.56 4.96-.08a5.6 5.6 0 0 0 .76-1.84l.296-1.248-3.68-.216c-9.128-.536-11.728-4.864-7.696-12.8.8-1.584 1.4-2.92 1.32-2.96q-1.478-.72-3.04-1.232zm120.96.08-.696.112a5.6 5.6 0 0 0-1.728.528c-.128.12.488 1.64 1.368 3.368 1.16 2.296 1.648 3.952 1.784 6.096.176 2.76.104 3.032-1.256 4.384-1.52 1.52-4.48 2.527-7.408 2.527-1.816 0-1.84.048-1.384 2.36l.312 1.52 2.656-.32c7.48-.92 11.592-5.392 10.72-11.68-.168-1.256-1.04-3.816-1.936-5.68-1.2-2.503-1.536-3.16-2.24-3.215zm-28.431 6.064-1.04.048c-1.056.072-2.448.216-4.264.424l-6.784.752-1.84 2.424c-2.32 3.04-6.04 5.528-10.272 6.88-1.792.583-3.352 1.12-3.456 1.2-.744.575 5.816 4.32 8.6 4.911 1.12.24 3.2.336 4.64.232 8.272-.624 14.416-6.256 16.32-14.944.304-1.44.24-1.96-1.904-1.92zm-61.918.4q-.952 0-1.12.152a1.6 1.6 0 0 0-.376.704 3.2 3.2 0 0 0-.072 1.04c.16 2.336 2.016 6.191 4.576 8.96 2.384 2.591 4.984 4.16 8.44 5.12 4.704 1.311 11.104-.017 14.816-3.08 1.744-1.433 2.152-2.16 1.288-2.32a2.4 2.4 0 0 0-.448-.032c-2.952 0-9.312-3.88-11.784-7.2a8 8 0 0 0-1.712-1.888 2.4 2.4 0 0 0-.752-.328 4 4 0 0 0-.928-.088 104 104 0 0 1-7.136-.672 56 56 0 0 0-4.08-.352zm31.599 1.296c-7.44 0-13.52.144-13.52.32 0 .56 3.84 3.624 5.624 4.48.96.464 2.696 1.104 3.864 1.432 3.816 1.04 7.512.64 11.6-1.28 2.032-.96 5.96-4.016 5.968-4.64 0-.168-6.088-.32-13.528-.32m-.336 12.216-3 2.272c-1.656 1.256-3.504 2.44-4.104 2.64l-.304.112-.184.104q-.128.112.032.232c.208.16.832.384 1.968.751 3.28 1.048 7.64 1.112 10.872.152l2.496-.743-2.768-1.656a28 28 0 0 1-3.888-2.76zm-10.08 18.904-1.328 1.272c-1.536 1.472-1.52 1.568 1.344 5.864 2.56 3.847 5.232 6.087 8.215 6.88 1.2.32 2.72.463 3.376.32 3.616-.769 7.136-3.745 9.92-8.392l1.6-2.688-1.096-1.168c-.6-.64-1.248-1.176-1.424-1.176-.184 0-1.16 1.424-2.176 3.152-3.136 5.367-6.88 7.695-10.16 6.335-1.888-.784-5.192-4.504-6.904-7.775z"/></svg>