<svg xmlns="http://www.w3.org/2000/svg" width="192" height="192" viewBox="0 0 192 192"><path d="M117.19 72.512h35.32V58.376h-35.32c-9.416 0-9.416-14.128 0-14.128h34.608A35.32 35.32 0 0 0 117.19 16H74.806a35.33 35.33 0 0 0-34.608 28.256h34.608c9.416 0 9.416 14.128 0 14.128H39.494v14.12h35.312c9.416 0 9.416 14.128 0 14.128H39.494v14.128h35.312c9.416.008 9.416 14.136 0 14.128H39.494v7.064a35.32 35.32 0 0 0 29.032 34.752c2.376 4.816 8.16 19.24 27.192 19.296 19.736-.056 25.44-14.328 27.76-19.296a35.32 35.32 0 0 0 29.032-34.752v-7.064h-35.32c-9.416 0-9.416-14.128 0-14.128h35.32V86.64h-35.32c-9.408-.008-9.408-14.112 0-14.128m-35.32 77.696c0-12.592 15.224-18.888 24.112-9.984 8.904 8.896 2.6 24.112-9.984 24.112-7.8 0-14.128-6.32-14.128-14.128"/></svg>