<svg xmlns="http://www.w3.org/2000/svg" width="192" height="192" viewBox="0 0 192 192"><path d="m86.54 72.857 26.583 26.114a10.01 10.01 0 0 0 14.073 0 9.38 9.38 0 0 0 0-13.761l-26.583-25.958a50.977 50.977 0 0 0-69.898-1.095l-.782 1.095a48.475 48.475 0 0 0 .47 68.49l26.582 26.114a10.01 10.01 0 0 0 14.073 0 9.38 9.38 0 0 0 0-13.761l-26.583-26.114a29.085 29.085 0 0 1-.156-41.438 30.18 30.18 0 0 1 42.22.313m34.402-34.714a9.38 9.38 0 0 0 0 13.604l26.583 26.27a29.085 29.085 0 0 1 .313 41.438 30.18 30.18 0 0 1-42.22-.313l-26.74-26.27a10.01 10.01 0 0 0-14.072 0 9.38 9.38 0 0 0 0 13.761L91.7 132.746c19.077 18.608 50.039 18.921 69.429.938l.938-.938a48.475 48.475 0 0 0-.47-68.49L134.86 38.142a10.01 10.01 0 0 0-14.073 0z"/></svg>