<svg width="192" height="192" fill="none" xmlns="http://www.w3.org/2000/svg"><path d="M50 22h88a6 6 0 0 1 6 6v90a6 6 0 0 1-6 6H50" stroke="#000" stroke-width="12" stroke-linecap="round" stroke-linejoin="round"/><path d="M38 131v33a6 6 0 0 0 6 6h116a6 6 0 0 0 6-6V53a6 6 0 0 0-6-6h-16" stroke="#000" stroke-width="12" stroke-linecap="round" stroke-linejoin="round"/><path d="M50 22 26 34v102l24-12V22Zm25 79 22-58 22 58m-7-14H82" stroke="#000" stroke-width="12" stroke-linecap="round" stroke-linejoin="round"/></svg>