<svg xmlns="http://www.w3.org/2000/svg" width="192" height="192" viewBox="0 0 192 192"><path d="M80.314 174.68c-21.704-3.576-29.76-9.136-31.512-21.744-.288-2.088-1.168-7.904-1.952-12.928-.792-5.024-2-12.904-2.672-17.512a4280 4280 0 0 0-5.36-35.016 368 368 0 0 1-1.44-9.888 336 336 0 0 0-1.504-10.28 1848 1848 0 0 1-4.664-30.824c-.368-2.824-1.12-4.472-2.912-6.352L25.89 27.6l2.424-2.048c4.28-3.6 14.36-6.08 33.352-8.2 17.44-1.944 54.32-1.76 71.928.376 18.592 2.248 28.336 4.88 31.656 8.552 1.296 1.432 1.256 1.576-1.008 3.944-1.736 1.808-2.488 3.456-2.856 6.256-.544 4.2-2.88 19.584-4.664 30.832a376 376 0 0 0-1.512 10.272c-.192 1.68-.84 6.128-1.44 9.896a4488 4488 0 0 0-5.344 35.016 2472 2472 0 0 1-2.672 17.512 1048 1048 0 0 0-1.96 12.928c-1.768 12.76-9.648 18.12-31.888 21.728a94.4 94.4 0 0 1-31.592.016m11.52-39.256c1.408-.632 3.232-1.576 4.056-2.088 4.96-3.12 7.384-4.384 7.856-4.088.304.184 4.568.752 9.488 1.256 10.712 1.104 18.296.136 19.712-2.512 2.128-3.976-.8-11.6-8.08-21.072l-3.288-4.272 2.96-1.704c1.64-.936 2.968-1.968 2.968-2.288s-1.968-1.728-4.376-3.144c-9.784-5.736-9.768-5.72-12.68-13.24-3.248-8.368-8.4-16.48-11.352-17.88-4.472-2.128-8.24.664-12.896 9.536-1.496 2.848-3.456 7.152-4.36 9.56s-1.872 4.36-2.16 4.352a10.4 10.4 0 0 1-2.416-1.12c-3.36-1.92-3.6-1.552-3.928 5.968l-.32 7.104-4.528 6c-7.784 10.264-10.416 16.336-9.2 21.176.864 3.44 8.152 4.496 22.36 3.256l7.04-.608v3.48c0 1.92.128 3.48.288 3.48s1.44-.512 2.848-1.152zm-22.176-13.936c0-1.168 3.6-6.696 7.232-11.096 2.384-2.888 4.544-4.4 10.008-6.968 3.84-1.808 7.16-3.6 7.4-3.984s-1.12-1.808-3-3.16c-2.776-1.992-3.336-2.776-2.952-4.112 1.16-3.984 6.904-16.016 7.784-16.304 1.048-.344 4.928 7.448 8.16 16.4 1.48 4.112 1.904 6.768 1.904 11.864 0 3.616.32 6.568.72 6.568s1.952-.72 3.456-1.616l2.744-1.616 2.824 3.264c2.776 3.216 6.96 9.704 6.992 10.816.024.976-7.144.64-13.416-.64-4.432-.896-7.616-2.176-12.272-4.944-3.464-2.056-6.608-3.736-7-3.736s-.816 1.624-.944 3.616l-.232 3.616-3.808.944c-5.744 1.424-15.6 2.112-15.6 1.088"/></svg>