<svg xmlns="http://www.w3.org/2000/svg" width="192" height="192" viewBox="0 0 192 192"><path d="M36.278 33.755a1.44 1.44 0 0 0-1.048.432l-18.8 18.8a1.47 1.47 0 0 0 0 2.08l61.441 61.441a39.2 39.2 0 0 0-2.744 14.328 39.224 39.224 0 0 0 39.136 39.136c5 0 9.776-.96 14.176-2.672l-9.528-9.536a27.232 27.232 0 0 1-31.968-26.928c0-15.16 12.16-27.32 27.32-27.32s27.32 12.16 27.32 27.32q-.008 3.432-.8 6.608l9.24 9.24a38.8 38.8 0 0 0 3.376-15.84A39.224 39.224 0 0 0 114.263 91.7a38.8 38.8 0 0 0-15.992 3.44L37.318 34.18a1.44 1.44 0 0 0-1.04-.425" opacity=".6"/><path d="M128.7 22.035a.69.69 0 0 0-.696.696v84.209a27.568 27.568 0 1 0-13.728 51.465 27.57 27.57 0 0 0 27.568-27.568V48.772h33.472a.696.696 0 0 0 .688-.696V22.724a.696.696 0 0 0-.696-.696z"/></svg>