<svg xmlns="http://www.w3.org/2000/svg" width="192" height="192" viewBox="0 0 192 192"><path d="M157.73 21.083a7.2 7.2 0 0 0-3.984.4 7.2 7.2 0 0 0-4.376 6.56v9.92a11.52 11.52 0 0 0 11.44 11.44h6.84c3.56 0 6.544-2.304 7.736-5.168a8.48 8.48 0 0 0-1.816-9.12l-12.096-12.104a7.2 7.2 0 0 0-3.752-1.936zm-.328 9.224 10.496 10.488c.224.232.144.208.072.376-.064.16.008.208-.32.208h-6.832a3.36 3.36 0 0 1-3.416-3.424zm-19.472-9.208a8 8 0 0 0-4.296 2.224l-21.04 21.04a14 14 0 0 0 0 19.704l18.136 18.136c2.976 2.968 7.336 3.52 10.704 2.128a9.92 9.92 0 0 0 6.072-9.08V29.067c0-3.448-2.24-6.352-5.016-7.504a8.24 8.24 0 0 0-4.56-.472zm1.48 7.888c.08.032.056-.128.056.08v46.184c0 .968-.44 1.376-1.104 1.656s-1.272.296-1.952-.392l-18.136-18.128a5.84 5.84 0 0 1 0-8.344l21.04-21.04c.152-.152.016-.048.096-.016m-57.936 78.12a9.9 9.9 0 0 0-5.504.568 9.92 9.92 0 0 0-6.064 9.08v46.184c0 3.448 2.24 6.352 5.016 7.504a8.24 8.24 0 0 0 8.848-1.76l21.04-21.04a14 14 0 0 0 0-19.704l-18.136-18.136a9.6 9.6 0 0 0-5.2-2.696m-1.456 7.824a1.76 1.76 0 0 1 .984.56l18.128 18.128a5.84 5.84 0 0 1 0 8.344l-21.04 21.04c-.144.152-.016.056-.096.024s-.056.104-.056-.08v-46.192c0-.96.44-1.376 1.112-1.656a1.84 1.84 0 0 1 .968-.16zm-53.88-92.8c-4.344 0-7.928 2.784-9.376 6.264s-.88 7.984 2.2 11.056l91.424 91.432a7.97 7.97 0 0 0 11.184 0l17.04-17.04a14.99 14.99 0 0 0 0-21.112L73.074 27.203a17.28 17.28 0 0 0-12.232-5.064zm0 8.04H60.85c2.456 0 4.808.968 6.544 2.712l65.536 65.536c2.72 2.72 2.72 7.024 0 9.744l-16.944 16.952L24.65 33.779c-.792-.792-.784-1.52-.464-2.304s.84-1.304 1.952-1.304"/></svg>