<svg xmlns="http://www.w3.org/2000/svg" width="192" height="192" viewBox="0 0 192 192"><path d="M110.12 122.11a47.06 47.06 0 0 1-47.059 47.059 47.06 47.06 0 0 1-47.059-47.059 47.06 47.06 0 0 1 47.059-47.059 47.06 47.06 0 0 1 47.059 47.059m63.8-59.508a39.794 39.794 0 0 1-39.779 39.779 39.794 39.794 0 0 1-39.779-39.779 39.794 39.794 0 0 1 39.779-39.779 39.794 39.794 0 0 1 39.779 39.779m2.081 72.217a30.494 30.494 0 0 1-30.494 30.494 30.494 30.494 0 0 1-30.494-30.494 30.494 30.494 0 0 1 30.494-30.494 30.494 30.494 0 0 1 30.494 30.494m-85.45-83.812a19.06 19.06 0 0 1-19.06 19.059 19.06 19.06 0 0 1-19.059-19.059 19.06 19.06 0 0 1 19.06-19.059A19.06 19.06 0 0 1 90.55 51.007"/></svg>