<svg width="192" height="192" fill="none" xmlns="http://www.w3.org/2000/svg"><path d="M22 62.979c0-4.054 3.968-6.93 7.842-5.686l50 16.06A5.977 5.977 0 0 1 84 79.04v83.98c0 4.339-4.498 7.23-8.47 5.445l-50-22.485a5.973 5.973 0 0 1-3.53-5.445V62.979ZM48 38l48-15 48 15-48 15-48-15Zm122 24.979c0-4.054-3.968-6.93-7.842-5.686l-50 16.06A5.978 5.978 0 0 0 108 79.04v83.98c0 4.339 4.498 7.23 8.47 5.445l50-22.485a5.973 5.973 0 0 0 3.53-5.445V62.979Z" stroke="#000" stroke-width="12" stroke-linecap="round" stroke-linejoin="round"/></svg>