<svg xmlns="http://www.w3.org/2000/svg" width="192" height="192" viewBox="0 0 192 192"><path d="M54.854 46.729a13.8 13.8 0 0 0-4.05.82 13.67 13.67 0 0 0-8.688 9.869l-25.28 69.457c-2.598 7.139 1.058 14.977 8.196 17.576s14.977-1.057 17.576-8.196l12.945-35.565 12.944 35.565a13.68 13.68 0 0 0 13.722 8.997 13.68 13.68 0 0 0 13.722-8.997l12.945-35.565 12.944 35.565a13.68 13.68 0 0 0 13.722 8.997 13.68 13.68 0 0 0 13.722-8.997l25.89-71.129a13.683 13.683 0 0 0-8.196-17.576 13.683 13.683 0 0 0-17.576 8.196L135.553 93.77l-13.23-36.348a13.67 13.67 0 0 0-8.688-9.872 13.7 13.7 0 0 0-4.749-.82 13.7 13.7 0 0 0-4.749.82 13.67 13.67 0 0 0-8.687 9.869l-13.23 36.35-13.23-36.347a13.67 13.67 0 0 0-8.69-9.872 13.7 13.7 0 0 0-4.748-.82c-.233 0-.465-.012-.699 0z"/></svg>