<svg xmlns="http://www.w3.org/2000/svg" width="192" height="192" viewBox="0 0 192 192"><path d="M102.021 175.653c-27.793-2.247-49.99-6.956-55.363-11.766-1.528-1.367-2.185-2.494-1.799-3.12 1.784-2.887 10.57-3.96 19.031-2.33 28.087 5.404 44.833 5.149 54.26-.827 5.04-3.204 6.639-6.168 6.639-12.33-.008-5.62-1.436-9.333-6.933-18.042-1.807-2.856-3.15-5.296-2.996-5.435.155-.131 5.906-3.96 12.785-8.508 10.16-6.717 12.754-8.122 13.897-7.496 4.74 2.601 18.081 19.555 22.235 28.264 7.967 16.684 3.343 28.975-13.527 35.93-10.87 4.486-32.031 6.965-48.229 5.66m-73.498-32.65c-2.54-1.096-3.999-4.547-3.188-7.535 1.003-3.713 4.701-6.323 24.574-17.348 17.347-9.627 35.513-21.03 35.513-22.296 0-1.451-23.971-16.761-37.057-23.67C30.963 62.965 24.43 57.94 24.43 53.74c0-5.32 6.617-7.049 16.136-4.215 8.461 2.517 30.85 12.252 48.847 21.239l15.966 7.967 4.16-4.362c16.43-17.224 19.974-33.306 8.787-39.868-9.049-5.296-31.407-5.72-55.255-1.042-9.404 1.845-14.854 1.613-17.193-.726-2.154-2.146-1.39-3.605 3.065-5.86 8.368-4.246 28.148-8.43 48.059-10.168 18.66-1.636 35.506-.409 48.384 3.513 10.283 3.127 16.305 7.35 19.887 13.92 1.992 3.667 2.147 4.509 1.822 10.114-.316 5.458-.787 6.987-4.33 14.113-5.953 11.982-14.909 22.404-29.863 34.765-21.749 17.98-57.316 37.173-88.73 47.89-6.771 2.308-13.048 3.103-15.65 1.983"/></svg>