<svg xmlns="http://www.w3.org/2000/svg" width="192" height="192" viewBox="0 0 192 192"><path d="M19.034 96V19l55.611.257c54.448.256 55.748.29 62.541 1.83 24.657 5.57 35.779 17.377 35.779 37.962 0 11.122-3.217 18.412-11.55 26.18a42.8 42.8 0 0 1-14.108 8.666c-1.968.728-1.882.796 4.363 3.927 10.49 5.253 17.282 12.953 20.174 22.878.693 2.379 1.112 6.554 1.112 10.977 0 12.063-2.977 20.088-10.12 27.155-5.237 5.194-11.885 8.659-21.005 10.951-10.284 2.584-18.403 3.217-41.263 3.217h-20.91l.223-14.656c.257-16.572.778-18.634 5.424-21.517 2.447-1.523 3.43-1.625 20.26-1.959 15.135-.3 17.95-.522 19.532-1.566 1.172-.77 3.739-4.893 7.024-11.293 2.85-5.544 5.288-10.48 5.416-10.968.171-.693-4.757-.88-22.955-.864-21.021.01-23.442.137-26 1.318-3.653 1.685-5.732 4.004-7.435 8.273l-1.369 3.456.171-18.36c.154-17.248.257-18.53 1.677-21.184 3.73-6.964 5.262-7.349 29.628-7.383 24.606-.043 22.493.89 29.8-13.099 2.831-5.433 5.33-10.806 5.543-11.293.317-.71-9.18-.325-47.167-.18l-47.56.18-.18 60.548-.18 60.548H19.035z"/></svg>