<svg width="192" height="192" fill="none" xmlns="http://www.w3.org/2000/svg"><path d="M33 62.385a6 6 0 0 1 2.901-5.139l57-34.384a6 6 0 0 1 6.198 0l57 34.384a6.002 6.002 0 0 1 2.901 5.14v67.23a6 6 0 0 1-2.901 5.138l-57 34.385a6.003 6.003 0 0 1-6.198 0l-57-34.385A6 6 0 0 1 33 129.615v-67.23Z" stroke="#000" stroke-width="12" stroke-linecap="round" stroke-linejoin="round"/><path d="M56 121V71l40-23 40 23v12l-16 9v7l16 10v12l-31.304 18" stroke="#000" stroke-width="12" stroke-linecap="round" stroke-linejoin="round"/></svg>