<svg width="192" height="192" fill="none" xmlns="http://www.w3.org/2000/svg"><path d="M96 105c-4 0-10.25-3-12-9 3.5 1.636 6 5 12 5s8.5-3.364 12-5c-1.75 6-8 9-12 9Z" stroke="#000" stroke-width="6" stroke-linecap="round" stroke-linejoin="round"/><path d="M123 38a4 4 0 1 0 0-8 4 4 0 0 0 0 8ZM40 79a4 4 0 1 0 0-8 4 4 0 0 0 0 8Zm31 93a4 4 0 1 0 0-8 4 4 0 0 0 0 8Zm-24-15a4 4 0 1 0 0-8 4 4 0 0 0 0 8Zm77 15a4 4 0 1 0 0-8 4 4 0 0 0 0 8Zm24-15a4 4 0 1 0 0-8 4 4 0 0 0 0 8Zm4-78a4 4 0 1 0 0-8 4 4 0 0 0 0 8Z" stroke="#000" stroke-width="8" stroke-linecap="round" stroke-linejoin="round"/><path d="M73 114c-48 10-26 39-26 39s11-12 19-8 5 22 5 22 13-24 27-24 26 24 26 24 0-16 6-21 18 6 18 6 19-27-28-38" stroke="#000" stroke-width="10" stroke-linecap="round" stroke-linejoin="round"/><path d="M76 43C36 31 38 65 40 73c0 0 9-13 20-13 6 0 6 11 6 11-5 9 0 21 0 21-4 10 4 14 4 14s2 17 26 17 26-17 26-17 8-4 4-14c0 0 5-12 0-21 0 0 0-11 6-11 11 0 20 13 20 13 1.374-5.496 2.748-23.267-9.5-29.958" stroke="#000" stroke-width="10" stroke-linecap="round" stroke-linejoin="round"/><path d="M66 71c14.884-16.851 5.969-23.79 29.783-46.59 8.921-7.93 24.813-.958 21.829 9.914" stroke="#000" stroke-width="10" stroke-linecap="round" stroke-linejoin="round"/><path d="M126 71c-8.916-10.105-10.646-17.03-14-25.815C108 34 118 34 118 34" stroke="#000" stroke-width="10" stroke-linecap="round" stroke-linejoin="round"/><path d="M84.333 82c0-.394.06-.784.178-1.148.118-.364.29-.695.506-.973.216-.279.474-.5.757-.65a1.9 1.9 0 0 1 .893-.229c.306 0 .61.078.893.228.283.15.54.372.757.65.216.28.388.61.505.974.118.364.178.754.178 1.148h-4.667Zm0 0c-.306 0-.61-.078-.893-.228a2.4 2.4 0 0 1-.757-.65 3.2 3.2 0 0 1-.505-.974 3.8 3.8 0 0 1 0-2.296c.118-.364.289-.695.505-.973.217-.279.474-.5.757-.65.283-.15.587-.229.893-.229v6Zm23.334 0c0-.394-.061-.784-.178-1.148a3.2 3.2 0 0 0-.506-.973 2.4 2.4 0 0 0-.757-.65 1.899 1.899 0 0 0-.893-.229c-.306 0-.61.078-.893.228-.283.15-.54.372-.757.65-.216.28-.388.61-.505.974A3.72 3.72 0 0 0 103 82h4.667Zm0 0c.306 0 .61-.078.893-.228.283-.15.54-.372.757-.65.216-.28.388-.61.505-.974.118-.364.178-.754.178-1.148 0-.394-.06-.784-.178-1.148a3.199 3.199 0 0 0-.505-.973 2.4 2.4 0 0 0-.757-.65 1.899 1.899 0 0 0-.893-.229v6Z" stroke="#000" stroke-width="6" stroke-linecap="round" stroke-linejoin="round"/></svg>