<svg width="192" height="192" fill="none" xmlns="http://www.w3.org/2000/svg"><path d="M120.666 22.01V72M22 65.92V51.86C22 35.316 35.019 22 51.185 22h89.634C156.985 22 170 35.316 170 51.86v14.056a6.136 6.136 0 0 1-1.761 4.298 5.968 5.968 0 0 1-4.24 1.783H28.001a5.967 5.967 0 0 1-4.24-1.783A6.136 6.136 0 0 1 22 65.916M71.34 22.01V72M96 98c-2.364 0-4.705.456-6.89 1.343a18.042 18.042 0 0 0-5.84 3.822 17.613 17.613 0 0 0-3.9 5.722 17.313 17.313 0 0 0-1.37 6.748c.016 1.947.36 3.878 1.017 5.715h-.043L96 170l17.03-48.646h-.043a17.397 17.397 0 0 0 1.013-5.715 17.32 17.32 0 0 0-1.369-6.749 17.608 17.608 0 0 0-3.902-5.721 18.043 18.043 0 0 0-5.84-3.823A18.33 18.33 0 0 0 96 98Z" stroke="#000" stroke-width="12" stroke-linecap="round" stroke-linejoin="round"/></svg>