<svg width="192" height="192" fill="none" xmlns="http://www.w3.org/2000/svg"><circle cx="96" cy="26" r="5" stroke="#000" stroke-width="10" stroke-linecap="round" stroke-linejoin="round"/><circle cx="63" cy="55" r="5" stroke="#000" stroke-width="10" stroke-linecap="round" stroke-linejoin="round"/><circle cx="129" cy="55" r="5" stroke="#000" stroke-width="10" stroke-linecap="round" stroke-linejoin="round"/><path d="m82 87 14 83 14-83s-14-5-14-29c0 24-14 29-14 29Z" stroke="#000" stroke-width="12" stroke-linecap="round" stroke-linejoin="round"/><path d="M63 50c5 0 15 5 33 5-18 0-28 5-33 5m66-10c-5 0-15 5-33 5 18 0 28 5 33 5M91 26c0 4 5 9 5 29 0-20 5-25 5-29" stroke="#000" stroke-width="10" stroke-linecap="round" stroke-linejoin="round"/></svg>