<svg width="192" height="192" fill="none" xmlns="http://www.w3.org/2000/svg"><path d="M86 73c0-14 9.177-38 38-38 36.823 0 42 25 42 25l-18 6s-4-8-22-8c-8 0-16 4-16 14 0 24 60 8 60 52 0 15-12.242 37-46 37-33.758 0-43-31-43-31l21-5s4 13 25 13c15 0 19-8 19-13 0-23-60-9-60-52Z" stroke="#000" stroke-width="12" stroke-linecap="round" stroke-linejoin="round"/><path d="M22 61.999v18C22 84.972 26.056 89 31.06 89h19.35c3.604 0 7.06-1.422 9.61-3.954A13.455 13.455 0 0 0 64 75.5a13.46 13.46 0 0 0-3.98-9.547A13.637 13.637 0 0 0 50.41 62M22 62h28.41M22 62V44c0-4.97 4.056-9 9.06-9h19.35c3.604 0 7.06 1.42 9.61 3.953A13.455 13.455 0 0 1 64 48.499c0 3.58-1.432 7.014-3.98 9.546A13.636 13.636 0 0 1 50.41 62" stroke="#000" stroke-width="12" stroke-miterlimit="6" stroke-linecap="round" stroke-linejoin="round"/></svg>