<svg xmlns="http://www.w3.org/2000/svg" width="192" height="192" viewBox="0 0 192 192"><path d="M169.83 71.078c.72 7.576.368 13.92-.128 19.64-.832 9.592-2.432 15.328-4.744 21.472a104 104 0 0 1-8.432 17.56l-.184.312a64 64 0 0 1-2.16 3.392l-.24-.256a64 64 0 0 0-1.816-1.856c-1.28-1.28-4.864-5.968-5.872-7.408a52 52 0 0 1-3.905-6.488l-.544-1.16-1.008.792a4.88 4.88 0 0 0-1.664 3.952c.024 1.44.352 3.096 1.224 6.136a57.6 57.6 0 0 0 5.265 12.144c1.336 2.4 1.856 3.504 1.224 3.968a.48.48 0 0 1-.296.08c-.8 0-2.256-.752-3.92-2.024-1.48-1.12-5.44-4.48-10.233-11.168a101 101 0 0 1-9.304-15.928l-.416-.88s-.608.216-1.168.56a2.4 2.4 0 0 0-.96.944 6.16 6.16 0 0 0-.536 3.776c.44 3.56 2.528 9 4.216 12.928 2.848 6.624 8.08 14.08 11.976 19.176l.512.616c.208.24.552.64.72.912-.336.344-1.136.992-2.096 1.784l-1.44 1.168a107 107 0 0 1-16.584 11.28c-4.864 2.72-14.76 7.744-21.32 9.497-6.56-1.76-16.456-6.777-21.32-9.497a106.4 106.4 0 0 1-16.592-11.28l-1.472-1.2a32 32 0 0 1-2.08-1.768l1.248-1.512c3.888-5.072 9.12-12.528 11.984-19.176 1.68-3.92 3.776-9.344 4.224-12.928a6.16 6.16 0 0 0-.544-3.76 2.72 2.72 0 0 0-1.232-1.136l-.896-.368-.416.872a101 101 0 0 1-9.304 15.928c-4.776 6.688-8.744 10.04-10.224 11.176-1.64 1.248-3.136 2.024-3.92 2.024-.072 0-.192 0-.248-.056l-.144-.112c-.48-.512.064-1.624 1.328-3.896l.696-1.264c1.944-3.592 3.6-7.552 4.56-10.864.872-3.048 1.2-4.712 1.224-6.144a4.88 4.88 0 0 0-1.68-3.952l-.992-.784-.544 1.152a51 51 0 0 1-3.904 6.496c-1.024 1.44-4.608 6.136-5.872 7.4-.88.88-1.44 1.464-1.824 1.864l-.24.256a104 104 0 0 1-10.776-21.256c-2.304-6.16-3.904-11.896-4.736-21.48-.504-5.76-.864-12.12-.128-19.656.736-7.696 2.664-14.952 5.424-20.448 3.888-7.76 8.744-12.368 14.824-14.08 1.52-.424 3.904-.928 6.584-.928 4.832 0 8.688 1.584 11.464 4.72a7.52 7.52 0 0 1 1.552 6.72c-.544 2.096-2.016 3.472-3.984 4.4-.512.24-1.088.376-1.088.376s.064.272.576 1.12c1.944 3.12 5.728 4.769 10.92 4.769q1.824 0 3.76-.264c7.384-1.032 10.72-5.697 11.928-14.688.48-3.505.928-6.457-1.328-10.104-1.584-2.56-6.112-4.073-9.416-4.057-2.96.016-4.52.784-5.464 1.768-.048-.144-.256-.392-.304-.52a5.28 5.28 0 0 1-.344-3.328c.344-1.92 1.872-3.72 2.68-4.352a15.2 15.2 0 0 1 6.816-3.36c1.496-.32 3.072-.592 4.832-.592.376 0 1.632-.008 2.192.032.24.016.28-.088.456-.304 1.08-1.312 2.784-2.024 5.88-1.952 2.384.048 5.568.176 8.064.976 2.224.712 3.36 1.392 4.648 2.24a10.4 10.4 0 0 1 3.737 4.944c.992 2.896 1.56 6.504 1.712 10.672.168 8.296 1.352 13.336 3.68 16.336 3.744 4.848 6.952 5.856 10.824 6.104h.416c7.312 0 9.984-2.312 11.168-4.08 0 0 .648-.904.912-1.416a10.4 10.4 0 0 1-1.52-.392 6 6 0 0 1-3.712-4.192 7.6 7.6 0 0 1 1.504-6.832c3.464-4.024 8.624-4.68 11.392-4.72h.32c2.16 0 4.272.32 6.272.96 2.72.856 5.08 2.064 7.016 3.6 3.792 3.032 6.184 7.176 7.84 10.44 2.72 5.328 4.752 12.976 5.424 20.432"/></svg>