<svg xmlns="http://www.w3.org/2000/svg" width="192" height="192"><path d="M166.03 176q-26.605 0-53.456-12.372-26.849-12.372-49.384-34.904-22.442-22.534-34.814-49.341-12.372-26.805-12.372-53.409 0-4.235 2.823-7.106Q21.652 16 25.887 16h30.695q3.565 0 6.29 2.327 2.724 2.325 3.466 5.746l5.395 27.692q.56 3.854-.235 6.623-.798 2.77-2.862 4.652L46.9 84.2q5.248 9.61 11.991 18.181 6.742 8.57 14.598 16.37 7.746 7.747 16.471 14.39t18.842 12.362l21.12-21.304q2.21-2.299 5.351-3.223 3.139-.923 6.525-.452l26.134 5.322q3.564.942 5.819 3.638t2.254 6.118v30.515q0 4.235-2.869 7.058-2.87 2.824-7.105 2.824z"/></svg>