<svg width="192" height="192" viewBox="0 0 192 192" fill="none" xmlns="http://www.w3.org/2000/svg">
<path d="M122 168C150.419 155.013 170 127.662 170 96.0212C170 64.7955 150.929 37.7057 123.113 24.5181M70 24C41.5815 36.9868 22 64.3383 22 95.9788C22 127.205 41.0715 154.294 68.887 167.482M160.4 22H128C125.984 22 124.201 22.9938 123.113 24.5181M122 59.0109V28C122 26.7018 122.412 25.4999 123.113 24.5181M70 132.989V164C70 165.298 69.5877 166.5 68.887 167.482C67.799 169.006 66.0155 170 64 170H31.6" stroke="black" stroke-width="12" stroke-linecap="round" stroke-linejoin="round"/>
</svg>
