<svg xmlns="http://www.w3.org/2000/svg" width="192" height="192" viewBox="0 0 192 192"><path d="m63.515 66.833 5.32 5.328v19.904l-3.424 3.424 3.424 3.432v20.919l-5.32 5.328H43.46v-24.72h-1.384v-9.84h1.384V66.835zm-5.544 9.488h-5.096v14.368h5.104zm-5.104 39.375h5.104V100.24h-5.096zM93.114 66.84l5.32 5.328v12.608h-10.2V76.32h-5.608v39.375h5.608v-14.512h-3.28v-9.48h13.488v28.143l-5.32 5.328h-15.32l-5.32-5.328V72.16l5.32-5.328zm31.935 0h10.352v58.335h-10.208V91.489l-6.048 15.752h-.08l-6.047-15.68v33.615H102.81V66.833h10.352l5.911 18.52zm24.863 0v58.335h-10.136V66.833zM24.772 49.217a3.096 3.096 0 0 0-3.08 3.088v13.72h-5.696V75.4h5.696v41.919h-5.696v8.655h5.696v13.72a3.09 3.09 0 0 0 3.08 3.088h142.38a3.096 3.096 0 0 0 3.088-3.088V125.44H176v-8.663h-5.76v-42.6H176v-8.24h-5.76V52.306a3.096 3.096 0 0 0-3.088-3.08H24.772zm6 8.704h130.38v76.198H30.772z"/></svg>