<svg width="192" height="192" fill="none" xmlns="http://www.w3.org/2000/svg"><path d="M32 74H22m148 0h-10M32 118H22m148 0h-10M40 140h112a6 6 0 0 0 6-6V58a6 6 0 0 0-6-6H40a6 6 0 0 0-6 6v76a6 6 0 0 0 6 6Z" stroke="#000" stroke-width="12" stroke-linecap="round" stroke-linejoin="round"/><path d="M101 74H89a6 6 0 0 0-6 6v16h18a8 8 0 0 0 8-8v-6a8 8 0 0 0-8-8Zm8 36v-6a8 8 0 0 0-8-8H83v16a6 6 0 0 0 6 6h12a8 8 0 0 0 8-8Z" stroke="#000" stroke-width="12" stroke-linecap="round" stroke-linejoin="round"/></svg>