<svg width="192" height="192" fill="none" xmlns="http://www.w3.org/2000/svg"><path d="M136 76a40.003 40.003 0 0 0-40-40 40 40 0 0 0-40 40m40 0a40 40 0 1 0 0 80" stroke="#000" stroke-width="12" stroke-linecap="round" stroke-linejoin="round"/><path d="M101 74a5 5 0 0 0-10 0" stroke="#000" stroke-width="10" stroke-linecap="round" stroke-linejoin="round"/><circle cx="96" cy="116" r="5" stroke="#000" stroke-width="10" stroke-linecap="round" stroke-linejoin="round"/><path d="M84 36a14 14 0 0 0-14-14m66 134a13.994 13.994 0 0 1-4.101 9.899 13.994 13.994 0 0 1-19.798 0 13.994 13.994 0 0 1 0-19.798 13.994 13.994 0 0 1 19.798 0A13.994 13.994 0 0 1 136 156h0ZM70 22h-8a6 6 0 0 0-6 6v88m40 40h12" stroke="#000" stroke-width="12" stroke-linecap="round" stroke-linejoin="round"/><path d="M96 76h28c6.627 0 12 5.373 12 12v68m0-80v12" stroke="#000" stroke-width="12" stroke-linecap="round" stroke-linejoin="round"/></svg>