<svg xmlns="http://www.w3.org/2000/svg" width="192" height="192" viewBox="0 0 192 192"><path d="M87.337 97.4c2.88-1.44 4.664-4.56 4.664-8.376 0-6.528-5.088-10.96-12.264-10.96h-20.64c-.456 0-.8.352-.8.8v40.297c0 .456.344.8.8.8h19.736c9.864 0 15.064-4.24 15.064-12.56.024-8.104-6.56-10-6.56-10m-21.28-13.256h12.24c4.504 0 6.8 1.92 6.8 5.496s-2.296 5.496-6.8 5.496h-12.24a.8.8 0 0 1-.8-.8v-9.392c0-.448.344-.8.8-.8m12.376 29.737h-12.4a.8.8 0 0 1-.8-.8v-11.12a.8.8 0 0 1 .8-.8h12.4c5.92 0 8.56 1.68 8.56 6.344 0 4.72-2.592 6.376-8.56 6.376m-33.417-16.48c2.88-1.44 4.664-4.56 4.664-8.376 0-6.528-5.096-10.96-12.264-10.96H16.8c-.456 0-.8.352-.8.8v40.297c0 .456.344.8.8.8h19.736c9.864 0 15.064-4.24 15.064-12.56 0-8.104-6.584-10-6.584-10m-21.28-13.256h12.24c4.504 0 6.8 1.92 6.8 5.496s-2.296 5.496-6.8 5.496h-12.24a.8.8 0 0 1-.8-.8v-9.392c0-.448.344-.8.8-.8m12.4 29.737h-12.4a.8.8 0 0 1-.8-.8v-11.12a.8.8 0 0 1 .8-.8h12.4c5.92 0 8.56 1.68 8.56 6.344-.024 4.72-2.584 6.376-8.56 6.376m102.94-.4 13.76-26.185c.296-.56 1.144-.56 1.44 0l13.76 26.185c.136.264.4.424.696.424h6.664c.456 0 .744-.48.536-.88l-21.68-40.585c-.296-.56-1.096-.56-1.416 0l-21.68 40.585c-.216.4.08.88.528.88h6.672a.96.96 0 0 0 .72-.424m-7.816-34.961-13.76 26.185c-.296.56-1.144.56-1.44 0L102.3 78.523a.8.8 0 0 0-.696-.424H94.94a.6.6 0 0 0-.536.88l21.68 40.585c.296.56 1.096.56 1.416 0l21.68-40.585a.6.6 0 0 0-.528-.88h-6.672c-.32 0-.584.16-.72.424"/></svg>