<svg width="192" height="192" fill="none" xmlns="http://www.w3.org/2000/svg"><path d="M91.492 23.867a6.376 6.376 0 0 1 9.016 0l67.625 67.625a6.377 6.377 0 0 1 0 9.016l-67.625 67.625a6.379 6.379 0 0 1-9.016 0l-67.625-67.625a6.376 6.376 0 0 1 0-9.016l67.625-67.625Z" stroke="#000" stroke-width="12" stroke-linecap="round" stroke-linejoin="round"/><path d="M90.343 129.941 62.06 101.657" stroke="#000" stroke-width="10" stroke-linecap="round" stroke-linejoin="round"/><path d="M72.665 86.565a4 4 0 1 0 0-8 4 4 0 0 0 0 8Zm36.77 36.77a4 4 0 1 0 0-8 4 4 0 0 0 0 8Z" stroke="#000" stroke-width="8" stroke-linecap="round" stroke-linejoin="round"/></svg>