<svg xmlns="http://www.w3.org/2000/svg" width="192" height="192" viewBox="0 0 192 192"><path d="M59.34 87.513c3.953 0 6.86 1.307 8.713 3.913q2.788 3.932 2.787 9.274v2.08H53.827a6.47 6.47 0 0 0 2.287 3.973c1.213.987 2.813 1.487 4.786 1.487 1.147 0 2.18-.154 3.094-.44a31 31 0 0 0 3.2-1.28l1.98 4.886a11.5 11.5 0 0 1-4.294 1.974c-1.68.42-3.066.62-4.133.62-4.373 0-7.813-1.2-10.333-3.58q-3.768-3.598-3.767-9.607 0-6.028 3.4-9.667c2.28-2.426 5.374-3.633 9.294-3.633zm58.9 0c3.953 0 6.853 1.307 8.713 3.913q2.78 3.932 2.78 9.274v2.08H112.72a6.42 6.42 0 0 0 2.294 3.973c1.213.987 2.806 1.487 4.786 1.487 1.14 0 2.174-.154 3.094-.44a30 30 0 0 0 3.2-1.28l1.98 4.886a11.5 11.5 0 0 1-4.294 1.974 17.8 17.8 0 0 1-4.133.62c-4.373 0-7.82-1.2-10.333-3.58q-3.771-3.598-3.773-9.607c0-4.02 1.133-7.24 3.413-9.667 2.267-2.426 5.367-3.633 9.287-3.633zm25.833.273c6.493 0 10.687 3.347 10.687 8.4v17.193h-6.847v-3.74h-.133c-1.433 2.567-4.107 4.134-7.407 4.134-5.04 0-8.433-3.154-8.433-7.574v-.053c0-4.553 3.533-7.22 9.767-7.627l6.206-.366v-1.54c0-2.234-1.446-3.607-4.12-3.607-2.553 0-4.1 1.2-4.426 2.807l-.047.2h-6.26l.027-.267c.373-4.64 4.353-7.96 10.987-7.96zM176 106.453v6.927h-6.933v-6.927zm-146.79-28.4c3.433 0 6.227.76 8.38 2.267 2.147 1.5 3.227 4.047 3.227 7.6q-.002 1.98-.914 3.56a9.2 9.2 0 0 1-2.366 2.733c1.6.834 2.906 1.96 3.933 3.374q1.532 2.13 1.533 5.4-.002 4.89-3.413 7.64c-2.267 1.833-5.3 2.753-9.08 2.753H15.997V78.053zm58.013 0q5.778.002 9.887 2.654 4.111 2.648 4.113 8.206-.002 3.27-1.693 5.64a11.4 11.4 0 0 1-4.347 3.66l8.693 15.167h-7.18l-7.493-13.5a24 24 0 0 1-2.447.1h-3.9v13.4h-6.713V78.053zM165.65 78v35.38h-7.173V78zm-17.733 24.407-5.18.327c-2.647.166-4.033 1.28-4.033 3.066v.047c0 1.847 1.526 2.947 3.893 2.947 3.067 0 5.313-1.96 5.313-4.587zM30.467 97.9h-7.753v9.927h7.28c1.8 0 3.253-.42 4.346-1.253a4.15 4.15 0 0 0 1.64-3.534c0-1.666-.506-2.933-1.506-3.813-1.007-.88-2.347-1.327-4.007-1.327m28.72-4.626A5 5 0 0 0 55.7 94.54c-.933.854-1.546 2.1-1.82 3.72h10.56c-.346-1.686-.973-2.946-1.873-3.76a4.87 4.87 0 0 0-3.38-1.226m58.893 0a5 5 0 0 0-3.487 1.266c-.933.854-1.54 2.1-1.82 3.72h10.567c-.353-1.686-.973-2.946-1.873-3.76a4.87 4.87 0 0 0-3.387-1.226m-31.06-9.607h-4.16v10.8h4.267c2.006 0 3.673-.4 4.993-1.213s1.973-2.16 1.973-4.027q.002-2.97-1.866-4.26-1.879-1.3-5.207-1.3m-58.793 0h-5.513v8.773h4.993c1.873 0 3.333-.353 4.4-1.067 1.053-.7 1.587-1.82 1.587-3.34q0-2.501-1.46-3.433c-.974-.62-2.307-.933-4.007-.933"/></svg>