<svg width="192" height="192" fill="none" xmlns="http://www.w3.org/2000/svg"><path d="M95 128c5.57 0 10.911-2.212 14.849-6.151a20.995 20.995 0 0 0 0-29.698A20.998 20.998 0 0 0 95 86" stroke="#000" stroke-width="12" stroke-linecap="round" stroke-linejoin="round"/><path d="M109.849 92.15s37.063 39.064 40 42.001A20.998 20.998 0 0 1 135 170m-40-42H36l38 42h61" stroke="#000" stroke-width="12" stroke-linecap="round" stroke-linejoin="round"/><path d="M95 86H61.333L36 58h59a20.998 20.998 0 0 0 21-21c0-5.57-2.062-11.062-6-15 0 0 36.912 39.214 39.849 42.151a20.997 20.997 0 0 1 4.552 22.886A21 21 0 0 1 135 100h-18" stroke="#000" stroke-width="12" stroke-linecap="round" stroke-linejoin="round"/></svg>