<svg xmlns="http://www.w3.org/2000/svg" width="192" height="192" viewBox="0 0 192 192"><path d="M96 16c-44.107 0-80 35.885-80 80s35.885 80 80 80 80-35.885 80-80-35.885-80-80-80m0 152.883c-40.178 0-72.88-32.693-72.88-72.88S55.822 23.133 96 23.133s72.88 32.692 72.88 72.87-32.702 72.89-72.88 72.89zm35.573-98.693c-.818-8.338-7.022-14.835-14.542-14.835s-13.725 6.497-14.543 14.835h-4.426v7.12h4.356v30.845L85.953 91.097a15.12 15.12 0 0 0-7.324-28.32c-8.329 0-15.11 6.774-15.11 15.11 0 6.188 3.742 11.511 9.085 13.85l-19.111 19.11 5.03 5.04 21.095-21.092 10.07 10.435-20.914 19.627 4.879 5.2 20.978-19.698 7.777 8.053v14.676h7.12V77.31h15.005v55.778h7.12V77.31h4.339v-7.12zm-52.942-.293a8 8 0 0 1 0 15.973 8 8 0 0 1 0-15.973m38.4-7.414c3.644 0 6.684 3.316 7.377 7.707h-14.755c.685-4.39 3.733-7.707 7.378-7.707M96 34.003c-34.195 0-62.01 27.813-62.01 62s27.824 62.01 62.01 62.01c34.187 0 62-27.823 62-62.01s-27.805-62-62-62m0 116.894c-30.258 0-54.88-24.623-54.88-54.889 0-30.268 24.623-54.88 54.88-54.88s54.88 24.623 54.88 54.88c0 30.256-24.622 54.889-54.88 54.889"/></svg>