<svg xmlns="http://www.w3.org/2000/svg" width="192" height="192" viewBox="0 0 192 192"><path d="M96 19c-42.453 0-77 34.539-77 77s34.539 77 77 77 77-34.539 77-77-34.539-77-77-77m0 147.15c-38.671 0-70.147-31.467-70.147-70.147S57.329 25.865 96 25.865s70.147 31.467 70.147 70.138S134.671 166.159 96 166.159zm34.239-94.992c-.787-8.025-6.759-14.279-13.997-14.279s-13.21 6.254-13.997 14.279h-4.26v6.853h4.192v29.688L86.33 91.281a14.553 14.553 0 0 0-7.05-27.258c-8.016 0-14.543 6.52-14.543 14.544 0 5.955 3.602 11.079 8.744 13.33l-18.394 18.394 4.842 4.851L80.232 94.84l9.693 10.044-20.13 18.891 4.696 5.005 20.191-18.959 7.486 7.751v14.125h6.853V78.011h14.442v53.686h6.853V78.011h4.176v-6.853zm-50.957-.282a7.7 7.7 0 0 1 0 15.374 7.7 7.7 0 0 1 0-15.374m36.96-7.136c3.508 0 6.434 3.192 7.101 7.418h-14.202c.659-4.226 3.593-7.418 7.101-7.418M96 36.328c-32.913 0-59.684 26.77-59.684 59.675S63.096 155.687 96 155.687c32.905 0 59.675-26.779 59.675-59.684S128.913 36.328 96 36.328m0 112.51c-29.123 0-52.822-23.699-52.822-52.83 0-29.133 23.7-52.823 52.822-52.823s52.822 23.7 52.822 52.822S125.123 148.838 96 148.838"/></svg>