<svg xmlns="http://www.w3.org/2000/svg" width="192" height="192" viewBox="0 0 192 192"><path d="M53.775 16c-9.632 7.488-16.224 17.312-19.28 29.056l32.16.04s-2.264 3.448-3.008 7.728-.768 13.52.08 17.504c.84 3.976 2.928 6.08 2.928 6.08H34.687c2.4 8.72 6.752 16.688 12.576 23.464l-13.336-.016c-13.48-.016-18.016 6.088-10.056 13.568l60.679 57.063c7.952 7.48 20.664 7.328 28.24-.328l55.68-56.224c7.576-7.656 2.744-13.952-10.744-13.952h-9.792a60.8 60.8 0 0 0 12.648-23.512c-9.72.056-18.8-.024-29.272-.032-1.176-.208-2.84-.856-3.048-3.184.008-7.792-.032-17.456.016-25.248a3.6 3.6 0 0 1 3.216-3.04c3.144.016 23.256-.08 28.936-.096-3.456-11.544-10.592-21.456-20.064-28.84-30.032 0-55.704-.032-86.59-.032m31.751 25.424c10.592 0 21.104.096 32.416.016 1.48.072 3.904 1.232 3.92 3.48l-.08 31.616c0 2.4-2.232 3.608-3.84 3.6H85.527c-6.536.056-11.856-5.216-11.856-14.352V55.047c.304-6.328 6.12-13.616 11.856-13.624m4.384 9.84c-1.36 0-3.12 1.264-3.12 3.28.016 4.52.016 7.56 0 12.256 0 2.528 1.704 3.792 3.12 3.792h20.576s2.496.032 2.496-2.368v-4.04l-7.048-.008h-6.36c-1.224.04-2.992-.68-2.984-3.112-.008-1.624.432-2.8 1.568-3.432 1.816-.48 3.76-.192 5.64-.288 2.952.024 7.808.04 9.184.048v-3.632c0-2.512-1.792-2.448-3.12-2.456-6.608-.008-13.424-.048-19.952-.04m50.56 5.464a4.4 3.968 0 0 0-4.392 3.968 4.4 3.968 0 0 0 4.4 3.96 4.4 3.968 0 0 0 4.392-3.96 4.4 3.968 0 0 0-4.4-3.968m15.088 0a4.4 3.968 0 0 0-4.392 3.968 4.4 3.968 0 0 0 4.4 3.96 4.4 3.968 0 0 0 4.384-3.96 4.4 3.968 0 0 0-4.392-3.968"/></svg>