<svg width="192" height="192" fill="none" xmlns="http://www.w3.org/2000/svg"><path d="M169.955 93.418a74.001 74.001 0 1 0-7.904 35.947" stroke="#000" stroke-width="12" stroke-linecap="round" stroke-linejoin="round"/><path d="M108 60a17.998 17.998 0 0 1 18 18 18.01 18.01 0 0 1-5.272 12.728A18.004 18.004 0 0 1 108 96" stroke="#000" stroke-width="12" stroke-linecap="round" stroke-linejoin="round"/><path d="M108 96a17.998 17.998 0 0 1 18 18 18.01 18.01 0 0 1-5.272 12.728A18.01 18.01 0 0 1 108 132M70 96h38" stroke="#000" stroke-width="12" stroke-linecap="round" stroke-linejoin="round"/><path d="M108 132H76a6 6 0 0 1-6-6V66a6 6 0 0 1 6-6h32" stroke="#000" stroke-width="12" stroke-linecap="round" stroke-linejoin="round"/></svg>