<svg width="192" height="192" fill="none" xmlns="http://www.w3.org/2000/svg"><path d="M107 22H47a6 6 0 0 0-6 6v136a6 6 0 0 0 6 6h65" stroke="#000" stroke-width="12" stroke-linecap="round" stroke-linejoin="round"/><path d="M98 55H87a6 6 0 0 0-6 6v10a6 6 0 0 0 6 6h11m0 39H87a6 6 0 0 0-6 6v10a6 6 0 0 0 6 6h11m9-116a41.998 41.998 0 0 1 42 42 41.998 41.998 0 0 1-13.844 31.165A41 41 0 0 1 112 170" stroke="#000" stroke-width="12" stroke-linecap="round" stroke-linejoin="round"/><path d="M98 77a11 11 0 0 0 0-22m0 83a11 11 0 0 0 0-22" stroke="#000" stroke-width="12" stroke-linecap="round" stroke-linejoin="round"/></svg>