<svg width="192" height="192" fill="none" xmlns="http://www.w3.org/2000/svg"><ellipse cx="46" cy="109" rx="24" ry="26" stroke="#000" stroke-width="12" stroke-linecap="round" stroke-linejoin="round"/><path d="M136 114c0 5.57-2.002 10.911-5.565 14.849C126.872 132.788 122.039 135 117 135s-9.872-2.212-13.435-6.151C100.002 124.911 98 119.57 98 114m38 0c0 5.57 2.002 10.911 5.565 14.849C145.128 132.788 149.961 135 155 135s9.872-2.212 13.435-6.151A20.506 20.506 0 0 0 170 126.89M98 100c0 4.596-1.345 9.148-3.958 13.394-2.614 4.246-6.444 8.105-11.272 11.355-4.83 3.25-10.561 5.828-16.87 7.587C59.59 134.095 52.829 135 46 135M22 57v52m76-30v35m38-57v57" stroke="#000" stroke-width="12" stroke-linecap="round" stroke-linejoin="round"/><circle cx="98" cy="57" r="3" stroke="#000" stroke-width="6" stroke-linecap="round" stroke-linejoin="round"/><path d="M121 79h42" stroke="#000" stroke-width="12" stroke-linecap="round" stroke-linejoin="round"/></svg>