<svg xmlns="http://www.w3.org/2000/svg" width="192" height="192" viewBox="0 0 192 192"><path d="M21.952 150.36a40 40 0 0 1-4.512-1.704c-1.808-.88-1.84-.92-.504-.68 3 .52 9.312.296 11.752-.416 4.192-1.232 6.528-4.96 8.496-13.6 2.832-12.376 4.496-16.432 8.384-20.416 3.12-3.184 5.536-4.248 9.68-4.248 2.913 0 4.209.336 13.112 3.392 9.08 3.12 10.16 3.392 13.32 3.408 4.145.016 7.169-1.152 9.393-3.6 1.568-1.744 1.904-2.56 4.592-11.112.984-3.136 2.8-7.712 4.016-10.152 1.744-3.472 2.16-4.688 1.92-5.584-1.68-6.272.016-15.84 3.96-22.376 4-6.632 8.648-10.704 16.944-14.824 10.24-5.104 20.032-7.488 30.721-7.488 7.248 0 10.584.6 15.032 2.68 3.152 1.472 6.12 4.496 7.024 7.16 2.744 8.056-2.52 21.616-13.52 34.817-7.792 9.352-17.2 15.904-25.937 18.056-6.048 1.496-13.464.752-19.392-1.928a24 24 0 0 0-3.168-1.304c-.672 0-2.56 3.48-3.672 6.72-3.744 10.992-9.56 18.608-16.76 21.936-2.12.976-3.288 1.208-6.856 1.344-7.28.272-13.272-1.68-21.216-6.92-7.296-4.816-8.944-5.32-12.32-3.792-3.36 1.52-5.808 5.36-8.632 13.488q-4.593 13.208-11.064 16.52c-2.897 1.472-7.16 1.72-10.8.624z"/></svg>