<svg xmlns="http://www.w3.org/2000/svg" width="192" height="192" viewBox="0 0 192 192"><path d="M39.241 53.912c-9.328-.016-15.197 3.611-19.245 11.875-2.92 5.984-3.636 9.16-3.932 17.657-.28 8.112.327 12.595 2.695 19.675 5.696 17.032 19.194 31.59 31.954 34.454 6.816 1.528 11.569-.16 21.29-7.552 19.94-15.165 28.054-15.166 47.996 0 9.72 7.392 14.473 9.08 21.29 7.552 12.76-2.864 26.258-17.422 31.954-34.454 2.368-7.08 2.975-11.563 2.695-19.675-.296-8.496-1.012-11.673-3.932-17.657-4.048-8.264-9.917-11.891-19.245-11.875-7.208.008-9.358.79-29.311 10.638-7.832 3.872-15.496 7.462-17.032 7.982-4.062 1.37-16.77 1.37-20.834 0-1.536-.52-9.2-4.11-17.032-7.982-19.953-9.848-22.102-10.63-29.311-10.638m7.188 32.852c5.736.064 13.664 2.88 21.68 7.696 3.464 2.08 6.289 3.93 6.289 4.114 0 .56-6.166 4.545-8.855 5.73v-.014c-3.576 1.568-9.79 1.801-13.646.521-6.304-2.088-10.545-6.001-15.313-14.154-.229-.41.722-1.174 2.84-2.278 2.815-1.464 3.644-1.655 7.004-1.615zm99.143 0c3.36-.04 4.189.15 7.005 1.615 2.118 1.104 3.068 1.868 2.839 2.278-4.768 8.152-9.009 12.066-15.313 14.154-3.856 1.28-10.07 1.047-13.646-.52v.012c-2.688-1.184-8.855-5.169-8.855-5.729 0-.184 2.825-2.034 6.29-4.115 8.016-4.816 15.944-7.631 21.68-7.695"/></svg>