<svg xmlns="http://www.w3.org/2000/svg" width="192" height="192" viewBox="0 0 192 192"><path d="M160.81 17.974a6.43 6.43 0 0 0-4.693-1.973H35.877a6.4 6.4 0 0 0-4.687 1.973 6.4 6.4 0 0 0-1.98 4.68v79.999q-.002 8.947 3.487 17.766c2.326 5.867 5.22 11.066 8.666 15.633 3.447 4.533 7.547 8.973 12.32 13.286a145 145 0 0 0 13.2 10.726 169 169 0 0 0 12.62 8.08c4.38 2.54 7.5 4.253 9.334 5.146 1.84.894 3.333 1.607 4.426 2.074a6.1 6.1 0 0 0 5.427 0c1.12-.487 2.593-1.18 4.446-2.074 1.834-.893 4.954-2.626 9.34-5.146a169 169 0 0 0 12.626-8.08 146 146 0 0 0 13.213-10.733c4.773-4.313 8.867-8.733 12.313-13.286 3.447-4.553 6.327-9.753 8.667-15.633 2.333-5.86 3.493-11.78 3.493-17.766V22.674a6.33 6.33 0 0 0-1.98-4.7zm-15.5 85.432c0 28.959-49.312 53.912-49.312 53.912V33.138h49.312v70.265z"/></svg>