<svg width="192" height="192" fill="none" xmlns="http://www.w3.org/2000/svg"><path d="M78.641 117.491h-20.54c-2.68 0-5.318-.671-7.674-1.953a16.115 16.115 0 0 1-5.82-5.385 16.183 16.183 0 0 1-1.23-15.346L71.371 31.32m50.071 40.77h19.542a12.983 12.983 0 0 1 7.068 2.09 13.03 13.03 0 0 1 4.802 5.606 13.084 13.084 0 0 1-2.131 14.013l-48.345 54.683M84.699 22.004h41.231c1.891 0 3.752.471 5.415 1.373a11.39 11.39 0 0 1 4.11 3.792 11.44 11.44 0 0 1 .897 10.823l-14.906 34.095H95.669a27.465 27.465 0 0 1-13.096-3.329 27.56 27.56 0 0 1-9.94-9.177A27.682 27.682 0 0 1 70.46 33.4l1.269-2.901a14.208 14.208 0 0 1 5.223-6.182A14.146 14.146 0 0 1 84.695 22m-6.054 95.482h18.99c2.808.001 5.555.818 7.909 2.353a14.552 14.552 0 0 1 5.354 6.295 14.594 14.594 0 0 1-2.495 15.668l-22.55 25.031a9.576 9.576 0 0 1-11.552 2.085 9.618 9.618 0 0 1-4.283-4.497 9.657 9.657 0 0 1-.65-6.185l9.277-40.75Z" stroke="#000" stroke-width="12" stroke-linecap="round" stroke-linejoin="round"/></svg>