<svg xmlns="http://www.w3.org/2000/svg" width="192" height="192" viewBox="0 0 192 192"><path d="M96 19c-42.492 0-77 34.508-77 77s34.508 77 77 77 77-34.508 77-77-34.508-77-77-77m0 6.083c39.205 0 70.918 31.713 70.918 70.918 0 39.204-31.713 70.918-70.918 70.918S25.082 135.205 25.082 96 56.795 25.082 96 25.082zm0 46.237c-4.193 0-6.792.607-10.711 2.49a24.3 24.3 0 0 0-11.446 11.178c-1.78 3.534-2.49 6.717-2.49 10.995 0 7.53 3.01 14.093 8.64 18.8l1.988 1.654v3.108a23 23 0 0 0 .418 4.628 7.8 7.8 0 0 0 4.461 4.713c1.925.684 15.33.8 17.863.167 3.543-.89 4.981-3.262 5.28-8.79l.218-3.96 1.554-1.237c3.55-2.806 6.938-8.118 8.204-12.85.411-1.557.669-3.957.669-6.233 0-7.016-2.186-12.227-7.302-17.378-2.533-2.55-3.756-3.445-6.434-4.712-4.124-1.968-6.685-2.573-10.912-2.573m0 5.965a19 19 0 0 1 10.36 3.058 17.8 17.8 0 0 1 7.57 10.143 18.91 18.91 0 0 1-8.372 21.673l-1.771 1.036v4.177c0 3.868-.056 4.243-.886 5.03-.847.804-1.279.852-6.951.852-5.81 0-6.072-.047-6.885-.902-.77-.813-.852-1.333-.852-5.03v-4.127l-1.772-1.036c-10.234-5.99-12.256-20.32-4.127-29.176a22.3 22.3 0 0 1 3.342-2.64A19 19 0 0 1 96 77.285m-10.21 56.096.167 3.075c.214 3.5.866 4.868 2.774 5.698.864.385 3.016.543 7.269.551 4.988.017 6.282-.104 7.402-.668 1.891-.942 2.724-2.781 2.724-6.033v-2.623z"/></svg>