<svg xmlns="http://www.w3.org/2000/svg" width="192" height="192" viewBox="0 0 192 192"><path d="M16 54.9v41.4h10.09v-3.9a13.04 13.04 0 0 0 10.03 4.62 13.2 13.2 0 0 0 7.3-2.08 13.56 13.56 0 0 0 4.99-5.7A18.7 18.7 0 0 0 50.18 81c-.01-3.18-.6-5.95-1.77-8.3a13.57 13.57 0 0 0-5.05-5.67A13.2 13.2 0 0 0 36.12 65a12.8 12.8 0 0 0-5.57 1.21 12.6 12.6 0 0 0-4.47 3.38V54.9zm35.56 0v41.4l10.08-.01V54.91zm58.38 0v41.4h10.08v-7.28l3.07-3.55 6.67 10.83h11.4l-11.4-17.22 11.34-13.4h-11.4l-9.68 12.09V54.9zm48.78 0v10.7h-4.03v8h4.03v13.5a10.1 10.1 0 0 0 1.25 5.06 8.8 8.8 0 0 0 3.48 3.52c1.49.82 3.18 1.24 5.07 1.24 1.31 0 2.66-.28 4.03-.81A10.4 10.4 0 0 0 176 94l-2-6.45a3.2 3.2 0 0 1-1.25.75 5 5 0 0 1-1.62.26 2.48 2.48 0 0 1-2-.92 3.6 3.6 0 0 1-.79-2.4V73.59h6.36v-8h-6.36V54.9zm-16.04.01v7.84h10.06v-7.84zm-78.18.01v7.84h10.06v-7.84zM96.33 65c-1.9 0-3.64.38-5.23 1.13a9.5 9.5 0 0 0-3.79 3.06v-3.5H77.28v30.6H87.3l.06-17.62a5.04 5.04 0 0 1 .72-2.72 4.8 4.8 0 0 1 1.95-1.9 5.36 5.36 0 0 1 2.72-.72 5.04 5.04 0 0 1 2.72.72 4.8 4.8 0 0 1 1.83 2.05 6.4 6.4 0 0 1 .67 2.97V96.3h9.62V76.83c0-2.3-.47-4.35-1.42-6.16a10.6 10.6 0 0 0-4.06-4.17c-1.72-1-3.65-1.5-5.8-1.5zm46.43.6v30.6h10.03V65.6zm-78.26.1v30.6h10.03V65.7zm-31.4 7.62a7.44 7.44 0 0 1 3.83.99 6.96 6.96 0 0 1 2.64 2.74c.64 1.18.96 2.5.96 3.93q0 2.22-.96 3.96a6.96 6.96 0 0 1-2.64 2.75 7.44 7.44 0 0 1-3.83.98 6.8 6.8 0 0 1-3.62-.98 6.8 6.8 0 0 1-2.5-2.72c-.6-1.18-.9-2.5-.9-3.99a8.8 8.8 0 0 1 .9-3.98 6.8 6.8 0 0 1 6.12-3.68m26.33 30.98a8.41 8.41 0 0 0-8.43 8.43v15.94a8.41 8.41 0 0 0 8.43 8.43h73.14a8.41 8.41 0 0 0 8.43-8.43v-15.94a8.41 8.41 0 0 0-8.43-8.43zm7.82 6.4h2.55v17.74h9.26v2.26H67.25zm15.55 0h2.55v20H82.8zm6.28 0h15.1v2.25h-6.26v17.75h-2.55v-17.75h-6.3zm30.07 0a5.53 5.53 0 0 0 .97 6.35c.7.7 1.55 1.18 2.3 1.85.28.29.6.57.85.9 0 0 .62.9.86 1.4l.14.3a6.58 6.58 0 0 1-1.7 7.33c-1.82 1.65-4.36 2.08-6.74 1.78a7.78 7.78 0 0 1-5.52-3.58 7.4 7.4 0 0 1-.78-1.92c-.2-.56-.26-1.11-.33-1.67a7.92 7.92 0 0 1 2.73-6.48 5.56 5.56 0 0 0 .6 5.7.7.7 0 0 0 .16.18c.21.18.48.24.74.13a.61.61 0 0 0 .39-.55.9.9 0 0 0-.1-.37 8.77 8.77 0 0 1 2.66-9.89 7.2 7.2 0 0 1 2.77-1.46m-1.61 8.82c-.3.77-.33 1.47-.2 2.29.15.85.5 1.59.32 2.47a3.09 3.09 0 0 1-2.35 2.28c.74.74 1.98 1.36 3.23.91.4-.1.9-.4 1.22-.66a3.4 3.4 0 0 0 1.03-2.53c0-.16-.02-.32-.06-.47-.3-1.52-1.64-2-2.5-3.11a6.7 6.7 0 0 1-.7-1.18z"/></svg>