<svg xmlns="http://www.w3.org/2000/svg" width="192" height="192" viewBox="0 0 192 192"><path d="M142.68 74.951h10.064v7.84H142.68zm31.32 32.64 2 6.448a10.4 10.4 0 0 1-3.448 2.112q-2.064.8-4.032.808-2.84 0-5.072-1.24a8.8 8.8 0 0 1-3.48-3.52 10.1 10.1 0 0 1-1.248-5.064V93.639h-4.032v-8h4.032V74.943h9.624v10.68h6.352v8.008h-6.352v11.648a3.6 3.6 0 0 0 .784 2.4 2.48 2.48 0 0 0 2 .92q.872 0 1.624-.256a3.2 3.2 0 0 0 1.248-.752m-31.24 8.64v-30.6h10.032v30.608zM64.496 74.959H74.56v7.84H64.496zm65.272 24.16 11.392 17.216h-11.4l-6.672-10.832-3.072 3.552v7.28h-10.08V74.943h10.08v22.864l9.68-12.08h11.4zm-33.44-14.08q3.216 0 5.792 1.504 2.576 1.472 4.064 4.16 1.416 2.72 1.416 6.16v19.472h-9.624V99.111a6.4 6.4 0 0 0-.664-2.976 4.8 4.8 0 0 0-1.832-2.048 5.04 5.04 0 0 0-2.72-.72 5.36 5.36 0 0 0-2.72.72 4.8 4.8 0 0 0-1.952 1.904 5.04 5.04 0 0 0-.72 2.72l-.056 17.624H77.28v-30.6h10.032v3.496q1.416-1.96 3.792-3.064 2.376-1.12 5.224-1.12zm-31.824 31.296v-30.6h10.032v30.6zm-12.944 0V74.943h10.08v41.384zM36.12 85.039q4.056 0 7.24 2.024 3.224 1.992 5.048 5.664 1.76 3.528 1.768 8.296 0 4.624-1.768 8.264-1.76 3.64-4.984 5.688a13.2 13.2 0 0 1-7.304 2.08 13.04 13.04 0 0 1-10.032-4.616v3.896H16V74.943h10.08v14.68q1.856-2.192 4.472-3.376a12.8 12.8 0 0 1 5.568-1.216zm-3.016 23.672a7.44 7.44 0 0 0 3.824-.984 6.96 6.96 0 0 0 2.64-2.744q.96-1.744.96-3.96 0-2.16-.96-3.936a6.96 6.96 0 0 0-2.64-2.744 7.44 7.44 0 0 0-3.824-.984 6.8 6.8 0 0 0-6.12 3.68 8.8 8.8 0 0 0-.896 3.984q0 2.216.896 3.984a6.8 6.8 0 0 0 2.496 2.72 6.8 6.8 0 0 0 3.624.984"/></svg>