<svg xmlns="http://www.w3.org/2000/svg" width="192" height="192" viewBox="0 0 192 192"><path d="M74.015 23.006c-5.698 2.226-11.332 4.006-16.758 4.9C44.521 30.004 30.899 18.394 24.236 16c-4.5 28.433-5.977 43.132-4.612 56.259 1.62 15.665 6.144 28.888 12.138 40.658s18.633 29.247 27.635 38.919A263 263 0 0 0 77.695 169.6c9.895 8.762 27.124 8.419 37.01-.36a215.5 215.5 0 0 0 21.196-21.417c8.602-10.031 20.979-27.691 26.573-39.661a110.9 110.9 0 0 0 9.76-33.388c1.659-13.095-.208-34.617-2.594-47.61-1.133-6.152-5.267-8.506-8.914-5.186-28.505 5.043-35.296 3.607-42.996.957-12.489-4.301-31.409-4.732-43.723.08zm44.193 17.58c6.065 1.891 11.14 3.009 15.561 3.591 13.047 1.732 25.265 9.544 24.515 22.735-.638 11.124-12.425 13.486-23.046 5.626a2578 2578 0 0 1-29.358-22.041c-10.51-8.02-14.907-16.423-9.96-18.61zM55.341 55.588l64.878 42.326a2.25 2.25 0 0 1-2.075 3.966L55.948 76.288c-12.217-5.035-22.464-19.894-20.756-32.997.056-.43 9.082 5.075 20.158 12.297zm-3.016 34.737c15.377 13.215 31.274 26.414 46.404 39.405 10.03 8.603 10.805 23.796.335 31.856-1.955 1.5-11.54-4.5-20.987-13.742C61.566 131.7 48.91 116.722 41.01 97.506c-5.028-12.209 1.293-15.8 11.316-7.182"/></svg>