<svg xmlns="http://www.w3.org/2000/svg" width="192" height="192" viewBox="0 0 192 192"><path d="m174.04 62.301-28.876-28.876c-4.24-4.24-11.502-1.28-11.502 4.711V79.73l-26.188-26.18a6.711 6.711 0 1 0-9.487 9.487l32.915 32.915-32.915 32.907a6.711 6.711 0 1 0 9.487 9.495l26.188-26.18v41.594c0 5.983 7.263 9.014 11.502 4.775l28.876-28.94a6.72 6.72 0 0 0 0-9.487l-24.157-24.165 24.157-24.093a6.8 6.8 0 0 0 0-9.558m-26.924-7.88 12.654 12.655-12.654 12.654zm12.654 70.407-12.654 12.646v-25.3zM94.051 62.324 65.175 33.448c-4.24-4.24-11.502-1.28-11.502 4.719v41.594l-26.18-26.196a6.711 6.711 0 1 0-9.495 9.487l32.915 32.915-32.915 32.915a6.711 6.711 0 1 0 9.495 9.486l26.18-26.18v41.594c0 5.992 7.263 9.015 11.502 4.776l28.876-28.94a6.72 6.72 0 0 0 0-9.487L69.894 95.974l24.157-24.101a6.8 6.8 0 0 0 0-9.559m-26.924-7.87 12.654 12.653L67.127 79.76zm12.654 70.39L67.127 137.51v-25.308z" opacity=".5"/><path d="m134.04 62.325-28.876-28.876c-4.24-4.24-11.502-1.28-11.502 4.711v41.594l-26.188-26.18a6.711 6.711 0 1 0-9.487 9.487l32.915 32.915-32.915 32.915a6.711 6.711 0 1 0 9.487 9.487l26.188-26.18v41.594c0 5.99 7.263 9.014 11.502 4.775l28.876-28.94a6.72 6.72 0 0 0 0-9.487l-24.157-24.165 24.157-24.093a6.8 6.8 0 0 0 0-9.558m-26.924-7.88L119.77 67.1l-12.654 12.654zm12.654 70.407-12.654 12.654v-25.308z"/></svg>