<svg xmlns="http://www.w3.org/2000/svg" width="192" height="192" viewBox="0 0 192 192"><path d="M117.3 66.46c3.248-1.08 6.976-2.04 10.224-3.008-9.384-3.968-21.168-8.176-31.76-10.824-1.68.48-6.736 1.808-10.224 2.88 3.608 1.088 15.52 3.856 31.76 10.96zm-59.304 45.232c3.84 2.288 7.936 5.416 11.904 8.064 26.344-20.456 52.336-36.208 80.84-45.12-3.968-2.04-7.456-3.84-11.904-6.008-17.088 4.328-46.32 16-80.84 43.064M52.94 68.636c-14.08 6.48-28.88 15.392-36.936 20.56 2.888 1.328 5.776 2.408 9.744 4.336C43.556 81.5 57.508 74.156 63.044 71.756c-3.968-1.44-7.696-2.4-10.104-3.128zm53.776 1.56c-4.576-2.52-20.456-8.416-31.4-10.944a291 291 0 0 0-10.944 4.328c3.968 1.088 18.76 5.056 31.392 11.432 3.248-1.568 7.824-3.488 10.952-4.816M84.22 80.548c-3.728-1.808-7.824-3.496-10.952-4.936-9.504 4.696-21.888 11.792-37.528 22.976 3.36 1.808 6.976 3.968 10.824 6.136 12.032-8.904 24.184-17.32 37.656-24.176m11.544 58.824c25.264-21.656 60.752-42.704 80.24-50.288-3.008-1.92-7.696-4.688-12.992-7.696-25.144 8.296-54.496 26.704-80.72 47.52 4.456 3.36 9.144 6.856 13.472 10.464"/></svg>