<svg width="192" height="192" fill="none" xmlns="http://www.w3.org/2000/svg"><path d="M61.285 24.131A27.999 27.999 0 0 1 72 22h14a6 6 0 0 1 6 6v44a6 6 0 0 1-6 6H72a27.999 27.999 0 0 1-19.799-47.799 28 28 0 0 1 9.084-6.07Zm106.584 37.154A28.002 28.002 0 0 1 170 72v14a6 6 0 0 1-6 6h-44a6 6 0 0 1-6-6V72a28.002 28.002 0 0 1 28-28 27.998 27.998 0 0 1 25.869 17.285Zm-37.154 54.846A28.001 28.001 0 0 0 120 114h-14a6 6 0 0 0-6 6v44a6 6 0 0 0 6 6h14a28.001 28.001 0 0 0 10.715-53.869Zm-54.846 14.584A27.998 27.998 0 0 0 78 120v-14a6 6 0 0 0-6-6H28a6 6 0 0 0-6 6v14a27.998 27.998 0 0 0 28 28 28.002 28.002 0 0 0 25.869-17.285Z" stroke="#000" stroke-width="12" stroke-linecap="round" stroke-linejoin="round"/></svg>