<svg xmlns="http://www.w3.org/2000/svg" width="192" height="192" viewBox="0 0 192 192"><path d="M137.43 163.98a.8.8 0 0 0-.528.096c-6.352 4.104-11.736 4.224-15.575 3.368a15.6 15.6 0 0 1-6.064-2.688.696.696 0 0 0-.984.104.696.696 0 0 0 .096.976s2.504 2.048 6.648 2.976 9.992.728 16.64-3.56a.696.696 0 0 0 .207-.968.8.8 0 0 0-.44-.304m-60.958.624a.8.8 0 0 0-.52.144c-9.856 7.72-22.71-.048-22.71-.048a.696.696 0 0 0-.96.24.696.696 0 0 0 .24.96s13.615 8.304 24.294-.048a.696.696 0 0 0 .12-.984.8.8 0 0 0-.464-.264M95.72 16.014h-.032c-11.792.224-24.287 2.2-34.519 9.064-9.408 6.28-15.87 16.079-19.559 26.495-5.256 14.839-4.8 30.527-4.96 45.662-.104 7.735-.48 15.175-1.896 22.679-1.4 7.455-3.327 14.935-4.463 22.663-.768 5.28-1.2 11.016.8 16.359 2.024 5.44 7.007 10.184 13.104 10.16 5.295-.008 10.16-3.048 14.255-4.28 4-1.208 8.255-1.808 11.992-.712 5.951 1.752 10.264 7.68 17.119 10.472a19.35 19.35 0 0 0 11.872.88c5.303-1.288 9.495-4.504 13.6-7.2 4.111-2.704 8.047-4.904 12.928-4.816 3.928.072 7.895 1.712 12.08 3.12 4.24 1.416 9.103 2.56 13.744.96 6.255-2.16 9.783-8.6 10.44-14.839.664-6.368-1.44-11.824-2.44-17.335-1-5.4-2.208-10.784-3.016-16.11-2.688-17.664.136-36.136-3.28-54.215-2.768-14.639-9.584-29.895-22.095-39.087-10.296-7.56-22.823-10.104-35.16-9.92h.025zm.032 3.104h.536c11.872-.184 23.68 2.272 33.271 9.32 11.624 8.527 18.215 23.055 20.88 37.159 3.279 17.383.48 35.815 3.263 54.11.832 5.463 2.048 10.88 3.04 16.19 1.048 5.88 2.976 10.977 2.4 16.456-.56 5.303-3.608 10.592-8.368 12.224-3.552 1.224-7.72.376-11.736-.96-4.04-1.36-8.296-3.2-13.016-3.28-5.84-.104-10.464 2.544-14.687 5.32-4.224 2.775-8.128 5.687-12.632 6.775a16.3 16.3 0 0 1-9.967-.728c-5.744-2.344-10.152-8.447-17.415-10.576-4.616-1.36-9.456-.584-13.76.72-4.695 1.408-9.36 4.136-13.367 4.152-4.424.008-8.56-3.744-10.192-8.144-1.696-4.52-1.384-9.711-.64-14.83 1.104-7.504 3.023-14.944 4.447-22.536 1.464-7.775 1.84-15.407 1.952-23.215.16-15.223-.232-30.527 4.784-44.67 3.504-9.911 9.64-19.135 18.351-24.95 9.488-6.36 21.375-8.32 32.855-8.536m8.472 70.66a.8.8 0 0 0-.632.185c-3.968 3.216-8.04 3.192-11.232 2.384s-5.4-2.408-5.4-2.408a.856.856 0 0 0-1.192.184.856.856 0 0 0 .184 1.192s2.448 1.792 5.984 2.688 8.311.872 12.736-2.72a.856.856 0 0 0 .12-1.2.8.8 0 0 0-.568-.304m10.208-23.095a3.39 3.39 0 0 0 4.8-1.192 3.33 3.33 0 0 0-1.6-4.624c2.232-2.216 6.903-3.304 10.8-.96a9.328 9.328 0 0 1-7.896 16.815c-4.64-1.656-6.72-6.24-6.104-10.04m-56.382 0a3.39 3.39 0 0 0 4.8-1.192 3.33 3.33 0 0 0-1.6-4.624c2.24-2.216 6.904-3.304 10.8-.96a9.336 9.336 0 0 1-7.896 16.815 9.28 9.28 0 0 1-6.103-10.04m64.454 22.16c-1.48-1.473-2.16-3.2-1.52-3.84s2.351.055 3.831 1.52c1.472 1.48 2.16 3.2 1.52 3.84-.64.663-2.36-.017-3.84-1.52m13.377-1.353c-1.472-1.472-2.16-3.2-1.52-3.832.64-.64 2.36.048 3.84 1.52 1.471 1.472 2.151 3.2 1.52 3.84s-2.36-.056-3.84-1.52m-6.512.664c-1.472-1.48-2.16-3.2-1.52-3.84s2.36.048 3.832 1.52c1.472 1.48 2.16 3.2 1.52 3.84-.64.664-2.36-.032-3.84-1.52m-61.118.68c1.472-1.472 2.16-3.2 1.52-3.84s-2.36.056-3.84 1.52c-1.472 1.48-2.16 3.2-1.52 3.84.64.664 2.36-.016 3.84-1.52m-13.36-1.352c1.472-1.472 2.16-3.2 1.52-3.832-.64-.64-2.36.048-3.84 1.52-1.472 1.472-2.152 3.2-1.52 3.84.624.632 2.344-.056 3.84-1.52m6.496.664c1.48-1.48 2.16-3.2 1.52-3.84s-2.352.048-3.832 1.52c-1.472 1.48-2.16 3.2-1.52 3.84.64.664 2.36-.032 3.84-1.52"/></svg>