<svg xmlns="http://www.w3.org/2000/svg" width="192" height="192" viewBox="0 0 192 192"><path d="M155.01 135.51c-9.904 0-17.936 8.057-17.936 18.005s8.032 18.016 17.936 18.016c9.92 0 17.987-8.07 17.987-18.016 0-9.948-8.067-18.005-17.987-18.005m-82.167 8.984-25.117-.016v-30.04c0-6.417 2.495-9.753 7.986-10.509h17.131c12.24 0 20.127 7.71 20.144 20.171-.017 12.801-7.717 20.394-20.144 20.394M47.726 63.489v-7.915c0-6.917 2.923-10.206 9.359-10.615h12.853c11.034 0 17.622 6.586 17.622 17.622 0 8.414-4.52 18.246-17.212 18.246H47.726zm57.206 29.976-4.546-2.557 3.975-3.396c4.608-3.95 12.337-12.865 12.337-28.275 0-23.559-18.291-38.765-46.564-38.765H34.176c-8.38.312-15.09 7.13-15.18 15.562v133.72h14.815c.036.019.045 0 .064.019l36.9-.018c31.448 0 51.753-17.112 51.753-43.621 0-14.26-6.579-26.466-17.595-32.668z"/></svg>