<svg xmlns="http://www.w3.org/2000/svg" width="192" height="192" viewBox="0 0 192 192"><path d="m67.442 20.283-15.554 7.4L19 134.744l39.963 12.218a21.3 21.3 0 0 1 20.225-14.955 21.13 21.13 0 0 1 21.141 21.158v.402a17.1 17.1 0 0 1-.727 5.732l40.639 12.423L173 64.66l-8.684-14.818-15.537 7.418-8.684-14.827-15.537 7.409-8.684-14.818-15.545 7.409-8.675-14.81-15.545 7.4zm81.868 44.112q.428-.009.873.06l.325.077a4.45 4.45 0 0 1 2.934 5.535L138.3 120.588l-4.79 16.153a16.94 16.94 0 0 1-6.152 8.744 17.1 17.1 0 0 1-10.207 3.405c-.394-.068-.667-.137-.941-.137a4.244 4.244 0 0 1-3.534-4.26 4.28 4.28 0 0 1 4.406-4.347 8.31 8.31 0 0 0 7.948-5.869l4.466-15.024-14.74-49.186a4.34 4.34 0 0 1 2.925-5.475 3.85 3.85 0 0 1 1.943-.06 4.45 4.45 0 0 1 3.465 2.926l10.943 36.712 11.07-36.703a4.28 4.28 0 0 1 4.21-3.072m-95.283.471H91.86a17.026 17.026 0 0 1 17.026 17.026v39.766c0 1.198-.48 2.276-1.343 3.14a4.45 4.45 0 0 1-3.08 1.266q-.394.017-.796-.068a4.28 4.28 0 0 1-3.533-4.261v-39.92a8.3 8.3 0 0 0-6.88-8.136 8.6 8.6 0 0 0-1.394-.137h-8.28v48.057a4.406 4.406 0 0 1-4.407 4.406q-.385.017-.795-.069a4.28 4.28 0 0 1-3.525-4.277V73.602H58.298v48.065a4.415 4.415 0 0 1-4.406 4.406c-.129-.137-.394-.137-.659-.197a4.28 4.28 0 0 1-3.533-4.278V69.212a4.28 4.28 0 0 1 4.329-4.346"/></svg>