<svg width="192" height="192" fill="none" xmlns="http://www.w3.org/2000/svg"><path d="M50 58v54c15 0 18-8 30-8s16 8 16 8 4-8 16-8 15 8 30 8V58c-15 0-18-8-30-8s-16 8-16 8-4-8-16-8-15 8-30 8Z" stroke="#000" stroke-width="12" stroke-linecap="round" stroke-linejoin="round"/><path d="M22 50c0-13.255 10.745-24 24-24h100c13.255 0 24 10.745 24 24v64c0 13.255-10.745 24-24 24H89.951a5.999 5.999 0 0 0-3.529 1.148L44 170v-27.6a4.4 4.4 0 0 0-4.4-4.4c-9.72 0-17.6-7.88-17.6-17.6V50Z" stroke="#000" stroke-width="12" stroke-linecap="round" stroke-linejoin="round"/></svg>