<svg xmlns="http://www.w3.org/2000/svg" xml:space="preserve" width="192" height="192"><path d="M96 16c-44.062 0-79.998 35.945-79.998 80 0 44.066 35.936 80 79.998 80 44.058 0 79.998-35.938 79.998-80 0-44.055-35.939-80-79.998-80m.827 34.814c34.02 0 61.76 27.483 61.76 61.186-.004 33.71-27.74 61.193-61.76 61.193-34.015 0-61.76-27.482-61.76-61.193 0-33.699 27.745-61.186 61.76-61.186m-1.361 8.626c-29.6 0-53.746 23.976-53.746 53.38 0 29.407 24.146 53.382 53.746 53.382 29.596 0 53.738-23.975 53.742-53.382 0-29.404-24.145-53.38-53.742-53.38m-2.452 15.276c8.616-.212 17.845 2.142 26.615 8.018-17.469-.573-28.76 9.936-29.284 22.564-.519 12.618-3.79 24.987-14.959 25.34-11.169.34-21.099-5.417-18.855-27.432 1.55-15.135 17.528-28.023 36.482-28.49zm22.854 20.294c10.98-.352 20.744 5.415 18.533 27.433s-34.445 39.279-62.029 20.46c17.167.577 28.272-9.923 28.788-22.552.509-12.621 3.725-24.993 14.708-25.341"/></svg>