<svg width="192" height="192" fill="none" xmlns="http://www.w3.org/2000/svg"><path d="M148 105V57c0-6.627-5.373-12-12-12H34c-6.627 0-12 5.373-12 12v56c0 6.627 5.373 12 12 12h94M78 73h46M66 97h58" stroke="#000" stroke-width="12" stroke-linecap="round" stroke-linejoin="round"/><path d="M148 67h10c6.627 0 12 5.373 12 12v56c0 6.627-5.373 12-12 12H56c-6.627 0-12-5.373-12-12v-10" stroke="#000" stroke-width="12" stroke-linecap="round" stroke-linejoin="round"/><path d="M45 68h10v10H45V68Z" stroke="#000" stroke-width="10" stroke-linecap="round" stroke-linejoin="round"/></svg>