<svg width="192" height="192" fill="none" xmlns="http://www.w3.org/2000/svg"><path d="M152.422 88.102a4 4 0 1 0 0-8 4 4 0 0 0 0 8Zm-14.766 20.66a4 4 0 1 0 0-8 4 4 0 0 0 0 8Zm-14.765 20.66a4 4 0 1 0 0-8 4 4 0 0 0 0 8Zm-20.66-13.766a4 4 0 1 0 0-8 4 4 0 0 0 0 8ZM81.572 101.89a4 4 0 1 0 0-8 4 4 0 0 0 0 8Zm35.424-6.893a4 4 0 1 0 0-8 4 4 0 0 0 0 8Z" stroke="#000" stroke-width="8" stroke-linecap="round" stroke-linejoin="round"/><path d="m96 40-33 75 58 35 49-70m-90 70H22" stroke="#000" stroke-width="12" stroke-linecap="round" stroke-linejoin="round"/></svg>