<svg width="192" height="192" version="1.1" viewBox="0 0 192 192" xmlns="http://www.w3.org/2000/svg"><path d="m113.63 34.515c-33.566-9.624-66.885 11.024-75.066 39.549-5.4561 19.031 1.7403 37.171 16.536 50.028l-1.9137 6.6823c-1.028 3.592 1.0528 7.3388 4.651 8.373l47.662 13.662c3.5982 1.0342 7.3512-1.0466 8.3792-4.6324l1.9199-6.6823c19.36-3.0656 35.078-14.628 40.534-33.659 8.1811-28.525-9.1348-63.69-42.701-73.32zm-29.491 37.747c2.0499-1.1333 4.6324-0.39636 5.7658 1.6536l5.3818 9.7107c1.1333 2.0499 0.39636 4.6262-1.6536 5.7658-2.0499 1.1333-4.6324 0.39635-5.7657-1.6536l-5.3818-9.7107c-1.1333-2.0499-0.39636-4.6262 1.6536-5.7658zm-21.589 41.042c-9.847-2.824-15.538-13.092-12.714-22.933 2.824-9.847 13.092-15.538 22.939-12.714 9.847 2.824 15.538 13.092 12.714 22.939-2.824 9.847-13.092 15.538-22.939 12.714zm25.484 10.485-8.4969-2.4401 12.721-12.281 4.2794 17.155-8.4969-2.4401zm15.136-37.902 9.7108-5.3818c2.0499-1.1333 4.6324-0.39636 5.7658 1.6535 1.1333 2.0499 0.39635 4.6262-1.6536 5.7658l-9.7107 5.3818c-2.0499 1.1333-4.6262 0.39636-5.7658-1.6536-1.1333-2.0499-0.39635-4.6324 1.6536-5.7658zm34.966 29.801c-2.824 9.8408-13.092 15.538-22.939 12.714-9.847-2.824-15.538-13.092-12.714-22.939 2.824-9.847 13.092-15.538 22.939-12.714 9.847 2.824 15.538 13.092 12.714 22.939zm-20.09-96.569c-42.46-12.176-86.753 12.374-98.928 54.834-12.176 42.46 12.374 86.753 54.833 98.928 42.46 12.176 86.753-12.374 98.928-54.834 12.176-42.46-12.374-86.753-54.834-98.928zm47.136 96.717c-10.956 38.205-50.814 60.302-89.019 49.346-38.205-10.956-60.302-50.808-49.346-89.019 10.956-38.205 50.814-60.302 89.019-49.346 38.211 10.956 60.302 50.808 49.346 89.019z"/></svg>
