<svg xmlns="http://www.w3.org/2000/svg" width="192" height="192" viewBox="0 0 192 192"><path d="M113.63 34.515c-33.566-9.624-66.885 11.024-75.066 39.549-5.456 19.031 1.74 37.171 16.536 50.028l-1.914 6.682c-1.028 3.592 1.053 7.34 4.651 8.373L105.5 152.81c3.599 1.034 7.352-1.046 8.38-4.632l1.92-6.682c19.36-3.066 35.077-14.628 40.533-33.66 8.182-28.524-9.134-63.69-42.7-73.32zM84.139 72.262a4.24 4.24 0 0 1 5.766 1.654l5.382 9.71a4.241 4.241 0 0 1-7.42 4.112l-5.381-9.71a4.243 4.243 0 0 1 1.653-5.766M62.55 113.304c-9.847-2.824-15.538-13.092-12.714-22.933 2.824-9.847 13.092-15.538 22.939-12.714s15.538 13.092 12.714 22.939-13.092 15.538-22.939 12.714zm25.484 10.485-8.497-2.44 12.721-12.281 4.28 17.155-8.497-2.44zm15.136-37.902 9.71-5.382a4.242 4.242 0 0 1 4.113 7.42l-9.71 5.381a4.242 4.242 0 0 1-4.112-7.42zm34.966 29.801c-2.824 9.84-13.092 15.538-22.939 12.714s-15.538-13.092-12.714-22.939 13.092-15.538 22.939-12.714 15.538 13.092 12.714 22.939m-20.09-96.569C75.586 6.943 31.293 31.493 19.118 73.953c-12.176 42.46 12.374 86.753 54.833 98.928 42.46 12.176 86.753-12.374 98.928-54.834 12.176-42.46-12.374-86.753-54.834-98.928zm47.136 96.717c-10.956 38.205-50.814 60.302-89.019 49.346s-60.302-50.808-49.346-89.019c10.956-38.205 50.814-60.302 89.019-49.346 38.211 10.956 60.302 50.808 49.346 89.019"/></svg>