<svg xmlns="http://www.w3.org/2000/svg" width="192" height="192" viewBox="0 0 192 192"><path d="M120.26 16.032a5.75 5.75 0 0 0-4.373 2.846l-1.917 3.31a5.75 5.75 0 0 0 2.111 7.863l1.663.958-5.212 9.017c-29.057-7.142-60.61 5.303-76.295 32.471-19.013 32.931-7.68 75.27 25.252 94.283 32.93 19.013 75.27 7.664 94.283-25.267 15.689-27.173 10.688-60.724-10.035-82.316l5.212-9.017 1.662.959a5.75 5.75 0 0 0 7.848-2.112l1.918-3.31a5.75 5.75 0 0 0-2.097-7.863l-36.545-21.088a5.75 5.75 0 0 0-3.475-.734M94.828 53.296c9.489-.204 19.155 2.123 28.008 7.234 25.753 14.87 34.519 47.562 19.65 73.315s-47.577 34.52-73.33 19.65c-25.753-14.869-34.519-47.577-19.65-73.33 9.757-16.9 27.207-26.48 45.322-26.87zm-2.636 30.689a54.45 54.45 0 0 0-22.122 4.598c6.902 2.745 13.127 6.26 18.917 9.795l3.984-2.096c6.273-3.298 13.273-5.893 21.118-7.834a54.45 54.45 0 0 0-21.897-4.463m-39.556 7.639a46 46 0 0 0-2.621 15.367A45.89 45.89 0 0 0 96.025 153a45.86 45.86 0 0 0 43.511-31c-34.561 8.243-52.375-25.306-86.898-30.374zm87.004.673c-18.052 1.365-32.024 4.949-43.105 10.77 1.166.728 2.363 1.481 3.49 2.171 8.366 5.115 15.993 9.006 24.099 10.095 5.222.698 10.83.359 17.449-1.842a46 46 0 0 0-1.932-21.193z"/></svg>