<svg xmlns="http://www.w3.org/2000/svg" width="192" height="192"><path d="M60.676 25.465a9.35 9.35 0 0 0-8.101 4.672L17.249 91.324c-1.666 2.875-1.666 6.443 0 9.348l35.326 61.191a9.4 9.4 0 0 0 8.101 4.672h70.663c3.34 0 6.415-1.799 8.087-4.672l35.326-61.191a9.38 9.38 0 0 0 0-9.348l-35.326-61.187a9.36 9.36 0 0 0-8.087-4.672zm15.976 27.722h38.627a9.35 9.35 0 0 1 9.348 9.348v1.586c0 5.188-4.171 9.392-9.333 9.392H76.652c-5.154 0-9.315-4.196-9.315-9.392V62.58c0-5.187 4.169-9.392 9.315-9.392zM56.753 85.833h78.64c5.162 0 9.344 4.186 9.344 9.348v1.535h.073c0 5.215-4.182 9.447-9.344 9.447H56.753c-5.162 0-9.348-4.188-9.348-9.348v-1.634a9.35 9.35 0 0 1 9.348-9.348m29.802 32.654h18.853c5.177 0 9.359 4.196 9.359 9.392v1.543c0 5.186-4.191 9.391-9.359 9.391H86.533a9.35 9.35 0 0 1-9.348-9.347v-1.587c0-5.189 4.187-9.392 9.37-9.392"/></svg>