<svg xmlns="http://www.w3.org/2000/svg" width="192" height="192" viewBox="0 0 192 192"><path d="M118.6 100.09c-4.8 0-7.4 3.587-7.4 8.1v10.053c0 .833-.287 1.213-.8 1.213-.373 0-.653-.233-.98-.886l-6.473-12.567c-2.467-4.8-5.034-5.914-7.974-5.914-4.893 0-7.6 3.68-7.6 8.287v28.76c0 4.52 2.614 8.1 7.414 8.1s7.413-3.58 7.413-8.1v-10.047c0-.84.28-1.213.793-1.213.367 0 .647.233.974.886l6.48 12.567c2.466 4.794 5.126 5.907 7.966 5.907 4.9 0 7.6-3.673 7.6-8.28V108.19c0-4.513-2.606-8.1-7.406-8.1zm-26.8-2.7c2.427 0 4.533-1.907 4.533-4.28 0-1.587-.66-2.747-1.493-3.813-1.353-1.774-2.567-3.307-3.173-4.934-.134-.373-.047-.7.373-1.026 1.447-1.114 3.127-3.58 3.127-7.494 0-5.906-4.894-9.26-10.813-9.26h-5.267c-3.687 0-5.46 2.14-5.46 5.027v20.76c0 2.793 1.633 5.027 4.613 5.027 2.987 0 4.62-2.234 4.62-5.027v-4.933c0-.6.28-.887.74-.887.56 0 .747.327.84.887.42 2.373 1.534 5.58 2.8 7.213 1.58 2.093 3.067 2.74 4.567 2.74zm-7.64-17.773h-.653c-.794 0-1.167-.467-1.167-1.073v-3.16c0-.6.373-1.067 1.167-1.067h.653c1.96 0 2.567 1.387 2.567 2.6 0 1.16-.607 2.7-2.567 2.7M59.087 97.39c7.547 0 11.56-4.513 11.56-10.187V71.516c0-2.793-1.633-5.027-4.613-5.027-2.987 0-4.62 2.234-4.62 5.027v15.173c0 1.113-.647 2.42-2.334 2.42-1.673 0-2.233-1.307-2.233-2.42V71.516c0-2.793-1.68-5.027-4.667-5.027-2.98 0-4.606 2.234-4.606 5.027v15.687c0 5.68 3.96 10.187 11.513 10.187m80.073-.227c2.613 0 4.667-1.533 4.667-4.333 0-2.747-2.054-4.28-4.667-4.28h-4.2c-.787 0-1.16-.467-1.16-1.067v-.886c0-.607.373-1.074 1.167-1.074h3.213c2.24 0 4.013-1.346 4.013-3.726 0-2.367-1.773-3.72-4.013-3.72h-3.213c-.8 0-1.167-.467-1.167-1.067v-.747c0-.606.373-1.073 1.167-1.073h4.193c2.613 0 4.667-1.533 4.667-4.333 0-2.74-2.054-4.28-4.667-4.28h-8.807c-3.686 0-5.453 2.14-5.453 5.026V92.13c0 2.88 1.767 5.027 5.453 5.027h8.807zm17.613 20.847h-2.28c-4.1 0-7.267 1.907-7.267 6.094 0 3.82 3.447 5.633 6.007 5.633 1.26 0 2.147.373 2.147 1.347 0 1.213-1.494 2-3.08 2-5.267 0-8.854-3.58-8.854-10.233 0-7.4 4.894-10.1 8.667-10.1 4.613 0 5.36 2.326 8.58 2.326a6.18 6.18 0 0 0 6.24-6.1 6.33 6.33 0 0 0-2.653-5.253c-2.847-2.1-7.134-3.633-13.193-3.633-10.86 0-21.44 6.84-21.44 22.76 0 15.213 10.58 22.333 21.02 22.333 10.953 0 17.9-6.747 17.9-16.613 0-6.234-3.914-10.56-11.793-10.56zm-82.867-17.92c-5.22 0-8.067 3.914-8.067 8.8v27.547c0 4.894 2.847 8.8 8.067 8.8s8.067-3.906 8.067-8.8V108.89c0-4.886-2.847-8.8-8.067-8.8m76.627-2.7c2.98 0 4.613-2.233 4.613-5.026V87.43c0-.6.28-.88.747-.88.56 0 .74.327.833.887.42 2.367 1.54 5.58 2.8 7.213 1.587 2.094 3.074 2.747 4.567 2.747 2.42 0 4.52-1.907 4.52-4.287 0-1.58-.653-2.746-1.493-3.813-1.58-2-2.56-3.307-3.167-4.933-.133-.374-.047-.7.373-1.02 1.447-1.12 3.127-3.587 3.127-7.494 0-5.913-4.9-9.266-10.82-9.266h-5.267c-3.68 0-5.446 2.14-5.446 5.026v20.76c0 2.794 1.626 5.02 4.613 5.02m4.1-22.007c0-.6.373-1.073 1.167-1.073h.653c1.953 0 2.56 1.4 2.56 2.607 0 1.166-.6 2.7-2.56 2.7h-.653c-.8 0-1.167-.467-1.167-1.067zm-125.8 21.78h6.573c6.2 0 9.974-4.146 9.974-9.313 0-4.14-2.467-6.047-3.027-6.513-.233-.187-.467-.374-.467-.56 0-.234.14-.32.374-.6.886-1.027 1.773-2.654 1.773-5.027 0-5.587-3.78-8.567-9.653-8.567h-5.547c-3.68 0-5.447 2.14-5.447 5.027v20.527c0 2.887 1.767 5.027 5.447 5.027zm2.753-22.573c0-.6.374-1.066 1.167-1.066h.6c2.007 0 2.613 1.393 2.613 2.6 0 1.12-.6 2.7-2.606 2.7h-.607c-.8 0-1.167-.467-1.167-1.067zm0 10.893c0-.606.374-1.073 1.167-1.073h.84c2.233 0 2.887 1.487 2.887 2.84 0 1.207-.654 2.933-2.887 2.933h-.84c-.8 0-1.167-.466-1.167-1.073zm79.187 11.96c7.32 0 11.933-4.66 11.933-11.453 0-4.326-2.606-7.306-7.826-7.306h-1.494c-2.753 0-4.893 1.306-4.893 4.24 0 2.6 2.28 3.866 4.007 3.866.886 0 1.446.274 1.446.927 0 .833-.98 1.4-2.1 1.4-3.493 0-5.866-2.467-5.866-7.08 0-5.12 3.26-6.98 5.773-6.98 3.08 0 3.593 1.587 5.733 1.587 2.467 0 4.154-2.054 4.154-4.194a4.46 4.46 0 0 0-1.774-3.626c-1.96-1.447-4.706-2.514-8.806-2.514-7.227 0-14.267 4.747-14.267 15.733 0 10.507 7.04 15.4 13.98 15.4m-58.12 25.08a2.36 2.36 0 0 1-.466-1.253c0-.513.28-.887.84-1.4 1.306-1.207 4.52-4.233 6.293-6.98 1.347-2.093 1.907-4 1.907-5.58 0-4.047-3.68-7.213-7.687-7.213-2.567 0-4.987 1.44-6.62 4.093-2.193 3.533-4.8 7.633-6.48 9.267-.42.413-.653.506-.973.506-.56 0-.8-.373-.8-.973v-4.66c0-4.56-2.7-8.233-7.594-8.233-4.933 0-7.6 3.673-7.6 8.233v28.667c0 4.567 2.66 8.247 7.6 8.247 4.894 0 7.6-3.68 7.6-8.24v-6.607c0-.56.234-.98.794-.98.74 0 .933.747 1.113 1.12 1.073 2.56 4.2 8 7.087 11.213 1.96 2.133 4.38 3.493 6.946 3.493 4.334 0 7.974-3.773 7.974-7.82 0-2.513-1.074-4.38-3.127-6.606-2.613-2.847-5.687-6.574-6.807-8.294m105.01 44.68c-12.113 6.84-32.907 8.794-61.66 8.794s-49.547-1.954-61.667-8.8c-7.266-4.094-10.947-9.674-10.947-13.68 0-2.28 1.207-3.58 3.914-3.58h137.4c2.706 0 3.913 1.3 3.913 3.58 0 4-3.68 9.586-10.953 13.687zm7.04-106.11h-137.4c-2.706 0-3.913-1.393-3.913-3.906C23.39 42.294 45.803 16 96.003 16c49.733 0 72.613 26.293 72.613 41.187 0 2.513-1.207 3.906-3.913 3.906"/></svg>