<svg width="192" height="192" fill="none" xmlns="http://www.w3.org/2000/svg"><path d="M156 54v18c0 6.627-5.373 12-12 12H48c-6.627 0-12-5.373-12-12V54m36 104a11.998 11.998 0 0 1-12 12 11.998 11.998 0 0 1-12-12m96 0c0 3.183-1.264 6.235-3.515 8.485a11.996 11.996 0 0 1-16.97 0A11.996 11.996 0 0 1 120 158" stroke="#000" stroke-width="12" stroke-linecap="round" stroke-linejoin="round"/><path d="M120 158v-2a6 6 0 0 0-6-6H78a6 6 0 0 0-6 6v2m-24 0v-8c-6.627 0-12-5.373-12-12V54c0-17.673 14.327-32 32-32h56c17.673 0 32 14.327 32 32v84c0 6.627-5.373 12-12 12v8" stroke="#000" stroke-width="12" stroke-linecap="round" stroke-linejoin="round"/><circle cx="64" cy="108" r="4" stroke="#000" stroke-width="8" stroke-linecap="round" stroke-linejoin="round"/><circle cx="128" cy="108" r="4" stroke="#000" stroke-width="8" stroke-linecap="round" stroke-linejoin="round"/><path d="M113 124.445a34.003 34.003 0 0 1-34 0" stroke="#000" stroke-width="12" stroke-linecap="round" stroke-linejoin="round"/></svg>