<svg width="192" height="192" version="1.1" viewBox="0 0 192 192" xmlns="http://www.w3.org/2000/svg"><path d="m47.017 16c-11.559 0-20.865 9.3059-20.865 20.865v96.693c0 11.559 9.3059 20.865 20.865 20.865h35.783l11.338 19.113c0.90459 1.5247 2.5761 2.4639 4.385 2.4639 1.8087 0 3.4802-0.93919 4.3848-2.4639l11.338-19.113h30.737c11.559 0 20.865-9.3059 20.865-20.865v-96.693c0-11.559-9.3059-20.865-20.865-20.865zm69.046 21.015c5.0593 0 9.1604 4.1013 9.1604 9.1604 0 2.4295-0.96489 4.7593-2.683 6.4774-1.7178 1.7178-4.0479 2.683-6.4774 2.683-2.4295 0-4.7593-0.96515-6.4774-2.683-1.7178-1.7181-2.683-4.0479-2.683-6.4774 0-2.4295 0.96514-4.7596 2.683-6.4774 1.7181-1.7178 4.0481-2.683 6.4774-2.683zm23.211 0c2.4295 0 4.7596 0.96515 6.4774 2.683 1.7178 1.7178 2.683 4.0479 2.683 6.4774 0 2.4295-0.96515 4.7593-2.683 6.4774-1.7178 1.7178-4.0479 2.683-6.4774 2.683s-4.7593-0.96515-6.4774-2.683c-1.7178-1.7181-2.683-4.0479-2.683-6.4774 0-5.0591 4.1013-9.1604 9.1604-9.1604zm-78.838 2.7896c3.8288 0.10407 6.5527 2.455 9.4286 4.7184 0.22086 0.17379 0.58295 0.1771 0.80611 0.0064 2.8486-2.1802 5.6153-4.7723 9.4235-4.7247 5.2698 0 9.542 4.272 9.542 9.542 0 2.3825-0.88041 4.555-2.3244 6.227h0.013l-8.5298 9.5571-7.0054 7.8489c-0.38779 0.43435-0.9425 0.6827-1.5247 0.6827-0.58244 0-1.1372-0.24835-1.5249-0.6827l-15.314-17.159c-0.07481-0.08092-0.14835-0.16285-0.2201-0.24657-1.4407-1.6713-2.3115-3.8476-2.3115-6.227 0-5.27 4.272-9.542 9.542-9.542zm55.628 20.421c5.0593 0 9.1604 4.101 9.1604 9.1604 0 5.0591-4.101 9.1604-9.1604 9.1604-2.4293 0-4.7593-0.96515-6.4774-2.6832-1.7178-1.7178-2.683-4.0479-2.683-6.4771 0-2.4295 0.96514-4.7596 2.683-6.4774 1.7181-1.7181 4.0481-2.683 6.4774-2.683zm23.211 0c2.4295 0 4.7596 0.96489 6.4774 2.683 1.7178 1.7178 2.683 4.0479 2.683 6.4774 0 2.4293-0.96515 4.7593-2.683 6.4771-1.7178 1.7181-4.0479 2.6832-6.4774 2.6832-5.0591 0-9.1604-4.1013-9.1604-9.1604 0-5.0593 4.1013-9.1604 9.1604-9.1604zm-68.996 27.175c0.56897 0 1.1005 0.28346 1.4176 0.75599l7.0731 10.546c0.18295 0.27303 0.45649 0.47252 0.77227 0.56361l12.047 3.471c0.54657 0.15751 0.97889 0.57685 1.1527 1.1186 0.17354 0.54174 0.0662 1.1344-0.28702 1.5804l-7.7978 9.8471c-0.20382 0.25751-0.30967 0.57939-0.29822 0.90764l0.43639 12.461c0.0201 0.56871-0.24479 1.1099-0.70586 1.443-0.46107 0.33334-1.058 0.41476-1.5916 0.21756l-11.762-4.3502c-0.30789-0.114-0.64657-0.114-0.95471 0l-11.761 4.3502c-0.53385 0.1972-1.1305 0.11578-1.5919-0.21756-0.46107-0.33308-0.7257-0.8743-0.70586-1.443l0.44479-12.692c0.01145-0.3285-0.09415-0.65013-0.29822-0.90764l-7.6151-9.6161c-0.35318-0.44606-0.46082-1.0387-0.28702-1.5804 0.17379-0.54173 0.60586-0.96133 1.1527-1.1186l11.861-3.4173c0.31578-0.0911 0.58932-0.29058 0.77227-0.56361l7.109-10.6c0.3168-0.47227 0.8481-0.75574 1.4168-0.75599zm56.472 3.9008c0.0796 2.5e-4 0.15776 0.0201 0.22672 0.0578l18.885 10.312c0.14021 0.0766 0.22647 0.21807 0.22672 0.37125v20.625c-2.5e-4 0.15318-0.0865 0.29466-0.22672 0.37125l-18.885 10.312c-0.14021 0.0766-0.31298 0.0766-0.45319 0l-18.885-10.312c-0.1402-0.0766-0.22671-0.21807-0.22671-0.37125v-20.625c0-0.15318 0.0865-0.29466 0.22671-0.37125l18.885-10.312c0.0687-0.0377 0.14708-0.0575 0.22647-0.0578z" stroke-width=".25446"/><path d="m139.27 37.015a9.1604 9.1604 0 0 0-9.1604 9.1604 9.1604 9.1604 0 0 0 9.1604 9.1604 9.1604 9.1604 0 0 0 9.1604-9.1604 9.1604 9.1604 0 0 0-9.1604-9.1604zm-23.211 23.211a9.1604 9.1604 0 0 0-9.1604 9.1604 9.1604 9.1604 0 0 0 9.1604 9.1604 9.1604 9.1604 0 0 0 9.1604-9.1604 9.1604 9.1604 0 0 0-9.1604-9.1604z" opacity=".6" stroke-width=".25446"/></svg>
