<svg xmlns="http://www.w3.org/2000/svg" width="192" height="192" viewBox="0 0 192 192"><path d="M71.376 36.404q-17.864 0-30.208 7.64-12.336 7.464-18.832 20.944Q16 78.476 16 96.004q0 18.024 5.84 31.504 5.856 13.312 17.544 20.784 11.696 7.304 29.552 7.304 9.584 0 16.56-1.296a70.4 70.4 0 0 0 13.968-3.736V135.46a144 144 0 0 1-14.128 3.736 76 76 0 0 1-14.288 1.304q-18.512 0-27.6-11.856c-9.088-11.856-9.096-18.728-9.096-32.48q0-20.784 9.736-32.64 9.744-12.008 27.12-12.016 7.312 0 13.808 2.112a91 91 0 0 1 12.336 4.552l6.496-14.616a66.4 66.4 0 0 0-15.424-5.2 74.4 74.4 0 0 0-17.056-1.944zm56.344 13.888-4.992 26.632h-18.44v9.864h16.648l-3.712 18.696h-17.68v9.856h15.76l-4.744 26.384h10.24l4.88-26.384h16.512l-5.12 26.384h10.496l5.12-26.384h18.96v-9.856h-17.04l3.592-18.696H176v-9.864h-15.88l5.12-26.64H155l-4.992 26.64h-16.776l5.12-26.64zm3.592 36.496h16.512l-3.712 18.696H127.6z"/></svg>