<svg width="192" height="192" fill="none" xmlns="http://www.w3.org/2000/svg"><path d="M97.575 52.699C105.234 57.087 114 65 119.67 79l6.244 15.006 16.277-39.123a14.384 14.384 0 0 1 3.134-4.668 14.451 14.451 0 0 1 4.689-3.12 14.506 14.506 0 0 1 15.752 3.12 14.34 14.34 0 0 1 3.133 15.682l-29.631 71.22a14.425 14.425 0 0 1-7.822 7.788 14.519 14.519 0 0 1-11.063 0 14.425 14.425 0 0 1-7.822-7.788L94 92.5c-2-5-4.897-9.503-7.266-11.706a21.05 21.05 0 0 0-10.255-5.227 21.144 21.144 0 0 0-11.49.935 20.981 20.981 0 0 0-9.26 6.816 20.743 20.743 0 0 0-4.238 10.64 20.694 20.694 0 0 0 2.064 11.256 20.893 20.893 0 0 0 7.742 8.478 21.115 21.115 0 0 0 11.086 3.141 14.75 14.75 0 0 1 10.39 4.272 14.527 14.527 0 0 1 4.305 10.312c0 3.867-1.548 7.577-4.304 10.312A14.751 14.751 0 0 1 72.383 146a50.674 50.674 0 0 1-25.191-6.699A50.19 50.19 0 0 1 28.75 121 49.708 49.708 0 0 1 22 96a49.708 49.708 0 0 1 6.75-25 50.194 50.194 0 0 1 18.441-18.301A50.68 50.68 0 0 1 72.383 46a50.68 50.68 0 0 1 25.192 6.699Z" stroke="#000" stroke-width="12" stroke-linecap="round" stroke-linejoin="round"/></svg>