<svg xmlns="http://www.w3.org/2000/svg" width="192" height="192" viewBox="0 0 192 192"><path d="M55.235 19a36.237 36.237 0 0 0 0 72.474 36.237 36.237 0 0 0 0-72.474m81.53 0a36.237 36.237 0 0 0 0 72.474 36.237 36.237 0 0 0 0-72.474m-9.6 20.216 9.608 9.618 9.608-9.618 6.416 6.409-9.616 9.607 9.608 9.608-6.408 6.409-9.608-9.608-9.608 9.608-6.409-6.409 9.608-9.608-9.608-9.608zM37.123 50.699h36.232v9.069H37.123zm18.112 49.835a36.233 36.233 0 0 0 0 72.467 36.233 36.233 0 0 0 0-72.467m81.53 0a36.233 36.233 0 0 0 0 72.467 36.233 36.233 0 0 0 0-72.467M50.718 118.65h9.06v13.587h13.588v9.069l-13.594-.01v13.587h-9.069v-13.586H37.134v-9.06H50.72zm67.935 4.526h36.234v9.068h-36.234zm0 18.12h36.234v9.06h-36.234z"/></svg>