<svg xmlns="http://www.w3.org/2000/svg" width="192" height="192" viewBox="0 0 192 192"><path d="M101.44 17.299c-15.262-.47-31.296 9.515-42.486 27.502-5.133 8.25-8.249 14.74-9.736 21.082 4.24.93 8.403 3.179 12.328 6.827 7.24 6.73 14.08 17.736 23.926 27.816a43 43 0 0 1 3.17-14.98l-.11.227a5.72 5.72 0 0 1-1.931-4.287 5.72 5.72 0 0 1 2.359-4.628 5.7 5.7 0 0 1-.97-3.188 5.72 5.72 0 0 1 5.718-5.719 5.72 5.72 0 0 1 4.927 2.815l-.263.292a43 43 0 0 1 3.626-3.18l-.366.258a5 5 0 0 1-.788-2.693 5 5 0 0 1 5-5 5 5 0 0 1 4.272 2.405 43 43 0 0 0-1.84 1.004 43 43 0 0 1 20.206-5.12 43 43 0 0 0-5.212.317 5 5 0 0 1-.057-.753 5 5 0 0 1 5-5 5 5 0 0 1 4.92 4.117 5 5 0 0 1 1.228-.939c1.293-15.204-5.796-28.398-18.123-35.13-4.708-2.57-9.71-3.889-14.797-4.046zM88.261 30.693q1.09.016 2.23.31c.837.216.837.763.038 1.094L80.441 36.28c-.798.33-1.081-.001-.57-.698 2.377-3.24 5.213-4.938 8.39-4.889m-.783 13.852c.248 0 .154.22-.313.588-9.061 7.144-12.453 16.165-16.831 26.556-.336.797-.601.74-.557-.123.938-18.426 12.41-25.021 17.154-26.876q.377-.146.547-.145m-3.648 10.95c.312-.008.29.28-.139.73-4.53 4.762-6.568 7.67-7.683 14.484-.14.853-.445.88-.627.035-1.852-8.594 4.32-13.425 7.932-15.095.22-.102.394-.15.517-.154" opacity=".6"/><path d="M128.21 53.296a5 5 0 0 0-5 5 5 5 0 0 0 .058.753 43 43 0 0 1 5.212-.317 43 43 0 0 1 13.266 2.095 5 5 0 0 0-5-4.96 5 5 0 0 0-3.615 1.546 5 5 0 0 0-4.92-4.117zm-22.368 7.148a5 5 0 0 0-5 4.999 5 5 0 0 0 .788 2.693 43 43 0 0 1 8.485-5.288 5 5 0 0 0-4.273-2.404m18.668 1.061a6.806 6.806 0 0 0-6.806 6.806 6.806 6.806 0 0 0 6.806 6.806 6.806 6.806 0 0 0 6.806-6.806 6.806 6.806 0 0 0-6.806-6.806m28.537.635a4.49 4.49 0 0 0-3.72 1.979 43 43 0 0 1 7.351 5.14 4.5 4.5 0 0 0 .855-2.633 4.485 4.485 0 0 0-4.486-4.486m-1.9 4.886a4.63 4.63 0 0 0-4.628 4.627 4.63 4.63 0 0 0 4.628 4.628 4.63 4.63 0 0 0 4.628-4.628 4.63 4.63 0 0 0-4.629-4.627m-57.44.925a5.72 5.72 0 0 0-5.719 5.72 5.7 5.7 0 0 0 .97 3.187 5.72 5.72 0 0 0-2.358 4.629 5.72 5.72 0 0 0 1.932 4.286 43 43 0 0 1 10.102-15.007 5.72 5.72 0 0 0-4.927-2.815m67.774.874a5.2 5.2 0 0 0-3.638 1.482 43 43 0 0 1 10.263 14.68 4.75 4.75 0 0 0 .9-2.78 4.75 4.75 0 0 0-3.712-4.634 5.2 5.2 0 0 0 1.392-3.543 5.205 5.205 0 0 0-5.205-5.205m-53.5 3.424a6.154 6.154 0 0 0-6.153 6.154 6.154 6.154 0 0 0 6.154 6.154 6.154 6.154 0 0 0 6.154-6.154 6.154 6.154 0 0 0-6.154-6.154m36.583 4.543a6.154 6.154 0 0 0-6.154 6.154 6.154 6.154 0 0 0 6.154 6.154 6.154 6.154 0 0 0 6.154-6.154 6.154 6.154 0 0 0-6.154-6.154m-15.346 3.245a5.23 5.23 0 0 0-5.229 5.228 5.23 5.23 0 0 0 5.229 5.229 5.23 5.23 0 0 0 5.228-5.229 5.23 5.23 0 0 0-5.228-5.228m-27.126 5.52a6.154 6.154 0 0 0-6.154 6.154 6.154 6.154 0 0 0 6.154 6.154 6.154 6.154 0 0 0 6.154-6.154 6.154 6.154 0 0 0-6.154-6.154m57.95 4.024a6.29 6.29 0 0 0-6.291 6.292 6.29 6.29 0 0 0 6.292 6.291 6.29 6.29 0 0 0 6.291-6.291 6.29 6.29 0 0 0-6.291-6.292m-41.006.997a6.154 6.154 0 0 0-6.154 6.154 6.154 6.154 0 0 0 6.154 6.154 6.154 6.154 0 0 0 6.154-6.154 6.154 6.154 0 0 0-6.154-6.154m52.214 3.13a5 5 0 0 0-.497.025 43 43 0 0 1 .756 8.028 43 43 0 0 1-.024 1.437 4.75 4.75 0 0 0 4.512-4.742 4.75 4.75 0 0 0-4.748-4.749m-30.875 1.035a5.64 5.64 0 0 0-5.64 5.64 5.64 5.64 0 0 0 5.64 5.64 5.64 5.64 0 0 0 5.64-5.64 5.64 5.64 0 0 0-5.64-5.64m-41.702 9.05a4.51 4.51 0 0 0-4.51 4.51 4.51 4.51 0 0 0 4.51 4.508 4.51 4.51 0 0 0 4.508-4.509 4.51 4.51 0 0 0-4.508-4.508m66.823.878a4.983 4.983 0 0 0-4.983 4.982 4.983 4.983 0 0 0 4.982 4.983 4.983 4.983 0 0 0 4.983-4.983 4.983 4.983 0 0 0-4.983-4.982m-42.965 6.168a6.205 6.205 0 0 0-6.205 6.205 6.205 6.205 0 0 0 6.206 6.205 6.205 6.205 0 0 0 6.205-6.205 6.205 6.205 0 0 0-6.206-6.205m21.237.463a6.205 6.205 0 0 0-6.205 6.205 6.205 6.205 0 0 0 6.206 6.205 6.205 6.205 0 0 0 6.205-6.205 6.205 6.205 0 0 0-6.206-6.205m25.655 3.691a43 43 0 0 1-5.023 10.458 5.83 5.83 0 0 0 3.013.84 5.83 5.83 0 0 0 5.828-5.828 5.83 5.83 0 0 0-3.818-5.47m-23.409 14.511a5.383 5.383 0 0 0-5.382 5.383 5.383 5.383 0 0 0 5.382 5.383 5.383 5.383 0 0 0 5.383-5.383 5.383 5.383 0 0 0-5.383-5.383" opacity=".2"/><path d="M45.388 65.401c-7.142-.242-14.371 3.138-20.945 9.777-11.401 11.515-10.268 27.978-2.468 42.965C36.379 145.82 59.51 158.674 75.79 167.95c14.79 8.426 39.274 10.442 52.69-2.468 12.67-12.192 7.63-39.772-9.52-44.508-32.05-8.852-44.052-35.841-57.415-48.263-5.101-4.742-10.603-7.12-16.158-7.309zm-7.915 22.11c1.017.052 1.962.191.654 3.09-.374.87-.001 2.293-1.2 2.382-2.554-.74-1.718-4.822.546-5.472"/><path d="M128.48 58.732a43.03 43.03 0 0 0-43.029 43.029 43.03 43.03 0 0 0 43.029 43.029 43.03 43.03 0 0 0 43.029-43.029 43.03 43.03 0 0 0-43.029-43.029m-3.97 2.774a6.806 6.806 0 0 1 6.806 6.805 6.806 6.806 0 0 1-6.806 6.806 6.806 6.806 0 0 1-6.806-6.806 6.806 6.806 0 0 1 6.806-6.805m26.636 5.52a4.63 4.63 0 0 1 4.628 4.627 4.63 4.63 0 0 1-4.628 4.628 4.63 4.63 0 0 1-4.628-4.628 4.63 4.63 0 0 1 4.628-4.627M107.98 72.25a6.154 6.154 0 0 1 6.154 6.154 6.154 6.154 0 0 1-6.154 6.154 6.154 6.154 0 0 1-6.154-6.154 6.154 6.154 0 0 1 6.154-6.154m36.582 4.543a6.154 6.154 0 0 1 6.154 6.153 6.154 6.154 0 0 1-6.154 6.155 6.154 6.154 0 0 1-6.154-6.155 6.154 6.154 0 0 1 6.154-6.153m-15.346 3.245a5.23 5.23 0 0 1 5.228 5.228 5.23 5.23 0 0 1-5.228 5.228 5.23 5.23 0 0 1-5.229-5.228 5.23 5.23 0 0 1 5.229-5.228m-27.126 5.52a6.154 6.154 0 0 1 6.154 6.154 6.154 6.154 0 0 1-6.154 6.154 6.154 6.154 0 0 1-6.154-6.154 6.154 6.154 0 0 1 6.154-6.154m57.95 4.023a6.29 6.29 0 0 1 6.292 6.292 6.29 6.29 0 0 1-6.291 6.292 6.29 6.29 0 0 1-6.292-6.292 6.29 6.29 0 0 1 6.292-6.292m-41.006.998a6.154 6.154 0 0 1 6.154 6.154 6.154 6.154 0 0 1-6.154 6.154 6.154 6.154 0 0 1-6.154-6.154 6.154 6.154 0 0 1 6.154-6.154m21.34 4.165a5.64 5.64 0 0 1 5.64 5.64 5.64 5.64 0 0 1-5.64 5.64 5.64 5.64 0 0 1-5.64-5.64 5.64 5.64 0 0 1 5.64-5.64m-41.702 9.05a4.51 4.51 0 0 1 4.508 4.509 4.51 4.51 0 0 1-4.508 4.508 4.51 4.51 0 0 1-4.509-4.508 4.51 4.51 0 0 1 4.509-4.509m66.823.877a4.983 4.983 0 0 1 4.982 4.983 4.983 4.983 0 0 1-4.982 4.982 4.983 4.983 0 0 1-4.983-4.982 4.983 4.983 0 0 1 4.983-4.983m-42.964 6.168a6.205 6.205 0 0 1 6.205 6.205 6.205 6.205 0 0 1-6.205 6.206 6.205 6.205 0 0 1-6.206-6.206 6.205 6.205 0 0 1 6.206-6.205m21.237.463a6.205 6.205 0 0 1 6.205 6.205 6.205 6.205 0 0 1-6.205 6.205 6.205 6.205 0 0 1-6.206-6.205 6.205 6.205 0 0 1 6.206-6.205m2.246 18.203a5.383 5.383 0 0 1 5.382 5.383 5.383 5.383 0 0 1-5.382 5.382 5.383 5.383 0 0 1-5.383-5.382 5.383 5.383 0 0 1 5.383-5.383" opacity=".8"/></svg>