<svg xmlns="http://www.w3.org/2000/svg" width="192" height="192" viewBox="0 0 192 192"><path d="M32.16 47.801s19.072 15.605 57.563 15.605 57.563-15.605 57.563-15.605H89.723zm130.16 3.164a10 10 0 0 0-1.772.178c-4.378.815-14.734 6.312-30.23 11.63a151 151 0 0 1 3.493 33.145 151 151 0 0 1-3.453 33.27c15.496 5.317 25.855 10.814 30.233 11.615 3.232.594 5.939 0 8.756-6.228 1.975-4.364 6.657-17.21 6.657-38.59 0-21.378-4.684-34.221-6.7-38.613-2.244-5.083-4.488-6.402-6.984-6.407M28.68 55.993c-2.437-.076-4.55.772-6.738 5.605-1.795 3.895-5.94 15.357-5.94 34.443s4.145 30.495 5.94 34.39c2.514 5.524 4.903 5.855 7.804 5.524.994-.097 11.047-4.407 18.933-7.79A155.6 155.6 0 0 1 45.42 96.04a155.8 155.8 0 0 1 3.259-32.18c-7.9-3.384-17.953-7.677-18.933-7.788-.363-.04-.718-.07-1.066-.08zm61.045 72.601c-38.491 0-57.563 15.605-57.563 15.605h115.13s-19.072-15.605-57.563-15.605z"/></svg>