<svg xmlns="http://www.w3.org/2000/svg" width="192" height="192"><path d="M133.84 66.111c1.817 1.817 4.833 1.817 6.541 0l9.085-9.448c1.926-1.817 1.817-5.087-.218-7.05a71.7 71.7 0 0 0-24.42-13.954l2.87-13.809c.618-3.016-1.635-5.85-4.65-5.85h-17.589a4.8 4.8 0 0 0-4.651 3.852l-2.544 12.283c-23.402 1.199-43.243 13.082-43.243 37.429 0 21.077 16.389 30.125 33.722 36.339 16.389 6.25 25.074 8.575 25.074 17.37 0 9.048-8.649 14.354-21.44 14.354-11.628 0-23.838-3.889-33.286-13.373a4.724 4.724 0 0 0-6.686 0l-9.812 9.811a4.94 4.94 0 0 0 0 6.977c7.631 7.522 17.297 12.973 28.315 15.99l-2.689 12.972c-.618 3.016 1.599 5.814 4.615 5.85l17.624.146a4.8 4.8 0 0 0 4.724-3.852l2.544-12.319c28.155-1.89 45.307-17.406 45.307-40.045 0-20.858-17.08-29.652-37.792-36.81-11.846-4.398-22.094-7.414-22.094-16.462 0-8.794 9.557-12.283 19.15-12.283 12.21 0 23.948 5.051 31.616 11.955z"/></svg>