<svg xmlns="http://www.w3.org/2000/svg" width="192" height="192" viewBox="0 0 192 192"><path d="M96 19c-42.436 0-77 34.564-77 77s34.564 77 77 77 77-34.564 77-77-34.564-77-77-77m0 14.177c34.778 0 62.823 28.045 62.823 62.823S130.778 158.823 96 158.823 33.177 130.778 33.177 96 61.222 33.177 96 33.177" opacity=".6"/><path d="M96 19c-34.821 0-65.364 23.442-74.373 57.066s5.724 69.214 35.873 86.625a77.086 77.086 0 0 0 92.948-12.243 7.1 7.1 0 0 0 0-10.027 7.1 7.1 0 0 0-10.027 0c-20.131 20.131-51.179 24.212-75.828 9.984s-36.635-43.163-29.269-70.669A62.755 62.755 0 0 1 96 33.194a7.1 7.1 0 0 0 7.093-7.1A7.1 7.1 0 0 0 96 19" opacity=".7"/><path d="M93.656 55.72a40.2 40.2 0 0 0-27.027 12.56 40.47 40.47 0 0 0 0 55.414 40.47 40.47 0 0 0 55.329 3.225 7.1 7.1 0 0 0 .873-9.993 7.1 7.1 0 0 0-9.985-.872 26.094 26.094 0 0 1-35.899-2.088c-9.582-10.147-9.582-25.812 0-35.959s25.213-11.062 35.9-2.096a7.1 7.1 0 0 0 9.984-.873 7.1 7.1 0 0 0-.873-9.984 40.2 40.2 0 0 0-28.302-9.343z"/></svg>