<svg xmlns="http://www.w3.org/2000/svg" width="192" height="192" viewBox="0 0 192 192"><path d="M116.27 147.15a800 800 0 0 0-5.208-6.752l-3.4-4.368H91.645l-7.2 11.68-43.883.353-4.264-4.08c-9.712-9.29-17.065-16.626-16.96-16.914.095-.264 4-2.912 14.464-9.792l1.768-1.168 1.888 1.52c1.04.832 3.072 2.544 4.528 3.808 1.44 1.264 4.64 3.968 7.097 6.009l4.472 3.712h21.513l2.232-2.16c1.224-1.2 4.4-4.113 7.04-6.497l4.809-4.328h3.96c2.176 0 6.432-.12 9.456-.264l5.512-.264 6.057 5.944 6.064 5.945h11.537c11.361 0 11.545-.016 12.617-.912a40 40 0 0 1 2.2-1.72c.616-.448 2.504-1.92 4.192-3.28 1.696-1.345 4.113-3.217 5.385-4.153l2.304-1.688 2.64 1.712c1.464.952 4.768 3.072 7.36 4.728s4.8 3.184 4.936 3.385c.128.208-.56 1.12-1.544 2.024l-7.448 6.992a1852 1852 0 0 1-9.48 8.88l-3.793 3.52h-12.04c-6.617 0-14.05.12-16.506.265l-4.48.256zM24.538 93.364c-3.016-2.512-8.536-7.84-8.536-8.248 0-.256 2.784-3.2 6.184-6.545 23.577-23.153 33.706-33.073 35.186-34.49l1.712-1.624.824 1.016c.448.56 1.784 2.104 2.96 3.44l8.537 9.753 10.112 11.569c2.816 3.256 6.056 6.96 9.504 10.864 1.856 2.096 3.296 4.024 3.216 4.28s-2.96 2.168-6.4 4.248l-6.24 3.784-.737-.936a376 376 0 0 1-3.672-4.928c-1.616-2.192-3.808-5.096-4.864-6.44s-1.928-2.584-1.928-2.736c0-.24-4.904-4.736-11.016-10.088l-1.472-1.296-3.488 2.736c-1.92 1.512-5.153 4.024-7.169 5.584s-7.624 6.904-12.433 11.873c-4.808 4.968-8.88 9.024-9.016 9.016a4.8 4.8 0 0 1-1.264-.84zm135.85-4.928c-10.496-11.016-12.961-13.257-22.345-20.337-.64-.48-1.664-1.28-2.288-1.784s-1.384-.912-1.68-.904c-.304 0-1.488.872-2.624 1.92a832 832 0 0 1-5.56 5.096c-2.457 2.232-5.265 5.52-9.425 11.064-5.584 7.432-5.984 7.864-6.816 7.416a344 344 0 0 1-11.81-7.28c-.263-.24 2.665-4.16 4.225-5.64.12-.112 1.4-1.576 2.848-3.248l3.704-4.265a3392 3392 0 0 0 15.761-18.057c.344-.368 1.8-2.024 3.248-3.68 1.44-1.664 3.313-3.76 4.137-4.64l1.512-1.616 8.24 8.16c4.536 4.488 14.273 14.113 21.641 21.377 13.225 13.05 13.385 13.225 12.577 13.97-4.984 4.607-9.144 8.24-9.448 8.24-.216 0-2.864-2.608-5.897-5.793"/></svg>