<svg width="192" height="192" fill="none" xmlns="http://www.w3.org/2000/svg"><path d="M70 62a6 6 0 1 0 0-12 6 6 0 0 0 0 12Zm52 0a6 6 0 1 1 0 12 6 6 0 0 1 0-12ZM44 96a6 6 0 1 0 0-12 6 6 0 0 0 0 12Zm104 1a6 6 0 1 1 0 12 6 6 0 0 1 0-12ZM96 34a6 6 0 1 0 0-12 6 6 0 0 0 0 12Z" stroke="#000" stroke-width="12" stroke-linecap="round" stroke-linejoin="round"/><path d="M96 28v142M70 56v32l26 20m26-40v32l-26 20M44 90v23l52 40m52-50v23l-52 40" stroke="#000" stroke-width="12" stroke-linecap="round" stroke-linejoin="round"/></svg>