<svg xmlns="http://www.w3.org/2000/svg" width="192" height="192" viewBox="0 0 192 192"><path d="M93.639 172.92c-4.192-.317-8.83-.89-10.018-1.24-.402-.112-.428-1.113-.428-16.479 0-14.655.043-16.452.402-17.214.899-1.882 3.234-2.797 6.7-2.609 3.31.188 13.773-.393 17.007-.932 6.04-1.01 10.361-2.336 14.801-4.543 7.41-3.688 13.45-9.497 16.803-16.144l.839-1.669 29.764.24c.59.206 1.127.54 1.574.975.65.685.684.822.556 2.276-.317 3.627-4.226 13.244-7.905 19.464-10.951 18.48-29.354 31.766-50.118 36.19-5.81 1.232-15.314 2.036-19.977 1.685m-42.17-15.117c-8.359-6.373-14.886-13.535-19.917-21.876-6.554-10.83-10.095-22.26-11.088-35.642-.83-11.413 1.548-24.34 6.57-35.642a76.4 76.4 0 0 1 29.893-34.222c9.172-5.706 19.207-9.257 30.928-10.95 4.706-.677 14.792-.608 19.917.136a78.7 78.7 0 0 1 27.78 9.437 32 32 0 0 1 2.524 1.574q.617.47 1.31.821c.256 0 4.063 2.738 6.501 4.697a77.86 77.86 0 0 1 22.33 29.602c2.113 5.074 2.413 6.862 1.343 8.042-1.078 1.198-.902.854-15.554 1.181l-13.79.308c-.034-.233-2.029-7.591-11.534-14.057-7.04-4.671-15.023-7.075-27.377-8.247-3.07-.291-7.99-.368-23.724-.368H57.732c-2.293.212-3.088.691-3.328 2.84v52.18c-.008 28.695-.085 52.171-.188 52.163s-1.334-.898-2.755-1.976zM83.432 94.51V78.4h10.06c10.952 0 12.569.146 15.11 1.352 2.755 1.3 5.201 4.603 6.297 8.487.667 2.361.915 6.99.53 9.873-.744 5.51-3.337 9.616-7.187 11.38-2.096.966-4.063 1.111-14.792 1.111l-10.01.01z"/></svg>