<svg width="192" height="192" fill="none" xmlns="http://www.w3.org/2000/svg"><path d="M68 133a3 3 0 1 0 0-6 3 3 0 0 0 0 6Zm56-74a3 3 0 1 0 0 6 3 3 0 0 0 0-6ZM68 160a3 3 0 1 0 0-6 3 3 0 0 0 0 6Zm56-128a3 3 0 1 0 0 6 3 3 0 0 0 0-6Z" stroke="#000" stroke-width="6" stroke-linecap="round" stroke-linejoin="round"/><path d="M49 112H28a6 6 0 0 0-6 6v8a6 6 0 0 0 6 6h7a13.998 13.998 0 0 1 9.9 23.899A13.998 13.998 0 0 1 22.876 153M143 80h21a6 6 0 0 0 6-6v-8a6 6 0 0 0-6-6h-7a13.998 13.998 0 0 1-14-14 13.998 13.998 0 0 1 26.124-7M103.5 160c8.56 0 15.5-10.745 15.5-24s-6.94-24-15.5-24c-8.56 0-15.5 10.745-15.5 24s6.94 24 15.5 24Zm-15-128C79.94 32 73 42.745 73 56s6.94 24 15.5 24c8.56 0 15.5-10.745 15.5-24s-6.94-24-15.5-24Zm66 128c8.56 0 15.5-10.745 15.5-24s-6.94-24-15.5-24c-8.56 0-15.5 10.745-15.5 24s6.94 24 15.5 24ZM37.5 32C28.94 32 22 42.745 22 56s6.94 24 15.5 24C46.06 80 53 69.255 53 56s-6.94-24-15.5-24Z" stroke="#000" stroke-width="12" stroke-linecap="round" stroke-linejoin="round"/></svg>