<svg xmlns="http://www.w3.org/2000/svg" width="192" height="192" viewBox="0 0 192 192"><path d="M96 16c-25.12-.15-35.49 32.13-14.98 46.64L62.37 74.88c-.01 3.85 1 7.63 2.92 10.96h16.39s-.06 5.8-.09 5.8c-.3 8.97-2.71 23.54-24.11 39.82a36.85 36.85 0 0 0-11.98 16.81c-.26.62-.35 1-.54 1.45a50.7 50.7 0 0 0-2.46 15.9c0 .64 1.4 10.38 53.5 10.38 29.86 0 53.5-4.26 53.5-10.38.03-5.4-.8-10.76-2.46-15.9-.19-.46-.28-.83-.54-1.45a36.86 36.86 0 0 0-11.98-16.8c-21.4-16.3-23.81-30.86-24.11-39.83-.03 0-.1-5.8-.1-5.8h16.4a21.74 21.74 0 0 0 2.92-10.96l-18.65-12.24C131.48 48.14 121.12 15.85 96 16"/></svg>