<svg width="192" height="192" fill="none" xmlns="http://www.w3.org/2000/svg"><path d="M65 56.5 90 54l24.5 2.5 14.5 28-17.5 34.5 5.5 21.5 25.5 15c-1.333 4-8.79 14.5-20.5 14.5-11 0-32.833-4.167-43-7l-29.5-44-1.5-11.5 4-39 13-12Z" stroke="#000" stroke-width="12" stroke-linejoin="round"/><path d="M93 53.5 126.5 23l15.5-1 10 12-5 9" stroke="#000" stroke-width="12" stroke-linecap="round" stroke-linejoin="round"/><path d="m74.081 77.696-2 1.847-2.941 28.669.546 4.185L91.8 145.381c1.494.286 3.085.565 4.731.84l-5.376-21.017a21 21 0 0 1 1.617-14.704l12.63-24.901-4.329-8.36-11.096-1.133-15.896 1.59Z" stroke="#000" stroke-width="12" stroke-linejoin="round"/></svg>