<svg xmlns="http://www.w3.org/2000/svg" width="192" height="192" viewBox="0 0 192 192"><path d="M45.088 23.265a7.28 7.28 0 0 0-7.271 7.281v29.088H23.272A7.28 7.28 0 0 0 16 66.915v94.55a7.28 7.28 0 0 0 7.28 7.27h123.64a7.28 7.28 0 0 0 7.27-7.278l-.007.008v-29.098h14.545a7.28 7.28 0 0 0 7.273-7.272v-94.55a7.28 7.28 0 0 0-7.28-7.28zm3.625 10.92h116.37v87.277h-10.904V66.907a7.28 7.28 0 0 0-7.28-7.273h-98.18zM26.904 70.548h116.37v87.283H26.904zm57.09 32.664a43.28 43.28 0 0 0-34.842 17.633l10.137 17.602a26 26 0 0 1 24.705-17.896h34.627c-7.928-10.489-20.458-17.338-34.627-17.338zm19.32 26.002a25.68 25.68 0 0 1 6.441 20.801h17.441q.136-1.711.135-3.463a43.1 43.1 0 0 0-3.639-17.338zm-18.43.012a17.337 17.337 0 0 0-17.875 20.789h33.969q.353-1.68.354-3.463a17.337 17.337 0 0 0-16.447-17.326zm-40.717.293a43.2 43.2 0 0 0-3.375 20.496h15.199z"/></svg>