<svg xmlns="http://www.w3.org/2000/svg" width="192" height="192" viewBox="0 0 192 192"><path d="M142.22 172.07c-3.673-.539-37.405-7.653-49.162-10.371l-2.225-.516 2.787-1.64a64.7 64.7 0 0 0 22.43-22.483 61.37 61.37 0 0 0 6.76-45.212c-3.974-16.724-14.76-30.86-30.399-39.838-5.928-3.41-15.515-6.59-22.275-7.407-1.516-.177-2.51-.439-2.202-.57 3.658-1.586 69.928-24.146 70.967-24.16 2.572-.047 3.219.823 6.422 8.654 4.489 11.01 4.874 12.373 4.881 17.532 0 2.402-.254 5.798-.57 7.545-1.255 7.007-1.085 12.412.532 16.731.9 2.418.808 2.287 10.533 14.098 7.484 9.086 10.51 13.444 11.857 17.062.523 1.425.57 2.018.23 3.288-.862 3.188-5.004 7.2-9.978 9.655-3.48 1.717-5.497 3.75-5.775 5.806-.161 1.255.023 1.986 1.024 3.904 1.663 3.195 1.948 4.334 1.494 6.005-.408 1.525-2.448 3.58-3.904 3.95l-.893.223 1.27 1.895c.701 1.039 1.279 2.117 1.279 2.386 0 .278.1.763.223 1.078.146.385-.693 1.54-2.425 3.38-2.172 2.295-2.772 3.204-3.296 5.005-.693 2.349-.624 2.972.778 8.054 1.185 4.289.508 9.363-1.663 12.35-1.694 2.333-5.775 4.02-8.7 3.596m-93.135-40.631v-23.2h7.546v46.383h-7.546zm15.084.008v-23.253l11.218.138c10.402.139 11.38.208 13.444.978 5.005 1.848 7.376 4.836 8.978 11.288.693 2.795.816 4.366.808 10.271-.007 14.244-3.133 20.442-11.534 22.891-1.493.44-4.573.632-12.45.77l-10.47.177zm20.65 15.83c2.18-.886 4.289-3.388 5.136-6.068 1.047-3.326 1.486-9.778 1-14.776-.477-4.95-1.408-7.76-3.125-9.424-2.018-1.948-3.773-2.348-10.317-2.348h-5.806v16.523c0 9.085.131 16.662.285 16.824.154.161 2.741.215 5.752.115 3.996-.138 5.897-.362 7.075-.847m-54.49-45.62C23.023 99.6 20.25 94.811 19.25 82.522a54 54 0 0 1 0-10.287c1.17-13.474 4.435-17.848 14.321-19.118 3.342-.43 9.88 0 14.568.963l2.264.462.223 6.298-1.17-.231a92 92 0 0 0-5.567-.67c-14.036-1.37-16.87 1.656-16.824 17.955.047 15.592 2.572 18.464 15.415 17.547 2.695-.192 5.606-.462 6.46-.6l1.548-.247.077 3.188.062 3.18-2.557.47c-4.096.754-15.36.893-17.74.223m49.108.03c-6.29-1.994-8.839-6.898-8.839-17.008 0-12.88 4.666-18.664 15.068-18.664 10.28 0 15.361 6.299 14.468 17.932l-.246 3.188H78.12v1.517c0 1.863.847 3.988 2.125 5.32 1.601 1.671 3.526 1.964 11.442 1.74l7.107-.2.146 2.503c.077 1.378.046 2.617-.07 2.748-.115.131-2.101.516-4.419.847-4.982.716-12.866.755-15.014.077M92.735 79.04c-.385-4.727-2.687-7.006-7.06-6.983-4.797.015-7.015 2.279-7.67 7.815l-.192 1.601h15.114zm-36.111 5.074V66.767h7.546v34.694h-7.546zm.077-27.618.115-3.865 7.354-.215v7.946H56.6z"/></svg>