<svg xmlns="http://www.w3.org/2000/svg" width="192" height="192" viewBox="0 0 192 192"><path d="M113.72 38.034c-7.95-.184-16.114 1.983-23.791 6.342-9.5 5.374-17.658 13.69-24.255 24.687l-.12.224-.128.2c-5.566 10.492-8.557 21.032-8.885 31.037C45.033 95.102 37.436 85.48 35.51 74.253c-1.223-7.15-6.19-9.453-11.332-8.75v-.031a9.916 9.916 0 0 0-7.98 11.732c2.982 19.489 16.841 35.635 37.09 43.152q3.663 1.36 7.405 2.271a50.06 50.06 0 0 0 17.074 20.681c9.909 6.957 22.432 10.668 35.507 10.668q5.39 0 10.836-.864c18.337-2.87 35.411-12.499 49.358-27.878a9.79 9.79 0 0 0-.671-13.81h-.016a9.757 9.757 0 0 0-13.795.671c-13.78 15.195-28.206 20.185-37.89 21.696-11.868 1.871-23.567-.504-32.068-6.494a32 32 0 0 1-3.855-3.222c14.235-1.72 28.198-7.846 40.297-18.05l.4-.327.056-.064.28-.24.984-.96 1.343-1.335 1.064-1.072a72 72 0 0 0 1.711-1.863l.536-.576.424-.504a80 80 0 0 0 1.871-2.231l.168-.216.16-.208q.848-1.08 1.64-2.167l.28-.376a64 64 0 0 0 1.783-2.607l.72-1.16.087-.136a56 56 0 0 0 2.631-4.814l.32-.704q.544-1.151 1.008-2.295l.04-.12a48 48 0 0 0 1.28-3.734l.023-.032q.296-1.056.544-2.112l.184-.823.208-.928-.048.08a31.2 31.2 0 0 0-.936-15.754c-3.758-11.236-14.155-19.09-27.11-20.497a40 40 0 0 0-3.399-.216m-.44 19.553q.88.016 1.72.112c5.358.584 9.309 3.319 10.668 7.261 1.52 4.343-.048 10.044-4.167 16.162h-.016C110.45 97.22 91.61 105.353 76.222 105.01c-.623-7.893 1.44-16.794 6.35-26.119 9.677-16.018 21.88-21.48 30.71-21.304"/></svg>