<svg width="192" height="192" fill="none" xmlns="http://www.w3.org/2000/svg"><circle cx="96" cy="96" r="74" stroke="#000" stroke-width="12" stroke-linecap="round" stroke-linejoin="round"/><path d="M79.856 119.981c-4.418 7.652-14.203 10.274-21.856 5.856-7.653-4.418-10.275-14.204-5.856-21.856C56.562 96.328 66.347 93.706 74 98.124c7.653 4.419 10.275 14.204 5.856 21.857Zm0 0 38-65.818m-5.712 65.818c4.418 7.652 14.203 10.274 21.856 5.856 7.653-4.418 10.275-14.204 5.856-21.856-4.418-7.653-14.203-10.275-21.856-5.857-7.653 4.419-10.275 14.204-5.856 21.857Zm0 0-38-65.818" stroke="#000" stroke-width="12" stroke-linecap="round" stroke-linejoin="round"/></svg>