<svg width="192" height="192" fill="none" xmlns="http://www.w3.org/2000/svg"><path d="M132 58a36.001 36.001 0 0 0-72 0M44 98a6 6 0 0 1 6-6h92a6 6 0 0 1 6 6v66a6 6 0 0 1-6 6H50a6 6 0 0 1-6-6V98Z" stroke="#000" stroke-width="12" stroke-linecap="round" stroke-linejoin="round"/><path d="m65 150 12.65-22M110 110l-23 40m22 0 17.825-31" stroke="#000" stroke-width="10" stroke-linecap="round" stroke-linejoin="round"/><path d="M60 58v34m72-34v34" stroke="#000" stroke-width="12" stroke-linecap="round" stroke-linejoin="round"/></svg>