<svg width="192" height="192" fill="none" xmlns="http://www.w3.org/2000/svg"><path d="M70 71a5 5 0 1 1 0 10 5 5 0 0 1 0-10Z" stroke="#000" stroke-width="10" stroke-linecap="round" stroke-linejoin="round"/><path d="M96 170c40.869 0 74-33.131 74-74 0-40.87-33.131-74-74-74-40.87 0-74 33.13-74 74 0 40.869 33.13 74 74 74Z" stroke="#000" stroke-width="12" stroke-linecap="round" stroke-linejoin="round"/><path d="M71 123s8 15 24 15 24-15 24-15m14-46a13.998 13.998 0 0 0-23.899-9.9A13.998 13.998 0 0 0 105 77c0 10 14 24 14 24s14-13 14-24Z" stroke="#000" stroke-width="12" stroke-linecap="round" stroke-linejoin="round"/></svg>