<svg width="192" height="192" fill="none" xmlns="http://www.w3.org/2000/svg"><path d="M96 127v40m44-26H52" stroke="#000" stroke-width="10" stroke-linecap="round" stroke-linejoin="round"/><path d="M25 31a6 6 0 0 1 6-6h130a6 6 0 0 1 6 6v130a6 6 0 0 1-6 6H31a6 6 0 0 1-6-6V31Z" stroke="#000" stroke-width="12" stroke-linecap="round" stroke-linejoin="round"/><path d="M167 161c0-16.178-7.48-31.694-20.795-43.134C132.89 106.427 114.83 100 96 100s-36.89 6.427-50.205 17.866C32.48 129.306 25 144.822 25 161" stroke="#000" stroke-width="12" stroke-linecap="round" stroke-linejoin="round"/><path d="M136 167c0-14.322-4.214-28.057-11.716-38.184a49.18 49.18 0 0 0-1.412-1.816M56 167c0-14.322 4.214-28.057 11.716-38.184.46-.622.932-1.228 1.412-1.816" stroke="#000" stroke-width="10" stroke-linecap="round" stroke-linejoin="round"/></svg>