<svg xmlns="http://www.w3.org/2000/svg" width="192" height="192" viewBox="0 0 192 192"><path d="M47.22 16a9.735 9.735 0 0 0-9.756 9.756v4.034h77.738l-9.728 10.732 9.728 10.732H37.464v114.99A9.735 9.735 0 0 0 47.22 176h64.729l42.588-42.59V58.59L111.949 16zm84.844 0 22.473 22.473V25.756A9.735 9.735 0 0 0 144.781 16zM87.942 32.879q-1.657 0-2.877.549-1.22.538-2.022 1.534-.803.995-1.189 2.408-.386 1.404-.387 3.13c0 1.727.13 2.202.387 3.15q.386 1.414 1.18 2.42a5.4 5.4 0 0 0 2.012 1.556q1.218.548 2.875.548 1.575 0 2.774-.548a5.46 5.46 0 0 0 2.022-1.555q.813-1.007 1.22-2.42.416-1.412.417-3.13 0-1.737-.417-3.14-.407-1.412-1.22-2.408a5.4 5.4 0 0 0-2.012-1.545q-1.189-.549-2.763-.549m-29.99.234V47.97h1.89v-5.783h1.525q1.544.001 2.591-.385 1.058-.397 1.698-1.048.64-.66.915-1.513.284-.854.283-1.78 0-1.035-.304-1.848a3.3 3.3 0 0 0-.946-1.362q-.64-.56-1.625-.844-.986-.295-2.348-.294zm11.991 0V47.97h1.89v-6.137h2.329l3.567 6.137h2.225l-4.045-6.656a6.4 6.4 0 0 0 1.088-.518 3.8 3.8 0 0 0 .934-.783q.417-.477.661-1.138.254-.66.253-1.545 0-2.124-1.29-3.17-1.29-1.047-3.993-1.047zm17.999 1.433q1.158 0 1.991.416a3.55 3.55 0 0 1 1.372 1.18q.54.76.793 1.868.254 1.109.253 2.512 0 1.392-.253 2.51-.254 1.107-.802 1.89a3.6 3.6 0 0 1-1.384 1.189q-.833.405-1.99.405-1.16 0-2.004-.405a3.7 3.7 0 0 1-1.381-1.19q-.539-.782-.802-1.89-.265-1.116-.265-2.51 0-1.402.265-2.51.264-1.108.811-1.87.55-.772 1.393-1.18.844-.415 2.003-.415m-28.1.183h1.625q1.77 0 2.603.701.833.692.833 2.135 0 .822-.234 1.402-.234.569-.702.934-.456.356-1.168.518a7.4 7.4 0 0 1-1.646.164h-1.311zm11.991 0h1.627q.885 0 1.525.153.65.142 1.067.466.425.325.629.833.213.509.213 1.24 0 .701-.192 1.23a2 2 0 0 1-.6.874q-.407.345-1.047.528-.64.173-1.555.174h-1.667zm33.434 28.588 28.78 16.34.002 32.683-28.779 16.343-28.78-16.34-.002-32.683zm49.27 90.21L132.064 176h12.717a9.735 9.735 0 0 0 9.756-9.756z"/></svg>