<svg xmlns="http://www.w3.org/2000/svg" width="192" height="192" viewBox="0 0 192 192"><path d="M116.02 126.8a7.623 7.623 0 1 0 10.78-10.78l-23.1-23.1V65.2a7.7 7.7 0 1 0-15.4 0v33.879zM96 172.999a75.3 75.3 0 0 1-30.03-6.074 77.9 77.9 0 0 1-24.443-16.452 77.9 77.9 0 0 1-16.461-24.443A75.3 75.3 0 0 1 19 96a75.3 75.3 0 0 1 6.075-30.03 77.9 77.9 0 0 1 16.452-24.443A77.9 77.9 0 0 1 65.97 25.066 75.3 75.3 0 0 1 96 19a75.3 75.3 0 0 1 30.03 6.066 77.9 77.9 0 0 1 24.443 16.46 77.9 77.9 0 0 1 16.46 24.444A75.3 75.3 0 0 1 173 96a75.3 75.3 0 0 1-6.074 30.03 77.9 77.9 0 0 1-16.452 24.443 77.9 77.9 0 0 1-24.443 16.46A75.3 75.3 0 0 1 96 173"/></svg>