<svg xmlns="http://www.w3.org/2000/svg" width="192" height="192"><path d="M29.084 34.49A10.06 10.06 0 0 0 19 44.574v102.85a10.06 10.06 0 0 0 10.084 10.084h50.418a10.06 10.06 0 0 0 10.084-10.084v-39.326H53.285V83.897h36.301V44.571a10.06 10.06 0 0 0-10.084-10.084zm83.415 0a10.06 10.06 0 0 0-10.084 10.084V83.9h17.928V72.532a.935 1.544 0 0 1 .902-1.544.935 1.544 0 0 1 .5.207l24.614 23.468a.935 1.544 0 0 1 0 2.674l-24.614 23.468a.935 1.544 0 0 1-1.402-1.337V108.1h-17.928v39.326a10.06 10.06 0 0 0 10.084 10.084h50.418a10.06 10.06 0 0 0 10.084-10.084V44.576a10.06 10.06 0 0 0-10.084-10.084z"/></svg>