<svg width="192" height="192" fill="none" xmlns="http://www.w3.org/2000/svg"><path d="M37 131h118a14.999 14.999 0 1 0-4.354-29.354c-.955.289-1.874.672-2.746 1.141a15.993 15.993 0 0 0-7.9-15.643 15.998 15.998 0 0 0-11.512-1.754 30.986 30.986 0 0 0-16.777-22.193 31.003 31.003 0 0 0-39.558 10.688 22.997 22.997 0 0 0-28.932 5.524 23 23 0 0 0-4.08 21.745 14.995 14.995 0 0 0-17.013 12.888A14.999 14.999 0 0 0 37 131Zm0 0a65.997 65.997 0 0 0 60.976-40.743A65.998 65.998 0 0 0 103 65m-1 66c5.973 0 11.789-4.502 16.6-12.849 4.81-8.347 8.362-20.1 10.136-33.544" stroke="#000" stroke-width="12" stroke-linecap="round" stroke-linejoin="round"/></svg>