<svg xmlns="http://www.w3.org/2000/svg" width="192" height="192" viewBox="0 0 192 192"><path d="M70.634 70.138a28.714 28.714 0 0 0-37.763 30.217h-.16a16.925 16.925 0 0 0-1.045 33.801 73.05 73.05 0 0 0 70.913-72.986q-.008-1.543-.08-3.062a40 40 0 0 0-4.485-.305 36.5 36.5 0 0 0-27.388 12.336m66.638 15.735q-.008-1.64-.08-3.255a24 24 0 0 0-4.798-.763 36.566 36.566 0 0 0-61.752-11.717 28.714 28.714 0 0 0-37.763 30.217h-.161a16.933 16.933 0 0 0 0 33.849h86.423a73.13 73.13 0 0 0 18.138-48.331m22.317 14.474q-2.596 0-5.063.771a23.79 23.79 0 0 0-22.14-19.263A36.566 36.566 0 0 0 70.633 70.14a28.714 28.714 0 0 0-37.763 30.217h-.16a16.933 16.933 0 0 0 0 33.85h126.88a16.933 16.933 0 0 0 0-33.85z"/></svg>