<svg xmlns="http://www.w3.org/2000/svg" width="192" height="192" viewBox="0 0 192 192"><path d="M165.33 55.977a40.84 40.84 0 0 0-34.378-20.522 41.14 41.14 0 0 0-14.971-14.262A41.15 41.15 0 0 0 95.965 16a41.21 41.21 0 0 0-34.988 19.454 41.57 41.57 0 0 0-34.378 20.523 41.06 41.06 0 0 0-5.491 19.906 41.05 41.05 0 0 0 4.89 20.064 41.1 41.1 0 0 0-4.902 20.1 41.14 41.14 0 0 0 5.507 19.937 41.12 41.12 0 0 0 34.378 20.53A41.16 41.16 0 0 0 95.969 176a41.15 41.15 0 0 0 34.987-19.486 41.1 41.1 0 0 0 19.885-5.766 41.1 41.1 0 0 0 14.545-14.732 41.08 41.08 0 0 0 .59-40.065 41.87 41.87 0 0 0-.642-39.973zm-31.672-15.533c5.667.634 11.11 2.586 15.884 5.702s8.751 7.313 11.612 12.246a36.4 36.4 0 0 1 4.85 16.167 36.4 36.4 0 0 1-2.953 16.618 41.1 41.1 0 0 0-12.887-11.558 41.05 41.05 0 0 0-16.506-5.22 39.2 39.2 0 0 0 3.742-17.17 46.1 46.1 0 0 0-3.742-16.781zm0 38.937a37.8 37.8 0 0 1 14.071 4.523 39.8 39.8 0 0 1 12.648 12.043 38.05 38.05 0 0 1-12.648 12.186 33.7 33.7 0 0 1-14.071 4.559 41.2 41.2 0 0 0 3.562-16.745 40.2 40.2 0 0 0-3.562-16.566m-37.694-58.71a36.4 36.4 0 0 1 16.35 3.873 36.35 36.35 0 0 1 12.864 10.807 40.4 40.4 0 0 0-16.39 5.416 39.7 39.7 0 0 0-13.039 11.792A39.7 39.7 0 0 0 82.71 40.767a43.5 43.5 0 0 0-16.354-5.416 38 38 0 0 1 13.122-10.728 37.95 37.95 0 0 1 16.482-3.949zm6.842 87.354a40.65 40.65 0 0 0 22.372 9.548 36.1 36.1 0 0 1-11.102 9.91 36.05 36.05 0 0 1-14.159 4.591 39.9 39.9 0 0 0 2.885-23.941v-.108zm0-24.225a41.25 41.25 0 0 0-2.885-24.013 37.27 37.27 0 0 1 25.257 14.501 43.16 43.16 0 0 0-22.372 9.62zm-10.975 48.453a37.06 37.06 0 0 1-25.257-14.465 42 42 0 0 0 22.376-9.548 41.6 41.6 0 0 0 2.885 24.12v-.107zM88.946 83.8a41.1 41.1 0 0 0-22.375-9.512 36 36 0 0 1 25.26-14.501 41.4 41.4 0 0 0-2.885 24.12zM63.685 40.121a37 37 0 0 1 16.745 4.774 39.2 39.2 0 0 1 11.186 9.938 41.2 41.2 0 0 0-16.287 5.3A41.1 41.1 0 0 0 62.617 71.61a38.2 38.2 0 0 1-3.1-14.5 36.56 36.56 0 0 1 4.168-16.889v-.107zm-1.068 41.22a40.3 40.3 0 0 0 19.487 14.501 42.44 42.44 0 0 0-19.487 14.465 38 38 0 0 1-3.1-14.465 34.4 34.4 0 0 1 3.1-14.394zm-4.347 70.187a36.5 36.5 0 0 1-15.884-5.702 36.5 36.5 0 0 1-11.612-12.246 36.5 36.5 0 0 1-4.85-16.167 36.4 36.4 0 0 1 2.953-16.617 41.8 41.8 0 0 0 12.648 11.4 42.4 42.4 0 0 0 16.745 5.38 39.7 39.7 0 0 0-3.563 17.171 41.3 41.3 0 0 0 3.563 16.888zm0-38.73a37.2 37.2 0 0 1-14.071-4.559 35.6 35.6 0 0 1-12.612-12.222 38 38 0 0 1 12.612-12.218 34.2 34.2 0 0 1 14.07-4.523 42 42 0 0 0-3.494 16.761 41.9 41.9 0 0 0 3.495 16.761M41.704 79.667a37.5 37.5 0 0 0-12.612 11.401 36.6 36.6 0 0 1-2.933-16.57 36.65 36.65 0 0 1 4.786-16.135 37.5 37.5 0 0 1 11.688-12.194 37.6 37.6 0 0 1 15.852-5.834 41.1 41.1 0 0 0-3.563 16.781 42.5 42.5 0 0 0 3.742 17.171 41.3 41.3 0 0 0-16.96 5.487zm17.813 55.08a33.9 33.9 0 0 1 3.1-14.501 41.52 41.52 0 0 0 28.999 16.78 36.4 36.4 0 0 1-11.186 9.94 37.5 37.5 0 0 1-16.745 4.773 35.4 35.4 0 0 1-4.168-16.888v-.107zm36.447 36.446a36.22 36.22 0 0 1-29.178-14.716 41.96 41.96 0 0 0 29.389-17.172 39.7 39.7 0 0 0 13.039 11.791 42.7 42.7 0 0 0 16.354 5.38 37.66 37.66 0 0 1-29.604 14.82v-.108zm32.063-19.454a37.6 37.6 0 0 1-16.781-4.774 39.8 39.8 0 0 1-11.186-9.939 41.12 41.12 0 0 0 28.999-16.781 38.2 38.2 0 0 1 3.1 14.501 33.1 33.1 0 0 1-4.097 17.1zm1.247-41.22a40.44 40.44 0 0 0-19.45-14.501 42.74 42.74 0 0 0 19.45-14.501 38.1 38.1 0 0 1 3.1 14.501 37.2 37.2 0 0 1-3.064 14.609zm0-38.726a41.5 41.5 0 0 0-29-16.741A36.35 36.35 0 0 1 112.578 44.5a36.4 36.4 0 0 1 15.665-4.16 35.6 35.6 0 0 1 4.132 16.96 38.8 38.8 0 0 1-3.064 14.605l-.036-.108zm31.708 62.026a37.4 37.4 0 0 1-11.684 12.202 37.5 37.5 0 0 1-15.856 5.826 41.3 41.3 0 0 0 3.562-16.781 42.5 42.5 0 0 0-3.742-17.171 41.9 41.9 0 0 0 16.781-5.416 37.5 37.5 0 0 0 12.648-11.365 269 269 0 0 1 1.853 5.165 34.75 34.75 0 0 1-3.563 27.54"/></svg>