<svg xmlns="http://www.w3.org/2000/svg" width="192" height="192" viewBox="0 0 192 192"><path d="M36.825 16.001h-.64a10.4 10.4 0 0 0-3.872.704 6.4 6.4 0 0 0-2.68 1.888 5.2 5.2 0 0 0-1.152 2.52 32 32 0 0 0-.192 3.92v7.04a17.6 17.6 0 0 0 .632 5.28 4.96 4.96 0 0 0 2.56 2.752c1.544.72 3.24 1.064 4.936 1a9.24 9.24 0 0 0 4.848-1.168 5.6 5.6 0 0 0 2.544-2.76c.48-1.72.672-3.504.608-5.28v-.936h-6.824v3.064a8 8 0 0 1-.24 2.52 1.04 1.04 0 0 1-.352.344 1.2 1.2 0 0 1-1.648-.344 8 8 0 0 1-.216-2.32V22.993a8 8 0 0 1 .216-2.368c.152-.368.56-.544 1.064-.544q.752 0 .96.456a7.2 7.2 0 0 1 .216 2.328v4.192h6.776l.024-.016v-2.32a15.2 15.2 0 0 0-.608-4.984 5.28 5.28 0 0 0-2.584-2.648 10.4 10.4 0 0 0-4.368-1.088zm26.776.552v24.12h10.936v-4.8h-4.112v-19.32zm12.584 0v24.12h10.936v-4.8h-4.112v-19.32zm37.752 0v14.344q0 4.08.176 5.344a5.04 5.04 0 0 0 1.064 2.432 6.1 6.1 0 0 0 2.672 1.872q2 .744 4.128.72a10.4 10.4 0 0 0 3.696-.616 6 6 0 0 0 2.496-1.776 4.8 4.8 0 0 0 1.152-2.328 32 32 0 0 0 .2-3.872V16.569l-6.8-.016v17.728q.048 1.184-.176 2.328a.8.8 0 0 1-.824.48.72.72 0 0 1-.784-.44 8 8 0 0 1-.176-2.016v-18.08zm32.704 0 4.8 15.384v8.736h6.304v-8.72l5-15.384v-.008h-6.304q-1.296 5.664-1.888 9.52-.208-2.448-1.648-9.52zm-44.928 0-.84.016h-5.08v24.08h8.56q1.824.048 3.648-.24a4.8 4.8 0 0 0 2.048-.864c.56-.44.96-1.04 1.152-1.72q.416-2.12.32-4.32v-8.464a32 32 0 0 0-.216-4.584 4.5 4.5 0 0 0-1.128-2.112 5.36 5.36 0 0 0-2.656-1.368 34.4 34.4 0 0 0-5.808-.432zm-53.016.016-3.456 24.104h7.064l.344-4.32h2.416l.368 4.32h6.968l-3.872-24.104zm82.296 0v4.824h4.048v19.304h6.824V21.393h4v-4.824zm-28.016 4.096q.576.008 1.136.232a1.04 1.04 0 0 1 .496.672q.16 1.056.112 2.112v9.384a7.2 7.2 0 0 1-.344 2.96c-.24.368-.8.544-1.784.544V20.681zm-49.064 1.232q.528 6.064 1.016 10.168l-2.304-.016q.296-3.2 1.28-10.16zm33.528.392c-.392 0-.8.064-1.152.24a1.84 1.84 0 0 0-.776.696 2.4 2.4 0 0 0-.352 1.016c0 .368-.04 1-.04 1.896v1.544q-.024.952.04 1.912a2.4 2.4 0 0 0 .352 1 1.84 1.84 0 0 0 .776.688 2.88 2.88 0 0 0 2.288 0 1.84 1.84 0 0 0 .776-.688 2.4 2.4 0 0 0 .352-1.024q.016-.56.024-1.872v-1.536q.032-.952-.04-1.912a2.4 2.4 0 0 0-.344-1.016 1.84 1.84 0 0 0-.784-.696 3.2 3.2 0 0 0-1.112-.24zm3.04.216v8.848h2.024v-3.72h1.24v-1.68h-1.24v-1.688h1.416v-1.76zm-3.056 1.328q.072 0 .152.04l.08.128q.08.4.048.784h-.024v4.064a4.8 4.8 0 0 1-.04 1q-.008.088-.088.16a.32.32 0 0 1-.328 0 .24.24 0 0 1-.08-.136 4 4 0 0 1-.048-.936v-4.128a2.4 2.4 0 0 1 .08-.824.24.24 0 0 1 .112-.112q.064-.048.136-.04m36.944 19.776v68.344h15.08V85.529l.504-.392c.496.392 1.256.672 1.432 1.176 2.824 8.536 5.584 17.08 8.368 25.624h13.232c.176-5.328.416-10.632-2.104-15.632-1.224-2.384-1.96-5.016-2.896-7.536l-3.04-8.264c4.368-2 6.192-5.472 6.24-9.928.064-5.584.128-11.168-.024-16.736-.176-6.536-4.136-10.24-10.696-10.24h-24.272zm-31.6.08c-.128.768-.28 1.48-.392 2.2-2.28 15.064-4.456 30.16-6.888 45.2-1.128 6.936-1.608 13.84-1.216 20.848l13.928.016 1.24-13.232h7.128l1.216 13.232h13.976c-.024-4.456.408-8.976-.176-13.36-1.68-12.824-3.784-25.56-5.712-38.336l-2.544-16.56zm-64.216.024c0 4.368-.416 8.672.08 12.888 1.592 13.432 3.504 26.84 5.304 40.248.672 5.024 1.44 10.064 2.16 15.088v.016h18.4l2.936-41.44.608-.088c.152.48.392.96.432 1.456q1.36 19.144 2.696 38.272c.04.608.2 1.2.304 1.8h18.384c2.48-18.512 5.04-37.008 7.344-55.544.504-4.128.064-8.416.064-12.672H73.969c-1 13.496-1.976 26.904-2.96 40.32h-.912q-1.472-20.224-2.96-40.344H48.553l-2.88 40.336h-.904q-1.472-20.2-2.96-40.336zm113.66 12.224q1.32-.024 2.608.12c.504.048 1.216 1.088 1.24 1.68.104 4.448.064 8.928.064 13.408 0 1.192-.56 1.84-1.784 1.84h-4.76l-.024-17.016c.896 0 1.776-.032 2.656-.032m-38.816 6.992c.976 7.032 1.264 14.128 2.024 21.336v.024-.024h-4.736l1.912-21.32zm-13.984 51.824a8 8 0 0 0-.856 0c-5.304.288-10.672.224-16 0-2.624-.08-6.4 2.288-7.192 4.896a22.4 22.4 0 0 0-.976 5.8c-.064 13.152.024 26.296-.064 39.44-.04 4.984 1.352 8.984 6.24 11.088l20.776.024c2.496-1.344 4.864-2.888 5.544-5.912a22.4 22.4 0 0 0 .56-4.736q.032-19.968.024-39.944a32 32 0 0 0-.152-2.8c-.368-4.08-3.68-7.64-7.904-7.848zm10.616.072c-.416 20.336.608 40.84-.064 61.152h11.864v-26.64l.656-.112c.192.32.48.656.584 1.024l8.024 25.248a1.6 1.6 0 0 1 0 .48h11.888c.424-20.344.168-40.696.168-61.04h-12.016v26.512l-.544.08c-.216-.52-.456-1.016-.624-1.56l-6.784-21.208c-1.264-3.936-1.264-3.936-5.344-3.936zm35.944.04v61.12h27.736v-12.568l-9.872-.176c-1.36-.024-2.72 0-4.192 0v-15.688h14.064v-12.544q-5.256-.088-10.496-.152c-1.136-.016-2.288 0-3.544 0v-7.432h14.056v-12.56zm-106.98.088v12.696h17.6c-.256.56-.392.912-.56 1.256l-16.52 34.688c-.28.584-.632 1.24-.632 1.84-.04 3.504.04 7.024.064 10.544v.024h33.04v-12.712h-17.84l.4-.96q8.424-17.624 16.824-35.248c.224-.456.544-.912.544-1.36.04-3.568.024-7.12.024-10.768zm51.16 10.784c3.8-.024 3.8-.024 3.8 3.736v33.008c0 2.24-.216 2.456-2.456 2.456h-1.152c-2.152 0-2.408-.256-2.408-2.344v-17.168q0-8.728.024-17.496c0-1.888.304-2.192 2.192-2.192"/></svg>