<svg xmlns="http://www.w3.org/2000/svg" width="192" height="192" viewBox="0 0 192 192"><path d="M28.465 39.885A12.45 12.45 0 0 0 16 52.365v87.27a12.45 12.45 0 0 0 12.465 12.48h87.27c6.903 0 12.48-5.57 12.48-12.48v-87.27c0-6.903-5.57-12.48-12.48-12.48zm43.268 18.721q1.352-.012 2.697.072a37.5 37.5 0 0 1 30.443 19.311 6.224 6.224 0 0 1-2.457 8.46 6.224 6.224 0 0 1-8.459-2.45 24.9 24.9 0 0 0-28.043-12.146A24.9 24.9 0 0 0 47.162 96.01a24.9 24.9 0 0 0 18.752 24.156 24.9 24.9 0 0 0 28.051-12.146 6.224 6.224 0 0 1 8.46-2.457 6.224 6.224 0 0 1 2.456 8.467 37.426 37.426 0 0 1-42.078 18.193A37.426 37.426 0 0 1 34.705 96.01 37.466 37.466 0 0 1 69.02 58.726a39 39 0 0 1 2.713-.12m77.254 81.037a6.23 6.23 0 0 0-6.232 6.232 6.23 6.23 0 0 0 6.232 6.233h20.781a6.23 6.23 0 0 0 6.232-6.233 6.23 6.23 0 0 0-6.232-6.232z"/></svg>