<svg xmlns="http://www.w3.org/2000/svg" width="192" height="192" viewBox="0 0 192 192"><path d="M30.071 158.31a7.345 7.345 0 0 0-7.34 7.354 7.345 7.345 0 0 0 7.34 7.34h131.52a7.345 7.345 0 0 0 7.354-7.34 7.345 7.345 0 0 0-7.354-7.354zm104.34-83.277h14.477c11.064 0 17.745-5.423 20.866-10.78 3.122-5.357 3.22-10.707 3.22-10.707V38.379c0-9.232-5.27-14.833-10.22-17.175s-9.76-2.2-9.76-2.2H19.023v91.794c-.005 10.416 6.214 16.65 11.976 19.374 5.762 2.726 11.371 2.732 11.371 2.732h69.392c10.66 0 17.034-5.716 19.862-11.209 2.829-5.492 2.791-10.899 2.791-10.899"/></svg>