<svg width="192" height="192" fill="none" xmlns="http://www.w3.org/2000/svg"><path d="M164.241 122.915C150 165 80.344 158.175 54.672 118.587 29 79 40.86 35.212 71.432 25.307m0 0a67.585 67.585 0 0 0-12.937 5.76C24.558 50.652 13.838 95.6 34.551 131.463c20.714 35.861 65.016 49.056 98.954 29.47 15.05-8.686 25.534-22.36 30.736-38.018 6.527-19.648 4.735-42.42-6.793-62.378-18.164-31.449-54.47-45.465-86.017-35.23Z" stroke="#000" stroke-width="12" stroke-linecap="round" stroke-linejoin="round"/><path d="m74 91 25 6-3-33 28 23 8-16 8 37-36 12-30-29Z" stroke="#000" stroke-width="12" stroke-linecap="round" stroke-linejoin="round"/><circle cx="94" cy="60" r="4" stroke="#000" stroke-width="8" stroke-linecap="round" stroke-linejoin="round"/><circle cx="132" cy="67" r="4" stroke="#000" stroke-width="8" stroke-linecap="round" stroke-linejoin="round"/><circle cx="70" cy="89" r="4" stroke="#000" stroke-width="8" stroke-linecap="round" stroke-linejoin="round"/></svg>