<svg xmlns="http://www.w3.org/2000/svg" width="192" height="192" viewBox="0 0 192 192"><path d="M102.45 19.152a131 131 0 0 0-14.735.12 77.135 77.135 0 0 0-68.531 70.05 149 149 0 0 0 0 13.2 77.135 77.135 0 0 0 62.321 69.253 89.3 89.3 0 0 0 22.147.917 77.06 77.06 0 0 0 68.591-87.16 77.135 77.135 0 0 0-69.794-66.38zm-3.428 8.946a67.9 67.9 0 0 1 63.584 55.225 69.3 69.3 0 0 1-3.473 37.468 67.843 67.843 0 0 1-121.27 10.359A68.005 68.005 0 0 1 88.938 28.38a68 68 0 0 1 10.089-.286zm-2.075 24.297a44 44 0 0 0-5.819.451 43.1 43.1 0 0 0-29.95 18.614 43.64 43.64 0 0 0 44.053 67.358 44.65 44.65 0 0 0 28.943-19.53c-3.525-3.173-7.474-5.828-11.26-8.676a37 37 0 0 1-6.601 8.179 28.7 28.7 0 0 1-19.26 7.127 27.4 27.4 0 0 1-19.245-8.3 30.8 30.8 0 0 1-8.841-22.899 28.87 28.87 0 0 1 8.57-20.749 28.48 28.48 0 0 1 27.5-6.991 31.95 31.95 0 0 1 16.554 12.509c3.572-3.241 7.217-6.403 10.765-9.698a43.65 43.65 0 0 0-35.408-17.396z"/></svg>