<svg xmlns="http://www.w3.org/2000/svg" width="192" height="192" viewBox="0 0 192 192"><path d="M75.841 16a8 8 0 0 0-5.646 2.34l-25.41 25.393a7.427 7.427 0 0 0 .406 10.872l41.85 36.17a6.9 6.9 0 0 1 0 10.45l-41.865 36.172a7.427 7.427 0 0 0-.39 10.872l25.41 25.393a7.986 7.986 0 0 0 11.292 0l72-72.015a7.986 7.986 0 0 0 0-11.293l-72-72.015a8 8 0 0 0-5.646-2.34zM40.06 73.29a3.674 3.674 0 0 0-3.884 3.665v38.09a3.674 3.674 0 0 0 6.068 2.792l19.404-16.643a6.844 6.844 0 0 0 0-10.388L42.244 74.163a3.67 3.67 0 0 0-2.184-.873"/></svg>