<svg xmlns="http://www.w3.org/2000/svg" width="192" height="192" viewBox="0 0 192 192"><path d="M56.662 54.156c-11.262.476-21.897 5.124-29.56 13.463-7.693 8.374-11.544 19.189-11.062 30.536.712 14.496 8.166 23.94 14.141 29.237 4.32 3.834 13.606 10.319 27.126 10.462 5.936.061 20.217-1.225 31.532-13.646a49.7 49.7 0 0 0 5.801-7.85c-.82.57-1.634 1.127-2.5 1.626-4.271 2.106-8.431 2.538-12.982.984-3.933-1.343-7.078-3.812-8.908-7.59-.774-1.6-1.324-3.38-1.54-5.146-.248-2.037-.138-4.166-.137-6.216l.09-23.036 10.93-3.17-.046 28.135c-.003 1.43-.104 2.936.133 4.348.157.939.609 1.78 1.266 2.463.92.956 2.156 1.351 3.46 1.343 1.282-.01 2.567-.424 3.46-1.38.51-.548.82-1.201.925-1.94.205-1.456.136-2.973.137-4.442l.002-28.624 5.108.984c-6.07-9.726-15.339-16.838-26.582-19.433-3.712-.882-7.151-1.19-10.794-1.108M55.165 73.38c4.087-.088 7.925 1.145 11.655 2.744v13.175c-.87-.9-1.705-1.772-2.696-2.538-2.727-2.105-5.833-3.06-9.268-2.59-2.948.401-5.555 1.856-7.352 4.246-2.196 2.922-2.955 7.063-2.417 10.634.496 3.29 2.077 6.189 4.783 8.172 4.175 3.06 9.911 2.615 13.965-.402.477-.355 2.702-2.546 2.976-2.588l.018 12.948c-3.128 1.485-6.564 2.544-10.025 2.74-6.192.353-11.959-1.418-16.578-5.61-4.782-4.339-7.07-10.02-7.393-16.395-.326-6.419 1.55-12.495 5.904-17.293 4.23-4.661 9.36-6.888 15.608-7.207q.412-.027.82-.036m111.47 1.403q-.578.014-1.17.085c-3.02.41-5.359 1.562-7.245 4.02-2.312 3.012-2.79 6.837-2.282 10.515a12.8 12.8 0 0 0 1.627 4.6c1.209 2.05 3.414 4.153 4.438 5.075 2.043 1.838 5.462 3.92 5.469 7.006.002.794-.222 1.524-.714 2.15-.801 1.02-1.996 1.566-3.267 1.693-2.575.258-5.03-.98-6.993-2.545v8.537c2.696 1.67 5.369 2.084 8.502 1.993 3.377-.42 6.323-1.371 8.51-4.145 2.237-2.838 2.781-6.63 2.358-10.142-.18-1.486-.603-3.014-1.409-4.287-.983-1.553-2.333-2.899-3.692-4.125-2.508-2.264-6.798-4.883-6.482-8.729.067-.817.342-1.682.856-2.33.644-.815 1.683-1.29 2.706-1.386 2.064-.195 4.648.918 6.354 1.974V76.84c-2.424-1.276-4.873-2.12-7.566-2.056zm-64.416.642-.02 42.495h8.66l-.012-42.495zm17.62 0-4.117 42.495h8.453L126 83.29l5.327 34.63h6.9l5.328-34.63 1.825 34.63h8.453l-4.118-42.495H138.66l-3.883 29.752-3.883-29.752z"/></svg>