<svg xmlns="http://www.w3.org/2000/svg" width="192" height="192" viewBox="0 0 192 192"><path d="m36.908 16-.042 21.067c-.001.77.01 1.542.042 2.312.713 3.6 2.721 6.267 5.488 8.568l.723.566q-.728.914-1.462 1.826l-.666.784c-6.795 8.12-10.035 17.806-9.106 28.365 1.093 6.716 5.16 14.854 10.447 19.266 1.398 1.077 2.811 2.114 3.986 3.44 1.234 4.06 1.233 4.06.818 8.417l-1.826-.913c-1.079-.538-2.157-1.074-3.231-1.621-2.567-1.31-5.14-2.585-7.776-3.752l-.872-.383q-1.548-.685-3.098-1.367l-.042 22.622v.767l-.001 1.387c.172 4.557 3.298 9.066 6.499 12.086l.851.763c1.236 1.126 2.462 2.169 3.984 2.886 1.554.682 3.113 1.337 4.586 2.182.86.632 1.077 1.236 1.315 2.26.683 4.831 3.452 9.278 6.802 12.717 5.802 5.957 13.012 7.104 20.994 7.266 3.251.058 6.174.26 9.285 1.256.302.1.594.194.886.291 3.82 1.19 7.333 3.253 9.836 6.405.198.271.2.27.394.536l.458-.463.636-.633c5.88-5.854 12.924-7.35 20.982-7.534 1.652-.035 3.305-.064 4.956-.137 6.05-.563 11.867-3.615 15.754-8.269l.685-.863c2.868-3.54 4.65-7.686 5.396-12.18q.04-.307.083-.606c3.763-.66 7.563-3.133 10.296-5.752 4.598-4.928 6.879-10.067 6.738-16.77q-.018-.825-.024-1.65l-.206-18.566c-.731 0-.732 0-1.376.293-1.738.906-3.492 1.77-5.264 2.605l-.818.385-2.508 1.178-1.733.813q-2.552 1.2-5.105 2.397-.004-1.32.023-2.638l.023-1.084c-.005-2.038-.161-3.45 1.302-4.971l1.209-.805c6.453-6.12 11.668-13.915 12.518-22.952.64-10.695-3.595-20.514-10.487-28.599l-.937-1.05c.805-.452 1.48-.882 2.193-1.461 3.255-3.5 4.241-6.663 4.173-11.388L154.535 16c-.943 0-.943 0-5.022 2.166a479 479 0 0 1-12.004 6.183l-2.036 1.017-5.413 2.702-5.533 2.763-7.328 3.66-2.798 1.396-3.446 1.719-1.615.803-.756.376c-4.904 2.434-10.19 4.737-12.223 10.228l-.274.96h-.73v-.73c-1.325-3.644-4.502-6.385-7.922-8.083a63 63 0 0 1-4.237-2.071c-3.93-2.121-3.929-2.121-13.732-6.994-4.483-2.228-8.97-4.446-13.393-6.794a120 120 0 0 0-5.743-2.893 159 159 0 0 1-8.054-4.011l-.868-.47-.818-.441c-1.19-.649-2.394-1.066-3.68-1.486zm29.793 33.987c5.05.202 10.178 1.975 13.969 4.83.266.21.53.42.805.635l.69.51c4.394 3.434 7.086 9.084 8.078 14.467.304 3.396.252 6.949-.732 10.23l-.285.958c-2.1 6.354-6.081 11.033-11.938 14.157-6.164 2.824-13.135 3.434-19.565 1.049-6.62-2.716-11.33-7.679-14.17-14.252-2.133-5.811-1.785-12.878.774-18.462 2.956-6.114 7.581-10.031 13.77-12.674.309-.132.616-.266.935-.402 1.745-.602 3.609-.938 5.513-1.036q1.074-.055 2.156-.01m57.832.215 1.072.012c6.531.15 12.344 2.691 16.873 7.43l.699.679c4.262 4.402 5.993 10.678 5.93 16.644-.266 6.424-2.926 12.728-7.682 17.133-6.005 4.764-12.477 6.7-20.134 6.093-6.314-1.117-11.893-4.453-15.764-9.573-2.982-4.514-4.542-9.06-4.487-14.49l.01-1.166c.137-6.495 2.958-12.05 7.625-16.554 4.497-3.902 9.867-6.3 15.858-6.208m.637 23.668a10.2 10.2 0 0 0-7.897 3.5c-1.999 2.74-2.128 5.459-1.827 8.768.816 2.447 2.016 4.04 3.996 5.658 2.424 1.78 4.776 1.972 7.693 1.647 2.455-.554 4.122-1.6 5.671-3.581 1.681-2.509 2.382-4.715 2-7.743-.549-2.95-2.045-5.046-4.464-6.797a10.7 10.7 0 0 0-5.172-1.452m-59.086.097c-1.023.026-2.06.2-3.126.526l-1.21.685c-1.115.622-2.03 1.275-2.923 2.192-1.548 2.278-2.508 4.46-2.312 7.24.434 2.887 1.927 5.132 4.138 7.007 2.479 1.634 4.714 2.29 7.672 1.826 2.634-.752 4.812-2.213 6.409-4.44 1.565-2.706 1.796-5.536 1.02-8.558-.92-2.347-2.429-4.124-4.612-5.383-1.69-.768-3.353-1.138-5.056-1.095m-28.811 39.566c1.578.49 3.017 1.1 4.494 1.84l.664.333 41.922 20.874c5.334 2.457 8.702 4.54 11.003 10.195l.364 1.097.496-1.055.668-1.39.324-.691c1.646-3.38 4.6-5.504 7.897-7.122l48.083-23.809c.615-.272.614-.272 1.344-.272q.042 2.64.061 5.283.008.896.023 1.792c.091 5.878-.805 9.65-4.96 14.044-2.12 2.09-4.496 3.369-7.136 4.664l-43.89 21.9-1.12.557c-1.972.642-3.48-.043-5.262-.936l-41.303-20.711c-10.857-5.464-10.857-5.463-13.334-11.473-.417-1.532-.43-2.91-.41-4.487z"/></svg>