<svg width="192" height="192" fill="none" xmlns="http://www.w3.org/2000/svg"><path d="M170 104A73.999 73.999 0 0 0 43.674 51.674 74 74 0 0 0 22 104m74 52a14.001 14.001 0 0 1-19.358 12.934A14.003 14.003 0 0 1 68 156M96 22v8m0 74v52" stroke="#000" stroke-width="12" stroke-linecap="round" stroke-linejoin="round"/><path d="M22 104s5-3 15.5-3 16.5 3 21.5 3 11-3 21.5-3 15.5 2 15.5 2m74 1s-5-3-15.5-3-16.5 3-21.5 3-11-3-21.5-3-15.5 2-15.5 2m-28 45v8" stroke="#000" stroke-width="12" stroke-linecap="round" stroke-linejoin="round"/></svg>