<svg width="191" height="192" fill="none" xmlns="http://www.w3.org/2000/svg"><path d="M53.719 61c-4.18 0-8.32.828-12.182 2.436a31.821 31.821 0 0 0-10.328 6.937 32.01 32.01 0 0 0-6.9 10.381 32.145 32.145 0 0 0 0 24.492 32.008 32.008 0 0 0 6.9 10.381 31.813 31.813 0 0 0 10.328 6.937A31.693 31.693 0 0 0 53.719 125M137 125a31.996 31.996 0 0 0 22.627-9.373 31.996 31.996 0 0 0 0-45.254A31.998 31.998 0 0 0 137 61" stroke="#000" stroke-width="12" stroke-linecap="round" stroke-linejoin="round"/><path d="M53.719 125h19.184a8 8 0 0 0 6.981-4.093l31.232-55.813A7.998 7.998 0 0 1 118.097 61h19.184m-32.828 80 6.663-11.907a8 8 0 0 1 6.981-4.093h19.184M53.719 61h23.875" stroke="#000" stroke-width="12" stroke-linecap="round" stroke-linejoin="round"/></svg>