<svg xmlns="http://www.w3.org/2000/svg" width="192" height="192" viewBox="0 0 192 192"><path d="M20.821 19v94.362h44.215a55 55 0 0 0-.317 5.899c0 29.608 23.865 53.74 53.238 53.74s53.222-24.131 53.222-53.74c0-29.608-23.848-53.756-53.222-53.756-1.107 0-2.203.05-3.292.117V19zm8.556 8.556h76.733v39.319c-19.033 4.385-34.194 19.084-39.42 37.932H29.378zm88.58 46.504c24.7 0 44.666 20.168 44.666 45.2 0 25.034-19.965 45.185-44.666 45.185s-44.683-20.151-44.683-45.184c0-2.002.153-3.967.4-5.9h40.99V74.195a45 45 0 0 1 3.293-.134zm-11.847 1.604v29.142H75.614c4.71-14.177 16.147-25.177 30.496-29.142"/></svg>