<svg xmlns="http://www.w3.org/2000/svg" width="192" height="192" viewBox="0 0 192 192"><path d="M70.39 162.17a66.8 66.8 0 0 1-35.04-18.432 68.8 68.8 0 0 1-18.672-36.905c-.688-4.136-.8-6.896-.568-13.296.32-8.616.96-12.304 3.392-19.568 6.712-20.032 24.152-36.777 44.161-42.393 7.76-2.176 12.624-2.56 32.688-2.56h18.944v40.641h19.192c15.024 0 19.776.16 21.888.72 11.368 3.04 19.656 13.904 19.624 25.768-.032 12.672-9.776 24.224-22.072 26.168-1.792.288-11.216.52-20.944.52h-17.688v40.145l-20.448-.048c-15.4-.032-21.44-.224-24.456-.76m44.401-65.921V70.153l-18.44.016c-10.824.008-19.36.224-20.68.528-11.24 2.592-19.6 13.376-19.576 25.264 0 7.64 2.336 13.24 7.728 18.64 3.912 3.912 7.456 5.888 12.52 6.992 2.216.48 8.032.68 20.76.704l17.688.04z"/></svg>