<svg width="192" height="192" fill="none" xmlns="http://www.w3.org/2000/svg"><ellipse cx="145" cy="124" rx="16" ry="18" stroke="#000" stroke-width="12" stroke-linecap="round" stroke-linejoin="round"/><path d="M146.134 105.449c-2.33-12.75-9.247-24.299-19.533-32.612-10.286-8.314-23.283-12.86-36.7-12.837-13.418.023-26.398 4.612-36.654 12.96-10.256 8.348-17.131 19.92-19.415 32.678-2.284 12.759.17 25.885 6.93 37.07 6.759 11.184 17.391 19.708 30.024 24.073a58.948 58.948 0 0 0 39.036-.214c12.58-4.502 23.112-13.143 29.739-24.4" stroke="#000" stroke-width="12" stroke-linecap="round" stroke-linejoin="round"/><path d="M90 82a34.849 34.849 0 0 0-15.038 3.403 33.806 33.806 0 0 0-11.936 9.508 32.548 32.548 0 0 0-6.373 13.651 32.058 32.058 0 0 0 .505 14.979" stroke="#000" stroke-width="12" stroke-linecap="round" stroke-linejoin="round"/><circle cx="136" cy="36" r="14" stroke="#000" stroke-width="12" stroke-linecap="round" stroke-linejoin="round"/><path d="M72 63s14-41 64-41" stroke="#000" stroke-width="12" stroke-linecap="round" stroke-linejoin="round"/></svg>