<svg xmlns="http://www.w3.org/2000/svg" width="192" height="192" viewBox="0 0 192 192"><path d="M109.93 122.51v14.011a6.657 6.657 0 1 1-4.435 0v-14.003a26.47 26.47 0 0 1-14.99-6.224l-9.88 9.921a6.657 6.657 0 1 1-3.136-3.152l9.89-9.912a26.7 26.7 0 0 1-6.208-15.022H67.176a6.673 6.673 0 1 1 0-4.436h14.003a26.63 26.63 0 0 1 6.207-15.022L77.49 68.76a6.689 6.689 0 1 1 3.128-3.152l9.889 9.92a26.47 26.47 0 0 1 14.989-6.215V55.301a6.657 6.657 0 1 1 4.435 0v14.011a26.47 26.47 0 0 1 16.601 7.723l37.678-37.758a80 80 0 1 0-56.501 136.73 79.4 79.4 0 0 0 56.501-23.45l-37.67-37.775a26.47 26.47 0 0 1-16.601 7.74"/></svg>