<svg xmlns="http://www.w3.org/2000/svg" width="192" height="192" viewBox="0 0 192 192"><path d="M23.015 16.001a7.11 7.11 0 0 0-7.013 7.013v24.81a2.755 2.755 0 0 0 2.76 2.76h1.596a2.755 2.755 0 0 0 2.847-2.76V27.459a4.355 4.355 0 0 1 4.255-4.254h20.364a2.755 2.755 0 0 0 2.761-2.846V18.76a2.755 2.755 0 0 0-2.76-2.76zm121.16 0a2.755 2.755 0 0 0-2.76 2.76v1.597a2.755 2.755 0 0 0 2.76 2.847h20.365a4.355 4.355 0 0 1 4.254 4.255v20.364a2.755 2.755 0 0 0 2.846 2.761h1.598a2.755 2.755 0 0 0 2.76-2.76v-24.81a7.11 7.11 0 0 0-7.013-7.013zM54.401 45.515a8.89 8.89 0 0 0-8.89 8.89v32.707a9.245 9.245 0 0 1 0 18.49v32.36a8.89 8.89 0 0 0 8.89 8.889h83.194a8.89 8.89 0 0 0 8.89-8.889V104.89a9.245 9.245 0 0 1-.261-18.437v-32.05a8.89 8.89 0 0 0-8.89-8.889zm91.823 40.937v.66l.26-.712zM67.457 66.053h21.614a2.4 2.4 0 0 1 2.483 2.483v21.961a2.49 2.49 0 0 1-2.483 2.482H67.457a2.58 2.58 0 0 1-2.483-2.483V68.537a2.49 2.49 0 0 1 2.483-2.483m34.149 0h21.511a2.49 2.49 0 0 1 2.57 2.483v21.961a2.58 2.58 0 0 1-2.57 2.482h-21.511a2.49 2.49 0 0 1-2.5-2.483v-21.96a2.4 2.4 0 0 1 2.5-2.483m-24.636 7.9a3.994 3.994 0 0 0-3.993 4.01v2.569a3.994 3.994 0 0 0 3.993 4.01h2.587a3.994 3.994 0 0 0 3.993-4.01v-2.57a3.994 3.994 0 0 0-3.993-4.01zm34.044 0a3.994 3.994 0 0 0-3.993 4.01v2.569a3.994 3.994 0 0 0 3.993 4.01h2.587a3.994 3.994 0 0 0 3.993-4.01v-2.57a3.994 3.994 0 0 0-3.993-4.01zm-43.559 26.143h21.614a2.49 2.49 0 0 1 2.483 2.483v21.961a2.4 2.4 0 0 1-2.483 2.483H67.455a2.49 2.49 0 0 1-2.483-2.483v-21.96a2.58 2.58 0 0 1 2.483-2.484m32.725.347h6.667a1.067 1.067 0 0 1 1.059 1.06v6.666a1.067 1.067 0 0 1-1.06 1.163h-6.666a1.067 1.067 0 0 1-1.076-1.163v-6.666a1.067 1.067 0 0 1 1.076-1.06m17.691.088h6.667a1.155 1.155 0 0 1 1.146 1.076v6.667a1.155 1.155 0 0 1-1.146 1.146h-6.667a1.067 1.067 0 0 1-1.076-1.146v-6.667a1.067 1.067 0 0 1 1.076-1.076m-40.903 7.552a3.994 3.994 0 0 0-3.993 4.01v2.57a3.994 3.994 0 0 0 3.993 4.01h2.587a3.994 3.994 0 0 0 3.993-4.01v-2.57a3.994 3.994 0 0 0-3.993-4.01zm32.013 1.337h6.753a1.067 1.067 0 0 1 1.06 1.076v6.666a1.07 1.07 0 0 1-1.06.608v.45h-6.753a1.067 1.067 0 0 1-1.076-1.058v-6.667a1.155 1.155 0 0 1 1.076-1.076zm-8.802 8.8h6.667a1.155 1.155 0 0 1 1.059 1.164v6.667a1.067 1.067 0 0 1-1.06 1.06h-6.666a1.067 1.067 0 0 1-1.076-1.06v-6.666a1.155 1.155 0 0 1 1.076-1.164m17.691 0h6.667a1.245 1.245 0 0 1 1.146 1.164v6.667a1.067 1.067 0 0 1-1.146 1.058h-6.667a1.067 1.067 0 0 1-1.076-1.06v-6.665a1.155 1.155 0 0 1 1.076-1.164m-99.114 23.195a2.755 2.755 0 0 0-2.76 2.76v24.81A7.11 7.11 0 0 0 23.01 176h24.809a2.755 2.755 0 0 0 2.76-2.76v-1.597a2.755 2.755 0 0 0-2.76-2.847H27.454a4.355 4.355 0 0 1-4.254-4.253v-20.366a2.755 2.755 0 0 0-2.846-2.76zm152.88 0a2.755 2.755 0 0 0-2.846 2.76v20.366a4.355 4.355 0 0 1-4.254 4.253H144.17a2.755 2.755 0 0 0-2.76 2.847v1.598a2.755 2.755 0 0 0 2.76 2.76h24.809a7.11 7.11 0 0 0 7.013-7.013v-24.81a2.755 2.755 0 0 0-2.76-2.76z"/></svg>