<svg width="192" height="192" fill="none" xmlns="http://www.w3.org/2000/svg"><path d="M61 123v24m-12-12h24m46 0h24M25 31a6 6 0 0 1 6-6h130a6 6 0 0 1 6 6v130a6 6 0 0 1-6 6H31a6 6 0 0 1-6-6V31Z" stroke="#000" stroke-width="12" stroke-linecap="round" stroke-linejoin="round"/><path d="M25 104h63a8 8 0 0 1 8 8v54m71-62h-63a8 8 0 0 0-8 8v54" stroke="#000" stroke-width="10" stroke-linecap="round" stroke-linejoin="round"/><path d="M86.906 49.923c3.705-4.962 10.6-6.268 15.393-3.484 5.436 3.158 7.147 10.98 2.718 16.538C100.587 68.535 86 83 86 83h24" stroke="#000" stroke-width="12" stroke-linecap="round" stroke-linejoin="round"/></svg>