<svg xmlns="http://www.w3.org/2000/svg" width="192" height="192" viewBox="0 0 192 192"><path d="m97.14 16.128.2.064 62.588 18.822a4.68 4.68 0 0 1 3.33 4.321v2.81l-20.504 5.241a1.1 1.1 0 0 0-.424.216l-.088.08-45.711 45.383a1.12 1.12 0 0 1-1.504.072l-.08-.08L69.37 67.425a1.12 1.12 0 0 0-1.512-.08l-.08.08-10.547 10.58a1.12 1.12 0 0 0-.08 1.496l.08.08 37.708 37.804a1.12 1.12 0 0 0 1.512.08l.08-.08 66.733-66.886v58.05a41.2 41.2 0 0 1-7.05 22.056 32 32 0 0 0-5.282-1.313l.32-6.722.265.024h.144a2.96 2.96 0 0 0 2.96-2.84 3.017 3.017 0 0 0-2.808-3.178l-6.458-.36h-.272a2.96 2.96 0 0 0-2.833 2.84 3.017 3.017 0 0 0 2.817 3.17l.264.016-.328 6.722a30.4 30.4 0 0 0-10.323 2.273l-2.961-5.882.232-.128.128-.064a3.04 3.04 0 0 0 1.152-3.977 2.96 2.96 0 0 0-3.985-1.329l-5.754 2.961-.128.072a3.04 3.04 0 0 0-1.16 3.977 2.96 2.96 0 0 0 4 1.329l.233-.12 3.001 5.962a30.4 30.4 0 0 0-7.787 7.506l-5.777-3.345.136-.232.064-.128a2.964 2.964 0 0 0-5.202-2.841l-3.233 5.61-.08.128a2.972 2.972 0 0 0 5.218 2.849l.128-.24 5.753 3.337a30.4 30.4 0 0 0-2.48 8.498l-6.819-.216.008-.264v-.136a2.96 2.96 0 0 0-2.88-2.929 3.01 3.01 0 0 0-3.121 2.881l-.24 6.482v.136a2.96 2.96 0 0 0 2.88 2.921 3.01 3.01 0 0 0 3.121-2.88v-.257l6.803.208a32 32 0 0 0 .592 4.514 192 192 0 0 1-18.614 9.947 4.64 4.64 0 0 1-3.825 0 200 200 0 0 1-32.122-18.862 112 112 0 0 1-22.455-20.855 44.8 44.8 0 0 1-10.771-26.913V39.511a4.72 4.72 0 0 1 3.16-4.441l.16-.056 62.597-18.822a4.8 4.8 0 0 1 2.48-.056"/></svg>