<svg xmlns="http://www.w3.org/2000/svg" width="192" height="192" viewBox="0 0 192 192"><path d="M56.605 16a4.53 4.53 0 0 0-4.514 4.559v9.127h9.03l.007-9.127A4.53 4.53 0 0 0 56.605 16m16.059 0a4.53 4.53 0 0 0-4.514 4.559v9.127h9.028l.01-9.127A4.53 4.53 0 0 0 72.663 16zm16.049 0a4.53 4.53 0 0 0-4.514 4.559v9.127h9.037l.008-9.127A4.53 4.53 0 0 0 88.713 16m16.066 0a4.53 4.53 0 0 0-4.514 4.559v9.127h9.037v-9.127A4.53 4.53 0 0 0 104.78 16zm16.066 0a4.53 4.53 0 0 0-4.523 4.559v9.127h9.037v-9.127A4.53 4.53 0 0 0 120.845 16m16.066 0a4.53 4.53 0 0 0-4.523 4.559v9.127h9.039v-9.127h-.02A4.53 4.53 0 0 0 136.911 16M41.694 34.074a6.043 6.043 0 0 0-6.025 6.078v110.17a6.043 6.043 0 0 0 6.015 6.078h83.133l.035.31h9.03l.025-.31h16.912a6.043 6.043 0 0 0 6.016-6.078V40.152a6.043 6.043 0 0 0-6.016-6.078H41.699zm5.322 8.842h37.918v11.197a6.98 6.98 0 0 0-4.576 6.558c0 3.857 3.1 6.994 6.922 6.994s6.932-3.128 6.932-6.994a6.93 6.93 0 0 0-4.584-6.548V42.926h13.684v11.393a6.98 6.98 0 0 0-4.584 6.558c0 3.857 3.101 6.992 6.931 6.992 3.821 0 6.912-3.135 6.912-6.992a6.93 6.93 0 0 0-4.576-6.55v-11.4h37.51a2.583 2.583 0 0 1 2.576 2.595v38.201h-9.907a6.93 6.93 0 0 0-6.487-4.621c-3.821 0-6.932 3.13-6.932 6.986s3.11 6.992 6.932 6.992a6.93 6.93 0 0 0 6.486-4.62h9.9v13.96a18 18 0 0 0-2.247-.115h-8.043a6.93 6.93 0 0 0-6.487-4.62 6.96 6.96 0 0 0-6.931 6.993c0 3.857 3.101 6.992 6.931 6.992a6.93 6.93 0 0 0 6.487-4.619h8.043c.924 0 1.634.044 2.248.15v37.75a2.59 2.59 0 0 1-2.579 2.594H131.59c.036-3.34.063-7.676.063-9.996 0-6.807-3.803-10.869-10.166-10.869h-9.535a6.887 6.887 0 0 0-13.232 2.827c0 3.856 3.11 6.994 6.931 6.994a6.93 6.93 0 0 0 6.647-5.137v.062h9.19c3.785 0 5.474 1.885 5.474 6.123 0 2.346-.037 6.655-.072 9.997H60.98l-.028-9.997c0-4.238 1.69-6.132 5.485-6.132h14.199c.826 2.932 3.465 5.084 6.629 5.084 3.82 0 6.931-3.129 6.931-6.994a6.96 6.96 0 0 0-6.931-6.995 6.93 6.93 0 0 0-6.327 4.178H66.435c-6.371 0-10.176 4.053-10.176 10.86 0 .541.001 5.419.028 9.995h-9.278a2.577 2.577 0 0 1-2.578-2.594v-38.266c4.248.018 8.468.054 10.574.08a6.93 6.93 0 0 0 6.496 4.64c3.821 0 6.932-3.138 6.932-6.995a6.96 6.96 0 0 0-6.932-6.992 6.93 6.93 0 0 0-6.486 4.602c-2.133-.018-6.335-.053-10.574-.07V88.593h10.947c.969 2.693 3.494 4.62 6.488 4.62 3.83 0 6.93-3.127 6.93-6.993a6.96 6.96 0 0 0-6.93-6.984 6.93 6.93 0 0 0-6.488 4.62H44.441V45.513c0-1.43 1.154-2.596 2.576-2.596zm-26.48 6.453a4.53 4.53 0 0 0-4.515 4.558 4.53 4.53 0 0 0 4.515 4.56h9.037v-9.118zm141.89 0v9.117h9.037a4.53 4.53 0 0 0 4.514-4.559 4.53 4.53 0 0 0-4.514-4.558zM20.536 65.578a4.53 4.53 0 0 0-4.515 4.566 4.53 4.53 0 0 0 4.515 4.559h9.037v-9.125zm150.93 0v.008h-9.037v9.117h9.037a4.53 4.53 0 0 0 4.514-4.559 4.53 4.53 0 0 0-4.514-4.566m-87.576 7.34c-5.438 0-9.863 4.468-9.863 9.95v24.974c0 5.483 4.425 9.951 9.863 9.951h25.416c5.43 0 9.856-4.46 9.856-9.951V82.869c0-5.48-4.422-9.946-9.856-9.951zm-63.35 8.877a4.53 4.53 0 0 0-4.515 4.558 4.53 4.53 0 0 0 4.515 4.559h9.037v-9.117zm141.89 0v9.117h9.037a4.53 4.53 0 0 0 4.514-4.559 4.53 4.53 0 0 0-4.514-4.558zM20.54 98.004a4.53 4.53 0 0 0-4.515 4.558 4.53 4.53 0 0 0 4.515 4.559h9.037v-9.117zm141.89 0v9.117h9.037a4.53 4.53 0 0 0 4.514-4.559 4.53 4.53 0 0 0-4.514-4.558zM20.54 114.213a4.53 4.53 0 0 0-4.515 4.558 4.53 4.53 0 0 0 4.515 4.567h9.037v-9.125zm141.89 0v9.127h9.037a4.53 4.53 0 0 0 4.514-4.569 4.53 4.53 0 0 0-4.514-4.558zM20.54 130.43a4.53 4.53 0 0 0-4.515 4.558 4.53 4.53 0 0 0 4.515 4.559h9.037v-9.117zm150.93 0-.01.054h-9.037v9.118h9.038a4.53 4.53 0 0 0 4.523-4.612 4.53 4.53 0 0 0-4.514-4.56M52.11 162.27l-.01 9.127a4.53 4.53 0 0 0 4.514 4.558 4.53 4.53 0 0 0 4.516-4.558v-9.127zm16.05 0-.01 9.136a4.53 4.53 0 0 0 4.513 4.559 4.53 4.53 0 0 0 4.516-4.559v-9.136zm16.048 0v9.144a4.53 4.53 0 0 0 4.514 4.559 4.53 4.53 0 0 0 4.523-4.559v-9.144zm16.066 0-.01 9.154a4.53 4.53 0 0 0 4.516 4.559 4.53 4.53 0 0 0 4.522-4.559v-9.154zm16.05 0v9.162a4.53 4.53 0 0 0 4.513 4.558 4.53 4.53 0 0 0 4.523-4.558v-9.162h-9.037m16.056.002v9.17a4.53 4.53 0 0 0 4.524 4.558 4.53 4.53 0 0 0 4.513-4.558v-9.17z"/></svg>