<svg xmlns="http://www.w3.org/2000/svg" width="192" height="192" viewBox="0 0 192 192"><path d="m89.418 110.25-.06-13.997-.051-13.997 24.298 13.894-12.09 7.05zm7.751-91.244a180 180 0 0 0-23.083 1.335c-24.298 3.028-38.662 7.332-47.517 29.884-5.167 13.08-6.955 29.593-7.04 45.378-.086 15.785 1.54 32.348 6.57 45.455 8.624 22.68 22.929 27.07 47.2 30.363a180 180 0 0 0 23.075 1.574 180 180 0 0 0 23.314-1.335c25.282-3.028 39.937-9.753 48.5-29.859a60 60 0 0 0 3.97-14.8l-30.576-7.205c-3.688 14.75-8.35 17.693-21.474 20.294a123 123 0 0 1-23.58 1.789 131 131 0 0 1-23.065-2.276c-11.841-2.225-14.288-5.168-17.162-15.177-2.122-7.555-3.063-18.232-3.012-28.678.051-10.438 1.078-21.132 3.302-28.644 2.978-9.942 5.459-12.833 17.325-14.998a131 131 0 0 1 23.091-2.036 123 123 0 0 1 23.553 2.053c13.098 2.746 17.727 5.68 21.26 20.525l30.654-6.904A60 60 0 0 0 168.66 50.9c-8.402-20.191-22.937-27.061-48.185-30.363a180 180 0 0 0-23.305-1.532"/></svg>