<svg xmlns="http://www.w3.org/2000/svg" width="192" height="192" viewBox="0 0 192 192"><path d="M109.97 19.6a76 76 0 0 1 1.616 15.504A76 76 0 0 1 102.93 69.6c1.704.96 3.632 2.096 6.24 3.6 12.056 6.96 13.144 6.752 13.184 16.24a76 76 0 0 1 34.6-8.72 76 76 0 0 1 12.832 1.136c-.48-28.936-4.4-31.056-36.856-49.793-9.832-5.68-16.992-9.8-22.96-12.464m-40.32 83.073v.072a76 76 0 0 1-34.216 8.512 76 76 0 0 1-13.224-1.304c.464 29.128 4.328 31.24 36.864 50.025 10.12 5.84 17.416 10.04 23.48 12.688a76 76 0 0 1-1.744-15.792 76 76 0 0 1 8.536-34.272l.136.064c-1.784-.984-3.84-2.2-6.656-3.824-12.016-6.944-13.128-6.76-13.176-16.168"/><path d="M156.96 80.721a76 76 0 0 0-34.6 8.72v6.576c0 16.6 1.2 14.52-13.176 22.824-11.632 6.712-12.4 7.896-19.832 3.76a76 76 0 0 0-8.536 34.272 76 76 0 0 0 1.744 15.8c16.176 7.072 23.4 2.88 50.377-12.696 37.096-21.416 36.92-21.12 36.92-63.953 0-5.36 0-10.04-.064-14.176a76 76 0 0 0-12.832-1.12z" opacity=".8"/><path d="M96.004 16c-9.192 0-18.376 5.36-36.928 16.064C21.98 53.48 22.148 53.184 22.148 96.025c0 5.264 0 9.84.064 13.92a76 76 0 0 0 13.232 1.304 76 76 0 0 0 34.208-8.504v-6.72c0-16.6-1.2-14.52 13.176-22.824 7.192-4.144 10.184-6.224 13.176-6.224 1.904 0 3.936.936 6.928 2.624a76 76 0 0 0 8.656-34.496 76 76 0 0 0-1.616-15.512C104.684 17.233 100.324 16 96.004 16" opacity=".6"/></svg>