<svg xmlns="http://www.w3.org/2000/svg" width="192" height="192" viewBox="0 0 192 192"><path d="M176 55.201s-23.2 13.336-28.639 15.36c-4.976 1.984-6.856-.64-7.448-1.544a64 64 0 0 1-3.84-9.84 10.4 10.4 0 0 0 4.312-.464C143.921 57.81 175.92 39.89 176 39.89zm-48.527 52.959c1.632 3.824 6.304 14.96 7.552 18.16a6.16 6.16 0 0 0 5.408 3.512h20.264L145.6 98.472a565 565 0 0 1-18.128 9.729zm11.416-25.487-17.568 9.256c-15.048 7.72-29.335 14.488-37.039 16.68-20.296 5.904-45.007 9.36-53.895 1.48-8.344-7.472 10.936-38.535 47.415-45.463a30.4 30.4 0 0 1 9.408-.944s-2.488-10.64-4.44-12.864a9.04 9.04 0 0 0-9.36-3.52c-7.904.472-41.487 9.44-54.743 37.487-7.44 15.944 2.384 32.03 8.752 36.687 2.96 2.16 22.032 19.304 66.15 1.984 43.464-16.904 82.399-43.551 82.423-43.551v-17.76s-17.184 9.84-37.12 20.536zm-27.527-15.744 9.96 24.999 17.568-9.256-15.216-33.815h-22.16l-31.111 58.167s15.32-.48 25.11-7.88c2.505-1.448 9.465-19.824 15.857-32.215zm53.703 71.966v13.216H17.625v-13.216z"/></svg>