<svg xmlns="http://www.w3.org/2000/svg" width="192" height="192"><path d="M96 16c-43.94 0-80 36.06-80 80s36.06 80 80 80c21.878 0 41.802-8.94 56.295-23.342l-28.809-28.809c-7.013 6.92-16.689 11.15-27.486 11.15-21.782 0-39-17.218-39-39s17.218-39 39-39c10.722 0 20.339 4.171 27.34 11.006l28.809-28.809c-14.48-14.316-34.344-23.197-56.148-23.197zm66.402 35.57L132.34 81.634c1.72 4.431 2.66 9.274 2.66 14.365 0 5.011-.911 9.78-2.58 14.154l30.102 30.102c8.505-12.702 13.48-27.936 13.48-44.256 0-16.395-5.022-31.693-13.599-44.43zM96 70a26 26 0 0 0-26 26 26 26 0 0 0 26 26 26 26 0 0 0 26-26 26 26 0 0 0-26-26"/></svg>