<svg xmlns="http://www.w3.org/2000/svg" width="192" height="192" viewBox="0 0 192 192"><path d="M97.768 20.019c-4.362-.088-8.766.047-11.597.419-17.315 2.268-32.6 9.648-44.666 21.592a72.8 72.8 0 0 0-14.949 20.725c-5.279 10.741-7.549 20.738-7.557 33.264-.007 12.511 2.224 22.308 7.587 33.264 9.783 19.981 28.264 34.922 50.083 40.491a123 123 0 0 0 11.91 2.065 146 146 0 0 0 7.109.165c5.86.046 7.069-.32 2.319-.704-3.969-.314-9.983-1.653-14.664-3.262-19.858-6.803-35.52-22.465-42.063-42.078a64.74 64.74 0 0 1-2.08-33.863c4.673-23.237 21.726-42.424 44.427-49.993 29.404-9.799 61.176 1.146 78.2 26.95 5.6 8.488 9.656 19.838 10.445 29.223.161 1.893.294 2.352.539 1.915.444-.796.053-10.38-.614-14.993-3.11-21.505-15.019-40.242-33.399-52.492-8.841-5.891-18.724-9.821-29.718-11.82-2.643-.48-6.95-.78-11.312-.868m10.579 35.524c-2.49.008-4.859.145-6.689.404-24.064 3.386-42.515 21.576-46.193 45.564-.613 4.038-.474 12.242.3 16.639 4.244 24.118 24.578 42.417 49.125 44.202 13.377.973 26.816-2.872 36.975-10.579a53.63 53.63 0 0 0 20.515-32.276c.88-4.13 1.194-12.385.658-16.729-.222-1.754-.477-3.311-.569-3.457-.076-.137-1.044.67-2.14 1.796a24.5 24.5 0 0 1-11.416 6.764c-3.532 1.003-8.933 1.003-12.465 0-9.807-2.79-16.63-10.527-17.986-20.41-1.349-9.868 4.397-20.173 13.722-24.57l2.588-1.227-2.753-1.272c-3.532-1.64-8.045-3.108-12.106-3.936-2.92-.594-7.417-.926-11.567-.913z"/></svg>