<svg xmlns="http://www.w3.org/2000/svg" width="192" height="192" viewBox="0 0 192 192"><path d="M94.831 19.258 29.917 56.719a1.925 1.925 0 0 0 0 3.331l65.335 37.732a1.93 1.93 0 0 0 1.925 0l64.907-37.46a1.925 1.925 0 0 0 0-3.332L96.756 19.258a1.93 1.93 0 0 0-1.925 0m.962 3.895 61.478 35.499-61.057 35.243L34.73 58.389z"/><path d="M29.916 56.719a1.93 1.93 0 0 0-.962 1.67v74.952a1.93 1.93 0 0 0 .962 1.67l65.335 37.732a1.925 1.925 0 0 0 2.887-1.67v-74.96a1.93 1.93 0 0 0-.962-1.662L31.84 56.72a1.93 1.93 0 0 0-1.925 0zm2.887 5 61.485 35.506v70.51l-61.485-35.5z"/><path d="M160.16 56.99 95.253 94.451a1.93 1.93 0 0 0-.962 1.662v74.96a1.925 1.925 0 0 0 2.887 1.67l64.907-37.462a1.93 1.93 0 0 0 .962-1.67V58.66a1.925 1.925 0 0 0-2.887-1.67m-.962 5v70.51L98.14 167.734V97.226z"/></svg>