<svg xmlns="http://www.w3.org/2000/svg" width="192" height="192" viewBox="0 0 192 192"><path d="M60.25 33.634c-11.658.113-22.589 4.135-31.235 12.189-4.75 4.721-8.907 10.644-10.819 17.148-1.297 3.794-1.96 7.831-2.189 11.828-.11 7.878 1.035 15.266 4.65 22.353.811 1.592 1.787 3.092 2.684 4.636 18.701 26.034 53.352 22.694 70.128 5.727 1.648-1.667 3.122-3.496 4.633-5.285 2.529-2.993 5.074-6.145 7.065-9.527 1.1 6.588 4.463 13.012 9.127 17.774 6.568 6.705 16.176 10.158 25.464 10.24 9.599.082 19.267-3.212 26.17-10.03 4.237-4.188 7.33-9.744 8.798-15.516 1.74-6.839 1.192-14.295 1.19-21.298V49.437c-3.862.267-7.704.192-11.332-1.315-4.334-1.801-8.155-5.043-10.466-9.146-.741-1.313-1.285-2.715-1.856-4.107q.06 1.108.073 2.217c.135 11.614.007 23.242.017 34.858l.005 10.093c0 2.058.175 4.324-.198 6.35a11.6 11.6 0 0 1-3.216 6.172c-2.315 2.339-5.428 3.553-8.707 3.555-3.304.003-6.425-1.2-8.764-3.55a11.94 11.94 0 0 1-3.257-6.324c-.375-2.15-.21-4.513-.204-6.696l.001-9.23-.02-37.278c-7.855-.086-15.716-.017-23.571-.01-.56 1.946-.852 4.01-1.328 5.984a102 102 0 0 1-3.87 12.494c-4.216 11.918-13.06 27.128-21.65 36.393-1.163 1.253-2.303 2.532-3.638 3.607a21 21 0 0 1-1.695 1.226 21 21 0 0 1-2.749 1.508 20.6 20.6 0 0 1-2.943 1.081 21.1 21.1 0 0 1-7.248.752 21 21 0 0 1-1.04-.101c-5.616-.638-10.43-3.316-13.92-7.775-3.525-4.504-4.797-10.36-4.099-15.985.682-5.489 3.38-10.37 7.768-13.762 4.417-3.416 10.103-4.77 15.618-4.014 6.122.84 10.712 3.98 14.4 8.815 1.765-1.288 3.743-2.38 5.606-3.53l9.226-5.717c1.776-1.088 3.801-2.109 5.415-3.423-1.26-1.575-2.409-3.177-3.791-4.66-8.352-8.962-19.71-13.83-31.892-14.252a53 53 0 0 0-2.34-.03zm39.45 103.04c2.422.191 4.914-.034 7.352.084l.027.903-.011 13.015c0 2.317-.092 4.671.02 6.983-.002.163.008.053-.087.32-1.075.351-4.8.107-6.075.1.13-3.791-.123-7.577.122-11.373a541 541 0 0 1-4.217 8.351c-1.15-.024-2.306.022-3.456.039-1.291-2.841-2.93-5.514-4.153-8.39-.163 3.773-.048 7.59-.046 11.367-2.023-.045-4.056-.003-6.08-.003.087-7.124.014-14.252-.003-21.377l7.48.01c.415 1.017 1.018 2.01 1.517 2.992a429 429 0 0 1 3.087 6.168c1.328-3.12 2.995-6.159 4.523-9.188zm36.74-.364c3.135-.02 5.678.948 8.285 2.615a205 205 0 0 0-2.797 4.806c-1.488-1.116-3.483-2.077-5.39-1.933-1.119.084-1.911.379-2.363 1.274-.734 2.099 6.687 1.647 9.377 4.171 1.227 1.151 1.863 2.503 1.873 4.193.01 1.764-.606 3.441-1.902 4.659-2.307 2.166-5.209 2.332-8.196 2.258-3.188-.41-5.58-1.343-8.18-3.259 1.104-1.54 2.11-3.17 3.152-4.753 2.901 2.618 6.971 3.264 8.415 2.103.843-.677-.154-1.287-.7-1.548-2.42-1.156-4.786-.93-7.376-2.883-1.352-1.02-2.208-2.372-2.408-4.065-.198-1.684.06-3.324 1.162-4.658 1.853-2.246 4.31-2.707 7.048-2.98m-81.024.404 6.061.018.043 21.315q-3.046.028-6.093.022z"/></svg>