<svg width="192" height="192" fill="none" xmlns="http://www.w3.org/2000/svg"><path d="M70 106V62H28a6 6 0 0 0-6 6v28m109-34H70l19-40h61l-19 40Z" stroke="#000" stroke-width="12" stroke-linecap="round" stroke-linejoin="round"/><path d="M22 96a73.71 73.71 0 0 0 5.659 28.319 73.982 73.982 0 0 0 16.115 24.007 74.375 74.375 0 0 0 24.118 16.041A74.636 74.636 0 0 0 96.34 170c9.763 0 19.43-1.914 28.449-5.633a74.378 74.378 0 0 0 24.118-16.041 73.986 73.986 0 0 0 16.115-24.007A73.736 73.736 0 0 0 170 106h-48" stroke="#000" stroke-width="12" stroke-linecap="round" stroke-linejoin="round"/><path d="M122 106c0 3.414-.673 6.795-1.979 9.95a26.023 26.023 0 0 1-5.636 8.435 26.015 26.015 0 0 1-28.335 5.636 26.011 26.011 0 0 1-14.07-14.071A26.005 26.005 0 0 1 70 106" stroke="#000" stroke-width="12" stroke-linecap="round" stroke-linejoin="round"/></svg>