<svg xmlns="http://www.w3.org/2000/svg" width="192" height="192" viewBox="0 0 192 192"><path d="M144.52 36.197a77 77 0 0 1 18.446 21.731l-55.209 38.654a3.85 3.85 0 0 1-5.364-.941L90.526 78.7a3.85 3.85 0 0 1 .94-5.364zm28.473 58.015-45.379 31.775a3.85 3.85 0 0 1-5.356-.941l-11.867-16.94a3.85 3.85 0 0 1 .941-5.364l54.884-38.423a77 77 0 0 1 6.776 29.893m-.3 8.872a77 77 0 0 1-28.37 52.882 3.85 3.85 0 0 1-2.198-1.523l-11.867-16.94a3.85 3.85 0 0 1 .941-5.365zM96.019 148.36a52.2 52.2 0 0 0 26.847-7.392l12.996 20.935A76.66 76.66 0 0 1 96.009 173a77 77 0 0 1 0-154 76.66 76.66 0 0 1 42.684 12.902l-22.398 15.81a52.36 52.36 0 1 0-20.285 100.65"/></svg>