<svg xmlns="http://www.w3.org/2000/svg" width="192" height="192" viewBox="0 0 192 192"><path d="M22.576 47.922h11.801q4.08 0 7.24 1.232a13.92 13.92 0 0 1 8.489 8.488q1.08 2.96 1.088 6.52a20.64 20.64 0 0 1-5.952 14.546 21.6 21.6 0 0 1-6.937 4.56 24 24 0 0 1-9.264 1.704H16zm6.832 30.426q3.312 0 6.049-1.04 2.752-1.032 4.664-2.84a12.8 12.8 0 0 0 4.088-9.52q0-5.025-2.64-7.721-2.592-2.688-7.92-2.688h-5.28l-4.241 23.809zm38.386-19.561q5.233 0 7.977 2.48 2.736 2.488 2.736 6.52 0 .624-.104 1.296-.048.625-.152 1.345l-2.584 14.545h-6.68l.463-2.688h-.4q-1.2 1.496-3.016 2.536a8.8 8.8 0 0 1-4.296.984 9.6 9.6 0 0 1-3.52-.624 8 8 0 0 1-2.688-1.6 8 8 0 0 1-2.32-5.753q0-2.168.816-3.88a8.8 8.8 0 0 1 2.432-2.896q1.608-1.24 3.784-1.864 2.224-.672 4.864-.672 1.92 0 3.464.36 1.6.312 3.057.832l.208-.776a3.36 3.36 0 0 0-1.297-3.568 5.6 5.6 0 0 0-3.568-1.096 7.2 7.2 0 0 0-3.472.776 8 8 0 0 0-2.688 2.128l-4.56-3.313q2.072-2.64 5.08-3.84 3.008-1.232 6.464-1.232M63.97 80.524q1.296 0 2.432-.472a8 8 0 0 0 2.064-1.28A7.2 7.2 0 0 0 69.97 76.9a7.2 7.2 0 0 0 .824-2.224 16 16 0 0 0-2.224-.776 10.4 10.4 0 0 0-3.256-.472 6.8 6.8 0 0 0-3.728.984 3.12 3.12 0 0 0-1.552 2.904q0 1.6 1.136 2.432 1.2.776 2.8.776m16.161 4.448 4.44-25.36h6.369l-.624 3.52h.416q1.24-1.809 3.208-3 1.968-1.24 4.608-1.24 1.344 0 2.176.255.88.256 1.496.672l-2.536 6.16a8 8 0 0 0-1.344-.464 6.4 6.4 0 0 0-1.808-.208 6.64 6.64 0 0 0-4.96 2.065q-1.976 2.024-2.544 5.336l-2.12 12.265h-6.785m31.17-17.233h.416l9.425-8.129h8.744l-.104.416-11.177 9.313 7.656 15.217-.104.416h-7.656l-5.28-11.177-3.52 2.944-1.449 8.24h-6.784l6.52-37.065h6.785zM16 132.903l6.576-37.066h12.417q2.48 0 4.56.776 2.065.776 3.569 2.176 1.56 1.4 2.384 3.36.88 1.976.88 4.36 0 3.04-1.088 5.44a11.2 11.2 0 0 1-2.96 4.033q-1.912 1.6-4.6 2.48-2.64.832-5.793.832h-6.584l-2.384 13.601zm16.873-20.241a7.76 7.76 0 0 0 4.656-1.344q1.864-1.392 1.864-4.288a4.4 4.4 0 0 0-1.24-3.265q-1.2-1.296-3.52-1.296H28.37l-1.81 10.201zm27.345-5.944q5.224 0 7.969 2.48t2.744 6.52q0 .624-.104 1.296a16 16 0 0 1-.16 1.344l-2.584 14.545h-6.68l.471-2.688h-.416q-1.2 1.496-3 2.536a8.8 8.8 0 0 1-4.296.984 9.6 9.6 0 0 1-3.52-.624 8 8 0 0 1-2.696-1.6 8 8 0 0 1-2.32-5.76q0-2.16.823-3.872.88-1.705 2.433-2.897 1.6-1.24 3.776-1.864 2.232-.672 4.864-.672 1.92 0 3.472.36 1.6.304 3.04.832l.216-.776a3.36 3.36 0 0 0-1.296-3.568 5.6 5.6 0 0 0-3.568-1.088 7.2 7.2 0 0 0-3.464.776 8 8 0 0 0-2.696 2.12l-4.56-3.312q2.08-2.64 5.08-3.84 3-1.232 6.472-1.232m-3.84 21.737q1.304 0 2.44-.464a8 8 0 0 0 2.072-1.296 7.2 7.2 0 0 0 1.496-1.864 7.2 7.2 0 0 0 .832-2.225 16 16 0 0 0-2.224-.776 10.4 10.4 0 0 0-3.264-.464 6.8 6.8 0 0 0-3.728.984 3.12 3.12 0 0 0-1.552 2.897q0 1.6 1.144 2.432a4.8 4.8 0 0 0 2.792.776m35.522-21.737q2.272 0 4.192.928 1.92.88 3.312 2.48 1.392 1.56 2.176 3.784.768 2.168.776 4.76a16 16 0 0 1-1.04 5.745 14.64 14.64 0 0 1-7.504 8.08 13.6 13.6 0 0 1-5.792 1.24q-2.544 0-4.664-1.088a7.2 7.2 0 0 1-2.945-2.8h-.416l-.16 3.624-1.856 10.617h-6.784l6.472-36.546h6.32l-.527 3.056h.416q1.04-1.496 2.96-2.688 1.952-1.2 5.064-1.2m-4.08 20.753a7.2 7.2 0 0 0 3.096-.672 8 8 0 0 0 2.48-1.816 8 8 0 0 0 1.608-2.64 8.8 8.8 0 0 0 .568-3.152q0-2.848-1.704-4.505a6.08 6.08 0 0 0-4.504-1.704 7.2 7.2 0 0 0-2.896.616 8 8 0 0 0-2.48 1.712q-1.04 1.08-1.712 2.64a8.8 8.8 0 0 0-.624 3.417q0 2.784 1.704 4.448a6.16 6.16 0 0 0 4.456 1.656m40.882-.776a17.6 17.6 0 0 1-5.24 5.176q-2.993 1.864-7.505 1.864a12.8 12.8 0 0 1-5.016-.936 11.2 11.2 0 0 1-3.728-2.536 11.2 11.2 0 0 1-2.384-3.824 13.6 13.6 0 0 1-.824-4.72 14.96 14.96 0 0 1 8.904-13.761q2.784-1.24 6.208-1.24 2.792 0 4.865.88a9.6 9.6 0 0 1 5.696 5.64q.72 1.92.72 4.04 0 2.424-.72 4.497h-19.113v.52q.12 2.792 1.816 4.144a6.72 6.72 0 0 0 4.08 1.28q2.496.008 4.2-.92 1.704-.984 2.897-2.8l5.12 2.696m-4.608-9.729v-.208a4.16 4.16 0 0 0-1.4-3.104q-1.345-1.4-4.137-1.4a7.36 7.36 0 0 0-4.456 1.4 7.2 7.2 0 0 0-2.584 3.312zm8.064 15.937 4.448-25.36h6.368l-.624 3.52h.416q1.249-1.809 3.2-3 1.977-1.24 4.617-1.24 1.344 0 2.176.255.88.264 1.496.672l-2.536 6.16a8 8 0 0 0-1.344-.463 6.4 6.4 0 0 0-1.808-.208 6.64 6.64 0 0 0-4.968 2.072q-1.969 2.016-2.537 5.328l-2.128 12.265zm30.778.832a14.4 14.4 0 0 1-4.192-.568 11.2 11.2 0 0 1-3.256-1.56 10.4 10.4 0 0 1-2.28-2.272 11.2 11.2 0 0 1-1.345-2.848l6.265-2.536a4.32 4.32 0 0 0 1.856 2.896q1.512.936 3.472.936 1.76 0 2.952-.624 1.24-.664 1.24-1.864a2 2 0 0 0-.832-1.656 7.2 7.2 0 0 0-2.64-1.136l-2.736-.672a13.6 13.6 0 0 1-2.384-.88 7.76 7.76 0 0 1-3.68-3.52 6.4 6.4 0 0 1-.56-2.689q0-1.92.824-3.368A8 8 0 0 1 158 108.83a11.2 11.2 0 0 1 3.52-1.552q2.008-.56 4.4-.568 7.6 0 10.08 6.104l-6.2 2.28a3.52 3.52 0 0 0-1.656-2.12 5.2 5.2 0 0 0-2.8-.784 5.3 5.3 0 0 0-2.8.624q-.976.568-.976 1.552 0 1.656 2.848 2.384l3.568.928q3.264.824 4.864 2.696a6.24 6.24 0 0 1 1.656 4.297q0 2.12-.88 3.824a8.8 8.8 0 0 1-2.432 2.848 12 12 0 0 1-3.68 1.76 16 16 0 0 1-4.6.624"/></svg>