<svg width="192" height="192" fill="none" xmlns="http://www.w3.org/2000/svg"><path d="M107 91a20.005 20.005 0 0 1 18.478 12.346 20.006 20.006 0 0 1-4.336 21.796A20.004 20.004 0 0 1 107 131" stroke="#000" stroke-width="12" stroke-linecap="round" stroke-linejoin="round"/><path d="M42 58a6 6 0 0 1 6-6h96a6 6 0 0 1 6 6v106a6 6 0 0 1-6 6H48a6 6 0 0 1-6-6V58Zm78-6V28a6 6 0 0 0-6-6H78a6 6 0 0 0-6 6v24m-7 39h42m-12 40h12" stroke="#000" stroke-width="12" stroke-linecap="round" stroke-linejoin="round"/></svg>