<svg xmlns="http://www.w3.org/2000/svg" width="192" height="192" viewBox="0 0 192 192"><path d="M116.38 32.289a5.334 5.334 0 0 0-6.918 3.865l-23.193 102.04-25.432-55.102a5.334 5.334 0 0 0-9.078-1.004l-34.666 45.334a5.333 5.333 0 0 0 .996 7.475 5.333 5.333 0 0 0 7.477-.996l29.293-38.31 28.295 61.306a5.334 5.334 0 0 0 10.043-1.055l23.027-101.32 9.535 22.246a5.334 5.334 0 0 0 9.031 1.277l18.602-22.736 12.428 26.926a5.333 5.333 0 0 0 7.078 2.608 5.333 5.333 0 0 0 2.607-7.076l-16-34.668a5.334 5.334 0 0 0-8.97-1.141L132.1 64.487l-12.537-29.254a5.33 5.33 0 0 0-3.184-2.947z"/></svg>