<svg xmlns="http://www.w3.org/2000/svg" width="192" height="192" viewBox="0 0 192 192"><path d="M97.641 49.408C50.672 49.408 16 91.649 16 137.713a4.88 4.88 0 0 0 4.88 4.888 4.88 4.88 0 0 0 4.896-4.88c0-41.193 30.784-78.537 71.865-78.537 0 0 13.984-.512 29.44 6.84 15.44 7.344 32.256 22.08 38.361 54.481l.712 4.296c.488 2.984-1.336 5.6-3.84 6.136l-.024.008c-2.544.544-5.024-1.048-5.64-4.04l-.144-.696v-.016a92.8 92.8 0 0 0-9.072-24.256c-4.576-8.256-10.72-15.736-18.536-21.256-18.68-13.168-42.313-12.576-61.185-1.488-14.984 8.8-24.88 23.76-28.456 40.977l.056-.24-.736 2.832c-2.16 8.28 3.04 16.952 11.472 18.4 7.048 1.216 13.888-3.216 16.008-10.056 1.72-5.552 4.896-13.112 9.968-18.96 5.072-5.84 11.656-10.056 21.656-9.976h.08c8.376-.08 15.024 3.88 19.976 10.28s7.872 15.28 7.872 24.032a4.88 4.88 0 0 0 4.888 4.888 4.88 4.88 0 0 0 4.88-4.88c0-10.88-3.464-21.68-9.912-30.016-6.432-8.32-16.16-14.16-27.752-14.08-12.92-.08-22.64 5.944-29.072 13.352-6.44 7.416-9.96 16.128-11.92 22.464-.76 2.456-2.856 3.696-5.008 3.32-2.624-.448-4.472-3.272-3.68-6.312l.768-2.936.024-.12c3.088-14.832 11.392-27.24 23.84-34.545 15.976-9.384 35.185-9.824 50.601 1.048 6.376 4.504 11.632 10.808 15.608 18 3.688 6.672 6.344 14.064 8.088 21.688l.112.528c1.64 7.912 9.36 13.304 17.248 11.624h.048l.056-.024-.08.016c7.792-1.656 12.744-9.408 11.448-17.28l-.728-4.448-.016-.056c-6.616-35.177-26.096-53.105-43.777-61.521-17.68-8.4-33.633-7.784-33.633-7.784"/></svg>