<svg xmlns="http://www.w3.org/2000/svg" width="192" height="192"><path d="M94.352 46.432a15.6 15.6 0 0 0-8.63 3.11c-6.94 5.195-8.365 15.048-3.182 22.007s15.011 8.387 21.951 3.19c6.94-5.196 8.366-15.048 3.183-22.007a15.65 15.65 0 0 0-13.322-6.3m-8.028 3.69 1.619 1.092 1.408-1.054-.465 1.77 1.503 1.105-1.858.049-.575 1.772-.63-1.758-1.826-.055 1.41-1.055zm17.201 2.464 1.618 1.093 1.409-1.055-.466 1.77 1.502 1.106-1.857.048-.574 1.772-.63-1.758-1.826-.055 1.409-1.055zm-8.866.23a9.29 9.29 0 0 1 7.908 3.74c3.076 4.13 2.23 9.978-1.89 13.062s-9.952 2.237-13.029-1.894c-3.076-4.13-2.23-9.979 1.89-13.063a9.25 9.25 0 0 1 5.122-1.845zm1.939 1.877-2.482 1.859-.303 2.086 4.276 5.74 2.08.302 2.483-1.858.301-2.086-1.456-1.956-1.918 1.437.851 1.145-1.026.768-3.088-4.145 1.027-.77.923 1.24 1.919-1.436-1.506-2.023zm-5.756 4.31-3.7 2.77 6.053 8.13 3.702-2.772.294-2.038-4.316-5.794zm.691 2.563 3.088 4.145-.973.73-3.087-4.146zM83.58 67.52l1.619 1.091 1.408-1.054-.465 1.77 1.503 1.105-1.858.049-.574 1.772-.63-1.757-1.827-.056 1.409-1.054zm17.491 2.795 1.618 1.092 1.408-1.055-.465 1.772 1.502 1.104-1.857.049-.574 1.772-.63-1.757-1.826-.056 1.409-1.055zM88.89 86.085l1.221 2.423-1.789 13.501h4.136l.683-5.288 2.537.039 1.323 5.191 1.682.058 2.422.028h.001s-1.383-4.832-1.58-5.682c.678-.198 1.567-.68 1.821-2.25.23-1.423.572-3.955.572-5.094 0-1.405-.883-2.926-2.844-2.926zm-10.836 0c-1.6 0-3.172 1.3-3.513 2.904 0 0-1.162 7.816-1.26 10.151-.117 2.769.285 2.769 2.284 2.87v-.001h6.642c2.055 0 3.15-.54 3.513-2.903l1.22-10.099c.172-1.794-1.145-2.921-2.744-2.921zm39.136 0 1.258 2.427-1.72 13.512v.001h9.45c2.05 0 2.689-1.677 2.855-2.456.165-.78 1.047-7.136 1.261-10.862.152-2.652-1.97-2.622-1.97-2.622zm-64.895.001 1.22 2.426.57 13.497h4.925l2.772-6.673 1.108 6.673h5.106l4.901-15.922h-4.393l-3.232 9.948-.506-9.948h-2.67L58.3 96.035l-.398-9.948zm58.004 0-5.981.032 1.19 2.394-1.674 13.518h9.94l.516-3h-5.684zm25.454.01c-1.544 0-2.073.505-2.177 1.45-.114 1.047-.355 2.915-.41 3.44-.044.432-.198 1.287.397 1.818.765.683 5.4 3.602 6.428 4.254s.573 2.218-.456 2.218h-2.273c-1.074 0-1.524 0-1.495-.818.014-.428.067-.795.126-1.145h-3.6c-.078.677-.161 1.435-.186 1.642-.206 1.7-.312 3.065 2.526 3.065 0 0 5.85-.007 6.957-.007 1.638 0 2.43-.056 2.706-1.302.091-.413.352-1.84.508-3.171.08-.685.452-1.53-1.073-2.549-.722-.482-5.35-3.735-5.35-3.735-.378-.284-.724-.47-.762-1.185-.04-.77.44-1.337 1.085-1.351h1.852c.798-.014 1.4.077 1.283.906-.054.386-.109.749-.155 1.06h3.996c.067-.538.15-1.155.261-1.896.166-1.114-.134-2.693-2.095-2.693zM79.67 88.508h2.063c.661 0 1.301.516 1.16 1.179l-1.06 8.672c-.14.662-.79 1.2-1.451 1.2h-2.064c-.661 0-1.082-.538-.941-1.2l1.06-8.672c.14-.663.572-1.179 1.233-1.179m14.546.001h2.772c.618 0 1.19.485 1.137 1.207-.037.51-.436 3.127-.471 3.455-.114 1.064-.764 1.124-1.49 1.124h-2.725zm28.613.255h2.196c.813 0 1.1.47 1.016 1.116-.14 1.082-.788 7.683-.962 8.498s-.74 1.151-1.304 1.151h-2.34zM28.64 92.88c-.938.002-5.832.465-6.49 4.674 0 0-5.485 40.22-6.073 44.082s2.41 3.946 4.072 3.933c1.663-.012 18.276.016 18.276.016 2.63 0 3.807-2.136 4.367-4.772l1.748-13.019-9.054-.179s-1.198 6.35-1.505 8.194c-.179 1.076-.75 1.196-2.54 1.196h-3.008c-1.794 0-1.968-.36-1.73-2.572.374-3.462 4.356-32.24 4.356-32.24s.256-2.438 2.801-2.374c1.082.028 3.262.071 4.476.164.776.06.48 1.316.48 1.316s-.573 4.972-.718 6.04c-.18 1.316-.064 1.675 1.61 1.675.866 0 4.087.06 4.892.06 1.67 0 2.207 0 2.423-1.367.302-1.909 1.395-9.876 1.395-9.876.561-2.636-.835-4.916-3.074-4.916zm121.22.068 1.496 4.142-6.137 48.436h23.443l1.415-9.567h-14.52l3.013-16.974 13.632.212.714-8.15-13.668-.038 1.502-10.749h14.218l1.037-7.165zm-39.282 12.395 1.526 4.19-4.686 35.819h8.05l5.065-38.19.21-1.767zm31.404.051H122.4l1.49 4.12-4.376 35.837h16.041c2.509 0 4.977-2.04 5.512-4.555l4.16-31.543c.471-2.21-1.04-3.86-3.244-3.86zm-67.622.001 1.496 4.154-4.615 35.803H85.9l1.167-8.705h-6.976l4.475-31.252zm17.893 0 1.496 4.154-4.615 35.803h14.66l1.061-8.705h-6.87l4.476-31.252zm-35.728.047c-2.498 0-5.094 1.536-5.489 4.535s-3.762 28.914-4.084 31.41.927 3.964 3.11 3.964h13.4c2.184 0 4.146.298 4.797-3.965.652-4.262 3.865-29.276 4.136-31.51.272-2.234-1.252-4.434-3.75-4.434zm3.795 4.986h2.836c.747 0 1.224.607 1.064 1.356l-3.74 27.273c-.16.75-.894 1.357-1.642 1.357h-2.554c-.747 0-1.224-.607-1.064-1.357l3.459-27.273c.159-.75.894-1.356 1.641-1.356m71.238.993h4.481c.588 0 .962.477.837 1.066l-3.718 26.563c-.126.589-.703 1.066-1.29 1.066h-4.305z"/></svg>