<svg xmlns="http://www.w3.org/2000/svg" width="192" height="192" viewBox="0 0 192 192"><path d="M33.803 16.002a3.2 3.2 0 0 0-1.33.24c-2.01.85-2.402 1.826-2.402 5.95 0 4.212.305 5.23 5.982 6.318l24.152 3.812-.849 1.458a15.46 15.46 0 0 0-14.582-.825l8.168 14.214H45.44c-2.755.024-3.46-.152-3.796-.609-.376-.52-1.401-.673-4.5-.673-4.004 0-4.004 0-4.004 1.122 0 .624.644 5.598 1.297 11.083l12.733 106.97c.008 2.138.216 4.636.473 5.541.56 2.026 2.987 4.54 4.909 5.093l79.366.304c7.687-.224 8.056-.784 9.505-2.138 2.018-1.882 2.394-3.259 2.739-10.17l13.974-115.66 1.257-1.441c.697-.785 1.601-2.627 2.01-4.108.68-2.41.689-2.843.104-4.244-.36-.857-1.105-1.762-1.658-2.002L53.828 18.9c-13.686-2.243-18.098-2.923-20.012-2.883zm27.515 16.496 87.422 14.254-81.785.416v-.176h5.181a.53.53 0 0 0 .529-.52.52.52 0 0 0-.52-.52l-5.254-.009a16 16 0 0 0-2.09-6.502 16 16 0 0 0-4.565-5.077zm-7.311 3.628c1.74.122 1.556 2.733-.184 2.61s-1.557-2.733.184-2.61m30.086 45.037c1.017.08 2.803.424 4.588.905l4.309 1.145.696-.921c.665-.881.753-.697 1.938 3.916.68 2.658 1.121 5.109 1.001 5.445-.136.344-2.058 2.162-4.284 4.052-2.242 1.898-3.804 2.979-3.508 2.418.761-1.417.08-1.938-4.044-3.083-3.235-.888-3.539-.905-6.054-.264-3.043.785-9.065 3.203-9.433 3.804-.384.617-1.073.464-1.073-.24 0-1.17.8-2.723 2.066-4.004.689-.705 3.684-3.9 6.663-7.103s5.861-5.926 6.406-6.062a2.4 2.4 0 0 1 .729-.008m20.636 5.125c1.233-.088 5.942 1.08 9.465 2.402 2.803 1.065 3.748 2.69 5.806 10.066l2.45 8.745c1.041 3.603.897 4.004-2.482 7.495-2.707 2.787-3.043 3.323-2.643 4.084.231.458.586.84 1.025 1.105.793.32.232.265-4.98-.464l-4.661-.649-1.394-5.237c-1.681-6.31-1.697-6.39-1.465-5.974.496.889 2.178.088 4.532-2.154 2.195-2.09 3.22-3.66 2.395-3.66-.457 0-11.34-3.059-11.515-3.235-.144-.144 2.354-9.97 3.163-12.412q.04-.105.304-.12zm-25.657 28.404-.192.192zm.376 1.033 4.965 1.361c3.908 1.073 4.765 1.442 4.004 1.714-1.057.4-1.041.617.4 5.734 1.09 3.883 1.674 3.78 5.95-1.01 1.93-2.162 3.668-3.923 3.86-3.923s2.507 1.914 5.133 4.252l4.78 4.26-3.186 3.524c-1.794 1.994-4.02 3.963-5.11 4.524-2.001 1.025-3.259 1.145-5.469.529a208 208 0 0 0-8.857-1.754c-5.325-.977-7.735-1.602-8.232-2.154-.384-.425-1.24-2.723-1.906-5.11-1.185-4.267-1.233-4.347-2.514-4.323-1.257.008-1.161-.137 2.442-3.812zm39.247 3.219.032.048zm-29.269 3.283v.016-.008zm.024.024.048.176-.056-.152z"/></svg>