<svg width="192" height="192" fill="none" xmlns="http://www.w3.org/2000/svg"><path d="M34 45h124l-15.33 119.762a6 6 0 0 1-5.951 5.238H55.281a6 6 0 0 1-5.951-5.238L34 45Z" stroke="#000" stroke-width="12" stroke-linecap="round" stroke-linejoin="round"/><circle cx="80" cy="149" r="3" stroke="#000" stroke-width="6" stroke-linejoin="round"/><circle cx="112" cy="149" r="3" stroke="#000" stroke-width="6" stroke-linejoin="round"/><path d="M142 163.491c0-5.3-1.19-10.548-3.502-15.444-2.311-4.897-5.7-9.346-9.971-13.093-4.272-3.748-9.343-6.72-14.924-8.749-5.581-2.028-11.562-3.072-17.603-3.072-6.04 0-12.022 1.044-17.603 3.072-5.581 2.029-10.652 5.001-14.924 8.749-4.271 3.747-7.66 8.196-9.971 13.093C51.19 152.943 50 158.191 50 163.491m23.622-36.558L64.919 113m62.162 0-8.703 13.933" stroke="#000" stroke-width="10" stroke-linecap="round" stroke-linejoin="round"/><path d="m34 22 124 23" stroke="#000" stroke-width="12" stroke-linecap="round" stroke-linejoin="round"/></svg>