<svg xmlns="http://www.w3.org/2000/svg" width="192" height="192" viewBox="0 0 192 192"><path d="M94.406 16.142a9.1 9.1 0 0 0-3 1.094L36.375 49.048a9.2 9.2 0 0 0-4.594 7.875v63.53a9.19 9.19 0 0 0 4.578 7.97l55.046 31.717.407.219L118.937 176l-.079-13.75.047-8.062a8 8 0 0 1 4-6.891l32.734-18.875a9.2 9.2 0 0 0 4.579-7.969v-63.53a9.19 9.19 0 0 0-4.579-7.97l-55.046-31.717a9.12 9.12 0 0 0-6.187-1.094m-15.047 41a9.48 9.48 0 0 1 7.64 2.625 9.44 9.44 0 0 1 2.626 9.39l25.328 14.673.078-.079.047-.062a9.48 9.48 0 0 1 13.22 0 9.464 9.464 0 0 1 0 13.766 9.48 9.48 0 0 1-13.22 0 9.47 9.47 0 0 1-2.468-9.875l-.094.047-25.14-14.469a9.48 9.48 0 0 1-13.578.375 9.464 9.464 0 0 1 0-13.766 9.48 9.48 0 0 1 5.562-2.625zm30.406 39.578 4.578 2.547-24.672 14.25A9.44 9.44 0 0 1 87 122.75a9.48 9.48 0 0 1-13.203 0 9.464 9.464 0 0 1 0-13.766 9.48 9.48 0 0 1 13.687.5z"/></svg>