<svg width="192" height="192" fill="none" xmlns="http://www.w3.org/2000/svg"><ellipse cx="84" cy="115" rx="4" ry="7" stroke="#000" stroke-width="9"/><ellipse cx="126" cy="115" rx="4" ry="7" stroke="#000" stroke-width="9"/><path d="M155.956 123.306c3.418-13.396 2.531-27.602-2.523-40.415-3.026-7.67-7.443-14.583-12.956-20.385-1.578 7.36-3.716 13.916-6.477 15.494-10-52-49-56-49-56 3 27-16 49-16 49s-1.805-9.747-6.283-18.396A64 64 0 0 0 98 170c13.208 0 26.047-4.576 36.526-13.019 10.478-8.442 18.011-20.28 21.43-33.675Z" stroke="#000" stroke-width="12" stroke-linecap="round" stroke-linejoin="round"/></svg>