<svg xmlns="http://www.w3.org/2000/svg" width="192" height="192" viewBox="0 0 192 192"><path d="M54.142 19c-4.235 0-7.981 9.257-10.289 23.492-1.437-8.253-3.516-13.459-5.835-13.459-4.322 0-7.828 18.023-7.828 40.26s3.506 40.26 7.828 40.26c1.774 0 3.42-3.047 4.726-8.19 2.08 18.777 6.401 31.682 11.398 31.682 3.876 0 7.337-7.75 9.667-19.977 1.6 23.252 5.595 39.748 10.276 39.748 2.95 0 5.63-6.54 7.6-17.184 2.374 21.975 7.892 37.367 14.315 37.367 6.424 0 11.933-15.392 14.317-37.367 1.982 10.644 4.659 17.184 7.598 17.184 4.682 0 8.69-16.495 10.28-39.748 2.33 12.227 5.802 19.977 9.666 19.977 4.997 0 9.32-12.905 11.398-31.681 1.318 5.13 2.952 8.189 4.726 8.189 4.322 0 7.826-18.023 7.826-40.26 0-22.228-3.5-40.245-7.82-40.26-2.317.008-4.405 5.202-5.83 13.459C145.853 28.257 142.095 19 137.87 19c-5.029 0-9.384 13.089-11.442 32.095-2.025-13.831-5.085-22.653-8.503-22.653-4.801 0-8.884 17.348-10.397 41.539-2.842-12.401-6.957-20.186-11.52-20.186-4.56 0-8.674 7.785-11.515 20.186-1.513-24.191-5.598-41.539-10.4-41.539-3.429 0-6.486 8.821-8.5 22.653C63.527 32.089 59.171 19 54.143 19zM23.441 47.339c-2.453 0-4.441 8.059-4.441 18s1.988 18 4.441 18 4.444-8.059 4.444-18-1.99-18-4.444-18m145.12 0c-2.453 0-4.444 8.059-4.444 18s1.99 18 4.444 18 4.441-8.059 4.441-18-1.988-18-4.441-18"/></svg>