<svg xmlns="http://www.w3.org/2000/svg" width="192" height="192" viewBox="0 0 192 192"><path d="M34.185 37.82a10.885 10.885 0 0 0-10.909 10.909v94.543a10.885 10.885 0 0 0 10.909 10.909h123.63a10.885 10.885 0 0 0 10.909-10.909V48.729a10.885 10.885 0 0 0-10.909-10.909zm99.086 72.723 6.363 7.272h-3.636v18.181h-5.454v-18.18h-3.636zm16.363 0 6.363 7.272h-3.636v18.181h-5.454v-18.18h-3.636zm-113.63 3.636h36.362c1.007 0 1.818.811 1.818 1.818v25.453c0 1.007-.81 1.818-1.818 1.818H36.004a1.814 1.814 0 0 1-1.818-1.818v-25.453c0-1.007.81-1.818 1.818-1.818m89.087 25.453h32.725v3.636h-32.725z" opacity=".8"/><path d="M37.822 117.81v5.454h21.817v-5.454zm0 7.272v5.455h29.089v-5.455zm0 10.91v3.636h32.725v-3.637z" opacity=".6"/><path d="m23.277 37.82-7.02 32.725c-1.297 6.043 2.525 10.909 8.569 10.909h142.36c6.043 0 9.864-4.865 8.568-10.909l-7.027-32.725z"/></svg>