<svg xmlns="http://www.w3.org/2000/svg" width="192" height="192"><path d="M33.582 16.002c-4-.065-7.956 1.773-10.445 5.277A12.4 12.4 0 0 0 21.04 30.6a12.4 12.4 0 0 0 5.145 8.044c5.656 3.897 13.39 2.542 17.382-3.048 3.884-5.651 2.53-13.374-3.048-17.365a12.5 12.5 0 0 0-6.937-2.23zm83.535.008a12.58 12.58 0 0 0-10.453 5.269 12.4 12.4 0 0 0-2.097 9.322 12.4 12.4 0 0 0 5.145 8.044c5.655 3.897 13.398 2.542 17.39-3.048 3.884-5.651 2.53-13.374-3.048-17.365a12.54 12.54 0 0 0-6.937-2.222m-42.005.008c-4.03-.063-8.02 1.768-10.562 5.26L43.949 51.554c-3.89 5.714-2.533 13.478 3.056 17.546 5.755 3.844 13.523 2.422 17.545-3.212l20.61-30.102c3.89-5.715 2.533-13.486-3.056-17.553a12.74 12.74 0 0 0-6.992-2.214zm83.698 0a12.77 12.77 0 0 0-10.554 5.26l-94.268 134.95c-3.89 5.715-2.541 13.487 3.048 17.554 5.714 3.89 13.486 2.541 17.553-3.048l94.268-134.95c3.995-5.692 2.628-13.546-3.056-17.553a12.74 12.74 0 0 0-6.991-2.214zM98.597 42.184c-4.03-.063-8.02 1.768-10.562 5.26l-23.469 33.86c-3.901 5.652-2.55 13.385 3.032 17.383 5.714 3.89 13.486 2.541 17.553-3.048l23.485-33.688c3.89-5.714 2.541-13.486-3.048-17.553a12.74 12.74 0 0 0-6.991-2.214"/></svg>