<svg width="192" height="192" fill="none" xmlns="http://www.w3.org/2000/svg"><path d="M81.993 27.802c7.736-7.736 20.278-7.736 28.014 0l54.191 54.191c7.736 7.736 7.736 20.278 0 28.014l-54.191 54.191c-7.736 7.736-20.278 7.736-28.014 0l-54.191-54.191c-7.736-7.736-7.736-20.278 0-28.014l54.191-54.191Z" stroke="#000" stroke-width="12" stroke-linecap="round" stroke-linejoin="round"/><path d="M71.605 90.251a26.002 26.002 0 0 1 21.98 30.379M75.757 66.606a49.997 49.997 0 0 1 41.281 39.639 49.995 49.995 0 0 1 .235 18.242" stroke="#000" stroke-width="12" stroke-linecap="round" stroke-linejoin="round"/></svg>