<svg xmlns="http://www.w3.org/2000/svg" width="192" height="192" fill="none"><circle cx="77.095" cy="92.179" r="4" stroke="#000" stroke-linecap="round" stroke-linejoin="round" stroke-width="8" transform="rotate(-5 77.095 92.179)"/><circle cx="79.417" cy="146.242" r="5" stroke="#000" stroke-linecap="round" stroke-linejoin="round" stroke-width="10" transform="rotate(-5 79.417 146.242)"/><circle cx="126.905" cy="87.821" r="4" stroke="#000" stroke-linecap="round" stroke-linejoin="round" stroke-width="8" transform="rotate(-5 126.905 87.821)"/><path stroke="#000" stroke-linecap="round" stroke-linejoin="round" stroke-width="12" d="M40.835 97.307c4.238-10.363 11.585-19.603 21.32-26.638 12.72-9.191 28.65-13.991 44.82-13.505s31.48 6.224 43.075 16.147 18.685 23.35 19.95 37.785l-12.911 1.127c-6.582.575-11.451 6.369-10.875 12.94l.695 7.933M22.058 113.028c.72 8.214 7.973 14.291 16.2 13.572s14.314-7.96 13.594-16.175-7.973-14.29-16.2-13.572-14.314 7.96-13.594 16.175m0 0c2.65 30.243 56.932 32.995 56.932 32.995m19.256-88.61 6.951 79.327m19.118-21.654 1.738 19.832M56.049 44.114l13.83 20.773M137.488 37l-10.007 22.856m-78.645 61.823 54.623-4.771"/></svg>