<svg width="192" height="192" fill="none" xmlns="http://www.w3.org/2000/svg"><circle cx="77.095" cy="92.179" r="4" transform="rotate(-5 77.095 92.179)" stroke="#000" stroke-width="8" stroke-linecap="round" stroke-linejoin="round"/><circle cx="79.417" cy="146.242" r="5" transform="rotate(-5 79.417 146.242)" stroke="#000" stroke-width="10" stroke-linecap="round" stroke-linejoin="round"/><circle cx="126.905" cy="87.821" r="4" transform="rotate(-5 126.905 87.821)" stroke="#000" stroke-width="8" stroke-linecap="round" stroke-linejoin="round"/><path d="M40.835 97.307c4.238-10.363 11.585-19.603 21.32-26.638 12.72-9.191 28.65-13.991 44.82-13.505 16.171.486 31.48 6.224 43.075 16.147 11.595 9.922 18.685 23.35 19.95 37.785l-12.911 1.127c-6.582.575-11.451 6.369-10.875 12.94l.695 7.933M22.058 113.028c.72 8.214 7.973 14.291 16.2 13.572 8.228-.719 14.314-7.96 13.594-16.175-.72-8.214-7.973-14.29-16.2-13.572-8.228.718-14.314 7.96-13.594 16.175Zm0 0c2.65 30.243 56.932 32.995 56.932 32.995m19.256-88.61 6.951 79.327m19.118-21.654 1.738 19.832M56.049 44.114l13.83 20.773M137.488 37l-10.007 22.856m-78.645 61.823 54.623-4.771" stroke="#000" stroke-width="12" stroke-linecap="round" stroke-linejoin="round"/></svg>