<svg width="192" height="192" fill="none" xmlns="http://www.w3.org/2000/svg"><path d="M92 96H56m18 18V78" stroke="#000" stroke-width="10" stroke-miterlimit="6" stroke-linecap="round" stroke-linejoin="round"/><path d="M52 76V28a6 6 0 0 1 6-6h76a6 6 0 0 1 6 6v136a6 6 0 0 1-6 6H58a6 6 0 0 1-6-6v-48" stroke="#000" stroke-width="12" stroke-linecap="round" stroke-linejoin="round"/><path d="M114 53h8v8h-8v-8Zm0 78h8v8h-8v-8Zm0-39h8v8h-8v-8Z" stroke="#000" stroke-width="8" stroke-linecap="round" stroke-linejoin="round"/><path d="M96 57h22m0 78h22m-22 0V57" stroke="#000" stroke-width="10" stroke-linecap="round" stroke-linejoin="round"/><path d="M96 22v54m0 94v-54" stroke="#000" stroke-width="12" stroke-linecap="round" stroke-linejoin="round"/></svg>