<svg xmlns="http://www.w3.org/2000/svg" width="192" height="192"><path d="M57.47 92.073c-.947 1.282-2.53 3.51-3.494 4.812-.49.662-1.373 1.863 1.556 1.863h15.426s2.486-3.382 4.57-6.21c2.836-3.848.246-11.855-9.89-11.855H25.725l-6.921 9.403h37.72c1.904 0 1.878.725.948 1.987zm-11.332 8.995c-2.93 0-2.046-1.204-1.557-1.866.964-1.302 2.574-3.507 3.52-4.788.932-1.263.957-1.987-.95-1.987h-17.25L16 111.317h33.896c11.195 0 17.428-7.615 19.35-10.248zm22.051 10.25h19.885l7.538-10.25-19.882.001c-.006 0-7.54 10.248-7.54 10.248zm51.305-30.635-7.627 10.36h-8.875l7.624-10.36h-19.88L77.439 98.75h48.637l13.296-18.066zm-22.546 30.634h19.878l7.542-10.248H104.49c-.007 0-7.542 10.248-7.542 10.248m56.655-12.568 13.298-18.066h-21.053c-.007 0-13.308 18.066-13.308 18.066zm-22.768 2.32s-1.453 1.986-2.16 2.942c-2.495 3.372-.288 7.307 7.86 7.307h31.924l7.542-10.248z"/></svg>