<svg width="192" height="192" fill="none" xmlns="http://www.w3.org/2000/svg"><path d="m118.168 99.528-7.611 64.089m7.611-64.09 50.013 11.175m-50.013-11.174 21.687-61.625m-21.687 61.625L76 29 45 142l73.168-42.472Zm-80.48 28.1 5.922 18.112a5.898 5.898 0 0 0 4.143 3.886l59.549 15.192a5.862 5.862 0 0 0 5.352-1.308l55.366-49.384a5.936 5.936 0 0 0 1.554-6.635l-27.633-69.01a5.89 5.89 0 0 0-4.43-3.616l-59.793-7.774a5.862 5.862 0 0 0-4.923 1.391L23.989 74.27a5.937 5.937 0 0 0-1.694 6.282l15.393 47.076Z" stroke="#000" stroke-width="12" stroke-linecap="round" stroke-linejoin="round"/></svg>