<svg xmlns="http://www.w3.org/2000/svg" width="192" height="192" viewBox="0 0 192 192"><path d="M87.444 104.56V19.004h17.111v85.556zM96 173.004q-15.828 0-29.833-6.092t-24.495-16.58-16.582-24.488q-6.092-13.997-6.092-29.842 0-17.11 7.058-32.297 7.06-15.185 19.894-26.307l11.978 11.978Q47.66 57.932 41.885 70.123T36.11 96.004q0 24.811 17.54 42.35T96 155.894q25.024 0 42.46-17.54t17.428-42.35q0-13.689-5.663-25.88-5.664-12.193-16.153-20.748l11.978-11.978q12.833 11.122 19.892 26.308T173 96.003q0 15.828-6.1 29.842t-16.47 24.486q-10.368 10.472-24.382 16.581-14.014 6.11-30.047 6.092"/></svg>