<svg xmlns="http://www.w3.org/2000/svg" width="192" height="192" data-name="Layer 2" viewBox="0 0 192 192"><defs><linearGradient id="b" x1="811.93" x2="1133.2" y1="219.82" y2="219.82" gradientTransform="translate(-295.49 44.501)scale(.40997)" gradientUnits="userSpaceOnUse"><stop offset="0" stop-opacity="0"/><stop offset=".76"/></linearGradient><linearGradient id="d" x1="759.78" x2="1150" y1="157.01" y2="157.01" gradientTransform="translate(-295.49 44.503)scale(.40997)" gradientUnits="userSpaceOnUse"><stop offset=".06" stop-opacity="0"/><stop offset=".85"/></linearGradient><linearGradient id="c" x1="835.62" x2="1150" y1="94.21" y2="94.21" gradientTransform="translate(-295.5 44.503)scale(.40997)" gradientUnits="userSpaceOnUse"><stop offset="0" stop-opacity="0"/><stop offset=".76"/></linearGradient><linearGradient id="a" x1="895.67" x2="1133.2" y1="31.4" y2="31.4" gradientTransform="translate(-295.49 44.499)scale(.40997)" gradientUnits="userSpaceOnUse"><stop offset=".04" stop-color="#00aff3" stop-opacity="0"/><stop offset=".04" stop-opacity="0"/><stop offset=".29" stop-color="#010000" stop-opacity=".35"/><stop offset=".51" stop-color="#010000" stop-opacity=".63"/><stop offset=".7" stop-opacity=".83"/><stop offset=".84" stop-opacity=".95"/><stop offset=".91"/></linearGradient></defs><path fill="url(#a)" d="M169.11 70.249H71.705v-25.75h52.792c19.063 0 35.705 10.356 44.613 25.75"/><path fill="url(#b)" d="M169.11 121.75c-8.909 15.39-25.549 25.75-44.613 25.75H37.375v-25.75z"/><path fill="url(#c)" d="M175.99 96H47.09V70.25h122.02c4.383 7.576 6.888 16.366 6.888 25.75z"/><path fill="url(#d)" d="M176 96c0 9.38-2.5 18.165-6.887 25.75H16.002V96h159.99z"/></svg>