<svg width="192" height="192" fill="none" xmlns="http://www.w3.org/2000/svg"><path d="M111 155a58.997 58.997 0 0 0 41.719-17.281 58.997 58.997 0 0 0 0-83.438A58.998 58.998 0 0 0 111 37" stroke="#000" stroke-width="12" stroke-linecap="round" stroke-linejoin="round"/><path d="M117 112c4.243 0 8.313-1.686 11.314-4.686a16.004 16.004 0 0 0 0-22.628A16.002 16.002 0 0 0 117 80m-63 5a16 16 0 1 0-32 0" stroke="#000" stroke-width="12" stroke-linecap="round" stroke-linejoin="round"/><circle cx="38" cy="53" r="16" stroke="#000" stroke-width="12" stroke-linecap="round" stroke-linejoin="round"/><path d="M22 85v64a6 6 0 0 0 6 6h20a6 6 0 0 0 6-6V85m57-48H82a6 6 0 0 0-6 6v106a6 6 0 0 0 6 6h29" stroke="#000" stroke-width="12" stroke-linecap="round" stroke-linejoin="round"/><path d="M117 80h-2a6 6 0 0 0-6 6v20a6 6 0 0 0 6 6h2" stroke="#000" stroke-width="12" stroke-linecap="round" stroke-linejoin="round"/></svg>