<svg xmlns="http://www.w3.org/2000/svg" width="192" height="192" viewBox="0 0 192 192"><path d="M96 72q-11.6 0-19.8-8.2T68 44t8.2-19.8T96 16t19.8 8.2T124 44t-8.2 19.8T96 72m0-16q5 0 8.504-3.496T108 44t-3.496-8.496T96 32t-8.496 3.504T84 44t3.504 8.504T96 56m0 120-48-48q-4-4-6-9t-2-11q0-11.8 8.104-19.896T68 80q5.8 0 10.704 2.2t8.896 6.2l8.4 8.4 8.4-8.4q4-4 8.904-6.2T124 80q11.8 0 19.904 8.104T152 108q0 6-2 11t-6 9zm0-22.8 36.4-36.4q1.8-1.8 2.704-4.104T136 108q0-4.8-3.4-8.4T124 96q-2.4 0-4.296.696T116 99.2l-20 20-20-20Q74.8 98 72.904 97T68 96q-5.2 0-8.6 3.6T56 108q0 2.4 1 4.496t2.6 3.904z"/></svg>