<svg xmlns="http://www.w3.org/2000/svg" width="192" height="192" viewBox="0 0 192 192"><path d="M59.365 21.769a9.6 9.6 0 0 0-9.56 9.569v40.508a33.76 33.76 0 0 0-19.85 29.803 25.778 25.778 0 0 0 11.656 48.685h8.193v10.345a9.6 9.6 0 0 0 9.56 9.56h107.07a9.6 9.6 0 0 0 9.57-9.552V75.479h-66.902V21.762zm57.125 0v47.516H176zM62.581 72.382a30.16 30.16 0 0 1 28.147 16.642 23.082 23.082 0 0 1 33.331 15.009 22.114 22.114 0 0 1-8.16 42.612H41.61a22.114 22.114 0 0 1-7.96-42.724v-1.496a30.13 30.13 0 0 1 28.94-30.043m10.28 32.427a5.473 5.473 0 0 0-5.472 5.472 5.44 5.44 0 0 0 3.152 4.945l-2.976 12.32h10.577l-3-12.304a5.44 5.44 0 0 0 3.176-4.96 5.473 5.473 0 0 0-5.472-5.473z"/></svg>