<svg xmlns="http://www.w3.org/2000/svg" width="192" height="192" viewBox="0 0 192 192"><path d="M107.9 46.103C78.812 35.511 36.275 16.135 36.275 16.135c-3.032-.784-3.44 2.12-3.44 2.12-.96 11.752 6.48 30.88 10.32 35.16 3.808 4.28 61.369 21.872 61.369 21.872s-44.24-8.936-54.937-12-7.28 3.44-7.28 3.44c2.192 11.872 12.472 25.336 20.624 26.624 8.128 1.28 42.312.776 42.312.776s-6.808.784-17.936 2.28c-8.216 1.128-18.656 2.408-21.376 3.44-6.376 2.4 4.624 12.032 4.624 12.032 16.28 14.776 24.936 9.72 24.936 9.72a224 224 0 0 1 16.376-4.656l-5.68 23.52h16.272L113.523 176l39.464-52.28h-20.68l4.28-7.441q.08.152.064.16c-.016.008 14.68-23.464 20.28-35.464l.12-.192h-.032c.968-2.056 1.656-3.776 1.936-4.96 3.312-13.72-21.968-19.128-51.057-29.72"/></svg>