<svg xmlns="http://www.w3.org/2000/svg" width="192" height="192" viewBox="0 0 192 192"><path d="M49.935 74.728c-.704.8.16 1.624 1 .992 13.368-13.648 29.792-20.496 48.817-20.6 15 0 26.448 4.64 33.456 8.56 18.192 10.2 24.696 25.64 26.496 31.072.096.28.376.792 1.008.792h2.576c.608 0 .848-.576.704-1.016a60 60 0 0 0-14.744-23.24A66.4 66.4 0 0 0 121.04 55.04c-23.272-6.664-51.921-1.784-71.105 19.688m-21 9.712a32 32 0 0 0-4.776.248 32 32 0 0 0-4.176.816 6.4 6.4 0 0 0-1.88.792 4.8 4.8 0 0 0-1.52 1.632c-.368.664-.72 1.384-.528 2.12.16.616 1 .824 1.76.952.68.104 2.24.184 2.64-.32.12-.12.176-.456.016-.688-.16-.272-.544-.464-.92-.536-.32-.056-.848-.112-1.176-.16a1.6 1.6 0 0 1-.448-.128l-.024-.032.024-.024.072-.064a8 8 0 0 1 1.32-.464 19 19 0 0 1 3.672-.488c1.2-.064 2.416-.064 3.416-.032 4.024.128 7.92.776 11.84 1.896q3.152.912 6.568 2.256a46.6 46.6 0 0 1 9.576 5.176c2.704 1.904 5.12 4.056 6.984 6.448 1.136 1.456 2.488 3.656 3.168 5.785a8.32 8.32 0 0 1-.08 5.656c-.784 2.032-2.408 3.92-5.088 5.32a18.4 18.4 0 0 1-3.424 1.344q-2.096.584-4.248.8a37 37 0 0 1-6.4.096 40 40 0 0 1-3.568-.512l-.264-12.384a40 40 0 0 1 11.336 1.92c.464.16 1.016.488 1.064.984a.8.8 0 0 1-.192.568 4 4 0 0 1-1.4 1.048c-.296.144-.552.248-.664.384-.128.168-.136.416.04.552a3.92 3.92 0 0 0 4.936-.832c.8-.88 1.04-1.576 1.12-2.288a4 4 0 0 0-.72-2.6 7.2 7.2 0 0 0-2.672-2.08 22.4 22.4 0 0 0-5.4-1.648 36 36 0 0 0-5.472-.52c-1-.016-2.008.032-2.008.032s-.04-1.68-.112-2.8c-.128-1.832-.64-5.432-2.304-6.472-.304-.184-.68-.208-.888.08-.32.424-.64 2.032-.72 2.448l-.208 1.424a56 56 0 0 0-.4 5.728l-.08.08s-.752.112-1.712.296a32 32 0 0 0-6.2 1.88c-1.536.672-3.736 1.856-4.4 3.416a2.4 2.4 0 0 0-.24 1.016 4 4 0 0 0 .552 2.12c.72 1.36 2.168 2.84 3.392 3.936a33.6 33.6 0 0 0 7.28 4.888l1.248.6.144 1.256c.08.72.16 1.456.44 2.128a2.4 2.4 0 0 0 .408.656c.48.536 1.024.648 1.248.688a3.7 3.7 0 0 0 1.896-.232 1.28 1.28 0 0 0 .576-.6 4 4 0 0 0 .28-1.144c.024-.368.008-.792.008-.792s1.48.352 2.512.544a29.9 29.9 0 0 0 17.368-2q2.088-.96 3.704-2.296a13.6 13.6 0 0 0 3.048-3.568l.352-.56a11.2 11.2 0 0 0 1.536-5 13.3 13.3 0 0 0-1.08-5.904 20 20 0 0 0-2.16-3.92 35 35 0 0 0-4-4.728 40 40 0 0 0-2.92-2.656c-1.744-1.448-3.416-2.544-3.92-2.88a48 48 0 0 0-5.376-3.024 58.4 58.4 0 0 0-10.768-3.952 56 56 0 0 0-6.664-1.352 40 40 0 0 0-4.352-.32zm49.441 3.44c-1.44-.016-2.96.36-4.112.84a13.6 13.6 0 0 0-4.624 3.168c-1.232 1.304-2.176 2.976-2.08 4.776a4.3 4.3 0 0 0 .56 2q.184.296.424.624c.16.24.312.496.368.728.056.272 0 .624.016.944a2.8 2.8 0 0 0 .888 1.968q.344.288.656.248a.8.8 0 0 0 .504-.224 2.4 2.4 0 0 0 .376-.44c.096-.136.512-.88.512-.88a5.6 5.6 0 0 0 1.168.36 8 8 0 0 0 2.392.088c.8-.088 1.816-.336 2.584-.64 2.392-.928 4.24-2.28 6.104-4.192a6.4 6.4 0 0 0 1.416-2.16 4.3 4.3 0 0 0 .28-2.44 3.44 3.44 0 0 0-1.24-2 4.8 4.8 0 0 0-1.776-.832c-.16-.032-.376-.056-.464-.112q-.12-.096-.248-.288a4.8 4.8 0 0 0-1.848-1.24 5.6 5.6 0 0 0-1.864-.296zm-3.064 3.888-.72.608a24 24 0 0 0-3.184 3.36 24 24 0 0 0-1.072 1.488l-.184-.4a1.6 1.6 0 0 1-.12-.752 2.4 2.4 0 0 1 .352-1.096 6.4 6.4 0 0 1 1.36-1.6 7.2 7.2 0 0 1 2.952-1.528c.344-.072.616-.08.616-.08m6.368.368q.4 0 .776.16a1.44 1.44 0 0 1 .888 1.168 2.56 2.56 0 0 1-.584 1.848 8 8 0 0 1-.776.84 10.4 10.4 0 0 1-3.6 2.064q-1.136.36-2.552.504l-.48.016c-.616.04-1.728-.024-1.776-.16q.48-.704.992-1.392A19 19 0 0 1 77.12 94.6c.84-.72 1.744-1.392 2.344-1.736a4.5 4.5 0 0 1 2.216-.728m79.937 7.264c-.4 0-.816.336-.704.96.6 3.184.904 6.304 1.008 9.24h-9.256c-.32 0-.76.216-.76.84v2.656c0 .528.368.824.808.824h9.2a61.5 61.5 0 0 1-1.008 9.297c-.048.392.096.912.848.912h2.344a1.09 1.09 0 0 0 1.104-.984c.56-3.256.832-6.193.928-9.225h9.064c.44 0 .8-.296.8-.824l.008-2.656c0-.624-.44-.84-.752-.84h-9.12a64 64 0 0 0-.936-9.248 1.12 1.12 0 0 0-.992-.96zm-53.793 2.664c-.224.008-.48.12-.584.528a3.2 3.2 0 0 0 .096 1.68c2.04 6.92 2.504 11.016 2.504 11.016s.096 1.2-.136 1.272c-.16.128-.344-.048-.344-.048-.24.008-2.48-3.744-2.48-3.744l-.432-.736c-2.464-3.976-3.96-5.336-3.96-5.336-.344-.32-1.24-1.224-2.36.016-1.12 1.248-2 5.256-2.344 9.024-.304 3.76-.072 5.904.48 6.8.6.92 1.76 1.232 2.72.448 1.024-.784.832-5.744.992-8.288.152-2.56.4-2.096.4-2.096.224-.064 1.392 2.28 1.392 2.28s3.064 6.272 4.984 7.2c1.952.928 3.52-.568 4.112-1.968.608-1.4 1.632-6.056.104-11.208-1.536-5.16-4.704-6.752-4.704-6.752s-.208-.088-.44-.08zm28.504 2.48c-4.984 4.48-5.84 9.408-5.912 9.824-.48 2.776.08 4.737.928 6.097-.72 1.552-4.512 9.704-3.92 14.688.472 3.248 3.936 6.096 4.368 3.68.816-6.24 2.224-10.608 4.144-15.264 5.408 1.24 9.48-4.016 10.92-6.537 2.224-3.96 1.664-11.048-2.24-11.016-3.832.032-8.864 7.065-11.08 10.464-.4-2.128 1.04-4.824 1.04-4.824s2.304-4 2.64-4.816c.312-.816.488-2.496.096-2.664-.288-.136-.776.192-.984.376zm-46.88.048c-1.065 0-2.065.08-2.905.184-2.784.336-6.512 1.2-8.112 3.496a4.4 4.4 0 0 0-.68 3.312c.056.296.24.592.48.848a2.4 2.4 0 0 0 .936.64 5.6 5.6 0 0 0 1.104.272c.528.096 1.04.16 1.248.176l2.312.208.76.064.96.08.88.096c1.624.176 3.872.464 5.216 1.032 0 0 1.52.528 1.512 1.392 0 .432-.328.768-.648 1-1.24.88-2.72 1.432-4.256 1.752-1.432.296-2.912.4-4.32.368a6.4 6.4 0 0 1-2.8-.6q-.912-.408-.904-.976a1.12 1.12 0 0 1 .616-.984 2.4 2.4 0 0 1 1.408-.232 6.4 6.4 0 0 1 1.552.432c1.864.736 2.736 1.36 4.376 1.104.608-.088 2.736-.552 3.024-1.432.072-.208-.032-.44-.192-.6a9.6 9.6 0 0 0-1.84-.848 20.8 20.8 0 0 0-4.944-.904 8.8 8.8 0 0 0-3.52.544 3.2 3.2 0 0 0-1.576 1.184 2.9 2.9 0 0 0-.52 1.648 3.44 3.44 0 0 0 .768 2.112 6.4 6.4 0 0 0 1.32 1.28 12.8 12.8 0 0 0 8.576 2.272c1.232-.144 2.456-.424 3.616-.984a6.4 6.4 0 0 0 2.368-1.872 5.2 5.2 0 0 0 .984-2.4 6.4 6.4 0 0 0-.424-3.448 8 8 0 0 0-.536-.976 3.5 3.5 0 0 0-1.304-1.144 8 8 0 0 0-1.992-.736 24 24 0 0 0-2.464-.456c-.08 0-.104-.008-.192-.024l-6.72-.8a8 8 0 0 1-1.016-.192c-.344-.112-.608-.28-.352-.56.136-.152.544-.256.776-.328 3.04-.832 6.904-.736 10.096-.912.72-.048 2.336-.144 3.12-.392a2.16 2.16 0 0 0 1.536-1.584c.08-.432-.128-.64-.536-.856-1.816-.968-4.448-1.28-6.792-1.256m37.64.184c-4.56.008-10.52 1.112-11.208 1.448-.688.32-.616.832.28 1.96.96 1.184 2.576 1.08 2.576 1.08l-1.416 2.936c-1.16.08-1.552.44-1.552.44-.672.72.248 2.824.248 2.824s-2.008 4.512-.56 6.896c1.576 2.496 3.432 2.384 3.432 2.384 3.52.256 9.312-3.44 9.624-4.656.256-.992-.64-2.064-1.448-2.264-.752-.16-6.56.928-7.248 1.12-.752.2-.416-.504-.416-.504l.896-3.04s5.536-.208 6.344-.344c.744-.136.784-.664.784-.664s.104-.864.08-1.68c-.088-.864-.776-.784-.776-.784-2.152-.224-5.088.024-5.088.024l.744-2.32s5.888-.288 8.128-.8c1.152-.28.48-1.408.48-1.408-1.4-2.8-3.016-2.64-3.016-2.64zm-53.185.544c-.472 0-.744.648-.88.984-.408 1.064-.704 3.6-.792 4.4-.24 2.4-.44 8.08-.024 10.984.176 1.208.576 2 1.8 2.256.496.104 1.408.08 1.8-.176a1.6 1.6 0 0 0 .68-1c.224-1.008.128-2.44.08-3.52l-.136-3.824c-.08-1.712-.288-6.088-.76-8.064-.208-.856-.56-1.632-1.392-1.952a1.6 1.6 0 0 0-.376-.088m71.209 4.4c.272-.016.432.16.52.344.304.624.504 3.904-2.88 6.904a9.84 9.84 0 0 1-4.8 1.984c2.024-3.936 4.552-6.832 5.944-8.376.56-.616.944-.84 1.216-.856m-108.47.416s-.04 1.84-.048 3.68a256 256 0 0 0 .072 7.088s-1.32-.432-2-.776a27.2 27.2 0 0 1-8.208-5.52c-.52-.504-1.04-1.024-.912-1.728.088-.528 1.232-1.04 1.672-1.16a43 43 0 0 1 6.368-1.312c1.136-.176 3.056-.272 3.056-.272"/></svg>