<svg xmlns="http://www.w3.org/2000/svg" width="192" height="192" viewBox="0 0 192 192"><path d="m34.478 73.704 1.218 13.191L16 89.129l2.497 29.15h26.81l-.101-44.575zm50.701 0v13.191h-4.297l-2.26 7.485 6.557.008v23.888h17.662l-2.157-10.358-7.896 2.433.753-15.952 6.055.008-1.07-7.512h-4.63l.622-13.19zm72.539 0 .51 13.191h-3.476l-2.257 7.485h6.024l.925 23.896H176l-2.156-10.358-6.793 2.433.003-15.97h5.348l-1.264-7.486h-4.082l.002-13.191zM48.638 86.895v7.049l5.952.351 3.748-7.4zm14.186 0L57.92 98.032l1.033 5.642 14.336 2.457-1.136 5.758-12.65-2.085 1.235 8.472h19.004l1.235-17.372-14.674-3.522 1.323-3.002 7.826-.085 2.225-7.396zm45.871 0-7.415.004 4.769 31.397h10.506l-4.628-17.346 9.928-6.12-3.597-7.935h-3.236l-4.625 6.956zm14.397 0 2.75 7.525h5.336l.5-7.525zm12.386 0-.672 31.381h21.516l-1.864-9.102-10.485.909-2.576-14.398 7.757-1.305 2.48-7.485zM36.624 94.38l1.621 15.09-12.175.826-2.407-13.405zm11.994 3.199-.067 20.697h8.844L54.59 97.822zm82.56.225-6.019.025-2.805 20.454h8.576z"/></svg>