<svg xmlns="http://www.w3.org/2000/svg" width="192" height="192" viewBox="0 0 192 192"><path d="M60.33 65.227c-1.173 6.42-.358 5.157-6.317 4.61 5.87 2.807 5.327 1.451 2.435 7.419 2.53-2.082 3.793-3.8 3.884-5.698.093 1.898 1.355 3.526 3.885 5.698-2.892-6.062-3.433-4.705 2.437-7.418-5.96.546-5.145 1.719-6.322-4.611zm-2.694 2.194a.8.8 0 0 0-.461.156h-.002c-.363.363-.453.906-.184 1.268.363.363.904.452 1.267.183.358-.364.448-.904.18-1.266a1.1 1.1 0 0 0-.8-.34m5.302 0a1.1 1.1 0 0 0-.798.34c-.274.363-.183.903.18 1.267.362.269.904.18 1.262-.183.273-.362.183-.905-.18-1.268a.8.8 0 0 0-.464-.156m-33.216.607-4.243.185h-7.042L16 68.123l.27 2.076v2.987l.183 4.61v15.192l-.183 5.877-.27 2.53 2.525-.18h2.71l3.886.18 5.777-.18h.54c2.167-.09 4.245-.541 6.05-1.446 1.987-.903 3.702-2.26 5.239-3.978q4.331-5.024 4.332-12.207c.09-4.069-1.083-7.506-3.34-10.397l-.001-.002c-2.256-2.802-5.506-4.52-9.57-4.973-.81-.09-1.626-.185-2.71-.185zm82.618.183v.002h.002v-.002zm0 .002c-1.263.268-2.798.269-4.15.18-3.791 7.595-7.406 15.19-11.109 22.691L86.247 68.302a31 31 0 0 1-4.062 0c-.273 1.718-.452 3.437-.725 5.151l-.542 4.616-1.44 10.85-.995 7.14-.542 2.895-.453 2.172c1.357-.184 2.799-.094 4.245 0 .632-7.328 1.352-14.562 2.077-21.885l10.472 21.974h1.805l1.535-3.348 4.424-8.947 4.606-9.679 2.169 22.063c2.53-.272 5.054-.273 7.584-.09-1.446-11.034-2.709-21.972-4.065-33m59.414 1.265-6.863 3.07.183 5.972-3.343-.183c.184.904.184 1.718 0 2.533 1.084 0 2.077 0 3.16-.09v14.825c0 .636 0 1.357.09 1.903.541 4.88 5.869 5.33 9.845 3.886l.99-.363.184-1.988c-1.536.726-3.341.726-4.246-.54-.452-.636-.54-1.9-.54-3.618V80.78l4.423.09a6.45 6.45 0 0 1 0-2.623c-1.352.451-2.8.363-4.156.363v-4.884l.185-2.35zm-148.26 1.358h3.882c1.351 0 2.797.09 4.15.452 4.427 1.084 8.036 4.337 8.036 12.564s-2.977 12.932-8.037 14.288a16.6 16.6 0 0 1-3.79.452h-4.241v-6.508l-.095-7.144.095-7.144zm106.62 6.58a10 10 0 0 0-.98.016c-2.888.273-5.595 1.541-8.214 3.165l.54 2.986.453-.09c2.44-2.444 5.15-2.806 7.133-2.17 3.524 1.084 4.966 5.062 0 6.78a31 31 0 0 1-2.347.541c-3.702.542-7.494 2.44-7.494 6.781 0 2.892 1.444 5.426 4.695 6.241 1.805.452 3.61.363 5.146-.363 1.173-.54 2.167-1.356 3.072-2.623l.005-.006c.285-.255 1.766 6.036 9.025 2.177l.18-1.176c-.543 0-1.173-.09-1.626-.27h-.002c-1.625-.541-1.172-2.17-1.172-3.617v-9.855c0-3.705-1.446-6.96-5.328-8.048a13.8 13.8 0 0 0-3.087-.47zm29.182.2c-5.598.09-6.05 2.618-7.949 6.33l-.09-5.789a39.3 39.3 0 0 1-6.5 0c.995 4.79.274 17.812 0 23.058h7.042c-.269-3.8-.362-7.595-.362-11.302v-1.81c.709-5.385 6.928-3.699 7.135-3.534l.002.002v.001l.002.002.54-.45c-.183-2.171-.093-4.343.18-6.507zm-103.66.995-.275.54h9.843l-.27-.54zm-1.173 2.713-.274.63H66.38l-.273-.63zm-1.174 2.801-.271.727h14.626l-.363-.727zm-1.268 2.89-.359.818h17.155l-.362-.817zm80.363 1.904c-.357 4.878.274 9.4-3.34 9.673l-.001-.001h-.27c-1.898 0-2.98-1.356-2.89-3.979.093-2.529 1.624-3.706 3.25-4.431 1.177-.541 2.44-.811 3.251-1.262M50.76 90.093l-.362.993H70.08l-.358-.993zm-1.262 3.075-.45 1.083h22.57l-.453-1.083H49.499zm-1.356 3.254-.54 1.176h25.462l-.542-1.176zm-1.445 3.348-.542 1.355h28.26l-.54-1.355zm117.11 2.62-5.509.093.003-.002c-.722 0-1.262.09-1.715.18-.452.089-.905.272-1.174.54a2.5 2.5 0 0 0-.813 1.088 14 14 0 0 0-.542 1.714l-.358 1.719-2.262 10.309c0 .089 0 .179-.09.272-.179.631-.451 1.084-.72 1.356-.363.269-.905.36-1.537.36h-2.797c-.09 0-.273-.001-.453-.09-.453-.18-.81-.542-1.084-1.173a1.7 1.7 0 0 1-.18-.725l-.903-6.151c-.09-.542-.09-.994 0-1.26 0 0 0-.094.09-.094.088-.09.087-.18.183-.27l.088-.088s.09 0 .09-.094c.269-.18.631-.18 1.172-.18h5.872l.362-1.986h-9.573c-1.626 0-2.257.81-1.988 2.528l1.267 8.5c0 .362.09.63.268.994.273.725.722 1.267 1.263 1.54.542.27 1.268.358 1.989.358h6.049a8.3 8.3 0 0 0 1.713-.178c.453-.09.904-.274 1.178-.542.358-.273.632-.636.811-1.088s.361-.995.54-1.715l.275-1.449 2.256-10.85c.18-.631.453-1.083.722-1.261.362-.274.904-.363 1.535-.363h2.257c.18 0 .361 0 .63.088.184.09.453.181.632.275zm-41.621 5.332c-.995 0-1.9.184-2.71.363-.815.18-1.446.54-2.077 1.082a8.5 8.5 0 0 0-1.535 2.17c-.453.905-.816 1.994-1.084 3.35-.274 1.174-.363 2.077-.363 2.892 0 1.356.364 2.439.995 3.255.63.814 1.716 1.175 3.161 1.175h5.238v-1.63c-1.357.184-2.35.275-2.892.275-1.084 0-1.895-.274-2.257-.636-.452-.452-.63-1.083-.63-1.897 0-.452 0-.994.089-1.536.09-.542.179-1.177.363-1.897h7.582c.27-1.179.36-2.172.36-2.988 0-1.445-.36-2.438-1.085-3.073-.72-.631-1.714-.905-3.155-.905m-8.577.273c-.274 0-.543.09-.727.18-.268.09-.447.272-.72.452l-1.354 1.088.18-1.63h-3.883c.09.272.09.631.09.904v.814l-2.58 12.022h3.663l2.167-10.124a2.04 2.04 0 0 1 .722-1.178c.363-.268.815-.45 1.267-.45.9 0 1.353.45 1.353 1.265v.185l2.44-2.713c0-.184-.094-.363-.273-.546-.179-.18-.452-.27-.905-.27zm-8.994 13.83h-.04v.184zm61.993-13.83v.002l-2.17 10.397c-.088.541-.356.903-.72 1.266-.362.358-.81.454-1.352.454-.452 0-.815-.094-1.084-.363-.268-.269-.452-.542-.452-.995v-.184q0-.089.09-.178l2.167-10.397h-3.972v1.625l-2.167 10.307c0 .09 0 .183-.094.273v.269c0 .451.185.815.453 1.088.362.269.814.362 1.355.362h3.252c.452 0 1.352-.185 1.894-1l-.357 1.719c-.185.815-.453 1.357-.815 1.63-.363.269-.904.363-1.535.363h-3.43c-.179 0-.453 0-.632-.095-.184-.089-.452-.178-.63-.268l-.453 2.35h6.77a8.3 8.3 0 0 0 1.714-.18c.452-.093.905-.273 1.178-.547.357-.268.63-.63.81-1.083s.363-.994.542-1.718l3.16-15.098zm-36.837.091v2.083a4.55 4.55 0 0 1 1.804-.363h1.535c.721 0 1.172.089 1.44.361.274.18.455.543.455.995v.27c0 .093 0 .183-.09.272l-.18.815a32 32 0 0 0-3.16.178 6.9 6.9 0 0 0-2.53.727c-.721.362-1.353.902-1.896 1.533-.541.635-.903 1.54-1.082 2.533-.184.904-.273 1.72-.273 2.35 0 .905.272 1.536.725 1.809.448.273 1.263.452 2.257.452h2.167s1.442.09 2.078-.993l-.183.993h4.063c-.09-.179-.183-.363-.183-.542s-.09-.361-.09-.54 0-.455.09-.817l1.9-8.95.001-.003c.09-.362.088-.63.088-.903 0-1.534-.993-2.26-2.977-2.26zm-8.22.991c.542 0 .994.184 1.177.543.27.361.358.814.358 1.355 0 .274 0 .547-.09.905-.09.363-.09.636-.18.998h-3.88c.179-1.177.54-2.17.988-2.806.453-.631.996-.994 1.627-.994m-43.7.544.72 1.717h25.632l-.002-.002v-.002c-.028-.123.291-1.542.374-1.713zm26.352 1.717v.002l.002.002h.002v.002h.002v-.002h.002l.004-.004zm30.259 2.533-.9 4.158v.002c-.094.543-.363.995-.725 1.446-.358.453-.9.635-1.715.635-.363 0-.721-.093-.995-.273-.269-.18-.357-.541-.357-.994v-.273c0-.089-.001-.18.088-.27l.36-1.806c.183-.998.724-1.719 1.445-2.082.814-.362 1.715-.543 2.799-.543m-54.717.454.725 1.718h22.66l.452-1.718zm1.987 4.7.722 1.719h19.684l.45-1.718zm63.566 4.29a1.715 1.715 0 0 0-1.714 1.677 1.716 1.716 0 1 0 3.43 0 1.715 1.715 0 0 0-1.716-1.678m5.777.001a1.716 1.716 0 0 0-1.712 1.681 1.716 1.716 0 1 0 3.432-.005 1.716 1.716 0 0 0-1.72-1.676"/></svg>