<svg xmlns="http://www.w3.org/2000/svg" width="192" height="192"><path d="M134.17 55.039q-3.85 0-6.97 1.377c-3.12 1.377-3.87 2.23-5.37 3.935q-2.22 2.559-3.428 6.212-1.18 3.626-1.18 8.123v2.839q0 4.497 1.152 8.123t3.344 6.184a15 15 0 0 0 5.34 3.935q3.12 1.349 7.056 1.349 5.031 0 8.6-1.8 3.6-1.798 5.594-5.002 2.024-3.204 2.277-7.336h-8.404q-.17 2.473-1.096 4.132a5.82 5.82 0 0 1-2.614 2.501q-1.715.843-4.357.843-2.25 0-3.85-.815-1.575-.843-2.587-2.473-.983-1.659-1.461-4.048-.478-2.417-.478-5.593V74.63q0-3.26.506-5.678.534-2.445 1.602-4.048 1.068-1.602 2.642-2.389 1.575-.786 3.682-.787 2.811 0 4.497.9a5.58 5.58 0 0 1 2.558 2.614q.844 1.715 1.012 4.188h8.404q-.394-4.16-2.36-7.42-1.94-3.261-5.482-5.116-3.513-1.855-8.629-1.855m-39.238.028q-3.85 0-7.055 1.377a15.65 15.65 0 0 0-5.51 3.992q-2.304 2.613-3.569 6.324-1.265 3.682-1.265 8.376v1.94q0 4.665 1.265 8.375 1.292 3.71 3.626 6.325a15.8 15.8 0 0 0 5.51 3.963q3.203 1.377 7.054 1.377 3.88 0 7.055-1.377a15.5 15.5 0 0 0 5.51-3.963q2.304-2.614 3.569-6.325 1.265-3.71 1.265-8.376v-1.94q0-4.692-1.293-8.375-1.265-3.711-3.598-6.324a15.3 15.3 0 0 0-5.509-3.992q-3.176-1.377-7.055-1.377m-53.573.562v40.924h12.564q4.16 0 7.589-1.377 3.458-1.406 5.93-3.963 2.502-2.586 3.851-6.184 1.378-3.597 1.378-7.954v-1.94q0-4.384-1.378-7.954-1.349-3.597-3.85-6.184-2.502-2.585-5.931-3.963-3.4-1.405-7.505-1.405h-4.216zm53.573 6.156q2.136 0 3.794.871 1.659.843 2.811 2.53 1.153 1.686 1.743 4.16.59 2.473.59 5.734v1.995q0 3.232-.59 5.734-.59 2.474-1.715 4.188-1.125 1.686-2.782 2.558-1.658.87-3.795.871c-2.137.001-2.689-.29-3.794-.871q-1.659-.872-2.811-2.558-1.153-1.715-1.743-4.188-.59-2.502-.59-5.734V75.08q0-3.26.59-5.734t1.715-4.16q1.153-1.687 2.782-2.53 1.658-.87 3.795-.871m-45.141.45h4.216q2.445 0 4.329.843a8.1 8.1 0 0 1 3.176 2.445q1.292 1.63 1.94 4.02.674 2.388.674 5.537v1.995q0 4.104-1.18 6.999-1.154 2.895-3.43 4.413-2.277 1.49-5.593 1.49H49.79zm-1.13 48.734q-2.378 0-4.306.85a9.4 9.4 0 0 0-3.316 2.431q-1.373 1.582-2.12 3.838-.728 2.24-.729 5.018v1.753q0 2.779.713 5.019.711 2.24 2.065 3.82a9.3 9.3 0 0 0 3.3 2.43q1.928.834 4.358.833 3.108 0 5.312-1.11 2.223-1.112 3.456-3.092 1.251-1.98 1.407-4.532h-5.192q-.104 1.529-.676 2.554a3.6 3.6 0 0 1-1.616 1.544q-1.06.52-2.69.521-1.39 0-2.38-.502-.971-.522-1.597-1.53-.608-1.023-.904-2.5-.294-1.493-.295-3.455v-1.788q.001-2.013.314-3.507.33-1.511.989-2.502.66-.99 1.633-1.475.971-.486 2.274-.486 1.736 0 2.778.556a3.45 3.45 0 0 1 1.58 1.615q.52 1.06.624 2.587h5.193q-.244-2.57-1.459-4.584-1.198-2.015-3.385-3.16-2.171-1.147-5.331-1.146m-22.52.018q-2.048 0-3.767.502-1.702.504-2.953 1.442a6.6 6.6 0 0 0-1.944 2.222q-.695 1.285-.695 2.865 0 1.632.66 2.866a7.3 7.3 0 0 0 1.84 2.17q1.18.92 2.71 1.615 1.545.694 3.263 1.249 1.545.486 2.519.938.972.452 1.51.92.538.452.73 1.007.207.54.207 1.215 0 .85-.434 1.529-.416.677-1.301 1.076-.868.382-2.224.382a8.8 8.8 0 0 1-2.048-.226 4.6 4.6 0 0 1-1.598-.746 3.34 3.34 0 0 1-1.024-1.32q-.364-.816-.364-1.997h-5.226q0 2.136.885 3.699a7.6 7.6 0 0 0 2.36 2.57 11.2 11.2 0 0 0 3.318 1.51q1.822.486 3.697.486 2.084 0 3.768-.468 1.685-.47 2.9-1.371a6.1 6.1 0 0 0 1.858-2.207q.643-1.302.642-2.951 0-1.563-.537-2.795-.538-1.233-1.597-2.205c-1.06-.972-1.588-1.233-2.641-1.754q-1.563-.78-3.629-1.407a23 23 0 0 1-2.169-.78 8.7 8.7 0 0 1-1.58-.851q-.643-.452-.973-.973a2.2 2.2 0 0 1-.312-1.164q0-.85.45-1.527.453-.695 1.355-1.112c.902-.417 1.355-.417 2.258-.417q1.406.001 2.326.505.938.486 1.389 1.337.469.833.47 1.944h5.173q0-2.257-1.163-4.01-1.146-1.755-3.23-2.761t-4.88-1.007m43.338.346-9.392 25.281h5.539l1.748-5.33h9.085l1.754 5.33h5.556l-9.444-25.28h-1.321zm16.635 0v25.281h5.208v-16.947l10.158 16.947h5.21v-25.28h-5.193v16.963l-10.175-16.964zm25.09 0v25.281h5.209v-16.947l10.158 16.947h5.207v-25.28h-5.19v16.963l-10.175-16.964zm25.088 0v25.281h16.964v-4.063H141.5v-6.963h10.002v-3.958h-10.001v-6.216h11.737v-4.08H141.5zm20.003 0v25.281h5.21v-9.358h4.136l4.788 9.358h5.573v-.243l-5.472-10.373a9.5 9.5 0 0 0 1.913-1.139 6.54 6.54 0 0 0 1.927-2.414q.695-1.457.695-3.488 0-2.483-1.129-4.185-1.128-1.702-3.23-2.57-2.082-.87-4.982-.869zm5.21 4.08h4.219q1.389 0 2.31.47.92.469 1.37 1.354.452.885.452 2.1 0 1.147-.469 2.015-.45.868-1.354 1.354c-.904.486-1.36.487-2.275.487h-4.253zm-89.594 2.042 3.207 9.748h-6.405z"/></svg>