<svg xmlns="http://www.w3.org/2000/svg" width="192" height="192" viewBox="0 0 192 192"><path d="M73.714 175.25c-4.6-2.392-6.048-7.24-3.408-11.4 4.216-6.656 14.44-3.744 14.44 4.12 0 5.664-6.24 9.776-11.04 7.28zm15.608-5.952-2.224-.264-.28-2.24c-.344-2.824-1.256-4.608-3.232-6.344-2.08-1.84-4.28-2.48-7.68-2.264q-5.28.336-7.776 4.912l-1.12 2.064-2.448-1.008c-6.824-2.8-12.176-6.192-15.728-9.992l-2.12-2.264v-5.616c0-6.832.224-7.048 3.896-3.888 11.632 10.04 30.544 15.544 50.368 14.656 14.472-.64 27.008-4.128 37.232-10.344 4.096-2.48 4.432-2.176 4.432 3.92 0 4.432-.112 5.136-1.08 6.792-2.176 3.712-13.424 8.552-24.352 10.464-9.112 1.6-21.16 2.216-27.88 1.416zm-.112-15.712c-12.056-.992-25.056-5.2-33.344-10.8-4.392-2.96-6.832-5.232-9.672-9-10.52-13.96-12.88-33.296-6.576-53.888 2.432-7.96 4.944-12.616 12.4-23 2.064-2.864 4.216-5.912 4.784-6.768 1.384-2.088 2.24-6.392 3.28-16.656.96-9.32 1.584-12.04 3.432-14.88 1.704-2.624 2.768-3.112 4.664-2.128 2.688 1.392 6.768 6.064 10.304 11.808 1.888 3.064 4.024 6.272 4.744 7.128l1.312 1.56.568-1.896c.32-1.04.72-1.896.896-1.896.496 0 1.76 2.112 1.76 2.936 0 .52.224.64.784.408 2.192-.904 2.32-.848 2.032.904-.248 1.544-.2 1.64.688 1.36.672-.216.96-.12.96.32 0 .488 1.128.696 5.064.92 2.784.16 6.792.592 8.912.96 7.536 1.32 15.616-.976 20.944-5.944a64 64 0 0 0 5.536-6.432c4.184-5.512 5.824-6.464 8.632-5.016 1.912.984 5.12 7.72 6.368 13.376.896 4.064.976 5.56.904 16.624-.048 6.688.04 12.16.192 12.16a4.8 4.8 0 0 0 1.312-.968c1.456-1.368 1.72-.776.904 2.072l-.696 2.464h2.416c1.336 0 2.424.136 2.424.312s-.536.864-1.184 1.544c-.92.96-1.072 1.368-.68 1.84.384.464.296 1.024-.376 2.344-1.056 2.08-1.136 5.008-.24 9.36.352 1.712 1.056 6.632 1.56 10.92.504 4.296 1.128 8.696 1.384 9.776.4 1.728.352 2.08-.448 2.928-1.024 1.088-1.128 1.944-.432 3.472.424.928.256 1.28-1.496 3.04-2.184 2.2-3.52 5.264-4.632 10.592-.6 2.92-.608 4.28-.064 8.568.128 1.024 0 1.112-1.536 1.064l-1.672-.048v1.888c0 2.056-.504 2.72-2.232 2.96q-1.112.16-1.12.992 0 .84-1.784 1.56a64 64 0 0 0-5.128 2.592c-8.52 4.76-18.4 7.52-30.784 8.608-5.776.512-8.48.504-15.064-.04m3.376-21.808c3.976-.52 6.52-1.6 8.488-3.608 1.416-1.448 3.04-3.976 2.544-3.976-.128 0-1.12.688-2.224 1.52-4.24 3.232-8.992 4.184-17.304 3.44-3.92-.344-6.216-.816-9.144-1.872-2.16-.784-5.416-1.816-7.256-2.304s-3.4-.928-3.464-.984a18.4 18.4 0 0 1 .464-2.952c.576-2.84.584-2.848 3.904-5.224 1.888-1.352 3.392-2.768 3.48-3.28.232-1.424-.8-2.296-2.416-2.032-1.544.248-2.416-.32-2.416-1.552 0-.824 1.248-1.712 2.4-1.712 1.08 0 3.088 1.992 3.632 3.592l.496 1.48 1.824-1.824c3.12-3.12 2.96-6.224-.496-9.4-5.056-4.664-12.56-4.792-17.064-.288-2.448 2.456-3.632 6.032-2.816 8.52l.536 1.624.584-1.392c.704-1.68 2.584-2.344 3.64-1.288.848.848.448 2.096-.672 2.096a3.2 3.2 0 0 0-1.624.592c-1.248.912-.544 2.248 2.4 4.56 2.416 1.896 2.608 2.184 2.888 4.352.168 1.28.408 2.744.536 3.272.208.832-.016.984-1.912 1.264-2.168.328-5.216 1.64-5.728 2.464-.368.6-.184.576 1.84-.272 2.728-1.136 6.12-.552 12.352 2.144 2.944 1.264 6.368 2.56 7.624 2.856 2.752.672 10.424.76 14.904.184M56.978 104.21c0-.728 3.856-4.096 5.448-4.76.912-.376 2.464-.688 3.456-.688 1.92 0 5.376 1.176 5.376 1.84 0 .216-1.584.392-3.52.392-3.872 0-6.56.752-8.8 2.464-1.536 1.168-1.96 1.328-1.96.752m24.536 19.536a.45.45 0 0 0-.44-.44.45.45 0 0 0-.448.44.448.448 0 0 0 .896 0m-33.016-.888a.45.45 0 0 0-.448-.448.45.45 0 0 0-.44.448.448.448 0 1 0 .888 0m47.216-2.824c.08-.432-.136-.744-.528-.744-.832 0-1.328.72-.936 1.36.4.648 1.296.28 1.464-.616m-9.288-.304a.45.45 0 0 0-.448-.44c-.24 0-.448.2-.448.44s.2.448.448.448.448-.2.448-.448m-33.864-1.92c-.576-.56-1.152-.128-.728.56.16.264.504.36.752.208q.456-.28-.024-.76zm28.96-.528c0-.368-.192-.672-.424-.672-.56 0-.96.696-.608 1.056.504.496 1.024.304 1.024-.384m-33.024-3.112c0-.4-.264-.56-.664-.4-.368.144-.56.432-.424.656.392.632 1.088.464 1.088-.256m50.16-.736c-.376-.616-1.52-.464-1.52.2 0 .328.128.728.288.888.4.4 1.544-.592 1.24-1.088m-9.776.048c0-.96-1.296-.816-1.488.16-.112.592.064.776.664.656.448-.08.824-.456.824-.816m2.448-.888a.45.45 0 0 0-.44-.448.45.45 0 0 0-.448.448c0 .24.2.448.448.448.24 0 .44-.2.44-.448m-40.16-.896a.45.45 0 0 0-.44-.44.45.45 0 0 0-.448.44.448.448 0 1 0 .896 0m65.872-20.2c5.336-2.728 7-7.92 3.72-11.648-2.824-3.224-8.568-4.376-12.696-2.552-2.568 1.136-6.736 5.336-7.288 7.352-.88 3.152.08 4.592 4.608 6.984 2.472 1.304 2.936 1.4 6.024 1.224 2.448-.144 3.96-.512 5.632-1.36m-8.76.576c-2.184-.616-4.056-1.848-4.48-2.96-.64-1.688-.512-5.4.24-6.856.64-1.216 3.264-3.576 4-3.576.176 0-.192.616-.816 1.36-2.8 3.32-2.32 8 1.104 10.88 1.584 1.336 1.576 1.6-.048 1.152m.024-10.024c-1.184-1.424.56-3.656 1.952-2.504a1.744 1.744 0 0 1 .168 2.616c-.712.72-1.464.68-2.12-.112m-41.048 2.64c2.504-1.84 4-4.456 4-6.984 0-2.624-.76-4.216-2.888-6.088-1.904-1.672-3.176-2.048-5.896-1.736-2.312.256-3.92 1.296-5.424 3.488-1.416 2.064-1.232 6.224.376 8.568 2.56 3.736 6.864 4.944 9.832 2.76zm-7.472-1.52c-4.344-2.656-4.056-8.936.536-11.504 2.488-1.392 2.776-1.256.968.448a7.07 7.07 0 0 0 0 10.464c1.216 1.144 1.376 1.456.736 1.456a5.6 5.6 0 0 1-2.24-.872zm1.672-8.472c-.512-.944.4-2.264 1.56-2.264.976 0 1.72 1.712 1.072 2.48-.752.912-2.088.8-2.64-.216zm81.2-17.984c1.136-2.92 1.472-4.552 1.648-7.92.264-5.176-.352-8.384-2.368-12.384-2.208-4.36-3.36-5.664-4.704-5.288-1.056.296-13.568 14.592-13.568 15.504 0 .24 1.152 1.064 2.56 1.816l2.56 1.376 3.392-2.6c1.872-1.432 4.016-3.36 4.768-4.304.752-.936 1.512-1.704 1.68-1.704 1.648 0 1.744 10.288.136 13.84l-.904 2 1.376 1.64c.76.896 1.52 1.648 1.68 1.672.176.016.96-1.616 1.744-3.648M63.25 49.386c1.856-1.2 4.512-2.68 5.904-3.28 2.48-1.08 3.216-1.768 1.872-1.768-.808 0-.792.2-.696-6.92.096-6.72-.664-10.4-3.264-15.808l-1.6-3.312-.72 1.76c-1.72 4.08-2.408 7.792-3.32 17.808-.776 8.448-1.92 12.56-4.32 15.44l-1.248 1.504 2.008-1.616c1.104-.888 3.528-2.6 5.384-3.808"/></svg>