<svg width="192" height="192" fill="none" xmlns="http://www.w3.org/2000/svg"><path d="M120.5 75.5a4 4 0 1 0 0-8 4 4 0 0 0 0 8Zm-62.5 50a4 4 0 1 0 0-8 4 4 0 0 0 0 8Zm27 0a4 4 0 1 0 0-8 4 4 0 0 0 0 8Z" stroke="#000" stroke-width="8" stroke-linecap="round" stroke-linejoin="round"/><path d="m70.476 70.471 51.053 51.054m-97.706-4.401 93.296-93.296a6.23 6.23 0 0 1 6.799-1.353 6.234 6.234 0 0 1 2.024 1.353l42.23 42.231a6.235 6.235 0 0 1 0 8.823l-93.295 93.295a6.225 6.225 0 0 1-8.801 0l-42.253-42.252a6.223 6.223 0 0 1 0-8.801Z" stroke="#000" stroke-width="12" stroke-linejoin="round"/></svg>