<svg xmlns="http://www.w3.org/2000/svg" width="192" height="192" viewBox="0 0 192 192"><path d="M70.901 75.281a4.9 4.9 0 0 0-3.46 1.443L21.214 122.95a4.89 4.89 0 0 0 0 6.922l41.693 41.693a4.89 4.89 0 0 0 6.922 0l46.357-46.357a4.89 4.89 0 0 0 0-6.914L74.362 76.71a4.9 4.9 0 0 0-3.469-1.428zm-17.359 39.132a8.846 8.846 0 0 1 8.846 8.846 8.846 8.846 0 0 1-8.846 8.854 8.846 8.846 0 0 1-8.854-8.846 8.846 8.846 0 0 1 8.846-8.854zm30.348 0a8.846 8.846 0 0 1 8.854 8.846 8.846 8.846 0 0 1-8.846 8.854 8.846 8.846 0 0 1-8.854-8.846 8.846 8.846 0 0 1 8.846-8.854m41.615-95.414a4.9 4.9 0 0 0-3.46 1.436L75.818 66.667a4.89 4.89 0 0 0 0 6.929l41.693 41.693a4.89 4.89 0 0 0 6.922 0l46.357-46.364a4.89 4.89 0 0 0 0-6.906l-41.817-41.592a4.9 4.9 0 0 0-3.469-1.42zm-3.5 41.972a8.846 8.846 0 0 1 8.846 8.846 8.846 8.846 0 0 1-8.846 8.854 8.846 8.846 0 0 1-8.846-8.846 8.846 8.846 0 0 1 8.846-8.854"/></svg>