<svg xmlns="http://www.w3.org/2000/svg" width="192" height="192" viewBox="0 0 192 192"><path d="M140.07 19.404a13.92 13.92 0 0 0-13.92 13.92 13.92 13.92 0 0 0 13.92 13.92 13.92 13.92 0 0 0 13.92-13.92 13.92 13.92 0 0 0-13.92-13.92M53.789 21.83c-4.936.201-10.209 1.439-15.615 3.924h-.002c-10.724 4.932-17.563 12.438-20.465 20.73S15.8 63.476 19.144 70.816l-.003-.004 34.685 76.322h.002c4.75 10.45 17.263 15.118 27.697 10.332l.002-.002 36.008-16.535 13.02 28.127a6.106 6.106 0 0 0 8.106 2.976 6.106 6.106 0 0 0 2.976-8.107l-13.006-28.092 35.318-16.22c10.433-4.788 14.993-17.372 10.045-27.73l-.002-.003L159.5 61.511a6.106 6.106 0 0 0-8.14-2.88 6.106 6.106 0 0 0-2.88 8.14l14.493 30.373.002.002c2.074 4.338.254 9.362-4.121 11.37l-35.353 16.235L84.519 40.55l-.002-.002c-3.18-6.86-9.019-13.123-17.135-16.432-4.058-1.654-8.658-2.489-13.594-2.287zm.469 12.125c3.222-.135 6.032.46 8.513 1.47 4.963 2.023 8.717 6.048 10.668 10.259l38.965 84.164-35.974 16.518c-4.421 2.028-9.471.143-11.484-4.285L30.261 65.76l-.004-.006c-2.223-4.88-2.754-10.283-1.021-15.235s5.69-9.828 14.039-13.669c4.127-1.897 7.762-2.76 10.984-2.894z"/></svg>