<svg width="192" height="192" fill="none" xmlns="http://www.w3.org/2000/svg"><path d="M76.275 66.898c.8-.215 1.102-1.686.673-3.286-.43-1.6-1.425-2.724-2.226-2.51-.8.215-1.1 1.686-.672 3.286.429 1.6 1.425 2.724 2.225 2.51Zm16.726-4.713c.8-.215 1.102-1.686.673-3.286-.429-1.6-1.425-2.724-2.226-2.51-.8.215-1.1 1.686-.672 3.286.429 1.6 1.425 2.724 2.225 2.51Z" stroke="#000" stroke-width="6" stroke-linejoin="round"/><path d="m29 113 92-20m-88 39 92-20" stroke="#000" stroke-width="10" stroke-linecap="round"/><path d="m131 132-92 20S22 95.5 22 72s6-50 42-50c48 0 35.043 35.685 63.5 34 14.24-.843 37.5-12 37.5-12s5 9 5 19-2 16-2 16-13.2-6-28-4c-18.5 2.5-18 15-18 20.5s9 36.5 9 36.5Z" stroke="#000" stroke-width="12" stroke-linecap="round" stroke-linejoin="round"/><path d="M48 150v21h10m13-21.412 4.918 18.352 9.659-2.588M125 135.588l4.918 18.352 9.659-2.588m-39.487-9.649 2.48 18.838 9.914-1.306" stroke="#000" stroke-width="10" stroke-linecap="round" stroke-linejoin="round"/></svg>