<svg xmlns="http://www.w3.org/2000/svg" width="192" height="192" viewBox="0 0 192 192"><path d="M67.125 173q-20.106 0-34.115-14.01T19 124.875q0-9.625 3.636-18.394 3.636-8.77 10.481-15.614l57.75-57.75q6.844-6.844 15.614-10.481T124.875 19q20.106 0 34.115 14.01T173 67.125q0 9.625-3.636 18.394-3.636 8.77-10.481 15.614l-57.75 57.75q-6.844 6.844-15.614 10.48T67.125 173m56.894-61.172 22.886-22.672q4.278-4.278 6.63-10.053t2.353-11.978q0-12.833-9.09-21.924t-21.924-9.09q-6.203 0-11.978 2.353t-10.053 6.63L80.171 67.98zm-56.894 44.061q6.203 0 11.978-2.353t10.053-6.63l22.672-22.886-43.847-43.847-22.886 22.672q-4.278 4.277-6.63 10.053t-2.353 11.978q0 12.833 9.09 21.924t21.924 9.09z"/></svg>