<svg width="192" height="192" fill="none" xmlns="http://www.w3.org/2000/svg"><path d="M24 28a4 4 0 1 0 0-8 4 4 0 0 0 0 8Zm120 0a3.998 3.998 0 0 0 2.828-6.828A3.998 3.998 0 0 0 140 24a3.997 3.997 0 0 0 4 4ZM24 76a4 4 0 1 0 0-8 4 4 0 0 0 0 8Zm120 0a3.998 3.998 0 0 0 2.828-6.828A3.998 3.998 0 0 0 140 72a3.997 3.997 0 0 0 4 4ZM24 100a4 4 0 1 0 0-8 4 4 0 0 0 0 8Zm120 0a3.998 3.998 0 0 0 2.828-6.828A3.998 3.998 0 0 0 140 96a3.997 3.997 0 0 0 4 4ZM24 52a4 4 0 1 0 0-8 4 4 0 0 0 0 8Zm120 0a3.998 3.998 0 0 0 2.828-6.828A3.998 3.998 0 0 0 140 48a3.997 3.997 0 0 0 4 4ZM24 124a3.997 3.997 0 0 0 4-4 3.998 3.998 0 0 0-6.828-2.828A3.998 3.998 0 0 0 24 124Zm120 0a3.995 3.995 0 0 0 2.828-1.172 3.995 3.995 0 0 0 0-5.656 3.995 3.995 0 0 0-5.656 0 3.995 3.995 0 0 0 0 5.656A3.995 3.995 0 0 0 144 124ZM24 148a3.997 3.997 0 0 0 4-4 3.998 3.998 0 0 0-6.828-2.828A3.998 3.998 0 0 0 24 148Zm120 0a3.995 3.995 0 0 0 2.828-1.172 3.995 3.995 0 0 0 0-5.656 3.995 3.995 0 0 0-5.656 0 3.995 3.995 0 0 0 0 5.656A3.995 3.995 0 0 0 144 148ZM24 172a3.997 3.997 0 0 0 4-4 3.998 3.998 0 0 0-6.828-2.828A3.998 3.998 0 0 0 24 172Zm120 0a3.995 3.995 0 0 0 2.828-1.172 3.995 3.995 0 0 0 0-5.656 3.995 3.995 0 0 0-5.656 0 3.995 3.995 0 0 0 0 5.656A3.995 3.995 0 0 0 144 172Zm24-144a3.998 3.998 0 0 0 2.828-6.828A3.998 3.998 0 0 0 164 24a3.997 3.997 0 0 0 4 4Zm0 48a3.998 3.998 0 0 0 2.828-6.828A3.998 3.998 0 0 0 164 72a3.997 3.997 0 0 0 4 4Zm0 24a3.998 3.998 0 0 0 2.828-6.828A3.998 3.998 0 0 0 164 96a3.997 3.997 0 0 0 4 4Zm0-48a3.998 3.998 0 0 0 2.828-6.828A3.998 3.998 0 0 0 164 48a3.997 3.997 0 0 0 4 4Zm-96 0a4 4 0 1 0 0-8 4 4 0 0 0 0 8Zm0 24a4 4 0 1 0 0-8 4 4 0 0 0 0 8Zm24 0a4 4 0 1 0 0-8 4 4 0 0 0 0 8Zm0 24a4 4 0 1 0 0-8 4 4 0 0 0 0 8Zm24 0a3.998 3.998 0 0 0 2.828-6.828A3.998 3.998 0 0 0 116 96a3.997 3.997 0 0 0 4 4Zm0 24a3.995 3.995 0 0 0 2.828-1.172 3.995 3.995 0 0 0 0-5.656 3.995 3.995 0 0 0-5.656 0 3.995 3.995 0 0 0 0 5.656A3.995 3.995 0 0 0 120 124Zm48 0a3.995 3.995 0 0 0 2.828-1.172 3.995 3.995 0 0 0 0-5.656 3.995 3.995 0 0 0-5.656 0 3.995 3.995 0 0 0 0 5.656A3.995 3.995 0 0 0 168 124Zm0 24a3.995 3.995 0 0 0 2.828-1.172 3.995 3.995 0 0 0 0-5.656 3.995 3.995 0 0 0-5.656 0 3.995 3.995 0 0 0 0 5.656A3.995 3.995 0 0 0 168 148Zm0 24a3.995 3.995 0 0 0 2.828-1.172 3.995 3.995 0 0 0 0-5.656 3.995 3.995 0 0 0-5.656 0 3.995 3.995 0 0 0 0 5.656A3.995 3.995 0 0 0 168 172Z" stroke="#000" stroke-width="8" stroke-linecap="round" stroke-linejoin="round"/><path d="M48 22v148" stroke="#000" stroke-width="12" stroke-linecap="round" stroke-linejoin="round"/></svg>