<svg width="192" height="192" fill="none" xmlns="http://www.w3.org/2000/svg"><path d="M88 22a65.999 65.999 0 0 0-66 66" stroke="#000" stroke-width="12" stroke-linecap="round" stroke-linejoin="round"/><ellipse cx="126" cy="126" rx="21" ry="24" stroke="#000" stroke-width="10" stroke-linecap="round" stroke-linejoin="round"/><path d="M101 52a49 49 0 0 0-49 49m96-4.747V53a6 6 0 0 1 6-6h10a6 6 0 0 1 6 6v110a6 6 0 0 1-6 6h-10a6 6 0 0 1-6-6v-7.253m0-59.494C141.054 87.492 131.081 82 120 82c-20.987 0-38 19.699-38 44s17.013 44 38 44c11.081 0 21.054-5.492 28-14.253m0-59.494v59.494" stroke="#000" stroke-width="12" stroke-linecap="round" stroke-linejoin="round"/></svg>