<svg xmlns="http://www.w3.org/2000/svg" width="192" height="192" viewBox="0 0 192 192"><path d="M69.275 175.69c-15.68-.208-16.264-.24-17.84-1.08-2.048-1.096-4.344-3.616-4.928-5.384-.36-1.128-4.04-25.664-17.304-115.62-.992-6.752-1.12-8.376-.728-9.328.992-2.4-.176-2.32 33.856-2.312l31.104.016 1.264-2.36c4.328-8.104 11.12-13.616 20.096-16.32 3.064-.936 4.232-1.072 8.928-1.072s5.864.136 8.936 1.064c11.504 3.472 19.632 11.792 22.744 23.28 1.224 4.504 1.224 11.904 0 16.408-2.592 9.576-9.056 17.36-17.776 21.44-9.24 4.312-19.224 4.16-28.656-.448-3.84-1.872-4.648-2.48-8.264-6.128-3.232-3.272-4.4-4.736-5.88-7.656-2.976-5.848-4.048-9.04-3.84-15.824.16-5.12.32-10.888 1.04-8.784.92 2.688-1.04 2.216-1.256 2.288-.464.144-6.232.504-27.328.504-28.432 0-28.792.016-29.24 1.816-.12.48 1.144 11.4 2.816 24.264 1.664 12.864 3.032 24.056 3.032 24.88 0 1.968 10.288 63.72 10.92 65.544.264.768 1.48 2.4 2.696 3.64 3.656 3.712 2.712 3.592 28.68 3.68l22.36.08 2.2-1.032c2.96-1.392 4.432-2.704 5.736-5.104 1.016-1.872 1.392-4.224 5.496-34.368 5.056-37.096 5.752-42.192 6.32-44.24.4-1.456.856-3.824 2.024-2.488l1.904 2.16c-2.04 14.416-4.176 28.8-6.28 43.2-4.184 28.64-5.84 38.992-6.4 40.096-1.056 2.08-3.784 4.288-6.152 4.992-2.128.64-5.792.648-40.28.2m52.448-94.816c0-2.392.448-3.28 1.656-3.28q1.944 0 1.944 3.432c0 2.008.08 2.168.944 2.168 1.36 0 6.56-1.392 8.8-2.368l1.944-.84-.84-1.416c-1.04-1.784-1.064-2.584-.048-2.584.48 0 1.04.48 1.4 1.176.336.648.8 1.296 1.032 1.44.56.344 4.568-2.976 6.688-5.552.936-1.128 1.704-2.152 1.704-2.264s-.816-.704-1.816-1.304c-1.984-1.2-2.528-2.064-1.912-3.056.648-1.04 2.024-.984 3.944.144l1.8 1.056.816-1.92c1.04-2.416 1.96-6.272 1.968-8.24 0-1.472-.016-1.496-1.552-1.496-1.576 0-2.736-.816-2.256-1.584.144-.232 1.08-.416 2.088-.416h1.84l-.24-2.504c-.208-2.136-1.72-7.48-2.464-8.68-.12-.208-.992.064-1.92.592-1.952 1.12-3.192 1.24-3.896.384-.848-1.016-.152-2.344 1.784-3.4 1-.544 1.816-1.064 1.816-1.16 0-1.144-7.152-8.056-8.336-8.056-.216 0-.768.64-1.216 1.4-.88 1.48-2.072 1.888-2.048.704a4.8 4.8 0 0 1 .592-1.704 4.8 4.8 0 0 0 .584-1.456c.024-.848-7.496-3.344-10.08-3.344-1.088 0-1.12.056-1.12 2.168q0 2.176-.624 2.8c-1.552 1.56-2.976.216-2.976-2.8 0-2.104-.032-2.168-1.096-2.16-1.752 0-5.816 1.072-8.304 2.176l-2.296 1.008.848 1.432c1.056 1.792 1.064 2.584.032 2.584q-.8-.008-1.48-1.408c-.368-.768-.84-1.4-1.056-1.4-1.2 0-8.272 6.8-8.272 7.952 0 .152.824.72 1.824 1.264 1.928 1.056 2.624 2.384 1.776 3.4-.72.864-1.888.736-3.872-.424l-1.736-1.016-.824 1.92c-1.04 2.408-1.96 6.264-1.968 8.224 0 1.472.024 1.504 1.496 1.512 1.84 0 2.704.496 2.376 1.352-.176.464-.768.64-2.112.64h-1.872l.256 2.552c.224 2.184 1.72 7.464 2.44 8.624.12.208 1.032-.08 2.016-.624 1.936-1.08 3.288-1.12 3.928-.096.616.992.08 1.856-1.92 3.056-.992.6-1.808 1.192-1.808 1.304 0 1.048 7.2 7.976 8.32 8 .272 0 .8-.624 1.168-1.392.4-.848.96-1.408 1.4-1.408.872 0 .928 1.008.12 2.4a4.8 4.8 0 0 0-.584 1.464c-.024.784 7.384 3.2 10.096 3.304 1.08.04 1.104 0 1.104-2.28m-.52-22.912a4 4 0 0 1-1.264-1.536c-.136-.416-2.84-2.16-6.32-4.08-3.352-1.856-6.416-3.68-6.8-4.08-1.36-1.36-.488-3.6 1.4-3.6.568 0 3.712 1.488 6.976 3.304 8.176 4.568 8.224 4.568 16.464.056 3.376-1.856 6.6-3.36 7.176-3.36 1.888 0 2.76 2.24 1.4 3.6-.4.4-3.456 2.224-6.8 4.08-3.488 1.92-6.192 3.664-6.32 4.08-.376 1.16-2.184 2.344-3.592 2.344a4.4 4.4 0 0 1-2.32-.8zm35.376-24.136c-1.664-3.488-4.968-6.96-7.92-8.312-1.872-.856-2.056-1.056-1.84-1.96a8 8 0 0 1 .344-1.144c.056-.072 1.16.368 2.448.968 3.304 1.56 7.2 5.568 9.08 9.344 1.504 3.008 1.504 3.36.064 3.76-.664.176-1.024-.256-2.168-2.656zm-67.584 1.712c-.752-.296-.832-.512-.52-1.336 2.128-5.6 6.776-10.944 11.4-13.112 1.472-.68 2.72-1.176 2.8-1.096a5.6 5.6 0 0 1 .352 1.144c.216.912.008 1.112-2.24 2.16-3.584 1.672-7.28 5.552-9.088 9.544-.776 1.696-1.496 3.08-1.6 3.072a8 8 0 0 1-1.104-.376m71.816-8.176c-1.24-2.848-4.192-6.16-6.24-7.016q-1.248-.528-1.04-1.096a3.2 3.2 0 0 0 .224-.928c0-.8 2.64.672 4.832 2.712 1.664 1.544 2.8 3.072 3.84 5.16.8 1.624 1.384 3.024 1.296 3.104a4 4 0 0 1-.976.4c-.696.208-.976-.128-1.936-2.336m-75.624 1.512c-.384-.104-.696-.288-.696-.416s.648-1.592 1.456-3.256c1.712-3.56 4.64-6.688 7.72-8.256 1.16-.584 2.16-1.008 2.224-.936s.216.48.352.928c.2.656-.144 1-1.968 1.96-2.768 1.44-5.072 4.04-6.72 7.536-.696 1.48-1.36 2.68-1.464 2.656z"/><path d="m40.035 99.208.016.12c0 1.968 10.296 63.712 10.92 65.536.272.776 1.48 2.416 2.696 3.64 3.664 3.72 2.72 3.6 28.68 3.688l22.36.08 2.208-1.04c2.944-1.384 4.424-2.696 5.728-5.104 1.016-1.864 1.392-4.216 5.496-34.36 2.336-17.12 3.576-26.224 4.472-32.56z" opacity=".6"/></svg>