<svg xmlns="http://www.w3.org/2000/svg" width="192" height="192" viewBox="0 0 192 192"><path d="M96 16c-21.231 0-38.73 16.972-38.73 37.919v15.32h-8.213c-8.539 0-15.618 6.793-15.618 15.211v76.213c0 8.419 7.087 15.336 15.617 15.336h93.872c8.634 0 15.632-6.917 15.632-15.336V84.466c0-8.419-6.999-15.227-15.632-15.227h-8.198v-15.32C134.73 32.972 117.23 16 96 16m0 12.468c14.662 0 26.261 11.415 26.261 25.451v15.32H69.738v-15.32c0-14.036 11.6-25.451 26.261-25.451zm0 75.808a18.33 18.33 0 0 1 18.328 18.344A18.33 18.33 0 0 1 96 140.948a18.33 18.33 0 0 1-18.328-18.328A18.33 18.33 0 0 1 96 104.276"/></svg>