<svg xmlns="http://www.w3.org/2000/svg" width="192" height="192" viewBox="0 0 192 192"><path d="M51.444 99.619h30.128c0-11.041 7.002-16.974 14.428-16.974V176H51.444c-3.997 0-8.487-4.49-8.487-8.487v-59.408c0-3.997 4.49-8.487 8.487-8.487m38.191 0c0-4.158 1.273-8.486 6.365-8.486v8.486zM96 123c-9.59 0-17.355 8.003-17.355 17.355 0 6.34 3.327 11.45 8.02 14.428l3.395-9.335s-1.91-2.164-1.91-5.092c0-4.244 3.514-7.85 7.85-7.85zm0-98.065c-8.656 0-16.93 1.817-24.187 5.432L60.22 18.179s-4.226-4.583-8.35-.458c-4.125 4.124-.561 7.417-.561 7.417l10.744 11.678c-10.855 9.42-17.822 24.46-17.822 44.98v6.79c0 1.604 1.79 3.394 3.395 3.394h28.006c4.26 0 4.184-10.184 0-10.184h-19.52c0-14.818 5.881-46.677 39.888-46.677zm-8.64 36.493c0 4.201-2.97 7.605-6.636 7.605s-6.637-3.404-6.637-7.605 2.97-7.604 6.637-7.604 6.637 3.403 6.637 7.604m53.195 38.191h-30.128c0-11.04-7.002-16.974-14.428-16.974V176h44.556c3.997 0 8.486-4.49 8.486-8.486v-59.408c0-3.998-4.49-8.487-8.486-8.487m-38.191 0c0-4.159-1.273-8.487-6.365-8.487v8.487zM96 122.998c9.59 0 17.354 8.004 17.354 17.356 0 6.34-3.326 11.449-8.02 14.428l-3.394-9.336s1.91-2.164 1.91-5.092c0-4.243-3.514-7.85-7.851-7.85zm0-98.064c8.656 0 16.93 1.816 24.187 5.431l11.592-12.187s4.227-4.583 8.351-.458.56 7.418.56 7.418l-10.743 11.678c10.855 9.42 17.822 24.459 17.822 44.98v6.789c0 1.604-1.791 3.395-3.395 3.395h-28.006c-4.26 0-4.184-10.184 0-10.184h19.52c0-14.818-5.881-46.677-39.888-46.677zm8.639 36.493c0 4.2 2.97 7.604 6.637 7.604s6.636-3.403 6.636-7.604-2.97-7.604-6.636-7.604-6.637 3.403-6.637 7.604"/></svg>