<svg xmlns="http://www.w3.org/2000/svg" width="192" height="192"><path d="M96 16 47.839 64.161c-6.213 6.99-10.864 13.983-13.97 22.526-2.33 7.766-3.883 15.533-3.883 23.299C29.986 146.488 59.498 176 96 176s66.014-29.512 66.014-66.014c0-7.766-.777-15.533-3.883-23.299-3.107-8.543-7.773-16.312-13.986-22.526zm0 41.168 27.182 27.182c3.107 3.883 6.213 7.763 7.766 12.423 1.554 4.66 2.321 8.552 2.321 13.212.777 20.193-16.3 37.27-37.27 37.27-20.969 0-37.285-17.077-37.285-37.27 0-4.66.783-8.552 2.336-13.212s4.66-8.54 7.767-12.423z"/></svg>