<svg width="192" height="192" version="1.1" xmlns="http://www.w3.org/2000/svg"><path d="m96 16-48.161 48.161c-6.2131 6.9898-10.864 13.983-13.97 22.526-2.3299 7.7664-3.8832 15.533-3.8832 23.299 0 36.502 29.512 66.014 66.014 66.014 36.502 0 66.014-29.512 66.014-66.014 0-7.7664-0.77664-15.533-3.8832-23.299-3.1066-8.543-7.7725-16.312-13.986-22.526zm0 41.168 27.182 27.182c3.1066 3.8832 6.2131 7.7634 7.7664 12.423 1.5533 4.6598 2.3208 8.5521 2.3208 13.212 0.77664 20.193-16.3 37.27-37.27 37.27-20.969 0-37.285-17.077-37.285-37.27 0-4.6598 0.7827-8.5521 2.336-13.212 1.5533-4.6598 4.6598-8.54 7.7664-12.423z"/></svg>
