<svg xmlns="http://www.w3.org/2000/svg" width="192" height="192" viewBox="0 0 192 192"><path d="M96 19c-42.527 0-77 34.473-77 77s34.473 77 77 77 77-34.473 77-77-34.473-77-77-77m0 7.7A69.3 69.3 0 0 1 165.3 96a69.3 69.3 0 0 1-50.096 66.428c-2.402-4.705-4.235-8.208-6.206-12.012-2.002 1.902-4.62 2.171-6.383 2.48l-.255.03a15.4 15.4 0 0 1-6.083-.831c-3.65 1.925-9.948 5.313-10.025 5.351a3.966 3.966 0 0 1-4.974-.778 5.93 5.93 0 0 1-1.763-3.973 77 77 0 0 1-1.093-10.303 85 85 0 0 1-.093-4.928 17.7 17.7 0 0 1 .254-3.403c.123-.555.216-1.017.385-1.517a3.23 3.23 0 0 1 1.109-1.656 3.08 3.08 0 0 1 2.04-.585c.555.031 1.032.139 1.579.254 5.067 1.009 9.302 3.596 13.36 5.537 1.486-.778 3.003-1.202 4.481-1.463-3.434-8.832-5.798-18.58-4.18-25.626l.015.015c2.394 1.663 18.34 7.022 26.257 6.892 7.923-.155 20.929-4.998 19.504-8.87-1.425-3.882-14.345 3.41-27.82 2.155-9.98-.924-11.742-5.382-9.533-8.64 2.764-4.096 7.839.77 16.193-1.716s20.066-6.938 24.41-9.356c10.032-5.582-4.205-7.892-7.562-6.345-3.219 1.486-14.368 4.282-19.435 5.506 2.895-10.15-4.035-27.812-11.781-35.536-2.518-2.526-6.391-4.112-10.765-4.951-1.679-2.303-4.39-4.49-8.224-6.53a39.3 39.3 0 0 0-18.21-4.435v-.015c-3.141-.2-5.99.739-8.7 1.262 1 .093 4.758 1.84 7.122 2.803-1.895.585-3.635 1.086-5.375 1.61-1.155.523-2.033 2.502-2.025 3.441 5.62-.57 13.96-.177 20.058 1.64-4.643.455-5.914.693-12.466 3.881S55.776 67.94 58.194 81.47c5.159 26.888 11.242 53.77 16.678 80.504A69.3 69.3 0 0 1 26.7 96 69.3 69.3 0 0 1 96 26.7m14.86 45.815a4.374 4.374 0 1 1 0 8.74 4.374 4.374 0 0 1 0-8.747zm-33.971 2.28a5.082 5.082 0 1 1 .008 10.155 5.082 5.082 0 0 1-.008-10.156m45.792 55.856c-2.04.462-5.629 2.126-7.43 3.08-2.249 1.386-4.39 3.104-6.546 4.62.039-2.186-3.441-1.986-5.005-1.925-2.517.231-4.658.416-6.737 1.925-4.458-2.04-8.801-4.804-13.668-5.775-2.164-.462-2.218-.308-2.695 1.925s-.154 12.551.962 18.095c.077 1.802 1.833 4.15 3.658 3.08 0 0 7.253-3.942 10.78-5.775 1.817 1.078 4.235 1.055 6.268.963 1.855-.316 4.135-.693 5.474-2.102 1.494-1.74 2.71-1.032 4.336-.44 3.542 1.171 7.084 2.542 10.826 2.965 2.333.178 2.079-2.926 2.41-4.427.354-4.736.215-9.571-.909-14.206-.316-.847-.554-1.94-1.725-2.002"/></svg>