<svg xmlns="http://www.w3.org/2000/svg" width="192" height="192" viewBox="0 0 192 192"><path d="M143.26 44.079a4.48 4.48 0 0 0-3.76 1.44l-24.68 24.96-.056.048c-10.376 9.392-26.528 9.784-36.4 1.152A13184 13184 0 0 0 52.54 45.543c-2.288-2.344-5.6-1.832-7.136 1.048a24.8 24.8 0 0 0-2.68 14.776q-.056 0-.136.032l-4.896-5.448a4.816 4.816 0 0 0-7.752.792 24.8 24.8 0 0 0-3.272 13.624 35.3 35.3 0 0 0-7.48 10.872 31.2 31.2 0 0 0-3.192 13.24v18.88c.032 4.936 1.16 9.536 3.2 13.704a34.88 34.88 0 0 0 31.92 20.88h1.52a34.72 34.72 0 0 0 25.024-10.616l.08-.616a6.4 6.4 0 0 1-4.4-2.12 6.88 6.88 0 0 1-1.92-4.96s.208-2.312.256-2.536a24.24 24.24 0 0 1-42.648-15.776V96.967a24.24 24.24 0 0 1 48.48 0v14.352q0 2.832-.616 5.464c4.64-5.328 11.68-8.672 19.616-8.672a24.8 24.8 0 0 1 18.192 8.176 24 24 0 0 1-.512-4.96v-14.36a24.24 24.24 0 0 1 48.48 0v14.352a24.24 24.24 0 0 1-42.232 16.248c.016.08.16 2.08.16 2.08a6.88 6.88 0 0 1-1.92 4.96 6.4 6.4 0 0 1-4.4 2.112l.056.432a34.72 34.72 0 0 0 25.2 10.792h1.072a34.88 34.88 0 0 0 32.208-21.592c2.032-4.16 3.16-8.768 3.184-13.696v-18.88c-.08-4.784-1.216-7.784-3.184-11.848a35.2 35.2 0 0 0-7.488-11.28 24.8 24.8 0 0 0-3.256-13.912 4.8 4.8 0 0 0-7.728-.8l-4.96 5.512h-.024l-.04-.016-.032-.016a24.8 24.8 0 0 0-2.664-14.848 4.4 4.4 0 0 0-3.36-2.496zm-8.536 42.576a11 11 0 0 0-1.8.136 11.2 11.2 0 0 0-3.744 1.272 7.36 7.36 0 0 1 2.096 5.144 7.416 7.416 0 0 1-8.08 7.368v9.872a11.512 11.512 0 0 0 23.008 0V98.159a11.52 11.52 0 0 0-11.48-11.504m-76.896.032a11 11 0 0 0-1.912.024 11.2 11.2 0 0 0-3.68.976 7.4 7.4 0 0 1 2.48 5.52 7.416 7.416 0 0 1-9.216 7.184v10.056a11.512 11.512 0 0 0 23.016 0V98.159a11.52 11.52 0 0 0-10.688-11.472m38.68 27.832c-9.32 0-17.104 6.056-18.68 14.456v.656c0 .528.176.736.656.672l17.032 3.048h1l17.016-3.024c.48.056.656-.16.656-.68v-.672c-1.544-8.248-9.2-14.456-17.68-14.456m-12.464 23.28a13.184 13.184 0 0 0 23.92.016s-11.072 1.936-11.44 1.936h-1.008c-.384 0-6.808-1.112-11.472-1.952"/></svg>