<svg xmlns="http://www.w3.org/2000/svg" width="192" height="192" viewBox="0 0 192 192"><path d="M90.931 19c-4.278 0-8.898 4.97-8.898 13.047v31.459c0 2.07 1.215 3.397 3.089 3.397 1.822 0 3.944-1.232 5.62-3.157 2.61 2.31 6.589 3.747 10.584 3.747 9.796 0 16.88-7.332 16.88-17.47-.052-10.147-7.144-17.488-16.94-17.488-2.61 0-5.16.599-7.324 1.677V22.388c0-2.507-1.583-3.388-3.011-3.388M56.27 32.492c-9.796 0-16.88 7.332-16.88 17.47S46.475 67.45 56.27 67.45c3.987 0 7.974-1.437 10.584-3.747 1.668 1.967 3.798 3.157 5.612 3.157 1.882 0 3.097-1.344 3.097-3.406V36.47c0-2.061-1.172-3.388-3.097-3.388-1.814 0-3.936 1.232-5.612 3.157-2.61-2.31-6.597-3.747-10.583-3.747m85.068 0c-4.535 0-9 1.711-12.252 4.671-3.542 3.252-5.476 7.777-5.476 12.8 0 10.924 8.966 17.487 17.582 17.487 3.636 0 6.348-.453 8.556-1.386 2.42-1.035 2.866-2.412 2.866-4.235v-2.754c0-3.303-2.02-3.68-2.91-3.68a8.6 8.6 0 0 0-2.121.334c-1.232.291-2.695.685-5.304.685-4.09 0-6.648-2.464-6.648-6.451.051-3.936 2.703-6.442 6.844-6.442 1.865 0 3.14.342 4.227.633.94.248 1.77.504 2.755.504 2.019 0 3.165-1.24 3.165-3.456v-3.003c0-1.822-.505-3.148-2.866-4.235-2.31-.984-4.97-1.472-8.419-1.472M57.59 43.52c3.542 0 6.058 2.653 6.058 6.443s-2.516 6.46-6.058 6.46c-3.593 0-6.091-2.67-6.091-6.46s2.498-6.443 6.091-6.443m42.384 0c3.594 0 6.118 2.653 6.118 6.443s-2.524 6.46-6.118 6.46c-3.542 0-6.048-2.67-6.048-6.46s2.506-6.443 6.048-6.443m40.613 31.476a4.28 4.28 0 0 0-3.55 1.36L113.748 99.91l-.052.042c-9.787 8.855-25.034 9.223-34.342 1.087-.581-.633-24.375-24.666-24.375-24.666-2.156-2.216-5.278-1.728-6.724.993a23.53 23.53 0 0 0-2.533 13.937l-.128.025-4.62-5.133a4.552 4.552 0 0 0-7.315.744 23.44 23.44 0 0 0-3.08 12.85 33.4 33.4 0 0 0-7.058 10.267 29.1 29.1 0 0 0-3.012 12.491v17.821c.026 4.654 1.095 9 3.012 12.927a32.94 32.94 0 0 0 30.124 19.703h1.446a32.77 32.77 0 0 0 23.613-10.01l.068-.59a6 6 0 0 1-4.158-2.002 6.5 6.5 0 0 1-1.797-4.68s.189-2.173.231-2.387a22.869 22.869 0 0 1-40.237-14.887v-13.543a22.878 22.878 0 0 1 45.747 0v13.543q-.008 2.67-.581 5.15a24.38 24.38 0 0 1 18.506-8.179 23.36 23.36 0 0 1 17.162 7.717 23 23 0 0 1-.48-4.688v-13.543a22.878 22.878 0 0 1 45.748 0v13.543a22.869 22.869 0 0 1-39.852 15.332c.017.068.145 1.96.145 1.96a6.42 6.42 0 0 1-1.805 4.68 6 6 0 0 1-4.158 2.001l.06.402a32.77 32.77 0 0 0 23.767 10.181h1.018a32.9 32.9 0 0 0 30.389-20.37 29.7 29.7 0 0 0 3.011-12.928v-17.82c-.077-4.51-1.146-7.333-3.011-11.175a33.4 33.4 0 0 0-7.059-10.643 23.53 23.53 0 0 0-3.08-13.124 4.534 4.534 0 0 0-7.28-.744l-4.689 5.193-.017-.009-.043-.008-.025-.017a23.44 23.44 0 0 0-2.524-14.014 4.19 4.19 0 0 0-3.166-2.344zm-8.059 40.168a11 11 0 0 0-1.694.129 11.1 11.1 0 0 0-3.533 1.198 6.84 6.84 0 0 1 1.976 4.86 7.016 7.016 0 0 1-7.623 6.946v9.317a10.866 10.866 0 0 0 21.705 0v-11.593a10.866 10.866 0 0 0-10.831-10.857m-72.551.034a11 11 0 0 0-1.805.018 11.1 11.1 0 0 0-3.482.924 6.84 6.84 0 0 1 2.344 5.21 6.99 6.99 0 0 1-8.684 6.776v9.488a10.866 10.866 0 0 0 21.705 0V126.02a10.866 10.866 0 0 0-10.078-10.823m36.489 26.257c-8.787 0-16.136 5.715-17.624 13.646v.616c0 .496.171.693.625.633l16.067 2.875h.95l16.05-2.85c.444.052.624-.145.624-.64v-.634c-1.455-7.786-8.693-13.646-16.683-13.646zm-11.755 21.97a12.44 12.44 0 0 0 22.578.01s-10.446 1.83-10.806 1.83h-.95c-.359 0-6.416-1.051-10.823-1.839"/></svg>