<svg width="192" height="192" fill="none" xmlns="http://www.w3.org/2000/svg"><path d="M141.31 48.193A6 6 0 0 1 146.612 45H170l-22.798 48.445a6.003 6.003 0 0 0 0 5.11L170 147h-23.388a5.998 5.998 0 0 1-5.302-3.193l-23.824-45a6.004 6.004 0 0 1 0-5.614l23.824-45ZM22 66.25 36 96l-14 29.75M76.059 170 93 134l-8.941-19M43 22l10.353 22m15.337 4.193A6 6 0 0 0 63.388 45H40l22.798 48.445a6 6 0 0 1 0 5.11L40 147h23.388a5.999 5.999 0 0 0 5.302-3.193l23.824-45a6 6 0 0 0 0-5.614l-23.824-45Z" stroke="#000" stroke-width="12" stroke-linecap="round" stroke-linejoin="round"/></svg>