<svg width="192" height="192" fill="none" xmlns="http://www.w3.org/2000/svg"><path d="M124 65c-25.667 0-71.167 28.704-30.333 28.704 49 0 4.666 33.296-25.667 33.296" stroke="#000" stroke-width="12" stroke-linecap="round" stroke-linejoin="round"/><path d="m96 22 12.56 10.857 15.759-5.224 7.449 14.837 16.558 1.204 1.204 16.558 14.837 7.45-5.224 15.758L170 96l-10.857 12.56 5.224 15.759-14.837 7.449-1.204 16.558-16.558 1.204-7.449 14.837-15.759-5.224L96 170l-12.56-10.857-15.759 5.224-7.449-14.837-16.558-1.204-1.204-16.558-14.837-7.449 5.224-15.759L22 96l10.857-12.56-5.224-15.759 14.837-7.449 1.204-16.558 16.558-1.204 7.45-14.837 15.758 5.224L96 22Z" stroke="#000" stroke-width="12" stroke-linecap="round" stroke-linejoin="round"/></svg>