<svg xmlns="http://www.w3.org/2000/svg" width="192" height="192" viewBox="0 0 192 192"><path d="m114.69 137.06-2-.024-2.768-2.76v-3.112c0-1.712.112-8.144.264-14.304l.272-11.2 1.424-1.448-1.36-1.36-2.176 2.152-8.6 3.936H94.29l-.8-.8c-.624-.64-.824-.8-.912-.72a56 56 0 0 1-4.776.376c-3.6.224-5.312.288-7.512.288h-2.848l-1.56-1.544-2.928.176c-1.92.12-3.864.176-5.648.176h-2.72l-1.92-1.912-1.768 1.76-4.544.16c-2.504.088-5.28.16-6.16.16h-1.616l-.536.528-11.784.288c-6.48.16-13.072.296-14.64.296H18.77l-2.768-2.768v-3.576c0-1.968.16-12.72.344-23.888l.352-20.304 2.752-2.768h2.808c1.544 0 7.392.096 12.984.216l10.176.216 2.792 2.76-.056 4.64a168 168 0 0 0-.024 4.592c.024-.016.72-1.296 1.544-2.848l1.504-2.8 2.84-2.856h2.72c2.616 0 2.976.016 8.512.504l5.776.496.544.544c.416.408.544.496.544.368 0-.104.528-.696 1.384-1.552l1.384-1.384 33-.2 1.064 1.048h1.36c.752 0 6.688.192 13.2.424l11.824.424.952.944h11.736l.48.456.392-.368h15.144l2.8 2.8-.48 40.752-.392.424.248 3.448c.192 2.68.248 4.04.248 6.088v2.64l-1.296 1.296-1.296 1.304h9.36l2.776 2.76V134.1l-2.8 2.792-7.472-.048a1224 1224 0 0 1-14.64-.192l-7.152-.144-.336-.32-.344-.32-10.384-.296-.864-.832h-4.928l-1.2 1.192-1.184 1.192-4-.024zm7.328-5.792.24-11.6c.144-6.16.248-11.2.24-11.2l-3.32-.08-3.296-.064v.72c0 .384-.112 5.224-.256 10.752-.136 5.52-.256 10.44-.256 10.92v.872l1.856.024 3.32.04 1.464.024zm48.528-3.216v-3.36h-6.72v6.72h6.72zm-9.672 1 .104-3.304.056-1.04-3.016-.048c-1.656-.032-3.4-.08-3.88-.104l-.88-.056v-9.936l.28-.04c.16-.024 1.888-.16 3.848-.304 1.968-.144 3.584-.272 3.6-.28a176 176 0 0 0-.496-6.656 640 640 0 0 0-13.68 1.024l-.192.04v22.728l1.384.016c.768 0 3.44.056 5.944.112l5.712.12 1.16.008zm-16.096-.336c-.032-1.424-.368-22.48-.368-23.088v-.208l-3.296.056c-1.808.032-3.312.08-3.336.096-.032.04.088 7.336.208 11.92l.048 1.88-3.2-6.944c-1.76-3.816-3.24-6.96-3.28-7.008a104 104 0 0 0-7.176.384c-.088.056.016 8.544.248 20.744l.056 2.744h2.272c1.248 0 2.728-.024 3.296-.056l1.024-.056-.032-3.672-.064-4.328c-.016-.368 0-.64.032-.6s1.04 2.2 2.216 4.816l2.16 4.744.896.008c.496 0 2.224.056 3.84.112 1.616.064 3.288.112 3.72.12l.776.016zm-43.296-27.264c2.392-1.096 4.328-2.016 4.32-2.04-.08-.136-3.968-8.528-3.968-8.56s.768-.048 1.704-.048h1.704V63.036l-9.904.056c-5.44.032-11.68.08-13.856.112l-3.96.056 1.296 19.656c.712 10.808 1.312 19.68 1.328 19.696.064.056 9.584-.528 9.656-.6.048-.048-.424-7.792-.632-10.424l-.048-.616h2.024l2.936 6.264c1.608 3.44 2.96 6.24 2.992 6.24zm-13.104-20.28c0-.312-.328-6.768-.384-7.552l-.048-.696h7.504v8.24l-1.64.048-3.536.104-1.896.048zm-54.64 21.256a680 680 0 0 0 11.616-.336 288 288 0 0 0-.24-9.784c-.016-.016-2.696.064-5.952.16-3.256.112-6.328.2-6.832.2h-.92v-6.976h9.12v-9.704h-8.872V70.26l4.96.056c2.728.032 5.168.08 5.408.104.328.032.456.016.48-.072.048-.112.216-9.544.184-9.584-.024-.032-20.496-.464-20.528-.432a4256 4256 0 0 0-.368 20.296l-.376 21.176-.016.92h.384zm20.496-.984c1.712-.048 3.312-.112 3.56-.136l.456-.048-.048-2.224-.104-3.576-.048-1.336 8.656.04.288 3.624c.16 1.984.296 3.624.312 3.64.032.04 9.576-.552 9.608-.592.016-.016-.256-4.528-.608-10.032l-.64-10-3.616-7.712c-1.992-4.24-3.648-7.744-3.688-7.784a240 240 0 0 0-11.68-1.008c-.032.04-1.984 3.648-4.328 8.032l-4.264 7.952.008.984c0 .536.128 5.08.264 10.08.136 5.016.248 9.384.248 9.704v.592l1.256-.056a353 353 0 0 1 4.368-.144m3.576-17.896v-.872l2.096-3.88c1.152-2.128 2.12-3.904 2.16-3.936a64 64 0 0 1 1.96 4.128c1.576 3.472 1.92 4.296 2 4.808l.104.616h-8.32zm87.304 14.424a390 390 0 0 0 .056-5.176c0-.992.024-2.208.056-2.704l.056-.904h6.12l-.056 5.808c-.024 3.2-.072 5.936-.096 6.088l-.04.28h9.712v-.936c0-1.544.328-28.872.384-31.784l.048-2.704h-9.768l-.056 3.76c-.032 2.08-.056 4.696-.056 5.816s-.024 2.48-.056 3.008l-.056.96-1.584-.048-2.96-.096-1.392-.048V65.836l-4.8.032c-2.64.016-4.84.056-4.88.096-.048.056-.16 11.2-.296 31.84l-.024 3.56h9.632zm-20.288.728c.008-1.768.56-24.336.592-24.368a80 80 0 0 1 3.472.096c1.888.08 3.456.104 3.488.072.08-.08.32-9.48.256-9.544a2600 2600 0 0 0-23.568-.888h-.224l-.184 4.488a360 360 0 0 0-.192 4.88v.4l7.16.128v.4l-.296 12.608c-.16 6.72-.272 12.232-.256 12.248.032.032 5.304.136 8.28.16l1.464.024z"/></svg>