<svg xmlns="http://www.w3.org/2000/svg" width="192" height="192" viewBox="0 0 192 192"><path fill="none" stroke="#000" stroke-width="2.786" d="m98.754 50.006 48.989 48.989a2.786 2.786 0 0 1 0 3.939l-48.989 48.989a2.786 2.786 0 0 1-3.939 0l-48.989-48.99a2.786 2.786 0 0 1 0-3.938l48.99-48.989a2.786 2.786 0 0 1 3.938 0z"/><path fill="none" stroke="#000" stroke-width="4.178" d="m100.23 48.53 48.989 48.989a4.875 4.875 0 0 1 0 6.892L100.23 153.4a4.875 4.875 0 0 1-6.892 0L44.35 104.41a4.875 4.875 0 0 1 0-6.891L93.34 48.53a4.875 4.875 0 0 1 6.891 0z"/><path fill="none" stroke="#000" stroke-width="2.089" d="M70.32 74.5h52.928v52.928H70.32z"/><path fill="none" stroke="#000" stroke-width="2.089" d="m96.784 74.5 26.464 26.464-26.464 26.464-26.464-26.464z"/><path stroke="#000" stroke-width="2.089" d="M96.784 48.036v105.86m52.926-52.936H43.85"/><path d="m39.89 37.27 3.192 3.192-3.192 3.193-3.192-3.193zm-6.769 97.03 3.192 3.192-3.192 3.193-3.192-3.193zm-12.335-27.76 4.786 4.786-4.786 4.786L16 111.326zm12.335-22.29 3.192 3.192-3.192 3.193-3.192-3.193zm30.026-37.957 4.786 4.786-4.786 4.786-4.786-4.786zM122.26 148.32l3.192 3.192-3.192 3.193-3.192-3.193zm-40.61 9.9 4.786 4.786-4.786 4.786-4.786-4.786zm7.184-135.254 3.192 3.192-3.192 3.193-3.192-3.193zm58.906 17.12-3.192 3.192-3.193-3.192 3.193-3.192zm11.81 11.898-4.786 4.786-4.786-4.786 4.786-4.786zm-50.81-11.898-3.192 3.192-3.193-3.192 3.193-3.192zm28.21 13.46-3.192 3.192-3.193-3.192 3.193-3.192zm16.25 75.374-3.192 3.192-3.193-3.192 3.193-3.192zm-7.84 35.33-4.786 4.786-4.786-4.786 4.786-4.786zm-79.263-20.44-3.192 3.192-3.193-3.192 3.193-3.192zM176 94.607l-4.786 4.786-4.786-4.786 4.786-4.786z"/><path d="M59.596 126.07a.637.637 0 1 0-.997-.797c-15.948 19.93-24.3 35.682-20.065 39.916 6.343 6.343 38.537-15.563 71.903-48.93a444 444 0 0 0 9.262-9.54.864.864 0 0 0-.02-1.21l-1.818-1.821a.875.875 0 0 0-1.251.02 446 446 0 0 1-9.224 9.498c-30.43 30.431-59.362 50.841-64.616 45.585-3.323-3.32 3.602-16.093 16.825-32.72zm76.064-30.585a1.306 1.306 0 0 1 .674 2.521zm.674 2.521-11.9 3.19-.677-2.521 11.903-3.19z"/><path d="M126.03 87.696a1.305 1.305 0 0 1 2.521.674zm2.521.674-3.19 11.903-2.52-.677 3.189-11.9z"/><path d="M130.62 93.264c-3.554-3.552-9.234-3.635-12.686-.184l-7.705 7.708a1.707 1.707 0 0 0 2.412 2.412l2.076-2.078a3.416 3.416 0 0 1 4.827 0l3.218 3.218a3.416 3.416 0 0 1 0 4.827l-2.078 2.076a1.707 1.707 0 0 0 2.412 2.412l7.708-7.705c3.451-3.451 3.368-9.131-.184-12.686"/></svg>