<svg xmlns="http://www.w3.org/2000/svg" width="192" height="192" viewBox="0 0 192 192"><path d="M24.732 16v3.137h3.137V16zm69.02 0c-5.208 0-9.412 4.05-9.412 9.038v11.164c0 .973.786 1.759 1.759 1.759s1.789-.786 1.789-1.759v-3.009c0-1.913 1.566-3.486 3.511-3.486h4.706c1.945 0 3.51 1.573 3.51 3.486v3.009c0 .973.818 1.759 1.79 1.759s1.759-.786 1.759-1.759V25.038c0-4.988-4.204-9.038-9.412-9.038m53.333 0v3.137h3.137V16zm-100.39 6.275v3.137h3.137v-3.137zm12.549 3.137v6.274h6.274v-6.274zm103.53 12.549v6.274h6.274v-6.274zm-69.234.006a3.137 3.137 0 0 0-2.923 3.131 3.14 3.14 0 0 0 .693 1.96c-.987 18.875-4.96 50.964-14.026 74.866a89 89 0 0 1 16.47-1.532c5.627 0 11.134.525 16.472 1.532-9.067-23.902-13.04-55.992-14.026-74.865a3.14 3.14 0 0 0 .692-1.961 3.137 3.137 0 0 0-3.352-3.131M24.735 50.51v6.274h6.274V50.51zm21.961 3.137v6.275h6.274v-6.275zm90.98 3.138v3.137h3.137v-3.137zm12.549 6.274v6.275h6.275v-6.275zm-119.22 6.275v6.274h6.274v-6.274zm138.04 0v6.274h6.275v-6.274zm-100.39 6.274v6.275h6.274v-6.275zm81.569 6.275v3.137h3.137v-3.137zm-31.373 3.137v3.137h3.137V85.02zm-90.98 15.686v3.137h3.137v-3.137zm15.607 0a7.84 7.84 0 0 0-3.91 1.09 7.843 7.843 0 0 0-2.763 10.742l13.358 22.61A82.27 82.27 0 0 0 16.683 176h154.14a82.28 82.28 0 0 0-33.48-40.852l13.358-22.61a7.843 7.843 0 0 0-2.763-10.741 7.843 7.843 0 0 0-10.741 2.763l-13.928 23.572a82.2 82.2 0 0 0-29.516-5.466 82.2 82.2 0 0 0-29.516 5.466L50.309 104.56a7.84 7.84 0 0 0-6.832-3.854z"/></svg>