<svg xmlns="http://www.w3.org/2000/svg" width="192" height="192" viewBox="0 0 192 192"><path d="M110.41 22.862c.378-.378.567-.567.789-.629a.9.9 0 0 1 .467 0c.221.062.41.251.788.629s.568.567.629.789a.87.87 0 0 1 0 .467c-.061.222-.25.41-.629.789-.377.378-.567.567-.788.629a.9.9 0 0 1-.467 0c-.222-.062-.41-.251-.789-.63-.378-.377-.567-.566-.629-.788a.9.9 0 0 1 0-.467c.062-.222.25-.41.629-.789m63.62 76.826c.275-.275.413-.413.574-.457a.63.63 0 0 1 .34 0c.16.044.298.182.573.457s.413.412.457.573a.63.63 0 0 1 0 .34c-.044.161-.182.299-.457.574s-.412.412-.573.457a.63.63 0 0 1-.34 0c-.161-.045-.299-.182-.574-.457s-.412-.413-.457-.574a.63.63 0 0 1 0-.34c.045-.16.182-.298.457-.573M80.172 22.785c.275-.275.412-.413.573-.457a.63.63 0 0 1 .34 0c.161.044.299.182.573.457.276.275.413.412.458.573a.63.63 0 0 1 0 .34c-.045.161-.182.299-.458.574-.274.275-.412.412-.573.457a.63.63 0 0 1-.34 0c-.16-.045-.298-.182-.573-.457s-.413-.413-.457-.574a.63.63 0 0 1 0-.34c.044-.16.182-.298.457-.573M146.84 139.56c.275-.275.412-.412.573-.457a.63.63 0 0 1 .34 0c.161.045.299.182.574.457s.412.412.457.573a.63.63 0 0 1 0 .34c-.045.162-.182.299-.457.574s-.413.412-.574.457a.64.64 0 0 1-.34 0c-.16-.045-.298-.182-.573-.457s-.412-.412-.457-.573a.63.63 0 0 1 0-.34c.045-.162.182-.299.457-.574M23.823 122.74c.275-.275.412-.412.573-.457a.63.63 0 0 1 .34 0c.162.045.299.182.574.457s.412.412.457.573a.63.63 0 0 1 0 .34c-.045.161-.182.299-.457.574s-.412.412-.573.457a.63.63 0 0 1-.34 0c-.162-.045-.299-.182-.574-.457s-.412-.413-.457-.574a.64.64 0 0 1 0-.34c.045-.16.182-.298.457-.573m118.587 2.47c.275-.275.412-.412.573-.457a.64.64 0 0 1 .34 0c.161.045.299.182.574.457s.412.412.457.573a.63.63 0 0 1 0 .34c-.045.162-.182.299-.457.574s-.413.412-.574.457a.63.63 0 0 1-.34 0c-.16-.045-.298-.182-.573-.457s-.413-.412-.457-.573a.63.63 0 0 1 0-.34c.044-.162.182-.299.457-.574m-71.177 16.8c.275-.275.412-.413.573-.457a.63.63 0 0 1 .34 0c.162.044.299.182.574.457s.412.412.457.573a.63.63 0 0 1 0 .34c-.045.161-.182.299-.457.574s-.412.412-.573.457a.63.63 0 0 1-.34 0c-.162-.045-.299-.182-.574-.457s-.412-.413-.457-.574a.64.64 0 0 1 0-.34c.045-.16.182-.298.457-.573M157.4 79.394c.378-.378.567-.567.789-.629a.9.9 0 0 1 .467 0c.222.062.41.251.789.629.378.378.567.567.629.789a.9.9 0 0 1 0 .467c-.062.222-.251.41-.63.789-.377.378-.566.567-.788.629a.9.9 0 0 1-.467 0c-.222-.062-.41-.251-.789-.63-.378-.377-.567-.566-.629-.788a.9.9 0 0 1 0-.467c.062-.222.251-.41.629-.789M16.661 99.179c.378-.378.567-.567.789-.629a.9.9 0 0 1 .467 0c.221.062.41.25.788.629.379.378.568.567.629.789a.9.9 0 0 1 0 .467c-.061.221-.25.41-.629.788-.378.379-.567.568-.788.629a.9.9 0 0 1-.467 0c-.222-.061-.411-.25-.789-.629-.378-.378-.567-.567-.629-.788a.87.87 0 0 1 0-.467c.062-.222.25-.411.629-.789m26.355 34.711c.55-.55.825-.825 1.147-.914.223-.062.458-.062.68 0 .322.09.597.364 1.147.914s.825.825.915 1.147c.06.223.06.458 0 .68-.09.322-.365.597-.915 1.147s-.825.825-1.147.915a1.3 1.3 0 0 1-.68 0c-.322-.09-.597-.365-1.147-.915s-.825-.825-.914-1.147a1.27 1.27 0 0 1 0-.68c.09-.322.364-.597.914-1.147M24.304 63.867c.55-.55.825-.825 1.147-.915.222-.061.457-.061.68 0 .322.09.597.365 1.147.915s.825.825.914 1.147c.062.222.062.457 0 .68-.09.322-.364.597-.914 1.146-.55.55-.825.826-1.147.915a1.27 1.27 0 0 1-.68 0c-.322-.09-.597-.364-1.147-.915-.55-.55-.825-.824-.915-1.146a1.3 1.3 0 0 1 0-.68c.09-.322.365-.597.915-1.147M169.48 83.136c.55-.55.825-.825 1.147-.914.222-.062.458-.062.68 0 .322.09.597.364 1.147.914s.825.825.914 1.147c.062.223.062.458 0 .68-.09.322-.364.597-.914 1.147s-.825.825-1.147.915a1.3 1.3 0 0 1-.68 0c-.322-.09-.597-.365-1.147-.915s-.825-.825-.915-1.147a1.3 1.3 0 0 1 0-.68c.09-.322.365-.597.915-1.147M94.061 20.168c.55-.55.825-.825 1.147-.914.222-.062.457-.062.68 0 .322.09.597.364 1.147.914s.825.825.914 1.147c.062.223.062.458 0 .68-.09.322-.364.597-.914 1.147s-.825.825-1.147.915a1.3 1.3 0 0 1-.68 0c-.322-.09-.597-.365-1.147-.915s-.825-.825-.915-1.147a1.27 1.27 0 0 1 0-.68c.09-.322.365-.597.915-1.147M120.32 164.68c.55-.55.825-.825 1.147-.914.222-.062.458-.062.68 0 .322.09.597.364 1.147.914s.825.825.915 1.147c.06.223.06.458 0 .68-.09.322-.365.597-.915 1.147s-.825.825-1.147.915a1.3 1.3 0 0 1-.68 0c-.322-.09-.597-.365-1.147-.915s-.825-.825-.914-1.147a1.27 1.27 0 0 1 0-.68c.09-.322.364-.597.914-1.147m48.86-61.2c.378-.378.567-.567.789-.629a.87.87 0 0 1 .467 0c.222.062.41.25.789.629.378.378.567.567.629.789a.9.9 0 0 1 0 .467c-.062.221-.251.41-.63.788-.377.379-.566.568-.788.629a.9.9 0 0 1-.467 0c-.222-.061-.41-.25-.789-.629-.378-.378-.567-.567-.629-.788a.9.9 0 0 1 0-.467c.062-.222.251-.411.629-.789M31.187 98.836c.378-.378.567-.567.789-.629a.87.87 0 0 1 .467 0c.222.062.41.25.788.629.379.378.568.567.629.789a.87.87 0 0 1 0 .467c-.061.221-.25.41-.629.788-.377.379-.566.568-.788.629a.9.9 0 0 1-.467 0c-.222-.061-.41-.25-.789-.629-.378-.378-.567-.567-.629-.788a.9.9 0 0 1 0-.467c.062-.222.251-.411.629-.789M44.01 84.703c.378-.378.567-.567.789-.629a.9.9 0 0 1 .467 0c.222.062.41.251.789.629.378.378.567.567.629.789a.9.9 0 0 1 0 .467c-.062.222-.251.41-.63.788-.377.379-.566.568-.788.629a.87.87 0 0 1-.467 0c-.222-.061-.41-.25-.789-.629-.378-.377-.567-.566-.629-.788a.9.9 0 0 1 0-.467c.062-.222.251-.41.629-.789"/><path stroke="#000" stroke-linecap="round" stroke-width="4.129" d="m106.22 131.11.365-.365m4.925-4.925 23.184-23.184m-7.674-6.197 5.84-5.84M87.241 136.22l14.233-14.233m14.676-14.677 5.082-5.082m-8.442-5.424 16.058-16.058M80.489 129.1l2.372-2.372m24.089-37.953 10.949-10.949M101.47 94.249l.365-.365M117.9 77.826h-8.029M69.723 126l5.475-5.475m-9.201-4.665-1.748 1.748M111.88 69.98l2.373-2.373M92.715 89.14l9.124-9.124M79.577 88.41l25.547-25.547m-44.89 44.887 12.235-12.235m12.768-26.633.4-.4m-9.748 9.748 3.496-3.496M58.409 95.71l10.488-10.488m32.573 36.768c9.555-9.556.232-14.101 10.584-24.453M70.053 108.46h3.496m10.488-13.98v3.496"/><path fill="none" stroke="#000" stroke-linecap="round" stroke-width="4.129" d="M101.66 121.81c-15.853 15.853-37.042-4.564-23.445-18.16 12.33-12.33 27.284 2.028 18.058 12.321-8.85 9.874-19.852-1.647-10.996-8.784 4.646-3.744 10.013 2.6 4.313 5.741"/><path d="M87.267 172.79a2.78 2.78 0 0 1-1.951-.759 2.5 2.5 0 0 1-.805-1.873v-14.09l-8.749 4.382a2.2 2.2 0 0 1-1.734.123q-.897-.31-1.3-1.114a2.17 2.17 0 0 1-.155-1.75q.31-.914 1.208-1.332l11.767-5.853q.404-.2.744-.325.34-.124.805-.124 1.177 0 2.044.898c.867.898.867 1.342.867 2.23v16.955q0 1.1-.82 1.874a2.7 2.7 0 0 1-1.92.758zm15.077-.712a2.3 2.3 0 0 1-.697-1.719q.03-1.006.774-1.719l13.146-13.812-.03-.077h-16.91a2.18 2.18 0 0 1-1.579-.65q-.65-.65-.65-1.564c0-.914.216-1.13.65-1.564q.666-.65 1.58-.65h21.103q1.209 0 2.044.82a2.62 2.62 0 0 1 .852 1.982q0 .681-.294 1.208-.28.51-.65.882l-16.058 16.877q-.665.65-1.64.635-.976 0-1.642-.65zM50.035 72.879l-1.44 1.809-1.102-1.88-6.3-10.715-.62-1.062.951-1.195.926-1.163 1.165.36 11.819 3.75 2.11.663-1.414 1.777-.836 1.05-.936-.35-8.019-2.82-1.554-.618-.039.049.942 1.37 4.526 7.191.566.847zm-1.948-2.144-1.31-2.166 4.217-5.297 2.43.76zm13.694-11.64-1.362.858-.788-1.249-6.064-9.624-1.028-1.633 1.807-1.14 1.057-.665.86.397 8.863 4.19.052-.034-1.258-1.88-2.867-4.55-.759-1.205 1.362-.858 1.363-.859.759 1.206 6.207 9.851.914 1.45-1.59 1.001-.926.584-.747-.334-9.517-4.338-.052.033 1.246 1.862 3.044 4.83.786 1.248zm15.912-9.22-1.792.404-.406-1.803-2.434-10.827-.403-1.792 1.792-.403 3.364-.757q3.303-.743 5.774.787 2.477 1.516 3.207 4.759.734 3.263-.854 5.704-1.581 2.43-4.884 3.172zm.82-3.22 1.713-.385q1.948-.417 2.83-1.811.882-1.395.425-3.428l-.003-.01q-.453-2.014-1.842-2.877-1.38-.864-3.333-.425l-1.712.385zm16.667-.08-1.664-.168.153-1.5 1.157-11.379.187-1.828 1.827.186 4.047.412q2.198.223 3.555 1.669 1.368 1.446 1.148 3.603-.206 2.024-1.766 3.182-1.549 1.15-3.84.917l-4.538-.462.242-2.382 4.16.423q.923.094 1.608-.418.687-.52.783-1.466a1.9 1.9 0 0 0-.462-1.479q-.536-.645-1.43-.737l-2.3-.234-1.051 10.331-.153 1.5zm7.61.775-1.007-.102-.311-.613-3.27-6.413 3.515.233 2.569 4.733 1.358 2.453zm12.924 4.01q-2.905-1.37-4.011-4.275-1.107-2.907.353-6.006 1.466-3.11 4.412-4.084 2.95-.983 5.836.376 2.867 1.35 3.979 4.27 1.125 2.916-.322 5.988-1.434 3.044-4.393 4.07-2.96 1.025-5.854-.34m1.377-2.923q1.68.792 3.347.162c1.667-.63 1.943-1.219 2.497-2.395q.845-1.793.247-3.455-.593-1.672-2.264-2.46-1.663-.782-3.334-.166-1.666.607-2.502 2.38-.836 1.776-.261 3.46.58 1.678 2.27 2.473zM129 57.893l-1.273-1.117 1.008-1.149 7.741-8.821 1-1.141 2.546 2.233-1 1.14-7.742 8.823-1.008 1.148zm7.412 7.228-1.084-1.483 1.492-1.09L145.78 56l1.484-1.084 1.084 1.483 2.034 2.784q1.997 2.734 1.58 5.61-.405 2.877-3.088 4.837-2.7 1.974-5.572 1.49-2.859-.483-4.856-3.216zm3.281-.53 1.036 1.416q1.158 1.62 2.788 1.875 1.63.253 3.314-.977l.008-.006q1.667-1.218 1.904-2.836.243-1.61-.938-3.226l-1.035-1.417z"/></svg>