<svg width="192" height="192" fill="none" xmlns="http://www.w3.org/2000/svg"><path d="M89.732 122.464c1.105-1.913 1.612-3.688 1.134-3.964-.478-.276-1.761 1.051-2.866 2.964-1.105 1.913-1.612 3.688-1.134 3.964.478.276 1.761-1.051 2.866-2.964Z" stroke="#000" stroke-width="8" stroke-linecap="round" stroke-linejoin="round"/><path d="m68 94.037 58.5-35.056M68 23.99c0-1.537 1.68-2.492 3.013-1.715l48.141 28.09a23.918 23.918 0 0 1 8.675 8.715A23.723 23.723 0 0 1 131 70.926v49.386c0 4.108-1.068 8.147-3.101 11.724a23.908 23.908 0 0 1-8.503 8.693l-48.363 28.982C69.7 170.51 68 169.556 68 168.01V23.99Z" stroke="#000" stroke-width="12" stroke-linecap="round" stroke-linejoin="round"/></svg>