<svg width="192" height="192" fill="none" xmlns="http://www.w3.org/2000/svg"><circle cx="51" cy="51" r="5" stroke="#000" stroke-width="10"/><circle cx="51" cy="141" r="5" stroke="#000" stroke-width="10"/><circle cx="81" cy="51" r="5" stroke="#000" stroke-width="10"/><circle cx="81" cy="141" r="5" stroke="#000" stroke-width="10"/><circle cx="111" cy="51" r="5" stroke="#000" stroke-width="10"/><circle cx="111" cy="141" r="5" stroke="#000" stroke-width="10"/><circle cx="141" cy="51" r="5" stroke="#000" stroke-width="10"/><path d="M25 31a6 6 0 0 1 6-6h130a6 6 0 0 1 6 6v130a6 6 0 0 1-6 6H31a6 6 0 0 1-6-6V31Zm116 45v70M47 81h70m-70 30h70" stroke="#000" stroke-width="12" stroke-linecap="round" stroke-linejoin="round"/></svg>