<svg xmlns="http://www.w3.org/2000/svg" width="192" height="192" viewBox="0 0 192 192"><path fill="none" stroke="#000" stroke-width="10" d="M171 103.5c0 8.325-6.674 15-14.999 15h-120c-8.25 0-15-6.675-15-15s6.75-15 15-15h60c4.855 0 9.566 1.652 13.357 4.685l7.036 5.63a9.38 9.38 0 0 0 11.714 0l7.037-5.63a21.38 21.38 0 0 1 13.356-4.685h7.5c8.326 0 15 6.75 15 15m-75-75c-50.144 0-63.037 24.834-66.353 37.605-1.039 4 2.21 7.396 6.352 7.396h120c4.142 0 7.391-3.396 6.352-7.397C159.036 53.334 146.143 28.5 96 28.5M28.5 141c0 12.45 10.05 22.5 22.5 22.5h90c12.45 0 22.5-10.05 22.5-22.5a7.5 7.5 0 0 0-7.5-7.5H36a7.503 7.503 0 0 0-7.5 7.5z"/></svg>