<svg width="192" height="192" version="1.1" xmlns="http://www.w3.org/2000/svg"><path d="m101.05 78.995v2.7687l1.1745 0.11172c0.72271 0.11146 0.94807 0.30067 0.94807 1.0809v3.8662c-1.0728-0.3442-2.1943-0.51672-3.3228-0.51328-5.7422 0-8.8753 4.3888-8.8753 10.494 0 4.9473 1.7407 9.2346 7.4834 9.2346 1.0141 0.0593 2.0264-0.13831 2.9408-0.57518 0.91362-0.43687 1.6991-1.0988 2.2796-1.9203h0.14794l0.11323 1.9731h5.5858v-2.6842l-1.1307-0.11171c-0.71343-0.11146-0.79257-0.25671-0.79257-1.1141l-0.0166-22.61zm14.592 0c-0.27358-0.0061-0.54808 0.03143-0.81069 0.1102-0.35091 0.10504-0.6744 0.28152-0.94957 0.51932-0.27517 0.2378-0.49464 0.53074-0.64614 0.859-0.15072 0.32826-0.22946 0.68438-0.22946 1.0447 0 0.36032 0.0787 0.71643 0.22946 1.0447 0.1515 0.32826 0.37097 0.62119 0.64614 0.859 0.27517 0.2378 0.59866 0.4158 0.94957 0.52083 0.35015 0.10504 0.72066 0.13549 1.084 0.08907 0.35324 0.02438 0.70623-0.02402 1.0401-0.1404 0.33393-0.11638 0.63932-0.29816 0.89826-0.53593 0.25893-0.23776 0.46469-0.52583 0.60537-0.84541 0.14067-0.31957 0.21212-0.66476 0.21135-1.013-7.7e-4 -0.34134-0.073-0.67808-0.21286-0.99034-0.1399-0.31226-0.345-0.59193-0.60084-0.82277-0.25507-0.23084-0.55615-0.40861-0.88465-0.51932-0.32851-0.11072-0.67728-0.15326-1.0236-0.1253l-0.0332-0.03321c-0.0908-0.0116-0.18203-0.01909-0.27323-0.02114zm-90.359 6.9565c-6.0104 0-9.2844 4.6899-9.2844 10.557 0 5.3353 2.3736 9.538 8.7304 9.538 2.3261 0.0412 4.6097-0.63041 6.5474-1.9263l-1.3164-3.1386c-1.3821 0.9971-3.037 1.5393-4.7373 1.5519-3.2737 0-4.5121-2.1973-4.7026-4.7343 6.4261 0.19184 10.937-1.0897 10.937-6.5036l-0.0091-0.0091c0-3.5917-2.3635-5.3351-6.1655-5.3351zm127.85 0c-5.7175 0-8.8285 4.6899-8.8285 10.557 0 5.3353 2.246 9.538 8.285 9.538 2.2099 0.0407 4.3786-0.63087 6.2198-1.9263l-1.25-3.1386c-1.3132 0.99718-2.8864 1.5393-4.5018 1.5519-3.1096 0-4.2847-2.1974-4.4656-4.7343 6.1047 0.19177 10.389-1.0897 10.389-6.5036l9e-3 -0.0091c0-3.5918-2.254-5.3351-5.8575-5.3351zm19.464 0.0076c-1.1045-0.05983-2.1995 0.22687-3.1371 0.82126-0.93836 0.59432-1.6724 1.4675-2.103 2.5v-2.8397h-6.0477v2.8397l1.2651 0.06944c0.62918 0.1205 0.84994 0.30069 0.84994 1.0492v10.841c0 0.85179-0.0775 1.1185-0.92694 1.2304l-1.1036 0.11171v2.6932h9.2935v-2.805l-2.9484-0.15549v-8.8104l-0.0332-0.0076c0-2.2026 1.2137-3.8466 3.2443-3.8466 0.35169-0.01631 0.70421 0.04931 1.0281 0.19022 0.33161 0.11184 0.33063 0.33547 0.33063 0.97222v2.3566l3.6866-0.2581v-6.2379c-1.0605-0.50846-2.2257-0.75322-3.3982-0.71407zm-38.185 3e-3c-1.1254-0.06783-2.245 0.18246-3.2382 0.72313-0.99324 0.54069-1.8194 1.3511-2.3868 2.34v-2.5815h-6.1247v2.8397l1.1775 0.07699c0.70339 0.11177 0.92392 0.25845 0.92392 1.1187l-0.0604 10.907c0 0.78284-0.14354 1.0839-0.84692 1.0839l-1.1428 0.11171v2.6932h8.1326v-2.805l-1.7618-0.11172v-8.7485c-0.0186-0.5205 0.0674-1.0389 0.25212-1.5248 0.18473-0.48587 0.46338-0.92981 0.82125-1.3028 0.35788-0.3731 0.78677-0.66786 1.2606-0.86806 0.47305-0.20012 0.98134-0.30092 1.4946-0.29589 2.3969 0 2.9061 1.4975 2.9061 3.7772v8.0254c0 0.78284-0.22006 0.97209-0.84692 1.0839l-1.1021 0.11172v2.6585h8.1159v-2.805l-1.872-0.11172v-10.014c0-4.3701-1.9918-6.3828-5.702-6.3828zm-91.11 0.76237c-6.3528 0-9.529 4.0381-9.529 10.438 0 5.0679 1.887 8.8364 7.192 8.8783 0.96788 0.0483 1.933-0.14921 2.805-0.57518 0.87188-0.42605 1.6229-1.0658 2.1845-1.8614h0.1087l0.10718 1.9263h5.3804v-2.6223l-1.0477-0.0664c-0.65685-0.0419-0.83182-0.29331-0.83182-1.022v-13.83c-2.0404-0.769-4.1918-1.1965-6.3693-1.2651zm10.909 0v5.4438l3.6081 0.26268v-1.6969c0-0.73762 0.14966-0.95713 1.0236-0.95713h5.0861l-10.059 12.811v2.6872h11.606c0.12491 2.5919 1.2312 4.9641 3.4722 6.2892 1.6237 1.0038 3.5101 1.5031 5.4197 1.4342 3.5938-0.21805 5.8921-2.9864 7.6344-7.7582l5.4121-14.675c0.29457-0.76313 0.47831-0.94778 1.1685-1.0568l0.84239-0.06643v-2.7083h-7.4487v2.8004l1.6078 0.15097-3.4843 10.559h-0.1102l-3.1054-9.6528c-0.1852-0.6206-3.72e-4 -0.94803 0.58877-1.0236l0.90882-0.07549v-2.7672h-7.8185v2.6917l1.6078 0.2189 5.8922 15.933-0.64915 1.5263c-0.73229 1.7863-1.6835 2.147-3.2911 2.34-1.1381 0.0782-2.2725-0.18851-3.2563-0.76389-2.3229-1.2328-2.9209-5.0986-0.36232-6.0462 0.84166-0.30192 1.7511 0.94022 2.82-0.47706 0.12893-0.2022 0.21389-0.429 0.2506-0.66576 0.03679-0.23683 0.02394-0.4794-0.03774-0.71105-0.06168-0.23158-0.1704-0.44805-0.32005-0.63557-0.14972-0.18759-0.33688-0.34098-0.54952-0.4529-2.4455-1.7223-5.8459-0.0051-6.8433 2.5755h-6.712l10.068-12.921v-2.6117zm57.63 0.0619v2.7868l1.1941 0.07699c0.71343 0.10976 0.93599 0.25292 0.93599 1.0975v10.566c0 0.91223-0.15407 1.098-0.859 1.2077l-1.1941 0.11021v2.6434h8.4254v-2.7536l-1.9762-0.15248v-15.583zm-86.751 2.4608c1.3857 0 2.3294 0.60098 2.3294 2.2313 0 2.2318-2.1054 3.1039-5.4136 3.1039h-1.5066c0.30311-2.4584 1.5424-5.3004 4.5909-5.3004zm127.86 0c1.3163 0 2.2132 0.60098 2.2132 2.2313 0 2.2318-1.9991 3.1039-5.1419 3.1039h-1.4312c0.24656-2.4585 1.4722-5.3004 4.3599-5.3004zm-52.758 0.37138c1.0334 2e-3 2.0539 0.23044 2.9861 0.66878v9.0112c0 1.9378-1.3672 3.353-3.7425 3.353-3.132 0-3.8889-2.9755-3.8889-6.2938 0-3.6869 1.1654-6.7391 4.6452-6.7391zm-57.489 0.4061c0.92568-0.01894 1.8455 0.14283 2.7098 0.47705l-0.0076 8.9055c0.0017 0.46508-0.09327 0.92486-0.27778 1.3511-0.18458 0.42628-0.45468 0.80949-0.79408 1.1247-0.33948 0.31513-0.74082 0.55595-1.1775 0.70652-0.43679 0.15065-0.90022 0.20715-1.3602 0.16758-2.9935 0-3.7168-2.8394-3.7168-5.7126 0-3.6689 1.0486-7.0199 4.6241-7.0199z"/></svg>
