<svg width="192" height="192" fill="none" xmlns="http://www.w3.org/2000/svg"><path d="M96 51v34m31.821-20.823L117.8 74.197m23.205 21.798h-34m20.823 31.821-24.041-24.041M96 107v34m-7.777-37.225-24.041 24.041m20.823-31.821h-34m37.225-7.777L64.19 64.177" stroke="#000" stroke-width="10" stroke-linecap="round" stroke-linejoin="round"/><circle cx="96" cy="96" r="11" stroke="#000" stroke-width="10" stroke-linecap="round" stroke-linejoin="round"/><path d="M85 40c0-13 11-19 11-19s11 6 11 19a10.996 10.996 0 0 1-11 11 11 11 0 0 1-11-11Zm42.82 8.624c9.192-9.193 21.213-5.657 21.213-5.657s3.536 12.02-5.657 21.213a11 11 0 1 1-15.556-15.556ZM152 85c13 0 19 11 19 11s-6 11-19 11a10.994 10.994 0 0 1-10.163-6.79 11.02 11.02 0 0 1 0-8.42A10.996 10.996 0 0 1 152 85Zm-8.624 42.82c9.193 9.192 5.657 21.213 5.657 21.213s-12.021 3.536-21.213-5.657a11.01 11.01 0 0 1-2.385-3.568 11.017 11.017 0 0 1 0-8.42 11.01 11.01 0 0 1 5.954-5.953 11.012 11.012 0 0 1 8.419 0 10.994 10.994 0 0 1 3.568 2.385ZM85 152c0 13 11 19 11 19s11-6 11-19a10.994 10.994 0 0 0-6.79-10.163 11.02 11.02 0 0 0-8.42 0A10.996 10.996 0 0 0 85 152Zm-36.376-24.18c-9.192 9.192-5.657 21.213-5.657 21.213s12.021 3.536 21.213-5.657a10.993 10.993 0 0 0 3.222-7.778 11.002 11.002 0 0 0-11-11 10.996 10.996 0 0 0-7.778 3.222ZM40 85c-13 0-19 11-19 11s6 11 19 11a10.996 10.996 0 0 0 11-11 11 11 0 0 0-11-11Zm24.18-36.376c-9.192-9.193-21.213-5.657-21.213-5.657s-3.535 12.02 5.657 21.213A11.001 11.001 0 0 0 64.18 48.624Z" stroke="#000" stroke-width="10" stroke-linecap="round" stroke-linejoin="round"/></svg>