<svg xmlns="http://www.w3.org/2000/svg" width="192" height="192" viewBox="0 0 192 192"><path d="M56.172 64.078V94.5a17.008 17.008 0 0 0-19.516-16.531C25.376 77.969 16 82.477 16 97.125c0 11.64 6.39 18.406 21.047 18.406 17.272 0 18.391-11.266 18.391-11.266h-8.64a9.72 9.72 0 0 1-10.517 6.375 11.36 11.36 0 0 1-12.016-11.625h31.922v9.75l-.375 6.016h8.266l.375-5.266a16.48 16.48 0 0 0 14.641 6.39 18.04 18.04 0 0 0 18.078-12.968c-.026.312-.047.627-.047.953 0 7.512 6.391 12.016 15.03 12.016 12.017 0 15.392-6.39 15.392-6.39l.375 5.265h7.515V91.5a16 16 0 0 0-.406-3.703l14.312 26.609-6.765 13.516h9L176 79.485l-8.641-.016-13.516 27.047-13.906-27.047h-9.39l1.562 2.906a20.16 20.16 0 0 0-14.328-4.406c-17.28 0-18.031 9.388-18.031 10.516h8.265s.752-5.25 9.016-5.25c11.648 0 10.141 9.016 10.141 9.016h-10.141c-10.871 0-17.357 2.835-19.281 8.062a18 18 0 0 0 .125-3.562A17.736 17.736 0 0 0 79.094 77.97c-11.64 0-14.641 6.015-14.641 6.015V64.08zM37.297 83.187a10.264 10.264 0 0 1 10.25 10.562H24.266a11.096 11.096 0 0 1 12.016-10.516 10 10 0 0 1 1.016-.047zm39.547.422a12.032 12.032 0 0 1 12.391 13.14 12.56 12.56 0 0 1-12.391 13.517 12.21 12.21 0 0 1-12.391-13.141 12.296 12.296 0 0 1 12.391-13.516m50.328 13.89a11.784 11.784 0 0 1-13.141 13.142c-6.016 0-8.64-2.998-8.64-6.75 0-6.384 9.005-6.39 21.78-6.39z"/></svg>