<svg width="192" height="192" fill="none" xmlns="http://www.w3.org/2000/svg"><path d="m40.136 131.938 65.471-65.471m-45.545 85.397 65.471-65.471m-9.963-62.624a6.039 6.039 0 1 1-8.54 8.54 6.039 6.039 0 0 1 8.54-8.54Zm26.331 26.33a6.039 6.039 0 1 1-8.54 8.54 6.039 6.039 0 0 1 8.54-8.54Zm26.33 26.33a6.037 6.037 0 0 1 0 8.54 6.038 6.038 0 1 1-8.539-8.54 6.038 6.038 0 0 1 8.539 0ZM84.97 168.232 141.9 111.3a6.038 6.038 0 0 0 0-8.539L89.239 50.099a6.038 6.038 0 0 0-8.54 0L23.77 107.03a6.039 6.039 0 0 0 0 8.54l52.66 52.661a6.037 6.037 0 0 0 8.54 0Z" stroke="#000" stroke-width="12" stroke-linecap="round" stroke-linejoin="round"/></svg>