<svg width="192" height="192" fill="none" xmlns="http://www.w3.org/2000/svg"><path d="M34 68c9 30 37 21 37 21l2 6s-3 13-23 13-28-18-28-18l12-22Zm136 26s-5-20-27-20-29 13-29 13v4c28-4 36 10 36 10h11l9-7Zm-14 62s0-28-43-36l-3 2c22 11 14 30 14 30s11 1 18 10l14-6ZM110 26c-14 8-8 24-8 24l-7 20h-9s-14-6-14-18c0-18 15-23 15-23l5 2 18-5ZM36 137.866c24.242 11.886 40.404-10.895 40.404-10.895l7.07-2.971s10.102 23.771-10.1 32.685c-20.202 8.914-33.334-2.971-33.334-2.971L36 137.866Z" stroke="#000" stroke-width="12" stroke-linecap="round" stroke-linejoin="round"/></svg>