<svg xmlns="http://www.w3.org/2000/svg" xml:space="preserve" width="192" height="192" viewBox="0 0 192 192"><path d="M115.19 16a6.545 6.545 0 0 0-6.547 6.547v146.91a6.545 6.545 0 0 0 6.547 6.547h1.52a6.545 6.545 0 0 0 6.547-6.547V22.547A6.545 6.545 0 0 0 116.71 16zm-49.433 5.625c-8.186 0-16.185 2.031-23.124 5.899-5.585 3.102-10.121 7.106-13.478 11.896-4.26 6.086-6.538 13.29-6.773 21.437v68.876c0 5.85 1.05 11.486 3.13 16.727 5.85 14.753 17.945 23.066 34.072 23.419h30.919c3.896.01 7.056-3.15 7.056-7.048 0-3.896-3.16-7.057-7.047-7.047H59.82c-10.493-.245-17.423-4.995-21.19-14.507-1.424-3.583-2.142-7.46-2.142-11.534V61.18c.304-9.649 4.564-16.617 13.006-21.318 4.859-2.7 10.484-4.124 16.275-4.124h24.736a7.058 7.058 0 0 0 0-14.113zm74.739 2.645c-.73-.007-1.46.06-2.182.211-2.885.609-5.564 2.924-5.79 5.869-.245 3.19 2.325 5.94 5.133 7.461s6.008 2.266 8.707 3.974c4.015 2.523 6.527 6.959 7.725 11.553s1.217 9.404 1.236 14.145l.177 51.652c.02 6.233.021 12.564-1.628 18.571-1.65 6.008-5.214 11.778-10.73 14.684-2.444 1.286-5.232 2.012-7.293 3.848-4.26 3.789-1.217 11.073 4.162 11.593 2.356.226 4.683-.56 6.833-1.542 8.647-3.936 15.675-11.327 19.169-20.16 3.416-8.647 3.485-18.198 3.504-27.493.04-15.067.069-30.125.098-45.193.01-4.829.01-9.726-.472-14.526-.382-3.759-1.058-7.46-2.266-11.043-3.258-9.688-10.542-18.09-19.955-22.066-2.039-.853-4.238-1.515-6.428-1.535z"/></svg>