<svg width="192" height="192" fill="none" xmlns="http://www.w3.org/2000/svg"><path d="M25 94c0-15.464 12.536-28 28-28h86c15.464 0 28 12.536 28 28v48c0 15.464-12.536 28-28 28H53c-15.464 0-28-12.536-28-28V94Z" stroke="#000" stroke-width="12" stroke-linecap="round" stroke-linejoin="round"/><path d="M167 100V62c0-13.404-9.419-24.609-22-27.356M25 100V62c0-13.404 9.42-24.609 22-27.356M145 66V38c0-8.837-7.163-16-16-16H63c-8.837 0-16 7.163-16 16v28m38 22h38m44 22h-16a6 6 0 0 0-6 6v4a6 6 0 0 1-6 6h-10a6 6 0 0 1-6-6v-4a6 6 0 0 0-6-6H91a6 6 0 0 0-6 6v4a6 6 0 0 1-6 6H69a6 6 0 0 0-6 6v10a6 6 0 0 0 6 6h20a6 6 0 0 1 6 6v16" stroke="#000" stroke-width="12" stroke-linecap="round" stroke-linejoin="round"/></svg>