<svg xmlns="http://www.w3.org/2000/svg" width="192" height="192" viewBox="0 0 192 192"><path d="M145.91 81.764H23.84c-.83 4.56-1.386 9.403-1.386 14.236s.42 9.676 1.386 14.245h122.07A48.8 48.8 0 0 0 147.98 96a44.5 44.5 0 0 0-2.07-14.236m-46.311 62.764a48.6 48.6 0 0 1-36.216-16.17H29.648a77 77 0 0 0 69.95 44.643 77.09 77.09 0 0 0 69.95-44.651h-33.735a48.6 48.6 0 0 1-36.216 16.17zm0-97.046c14.373 0 27.232 6.22 36.216 16.17h33.735A77.09 77.09 0 0 0 99.6 19.001a77 77 0 0 0-69.95 44.66h33.735a48.34 48.34 0 0 1 36.216-16.179"/></svg>