<svg xmlns="http://www.w3.org/2000/svg" width="192" height="192" viewBox="0 0 192 192"><path d="M95.998 16c-9.872 0-17.872 3.856-21.816 6.208l-.08.048c-9.232 5.672-16.688 14.032-22.568 22.496-5.84 8.416-9.744 16.416-11.72 21.584l-.016.056-.016.048c-6.72 18.488-6.304 37.92-5.2 46.56l.008.136.024.136c2.832 16.896 6.968 25.68 13.424 36.096l.08.136.096.136C64.542 173.472 87.286 176 95.998 176s31.456-2.528 47.784-26.36l.088-.128.08-.144c6.456-10.416 10.6-19.2 13.432-36.096l.024-.136.016-.136c1.096-8.64 1.52-28.072-5.2-46.56l-.024-.048-.016-.056c-1.976-5.168-5.872-13.168-11.72-21.584-5.88-8.464-13.336-16.824-22.568-22.496l-.08-.048C113.87 19.856 105.87 16 95.998 16"/></svg>