<svg xmlns="http://www.w3.org/2000/svg" width="192" height="192" viewBox="0 0 192 192"><path d="M96 16a80 80 0 1 0 0 160 80 80 0 0 0 0-160m-8.747 31.422a39.67 39.67 0 0 1 39.715 39.618 5.867 5.867 0 0 1-11.715 0 27.973 27.973 0 0 0-28-27.929 5.85 5.85 0 1 1 0-11.689m-.088 17.885a5.85 5.85 0 1 1 0 11.698 27.955 27.955 0 0 0-27.991 27.938 5.867 5.867 0 0 1-5.867 5.83 5.83 5.83 0 0 1-5.85-5.83c0-21.885 17.778-39.645 39.707-39.645zm51.555 15.902a5.85 5.85 0 0 1 5.857 5.85c0 21.884-17.778 39.617-39.707 39.617a5.85 5.85 0 1 1 0-11.68c15.467 0 28-12.507 28-27.938a5.856 5.856 0 0 1 5.858-5.849zM71.005 99.076a5.867 5.867 0 0 1 5.866 5.85 27.955 27.955 0 0 0 27.982 27.937 5.867 5.867 0 0 1 5.867 5.85 5.867 5.867 0 0 1-5.867 5.848 39.67 39.67 0 0 1-39.707-39.636 5.85 5.85 0 0 1 5.85-5.848z"/></svg>