<svg xmlns="http://www.w3.org/2000/svg" width="192" height="192" viewBox="0 0 192 192"><path d="M96 19a77 77 0 1 0 0 154 77 77 0 0 0 0-154m-8.419 30.244a38.183 38.183 0 0 1 38.226 38.132 5.647 5.647 0 0 1-11.276 0 26.924 26.924 0 0 0-26.95-26.882 5.63 5.63 0 1 1 0-11.251m-.085 17.214a5.63 5.63 0 1 1 0 11.259 26.907 26.907 0 0 0-26.941 26.89 5.647 5.647 0 0 1-5.647 5.612 5.61 5.61 0 0 1-5.63-5.612c0-21.064 17.111-38.158 38.218-38.158zm49.622 15.306a5.63 5.63 0 0 1 5.638 5.63c0 21.064-17.111 38.132-38.218 38.132a5.63 5.63 0 1 1 0-11.242c14.887 0 26.95-12.038 26.95-26.89a5.636 5.636 0 0 1 5.638-5.63zM71.942 98.96a5.647 5.647 0 0 1 5.646 5.63 26.907 26.907 0 0 0 26.933 26.89 5.647 5.647 0 0 1 5.647 5.63 5.647 5.647 0 0 1-5.647 5.629 38.183 38.183 0 0 1-38.218-38.15 5.63 5.63 0 0 1 5.63-5.629z"/></svg>