<svg xmlns="http://www.w3.org/2000/svg" width="192" height="192" viewBox="0 0 192 192"><path d="M83.014 34.978a45.067 45.067 0 0 1 45.093 44.978 9.511 9.511 0 0 0 19.022 0A64.115 64.115 0 0 0 83.013 16a9.489 9.489 0 1 0 0 18.978m-2.907 28.871a9.489 9.489 0 1 0 0-18.978A64.115 64.115 0 0 0 16 108.836a9.51 9.51 0 0 0 19.013 0 45.067 45.067 0 0 1 45.093-44.987m28.871 93.174a45.067 45.067 0 0 1-45.093-44.978 9.511 9.511 0 0 0-19.022 0 64.115 64.115 0 0 0 64.116 63.956 9.489 9.489 0 1 0 0-18.978m57.511-83.343a9.51 9.51 0 0 0-9.51 9.475 45.067 45.067 0 0 1-45.094 44.996 9.489 9.489 0 1 0 0 18.978A64.115 64.115 0 0 0 176 83.156a9.51 9.51 0 0 0-9.51-9.475"/></svg>