<svg xmlns="http://www.w3.org/2000/svg" width="192" height="192" viewBox="0 0 192 192"><path d="M83.5 37.266a43.377 43.377 0 0 1 43.402 43.291 9.154 9.154 0 0 0 18.309 0A61.71 61.71 0 0 0 83.5 19a9.133 9.133 0 1 0 0 18.266m-2.798 27.788a9.133 9.133 0 1 0 0-18.266A61.71 61.71 0 0 0 19 108.354a9.154 9.154 0 0 0 18.3 0 43.377 43.377 0 0 1 43.402-43.3m27.788 89.679a43.377 43.377 0 0 1-43.402-43.291 9.154 9.154 0 0 0-18.309 0 61.71 61.71 0 0 0 61.711 61.557 9.133 9.133 0 1 0 0-18.266m55.354-80.217a9.154 9.154 0 0 0-9.154 9.12 43.377 43.377 0 0 1-43.402 43.308 9.133 9.133 0 1 0 0 18.266 61.71 61.71 0 0 0 61.71-61.574 9.154 9.154 0 0 0-9.154-9.12"/></svg>