<svg width="191" height="192" fill="none" xmlns="http://www.w3.org/2000/svg"><ellipse cx="95.5" cy="96" rx="73.615" ry="74" stroke="#000" stroke-width="12" stroke-linecap="round" stroke-linejoin="round"/><path d="M131.312 96c0-7.12-2.1-14.08-6.035-20a35.852 35.852 0 0 0-16.072-13.26 35.64 35.64 0 0 0-20.692-2.048 35.756 35.756 0 0 0-18.336 9.852 36.06 36.06 0 0 0-9.801 18.433 36.177 36.177 0 0 0 2.038 20.8c2.71 6.578 7.3 12.2 13.19 16.156A35.678 35.678 0 0 0 95.5 132m0-36h35.812M95.5 132h15.917" stroke="#000" stroke-width="12" stroke-linecap="round" stroke-linejoin="round"/></svg>