<svg xmlns="http://www.w3.org/2000/svg" width="192" height="192" viewBox="0 0 192 192"><path d="M153.65 45.922c-6.249-.233-13.02 2.377-17.451 6.885l-2.617 2.656-4.903-1.576c-15.104-4.856-33.027-5.911-50.467-2.96-3.217.478-3.267.482-6.718 1.679 2.285 4.634.685 10.862-4.633 13.28-1.232.56-2.84 1.026-3.569 1.026-1.04.008-1.191.16-.68.664 1.009 1.016.833 1.335-1.92 3.44-2.351 1.792-2.615 1.88-3.24 1.023-.64-.872-.702-.865-1.046.103-1.736 4.897-8.081 7.985-12.641 6.16h.007c-3.696-1.48-6.56-5.278-6.591-8.718-.008-1.32-.233-1.457-2.721-1.697-5.648-.536-10.224-6.112-9.68-11.783.24-2.493 1.332-4.843 2.907-6.688-.018.01-.038.013-.055.024-.207.12-2.612 1.335-4.276 2.855-7.648 6.992-9.568 18.624-4.664 28.24 2.928 5.744 10.191 10.834 17.055 11.938 1.76.288 3.28.607 3.4.719s-.375 1.528-1.08 3.144c-2 4.552-2.776 8.48-2.744 13.816.056 8.88 2.577 14.28 9.458 20.24 9.336 8.088 22.615 13.224 39.68 15.328v.008c6.04.736 26.52.282 32.36-.718 15.825-2.737 28.923-9.474 34.683-17.842 5.968-8.657 6.88-20.785 2.336-31.05l-1.336-3.03 1.447-.264c.8-.152 2.4-.426 3.56-.618 3.72-.616 7.888-2.854 11.248-6.054 13.928-13.296 6.656-36.593-12.473-39.953a19 19 0 0 0-2.636-.278zm-27.875 37.862c6.432 0 11.44 6.345 9.832 12.441-.84 3.2-2.417 5.296-4.96 6.6v-.008c-2.753 1.408-7.176 1.392-9.856-.024-2.449-1.288-4.016-3.424-4.848-6.568-1.608-6.096 3.4-12.441 9.832-12.441m-59.641.064c4.836.128 9.082 3.682 9.52 8.92.136 1.608.086 3.545-.106 4.297-.44 1.744-3.295 5.015-5.271 6.04-2.008 1.04-6.864 1-8.92-.063-7.44-3.872-7.521-14.53-.137-18.113a10.6 10.6 0 0 1 4.914-1.08zm31.951 6.458c1.912 0 2.6.335 4.377 2.11 1.808 1.809 2.111 2.45 2.111 4.49 0 2.703-1.528 5.623-3.224 6.16-1.296.415-1.48 2.718-.535 6.783 1.376 5.992 3.84 8.056 8.808 7.392 4.848-.64 6.912-2.32 6.912-5.633 0-1.92 1.168-3.038 2.664-2.558 1.36.424 1.88 1.976 1.4 4.24-1.023 4.832-4.688 7.487-10.88 7.887-4.96.32-7.344-.471-9.68-3.2l-1.842-2.144-1.398 1.84c-.768 1.008-2.25 2.24-3.281 2.728h-.008c-3.632 1.728-10.984.865-14.4-1.68-1.848-1.383-3.344-4.375-3.344-6.687 0-4.264 3.704-4.425 4.168-.185.312 2.824 1.928 4.376 5.352 5.144 6.864 1.536 9.736-1.167 10.824-10.184.312-2.64.264-2.809-1.016-3.129-2.024-.512-4.175-3.655-4.207-6.175-.056-4.376 2.767-7.2 7.2-7.2z"/><path d="M43.776 78.304c-3.696-1.48-6.56-5.28-6.592-8.72-.008-1.32-.232-1.456-2.72-1.696-5.648-.536-10.224-6.112-9.68-11.784.52-5.384 4.976-10.136 9.808-10.464 2.288-.152 2.656-.704.816-1.2-2.16-.576-4.48-.368-5.752.52-1.504 1.056-2.809.648-2.809-.88 0-.832.688-1.44 2.569-2.272 2.16-.96 2.976-1.056 5.088-.624q4.832 1 4.856-2.72c.016-2.377 1.8-6.065 3.448-7.145 2.624-1.72 3.416.4 1.16 3.088-1.024 1.216-1.36 2.24-1.36 4.129v2.512l1.44-2.88a11.168 11.168 0 0 1 17.512-3.52c2.824 2.416 4.128 5.776 3.736 9.616L65 47.144l2.424 1.28c7.04 3.744 6.704 14.16-.56 17.464-1.232.56-2.84 1.024-3.568 1.024-1.04.008-1.192.16-.68.664 1.008 1.016.832 1.336-1.92 3.44-2.352 1.792-2.616 1.88-3.24 1.024-.64-.872-.704-.864-1.048.104-1.736 4.896-8.08 7.984-12.64 6.16z" opacity=".75"/></svg>