<svg xmlns="http://www.w3.org/2000/svg" width="192" height="192" viewBox="0 0 192 192"><defs><linearGradient id="a" x1="12.05" x2="19.184" y1="18.434" y2="18.434" gradientTransform="translate(-6.657 -6.725)scale(8.5551)" gradientUnits="userSpaceOnUse"><stop offset="0"/><stop offset=".27" stop-opacity=".788"/><stop offset=".774" stop-opacity="0"/></linearGradient></defs><path d="M92.026 82.727h80.358v22.996H92.026zm5.013 90.145-.24-22.996h-.495c-14.92 0-28.377-5.989-38.156-15.776l-16.024 16.263a76.57 76.57 0 0 0 54.308 22.5zM42.62 150.86l16.024-16.392a53.9 53.9 0 0 1-16.143-38.412H19.608a76.48 76.48 0 0 0 22.996 54.804zm-.496-109.35a77.17 77.17 0 0 0-22.508 54.547v.616l22.996-.248v-.488c0-14.92 5.989-28.377 15.776-38.156zm54.308.488V19.19l-.085-.19a77.34 77.34 0 0 0-54.71 23.116L58.02 58.141a53.9 53.9 0 0 1 38.412-16.143m.12-22.876h-.736l.248 22.996h.487c14.92 0 28.377 5.989 38.156 15.776l16.272-16.263a76.65 76.65 0 0 0-54.427-22.5zm53.81 22.021-16.007 16.383a53.9 53.9 0 0 1 14.552 25.203h23.475l.01-.008a76.65 76.65 0 0 0-22.014-41.578z"/><path fill="url(#a)" d="m96.432 172.97.034.034a76.74 76.74 0 0 0 60.998-30.088l-18.222-13.945a54.15 54.15 0 0 1-42.81 21.045z"/></svg>