<svg width="192" height="192" fill="none" xmlns="http://www.w3.org/2000/svg"><path d="M96 46v54M51 73h90M57.026 95.5l77.943-45m0 45-77.942-45" stroke="#000" stroke-width="8" stroke-linecap="round" stroke-linejoin="round"/><path d="M49 96V50a6 6 0 0 1 6-6h82a6 6 0 0 1 6 6v46a6 6 0 0 1-6 6H55a6 6 0 0 1-6-6Zm-10 74h126" stroke="#000" stroke-width="12" stroke-linecap="round" stroke-linejoin="round"/><path d="M27 158V28a6 6 0 0 1 6-6h126a6 6 0 0 1 6 6v112a6 6 0 0 1-6 6H39" stroke="#000" stroke-width="12" stroke-linecap="round" stroke-linejoin="round"/><path d="M39 146a12 12 0 1 0 0 24" stroke="#000" stroke-width="12" stroke-linecap="round" stroke-linejoin="round"/></svg>