<svg xmlns="http://www.w3.org/2000/svg" width="192" height="192" viewBox="0 0 192 192"><path d="M39.577 16c-9.152 0-12.512 3.376-12.512 12.536v110.4a32 32 0 0 0 .128 2.888c.208 2 .248 3.936 2.112 6.136.176.224 2.072 1.632 2.072 1.632 1.016.504 1.72.872 2.864 1.336L89.808 174.2c2.88 1.328 4.088 1.84 6.184 1.8h.016c2.088.04 3.296-.48 6.184-1.8l55.567-23.28c1.144-.464 1.84-.824 2.864-1.336 0 0 1.896-1.4 2.08-1.616 1.864-2.2 1.896-4.144 2.104-6.136a32 32 0 0 0 .128-2.888V28.534c0-9.16-3.368-12.536-12.52-12.536zm89.103 20.736h4.528c7.592 0 11.256 3.688 11.256 11.312v12.528h-9.16v-12c0-2.456-1.136-3.6-3.488-3.6h-1.568c-2.448 0-3.576 1.136-3.576 3.6v38.727c0 2.464 1.128 3.6 3.576 3.6H132c2.352 0 3.48-1.136 3.48-3.6v-13.84h9.16v14.288c0 7.624-3.752 11.4-11.336 11.4h-4.624c-7.592 0-11.336-3.776-11.336-11.4V48.136c0-7.624 3.744-11.392 11.336-11.392zm-81.239.544h20.76v8.496H56.769V63.12h10.992v8.496H56.769v18.496h11.6v8.496H47.441zm25.44 0h14.648c7.592 0 11.336 3.76 11.336 11.384V64.96c0 7.624-3.744 11.4-11.336 11.4h-5.328v22.248h-9.32zm30.2 0h9.328v61.335h-9.328zm-20.872 8.24v22.608h3.84c2.352 0 3.48-1.144 3.48-3.6V49.104c0-2.448-1.128-3.6-3.488-3.6zm-24.928 67.623a11.2 11.2 0 0 1 3.936.72 12 12 0 0 1 3.272 2l-3.016 3.632a8 8 0 0 0-2.056-1.296 6.4 6.4 0 0 0-2.416-.456 4.4 4.4 0 0 0-1.872.4 4.8 4.8 0 0 0-1.488 1.088 5.6 5.6 0 0 0-1.008 1.616 5.6 5.6 0 0 0-.376 2v.048a5.6 5.6 0 0 0 .376 2.064 4.8 4.8 0 0 0 1.04 1.64 4.8 4.8 0 0 0 1.592 1.064 5.6 5.6 0 0 0 2.024.384 5.3 5.3 0 0 0 2.96-.768v-2.264H56.6v-3.76h8.52v8.36a13.6 13.6 0 0 1-3.496 2.048 12 12 0 0 1-4.56.816 11.2 11.2 0 0 1-4.008-.712 9.6 9.6 0 0 1-3.184-2 8.8 8.8 0 0 1-2.12-3.032 9.6 9.6 0 0 1-.768-3.864v-.056a9.6 9.6 0 0 1 .752-3.8 9.6 9.6 0 0 1 2.08-3.064 9.6 9.6 0 0 1 3.16-2.064 10.4 10.4 0 0 1 3.984-.736h.304zm79.751.056a13.6 13.6 0 0 1 4.08.624 10.4 10.4 0 0 1 3.376 1.84l-2.568 3.648a10.4 10.4 0 0 0-2.6-1.368 8 8 0 0 0-2.592-.464 2.4 2.4 0 0 0-1.384.344 1.04 1.04 0 0 0-.464.848v.056a1.04 1.04 0 0 0 .144.56 1.6 1.6 0 0 0 .504.44 8 8 0 0 0 .984.4q.608.192 1.568.4a24 24 0 0 1 2.872.816 8 8 0 0 1 2.184 1.136 4.8 4.8 0 0 1 1.384 1.6 4.8 4.8 0 0 1 .472 2.24v.056a5.6 5.6 0 0 1-.544 2.552 5.6 5.6 0 0 1-1.52 1.896 7.2 7.2 0 0 1-2.36 1.2 10.4 10.4 0 0 1-3.064.4 14.4 14.4 0 0 1-4.736-.768 11.2 11.2 0 0 1-3.952-2.304l2.864-3.424q2.776 2.224 6 2.232a3.2 3.2 0 0 0 1.576-.336 1.04 1.04 0 0 0 .544-.944v-.056a1.04 1.04 0 0 0-.128-.512 1.6 1.6 0 0 0-.488-.44 4.8 4.8 0 0 0-.96-.416 16 16 0 0 0-1.544-.416 32 32 0 0 1-2.76-.752 8 8 0 0 1-2.2-1.064 4.8 4.8 0 0 1-1.48-1.624 4.8 4.8 0 0 1-.552-2.4v-.048a5.6 5.6 0 0 1 .496-2.4 5.6 5.6 0 0 1 1.424-1.88 6.4 6.4 0 0 1 2.272-1.232 9.6 9.6 0 0 1 2.984-.44zm-62.391.16h4.952l7.888 18.736h-5.504l-1.352-3.328H73.48l-1.32 3.32h-5.4zm14.648.136h5.432l4.416 7.2 4.424-7.2h5.424v18.6h-5.104v-10.68l-4.744 7.28h-.104l-4.72-7.224v10.616h-5.024zm23.128 0h14.904v4.384h-9.824v2.816h8.904v4.064h-8.896v2.952h9.952v4.384h-15.032zm-35.328 5.984-2.104 5.28h4.16zm-7.648 34.6h53.431L95.6 163.063z"/></svg>