<svg xmlns="http://www.w3.org/2000/svg" width="192" height="192" viewBox="0 0 192 192"><path d="M139.47 31.285c6.062 3.495 8.859 10.669 6.67 17.098l-.974 2.865c-3.84 11.231 3.45 23.47 15.402 25.877l3.037.619c6.841 1.375 11.86 7.311 11.94 14.153l.15 10.326c.091 6.842-4.768 12.652-11.563 13.844l-3.026.527c-11.896 2.097-18.852 14.142-14.715 25.487l1.054 2.888c2.361 6.486-.24 13.592-6.211 16.938l-9.008 5.042c-5.97 3.335-13.626 1.96-18.233-3.266l-2.051-2.326c-8.057-9.157-22.301-9.34-30.117-.401l-1.994 2.269c-4.47 5.111-12.08 6.28-18.141 2.785l-9.157-5.283c-6.062-3.507-8.858-10.681-6.67-17.11l.975-2.865c3.827-11.231-3.45-23.47-15.402-25.877l-3.037-.62c-6.842-1.374-11.85-7.31-11.941-14.152l-.15-10.326c-.091-6.842 4.768-12.652 11.564-13.844l3.025-.527c11.896-2.098 18.852-14.142 14.715-25.487l-1.054-2.888c-2.36-6.487.24-13.592 6.211-16.938l9.008-5.043c5.97-3.335 13.626-1.96 18.233 3.266l2.051 2.327c8.068 9.156 22.301 9.34 30.117.4l1.994-2.268c4.47-5.111 12.08-6.28 18.141-2.785zm4.137 76.038c6.257-26.301-9.982-52.682-36.27-58.939-26.29-6.257-52.672 9.982-58.929 36.283-6.257 26.289 9.982 52.671 36.271 58.928s52.671-9.982 58.928-36.271z" opacity=".1"/><path d="M132.47 27.09c6.395 2.842 9.924 9.695 8.423 16.319l-.676 2.945c-2.636 11.575 5.89 22.978 18.027 24.124l3.094.298c6.945.653 12.55 6.04 13.351 12.824l1.215 10.257c.814 6.796-3.404 13.076-10.05 14.978l-2.958.848c-11.609 3.324-17.259 16.033-11.964 26.874l1.353 2.762c3.025 6.212 1.18 13.546-4.401 17.488l-8.446 5.96c-5.581 3.953-13.34 3.38-18.462-1.341l-2.292-2.098c-8.973-8.25-23.15-6.956-29.991 2.75l-1.742 2.465c-3.908 5.558-11.368 7.518-17.752 4.664l-9.66-4.297c-6.396-2.843-9.925-9.696-8.424-16.32l.676-2.945c2.636-11.575-5.89-22.989-18.027-24.124l-3.083-.298c-6.956-.653-12.56-6.04-13.362-12.824l-1.215-10.257c-.813-6.795 3.404-13.076 10.051-14.978l2.957-.848c11.61-3.323 17.26-16.033 11.964-26.874l-1.352-2.762c-3.026-6.211-1.18-13.546 4.4-17.488l8.447-5.959c5.58-3.954 13.34-3.38 18.474 1.34l2.28 2.098c8.974 8.251 23.15 6.956 29.991-2.75l1.742-2.464c3.908-5.558 11.368-7.518 17.752-4.664zm12.067 75.19c3.472-26.805-15.437-51.341-42.242-54.814-26.794-3.484-51.341 15.437-54.814 42.231-3.472 26.805 15.437 51.341 42.231 54.814 26.805 3.484 51.353-15.437 54.825-42.23z" opacity=".2"/><path d="M125.06 23.652c6.658 2.166 10.887 8.607 10.073 15.357L134.778 42c-1.41 11.792 8.262 22.244 20.445 22.118l3.105-.034c6.98-.08 13.122 4.687 14.623 11.357l2.292 10.073c1.513 6.67-2.028 13.362-8.434 15.952l-2.854 1.146c-11.197 4.515-15.494 17.752-9.088 27.986l1.628 2.601c3.667 5.856 2.59 13.351-2.545 17.855l-7.77 6.807c-5.145 4.504-12.916 4.756-18.52.596l-2.486-1.845c-9.787-7.277-23.757-4.504-29.544 5.868l-1.467 2.636c-3.312 5.936-10.52 8.652-17.18 6.498l-10.05-3.267c-6.659-2.166-10.887-8.606-10.073-15.345l.355-3.002c1.41-11.792-8.263-22.244-20.456-22.118l-3.094.034c-6.98.08-13.11-4.698-14.623-11.368l-2.292-10.073c-1.513-6.658 2.028-13.35 8.434-15.94l2.854-1.147c11.197-4.515 15.494-17.752 9.088-27.986l-1.627-2.601c-3.668-5.856-2.59-13.351 2.555-17.855l7.759-6.807c5.145-4.504 12.916-4.756 18.52-.596l2.487 1.845c9.786 7.277 23.757 4.504 29.544-5.868l1.466-2.636c3.312-5.936 10.52-8.652 17.18-6.497zm19.86 73.517c.653-27.011-20.72-49.45-47.731-50.104-27.023-.653-49.45 20.72-50.104 47.743-.653 27.011 20.72 49.45 47.731 50.104s49.45-20.72 50.104-47.743" opacity=".3"/><path d="M117.34 21.017c6.853 1.455 11.724 7.415 11.632 14.211l-.046 3.014c-.172 11.873 10.543 21.259 22.645 19.86l3.083-.355c6.933-.814 13.534 3.289 15.735 9.764l3.323 9.787c2.2 6.475-.618 13.5-6.715 16.732l-2.716 1.444c-10.67 5.66-13.557 19.276-6.12 28.776l1.891 2.418c4.263 5.443 3.977 13.007-.665 18.027l-7.013 7.586c-4.642 5.02-12.343 6.074-18.348 2.533l-2.67-1.581c-10.497-6.212-24.101-1.995-28.765 8.927l-1.192 2.773c-2.67 6.246-9.558 9.707-16.4 8.252l-10.336-2.2c-6.853-1.456-11.724-7.415-11.632-14.212l.046-3.014c.171-11.873-10.543-21.258-22.645-19.86l-3.083.356c-6.934.813-13.534-3.29-15.735-9.764l-3.324-9.787c-2.2-6.475.62-13.5 6.716-16.732l2.716-1.444c10.669-5.662 13.557-19.264 6.12-28.776l-1.891-2.418c-4.263-5.444-3.977-13.007.664-18.027l7.014-7.587c4.641-5.02 12.343-6.085 18.348-2.533l2.67 1.582c10.497 6.211 24.09 1.994 28.765-8.928l1.192-2.773c2.67-6.246 9.558-9.707 16.4-8.251zm27.436 71.03c-2.177-26.931-25.774-47.009-52.705-44.832C65.128 49.392 45.05 72.989 47.228 99.92c2.177 26.943 25.774 47.021 52.717 44.843 26.931-2.177 47.009-25.774 44.832-52.717z" opacity=".4"/><path d="M109.39 19.194c6.956.733 12.434 6.154 13.053 12.916l.275 3.014c1.066 11.815 12.698 20.032 24.593 17.374l3.026-.676c6.807-1.524 13.809 1.868 16.674 8.068l4.32 9.386c2.877 6.211.802 13.489-4.928 17.35l-2.544 1.72c-10.016 6.738-11.472 20.57-3.083 29.258l2.132 2.211c4.802 4.963 5.317 12.514 1.226 17.992l-6.188 8.275c-4.092 5.477-11.632 7.334-17.981 4.435l-2.82-1.295c-11.082-5.077-24.169.538-27.676 11.884l-.893 2.888c-2.006 6.486-8.48 10.646-15.448 9.913l-10.51-1.1c-6.956-.734-12.433-6.155-13.052-12.917l-.275-3.014c-1.066-11.815-12.698-20.032-24.593-17.374l-3.026.677c-6.807 1.524-13.809-1.868-16.674-8.08l-4.32-9.374c-2.865-6.212-.803-13.49 4.927-17.351l2.544-1.72c10.016-6.738 11.472-20.57 3.083-29.257l-2.143-2.212c-4.79-4.962-5.306-12.514-1.215-17.992l6.189-8.274c4.091-5.478 11.632-7.335 17.98-4.435l2.82 1.295c11.082 5.076 24.17-.539 27.676-11.884l.894-2.888c2.006-6.487 8.48-10.646 15.448-9.913zm34.713 67.775c-4.985-26.553-30.553-44.053-57.106-39.079-26.565 4.985-44.064 30.553-39.09 57.117 4.985 26.553 30.553 44.053 57.106 39.079 26.565-4.985 44.064-30.553 39.09-57.117" opacity=".5"/><path d="M101.28 18.22c7.002 0 13.007 4.813 14.325 11.483l.584 2.957c2.304 11.643 14.726 18.6 26.29 14.715l2.933-.997c6.613-2.224 13.924.412 17.42 6.291l5.294 8.87c3.495 5.88 2.2 13.34-3.094 17.775l-2.361 1.971c-9.248 7.759-9.248 21.671 0 29.43l2.36 1.972c5.295 4.435 6.59 11.896 3.095 17.775l-5.295 8.87c-3.495 5.879-10.807 8.515-17.419 6.291l-2.934-.997c-11.563-3.885-23.986 3.06-26.289 14.715l-.584 2.957c-1.318 6.67-7.323 11.483-14.325 11.483H90.714c-7.002 0-13.007-4.813-14.325-11.483l-.584-2.957c-2.304-11.655-14.738-18.6-26.29-14.715l-2.933.986c-6.613 2.235-13.924-.401-17.42-6.28l-5.294-8.87c-3.495-5.88-2.2-13.34 3.094-17.775l2.361-1.971c9.248-7.759 9.248-21.671 0-29.43l-2.36-1.972c-5.295-4.435-6.59-11.896-3.095-17.775l5.295-8.87c3.495-5.879 10.807-8.515 17.419-6.291l2.934.997c11.552 3.885 23.986-3.072 26.289-14.715l.584-2.968c1.318-6.659 7.323-11.472 14.325-11.472zm5.398 35.045a43.94 43.94 0 0 0-20.284-.264 44.044 44.044 0 0 0-34.438 43.675 44.1 44.1 0 0 0 10.314 27.642 44.06 44.06 0 0 0 25.453 14.933 44.066 44.066 0 0 0 48.958-26.381 44.1 44.1 0 0 0 3.243-20.032c-.378-5.295-5.844-8.217-10.933-6.693-5.088 1.513-7.781 6.98-8.297 12.262a25.2 25.2 0 0 1-1.776 7.094 24.77 24.77 0 0 1-11.151 12.331 24.87 24.87 0 0 1-16.434 2.533 25 25 0 0 1-5.673-1.81c-2.326-1.067-1.845-4.184.585-5.009l5.271-1.788c.287-.046.573-.126.848-.218l3.702-1.214 3.69-1.272a6.67 6.67 0 0 0 4.344-4.928l.802-3.816.745-3.828a6.68 6.68 0 0 0-2.098-6.234l-2.899-2.602-2.945-2.555a6.67 6.67 0 0 0-6.452-1.295L88.01 84.86c-.573.104-1.146.264-1.72.447l-8.881 3.014c-2.407.814-4.676-1.34-3.518-3.61a24.6 24.6 0 0 1 2.624-4.09 24.76 24.76 0 0 1 14.073-8.848c2.407-.539 4.86-.71 7.289-.527 5.294.4 11.139-1.307 13.51-6.063 2.373-4.744.448-10.635-4.71-11.919z"/></svg>