<svg xmlns="http://www.w3.org/2000/svg" width="192" height="192" viewBox="0 0 192 192"><path d="M88 142.8 67.4 163q-2.2 2.2-5.5 2.2t-5.5-2.4q-2.4-2.2-2.4-5.5t2.4-5.7L88 120v-16H72l-31.8 31.8Q38 138 34.7 138t-5.7-2.4q-2.2-2.2-2.2-5.5t2.2-5.5L49.2 104H23.8q-3.4 0-5.6-2.3T16 96t2.3-5.7T24 88h25.2L29 67.6q-2.2-2.2-2.2-5.5t2.4-5.7q2.2-2.2 5.5-2.2t5.7 2.2L72 88h16V72L56.2 40.4Q54 38.2 54 34.9t2.4-5.7q2.2-2.2 5.5-2.2t5.5 2.2l20.6 20V24q0-3.4 2.3-5.7T96 16t5.7 2.3T104 24v25.2l20.4-20q2.2-2.2 5.5-2.2t5.7 2.2q2.2 2.4 2.2 5.7t-2.2 5.5L104 72v16h16l31.6-31.6q2.2-2.2 5.5-2.2t5.7 2.4q2.2 2.2 2.2 5.5t-2.2 5.5l-20 20.4H168q3.4 0 5.7 2.3T176 96t-2.3 5.7-5.7 2.3h-25.2l20 20.6q2.2 2.2 2.2 5.5t-2.2 5.5q-2.4 2.4-5.7 2.4t-5.5-2.4L120 104h-16v16l31.6 31.8q2.2 2.2 2.2 5.5t-2.4 5.7q-2.2 2.2-5.5 2.2t-5.5-2.2L104 142.8v25.4q0 3.4-2.3 5.6T96 176t-5.7-2.3T88 168z"/></svg>