<svg width="192" height="192" fill="none" xmlns="http://www.w3.org/2000/svg"><path d="M113 32a41 41 0 0 1 41 41" stroke="#000" stroke-width="12" stroke-linecap="round" stroke-linejoin="round"/><path d="M119 89c0-1.06.737-2.078 2.05-2.828 1.313-.75 3.093-1.172 4.95-1.172 1.857 0 3.637.421 4.95 1.172 1.313.75 2.05 1.767 2.05 2.828h-14Z" stroke="#000" stroke-width="10" stroke-linecap="round" stroke-linejoin="round"/><path d="M75 117a41 41 0 0 1-41-41m120-3v60M113 32h-3.924a6 6 0 0 1-4.35-1.867l-2.236-2.354a18.567 18.567 0 0 0-26.99.071L36.74 69.085A10.096 10.096 0 0 0 34 76" stroke="#000" stroke-width="12" stroke-linecap="round" stroke-linejoin="round"/><path d="M40 68h33c8.837 0 16-7.163 16-16v-4m-14 69h42m37 16a37.001 37.001 0 0 1-68.84 18.847l22.279-8.289a14.991 14.991 0 0 0 12.487 3.154 15.01 15.01 0 0 0 7.681-4.105 15.01 15.01 0 0 0 4.105-7.681A15 15 0 0 0 117 117" stroke="#000" stroke-width="12" stroke-linecap="round" stroke-linejoin="round"/></svg>