<svg width="192" height="192" fill="none" xmlns="http://www.w3.org/2000/svg"><circle cx="52" cy="56" r="30" stroke="#000" stroke-width="12" stroke-linecap="round" stroke-linejoin="round"/><path d="M109.126 38.144A14.819 14.819 0 0 0 108 43.812c0 17.172 21.104 32.16 30.972 39.168L139 83l.028-.02C148.896 75.972 170 60.984 170 43.812a14.819 14.819 0 0 0-9.129-13.684 14.765 14.765 0 0 0-16.115 3.21C143.383 34.714 139 40 139 40s-4.383-5.286-5.756-6.662A14.778 14.778 0 0 0 122.788 29a14.765 14.765 0 0 0-10.457 4.338 14.813 14.813 0 0 0-3.205 4.806ZM22 125c0-5.523 4.477-10 10-10h128c5.523 0 10 4.477 10 10v30c0 5.523-4.477 10-10 10H32c-5.523 0-10-4.477-10-10v-30Z" stroke="#000" stroke-width="12" stroke-linecap="round" stroke-linejoin="round"/></svg>