<svg width="192" height="192" fill="none" xmlns="http://www.w3.org/2000/svg"><circle cx="140" cy="55" r="30" stroke="#000" stroke-width="12" stroke-linecap="round" stroke-linejoin="round"/><path d="M82 55a30 30 0 1 0-60 0m0 82a30 30 0 0 0 60 0M22 55v82m60-82v82m54.392-28.831a6.151 6.151 0 0 1 7.216 0l3.083 2.236a6.144 6.144 0 0 0 3.62 1.169l3.816-.007a6.118 6.118 0 0 1 5.838 4.217l1.173 3.61a6.082 6.082 0 0 0 2.237 3.061l3.091 2.224a6.067 6.067 0 0 1 2.23 6.823l-1.186 3.606a6.059 6.059 0 0 0 0 3.784l1.186 3.606a6.067 6.067 0 0 1-2.23 6.823l-3.091 2.224a6.082 6.082 0 0 0-2.237 3.061l-1.173 3.61a6.118 6.118 0 0 1-5.838 4.217l-3.816-.007a6.144 6.144 0 0 0-3.62 1.169l-3.083 2.236a6.151 6.151 0 0 1-7.216 0l-3.083-2.236a6.144 6.144 0 0 0-3.62-1.169l-3.816.007a6.118 6.118 0 0 1-5.838-4.217l-1.173-3.61a6.082 6.082 0 0 0-2.237-3.061l-3.091-2.224a6.067 6.067 0 0 1-2.23-6.823l1.186-3.606a6.059 6.059 0 0 0 0-3.784l-1.186-3.606a6.067 6.067 0 0 1 2.23-6.823l3.091-2.224a6.082 6.082 0 0 0 2.237-3.061l1.173-3.61a6.118 6.118 0 0 1 5.838-4.217l3.816.007a6.144 6.144 0 0 0 3.62-1.169l3.083-2.236Z" stroke="#000" stroke-width="12" stroke-linecap="round" stroke-linejoin="round"/></svg>