<svg xmlns="http://www.w3.org/2000/svg" width="192" height="192" viewBox="0 0 192 192"><path d="M66.276 92.61c-12.274-.249-22.781 5.242-29.316 15.533-3.347 5.266-4.945 11.318-4.96 18.736 0 2.232.136 4.736.32 5.555l.667 3.074c.537 2.489 1.155 4.207 2.512 6.904 4.56 9.03 12.731 15.067 23.247 17.178 2.777.554 12.442.546 15.621-.016a33.7 33.7 0 0 0 14.875-6.623c2.392-1.918 6.76-6.427 6.1-6.743l-13.405-6.43c-.209.017-1.3.723-2.433 1.59-8.629 6.582-20.502 6.077-27.26-1.156a18 18 0 0 1-3.95-7.947l-.193-1.043 51.8-.161.08-1.108c.13-1.75-.489-8.878-.97-11.118-2.97-13.87-13.39-23.672-27.39-25.768a40 40 0 0 0-5.346-.457m-.361 14.297c5.137-.113 10.58 2.143 13.967 5.916 1.332 1.477 3.941 5.378 3.106 5.378l-33.899.008c-.883 0 2.272-4.399 3.966-6.125 2.73-2.785 5.7-4.166 10.692-4.977q1.076-.176 2.167-.2"/></svg>