<svg xmlns="http://www.w3.org/2000/svg" width="192" height="192"><path d="M59.884 19.713c-7.167 0-15.073 3.9-22.747 12.435-14.918 16.368-8.094 38.23 1.449 52.26a51.2 51.2 0 0 0 8.286 9.355A49.31 49.31 0 0 1 83.067 48.48a43.3 43.3 0 0 0-5.656-18.4 21.1 21.1 0 0 0-7.427-7.442 21.1 21.1 0 0 0-10.1-2.926m81.604 6.78a56 56 0 0 0-7.906 1.013 62.6 62.6 0 0 0-33.424 19.483 49.43 49.43 0 0 1 42.849 34.76c25.942-5.027 35.062-18.112 32.608-34.83l.07.07c-2.078-13.026-16.234-21.482-34.197-20.496M97.781 50.267a31.8 31.8 0 0 0-6.147 12.31 34 34 0 0 1 4.473-.338v-.042a33.8 33.8 0 0 1 18.822 5.866 33.85 33.85 0 0 1 12.351 15.376 150 150 0 0 0 11.985-1.098h.352a45.83 45.83 0 0 0-15.84-22.662 45.8 45.8 0 0 0-25.996-9.41zM83.573 52.18a45.8 45.8 0 0 0-23.886 16.446 45.88 45.88 0 0 0-9.228 27.515v.55a23.4 23.4 0 0 0 12.28 4.473 32 32 0 0 1-.435-5.177h.042a33.8 33.8 0 0 1 5.852-18.836A33.8 33.8 0 0 1 83.574 64.8a97 97 0 0 0 0-12.618zM96.107 65.7a28.4 28.4 0 0 0-4.825.422c-.04.674-.04 1.364 0 2.04 2.22 11.457 14.84 15.39 30.85 15.39h1.52a30.3 30.3 0 0 0-11.142-12.985A30.3 30.3 0 0 0 96.108 65.7zm-12.773 2.883a30.27 30.27 0 0 0-12.717 11.1 30.27 30.27 0 0 0-4.811 16.176c.021 1.632.172 3.271.436 4.882a15.57 15.57 0 0 0 8.173-4.685c4.752-5.027 7.79-15.819 8.764-27.276zm45.972 22.254c.295 1.7.448 3.425.464 5.149h.113a33.85 33.85 0 0 1-5.838 18.935 33.86 33.86 0 0 1-15.432 12.435 97 97 0 0 0 0 12.618 45.87 45.87 0 0 0 23.9-16.473 45.86 45.86 0 0 0 9.214-27.516v-.506a23.36 23.36 0 0 0-12.421-4.643zm-3.362.436a15.53 15.53 0 0 0-8.286 4.826c-4.768 5.004-7.765 15.729-8.792 27.319a30.33 30.33 0 0 0 17.514-27.276 29 29 0 0 0-.436-4.868zm-17.078 32.144h-.014v.155zm36.434-25.25a49.36 49.36 0 0 1-10.72 28.57 49.28 49.28 0 0 1-25.461 16.782 43.3 43.3 0 0 0 5.655 18.4 21.2 21.2 0 0 0 7.427 7.428 21.2 21.2 0 0 0 10.1 2.94c7.168 0 15.074-3.9 22.747-12.435 14.918-16.368 8.095-38.23-1.448-52.26a51 51 0 0 0-8.3-9.425m-76.765 10.282a30.3 30.3 0 0 0 11.155 12.998 30.25 30.25 0 0 0 16.417 4.854 32.4 32.4 0 0 0 4.797-.436q.087-1.014 0-2.026c-2.22-11.458-14.837-15.39-30.807-15.39zm-3.587.113c-3.895.195-7.782.552-12.028 1.097h-.352a45.97 45.97 0 0 0 16.037 22.691 45.95 45.95 0 0 0 26.179 9.313 32.6 32.6 0 0 0 5.922-12.281 34 34 0 0 1-4.43.31l-.17.084a33.76 33.76 0 0 1-18.808-5.852 33.8 33.8 0 0 1-12.35-15.361zm-16.01 1.8c-25.941 5.028-34.891 18.127-32.593 34.846 2.415 14.887 20.524 23.809 42.103 19.483a62.6 62.6 0 0 0 33.424-19.483 49.5 49.5 0 0 1-26.728-10.86 49.5 49.5 0 0 1-16.121-23.914z"/></svg>