<svg width="192" height="192" version="1.1" xmlns="http://www.w3.org/2000/svg"><path d="m59.884 19.713c-7.1671 0-15.073 3.9006-22.747 12.435-14.918 16.368-8.0941 38.23 1.4489 52.26 2.3733 3.4451 5.1486 6.5876 8.2856 9.3547 0.48264-10.404 4.2474-20.394 10.747-28.528s15.411-13.993 25.448-16.754c-0.47839-6.478-2.4159-12.77-5.655-18.4-1.8111-3.0664-4.363-5.6291-7.4275-7.4416-3.0646-1.8125-6.5421-2.8168-10.1-2.926zm81.604 6.7804c-2.5661 0.1409-5.2085 0.47211-7.9058 1.0128-12.917 2.8022-24.619 9.6206-33.424 19.483 9.7867 0.87747 19.096 4.654 26.728 10.846s13.242 14.515 16.121 23.914c25.942-5.0274 35.062-18.112 32.608-34.831l0.0706 0.07037c-2.0793-13.026-16.235-21.482-34.198-20.496zm-43.707 23.774c-2.9249 3.6068-5.0181 7.8039-6.1474 12.309 1.4837-0.21514 2.9738-0.31918 4.4734-0.33762v-0.04221c6.7148 0.04393 13.273 2.0833 18.822 5.8661 5.5495 3.7827 9.8525 9.1393 12.351 15.376 3.8951-0.1949 7.7784-0.55166 11.985-1.0972h0.35169c-2.8241-9.0053-8.3528-16.922-15.84-22.662-7.4877-5.7407-16.571-9.0252-25.996-9.411zm-14.208 1.9131c-9.5324 2.7517-17.915 8.517-23.886 16.445-5.9707 7.9277-9.212 17.589-9.2281 27.516v0.54861c3.581 2.6303 7.8482 4.1759 12.281 4.4734-0.28284-1.7135-0.43378-3.4402-0.43609-5.1768h0.04221c0.03868-6.7199 2.0706-13.282 5.852-18.836 3.7814-5.5536 9.1396-9.8555 15.376-12.351 0.27355-4.2046 0.27355-8.4138 0-12.618zm12.534 13.519c-1.6191 0.0056-3.2297 0.14235-4.8251 0.42202-0.03961 0.67494-0.03961 1.3648 0 2.0398 2.2205 11.458 14.841 15.39 30.85 15.39h1.5192c-2.389-5.3093-6.2573-9.8184-11.141-12.984-4.8847-3.1657-10.583-4.856-16.402-4.8673zm-12.773 2.8838c-5.2062 2.4165-9.6133 6.2688-12.717 11.099-3.1035 4.8302-4.7752 10.435-4.811 16.177 0.02146 1.6321 0.17233 3.2709 0.43609 4.8813 3.1436-0.67703 5.9941-2.3184 8.1731-4.6844 4.752-5.0273 7.7901-15.819 8.7639-27.276zm45.972 22.254c0.29458 1.6991 0.44764 3.4244 0.4642 5.1486h0.11258c-0.013 6.7552-2.048 13.344-5.8379 18.935-3.7899 5.5905-9.1635 9.9247-15.432 12.435-0.27369 4.2048-0.27369 8.4136 0 12.618 9.536-2.7592 17.93-8.5386 23.9-16.473 5.9701-7.9342 9.1997-17.583 9.2141-27.516v-0.5064c-3.6077-2.7139-7.9192-4.3289-12.421-4.6422zm-3.3621 0.43611c-3.2051 0.69648-6.0975 2.3806-8.2856 4.8251-4.7688 5.004-7.765 15.729-8.792 27.319 5.1976-2.4211 9.6028-6.2742 12.703-11.099 3.1035-4.8292 4.7707-10.436 4.811-16.177-6e-3 -1.6328-0.15665-3.2582-0.4361-4.8673zm-17.078 32.144h-0.0144v0.15471c5e-3 -0.054 9e-3 -0.10069 0.0144-0.15471zm36.434-25.251c-0.466 10.417-4.2176 20.42-10.719 28.571-6.5009 8.1496-15.413 14.017-25.462 16.782 0.47897 6.4779 2.4161 12.77 5.655 18.4 1.8165 3.061 4.3643 5.6161 7.4275 7.4275 3.0632 1.8121 6.5437 2.8234 10.1 2.94 7.1672 0 15.074-3.9006 22.747-12.435 14.918-16.368 8.0943-38.23-1.4489-52.26-2.3674-3.4723-5.1573-6.6341-8.2997-9.4251zm-76.765 10.283c2.3919 5.3147 6.2635 9.832 11.155 12.998 4.8918 3.1662 10.59 4.8489 16.417 4.8532 1.6054-0.0238 3.2124-0.17394 4.7969-0.4361 0.0583-0.67415 0.0583-1.3515 0-2.0257-2.2205-11.458-14.837-15.39-30.807-15.39zm-3.5872 0.11258c-3.8951 0.19519-7.7818 0.55199-12.028 1.0972h-0.35168c2.8794 9.0398 8.4775 16.962 16.037 22.691 7.5592 5.7288 16.702 8.9884 26.179 9.3125 2.8176-3.6279 4.8369-7.8166 5.9223-12.281-1.4722 0.20022-2.9461 0.303-4.4312 0.30948l-0.16882 0.0844c-6.7112-0.036-13.258-2.0758-18.808-5.852-5.5501-3.7762-9.8507-9.1292-12.351-15.361zm-16.009 1.8006c-25.942 5.0273-34.892 18.126-32.594 34.845 2.415 14.887 20.524 23.809 42.103 19.483 12.917-2.8018 24.619-9.6209 33.424-19.483-9.7847-0.88302-19.097-4.6694-26.728-10.86-7.6307-6.1912-13.237-14.518-16.121-23.914z"/></svg>
