<svg xmlns="http://www.w3.org/2000/svg" width="192" height="192"><path d="M20.294 17a4.415 4.415 0 0 0-3.271 7.238l12.723 16.476a10.5 10.5 0 0 0-.729 3.79l.033 24.68a10.57 10.57 0 0 0 10.568 10.568h112.91a10.57 10.57 0 0 0 10.568-10.568V44.467a10.5 10.5 0 0 0-.73-3.789l12.723-16.476a4.415 4.415 0 0 0-.764-6.154 4.415 4.415 0 0 0-6.187.8l-12.133 15.679a10.5 10.5 0 0 0-3.477-.625H39.618a10.5 10.5 0 0 0-3.476.625L24.01 18.849a4.42 4.42 0 0 0-3.717-1.85zm42.367 30.09A11.923 11.923 0 0 1 74.034 59 11.923 11.923 0 0 1 62.11 70.924a11.923 11.923 0 1 1 .55-23.834zm68.794 0A11.923 11.923 0 0 1 142.828 59a11.923 11.923 0 0 1-11.924 11.924 11.923 11.923 0 1 1 .55-23.834zM39.618 83.299A10.57 10.57 0 0 0 29.05 93.867v70.566a10.57 10.57 0 0 0 10.568 10.568h112.91a10.57 10.57 0 0 0 10.568-10.568V93.867a10.57 10.57 0 0 0-10.568-10.568zm58.166 8.834a37.057 37.057 0 0 1 35.345 37.017 37.09 37.09 0 0 1-37.056 37.056 37.057 37.057 0 1 1 1.71-74.074zm-1.71 6.67a30.347 30.347 0 1 0 30.346 30.347 30.38 30.38 0 0 0-30.347-30.347M94.8 107.15a22.039 22.039 0 1 1 1.273 44.04 22.144 22.144 0 0 1-21.449-17.104H85.75a11.472 11.472 0 1 0 .381-10.566H74.798A22.04 22.04 0 0 1 94.8 107.151z"/></svg>