<svg xmlns="http://www.w3.org/2000/svg" width="192" height="192"><path d="M91.144 16.001c-20.611-.074-37.504 8.69-36.939 23.781 1.137 30.188 41.939 23.965 66.901 42.938 24.962 18.967 28.816 41.989 18.695 76.966 22.764-31.951 39.384-73.619 10.603-114.4-14.322-20.294-38.649-29.213-59.261-29.287zM53.122 34.02c-8.086 4.424-15.719 11.494-20.873 22.74-8.55 18.649-8.034 39.118 2.511 57.168-2.735 3.066-3.636 8.087-1.964 13.307 2.264 7.06 8.46 12 14.305 11.687 11.783 26.721 33.21 36.604 43.98 37.067V176h.096c11.373-.435 33.776-10.029 46.651-34.814l-.064-.064c3.083-29.666-11.347-55.293-46.468-64.068C65.512 70.607 44.352 57.84 53.123 34.02z"/></svg>