<svg xmlns="http://www.w3.org/2000/svg" width="192" height="192" viewBox="0 0 192 192"><path d="M150.52 29.686H42.09a12.38 12.38 0 0 0-12.397 12.397v108.43a12.397 12.397 0 0 0 24.794 0V54.477h96.036a12.406 12.406 0 0 0 0-24.794M42.093 46.247a4.167 4.167 0 1 1 0-8.333 4.167 4.167 0 0 1 0 8.333m111.45 19.977H79.195c-6.485 0-12.286 4.723-12.902 11.156a12.406 12.406 0 0 0 12.371 13.603h62.473a2.82 2.82 0 0 0 2.567-1.583l10.83-21.577a1.112 1.112 0 0 0-.992-1.6m-74.878 16.53a4.158 4.158 0 1 1 0-8.317 4.158 4.158 0 1 1 0 8.316m-.043 20.602c-6.835 0-12.38 5.527-12.38 12.337v45.088c0 .839.685 1.523 1.532 1.523h21.705a1.54 1.54 0 0 0 1.531-1.523v-32.75h31.228a2.85 2.85 0 0 0 2.55-1.566l10.89-21.5a1.112 1.112 0 0 0-.992-1.609zm0 16.478a4.15 4.15 0 1 1 0-8.281 4.15 4.15 0 1 1 0 8.281M41.935 18.992c-2.31 0-4.337.266-6.177.796-10.019 2.866-16.752 11.695-16.752 21.979v107.54c0 6.297 2.618 12.491 7.178 17.008a22.24 22.24 0 0 0 15.622 6.596l.214-.009a22.6 22.6 0 0 0 16.076-6.896c2.524 4.27 7.101 6.982 12.183 6.982h19.635c6.451 0 11.704-5.236 11.704-11.687V138.57h18.138c6.708 0 12.765-3.721 15.785-9.719l13.766-27.292 4.278-8.547 9.873-19.678a11.98 11.98 0 0 0-.992-12.406A22.67 22.67 0 0 0 172.929 40c-.899-11.78-11.208-21.012-23.502-21.012zm0 1.848h107.5c11.08 0 20.824 8.256 21.671 19.301A20.96 20.96 0 0 1 159.59 60.47a10.01 10.01 0 0 1 2.225 12.012l-11.208 22.381h.017l-2.147 4.287-.291.556-14.288 28.31a15.83 15.83 0 0 1-14.134 8.7H99.77v24.59a9.84 9.84 0 0 1-9.856 9.839H70.279c-5.476 0-10.078-3.585-11.721-8.513a20.88 20.88 0 0 1-16.555 8.436c-11.636.11-21.141-10.13-21.141-21.757V41.77a20.96 20.96 0 0 1 15.383-20.208 20.5 20.5 0 0 1 5.68-.72z"/></svg>