<svg width="192" height="192" fill="none" xmlns="http://www.w3.org/2000/svg"><path d="M168.687 108.497c3.015 5.943.662 13.214-5.255 16.242-5.916 3.028-13.157.665-16.171-5.277-3.015-5.943-.663-13.214 5.254-16.242 5.917-3.028 13.157-.665 16.172 5.277Zm-73.309 23.962-26.783 13.706a12.061 12.061 0 0 0-5.977 7.028 12.124 12.124 0 0 0 .722 9.214 12.041 12.041 0 0 0 6.998 6.002c3.033.99 6.333.729 9.174-.725l26.783-13.706a12.058 12.058 0 0 0 5.977-7.028c.985-3.046.726-6.36-.722-9.214a12.038 12.038 0 0 0-6.998-6.002 11.974 11.974 0 0 0-9.174.725Zm6.768-53.158L48.58 106.713a12.062 12.062 0 0 0-5.976 7.028 12.123 12.123 0 0 0 .722 9.214 12.04 12.04 0 0 0 6.997 6.002c3.033.99 6.333.729 9.175-.725l53.565-27.412a12.056 12.056 0 0 0 5.977-7.027c.985-3.047.726-6.36-.722-9.214a12.039 12.039 0 0 0-6.998-6.003 11.976 11.976 0 0 0-9.174.725Zm10.339-54.985-83.92 42.945a12.061 12.061 0 0 0-5.977 7.028 12.123 12.123 0 0 0 .723 9.214 12.038 12.038 0 0 0 6.997 6.002c3.033.99 6.333.729 9.174-.725l83.92-42.945a12.062 12.062 0 0 0 5.977-7.028c.985-3.046.726-6.36-.722-9.214a12.04 12.04 0 0 0-6.998-6.002 11.976 11.976 0 0 0-9.174.725Z" stroke="#000" stroke-width="12" stroke-linecap="round" stroke-linejoin="round"/></svg>