<svg xmlns="http://www.w3.org/2000/svg" width="192" height="192" viewBox="0 0 192 192"><path d="m91.749 155.63-8.984-12.855-8.207-.032-3.16-5.504-11.28-19.59A1448 1448 0 0 0 48.95 98.52l-3.056-5.04 1.488-2.088c1.784-2.495 1.512-2.991-1.088-2-2.264.857-2.16.953-5.312-4.903-1.656-3.072-2.256-4.864-1.84-5.52.936-1.488.784-1.76-1.56-2.728l-2.184-.904 1.784-.6c1.76-.584 1.768-.632.656-2.568l-1.136-1.984-.76 1.848-.76 1.84-1.84-2.904c-1.008-1.6-1.84-3.2-1.84-3.536 0-.712 2.784-1.88 5.968-2.511 1.824-.352 2.256-.184 2.648 1.056l.472 1.471 1.504-1.407c1.296-1.216 2.944-1.52 11.815-2.12 16.319-1.104 15.183-1.288 16.111 2.56.432 1.791 1.704 6.52 2.824 10.496 1.6 5.727 8.952 33.15 13.143 49.086.576 2.2.96 2.583 2.592 2.583 1.896 0 1.96.152 4.896 10.848 5.68 20.727 7.6 28.08 7.431 28.535-.096.248-4.215-5.327-9.16-12.399M47.35 79.403c0-1.255-1.912-3.103-3.2-3.103-.744 0-.904.424-.568 1.543.84 2.832 3.76 4.048 3.76 1.56zm55.006 60.453-8.672-21.855 2.776-3.295c2.664-3.152 2.832-3.24 4.08-2.104 1.264 1.136 1.28 1.992.128 5.48-.24.695.192.4.936-.68l1.36-1.944 1.6 2.64c.88 1.44 5.12 7.951 9.423 14.462l7.824 11.84-4.936 8.655c-2.72 4.76-5.144 8.664-5.392 8.664s-4.36-9.84-9.12-21.863zm17.623-.703a296 296 0 0 0-7.528-11.536c-8.824-12.96-10.88-16.56-10.36-18.2.6-1.871 1.184-1.807 3.368.385 1.984 1.975 2.288 1.303 1.008-2.24l-.8-2.232 21.879-21.575c21.879-21.575 21.879-21.583 20.999-23.52-.88-1.92-.8-2 13.167-15.982 7.728-7.736 14.143-13.967 14.263-13.847.256.256-1.576 4.416-8 18.19l-4.928 10.537 2.08 3.024c1.144 1.664 2.08 3.176 2.08 3.36 0 .36-17.823 31.438-30.663 53.494a5945 5945 0 0 0-10.496 18.079c-1.688 2.935-3.32 5.335-3.624 5.335s-1.407-1.472-2.447-3.272M93.56 93.347c-1.52-4.655-7.6-28.335-7.352-28.59.264-.264 16.927 4.063 26.095 6.783l4.688 1.392-10.8 11.328c-5.936 6.232-11.04 11.328-11.352 11.328-.296 0-.88-1.008-1.28-2.24M28.507 62.35a200 200 0 0 1-2.6-4.424c-.904-1.584-2.816-4.8-4.256-7.151-1.44-2.344-2.52-4.36-2.408-4.472.24-.24 46.734 6.368 47.014 6.688.576.656 2.32 7.8 2.016 8.28-.192.311-2.424.567-4.96.583-2.528 0-10.344.464-17.35 1.008-16.744 1.312-16.32 1.32-17.456-.512m102.88-.832c0-.856-.368-1.04-1.424-.704a6.7 6.7 0 0 1-3.088.04c-1.623-.408-1.487-.752 7.28-18.319l8.944-17.903h20.679l-2.24 3.032c-6.4 8.608-26.88 34.167-27.383 34.167a6.4 6.4 0 0 0-1.68.424q-1.088.416-1.088-.736m-9.208-3.856c-1.016-1.712-1.576-2.056-2.752-1.68a32 32 0 0 1-3.711.832c-1.96.304-2.24.16-2.24-1.191 0-1.304-.16-1.408-1.064-.656-.8.672-1.256.688-1.856.08-.44-.432-1.744-.8-2.904-.8-2.04 0-7.552-1.408-35.742-9.136L58.247 41.36l-.736 1.624c-.408.896-1.08 1.616-1.496 1.6s-9.584-2.296-20.383-5.072l-19.63-5.04 4.479-.536c2.456-.296 9.903-1.04 16.527-1.647l12.055-1.112 1.672-3.584 1.664-3.584 89.284-.048-.648 1.712c-.992 2.616-15.631 31.519-16.671 32.919-.848 1.144-1 1.072-2.184-.928"/></svg>