<svg xmlns="http://www.w3.org/2000/svg" width="192" height="192" viewBox="0 0 192 192"><path d="M150.36 83.683H41.64a10.194 10.194 0 0 0-10.202 10.202v67.95a10.194 10.194 0 0 0 10.194 10.194h108.73a10.194 10.194 0 0 0 10.202-10.194v-67.95a10.194 10.194 0 0 0-10.202-10.194m-54.36 79.839a35.681 35.673 0 1 1 35.681-35.673 35.719 35.711 0 0 1-35.681 35.681m0-64.886a29.221 29.221 0 1 0 29.221 29.213 29.26 29.26 0 0 0-29.221-29.221m0 50.449a21.33 21.33 0 0 1-20.666-16.477h10.71a11.065 11.065 0 1 0 .377-10.194H75.497a21.22 21.22 0 1 1 20.504 26.672m76.035-127.55-.015.023-.039-.038.023-.023a4.31 4.31 0 0 0-3.326-1.525 4.24 4.24 0 0 0-3.288 1.663l-11.665 15.092a10 10 0 0 0-3.357-.608H41.64a10 10 0 0 0-3.35.616L26.61 21.629a4.235 4.235 0 0 0-6.614-.139l.03.031-.046.039-.015-.024a4.235 4.235 0 0 0-.077 5.29l12.25 15.854a10 10 0 0 0-.693 3.634V70.1a10.194 10.194 0 0 0 10.194 10.194h108.73A10.194 10.194 0 0 0 160.562 70.1V46.307a10 10 0 0 0-.693-3.626l12.243-15.861a4.235 4.235 0 0 0-.077-5.282zM63.296 71.8A11.473 11.473 0 1 1 74.77 60.327 11.473 11.473 0 0 1 63.296 71.8m66.256 0a11.473 11.473 0 1 1 11.465-11.473A11.473 11.473 0 0 1 129.544 71.8"/></svg>