<svg xmlns="http://www.w3.org/2000/svg" width="192" height="192"><path d="M66.565 26.012c-13.003 0-22.917 8.737-25.295 20.39l-7.374 34.813-.1.475h.397c.223-.559.46-1.11.72-1.647 4.089-8.451 12.632-14.25 23.227-14.25h88.454c13.004 0 22.917-8.737 25.295-20.39L176 26.013zM55.91 76.109c-13.003 0-22.916 8.737-25.295 20.39l-7.475 35.288h.396c3.735-9.334 12.68-15.897 23.947-15.897h56.546c13.003 0 22.916-8.736 25.295-20.389l4.112-19.391zm-10.503 50.097c-13.004 0-22.917 8.736-25.295 20.389L16 165.986h26.478c13.003 0 22.916-8.736 25.295-20.388l4.112-19.391z"/></svg>