<svg xmlns="http://www.w3.org/2000/svg" width="192" height="192" viewBox="0 0 192 192"><path d="M127.06 35.379c-7.677 0-16.178.248-21.664.672a96 96 0 0 0-5.998.671 170 170 0 0 0-8.746 1.468l-2.28.438-.235.031v.062a160 160 0 0 0-15.057 3.811c-1.983.616-5.1 1.652-6.45 2.156l-.297.11v.046c-1.03.373-2.053.766-3.093 1.171-8.845 3.463-15.798 7.157-19.492 10.34-3.687 3.175-5.27 6.783-4.342 9.965.64 2.223 1.788 2.991 4.483 3 2.167 0 4.426-.573 9.48-2.469a112 112 0 0 1 12.995-3.998l.672-.156a112 112 0 0 1 21.1-3.015v.031l1.016-.046a136 136 0 0 1 11.995.093 64 64 0 0 1 15.885 2.905c5.222 1.6 10.998 3.97 15.9 6.498 4.262 2.207 6.849 3.844 12.198 7.763 2.503 1.839 3.783 2.744 4.639 3.28l.094.062.234.156a8 8 0 0 0 .906.453c.632.24 1.55.466 2.358.562a8 8 0 0 0 1 .047 12 12 0 0 0 1.64-.03 6.88 6.88 0 0 0 4.045-1.469l.219-.14v-.032l.453-.359c3.51-3.015 7.26-9.102 11.027-17.915 2.943-6.893 4.593-12.553 4.201-14.416a8 8 0 0 0-1.124-2.25c-.923-1.306-2.47-2.494-4.64-3.576-2.414-1.2-5.113-2.076-9.823-3.14-4.535-1.031-13.862-2.146-21.195-2.545-3.2-.168-7.499-.243-12.105-.235zM95.697 63.837c-19.409.016-30.598 3.876-37.923 13.104-4.878 6.15-7.102 11-14.635 31.8-5.326 14.674-7.244 18.861-10.043 21.82-1.863 1.967-2.65 2.274-7.513 2.89-5.334.671-7.248 1.48-8.528 3.623a6 6 0 0 0-1.015 4.045c.168 2.336 1.572 4.347 4.483 6.482 5.534 4.047 17.769 8.105 26.646 8.825v.016c3.015.24 15.604.24 18.587 0 7.74-.624 13.355-2.937 17.634-7.247 2.79-2.815 4.996-6.506 6.42-10.808.639-1.927 4.787-16.718 6.106-21.788.904-3.455 1.173-3.863 2.452-3.655 2.383.384 10.58 4.306 14.98 7.185 3.278 2.127 6.695 3.862 8.574 4.342 3.91 1 7.057-.647 10.2-5.357 2.206-3.303 6.507-12.686 8.043-17.524 1.6-5.055 1.392-8.035-.687-10.105-3.047-3.023-11.481-3.96-21.101-2.328-3.583.608-6.393 1.329-11.542 2.968-2.144.672-3.943 1.173-3.999 1.109-.256-.256 4.233-10.591 6.888-15.87 1.56-3.11 2.109-4.892 2.109-6.7 0-1.751-.441-2.818-1.61-3.873-2.414-2.183-6.216-2.952-14.525-2.952z"/></svg>