<svg xmlns="http://www.w3.org/2000/svg" width="192" height="192" viewBox="0 0 192 192"><path d="m155.12 29.87-55.088 36.208 23.376 14.976 31.728-51.2zM40.08 35.038l51.72 31.16-23.2 14.864zm-20.936 88.16 72.224 43.52a9 9 0 0 0 9.264 0l72.224-43.52L96 73.966zm59.08 2.488c0 4.84-3.984 8.768-8.888 8.768-4.912 0-8.888-3.92-8.888-8.76s3.976-8.768 8.88-8.768 8.896 3.92 8.896 8.76m53.328 0c0 4.84-3.976 8.768-8.88 8.768s-8.896-3.92-8.896-8.76 3.984-8.768 8.888-8.768c4.912 0 8.888 3.92 8.888 8.76m-26.664 30.672c0 4.84-3.976 8.768-8.888 8.768s-8.888-3.92-8.888-8.768c0-4.84 3.976-8.76 8.888-8.76s8.888 3.92 8.888 8.76M176 32.528v82.24L130.848 85.84 169.184 24c3.744.904 6.816 4.16 6.816 8.528M24.91 27.384c-4.64 0-8.912 3.64-8.912 8.776v78.608L61.15 85.84z"/></svg>