<svg xmlns="http://www.w3.org/2000/svg" width="192" height="192" viewBox="0 0 192 192"><path d="m136.13 16 15.712 58.624-58.232 15.6 18.984-33.136C67.882 32.504 28.29 69.376 35.69 113.552H18.81c-9.288-55.488 47.352-102.22 102.6-71.84zm-28.656 89.432c-31.04 0-33.567 36.105-78.879 24.297-4.52-1.176-5.033 2.288-4.873 4.352C25.794 161.497 51.779 176 69.267 176c31.989 0 52.972-62.786 104.92-4.705-21.35-47.571-46.267-65.863-66.713-65.863m66.713 65.863.008.018h.008zm-65.404-56.428c18.395-.06 30.962 15.028 43.012 31.453-11.08-11.808-28.976-7.456-43.736-.176l1.313-11.713-9.21-.488.961-11.24-9.279-3.92c6.181-2.695 11.79-3.9 16.94-3.916z"/></svg>