<svg xmlns="http://www.w3.org/2000/svg" width="192" height="192"><path d="M84.455 114.03h28.741l8.396 5.442H83.187L65.95 172.753c-19.044-7.38-36.671-24.492-44.061-43.724-7.882-18.632-7.882-42.043.171-60.751 7.55-19.242 25.685-36.612 44.986-43.75 15.186-6.287 35.51-6.951 51.616-2.007 18.483 5.293 35.932 18.541 46.083 35.836 11.344 18.964 14.528 43.06 7.636 64.71-4.356 14.362-13.34 28.114-25.69 37.955l-21.217-35.349 29.533 16.465c.166 0 .252-.182.166-.353L116.49 108.39l50.027 7.636c.17 0 .24-.08.24-.165l-.32-.252-47.176-16.54 49.021-11.842c.166 0 .166-.155.08-.24L118.08 90.26l39.373-29.81c.085-.161-.257-.242-.343-.076L112.883 82.8 137.3 39.724c0-.07 0-.251-.155-.16L105.242 77l6.122-49.187c0-.092-.171-.172-.337-.092L96.354 75.485 83.506 26.293c-.086-.08-.262-.17-.343 0L86.7 77.321 56.402 37.89c-.102-.09-.176 0-.262.08l22.92 43.638-43.323-23.673c-.08 0-.246.092-.246.166l38.522 31.641-49.176-5.19c-.176.09-.176.24 0 .32l47.678 13.95-47.426 13.935c-.091.07-.091.246 0 .32l48.925-5.698-38.442 32.652c-.08 0-.166.166 0 .262l.514-.171 30.79-16.123 7.23-11.494h8.213l-5.699-4.03 19.05-30.56-11.237 36.098z"/></svg>