<svg xmlns="http://www.w3.org/2000/svg" width="192" height="192" viewBox="0 0 192 192"><path d="m61.273 52.409 3.676 43.258s5.739-17.841 31.397-40.417c-.804-.8-5.177-5.409-5.177-11.026 0-6.18 2.337-11.189 5.344-11.189 3.006 0 5.346 5.01 5.346 11.189 0 4.132-2.386 7.734-3.97 9.672 7.45-6.408 16.498-13.17 27.473-19.996-6.114-9.847-13.562-16.398-29.346-16.398-15.783 0-34.744 15.7-34.744 34.907zm64.09-18.509.003.003c.08-.06.007.003-.008-.003zm.003.003L96.347 56.251c24.718 22.046 30.23 39.415 30.23 39.415l4.009-43.424a34.65 34.65 0 0 0-5.22-18.339m-29.185 58.59a25.803 25.803 0 0 0-25.887 25.887c.167 11.858 3.842 23.55 10.69 33.237 8.685 12.86 10.687 16.368 11.355 18.372 1.336-3.34 2.508-6.68 3.51-10.187 1.67-5.845 5.175 8.184 4.006 14.362 14.363-15.03 22.214-35.074 22.214-55.784a25.803 25.803 0 0 0-25.888-25.887" opacity=".4"/><path d="M96.177 16.001c-.167 0-.502 0-.669.166-19.707.334-35.573 16.533-35.573 36.408l3.673 43.091c.167.669.5 1.17 1.002 1.338.835.334 1.838 0 2.172-.835 0 0 2.505-7.518 11.022-18.708 5.345-7.015 11.358-13.528 18.04-19.374 23.381 21.21 29.057 37.915 29.057 38.08.167.669.835 1.168 1.67 1.168h1.005l.333-.166c.5-.167 1.001-.67 1.001-1.337l3.677-43.424c0-6.681-2.006-13.362-5.513-19.041V33.2l-.167-.166C120.227 22.512 108.701 16 96.175 16zm.502 3.17c10.522.335 20.374 5.512 26.386 14.198-7.52 4.717-14.11 9.398-19.905 13.952.23-.986.366-2.022.366-3.096 0-7.349-3.008-12.859-7.017-12.859-4.008 0-7.013 5.51-7.013 12.859 0 4.73 2.709 8.742 4.44 10.826-16.19 14.466-24.202 26.922-27.823 33.935l-1.06-12.2c.023-.052.047-.103.055-.16.168-.167 5.009-11.19 18.036-25.887.501-.668.502-1.501-.166-2.17-.668-.667-1.67-.667-2.339 0-8.35 9.5-13.438 17.368-16.121 22.055l-1.582-18.215c0-18.372 14.866-33.067 33.07-33.067.334 0 .501-.003.669-.17zm-.17 15.535c1.504 0 3.677 3.84 3.677 9.518-.314 2.987-1.368 5.973-3.301 8.263l-.427.365c-2.14-2.333-3.455-5.48-3.621-8.628 0-5.679 2.17-9.519 3.673-9.519zm28.394 1.503c2.84 4.844 4.175 10.355 4.175 15.866l-1.7 19.132c-4.31-4.923-9-9.577-13.83-13.954a1.79 1.79 0 0 0-2.34.166 1.79 1.79 0 0 0 .167 2.339c5.345 4.843 10.355 9.853 15.031 15.364.163.163.367.288.59.372l-1.259 14.16c-3.499-6.832-11.157-19.153-27.284-33.807.198-.21.421-.456.666-.747 8.135-6.924 16.877-13.223 25.783-18.89zM83.318 81.804a2.505 2.505 0 0 0-2.505 2.505 2.505 2.505 0 0 0 2.505 2.505 2.505 2.505 0 0 0 2.505-2.505 2.505 2.505 0 0 0-2.505-2.505m25.552 0a2.505 2.505 0 0 0-2.505 2.505 2.505 2.505 0 0 0 2.505 2.505 2.505 2.505 0 0 0 2.505-2.505 2.505 2.505 0 0 0-2.505-2.505m-12.693 8.852c-14.864 0-27.057 11.858-27.558 26.722-6.18-.334-12.192-3.007-16.702-8.018 0 0 0-.167-.167-.167-.668-.668-1.67-.668-2.338 0-.669.67-.669 1.671 0 2.34 4.843 5.51 11.858 8.684 19.207 9.185.167 5.177 1.67 18.204 10.856 31.9 8.684 13.026 10.688 16.201 11.189 18.038.167.501.5.834.835 1.001.835.334 1.838 0 2.172-.835 1.17-2.839 2.173-5.847 3.008-8.852 1.169 3.841 1.669 8.018 1.168 12.027v.332c0 1.002.835 1.67 1.67 1.67.5 0 .834-.165 1.168-.499 14.197-14.698 22.216-34.24 22.717-54.616 7.348-.334 14.194-3.674 19.038-9.185.835-.835.837-1.838.17-2.34-.669-.667-1.672-.667-2.34 0-4.175 4.844-10.189 7.685-16.535 8.02-.5-14.866-12.694-26.723-27.558-26.723m-2.003 3.507c-.334 6.514-3.175 12.695-8.018 17.038-4.009 3.674-9.02 5.678-14.197 6.012.668-12.192 10.19-22.047 22.214-23.05zm3.84 0c12.191.835 21.88 10.858 22.38 23.05-12.192-.835-21.88-10.858-22.38-23.05m-1.67 7.516a27.62 27.62 0 0 0 24.217 18.708c-.5 17.87-7.18 35.238-18.705 49.1-.5-5.178-1.839-12.19-4.511-12.86h-.5c-.835 0-1.837.335-2.505 2.506-.835 2.84-1.505 4.844-2.006 6.514-1.503-2.672-4.34-7.014-9.851-15.198-6.18-8.852-9.69-19.207-10.19-30.063 11.19-.835 20.544-8.352 24.05-18.708zm6.514 16.202c-1.003 0-1.67.668-1.67 1.67.167 5.511-2.338 10.854-7.014 14.026-.501.334-.835 1.003-.835 1.504 0 1.002.668 1.67 1.67 1.67.334.167.668 0 .835-.166 5.679-3.842 8.85-10.354 8.683-17.034 0-1.003-.668-1.67-1.67-1.67zm6.847 5.177c-1.003 0-1.67.668-1.67 1.67.333 9.185-4.176 17.87-11.692 23.046-.5.334-.835 1.003-.835 1.504 0 1.002.668 1.67 1.67 1.67.168 0 .501 0 .836-.333 8.684-5.845 13.695-15.533 13.362-25.887 0-1.002-.668-1.67-1.67-1.67z"/></svg>