<svg xmlns="http://www.w3.org/2000/svg" width="192" height="192" viewBox="0 0 192 192"><path d="M95.764 35.635q21.238 0 40.072 9.116 18.834 9.117 31.456 26.347 1.403 1.803.902 3.206t-1.703 2.404q-1.203 1.002-2.805.902t-2.805-1.703q-11.02-15.628-28.351-23.943t-36.766-8.315-36.465 8.315-28.25 23.943q-1.203 1.803-2.805 2.004-1.603.2-2.805-.802-1.403-1.002-1.703-2.504t.901-3.106Q37.06 54.47 55.793 45.052t39.971-9.417m0 18.834q27.048 0 46.483 18.032t19.435 44.68q0 10.018-7.113 16.73-7.112 6.712-17.33 6.712t-17.532-6.712-7.313-16.73q0-6.612-4.909-11.12t-11.72-4.508q-6.813 0-11.722 4.508t-4.908 11.12q0 19.435 11.52 32.458 11.522 13.023 29.754 18.233 1.803.601 2.404 2.004.601 1.402.2 3.005-.4 1.402-1.603 2.404t-3.005.601q-20.837-5.209-34.06-20.737-13.225-15.528-13.225-37.968 0-10.018 7.213-16.83t17.431-6.812 17.431 6.812q7.213 6.813 7.213 16.83 0 6.612 5.009 11.12t11.82 4.508q6.813 0 11.622-4.508 4.808-4.508 4.808-11.12 0-23.242-17.03-39.07T95.964 62.283 55.291 78.111t-17.03 38.87q0 4.808.902 12.02t4.308 16.83q.6 1.804-.1 3.206-.702 1.403-2.305 2.004-1.603.6-3.105-.1-1.503-.702-2.104-2.305-3.005-7.814-4.308-15.528-1.302-7.713-1.302-15.928 0-26.648 19.335-44.68t46.182-18.032zm0-38.469q12.823 0 25.045 3.106t23.642 8.915q1.803 1.002 2.104 2.405.3 1.402-.3 2.805-.602 1.402-2.004 2.204-1.403.801-3.406-.2-10.62-5.41-21.94-8.315-11.32-2.906-23.14-2.906-11.621 0-22.841 2.705t-21.438 8.515q-1.603 1.002-3.206.501-1.603-.5-2.404-2.104-.802-1.602-.401-2.905.4-1.302 2.003-2.304 11.22-6.01 23.442-9.216T95.764 16m0 57.903q18.633 0 32.057 12.522t13.424 30.755q0 1.803-1.102 2.905t-2.905 1.102q-1.603 0-2.805-1.102t-1.202-2.905q0-15.027-11.12-25.145T95.764 81.917 69.617 92.035t-10.92 25.145q0 16.229 5.61 27.549t16.429 22.741q1.202 1.202 1.202 2.805t-1.202 2.805q-1.203 1.202-2.805 1.202t-2.805-1.202q-11.821-12.422-18.132-25.345t-6.312-30.555q0-18.233 13.224-30.755t31.857-12.522zm-.2 39.27q1.803 0 2.905 1.202t1.102 2.805q0 15.027 10.819 24.644t25.245 9.617q1.202 0 3.406-.2t4.608-.601q1.803-.4 3.106.5 1.302.902 1.703 2.706.4 1.603-.601 2.805-1.002 1.202-2.605 1.603-3.606 1.001-6.311 1.102t-3.306.1q-17.832 0-30.955-12.021t-13.123-30.254q0-1.603 1.102-2.805t2.905-1.202z"/></svg>