<svg xmlns="http://www.w3.org/2000/svg" width="192" height="192" viewBox="0 0 192 192"><path d="M115.8 16.01c-8.328 5.056-20.88 15.984-25.184 37.424A40 40 0 0 0 75.88 57.17a1.92 1.92 0 0 0-.944 2.392 1.866 1.866 0 0 0 2.36 1.136 37.6 37.6 0 0 1 15.272-3.496 36.8 36.8 0 0 1 19.792 5.528 38.1 38.1 0 0 1 13 13.44c-3.96-2.784-11.088-5.536-17.936-4.344 26.744 13.36 19.568 59.399-17.488 57.655a31.2 31.2 0 0 1-13.12-3.36c-9.096-4.672-16.592-13.528-17.52-24.296 0 0 3.44-12.8 24.584-12.8 2.28 0 8.792-6.384 8.92-8.232-.032-.616-12.96-5.736-18-10.704-2.696-2.648-3.976-3.952-5.112-4.904a24 24 0 0 0-1.92-1.456 34.4 34.4 0 0 1-.216-18.184c-7.64 3.48-13.584 8.992-17.896 13.84h-.032c-2.944-3.728-2.744-16.04-2.576-18.608-.056-.272-4.528 2.192-9.736 7.528a64 64 0 0 0-6.952 8.328 63.2 63.2 0 0 0-9.968 22.52 93 93 0 0 0-2.064 15.952 74.37 74.37 0 0 0 64.32 73.327v-7.296a32.424 32.424 0 0 1 32.295-32.296h43.903a74.4 74.4 0 0 0 7.112-21.152c3.296-25.12-4.48-39.104-4.48-40.24-3.248-7.776-9.792-16.152-14.928-18.808 3.656 7.12 6.224 14.768 7.544 22.672-8.4-20.96-22.664-29.392-34.312-47.783-1.872-2.96-3.064-4.928-3.672-7.328-.04-.184-.16-.224-.312-.192m-.856 121.34a23.79 23.79 0 0 0-23.784 23.784v11.624a3.24 3.24 0 0 0 3.232 3.24h55.503a23.79 23.79 0 0 0 23.784-23.784V140.59a3.24 3.24 0 0 0-3.24-3.24zm-9.488 11.328h6.656c3.584 0 5.6 1.616 5.6 4.504a3.6 3.6 0 0 1-1.864 3.28 3.76 3.76 0 0 1 2.112 3.56c0 3.184-2.224 4.784-5.8 4.784h-6.704zm15.472 0h10.84v2.944h-7.72v3.624h7.72v2.936h-7.72v3.656h7.72v2.968h-10.84zm13.52 0h11.976v2.88h-4.432v13.24h-3.08V151.55h-4.472zm17.256 0h3.064l6.096 16.128h-3.2l-1.048-2.936h-6.736l-1.064 2.936h-3.2zm-43.183 2.768v3.72h3.72c1.656 0 2.36-.8 2.36-1.904 0-1.12-.784-1.816-2.408-1.816zm44.735 1.192-2.344 6.4h4.656zm-44.735 5.344v4.016h3.68c1.704 0 2.6-.784 2.6-2.032 0-1.256-.752-1.984-2.72-1.984z"/></svg>