<svg xmlns="http://www.w3.org/2000/svg" width="192" height="192" viewBox="0 0 192 192"><path d="M105.34 22.691c-7.632 4.632-19.144 14.64-23.088 34.296a36 36 0 0 0-13.504 3.424 1.76 1.76 0 0 0-.856 2.192c.32.88 1.28 1.344 2.16 1.04a34.4 34.4 0 0 1 13.992-3.2 33.6 33.6 0 0 1 18.144 5.064 35.2 35.2 0 0 1 11.92 12.32c-3.632-2.552-10.16-5.072-16.44-3.984 24.512 12.248 17.936 54.448-16.032 52.848a28.8 28.8 0 0 1-12.024-3.08c-8.344-4.28-15.208-12.4-16.056-22.264 0 0 3.144-11.736 22.528-11.736 2.08 0 8.056-5.848 8.176-7.544-.032-.56-11.88-5.256-16.496-9.808-2.48-2.432-3.648-3.624-4.688-4.504a24 24 0 0 0-1.76-1.328 31.6 31.6 0 0 1-.2-16.672c-7 3.192-12.448 8.24-16.4 12.688h-.024c-2.704-3.416-2.52-14.704-2.368-17.056-.048-.248-4.144 2-8.92 6.888a61 61 0 0 0-6.376 7.632 57.6 57.6 0 0 0-9.136 20.656 85 85 0 0 0-1.888 14.624 68.16 68.16 0 0 0 58.944 67.208v-6.688a29.72 29.72 0 0 1 29.6-29.6h40.256a68 68 0 0 0 6.52-19.392c3.016-23.024-4.096-35.84-4.096-36.88-2.984-7.12-8.984-14.8-13.696-17.24 3.352 6.528 5.712 13.536 6.92 20.776-7.704-19.208-20.776-26.936-31.456-43.792-1.712-2.72-2.8-4.52-3.36-6.72q-.072-.232-.288-.168zm-.784 111.22a21.81 21.81 0 0 0-21.8 21.792v10.656a2.96 2.96 0 0 0 2.96 2.96h68.48a21.81 21.81 0 0 0 21.808-21.784v-10.656a2.96 2.96 0 0 0-2.984-2.96zm52.88 10.312a6.88 6.88 0 0 1 5.6 2.504l-2.256 1.76a3.76 3.76 0 0 0-3.36-1.792c-1.56 0-2.24.776-2.24 1.72 0 1.16 1.44 1.376 3.232 1.792 2.208.472 4.744 1.184 4.744 4.296 0 2.464-2.064 4.496-5.272 4.496-3.088 0-4.984-1.216-6.344-2.952l2.424-1.92a4.4 4.4 0 0 0 3.936 2.264c1.552 0 2.36-.744 2.36-1.792 0-1.336-1.376-1.624-3.36-2.08-2.144-.448-4.544-1.136-4.544-4.048 0-2.36 2.096-4.248 5.088-4.248zm-43.28.024a7.376 7.376 0 1 1 .04 14.752 7.376 7.376 0 0 1-.032-14.752m16.64 0c2.76 0 5.104 1.44 6.384 3.584l-2.456 1.528a4.24 4.24 0 0 0-3.904-2.4 4.536 4.536 0 0 0-4.568 4.664c0 2.544 1.904 4.624 4.52 4.624a4.32 4.32 0 0 0 4.08-2.664l2.536 1.36a7.2 7.2 0 0 1-6.584 4.056 7.2 7.2 0 0 1-7.376-7.376c0-4.192 3.2-7.376 7.376-7.376zm-35.2.184h9.256v2.64h-6.456v3.336h6.456v2.592h-6.456v5.816h-2.8zm43.36 0h2.816v8.912c0 1.768 1.144 2.976 2.84 2.976 1.688 0 2.864-1.2 2.864-2.976v-8.912h2.832v8.84c0 3.584-2.296 5.728-5.696 5.728-3.408 0-5.656-2.144-5.656-5.728zm-24.8 2.528a4.56 4.56 0 0 0-4.536 4.664 4.56 4.56 0 1 0 9.12 0 4.59 4.59 0 0 0-4.576-4.664"/></svg>