<svg xmlns="http://www.w3.org/2000/svg" width="192" height="192" viewBox="0 0 192 192"><path d="M113.9 19.003c-8.017 4.868-20.106 15.383-24.247 36.02a38.5 38.5 0 0 0-14.177 3.594 1.84 1.84 0 0 0-.907 2.31 1.797 1.797 0 0 0 2.276 1.095 35.9 35.9 0 0 1 14.69-3.371 35.5 35.5 0 0 1 19.054 5.321 36.8 36.8 0 0 1 12.517 12.936c-3.816-2.678-10.678-5.33-17.266-4.183 25.736 12.859 18.84 57.179-16.829 55.502a30.4 30.4 0 0 1-12.637-3.235c-8.753-4.5-15.965-13.022-16.855-23.392 0 0 3.303-12.32 23.648-12.32 2.199 0 8.47-6.143 8.59-7.922-.026-.59-12.474-5.519-17.326-10.301-2.592-2.55-3.824-3.808-4.92-4.723a17 17 0 0 0-1.848-1.395 33.37 33.37 0 0 1-.214-17.505c-7.358 3.346-13.065 8.659-17.214 13.321h-.034c-2.832-3.593-2.643-15.443-2.481-17.916-.051-.256-4.363 2.105-9.369 7.239a63.3 63.3 0 0 0-6.69 8.016 60.8 60.8 0 0 0-9.6 21.69q-1.668 7.58-1.985 15.357a71.58 71.58 0 0 0 61.902 70.586v-7.033a31.23 31.23 0 0 1 31.092-31.083h42.266a71.9 71.9 0 0 0 6.845-20.363c3.165-24.179-4.304-37.646-4.304-38.732-3.131-7.486-9.437-15.555-14.374-18.104 3.508 6.845 5.99 14.211 7.256 21.817-8.086-20.175-21.817-28.286-33.026-45.988-1.797-2.849-2.952-4.748-3.534-7.058-.043-.171-.154-.205-.3-.171zm-.83 116.8a22.895 22.895 0 0 0-22.887 22.895v11.191a3.113 3.113 0 0 0 3.114 3.106h55.733a22.895 22.895 0 0 0 22.895-22.887v-11.191a3.106 3.106 0 0 0-3.114-3.115zm-9.309 10.832h3.012v7.221l5.835-7.221h3.56l-4.732 5.792 4.92 9.745h-3.329l-3.79-7.683-2.464 3.02v4.663h-3.012zm14.245 0h3.02v12.62h7.162v2.909h-10.181zm17.505 0h2.952l5.878 15.537h-3.097l-1.01-2.823h-6.502l-1.018 2.823h-3.08zm10.498 0h6.306c3.568 0 5.698 2.31 5.698 5.262a5.05 5.05 0 0 1-2.72 4.586l3.054 5.69h-3.354l-2.498-4.903h-3.474v4.902h-3.012zm3.012 2.764v5.133h3.054c1.968 0 2.9-1.24 2.9-2.618 0-1.54-.992-2.516-2.908-2.516zM137 150.45l-2.25 6.169h4.474z"/></svg>