<svg xmlns="http://www.w3.org/2000/svg" width="192" height="192" viewBox="0 0 192 192"><path d="M167.92 69.713c-3.378-8.115-10.204-16.861-15.573-19.644 3.822 7.44 6.497 15.422 7.875 23.67-8.773-21.866-23.643-30.683-35.794-49.882-1.955-3.084-3.2-5.129-3.84-7.635q-.089-.267-.328-.214c-8.693 5.28-21.795 16.693-26.301 39.065a41.8 41.8 0 0 0-15.377 3.911 1.98 1.98 0 0 0-.978 2.48 1.956 1.956 0 0 0 2.48 1.2 39.1 39.1 0 0 1 15.928-3.67 38.5 38.5 0 0 1 20.666 5.786 39.8 39.8 0 0 1 13.555 14.026c-4.134-2.907-11.564-5.778-18.71-4.533 27.91 13.955 20.408 61.988-18.257 60.175a32.9 32.9 0 0 1-13.688-3.511c-9.484-4.88-17.315-14.133-18.284-25.368 0 0 3.573-13.342 25.643-13.342 2.382 0 9.19-6.658 9.333-8.587-.036-.64-13.537-6.008-18.8-11.199-2.817-2.755-4.16-4.106-5.333-5.102a27 27 0 0 0-2.008-1.51 36 36 0 0 1-.223-18.978c-7.973 3.636-14.177 9.369-18.675 14.435h-.035c-3.075-3.902-2.862-16.746-2.684-19.42-.063-.285-4.738 2.292-10.168 7.866a71 71 0 0 0-7.244 8.684 65.8 65.8 0 0 0-10.408 23.51c-1.05 4.71-2.045 11.626-2.151 16.639a77.605 77.605 0 0 0 154.06 13.119c3.44-26.221-4.685-40.798-4.685-41.971"/></svg>