<svg xmlns="http://www.w3.org/2000/svg" width="192" height="192" viewBox="0 0 192 192"><path d="M97.496 29.12c-6.96 4.232-17.464 13.36-21.056 31.288a32.8 32.8 0 0 0-12.32 3.12 1.6 1.6 0 0 0-.784 2c.28.8 1.16 1.232 1.968.96a31.2 31.2 0 0 1 12.768-2.928 30.8 30.8 0 0 1 16.552 4.624 32 32 0 0 1 10.864 11.232c-3.304-2.32-9.272-4.624-14.992-3.632 22.36 11.176 16.36 49.672-14.624 48.208a26.4 26.4 0 0 1-10.968-2.8c-7.608-3.912-13.872-11.32-14.648-20.32 0 0 2.872-10.704 20.552-10.704 1.904 0 7.352-5.336 7.456-6.88-.024-.52-10.832-4.8-15.048-8.952-2.256-2.216-3.328-3.304-4.272-4.104a16 16 0 0 0-1.608-1.216 28.8 28.8 0 0 1-.184-15.2c-6.384 2.904-11.36 7.52-14.96 11.568h-.024c-2.464-3.12-2.296-13.408-2.16-15.56-.04-.224-3.784 1.824-8.136 6.288a56 56 0 0 0-5.816 6.96 52.8 52.8 0 0 0-8.328 18.84A77.6 77.6 0 0 0 16 95.256a62.16 62.16 0 0 0 53.776 61.312v-6.104a27.12 27.12 0 0 1 27-27.008h36.712a62.4 62.4 0 0 0 5.944-17.68c2.752-21.008-3.736-32.696-3.736-33.648-2.72-6.504-8.192-13.512-12.488-15.728a65 65 0 0 1 6.304 18.96c-7.016-17.528-18.944-24.576-28.688-39.952-1.56-2.48-2.56-4.12-3.064-6.128-.04-.16-.136-.184-.264-.16m-.72 101.46a19.896 19.896 0 0 0-19.88 19.888v9.72a2.706 2.706 0 0 0 2.704 2.704h76.504A19.896 19.896 0 0 0 176 143.004v-9.72a2.72 2.72 0 0 0-2.72-2.704zm17.864 9.472a6.72 6.72 0 0 1 5.616 2.728l-2.144 1.496a4 4 0 0 0-3.472-1.816 4.24 4.24 0 0 0-4.24 4.336 4.16 4.16 0 0 0 4.272 4.296c2 0 3.312-1.12 3.744-2.848h-4.168v-2.368h6.904v1.088c0 3.504-2.496 6.568-6.44 6.568a6.64 6.64 0 0 1-6.84-6.736c0-3.776 2.808-6.744 6.768-6.744m-24.776.168h2.72l5.744 8.936v-8.936h2.448v13.136h-2.512l-5.928-9.224v9.224h-2.472zm13.36 0h2.568v13.136h-2.56zm19.888 0h2.552v5.296h5.304v-5.296h2.536v13.136h-2.536v-5.36h-5.304v5.36h-2.552zm12.352 0h9.76v2.344h-3.608v10.792h-2.496v-10.8h-3.656zm11.728 0h2.552v10.664h6.056v2.472h-8.6zm7.12 0h2.784l2.96 5.216 2.968-5.216h2.776l-4.48 7.648v5.488h-2.552v-5.544z"/></svg>