<svg xmlns="http://www.w3.org/2000/svg" xml:space="preserve" width="192" height="192"><path d="M104.65 28.162c0 6.487-5.405 11.892-11.892 11.892s-11.892-5.405-11.892-11.892S86.271 16.27 92.758 16.27s11.892 5.405 11.892 11.892M92.758 49.784c-7.027 0-12.432 5.405-12.432 12.432s5.405 12.432 12.432 12.432 12.432-5.405 12.432-12.432-5.405-12.432-12.432-12.432m0 33.514c-7.027 0-12.973 5.946-12.973 12.973s5.946 12.973 12.973 12.973 12.973-5.946 12.973-12.973-5.946-12.973-12.973-12.973m0 34.054c-7.027 0-12.432 5.405-12.432 12.432s5.405 12.432 12.432 12.432 12.432-5.405 12.432-12.432c0-6.486-5.405-12.432-12.432-12.432m0 34.595c-6.486 0-11.892 5.405-11.892 11.892s5.405 11.892 11.892 11.892 11.892-5.405 11.892-11.892-5.405-11.892-11.892-11.892m32.973-103.78c-7.568 0-14.054 6.487-14.054 14.054s6.487 14.054 14.054 14.054 14.054-6.486 14.054-14.054-6.486-14.054-14.054-14.054m0 33.514a14.534 14.534 0 0 0-14.595 14.595c0 8.108 6.487 14.595 14.595 14.595s14.595-6.486 14.595-14.595a14.534 14.534 0 0 0-14.595-14.595m0 34.054c-7.568 0-14.054 6.487-14.054 14.054s6.487 14.054 14.054 14.054 14.054-6.486 14.054-14.054-6.486-14.054-14.054-14.054m34.054-35.676c-8.649 0-16.216 7.027-16.216 16.216 0 8.649 7.027 16.216 16.216 16.216s16.216-7.027 16.216-16.216c-.54-9.19-7.568-16.216-16.216-16.216M59.245 51.41c-5.946 0-10.811 4.865-10.811 10.811s4.865 10.811 10.811 10.811 10.811-4.865 10.811-10.811S65.191 51.41 59.245 51.41m0 33.514c-6.486 0-11.351 4.865-11.351 11.351s4.865 11.351 11.351 11.351 11.351-4.865 11.351-11.351-4.865-11.351-11.351-11.351m0 34.054c-5.946 0-10.811 4.865-10.811 10.811S53.299 140.6 59.245 140.6s10.811-4.865 10.811-10.811-4.865-10.811-10.811-10.811M25.731 86.546a9.69 9.69 0 0 0-9.73 9.73 9.69 9.69 0 0 0 9.73 9.73 9.69 9.69 0 0 0 9.73-9.73 9.69 9.69 0 0 0-9.73-9.73"/></svg>