<svg xmlns="http://www.w3.org/2000/svg" width="192" height="192" viewBox="0 0 192 192"><path d="M34.348 153.66c.208-22.617.48-32.162 1.408-49.122 2.24-40.986 6.632-69.683 12.97-84.868.8-1.904 1.6-3.504 1.767-3.552.176-.056 6.344 8.344 13.713 18.657L77.591 53.52l1.92-.176c11.225-1.056 24.977-1.072 32.226-.056 3.44.48 3.713.48 4.217-.064.296-.32 6.448-8.825 13.665-18.905 7.224-10.081 13.193-18.321 13.265-18.321.272 0 1.872 3.416 2.872 6.12 5.048 13.69 8.56 35.402 11.057 68.355 1.288 17.025 1.376 24.561.344 30.298-3.265 18.097-12.21 29.841-25.305 33.226l-2.824.728 1.624 21.273h-96.51zm76.436-33.394H82.231l14.345 18.169m35.578-28.473c1.104-.32 3.288-1.2 4.856-1.968 2.28-1.12 3.408-1.968 5.705-4.264 4.6-4.625 6.664-9.6 6.672-16.081a21.6 21.6 0 0 0-2.432-10.401c-1.784-3.68-5.88-7.92-9.457-9.777a23.6 23.6 0 0 0-19.625-1.04 23.12 23.12 0 0 0-13.225 14.337c-1.24 3.76-1.304 9.529-.16 13.217.928 2.96 1.728 4.616 3.272 6.784l1.128 1.592H84.12l1.129-1.592a20.8 20.8 0 0 0 3.272-6.784c1.152-3.68 1.08-9.448-.16-13.217A23.12 23.12 0 0 0 71.16 65.191a26.8 26.8 0 0 0-10.705.344c-3.813.97-7.272 3-9.977 5.856-4.672 4.68-6.512 8.825-6.776 15.233-.184 4.72.352 7.337 2.336 11.385 1.12 2.273 1.976 3.425 4.256 5.705 3.856 3.84 7.84 5.896 12.913 6.648 1.104.16 16.61.272 34.466.24 29.705-.056 32.642-.104 34.482-.64m-70.244-8.296a14.96 14.96 0 0 1-10.016-11.81c-1.056-6.184 2.328-12.536 8.24-15.456 7.345-3.633 16.45-.56 19.762 7.168.848 1.984 1.208 2.4 1.248 6.064.024 2.64-.288 3.44-1.28 6.113-1.536 4.176-5.465 7.048-9.585 8.152a16 16 0 0 1-8.36-.232zm60.667.208a14.96 14.96 0 0 1-9.44-8.129c-.976-2.2-1.376-2.616-1.296-6.112.08-3.624.344-3.984 1.28-6.064 3.35-7.575 12.334-10.834 19.76-7.169 5.913 2.92 9.305 9.28 8.241 15.457-1.248 7.305-7.384 12.561-14.56 12.481a20 20 0 0 1-3.977-.464zM59.014 56.808a407 407 0 0 0 8.953-1.784c.08-.072-13.985-20.321-14.745-21.241-.296-.353-.904 2.416-2.632 11.88a743 743 0 0 0-2.265 12.794c-.016.304.256.384.897.256zm86.356 1.784c0-.136-1.032-5.889-2.28-12.785l-2.264-12.53-.864 1.153c-3.384 4.528-14.305 20.577-14.057 20.657.456.152 18.577 3.704 19.057 3.728.232.016.416-.08.408-.224"/></svg>