<svg width="192" height="192" fill="none" xmlns="http://www.w3.org/2000/svg"><path d="M65.446 63.914c-4.02 12.295-8.039 24.59-9.614 38.793-1.574 14.203-.708 30.311.882 41.018 1.586 10.704 3.899 16.007 7.282 20.3 3.383 4.293 7.836 7.585 15.268 5.14 7.433-2.445 17.838-10.628 26.684-21.036 8.845-10.409 16.123-23.044 20.455-33.154 4.34-10.11 5.734-17.692 7.128-25.277M65.446 63.914c-4.294.71-8.593 1.421-9.629-.948-1.036-2.37 1.19-7.824 4.811-12.57 3.62-4.748 8.63-8.807 14.033-10.746 5.402-1.939 11.196-1.765 16.346-.317 5.15 1.447 9.659 4.168 13.128 6.954 3.47 2.785 5.896 5.643 8.326 8.492m-47.015 9.135c7.022-1.564 14.04-3.13 17.31-3.137 3.267 0 2.78 1.561 2.913 5.371.128 3.81.874 9.864 2.41 14.434 1.534 4.57 3.858 7.646 6.247 9.596 2.384 1.946 4.837 2.767 7.73 2.532 2.889-.227 6.22-1.504 9.825-4.633 3.605-3.137 7.485-8.123 9.938-9.725 2.452-1.603 3.473.174 5.187 2.63 1.714 2.457 4.122 5.587 6.525 8.716m0 0c3.323 4.021 6.642 8.039 9.32 7.952 2.679-.087 4.713-4.286 5.617-9.018.9-4.728.667-9.993-.769-14.906-1.435-4.91-4.076-9.468-7.696-12.794-3.62-3.326-8.22-5.416-12.974-6.236-4.754-.816-9.663-.366-14.572.083m1.824-7.317c.779-3.023 1.563-6.047 2.768-8.84a32.898 32.898 0 0 1 4.676-7.593 33.184 33.184 0 0 1 5.831-5.665c1.967-1.455 3.862-2.408 5.76-3.364" stroke="#000" stroke-width="12" stroke-linecap="round" stroke-linejoin="round"/></svg>