<svg xmlns="http://www.w3.org/2000/svg" width="192" height="192" viewBox="0 0 192 192"><path d="M129.96 16c-17.209 9.286-25.855 33.473-25.855 33.473s-1.022-.622-1.082-.63c-4.208-8.52-17.063-17.815-30.617-14.782-7.752 1.738-15.386 7.786-19.449 12.693-3.68 4.43-5.23 9.993-5.367 13.111-.137 3.041 2.54 2.982 3.596 2.727 12.557-3.093 16.526-4.507 28.453-5.06.068 3.381-4.387 29.517 12.184 35.183 13.29 4.54 24.458-9.967 27.977-16.646 10.802 9.942 16.067 18.333 18.504 20.957 2.428 2.607 5.707-2.709 5.707-2.709s8.69-12.036-2.973-31.92c-8.093-10.444-16.953-13.307-30.328-10.402-1.048-.613-1.773-.75-2.012-.818.281-5.282 10.087-25.541 21.375-32.348 2.292-2.53.477-2.683-.111-2.828zM72.167 66.076c-2.965.383-11.381 1.66-17.379 4.77-4.89 10.154-11.509 29.732-9.559 58.92 3.016 44.997 18.334 45.883 20.098 46.054.452.043 15.48 4.029 38.855-27.816 15.31-20.855 22.056-39.145 24.867-49.104-2.164-4.924-8.263-11.816-8.263-11.816l-.01.008c-5.027 7.676-13.357 14.936-22.855 14.936-15.386 0-26.18-14.482-26.18-30.754q0-2.65.425-5.197z"/></svg>