<svg xmlns="http://www.w3.org/2000/svg" width="192" height="192"><path d="M72.782 38.509v9.712h27.922v9.712h9.712V48.22h18.21v-9.712zm55.844 9.712v9.712h9.712V48.22zm9.712 9.712v9.712h9.712v-9.712zm9.712 9.712v27.922h-37.605v9.712h55.844v-9.712h-8.527V67.645zm18.238 37.634v9.712H176v-9.712zm0 9.712h-55.844v9.712h46.132v9.711h9.712zm-9.712 19.424h-46.132v9.365h-47.1v9.712h47.1v-9.365h46.132zm-93.231 9.365v-9.712h-18.21v9.712zm-18.21-9.712v-9.712h18.21v-9.711H35.423v19.424zm-9.712-19.424v-9.712h-9.712v9.712zm-9.712-9.712V77.356H16v27.576zm0-27.576h37.634v-9.711h-8.773v-9.712H44.86v9.712H25.711zm28.861-19.424h18.21v-9.711h-18.21zm8.773 19.424v9.712h9.712v-9.712zm9.712 9.712v17.864h9.712V87.068zm0 17.864h-9.712v9.712h9.712zm37.387 29.482v-9.711h-9.712v9.711zm-9.712-9.711v-9.712H91.02v9.712zm0-9.712h9.712v-9.712h-9.712zm9.712-19.424v-9.712h-9.712v9.712zm27.893-27.922h-9.712v19.424h9.712zm-37.634-9.712h-9.712v27.922h9.712z"/></svg>