<svg xmlns="http://www.w3.org/2000/svg" width="192" height="192" viewBox="0 0 192 192"><path d="M101.48 37.732 79.087 85.894l96.915-48.162zm30.905 53.178-24.025 2.096q.36 2.976 0 5.952l24.025 2.096q.528-4.888 0-10.144m-36.153 31.37 15.512 18.424c3.84-3.264 7.344-7.112 10.264-11.2l-19.713-13.872a36 36 0 0 1-6.064 6.649M68.358 62.335a35.2 35.2 0 0 1 12.128 0l10.376-22.273a58.4 58.4 0 0 0-26.705-1.52C41.18 42.622 23.692 59.775 17.98 80.999l23.32 6.296a34.4 34.4 0 0 1 27.058-24.961m11.896 67.41a28.8 28.8 0 0 1-8.865.352l-2.096 24.025a56 56 0 0 0 15.16-.704l5.009-1.04-6.297-23.33c-.928.233-1.984.465-2.912.697M48.18 117.968 29.635 133.48A59.2 59.2 0 0 0 49.7 148.872l10.144-21.81a35.2 35.2 0 0 1-11.664-9.095m-7.576-15.977a28.8 28.8 0 0 1-.352-8.865L16.227 90.91a56 56 0 0 0 .696 15.16 60.8 60.8 0 0 0 4.552 14.576l21.81-10.144a40 40 0 0 1-2.68-8.512"/></svg>