<svg xmlns="http://www.w3.org/2000/svg" width="192" height="192" viewBox="0 0 192 192"><path d="M96.024 19C55.058 19 21.7 52.136 21.392 92.989H38.27c.31-31.552 26.098-57.119 57.754-57.119s57.451 25.568 57.762 57.119h16.878C170.354 52.136 136.989 19 96.024 19m0 23.469c-28.205 0-51.146 22.921-51.146 51.097v5.257H21.335v33.341C21.335 154.68 39.672 173 62.211 173h67.471c22.539 0 40.876-18.321 40.876-40.836V98.823h-23.38v-5.257c0-28.175-22.95-51.097-51.154-51.097m.008 16.862c18.897 0 34.268 15.358 34.268 34.236v5.257H61.755v-5.257h.008c0-18.876 15.372-34.236 34.268-34.236z"/></svg>