<svg xmlns="http://www.w3.org/2000/svg" width="192" height="192" viewBox="0 0 192 192"><path d="M110.35 16a3.044 3.044 0 0 0-3.043 3.043v21.74a3.044 3.044 0 0 0 6.086 0v-21.74A3.044 3.044 0 0 0 110.35 16m-13.913 6.954a3.044 3.044 0 0 0-3.043 3.044V40.85a3.044 3.044 0 0 0 6.086 0V25.998a3.044 3.044 0 0 0-3.043-3.044m-13.908 6.873a3.044 3.044 0 0 0-3.043 3.043v7.959a3.044 3.044 0 0 0 6.086 0V32.87a3.044 3.044 0 0 0-3.043-3.043M68.174 54.26a3.474 3.474 0 0 0-3.48 3.48v6.954a3.474 3.474 0 0 0 3.48 3.48h55.653a3.474 3.474 0 0 0 3.48-3.48V57.74a3.474 3.474 0 0 0-3.48-3.48zm0 20.867c-1.926 0-3.48 1.406-3.48 3.145v3.145q-.002.54.01 1.08c.01.36.027.73.061 1.09q.026.275.071.548c.03.183.058.366.102.548q.06.279.147.558c.087.28.114.376.188.563s.144.38.243.568l.974 1.841 9.982 16.76a20 20 0 0 1 1.34 4.214c.795 3.913.796 9.278.796 14.64v43.91c0 .718-.013 1.894.121 2.603a6.93 6.93 0 0 0 5.54 5.538c.704.135 1.88.122 2.601.122h18.26c.722 0 1.898.013 2.602-.122a6.93 6.93 0 0 0 5.54-5.538c.134-.71.121-1.885.121-2.603v-43.91c0-5.361 0-10.727.796-14.64.237-1.163.541-2.205.898-3.15l10.231-18.092 1.01-1.74a10 10 0 0 0 .466-1.025 7 7 0 0 0 .294-.994 10 10 0 0 0 .153-.979q.044-.487.055-.969c.01-.321.01-.646.01-.963v-3.003c0-1.74-1.553-3.145-3.48-3.145zM96 113.387a3.474 3.474 0 0 1 3.48 3.48v13.913a3.474 3.474 0 0 1-3.48 3.48 3.474 3.474 0 0 1-3.48-3.48v-13.913a3.474 3.474 0 0 1 3.48-3.48"/></svg>