<svg width="192" height="192" fill="none" xmlns="http://www.w3.org/2000/svg"><path d="M123 96c-3.214-6-9.107-9-15-9-9.356 0-15 6-15 14s7.5 12 15 14 15 6 15 14-5.644 14-15 14c-5.893 0-11.786-3-15-9" stroke="#000" stroke-width="12" stroke-linecap="round" stroke-linejoin="round"/><path d="M25 31a6 6 0 0 1 6-6h130a6 6 0 0 1 6 6v130a6 6 0 0 1-6 6H31a6 6 0 0 1-6-6V31Zm0 20h142" stroke="#000" stroke-width="12" stroke-linecap="round" stroke-linejoin="round"/><path d="M49 143V81a6 6 0 0 1 6-6h26m-10 31H49" stroke="#000" stroke-width="12" stroke-linecap="round" stroke-linejoin="round"/></svg>