<svg xmlns="http://www.w3.org/2000/svg" width="192" height="192" viewBox="0 0 192 192"><path d="M68.136 40.752a48.8 48.8 0 0 1 20.432 4.672 45.36 45.36 0 0 1 29.528 5.496q3.72-.728 7.632-.736c23.712 0 42.936 20.512 42.936 45.816s-19.224 45.816-42.936 45.816a40 40 0 0 1-7.616-.728 45.36 45.36 0 0 1-29.464 5.504q-5.168 2.44-10.768 3.64a48 48 0 0 1-9.864 1.024h56.208C152.816 151.256 176 126.512 176 96s-23.184-55.248-51.776-55.248zM16.056 97.64q.016.784.056 1.552-.04-.768-.056-1.552m2.872 10.52q.432.768.88 1.52-.448-.752-.88-1.52m2.704 4.4.536.792zm4.96 6.256.488.544zm11.88 9.68.64.368-.64-.376m3.12 1.184q.4.128.824.24-.424-.112-.832-.24"/><path d="M67.8 40.736a48.8 48.8 0 0 0-19.832 4.192c-6.288 2.768-12 6.848-16.808 11.976a56 56 0 0 0-11.24 17.944A58.4 58.4 0 0 0 16 96c0 10.928 3.032 21.624 8.72 30.72a52.8 52.8 0 0 0 23.24 20.36 48.8 48.8 0 0 0 40.712-.488C65.456 143.048 47.608 121.752 47.608 96c0-25.728 17.816-47.016 40.992-50.592a48.8 48.8 0 0 0-20.8-4.664z" opacity=".6"/><path d="M95.504 44.88c-26.456 0-47.896 22.88-47.896 51.12s21.44 51.12 47.896 51.12a45.36 45.36 0 0 0 22.608-6.032C98.032 137.248 82.8 118.528 82.8 96c0-22.52 15.232-41.232 35.296-45.08a45.36 45.36 0 0 0-22.592-6.04" opacity=".8"/></svg>