<svg xmlns="http://www.w3.org/2000/svg" width="192" height="192" viewBox="0 0 192 192"><path d="M173.31 40.809h-.152a6.32 6.32 0 0 0-8.8 1.408l-6.745 9.153 8.016 10.88 9.057-12.64a6.32 6.32 0 0 0-1.408-8.8m1.408 42.851-9.057-12.633-7.92 10.881 6.736 9.281a6.32 6.32 0 0 0 8.801 1.4h.16a6.32 6.32 0 0 0 1.4-8.8m-56.565-28.324h-8.465v-10.16a5.12 5.12 0 0 1 5.08-5.09h3.385a5.11 5.11 0 0 1 5.08 5.081v5.08a5.12 5.12 0 0 1-5.08 5.081m5.08 37.627h-13.544V65.482a5.12 5.12 0 0 1 5.08-5.088h8.465zm-41.347-10.88a2.48 2.48 0 0 1-2.465-2.465V45.321a5.097 5.097 0 0 0-5.152-5.104h-8.513V87.98a5.11 5.11 0 0 0 5.105 5.104h27.779a5.12 5.12 0 0 0 5.104-5.112v-5.769zM21.08 40.215A5.08 5.08 0 0 0 16 45.273v47.812h13.52V72.307h19.162a5.08 5.08 0 0 0 5.08-5.08v-5.713h-24.24v-7.945a2.46 2.46 0 0 1 2.464-2.464h22.962c2.8 0 5.08-2.28 5.08-5.08v-5.801zm141.25 26.426-7.897-10.88-9.865-13.65a6.32 6.32 0 0 0-8.809-1.4h-.152a6.32 6.32 0 0 0-1.4 8.801l12.33 17.002-12.33 17.018a6.345 6.345 0 0 0 1.376 8.833h.152a6.32 6.32 0 0 0 8.801-1.4l7.4-10.017zm-21.538 43.02h17.098a5.09 5.09 0 0 0 5.056-5.064v-5.745h-22.202a16.16 16.16 0 0 0-15.84 16.161 15.713 15.713 0 0 0 15.768 15.641h6.985a5.129 5.129 0 0 1 0 10.241h-22.21v5.745a5.08 5.08 0 0 0 5.056 5.056h17.266a16.16 16.16 0 0 0 15.89-16.16 15.68 15.68 0 0 0-15.642-15.642h-7.105a5.129 5.129 0 0 1 0-10.24M119.526 98.9h-5.968a4.937 4.937 0 0 0-4.937 4.937v31.379c0 4.512-3.112 7.4-8.464 7.4h-2.465c-5.36 0-8.456-3.008-8.456-7.4V98.91H83.21a4.937 4.937 0 0 0-4.937 4.928v33.155c0 9.297 6.393 15.49 17.442 15.49h6.401c11.041 0 17.434-6.193 17.434-15.49l-.024-38.084zm-86.144.048a5.08 5.08 0 0 0-5.056 5.065v42.7a5.08 5.08 0 0 0 5.056 5.056h23.21c9.65 0 15.465-5.624 15.465-15.273a14.64 14.64 0 0 0-4.24-10.753h.024a32 32 0 0 0-1.328-1.088 14.08 14.08 0 0 0 3.6-10.36c0-9.642-6.24-15.346-15.889-15.346zm5.745 8.561H51.84a6.169 6.169 0 1 1 0 12.337h-8.337a4.4 4.4 0 0 1-4.368-4.368zm-.048 21.882H53.36a6.88 6.88 0 0 1 0 13.761v.056h-9.337a4.937 4.937 0 0 1-4.936-4.936z"/></svg>