<svg width="192" height="192" fill="none" xmlns="http://www.w3.org/2000/svg"><path d="M147 85a51 51 0 1 0-102 0" stroke="#000" stroke-width="12" stroke-linecap="round" stroke-linejoin="round"/><path d="M122 156c0-3.414-.673-6.795-1.979-9.95a26.023 26.023 0 0 0-5.636-8.435 26.015 26.015 0 0 0-28.335-5.636 26.011 26.011 0 0 0-14.07 14.071A26.005 26.005 0 0 0 70 156" stroke="#000" stroke-width="10" stroke-linecap="round" stroke-linejoin="round"/><circle cx="78" cy="63" r="4" stroke="#000" stroke-width="8" stroke-linecap="round" stroke-linejoin="round"/><circle cx="114" cy="63" r="4" stroke="#000" stroke-width="8" stroke-linecap="round" stroke-linejoin="round"/><path d="M96 86v44m-26 26v15l14-15 12 15 12-15 14 15v-15" stroke="#000" stroke-width="10" stroke-linecap="round" stroke-linejoin="round"/><path d="m64 22 9 15m55-15-9 15M45 85h102" stroke="#000" stroke-width="12" stroke-linecap="round" stroke-linejoin="round"/><path d="M83.754 88.436A32 32 0 0 1 96 86s0 32-32 32a32.003 32.003 0 0 1 19.754-29.564Zm24.492 0A32.003 32.003 0 0 0 96 86s0 32 32 32a32.007 32.007 0 0 0-9.373-22.627 31.996 31.996 0 0 0-10.381-6.937Z" stroke="#000" stroke-width="10" stroke-linecap="round" stroke-linejoin="round"/></svg>