<svg width="192" height="192" fill="none" xmlns="http://www.w3.org/2000/svg"><path d="M144 153v12c0 1.591.632 3.117 1.757 4.243A6.003 6.003 0 0 0 150 171h12a9 9 0 1 0 0-18h-18Zm0 0v-11.999c0-1.591.632-3.117 1.757-4.243a6.003 6.003 0 0 1 4.243-1.757h8M158 153a9 9 0 1 0 0-18" stroke="#000" stroke-width="10" stroke-miterlimit="6" stroke-linecap="round" stroke-linejoin="round"/><path d="M109 42H93a6 6 0 0 0-6 6v28m0-16h15" stroke="#000" stroke-width="10" stroke-linecap="round" stroke-linejoin="round"/><path d="M34 82h-5a6 6 0 0 0-6 6v76a6.002 6.002 0 0 0 6 6h96m33-88h5a6.002 6.002 0 0 1 6 6v30" stroke="#000" stroke-width="12" stroke-linecap="round" stroke-linejoin="round"/><path d="M126 150H66" stroke="#000" stroke-width="10" stroke-linecap="round" stroke-linejoin="round"/><path d="M136 79.674V28a6 6 0 0 0-6-6H62a6 6 0 0 0-6 6v51.674a6 6 0 0 0 2.82 5.088l34 21.251a6 6 0 0 0 6.36 0l34-21.25a5.998 5.998 0 0 0 2.82-5.089Z" stroke="#000" stroke-width="12" stroke-linecap="round" stroke-linejoin="round"/><path d="M48 109a4 4 0 1 0 0-8 4 4 0 0 0 0 8Zm96 0a4 4 0 1 0 0-8 4 4 0 0 0 0 8Zm-96 24a4 4 0 1 0 0-8 4 4 0 0 0 0 8Zm48 0a4 4 0 1 0 0-8 4 4 0 0 0 0 8Zm24 0a4 4 0 1 0 0-8 4 4 0 0 0 0 8Zm-48 0a4 4 0 1 0 0-8 4 4 0 0 0 0 8Z" stroke="#000" stroke-width="8" stroke-linecap="round" stroke-linejoin="round"/></svg>