<svg xmlns="http://www.w3.org/2000/svg" width="192" height="192" viewBox="0 0 192 192"><path d="M63.984 19c-7.649 0-13.836 6.196-13.836 13.836v53.79a8.65 8.65 0 0 0 3.275 6.784l41.508 32.885a1.71 1.71 0 0 0 2.14 0l41.507-32.885a8.66 8.66 0 0 0 3.275-6.784v-53.79c0-7.64-6.187-13.836-13.836-13.836zm32.401 11.814a1.7 1.7 0 0 1 1.07.334c9.462 6.999 14.175 15.12 16.76 23.127a1.71 1.71 0 0 1-.753 1.939l-3.108 1.804c-.641.377-1.282.067-1.453-.651-2.028-8.676-5.568-13.695-11.513-19.016a1.54 1.54 0 0 0-2.006 0c-5.946 5.33-9.502 10.34-11.53 19.016-.17.718-.812 1.02-1.453.651l-3.109-1.804a1.71 1.71 0 0 1-.751-1.939c2.583-8.008 7.297-16.128 16.76-23.127a1.7 1.7 0 0 1 1.086-.334m0 9.876c.342 0 .687.127.952.384 4.372 4.363 7.981 9.306 10.06 17.228a2.31 2.31 0 0 1-.702 2.156c-4.252 3.653-6.708 6.845-9.609 11.38-.393.616-1.026.616-1.42 0-2.909-4.535-5.356-7.727-9.608-11.38a2.31 2.31 0 0 1-.702-2.156c2.079-7.922 5.704-12.856 10.076-17.228.256-.257.602-.384.952-.384zM60.826 52.554c13.552.821 28.171 8.046 35.041 23.712.3.684.72.684 1.02 0 6.87-15.657 21.48-22.89 35.04-23.712a1.283 1.283 0 0 1 1.337 1.286v3.326c0 .735-.6 1.377-1.337 1.454-27.429 2.797-32.573 23.235-32.35 38.567a1.283 1.283 0 0 1-1.304 1.336H94.48a1.283 1.283 0 0 1-1.304-1.336C93.4 81.855 88.238 61.409 60.81 58.62a1.49 1.49 0 0 1-1.32-1.454V53.84c0-.735.593-1.33 1.337-1.286m.084 8.154.25.017c28.43 4.945 30.052 24.962 30.462 36.144.026.736-.526 1.2-1.236 1.002-21.68-5.869-28.574-24.1-30.362-36.044-.086-.641.304-1.093.885-1.12zm70.75 0c.581.026.963.487.869 1.12-1.78 11.952-8.666 30.175-30.345 36.044-.72.188-1.28-.267-1.254-1.003.411-11.182 2.033-31.199 30.462-36.144zM29.38 75.23c-5.733 0-10.377 4.662-10.377 10.394v77c0 5.732 4.644 10.377 10.377 10.377h133.25c5.732 0 10.377-4.644 10.377-10.377v-77c0-5.732-4.645-10.394-10.377-10.394h-12.215v11.396c0 3.371-.994 6.611-2.791 9.374h1.821c.959 0 1.738.772 1.738 1.722v10.394a1.71 1.71 0 0 1-1.738 1.72h-10.377a1.71 1.71 0 0 1-1.737-1.72v-2.808l-18.832 14.922h6.717c.958 0 1.738.772 1.738 1.721v10.377a1.745 1.745 0 0 1-1.738 1.738h-10.394a1.745 1.745 0 0 1-1.738-1.738v-7.82l-10.71 8.489a10.35 10.35 0 0 1-12.75 0l-11.13-8.806v8.137a1.745 1.745 0 0 1-1.72 1.738H66.395a1.745 1.745 0 0 1-1.738-1.738V121.95c0-.958.78-1.72 1.738-1.72h7.119l-19.233-15.24v3.124a1.71 1.71 0 0 1-1.738 1.721H42.167a1.71 1.71 0 0 1-1.738-1.72V97.72c0-.958.78-1.721 1.738-1.721h2.222a17.1 17.1 0 0 1-2.79-9.374V75.229zm12.783 45H52.54a1.73 1.73 0 0 1 1.737 1.721v10.377a1.745 1.745 0 0 1-1.737 1.738H42.163a1.745 1.745 0 0 1-1.738-1.738V121.95c0-.95.78-1.72 1.738-1.72m96.902 0h10.377a1.73 1.73 0 0 1 1.737 1.721v10.377a1.745 1.745 0 0 1-1.737 1.738h-10.377a1.745 1.745 0 0 1-1.738-1.738V121.95c0-.95.78-1.704 1.738-1.704zm-83.066 24.23h79.607c.95 0 1.704.788 1.704 1.738v10.377a1.71 1.71 0 0 1-1.704 1.738H55.999a1.71 1.71 0 0 1-1.722-1.738v-10.377c0-.95.772-1.738 1.722-1.738"/></svg>