<svg xmlns="http://www.w3.org/2000/svg" width="192" height="192" viewBox="0 0 192 192"><path d="M29.257 55.238c-5.562 2.133-9.448 7.771-9.448 14.095v91.429A15.24 15.24 0 0 0 35.047 176h121.9a15.24 15.24 0 0 0 15.238-15.238V69.333a15.185 15.185 0 0 0-15.238-15.238H67.804l62.933-25.448-5.18-12.648zm28.648 105.52c-12.648 0-22.857-10.21-22.857-22.857s10.21-22.857 22.857-22.857 22.857 10.21 22.857 22.857-10.21 22.857-22.857 22.857m99.048-60.952h-15.238V84.568h-15.238v15.238H35.048V69.33h121.9z"/></svg>