<svg width="191" height="192" fill="none" xmlns="http://www.w3.org/2000/svg"><path d="M31.833 47.729c0-19.801 21.255-32.159 38.22-22.22l82.406 48.27c16.902 9.901 16.902 34.541 0 44.441l-82.406 48.272c-16.965 9.937-38.22-2.42-38.22-22.221V47.729Z" stroke="#000" stroke-width="12" stroke-linecap="round" stroke-linejoin="round"/><path d="M103.458 81c0-3.02-.592-6.011-1.741-8.802a23.012 23.012 0 0 0-4.96-7.461 22.872 22.872 0 0 0-7.423-4.986 22.776 22.776 0 0 0-17.512 0 22.874 22.874 0 0 0-7.423 4.986 23.01 23.01 0 0 0-4.96 7.461A23.105 23.105 0 0 0 57.699 81m-.001 30c0 6.1 2.41 11.95 6.701 16.263A22.818 22.818 0 0 0 80.58 134a22.817 22.817 0 0 0 16.178-6.737 23.058 23.058 0 0 0 6.7-16.263m0-30v30m-22.88 23v25m-22.88-78v30m.995-33h9.948m17.906 0h15.917m-43.771 36h9.948m17.906 0h15.917M57.698 96H68.64m17.907 0h16.911" stroke="#000" stroke-width="10" stroke-linecap="round" stroke-linejoin="round"/></svg>