<svg width="192" height="192" fill="none" xmlns="http://www.w3.org/2000/svg"><path d="M32 47.729c0-19.801 21.366-32.159 38.42-22.22l82.837 48.27c16.99 9.901 16.991 34.541.001 44.441L70.42 166.492C53.366 176.429 32 164.072 32 144.271V47.729Z" stroke="#000" stroke-width="12" stroke-linecap="round" stroke-linejoin="round"/><path d="M104 81a22.998 22.998 0 0 0-14.198-21.25A23 23 0 0 0 58 81m0 30a22.998 22.998 0 0 0 39.263 16.263A22.998 22.998 0 0 0 104 111m0-30v30m-23 23v25M58 81v30m1-33h10m18 0h16m-44 36h10m18 0h16M58 96h11m18 0h17" stroke="#000" stroke-width="10" stroke-linecap="round" stroke-linejoin="round"/></svg>