<svg xmlns="http://www.w3.org/2000/svg" width="192" height="192" viewBox="0 0 192 192"><path d="M77.88 16a19.133 16.67 0 0 0-19.134 16.67A19.133 16.67 0 0 0 77.88 49.34a19.133 16.67 0 0 0 8.112-1.573 18.126 15.748 0 0 0 13.946 5.689 18.126 15.748 0 0 0 5.709-.802 12.7 12.7 0 0 0 10.028 4.909 12.7 12.7 0 0 0 9.74-4.553c6.697-.57 6.874 2.917 7.114 12.575.022.869.64.994.657 1.977h-2.814a.477.477 0 0 0-.478.478v1.709l2.1 3.341v4.08H99.972v-4.854a4.773 4.773 0 0 0-4.783-4.784h-4.784a4.773 4.773 0 0 0-4.783 4.784v4.853H62.14v-9.637H37.708v9.637a2.41 2.41 0 0 1 3.903 0V96.46h-3.416a.955.955 0 0 0-.956.957v5.264h4.387c.265 0 .478.213.478.478v.342a.477.477 0 0 1-.478.478h-4.387v12.364c0 .53.426.957.956.957h1.875a10.82 10.82 0 0 0-2.936 7.425c0 3.736 1.922 7.21 5.088 9.195H34.64v5.804l123.44.056v-.478h-.862l-9.945-10.037v4.655h-4.094a10.85 10.85 0 0 0 5.089-9.195c0-2.872-1.116-5.484-2.937-7.425h9.43c.53 0 .957-.427.957-.957v-9.352a.955.955 0 0 0-.956-.956h-5.04V77.169h-7.239v-4.08l2.1-3.34v-1.71a.477.477 0 0 0-.478-.478h-3.421c-1.945-14.107-3.106-25.07-17.941-33.245h-.003a12.7 12.7 0 0 0-5.803-2.084 18.126 15.748 0 0 0-16.996-10.273 18.126 15.748 0 0 0-6.474 1.039 19.133 16.67 0 0 0-15.584-6.999zm-.58 2.553c3.888-.067 7.696 1.338 11.609 4.378-6.594-2.495-13.278-2.887-20.915-1.626 3.208-1.758 6.281-2.7 9.305-2.752zm23.692 4.274c4.033-.05 9.152 1.966 13.289 8.512-8.494-5.77-5.125-5.53-17.922-7.396 1.19-.644 2.8-1.094 4.633-1.116m20.82 31.594c-3.903 2.727-7.258 2.91-12.62.1 6.62.536 4.72 1.46 12.62-.1M48.33 81.47h19.044c.057 0 .124.05.103.104l-2.138 5.39c-.021.053-.046.102-.103.102h-10.64v5.097h10.658c.047 0 .083.037.083.084v4.379a.08.08 0 0 1-.083.083H54.596v10.214a.477.477 0 0 1-.478.478h-5.789a.477.477 0 0 1-.478-.478V81.951c0-.265.213-.478.478-.478zm74.735 0h16.247c.29 0 .504.136.724.326l2.589 2.23c.174.15.215.385.215.615v19.648c0 .23-.04.467-.215.615l-2.59 2.172c-.222.187-.432.325-.723.325h-16.247a.524.524 0 0 1-.525-.525v-24.88c0-.29.234-.525.525-.525m-41.613 1.15a11.117 11.117 0 0 1 11.116 11.116 11.117 11.117 0 0 1-11.116 11.117 11.117 11.117 0 0 1-11.117-11.117A11.117 11.117 0 0 1 81.45 82.621m25.552 0a11.117 11.117 0 0 1 11.116 11.116 11.117 11.117 0 0 1-11.116 11.117 11.117 11.117 0 0 1-11.117-11.117 11.117 11.117 0 0 1 11.117-11.116m22.979 5.28a.477.477 0 0 0-.479.478v12.116c0 .265.214.478.479.478h4.378a.477.477 0 0 0 .478-.478V88.38a.477.477 0 0 0-.478-.478zM48.03 112.099h95.67c.266 0 .48.213.48.478v.957a.477.477 0 0 1-.48.478H48.03a.477.477 0 0 1-.479-.478v-.957c0-.265.214-.478.479-.478m13.275 5.202h8.575a10.8 10.8 0 0 0-2.81 5.765zm24.407 0h13.976a10.82 10.82 0 0 0-2.937 7.425c0 1.79.443 3.552 1.289 5.129l-11.355-11.356a11 11 0 0 0-.973-1.198m29.808 0h13.976a10.82 10.82 0 0 0-2.937 7.425c0 3.736 1.923 7.21 5.089 9.195h-6.649l-6.808-6.808c.177-.784.265-1.584.265-2.387 0-2.872-1.115-5.484-2.936-7.425m-59.026.686 11.598 11.598a10.85 10.85 0 0 0 3.939 4.336H53.75a10.853 10.853 0 0 0 2.743-15.935zm18.673.614h6.292a2.715 2.715 0 0 1 2.72 2.72v9.241a2.715 2.715 0 0 1-2.72 2.72h-6.292a2.715 2.715 0 0 1-2.72-2.72v-9.24a2.715 2.715 0 0 1 2.72-2.72m26.536.212h10.777c.265 0 .478.214.478.479v13.725a.477.477 0 0 1-.478.478h-3.846V123.17a.477.477 0 0 0-.478-.478h-2.13a.477.477 0 0 0-.478.478v10.325h-3.845a.477.477 0 0 1-.478-.478v-13.725c0-.265.213-.479.478-.479m-24.455 3.589a.477.477 0 0 0-.479.478v6.548c0 .265.214.478.479.478h2.13a.477.477 0 0 0 .478-.478v-6.548a.477.477 0 0 0-.478-.478zm11.337 3.493 8.025 8.026H83.56a10.85 10.85 0 0 0 5.025-8.026m27.712 5.329 2.697 2.697h-5.625a10.9 10.9 0 0 0 2.928-2.697m-80.61 4.897h15.478l2.037 3.134-18.18-.008v-2.375zm23.644 0h17.284v3.144l-17.284-.007zm23.264 0h17.283v3.155l-17.283-.008zm23.263 0h17.283v3.165l-17.283-.007zm23.263 0h18.15v3.177l-18.15-.008zm-94.718 10.22a.477.477 0 0 0-.479.478v5.62c0 .264.214.478.479.478h5.917v22.604c0 .265.213.478.478.478h5.74a.477.477 0 0 0 .479-.478v-22.604h6.467a.477.477 0 0 0 .478-.479v-5.619a.477.477 0 0 0-.478-.478H40.798zm23.083 0a.477.477 0 0 0-.479.478v28.702c0 .265.214.479.479.479h5.827a.477.477 0 0 0 .478-.479v-22.265a.34.34 0 0 1 .34-.34h5.476a.34.34 0 0 1 .34.34v4.636a.34.34 0 0 1-.34.34h-4.185a.47.47 0 0 0-.47.471v3.625a2.2 2.2 0 0 0 .143.787l4.677 12.419a.72.72 0 0 0 .672.465l6.451.001a.327.327 0 0 0 .3-.457l-5.536-12.808h2.162a3.873 3.873 0 0 0 3.872-3.872v-8.648a3.873 3.873 0 0 0-3.872-3.874c-5.42.03-10.9 0-16.335 0m33.664.273a1.75 1.75 0 0 0-1.66 1.2L80.585 174.8a.914.914 0 0 0 .867 1.2h4.195a1.73 1.73 0 0 0 1.65-1.202l5.577-17.318a.407.407 0 0 1 .775 0l3.357 10.427a.92.92 0 0 1-.875 1.202h-3.165a1.264 1.264 0 0 0-1.263 1.263v4.365A1.264 1.264 0 0 0 92.965 176h11.806a.922.922 0 0 0 .878-1.203l-8.63-26.979a1.73 1.73 0 0 0-1.648-1.203zm19.82 0a1.186 1.186 0 0 0-1.185 1.185v27.015a1.186 1.186 0 0 0 1.186 1.186h15.208a1.62 1.62 0 0 0 1.544-1.13l1.437-4.526a.868.868 0 0 0-.828-1.13h-10.366a1.186 1.186 0 0 1-1.185-1.186v-13.804a1.186 1.186 0 0 1 1.185-1.186h8.452a1.535 1.535 0 0 0 1.484-1.147l1.077-4.13a.917.917 0 0 0-.887-1.147zm27.346 0a1.743 1.743 0 0 0-1.743 1.742v25.901a1.743 1.743 0 0 0 1.743 1.743h3.391a1.743 1.743 0 0 0 1.743-1.743v-7.585l6.022 7.94a3.51 3.51 0 0 0 2.795 1.388h4.07a.872.872 0 0 0 .697-1.395l-9.487-12.67a1.125 1.125 0 0 1-.042-1.288l8.188-12.574a.945.945 0 0 0-.792-1.46h-3.62a3.55 3.55 0 0 0-2.807 1.38l-5.024 6.513v-6.15a1.743 1.743 0 0 0-1.743-1.743z"/></svg>