<svg xmlns="http://www.w3.org/2000/svg" width="192" height="192" viewBox="0 0 192 192"><path d="M109.46 108h53.064a5.46 5.46 0 0 1 5.472 5.472v53.064a5.456 5.456 0 0 1-5.472 5.464H109.46a5.456 5.456 0 0 1-5.472-5.464v-53.064c0-3.04 2.44-5.472 5.472-5.472M15.996 92l40-72 40 72zm102-68q-9.396-.002-15.696 6.2a20.5 20.5 0 0 0-6.304 15.2c0 3.336.664 6.464 2 9.4 1.336 2.928 3.536 6.064 6.6 9.4s7.168 7.2 12.304 11.6c5.128 4.4 11.496 9.8 19.096 16.2q11.4-9.6 19.104-16.2a147 147 0 0 0 12.296-11.6c3.064-3.336 5.264-6.472 6.6-9.4 1.336-2.936 2-6.064 2-9.4 0-6-2.096-11.064-6.296-15.2s-9.44-6.2-15.704-6.2c-3.6 0-6.96.832-10.096 2.504a23 23 0 0 0-7.904 6.896 23.1 23.1 0 0 0-7.896-6.896A21.2 21.2 0 0 0 117.996 24m-62 84c-8.8 0-16.336 3.136-22.6 9.4-6.264 6.28-9.4 13.8-9.4 22.6s3.136 16.336 9.4 22.6c6.28 6.264 13.8 9.4 22.6 9.4s16.336-3.136 22.6-9.4 9.4-13.8 9.4-22.6-3.136-16.328-9.4-22.6c-6.28-6.264-13.8-9.4-22.6-9.4"/></svg>