<svg xmlns="http://www.w3.org/2000/svg" width="192" height="192"><path d="M24.892 113.78q-3.775 0-6.334-2.558Q16 108.663 16 104.888t2.558-6.334 6.334-2.558h44.444q3.775 0 6.334 2.558 2.558 2.559 2.558 6.334t-2.558 6.333-6.334 2.559zm0-35.56q-3.775 0-6.334-2.558Q16 73.103 16 69.328t2.558-6.334 6.334-2.558h80.004q3.775 0 6.334 2.558 2.558 2.559 2.558 6.334t-2.558 6.333-6.334 2.559zm0-35.56q-3.775 0-6.334-2.558Q16 37.543 16 33.768t2.558-6.334 6.334-2.558h80.004q3.775 0 6.334 2.558 2.558 2.559 2.558 6.334T111.23 40.1t-6.334 2.559zm71.112 115.56v-14.667q0-1.775.667-3.442.666-1.667 2-3l46.444-46.227q2-2 4.442-2.892t4.892-.892q2.666 0 5.108 1t4.442 3l8.226 8.226q1.775 2 2.775 4.442t1 4.892q0 2.442-.892 5-.892 2.559-2.892 4.559l-46.21 46.227q-1.334 1.333-3.001 2t-3.442.667h-14.667q-3.775 0-6.334-2.559-2.558-2.558-2.558-6.334m66.67-49.561-8.225-8.217zm-53.336 45.119h8.442l26.893-27.118-4-4.217-4.225-4-27.11 26.885zm31.335-31.335-4.225-4 8.225 8.217z"/></svg>