<svg width="192" height="192" fill="none" xmlns="http://www.w3.org/2000/svg"><path d="M163.553 81.75V62c0-3.314-2.678-6-5.981-6H93.26a5.971 5.971 0 0 1-4.229-1.757l-11.45-11.486A5.971 5.971 0 0 0 73.354 41H27.98C24.678 41 22 43.686 22 47v98c0 3.314 2.678 6 5.981 6h13.956m0 0h107.23a5.984 5.984 0 0 0 5.717-4.235l14.668-47.824c1.973-6.43-2.82-12.941-9.527-12.941H70.709a11.967 11.967 0 0 0-11.433 8.471L41.937 151Z" stroke="#000" stroke-width="12" stroke-linecap="round" stroke-linejoin="round"/></svg>