<svg xmlns="http://www.w3.org/2000/svg" width="192" height="192"><path d="M40 176q-6.596 0-11.298-4.702Q24 166.604 24 160V48q0-6.596 4.702-11.298Q33.396 32 40 32h8v-8q0-3.404 2.302-5.698Q52.596 16 56 16t5.698 2.302Q64 20.604 64 24v8h64v-8q0-3.404 2.302-5.698Q132.596 16 136 16t5.698 2.302Q144 20.604 144 24v8h8q6.596 0 11.298 4.702Q168 41.396 168 48v112q0 6.596-4.702 11.298Q158.604 176 152 176zm0-16h112V80H40zm56-48q-3.404 0-5.698-2.302Q88 107.404 88 104t2.302-5.698Q92.596 96 96 96t5.698 2.302Q104 100.604 104 104q0 3.404-2.302 5.698Q99.404 112 96 112m-32 0q-3.404 0-5.698-2.302Q56 107.404 56 104t2.302-5.698Q60.604 96 64 96q3.404 0 5.698 2.302Q72 100.604 72 104q0 3.404-2.302 5.698Q67.396 112 64 112m64 0q-3.404 0-5.698-2.302Q120 107.404 120 104t2.302-5.698Q124.596 96 128 96t5.698 2.302Q136 100.604 136 104q0 3.404-2.302 5.698Q131.396 112 128 112m-32 32q-3.404 0-5.698-2.302Q88 139.404 88 136t2.302-5.698Q92.596 128 96 128t5.698 2.302Q104 132.604 104 136q0 3.404-2.302 5.698Q99.404 144 96 144m-32 0q-3.404 0-5.698-2.302Q56 139.404 56 136t2.302-5.698Q60.604 128 64 128q3.404 0 5.698 2.302Q72 132.604 72 136q0 3.404-2.302 5.698Q67.396 144 64 144m64 0q-3.404 0-5.698-2.302Q120 139.404 120 136t2.302-5.698Q124.604 128 128 128q3.404 0 5.698 2.302Q136 132.596 136 136t-2.302 5.698Q131.396 144 128 144"/></svg>