<svg width="192" height="192" fill="none" xmlns="http://www.w3.org/2000/svg"><path d="M112 88a16.001 16.001 0 0 0-27.314-11.314A16 16 0 0 0 80 88m64-41a10.996 10.996 0 0 0-11-11 11.002 11.002 0 0 0-11 11m-10 81a16.002 16.002 0 0 0-27.314-11.314A16.007 16.007 0 0 0 80 128m0 0v18a8 8 0 0 1-8 8H56a8 8 0 0 1-8-8V76" stroke="#000" stroke-width="12" stroke-linecap="round" stroke-linejoin="round"/><path d="M112 128v18a8 8 0 0 0 8 8h16a8 8 0 0 0 8-8V73.973M144 47v26.973M122 47v10.027L100.882 40.76a8 8 0 0 0-9.764 0L22 94m148 0-26-20.027" stroke="#000" stroke-width="12" stroke-linecap="round" stroke-linejoin="round"/></svg>