<svg xmlns="http://www.w3.org/2000/svg" width="192" height="192" viewBox="0 0 192 192"><path d="M64.808 173H34.796a15.23 15.23 0 0 1-11.156-4.637 15.23 15.23 0 0 1-4.637-11.156v-30.012q9.48 0 16.589-6.014 7.1-6.032 7.1-15.314t-7.1-15.297a24.8 24.8 0 0 0-16.589-6.015V54.543q0-6.519 4.637-11.148a15.23 15.23 0 0 1 11.156-4.645h31.603q0-8.299 5.724-14.022a19.08 19.08 0 0 1 14.004-5.724q8.3 0 14.023 5.732 5.714 5.715 5.723 14.014h31.586q6.52 0 11.156 4.646 4.637 4.62 4.637 11.148V86.13a19.08 19.08 0 0 1 14.022 5.732q5.724 5.715 5.724 14.014t-5.732 14.014q-5.715 5.732-14.014 5.732v31.586a15.23 15.23 0 0 1-4.638 11.156A15.23 15.23 0 0 1 137.459 173h-30.012q0-9.873-6.21-16.785c-6.212-6.913-9.189-6.904-15.11-6.904s-10.95 2.31-15.1 6.904q-6.21 6.92-6.22 16.785"/></svg>