<svg width="192" height="192" version="1.1" xmlns="http://www.w3.org/2000/svg"><path d="m44.744 53.057c-15.823 0-28.744 12.921-28.744 28.744v28.398c0 15.823 12.921 28.744 28.744 28.744h102.51c15.823 0 28.746-12.921 28.746-28.744v-28.398c0-15.823-12.923-28.744-28.746-28.744zm0 11.773h20.812v62.338h-20.812c-9.503 0-16.971-7.4657-16.971-16.969v-28.398c0-9.503 7.4677-16.971 16.971-16.971zm32.588 0h37.334v62.338h-37.334zm49.109 0h20.812c9.503 0 16.971 7.4677 16.971 16.971v28.398c0 9.503-7.4676 16.969-16.971 16.969h-20.812z"/></svg>
