<svg xmlns="http://www.w3.org/2000/svg" width="192" height="192"><path d="M44.744 53.057C28.921 53.057 16 65.978 16 81.801v28.398c0 15.823 12.921 28.744 28.744 28.744h102.51c15.823 0 28.746-12.921 28.746-28.744V81.801c0-15.823-12.923-28.744-28.746-28.744zm0 11.773h20.812v62.338H44.744c-9.503 0-16.971-7.466-16.971-16.969V81.801c0-9.503 7.468-16.971 16.971-16.971m32.588 0h37.334v62.338H77.332zm49.109 0h20.812c9.503 0 16.971 7.468 16.971 16.971v28.398c0 9.503-7.468 16.969-16.971 16.969h-20.812z"/></svg>