<svg xmlns="http://www.w3.org/2000/svg" width="192" height="192" viewBox="0 0 192 192"><path d="M42.254 42.83a8.16 8.16 0 0 0-8.016 6.568l-18.08 89.986a8.184 8.184 0 0 0 8.016 9.786h125.57a8.16 8.16 0 0 0 8.016-6.56l18.08-89.995a8.184 8.184 0 0 0-8.016-9.785zm8.842 24.529H96L91.51 79.63H66.44l-4.057 12.273h16.762l-3.522 12.264H58.775l-7.77 20.465H30.56zm53.904.008h21.473l-8.592 20.449 24.465-20.45h19.096l-23.439 22 9.943 35.267h-22.393l-3.377-24.545-9.359 9.392-3.52 15.152h-21.48l17.185-57.266z"/></svg>