<svg width="192" height="192" fill="none" xmlns="http://www.w3.org/2000/svg"><path d="M75 119a20.998 20.998 0 0 0 21 21c5.57 0 10.911-2.212 14.849-6.151A20.995 20.995 0 0 0 117 119" stroke="#000" stroke-width="12" stroke-linecap="round" stroke-linejoin="round"/><path d="M29 86c0-11.046 8.954-20 20-20h94c11.046 0 20 8.954 20 20v64c0 11.046-8.954 20-20 20H49c-11.046 0-20-8.954-20-20V86Zm23-64c44 0 44 44 44 44s-44 0-44-44Zm88 0c-44 0-44 44-44 44s44 0 44-44Z" stroke="#000" stroke-width="12" stroke-linecap="round" stroke-linejoin="round"/></svg>