<svg xmlns="http://www.w3.org/2000/svg" width="192" height="192" viewBox="0 0 192 192"><path d="M80.025 50.012a5.207 5.207 0 0 0-3.228 6.62L88.07 89.363a5.207 5.207 0 0 0 6.619 3.229 5.207 5.207 0 0 0 3.228-6.62L86.644 53.24a5.207 5.207 0 0 0-6.619-3.228" opacity=".6"/><path d="M93.71 19.034a77 77 0 0 0-16.371 2.269c-38.847 9.7-63.774 47.65-57.286 87.168s42.239 67.506 82.149 64.276 70.727-36.604 70.771-76.656v-.002a77 77 0 0 0-4.068-24.78h-.001c-10.44-30.823-38.715-50.975-69.79-52.245a76 76 0 0 0-5.404-.03m.201 6.277a70 70 0 0 1 4.965.025c28.548 1.152 54.474 19.64 64.075 47.99l.045.143a172.5 172.5 0 0 1-67.098 13.588 172.5 172.5 0 0 1-66.924-13.52C36.412 51.336 54.677 33.44 78.86 27.403a71 71 0 0 1 15.05-2.09zm-7.816 80.578h13.012a4.29 4.29 0 0 1 4.289 4.289v15.12h2.156a4.29 4.29 0 0 1 4.288 4.288v9.735a2.157 2.157 0 1 0 4.289 0v-15.549a5.3 5.3 0 0 1-2.157.453 5.385 5.385 0 0 1-1.918-10.415l-4.551-4.551 2.285-2.286 8.037 8.014h-.035a5.4 5.4 0 0 1 1.598 3.817v20.486a5.391 5.391 0 1 1-10.782 0v-10.782h-3.235v16.174H81.807v-34.503a4.29 4.29 0 0 1 4.288-4.289zm-1.225 4.289v10.781h15.389v-10.782zm27.928 6.633a2.157 2.157 0 1 0-.826 4.148 2.163 2.163 0 0 0 2.157-2.156 2.16 2.16 0 0 0-1.331-1.992"/><path d="M93.753 32.379v10.556h4.288V32.379zM45.477 57.764l-2.462 3.51 8.411 5.9 2.463-3.511zm100.84 0-8.412 5.899 2.463 3.51 8.412-5.898z" opacity=".3"/></svg>