<svg width="192" height="192" version="1.1" xmlns="http://www.w3.org/2000/svg"><path d="m98.285 16c-41.465 0-76.055 30.937-80.749 70.747-0.0563 0.47899 0.29385 0.8676 0.7759 0.8676h22.897c0.48205 0 0.93178-0.38642 1.0121-0.86192 4.4616-26.29 27.654-46.301 56.063-46.301 21.038 0 39.214 10.974 49.042 27.345 0.99291 1.6535 3.2656 3.0499 5.1947 3.0499h19.432c1.9291 0 2.9993-1.485 2.3002-3.2831-11.715-30.136-41.461-51.563-75.969-51.563zm-80.749 89.253c4.6938 39.81 39.284 70.747 80.749 70.747 34.508 0 64.254-21.428 75.969-51.564 0.69906-1.7981-0.37114-3.2826-2.3002-3.2826h-19.431c-1.9291 0-4.2018 1.3959-5.1947 3.0499-9.8278 16.371-28.005 27.345-49.043 27.345-28.41 0-51.602-20.011-56.063-46.301-0.0804-0.4755-0.53008-0.86236-1.0121-0.86236h-22.897c-0.48205 0-0.83223 0.38905-0.7759 0.86804z"/></svg>
