<svg width="192" height="192" version="1.1" xmlns="http://www.w3.org/2000/svg"><path d="m138.55 108.53 36.518 36.518c1.2379 1.2379 1.2379 3.0948 0 4.3327l-6.3443 6.3443c-1.2379 1.2379-3.0948 1.2379-4.3327 0l-36.518-36.518c-1.2379-1.2379-1.2379-3.0948 0-4.3327l6.3443-6.3443c1.2379-1.2379 3.2495-1.2379 4.3327 0zm-23.985-73.191c33.114 0 60.039 26.615 60.039 59.42 0 7.8917-1.5474 15.474-4.4874 22.437-0.7737 1.8569-3.2495 2.3211-4.6422 0.92843l-7.5822-7.5822c-0.77369-0.7737-1.0832-1.8569-0.77369-2.94 1.2379-4.0232 1.8569-8.3559 1.8569-12.843 0-24.449-19.961-44.101-44.565-44.101-24.603 0-44.565 19.807-44.565 44.101 0 24.449 19.961 44.101 44.565 44.101 4.3327 0 8.3559-0.61895 12.379-1.7021 1.0832-0.30949 2.1663 0 2.94 0.77368 2.579 2.4758 5.158 4.9516 7.7369 7.4275 1.5474 1.5474 0.92843 4.0232-0.92844 4.7969-6.8085 2.6306-14.236 4.0232-21.973 4.0232-33.114 0-60.039-26.615-60.039-59.42 0-32.805 26.925-59.42 60.039-59.42zm-86.499 6.8085c1.7021 0 3.0948 1.3926 3.0948 3.0948v102.28c0 1.7021-1.3927 3.0948-3.0948 3.0948h-8.9749c-1.7021 0-3.0948-1.3926-3.0948-3.0948v-102.28c0-1.7021 1.3927-3.0948 3.0948-3.0948h8.9749z"/></svg>
