<svg xmlns="http://www.w3.org/2000/svg" width="192" height="192"><path d="M98.285 16C56.82 16 22.23 46.937 17.536 86.747a.762.762 0 0 0 .776.868h22.897c.482 0 .932-.387 1.012-.862 4.462-26.29 27.654-46.301 56.063-46.301 21.038 0 39.214 10.974 49.042 27.345.993 1.653 3.266 3.05 5.195 3.05h19.432c1.929 0 2.999-1.485 2.3-3.284C162.538 37.427 132.792 16 98.283 16zm-80.749 89.253C22.23 145.063 56.82 176 98.285 176c34.508 0 64.254-21.428 75.969-51.564.7-1.798-.371-3.283-2.3-3.283h-19.431c-1.93 0-4.202 1.396-5.195 3.05-9.828 16.371-28.005 27.345-49.043 27.345-28.41 0-51.602-20.01-56.063-46.3-.08-.476-.53-.863-1.012-.863H18.313a.762.762 0 0 0-.776.868z"/></svg>