<svg xmlns="http://www.w3.org/2000/svg" width="192" height="192"><path d="m138.55 108.53 36.518 36.518c1.238 1.238 1.238 3.095 0 4.333l-6.344 6.344c-1.238 1.238-3.095 1.238-4.333 0l-36.518-36.518c-1.238-1.238-1.238-3.095 0-4.333l6.344-6.344c1.238-1.238 3.25-1.238 4.333 0m-23.985-73.191c33.114 0 60.039 26.615 60.039 59.42 0 7.892-1.547 15.474-4.487 22.437-.774 1.857-3.25 2.321-4.643.928l-7.582-7.582c-.773-.773-1.083-1.857-.773-2.94 1.237-4.023 1.856-8.356 1.856-12.843 0-24.449-19.96-44.1-44.565-44.1-24.603 0-44.565 19.806-44.565 44.1 0 24.45 19.961 44.101 44.565 44.101 4.333 0 8.356-.619 12.38-1.702 1.083-.31 2.166 0 2.94.774l7.736 7.427c1.548 1.548.929 4.024-.928 4.797-6.809 2.63-14.236 4.023-21.973 4.023-33.114 0-60.04-26.615-60.04-59.42s26.926-59.42 60.04-59.42m-86.499 6.809a3.104 3.104 0 0 1 3.095 3.094v102.28a3.104 3.104 0 0 1-3.095 3.095h-8.975a3.104 3.104 0 0 1-3.095-3.095V45.242a3.104 3.104 0 0 1 3.095-3.094z"/></svg>