<svg width="192" height="192" fill="none" xmlns="http://www.w3.org/2000/svg"><path d="m96 96 46-46" stroke="#000" stroke-width="12" stroke-linecap="round" stroke-linejoin="round"/><circle cx="96" cy="96" r="4" stroke="#000" stroke-width="8" stroke-linecap="round" stroke-linejoin="round"/><path d="M165.22 69.78A73.83 73.83 0 0 1 170 96c0 40.869-33.131 74-74 74-40.87 0-74-33.131-74-74 0-40.87 33.13-74 74-74 9.233 0 18.07 1.69 26.22 4.78m20.278 53.722a48.688 48.688 0 0 1 2.177 9.823c.215 1.862.325 3.756.325 5.675 0 27.062-21.938 49-49 49s-49-21.938-49-49 21.938-49 49-49c5.416 0 10.627.879 15.498 2.502M87.421 73.579C78.403 77.032 72 85.768 72 96c0 13.255 10.745 24 24 24 10.232 0 18.969-6.403 22.421-15.421l.078-.077" stroke="#000" stroke-width="12" stroke-linecap="round" stroke-linejoin="round"/><path d="m145.371 30.366 6.58-6.58a6.098 6.098 0 0 1 8.624 0l7.639 7.638a6.1 6.1 0 0 1 0 8.625l-6.579 6.58a6.102 6.102 0 0 1-3.117 1.667L140 52l3.704-18.518a6.099 6.099 0 0 1 1.667-3.116Z" stroke="#000" stroke-width="12" stroke-linecap="round" stroke-linejoin="round"/></svg>