<svg width="192" height="192" fill="none" xmlns="http://www.w3.org/2000/svg"><path d="M95.935 60.992H116c.005 9.155-6.23 17.143-15.098 19.393a19.985 19.985 0 0 1-22.49-9.864 20.01 20.01 0 0 1 4.037-24.234 19.98 19.98 0 0 1 22.26-3.285" stroke="#000" stroke-width="10" stroke-linecap="round" stroke-linejoin="round"/><path d="M34 82h-5a6 6 0 0 0-6 6v76a6.002 6.002 0 0 0 6 6h134a6.003 6.003 0 0 0 4.243-1.757A6.003 6.003 0 0 0 169 164V88a6 6 0 0 0-6-6h-5" stroke="#000" stroke-width="12" stroke-linecap="round" stroke-linejoin="round"/><path d="M126 150H66" stroke="#000" stroke-width="10" stroke-linecap="round" stroke-linejoin="round"/><path d="M136 79.674V28a6 6 0 0 0-6-6H62a6 6 0 0 0-6 6v51.674a6 6 0 0 0 2.82 5.088l34 21.251a6 6 0 0 0 6.36 0l34-21.25a5.998 5.998 0 0 0 2.82-5.089Z" stroke="#000" stroke-width="12" stroke-linecap="round" stroke-linejoin="round"/><path d="M48 109a4 4 0 1 0 0-8 4 4 0 0 0 0 8Zm96 0a4 4 0 1 0 0-8 4 4 0 0 0 0 8Zm-96 24a4 4 0 1 0 0-8 4 4 0 0 0 0 8Zm48 0a4 4 0 1 0 0-8 4 4 0 0 0 0 8Zm48 0a4 4 0 1 0 0-8 4 4 0 0 0 0 8Zm-24 0a4 4 0 1 0 0-8 4 4 0 0 0 0 8Zm-48 0a4 4 0 1 0 0-8 4 4 0 0 0 0 8Z" stroke="#000" stroke-width="8" stroke-linecap="round" stroke-linejoin="round"/></svg>