<svg xmlns="http://www.w3.org/2000/svg" width="192" height="192" viewBox="0 0 192 192"><path d="M64.487 16c-12.075 0-22.039 9.974-22.039 22.039v41.727H30.425c-5.642 0-10.214 4.588-10.214 10.23v75.789c0 5.642 4.572 10.214 10.214 10.214h131.15c5.642 0 10.214-4.572 10.214-10.214V89.996c0-5.642-4.572-10.23-10.214-10.23h-12.023V38.039C149.55 25.973 139.588 16 127.513 16zm0 8.421h63.026c7.528 0 13.618 6.099 13.618 13.618v52.944a8.52 8.52 0 0 1-3.224 6.678l-40.855 32.368a1.684 1.684 0 0 1-2.105 0L54.092 97.66a8.51 8.51 0 0 1-3.224-6.678V38.04c0-7.52 6.09-13.618 13.618-13.618zM96.658 38.04A30.65 30.65 0 0 0 69.29 54.963a30.32 30.32 0 0 0 0 27.484 30.65 30.65 0 0 0 27.368 16.908c8.278 0 15.194-2.76 20.247-7.434C122.682 86.582 126 78.71 126 69.388c0-2.021-.173-3.92-.477-5.79H96.658v11.513h16.53a14.32 14.32 0 0 1-6.134 9.145c-2.763 1.844-6.252 2.96-10.395 2.96-7.992 0-14.78-5.38-17.204-12.663a17.94 17.94 0 0 1 0-11.694c2.425-7.285 9.203-12.681 17.204-12.681a16.6 16.6 0 0 1 11.743 4.605l8.733-8.734c-5.288-4.951-12.199-8.01-20.477-8.01zm-53.651 62.17h2.187a16.9 16.9 0 0 0 3.668 4.046l6.07 4.803v3.075a1.684 1.684 0 0 1-1.711 1.694H43.007a1.684 1.684 0 0 1-1.71-1.694v-10.23c0-.943.767-1.694 1.71-1.694m103.8 0h1.793c.943 0 1.71.76 1.71 1.694v10.23a1.684 1.684 0 0 1-1.71 1.694h-10.214a1.684 1.684 0 0 1-1.71-1.694v-2.763l6.463-5.115a17 17 0 0 0 3.668-4.046m-103.8 23.85h10.214c.943 0 1.71.758 1.71 1.693v10.214a1.72 1.72 0 0 1-1.71 1.71H43.007a1.72 1.72 0 0 1-1.71-1.71v-10.214c0-.935.767-1.694 1.71-1.694zm23.849 0h6.99l4.934 3.897v8.01a1.72 1.72 0 0 1-1.694 1.71h-10.23a1.72 1.72 0 0 1-1.71-1.71v-10.214c0-.934.767-1.694 1.71-1.694zm51.299 0h6.595c.944 0 1.71.758 1.71 1.693v10.214a1.72 1.72 0 0 1-1.71 1.71h-10.214a1.72 1.72 0 0 1-1.71-1.71v-7.697zm20.23 0h10.214c.943 0 1.71.758 1.71 1.693v10.214a1.72 1.72 0 0 1-1.71 1.71h-10.214a1.72 1.72 0 0 1-1.71-1.71v-10.214c0-.935.775-1.694 1.71-1.694zm-49.359 12.022.658.526h.017l.017.017a10 10 0 0 0 1.677 1.053h-.707a1.72 1.72 0 0 1-1.661-1.596zm13.536.329a1.72 1.72 0 0 1-1.661 1.266h-.28a9.8 9.8 0 0 0 1.694-1.069zm-45.938 11.48h78.355c.943 0 1.694.776 1.694 1.71v10.215c0 .943-.76 1.71-1.694 1.71H56.624a1.684 1.684 0 0 1-1.694-1.71v-10.214c0-.935.76-1.711 1.694-1.711"/></svg>