<svg width="192" height="192" fill="none" xmlns="http://www.w3.org/2000/svg"><circle cx="93" cy="103" r="36" stroke="#000" stroke-width="12" stroke-linecap="round" stroke-linejoin="round"/><path d="M22 61a6 6 0 0 1 6-6h23.346a6 6 0 0 0 4.44-1.964l16.429-18.072A6 6 0 0 1 76.655 33h32.691c1.69 0 3.302.713 4.439 1.964l16.43 18.072A5.999 5.999 0 0 0 134.654 55H158a6 6 0 0 1 6 6v92a6 6 0 0 1-6 6H28a6 6 0 0 1-6-6V61Z" stroke="#000" stroke-width="12" stroke-linecap="round" stroke-linejoin="round"/><path d="m170 49-66.699 62.941a6 6 0 0 1-8.422-.183L65 81" stroke="#000" stroke-width="12" stroke-linecap="round" stroke-linejoin="round"/></svg>