<svg xmlns="http://www.w3.org/2000/svg" width="192" height="192" viewBox="0 0 192 192"><path d="M166.04 54.424a7.602 7.602 0 0 0-13.533 6.927 75.99 75.99 0 0 1 0 69.059 7.599 7.599 0 1 0 13.525 6.918 91.18 91.18 0 0 0 .008-82.912M84.16 69.213a26.4 26.4 0 0 1 15.677 5.127 8.209 8.209 0 0 0 9.678-13.26 43.056 43.056 0 1 0 17.733 34.792 8.24 8.24 0 0 0-8.206-8.206H91.807a8.21 8.21 0 0 0 0 16.421h17.733a26.675 26.675 0 1 1-25.38-34.873m56.454-5.167a8 8 0 0 0-2.632-.472 7.6 7.6 0 0 0-3.183.72 7.623 7.623 0 0 0-3.703 10.078 51.27 51.27 0 0 1 0 43 7.623 7.623 0 0 0 3.703 10.094 7.6 7.6 0 0 0 10.078-3.711 66.47 66.47 0 0 0 0-55.765 7.6 7.6 0 0 0-4.263-3.944m-20.236 70.762a8.16 8.16 0 0 0-5.063 1.728 50.8 50.8 0 0 1-31.45 10.782 51.318 51.318 0 0 1 0-102.64 50.8 50.8 0 0 1 31.45 10.782 8.278 8.278 0 0 0 10.142-13.069A67.2 67.2 0 0 0 83.865 28.14a67.859 67.859 0 0 0 0 135.72 67.2 67.2 0 0 0 41.6-14.26 8.27 8.27 0 0 0-5.095-14.798"/></svg>