<svg xmlns="http://www.w3.org/2000/svg" width="192" height="192" viewBox="0 0 192 192"><path d="M175.89 92.888h-66.103a26.401 26.401 0 0 1 46.392-13.937l9.615-9.669a40.003 40.003 0 0 0-69.67 23.606h-.23a40.003 40.003 0 0 0-69.67-23.606l9.614 9.669A26.401 26.401 0 0 1 82.23 92.888H16.124q-.116 1.53-.119 3.09a40.005 40.005 0 0 0 78.946 9.163h2.107a40 40 0 0 0 78.946-9.163q.005-1.56-.114-3.09M56.01 122.379a26.4 26.4 0 0 1-24.784-17.293h49.563a26.41 26.41 0 0 1-24.779 17.293m80 0a26.41 26.41 0 0 1-24.787-17.293h49.563a26.41 26.41 0 0 1-24.773 17.293z"/></svg>