<svg width="192" height="192" fill="none" xmlns="http://www.w3.org/2000/svg"><path d="M22 64c0-15.464 12.536-28 28-28h92c15.464 0 28 12.536 28 28v64c0 15.464-12.536 28-28 28H50c-15.464 0-28-12.536-28-28V64Z" stroke="#000" stroke-width="12" stroke-linecap="round" stroke-linejoin="round"/><path d="M170 86H98a6 6 0 0 0-6 6v10a6 6 0 0 0 6 6h34a6 6 0 0 1 6 6v4c0 6.627-5.373 12-12 12H66c-6.627 0-12-5.373-12-12V74c0-6.627 5.373-12 12-12h60c6.627 0 12 5.373 12 12v12" stroke="#000" stroke-width="12" stroke-linecap="round" stroke-linejoin="round"/></svg>