<svg xmlns="http://www.w3.org/2000/svg" width="192" height="192"><circle cx="96" cy="152" r="16" fill="none" stroke="#000" stroke-linecap="round" stroke-linejoin="round" stroke-width="16"/><path d="M26 16c-5.464 0-10 4.536-10 10s4.536 10 10 10 10-4.536 10-10-4.536-10-10-10m28 0c-5.464 0-10 4.536-10 10s4.536 10 10 10 10-4.536 10-10-4.536-10-10-10m28 0c-5.464 0-10 4.536-10 10s4.536 10 10 10 10-4.536 10-10-4.536-10-10-10m28 0c-5.464 0-10 4.536-10 10s4.536 10 10 10 10-4.536 10-10-4.536-10-10-10m28 0c-5.464 0-10 4.536-10 10s4.536 10 10 10 10-4.536 10-10-4.536-10-10-10m28 0c-5.464 0-10 4.536-10 10s4.536 10 10 10 10-4.536 10-10-4.536-10-10-10M40 44c-5.464 0-10 4.536-10 10s4.536 10 10 10 10-4.536 10-10-4.536-10-10-10m28 0c-5.464 0-10 4.536-10 10s4.536 10 10 10 10-4.536 10-10-4.536-10-10-10m28 0c-5.464 0-10 4.536-10 10s4.536 10 10 10 10-4.536 10-10-4.536-10-10-10m28 0c-5.464 0-10 4.536-10 10s4.536 10 10 10 10-4.536 10-10-4.536-10-10-10m28 0c-5.464 0-10 4.536-10 10s4.536 10 10 10 10-4.536 10-10-4.536-10-10-10M26 72c-5.464 0-10 4.536-10 10s4.536 10 10 10 10-4.536 10-10-4.536-10-10-10m28 0c-5.464 0-10 4.536-10 10s4.536 10 10 10 10-4.536 10-10-4.536-10-10-10m28 0c-5.464 0-10 4.536-10 10s4.536 10 10 10 10-4.536 10-10-4.536-10-10-10m28 0c-5.464 0-10 4.536-10 10s4.536 10 10 10 10-4.536 10-10-4.536-10-10-10m28 0c-5.464 0-10 4.536-10 10s4.536 10 10 10 10-4.536 10-10-4.536-10-10-10m28 0c-5.464 0-10 4.536-10 10s4.536 10 10 10 10-4.536 10-10-4.536-10-10-10m-98 28c-5.464 0-10 4.536-10 10s4.536 10 10 10 10-4.536 10-10-4.536-10-10-10m28 0c-5.464 0-10 4.536-10 10s4.536 10 10 10 10-4.536 10-10-4.536-10-10-10m28 0c-5.464 0-10 4.536-10 10s4.536 10 10 10 10-4.536 10-10-4.536-10-10-10"/></svg>