<svg xmlns="http://www.w3.org/2000/svg" width="192" height="192"><path d="M52.67 17.834q-4.335 0-7.168 2.834t-2.834 7.168V44.5H26.002q-4.335 0-7.168 2.834T16 54.498c0 4.332.945 5.282 2.834 7.17q2.835 2.834 7.168 2.834h16.666v16.664q0 4.333 2.834 7.168c2.834 2.835 4.279 2.835 7.168 2.834q4.333 0 7.164-2.834 2.834-2.835 2.834-7.168V64.502h16.664q4.336 0 7.17-2.834t2.834-7.17c0-4.333-.945-5.275-2.834-7.164q-2.836-2.835-7.17-2.834H62.668V27.836q0-4.336-2.834-7.168-2.831-2.835-7.164-2.834M119.334 44.5q-4.335 0-7.168 2.834-2.835 2.832-2.836 7.166.001 4.336 2.836 7.168 2.835 2.833 7.168 2.834h46.662q4.336 0 7.17-2.834C176 58.834 175.999 57.389 176 54.5q0-4.335-2.834-7.166-2.836-2.835-7.17-2.834zM34 116.168q-4 0-7 3.002c-3 3.002-2.999 4.334-2.998 7q-.001 4.001 2.998 7.002l11.668 11.664-12 12.332q-2.666 3-2.666 7-.001 4 2.996 7.002 3 2.999 7 2.996c4 0 5.003-.996 7.002-2.996l11.668-11.668L64.33 171.17q3 2.999 7.002 2.996 4 .001 7-2.996 2.669-2.668 2.836-6.834.162-4.168-2.504-7.168l-12-12.332 11.668-11.664q3-3 3-7.002c0-4.002-1-5-3-7q-3-3.002-7-3.002c-4 0-5 1.001-7 3.002l-11.664 11.666L41 119.17q-3-3-7-3.002m85.334 2.334c-2.89 0-5.28.94-7.168 2.828q-2.835 2.835-2.834 7.17c0 4.334.945 5.275 2.834 7.164s4.28 2.836 7.168 2.836h46.664q4.335-.001 7.168-2.836T176 128.5c0-4.333-.945-5.28-2.834-7.168q-2.835-2.833-7.168-2.83zm0 33.332q-4.335 0-7.168 2.834c-2.833 2.834-2.834 4.277-2.834 7.166q0 4.333 2.834 7.164c2.834 2.832 4.28 2.834 7.168 2.834h46.664q4.335 0 7.168-2.834t2.834-7.164q0-4.334-2.834-7.166-2.835-2.834-7.168-2.834z"/></svg>