<svg xmlns="http://www.w3.org/2000/svg" width="192" height="192" viewBox="0 0 192 192"><path d="M36.111 173q-7.058 0-12.085-5.026T19 155.889V36.109q0-7.059 5.026-12.085t12.085-5.027h119.78q7.058 0 12.085 5.027t5.026 12.085v119.78q0 7.058-5.026 12.085T155.891 173zm0-17.111h119.78V36.109H36.111zm0 0V36.109zm17.111-17.111h85.556q2.567 0 3.85-2.353t-.428-4.491l-23.528-31.442q-1.283-1.712-3.422-1.712t-3.422 1.711l-22.244 29.732-15.828-21.176q-1.283-1.71-3.422-1.71t-3.423 1.71l-17.11 22.887q-1.712 2.138-.428 4.491 1.283 2.353 3.85 2.353z"/></svg>