<svg xmlns="http://www.w3.org/2000/svg" width="192" height="192"><path d="M32 152q-6.6 0-11.3-4.7T16 136V56q0-6.6 4.7-11.3T32 40h128q6.6 0 11.3 4.7T176 56v80q0 6.6-4.7 11.3T160 152zm0-16h128V56H32zm40-8h48q3.4 0 5.7-2.3t2.3-5.7-2.3-5.7-5.7-2.3H72q-3.4 0-5.7 2.3T64 120t2.3 5.7T72 128m-40 8V56zm21.7-58.3Q56 75.4 56 72t-2.3-5.7T48 64t-5.7 2.3T40 72t2.3 5.7T48 80t5.7-2.3m24 0Q80 75.4 80 72t-2.3-5.7T72 64t-5.7 2.3T64 72t2.3 5.7T72 80t5.7-2.3m24 0q2.3-2.3 2.3-5.7t-2.3-5.7T96 64t-5.7 2.3T88 72t2.3 5.7T96 80t5.7-2.3m24 0q2.3-2.3 2.3-5.7t-2.3-5.7T120 64t-5.7 2.3T112 72t2.3 5.7T120 80t5.7-2.3m24 0q2.3-2.3 2.3-5.7t-2.3-5.7T144 64t-5.7 2.3T136 72t2.3 5.7T144 80t5.7-2.3m-96 24Q56 99.4 56 96t-2.3-5.7T48 88t-5.7 2.3T40 96t2.3 5.7T48 104t5.7-2.3m24 0Q80 99.4 80 96t-2.3-5.7T72 88t-5.7 2.3T64 96t2.3 5.7T72 104t5.7-2.3m24 0q2.3-2.3 2.3-5.7t-2.3-5.7T96 88t-5.7 2.3T88 96t2.3 5.7T96 104t5.7-2.3m24 0q2.3-2.3 2.3-5.7t-2.3-5.7T120 88t-5.7 2.3T112 96t2.3 5.7 5.7 2.3 5.7-2.3m24 0q2.3-2.3 2.3-5.7t-2.3-5.7T144 88t-5.7 2.3T136 96t2.3 5.7 5.7 2.3 5.7-2.3"/></svg>