<svg xmlns="http://www.w3.org/2000/svg" width="192" height="192" viewBox="0 0 192 192"><path d="M42.819 154.38q-10.946 0-18.7-7.845T16 127.561q0-1.642.183-3.284.182-1.642.547-3.284l15.325-61.3q2.554-9.852 10.4-15.964 7.844-6.111 17.878-6.111h71.152q10.034 0 17.88 6.111 7.844 6.112 10.398 15.964l15.325 61.3q.365 1.642.639 3.375.273 1.734.273 3.376 0 11.129-7.936 18.883T149 154.38q-7.662 0-14.23-4.013-6.568-4.014-9.852-10.946l-5.108-10.582q-.912-1.825-2.737-2.737-1.824-.912-3.83-.912H78.576q-2.007 0-3.83.912-1.825.912-2.738 2.737L66.9 139.421q-3.284 6.932-9.852 10.946-6.567 4.013-14.23 4.013zm.547-14.595q3.467 0 6.295-1.824t4.287-4.926l5.108-10.4q2.737-5.655 8.028-8.848t11.494-3.192h34.664q6.203 0 11.494 3.283t8.21 8.758l5.108 10.399q1.46 3.101 4.287 4.925 2.828 1.825 6.294 1.825 5.108 0 8.757-3.375t3.831-8.484q0 .183-.364-3.466l-15.325-61.117q-1.278-4.926-5.109-8.028-3.831-3.101-8.94-3.101h-71.15q-5.109 0-9.031 3.101t-5.017 8.028L30.96 124.46q-.365 1.094-.365 3.284 0 5.108 3.74 8.574t9.03 3.467zm68.69-53.181q2.097-2.098 2.097-5.2 0-3.101-2.098-5.2-2.098-2.097-5.2-2.097t-5.199 2.098q-2.098 2.098-2.098 5.2 0 3.1 2.098 5.199t5.2 2.098 5.2-2.098m14.594-14.595q2.098-2.098 2.098-5.2 0-3.101-2.098-5.2-2.098-2.097-5.2-2.097t-5.199 2.098q-2.098 2.098-2.098 5.2 0 3.1 2.098 5.199t5.2 2.098 5.2-2.098m0 29.19q2.098-2.098 2.098-5.2 0-3.101-2.098-5.2t-5.2-2.097-5.199 2.098-2.098 5.2q0 3.1 2.098 5.199t5.2 2.098 5.2-2.098m14.595-14.595q2.098-2.098 2.098-5.2 0-3.101-2.098-5.2-2.098-2.097-5.2-2.097t-5.199 2.098-2.098 5.2q0 3.1 2.098 5.199t5.2 2.098 5.2-2.098M74.29 98.098q1.551-1.55 1.551-3.922v-7.298h7.298q2.371 0 3.922-1.55 1.55-1.552 1.55-3.923t-1.55-3.923q-1.55-1.55-3.922-1.55H75.84v-7.298q0-2.372-1.55-3.923-1.551-1.55-3.923-1.55t-3.923 1.55-1.55 3.923v7.297h-7.298q-2.372 0-3.922 1.551t-1.551 3.923 1.55 3.922 3.923 1.55h7.298v7.299q0 2.371 1.55 3.922 1.551 1.55 3.923 1.55t3.922-1.55"/></svg>