<svg xmlns="http://www.w3.org/2000/svg" width="192" height="192" viewBox="0 0 192 192"><path d="M64 168q-6.6 0-11.3-4.7T48 152v-16H32q-6.6 0-11.3-4.7T16 120V88q0-10.2 7-17.1T40 64h112q10.2 0 17.1 6.9T176 88v32q0 6.6-4.7 11.3T160 136h-16v16q0 6.6-4.7 11.3T128 168zm-32-48h16q0-6.6 4.7-11.3T64 104h64q6.6 0 11.3 4.7T144 120h16V88q0-3.4-2.3-5.7T152 80H40q-3.4 0-5.7 2.3T32 88zm96-56V40H64v24H48V40q0-6.6 4.7-11.3T64 24h64q6.6 0 11.3 4.7T144 40v24zm16 36q3.4 0 5.7-2.3T152 92t-2.3-5.7T144 84t-5.7 2.3T136 92t2.3 5.7 5.7 2.3m-16 52v-32H64v32zM32 80h128z"/></svg>