<svg xmlns="http://www.w3.org/2000/svg" width="192" height="192" viewBox="0 0 192 192"><path d="M90.3 165.7q-2.9-1-5.1-3.2l-13.8-12.6q-21.2-19.4-38.3-38.5T16 69.3q0-18.8 12.6-31.4T60 25.3q10.6 0 20 4.5t16 12.3q6.6-7.8 16-12.3t20-4.5q18.8 0 31.4 12.6T176 69.3q0 23-17 42.2t-38.6 38.6l-13.6 12.4q-2.2 2.2-5.1 3.2t-5.7 1-5.7-1M88.4 58.1Q82.6 49.9 76 45.6t-16-4.3q-12 0-20 8t-8 20q0 10.4 7.4 22.1t17.7 22.7 21.2 20.6T96 150.5q6.8-6.2 17.7-15.8t21.2-20.6 17.7-22.7 7.4-22.1q0-12-8-20t-20-8q-9.4 0-16 4.3t-12.4 12.5q-1.4 2-3.4 3t-4.2 1-4.2-1-3.4-3"/></svg>