<svg xmlns="http://www.w3.org/2000/svg" width="192" height="192" viewBox="0 0 192 192"><path d="M96 16q-16.6 0-31.199 6.3t-25.4 17.1-17.1 25.4-6.3 31.2 6.3 31.199q6.3 14.6 17.1 25.4t25.4 17.1 31.199 6.3 31.199-6.3a86 86 0 0 0 8.152-4.033l.98-4.211-8.073-6.977-.03-.027a7 7 0 0 1-1.504-1.95Q113.015 160 96 160q-26.8 0-45.4-18.6T32 96t18.6-45.4C69.2 32 78.133 32 96 32q26.8 0 45.4 18.6T160 96q0 17.941-8.336 32.209a6.6 6.6 0 0 1 1.336-.141c1.22 0 2.436.362 3.428.93 1.23.703 2.235 1.908 2.75 3.144l3.447 8.184q4.055-6.126 7.075-13.127 6.3-14.6 6.3-31.2 0-16.599-6.3-31.198t-17.1-25.4-25.4-17.1T95.999 16zM82.176 64.926q-1.526-.076-3.076.773Q76 67.4 76 71v50q0 3.6 3.1 5.301 3.1 1.7 6.1-.3l39-25q2.8-1.8 2.8-5t-2.8-5l-39-25q-1.5-1-3.024-1.075M153 132.068q-.739 0-1.443.402-.706.403-1.041 1.21l-5.037 11.954-13.03 1.143q-.94.134-1.478.603a2.9 2.9 0 0 0-.805 1.21q-.269.738-.101 1.511t.84 1.377l9.873 8.53-2.955 12.692q-.203.874.132 1.579.337.705.942 1.175t1.41.537 1.545-.404L153 168.872l11.148 6.715q.738.472 1.545.404a2.6 2.6 0 0 0 1.41-.537q.605-.47.941-1.175t.133-1.579l-2.955-12.693 9.873-8.529q.672-.604.84-1.377a2.7 2.7 0 0 0-.102-1.512 2.9 2.9 0 0 0-.804-1.209q-.538-.47-1.479-.603l-13.029-1.143-5.037-11.955q-.336-.805-1.041-1.209a2.9 2.9 0 0 0-1.443-.402m-8.853 6.428a71 71 0 0 1-3.39 3.537l1.972-.172zm8.853 3.11 3.895 9.132 9.806.873-7.455 6.45 2.217 9.669-8.463-5.172-8.463 5.106 2.217-9.604-7.455-6.516 9.806-.873z"/></svg>