<svg xmlns="http://www.w3.org/2000/svg" width="192" height="192" viewBox="0 0 192 192"><path d="M163.38 173q-24.811 0-50.585-11.978t-47.804-34.008Q42.96 104.983 30.983 79.21T19.005 28.625q0-4.064 2.78-6.844Q24.567 19 28.63 19h29.944q2.994 0 5.133 2.139t2.995 5.347l5.775 26.95q.427 2.994-.107 5.454t-2.246 4.171L48.735 84.664q5.561 9.411 11.764 17.54 6.203 8.127 13.689 15.4 7.914 8.127 16.683 14.864 8.77 6.738 18.394 11.871l20.319-20.96q2.139-2.354 4.92-3.21 2.78-.855 5.56-.427l25.453 5.561q3.209.856 5.348 3.422t2.139 5.775v28.875q0 4.064-2.781 6.845-2.78 2.78-6.844 2.78z"/></svg>