<svg xmlns="http://www.w3.org/2000/svg" width="192" height="192" viewBox="0 0 192 192"><path d="m66 129.8 42.6-13.2q2.8-1 4.8-3t3-4.8l13.2-42.6q.6-1.728-.7-3.064t-3.1-.736L83.2 75.6q-2.8 1-4.8 3t-3 4.8L62.2 126q-.6 1.728.7 3.064t3.1.736M95.952 104q-3.352 0-5.652-2.348-2.3-2.346-2.3-5.7 0-3.352 2.348-5.652 2.346-2.3 5.7-2.3 3.352 0 5.652 2.348 2.3 2.346 2.3 5.7 0 3.352-2.348 5.652-2.346 2.3-5.7 2.3m.102 72q-16.548 0-31.1-6.3Q50.4 163.4 39.5 152.5t-17.2-25.468T16 95.9t6.3-31.132T39.5 39.4t25.468-17.1T96.1 16t31.132 6.3T152.6 39.4t17.1 25.4 6.3 31.146q0 16.548-6.3 31.1-6.3 14.554-17.1 25.418-10.8 10.862-25.4 17.2Q112.6 176 96.054 176m.044-12q28.302 0 48.102-19.898 19.8-19.896 19.8-48.2Q164 67.6 144.2 47.8T96.098 28q-28.304 0-48.2 19.8Q28 67.6 28 95.902q0 28.304 19.898 48.2Q67.794 164 96.098 164"/></svg>