<svg xmlns="http://www.w3.org/2000/svg" width="192" height="192" viewBox="0 0 192 192"><path d="M96 173q-16.17 0-30.222-6.064T41.33 150.477t-16.362-24.544T19 95.614t5.968-30.126 16.362-24.35T65.778 24.87 96 19t30.222 5.871 24.448 16.266 16.362 24.351T173 95.614t-5.968 30.32-16.362 24.543-24.448 16.46T96 173m0-11.165q6.738-6.93 11.261-15.881t7.411-21.271H77.52q2.695 11.55 7.219 20.79T96 161.835m-16.362-2.31q-4.812-7.315-8.277-15.785t-5.776-19.058H36.712q7.314 13.668 16.94 21.464t25.987 13.379zm32.918-.192q13.86-4.428 24.929-13.282t17.806-21.368h-28.682q-2.502 10.394-5.871 18.864t-8.181 15.786zm-79.695-46.2h30.608q-.577-5.198-.674-9.337-.096-4.139-.096-8.18 0-4.813.193-8.567t.77-8.374h-30.8q-1.348 4.62-1.83 8.278-.48 3.657-.48 8.662t.48 8.951 1.83 8.566zm42.542 0h41.388q.77-5.968.963-9.722t.192-7.796q0-3.85-.192-7.411t-.963-9.529H75.403q-.77 5.968-.962 9.529t-.193 7.411q0 4.043.193 7.796t.962 9.722m52.938 0h30.8q1.348-4.62 1.829-8.567t.481-8.95-.481-8.663-1.829-8.278h-30.608q.578 6.738.77 10.3t.193 6.64q0 4.235-.29 7.99t-.865 9.528m-1.925-46.008h28.875q-6.352-13.282-17.421-22.138t-25.506-12.512q4.813 7.122 8.181 15.4t5.871 19.25m-48.895 0h37.345q-2.117-10.202-7.122-19.731T96.002 30.55q-6.16 5.197-10.395 13.668t-8.085 22.908zm-40.81 0h29.068q2.118-10.395 5.39-18.576t8.278-15.881q-14.438 3.657-25.218 12.32T36.71 67.126z"/></svg>