<svg xmlns="http://www.w3.org/2000/svg" width="192" height="192" viewBox="0 0 192 192"><path d="M87.795 134.98s2.023 13.485-11.657 34.343c-2.483 3.786-1.079 6.681 3.453 6.681h32.819c4.53 0 5.934-2.896 3.45-6.684-13.678-20.856-11.655-34.34-11.655-34.34s8.205 8.204 24.615 8.204 32.819-16.41 32.819-32.819c0-38.646-36.406-55.449-61.204-91.563-2.563-3.732-6.308-3.73-8.873.004-24.798 36.111-61.2 52.914-61.2 91.56 0 16.41 16.41 32.818 32.818 32.818 16.41 0 24.615-8.205 24.615-8.205m16.41-24.615h-16.41s-8.205 16.41-24.615 16.41c-7.384 0-16.41-9.025-16.41-16.41-1.64-24.615 32-47.588 49.23-70.562 17.23 22.153 50.87 45.127 49.228 70.562 0 7.385-9.025 16.41-16.41 16.41-16.41 0-24.615-16.41-24.615-16.41z"/></svg>