<svg xmlns="http://www.w3.org/2000/svg" width="192" height="192" viewBox="0 0 192 192"><path d="M96 176q-16.6 0-31.2-6.3t-25.4-17.1-17.1-25.4T16 96q0-14.6 4.9-27.7t13.5-23.5q2.2-2.8 5.3-2.6t5.3 2.2 2.9 5.2-2.1 6.6q-6.4 8.2-10.1 18.3T32 96q0 26.8 18.6 45.4T96 160t45.4-18.6T160 96q0-11.4-3.7-21.5t-10.1-18.3q-2.8-3.4-2.1-6.6t2.9-5.2 5.3-2.2 5.3 2.6q8.6 10.4 13.5 23.5T176 96q0 16.6-6.3 31.2t-17.1 25.4-25.4 17.1T96 176m-5.7-74.3Q88 99.4 88 96V24q0-3.4 2.3-5.7T96 16t5.7 2.3T104 24v72q0 3.4-2.3 5.7T96 104t-5.7-2.3"/></svg>