<svg xmlns="http://www.w3.org/2000/svg" width="192" height="192" viewBox="0 0 192 192"><path d="M65 169.7q-14.6-6.3-25.5-17.2T22.3 127 16 95.9t6.3-31 17.2-25.4T65 22.3 96.1 16t31 6.3 25.4 17.2 17.2 25.4 6.3 31-6.3 31.1-17.2 25.5-25.4 17.2-31 6.3-31.1-6.3m31-10.1q5.2-7.2 9-15t6.2-16.6H80.8q2.4 8.8 6.2 16.6t9 15m-20.8-3.2q-3.6-6.6-6.3-13.7T64.4 128H40.8q5.8 10 14.5 17.4t19.9 11m41.6 0q11.2-3.6 19.9-11t14.5-17.4h-23.6q-1.8 7.6-4.5 14.7t-6.3 13.7M34 112h27.2q-.6-4-.9-7.9T60 96t.3-8.1.9-7.9H34q-1 4-1.5 7.9T32 96t.5 8.1T34 112m43.2 0h37.6q.6-4 .9-7.9t.3-8.1-.3-8.1-.9-7.9H77.2q-.6 4-.9 7.9T76 96t.3 8.1.9 7.9m53.6 0H158q1-4 1.5-7.9t.5-8.1-.5-8.1T158 80h-27.2q.6 4 .9 7.9t.3 8.1-.3 8.1-.9 7.9m-3.2-48h23.6q-5.8-10-14.5-17.4t-19.9-11q3.6 6.6 6.3 13.7t4.5 14.7m-46.8 0h30.4q-2.4-8.8-6.2-16.6t-9-15q-5.2 7.2-9 15T80.8 64m-40 0h23.6q1.8-7.6 4.5-14.7t6.3-13.7q-11.2 3.6-19.9 11T40.8 64"/></svg>