<svg xmlns="http://www.w3.org/2000/svg" width="192" height="192" viewBox="0 0 192 192"><path d="M96 176q-16.6 0-31.2-6.3t-25.4-17.1-17.1-25.4T16 96t6.3-31.2 17.1-25.4 25.4-17.1T96 16t31.2 6.3 25.4 17.1 17.1 25.4T176 96t-6.3 31.2-17.1 25.4-25.4 17.1T96 176m0-16q26.8 0 45.4-18.6T160 96q0-1.4-.1-2.9t-.1-2.5q-1 5.8-5.4 9.6T144 104h-16q-6.6 0-11.3-4.7T112 88v-8H80V64q0-6.6 4.7-11.3T96 48h8q0-4.6 2.5-8.1t6.1-5.7q-4-1-8.1-1.6T96 32q-26.8 0-45.4 18.6T32 96h40q13.2 0 22.6 9.4T104 128v8H80v22q4 1 7.9 1.5t8.1.5"/></svg>