<svg xmlns="http://www.w3.org/2000/svg" width="192" height="192"><path d="M34.267 176q-6.366 0-10.9-4.533-4.533-4.534-4.533-10.9v-92.6q0-4.822 2.604-8.68t7.041-5.595l91.25-37.233q2.7-.965 5.305.096t3.568 3.762q.965 2.7-.096 5.305t-3.762 3.57L67.448 52.533h90.284q6.366 0 10.9 4.534t4.534 10.9v92.599q0 6.366-4.534 10.9Q164.1 176 157.732 176zm0-15.433h123.47v-54.016H34.267zm44.563-13.311q5.595-5.594 5.595-13.697t-5.595-13.697-13.697-5.594-13.697 5.594-5.594 13.697 5.594 13.697 13.697 5.595 13.697-5.595M34.267 91.118h92.599v-7.717q0-3.28 2.219-5.498t5.498-2.218 5.498 2.218 2.218 5.498v7.717h15.433v-23.15H34.262zm0 69.449v-54.016z"/></svg>