<svg xmlns="http://www.w3.org/2000/svg" width="192" height="192" viewBox="0 0 192 192"><path d="M96 16q-16.6 0-31.199 6.3t-25.4 17.1c-10.8 10.8-12.9 15.668-17.1 25.4q-6.3 14.601-6.3 31.2 0 16.6 6.3 31.199c6.3 14.599 9.9 18.2 17.1 25.4s15.667 12.9 25.4 17.1q14.6 6.3 31.199 6.3t31.199-6.3a88 88 0 0 0 3.139-1.426v-17.914q-15.044 9.64-34.338 9.64-26.8 0-45.4-18.6C32 122.8 32 113.867 32 96q0-26.8 18.6-45.4C69.2 32 78.134 32 96 32q26.8 0 45.4 18.6C160 69.2 160 78.135 160 96q0 16.57-7.11 30.005c5.765.083 11.008 1.523 15.387 4.322q.738-1.542 1.422-3.127 6.3-14.6 6.301-31.2 0-16.599-6.3-31.198t-17.1-25.4c-10.8-10.8-15.668-12.9-25.4-17.1S107.065 16 96 16M82.176 64.926q-1.526-.076-3.076.773Q76 67.4 76 71v50q0 3.6 3.1 5.301 3.1 1.7 6.1-.3l39-25q2.8-1.8 2.8-5c0-3.2-.934-3.8-2.8-5l-39-25q-1.5-1-3.024-1.075M140.826 130q-2.666 0-4.594 1.928-1.894 1.894-1.894 4.56v32.99q-.001 2.668 1.894 4.594Q138.16 176 140.826 176h11.531q10.504 0 17.057-6.328Q175.999 163.344 176 153q0-10.376-6.553-16.672-6.522-6.329-17.09-6.328zm5.332 10.15h5.75q5.622 0 8.738 3.598 3.117 3.565 3.116 9.508 0 5.878-3.245 9.316-3.245 3.437-8.609 3.437h-5.75z"/></svg>