<svg xmlns="http://www.w3.org/2000/svg" width="192" height="192" viewBox="0 0 192 192"><path d="M110.58 37.814q-.37-.001-.746.035H67.662a8 8 0 0 0-7.998 8 7.307 7.307 0 0 0 7.998 6.541h13.814v14.543H67.662a19.3 19.3 0 0 0-13.654 5.656l-3.232 3.23a19.3 19.3 0 0 0-5.655 13.655v13.814H30.578V89.474a8 8 0 0 0-7.998-7.998 7.307 7.307 0 0 0-6.543 7.998v42.172a8 8 0 0 0 7.998 7.998 7.306 7.306 0 0 0 6.543-7.998V117.83h14.543v13.816a8 8 0 0 0 7.998 7.998h13.814l8.887 8.887a19.3 19.3 0 0 0 13.654 5.654h42.172c.866 0 1.717-.14 2.523-.408-.471-1.236-.513-2.632-.246-3.79l.002-.003 2.406-10.344-8.074-6.977-.03-.027c-.953-.859-1.77-2.115-2.071-3.5a6.9 6.9 0 0 1 .25-3.727c.378-1.041 1.04-2.074 1.931-2.853 1.087-.95 2.377-1.386 3.545-1.553l.107-.016 10.738-.94 4.094-9.72c.515-1.236 1.52-2.44 2.75-3.142.993-.567 2.208-.932 3.428-.932s2.435.365 3.428.932c1.23.703 2.234 1.906 2.75 3.142l4.093 9.72 10.738.94.108.016a7.5 7.5 0 0 1 1.883.516V82.203A7.996 7.996 0 0 0 168 74.205h-5.817a8 8 0 0 0-7.998 7.998v13.814h-14.543V74.933a8 8 0 0 0-2.343-5.656 8 8 0 0 0-5.655-2.344H96.016V52.392h13.816a8 8 0 0 0 7.998-7.998 7.31 7.31 0 0 0-7.252-6.58zm-43.646 43.66h58.168v58.168H88.747l-14.541-14.541H59.665V88.746zM153 110.253q-.739.001-1.443.404c-.704.403-.818.672-1.041 1.21l-5.037 11.952-13.03 1.143q-.94.135-1.478.605a2.9 2.9 0 0 0-.805 1.207q-.269.74-.101 1.512t.84 1.377l9.873 8.53-2.955 12.692q-.203.873.132 1.578.337.706.942 1.176.605.471 1.41.537t1.545-.402L153 147.057l11.148 6.717q.738.47 1.545.402a2.6 2.6 0 0 0 1.41-.537q.605-.47.941-1.176c.336-.706.267-.996.133-1.578l-2.955-12.693 9.873-8.529q.672-.605.84-1.377a2.7 2.7 0 0 0-.102-1.512 2.9 2.9 0 0 0-.804-1.207q-.538-.47-1.479-.605l-13.029-1.143-5.037-11.953q-.335-.806-1.041-1.209c-.706-.403-.95-.404-1.443-.404m0 9.537 3.895 9.135 9.806.873-7.455 6.447 2.217 9.672-8.463-5.172-8.463 5.104 2.217-9.604-7.455-6.515 9.806-.873zm23 14.38-6.332 5.47 1.537 6.605a8 8 0 0 0 4.795-7.328z"/></svg>