<svg xmlns="http://www.w3.org/2000/svg" width="192" height="192" viewBox="0 0 192 192"><path d="M66.934 81.475h58.168v58.168H88.747l-14.542-14.542H59.663V88.746m0-42.899a7.307 7.307 0 0 0 7.998 6.544h13.815v14.542H67.661a19.3 19.3 0 0 0-13.654 5.656l-3.23 3.23a19.3 19.3 0 0 0-5.656 13.655v13.815H30.579V89.474a8 8 0 0 0-7.999-7.999 7.307 7.307 0 0 0-6.544 7.999v42.171a7.997 7.997 0 0 0 7.999 7.999 7.307 7.307 0 0 0 6.544-7.998V117.83H45.12v13.815a7.997 7.997 0 0 0 7.998 7.998h13.815l8.886 8.887a19.3 19.3 0 0 0 13.654 5.655h42.172a8 8 0 0 0 7.998-7.998v-21.086h14.543v13.815a8 8 0 0 0 7.999 7.998h5.816a8 8 0 0 0 7.998-7.998V82.203a8 8 0 0 0-7.998-7.998h-5.816a7.997 7.997 0 0 0-7.999 7.998v13.815h-14.543V74.932a7.995 7.995 0 0 0-7.998-7.998H96.018V52.392h13.815a7.997 7.997 0 0 0 7.998-7.998 7.307 7.307 0 0 0-7.998-6.544H67.661a8 8 0 0 0-7.998 7.998z"/></svg>