<svg xmlns="http://www.w3.org/2000/svg" width="192" height="192" viewBox="0 0 192 192"><path d="M124.99 20.003q-3.076-.15-6.178.95l-60.226 22.01q-6.202 2.2-9.002 8.302t-.6 12.305L84.4 161.412q2.202 6.202 8.405 9.004 6.202 2.8 12.405.6l60.224-22.008q6.202-2.202 9.004-8.305 2.8-6.102.6-12.305l-35.614-97.842q-2.202-6.202-8.305-9.004-3.05-1.4-6.127-1.549zm-.773 15.955 35.815 98.041-60.425 22.01L63.99 57.968zm-18.582 36.091a1 1 0 0 0-.385.059l-2.11.767a1 1 0 0 0-.597 1.281l2.648 7.274a1 1 0 0 1-.597 1.281l-16.63 6.053a1 1 0 0 0-.597 1.282l8.174 22.457a1 1 0 0 0 1.281.597l1.955-.713a1 1 0 0 0 .598-1.281l-.488-1.34a1 1 0 0 1 .597-1.281l12.795-4.658a1 1 0 0 1 1.282.597l5.4 14.838a1 1 0 0 0 1.281.598l2.11-.768a1 1 0 0 0 .597-1.281l-5.4-14.838a1 1 0 0 1 .598-1.281l12.844-4.676a1 1 0 0 1 1.28.597l.395 1.086a1 1 0 0 0 1.282.598l2.11-.767a1 1 0 0 0 .597-1.282l-8.08-22.202a1 1 0 0 0-1.282-.597l-16.832 6.127a1 1 0 0 1-1.28-.598l-2.65-7.274a1 1 0 0 0-.896-.656zm19.987 7.293 4.949 13.6-14.723 5.36-4.95-13.6zm-18.711 6.81 4.949 13.6-14.674 5.34-4.95-13.6zM31.98 98.787l-14.407 31.212q-2.8 6.203-.6 12.506t8.402 8.904l6.604 3.202zm16.006 9.203v47.82q0 6.602 4.7 11.405 4.704 4.802 11.306 4.801h7.803q-1-1.2-1.399-2.5-.4-1.301-1-2.701z"/></svg>