<svg xmlns="http://www.w3.org/2000/svg" width="192" height="192" viewBox="0 0 192 192"><path d="M168 88.728h-14.327a58.1 58.1 0 0 0-11.782-28.364l10.244-10.151a7.964 7.964 0 0 0 .026-11.288 7.35 7.35 0 0 0-10.374.94l-10.151 10.244a58.1 58.1 0 0 0-28.364-11.782V24a8 8 0 0 0-8-8 7.31 7.31 0 0 0-6.545 8v14.327a58.1 58.1 0 0 0-28.364 11.782L50.212 39.865a7.964 7.964 0 0 0-11.288-.026 7.35 7.35 0 0 0 .94 10.374l10.243 10.15a58.1 58.1 0 0 0-11.782 28.365H23.998a8 8 0 0 0-8 8 7.31 7.31 0 0 0 8 6.545h14.327a58.1 58.1 0 0 0 11.782 28.364l-10.244 10.15a7.964 7.964 0 0 0-.025 11.289 7.35 7.35 0 0 0 10.374-.94l10.15-10.244a58.1 58.1 0 0 0 28.365 11.782v14.327a8 8 0 0 0 8 8 7.31 7.31 0 0 0 6.545-8v-14.327a58.1 58.1 0 0 0 28.364-11.782l10.15 10.244a7.964 7.964 0 0 0 11.289.026 7.35 7.35 0 0 0-.94-10.374l-10.244-10.151a58.1 58.1 0 0 0 11.782-28.364H168a8 8 0 0 0 8-8 7.31 7.31 0 0 0-8-6.545M88.1 67.996c-9.715 2.735-17.369 10.389-20.105 20.105-1.194 4.24-4.667 7.9-9.086 7.9-3.614 0-6.62-3.616-5.821-7.955 3.265-17.721 17.236-31.692 34.956-34.956 4.34-.8 7.956 2.858 7.956 7.276 0 3.615-3.661 6.437-7.9 7.63"/></svg>