<svg xmlns="http://www.w3.org/2000/svg" width="192" height="192"><path d="M71.385 34.462q-2.615 0-4.384 1.77-1.77 1.769-1.77 4.384v110.77q0 2.614 1.77 4.384 1.769 1.77 4.384 1.77c2.615 0 3.205-.59 4.384-1.77q1.77-1.769 1.77-4.384V40.616q0-2.616-1.77-4.384-1.769-1.77-4.384-1.77M46.77 59.077q-2.615 0-4.384 1.77-1.77 1.769-1.77 4.384v61.538q0 2.614 1.77 4.384 1.769 1.77 4.384 1.77t4.384-1.77q1.77-1.769 1.77-4.384V65.23q0-2.616-1.77-4.384-1.769-1.77-4.384-1.77m49.231 0q-2.615 0-4.384 1.77-1.77 1.769-1.77 4.384v61.538q0 2.614 1.77 4.384 1.769 1.77 4.384 1.77t4.384-1.77 1.77-4.384V65.23q0-2.616-1.77-4.384-1.769-1.77-4.384-1.77m49.231 0q-2.615 0-4.384 1.77-1.77 1.769-1.77 4.384v61.538q0 2.614 1.77 4.384 1.769 1.77 4.384 1.77c2.615 0 3.205-.59 4.384-1.77q1.77-1.769 1.77-4.384V65.23q0-2.616-1.77-4.384-1.769-1.77-4.384-1.77M22.152 83.692q-2.615 0-4.384 1.77-1.77 1.769-1.77 4.384v12.308q0 2.614 1.77 4.384 1.769 1.77 4.384 1.77c2.615 0 3.205-.59 4.384-1.77q1.77-1.769 1.77-4.384V89.846q0-2.616-1.77-4.384-1.769-1.77-4.384-1.77m98.462 0q-2.615 0-4.384 1.77-1.77 1.769-1.77 4.384v12.308q0 2.614 1.77 4.384 1.769 1.77 4.384 1.77t4.384-1.77 1.77-4.384V89.846q0-2.616-1.77-4.384-1.769-1.77-4.384-1.77m49.231 0q-2.615 0-4.384 1.77-1.77 1.769-1.77 4.384v12.308q0 2.614 1.77 4.384 1.769 1.77 4.384 1.77t4.384-1.77q1.77-1.769 1.77-4.384V89.846q0-2.616-1.77-4.384-1.769-1.77-4.384-1.77"/></svg>