<svg xmlns="http://www.w3.org/2000/svg" width="192" height="192" viewBox="0 0 192 192"><path d="M66.909 81.455h50.909a7.273 7.273 0 0 1 7.273 7.273v43.636a7.273 7.273 0 0 1-7.273 7.272H96a17.56 17.56 0 0 1-12.415-5.142l-4.26-4.26a17.56 17.56 0 0 0-12.415-5.143 7.273 7.273 0 0 1-7.273-7.273v-29.09m0-43.637a7.273 7.273 0 0 0 7.273 7.273h7.272a7.273 7.273 0 0 1 7.273 7.273 7.273 7.273 0 0 1-7.273 7.272H66.91a17.56 17.56 0 0 0-12.415 5.143l-4.26 4.26a17.56 17.56 0 0 0-5.143 12.415V96a7.273 7.273 0 0 1-7.273 7.273A7.273 7.273 0 0 1 30.546 96v-7.273a7.273 7.273 0 0 0-7.272-7.273A7.273 7.273 0 0 0 16 88.727v43.636a7.273 7.273 0 0 0 7.273 7.273 7.273 7.273 0 0 0 7.272-7.273v-7.272a7.273 7.273 0 0 1 7.273-7.273 7.273 7.273 0 0 1 7.273 7.273v7.272a7.273 7.273 0 0 0 7.273 7.273h7.272a17.56 17.56 0 0 1 12.415 5.142l4.26 4.26a17.56 17.56 0 0 0 12.416 5.143h43.636a7.273 7.273 0 0 0 7.272-7.272v-14.545a7.273 7.273 0 0 1 7.273-7.273 7.273 7.273 0 0 1 7.273 7.273v7.272a7.273 7.273 0 0 0 7.272 7.273h7.273a7.273 7.273 0 0 0 7.273-7.273V81.454a7.273 7.273 0 0 0-7.273-7.272h-7.273a7.273 7.273 0 0 0-7.272 7.272v7.273A7.273 7.273 0 0 1 146.909 96a7.273 7.273 0 0 1-7.273-7.273V74.182a7.273 7.273 0 0 0-7.272-7.273h-29.091A7.273 7.273 0 0 1 96 59.637a7.273 7.273 0 0 1 7.273-7.273h7.272a7.273 7.273 0 0 0 7.273-7.273 7.273 7.273 0 0 0-7.273-7.272H66.91a7.273 7.273 0 0 0-7.272 7.272z"/></svg>