<svg xmlns="http://www.w3.org/2000/svg" width="192" height="192"><path d="M32.646 19C25.202 19 19 25.203 19 32.646v126.708C19 166.798 25.203 173 32.646 173h126.708c7.444 0 13.646-6.203 13.646-13.646V32.646C173 25.202 166.797 19 159.354 19zm1.95 15.596h53.606v53.607H34.595zm69.2 0h53.607v53.607h-53.607zm26.803 6.303c-11.264 0-20.498 9.236-20.498 20.5s9.235 20.5 20.498 20.5 20.502-9.237 20.502-20.5-9.238-20.5-20.502-20.5m0 9.78c5.978 0 10.721 4.742 10.721 10.72s-4.742 10.72-10.72 10.72-10.72-4.742-10.72-10.72 4.74-10.72 10.72-10.72m-96.004 53.118h53.607v53.607H34.595zm69.201 0h53.607v53.607h-53.607zm-42.398 6.305a20.5 20.5 0 0 0-20.5 20.5 20.5 20.5 0 0 0 20.5 20.5 20.5 20.5 0 0 0 20.5-20.5 20.5 20.5 0 0 0-20.5-20.5"/></svg>