<svg xmlns="http://www.w3.org/2000/svg" width="192" height="192"><path d="M67.75 84.25Q56 72.5 56 56t11.75-28.25T96 16t28.25 11.75T136 56t-11.75 28.25T96 96 67.75 84.25M16 156v-8q0-8.5 4.375-15.625T32 121.5q15.5-7.75 31.5-11.625T96 106t32.5 3.875T160 121.5q7.25 3.75 11.625 10.875T176 148v8q0 8.25-5.875 14.125T156 176H36q-8.25 0-14.125-5.875T16 156m20 0h120v-8q0-2.75-1.375-5T151 139.5q-13.5-6.75-27.25-10.125T96 126t-27.75 3.375T41 139.5q-2.25 1.25-3.625 3.5T36 148zm74.125-85.875Q116 64.25 116 56t-5.875-14.125T96 36t-14.125 5.875T76 56t5.875 14.125T96 76t14.125-5.875"/></svg>