<svg xmlns="http://www.w3.org/2000/svg" width="192" height="192"><path d="M96 16q-16.5 0-28.25 11.75T56 56c0 16.5 3.917 20.417 11.75 28.25Q79.5 96 96 96t28.25-11.75T136 56c0-16.5-3.917-20.417-11.75-28.25Q112.5 16 96 16m0 20q8.25 0 14.125 5.875T116 56t-5.875 14.125T96 76t-14.125-5.875T76 56t5.875-14.125C87.75 36 90.5 36 96 36m0 70q-16.5 0-32.5 3.875T32 121.5q-7.25 3.75-11.625 10.875T16 148v8q0 8.25 5.875 14.125T36 176h98.343v-.002c-.633-1.329-.717-2.91-.42-4.197l.002-.004 2.406-10.342L130.02 156H36v-8q.001-2.75 1.376-5T41 139.5q13.5-6.75 27.25-10.125A116 116 0 0 1 96 126q14 0 27.75 3.375 10.665 2.618 21.178 7.265l1.894-4.498c.515-1.236 1.52-2.441 2.75-3.144.993-.567 2.208-.93 3.428-.93s2.435.363 3.428.93c1.23.703 2.234 1.908 2.75 3.144l4.093 9.719 10.738.94.108.015a7.7 7.7 0 0 1 1.515.373q-.9-5.754-4.007-10.814Q167.249 125.25 160 121.5q-15.5-7.75-31.5-11.625A137.6 137.6 0 0 0 96 106m57 26.068q-.739 0-1.443.402-.706.403-1.041 1.21l-5.037 11.954-13.03 1.143q-.94.134-1.478.603a2.9 2.9 0 0 0-.805 1.21q-.269.738-.101 1.511t.84 1.377l9.873 8.53-2.955 12.692q-.203.873.132 1.579.337.705.942 1.175t1.41.537c.805.066 1.052-.09 1.545-.404L153 168.872l11.148 6.715q.738.472 1.545.404c.807-.068 1.007-.223 1.41-.537q.605-.47.941-1.175t.133-1.579l-2.955-12.693 9.873-8.529q.672-.605.84-1.377a2.7 2.7 0 0 0-.102-1.512 2.9 2.9 0 0 0-.804-1.209q-.538-.47-1.479-.603l-13.029-1.143-5.037-11.955q-.335-.805-1.041-1.209a2.9 2.9 0 0 0-1.443-.402m0 9.537 3.895 9.133 9.806.873-7.455 6.45 2.217 9.669-8.463-5.172-8.463 5.106 2.217-9.604-7.455-6.516 9.806-.873zm23 14.38-6.332 5.47 1.703 7.32Q176 163.323 176 156zm-23 17.558L148.922 176H156q.524 0 1.04-.023z"/></svg>