<svg xmlns="http://www.w3.org/2000/svg" width="192" height="192"><path d="M50.286 176q-6.286 0-10.762-4.476t-4.476-10.762v-76.19q0-6.286 4.476-10.762t10.762-4.476h7.619V54.096q0-15.81 11.143-26.952T96 16t26.952 11.143 11.143 26.952v15.238h7.619q6.286 0 10.762 4.476t4.476 10.762v76.19q0 6.285-4.476 10.762T141.714 176zm0-15.238h91.429v-76.19H50.286zm56.476-27.333q4.476-4.476 4.476-10.762t-4.476-10.762T96 107.429t-10.762 4.476-4.476 10.762 4.476 10.762T96 137.905t10.762-4.476M73.143 69.334h45.714V54.096q0-9.524-6.667-16.19T96 31.239t-16.19 6.667-6.666 16.19zm-22.857 91.429v-76.19z"/></svg>