<svg xmlns="http://www.w3.org/2000/svg" width="192" height="192" viewBox="0 0 192 192"><path d="M96 16q-16.6 0-31.199 6.3t-25.4 17.1c-10.8 10.8-12.9 15.668-17.1 25.4q-6.3 14.601-6.3 31.2 0 16.6 6.3 31.199c6.3 14.599 9.9 18.2 17.1 25.4s15.667 12.9 25.4 17.1q14.6 6.3 31.199 6.3t31.199-6.3a86 86 0 0 0 8.152-4.033l.98-4.213-8.073-6.975-.03-.027a7 7 0 0 1-1.504-1.95Q113.015 160 96 160q-4.2 0-8.1-.5c-3.9-.5-5.233-.834-7.9-1.5v-22h24v-8q0-13.2-9.4-22.6T72 96H32q0-26.801 18.6-45.4C69.199 32 78.133 32 95.999 32q4.4 0 8.5.599c4.1.599 5.433.933 8.1 1.6q-3.6 2.2-6.1 5.7t-2.5 8.1h-8q-6.6 0-11.301 4.7-4.7 4.7-4.7 11.3v16h32v8q0 6.6 4.7 11.301 4.7 4.7 11.301 4.7h16q6 0 10.4-3.801 4.4-3.8 5.4-9.6 0 1 .1 2.5c.1 1.5.1 1.967.1 2.9q0 17.943-8.336 32.21a6.6 6.6 0 0 1 1.336-.141c1.22 0 2.435.362 3.427.93 1.23.703 2.235 1.908 2.75 3.144l3.448 8.184q4.054-6.126 7.074-13.127 6.3-14.6 6.3-31.2 0-16.599-6.3-31.198t-17.1-25.4c-10.8-10.8-15.667-12.9-25.4-17.1S107.065 16 95.998 16zm57 116.07q-.739 0-1.443.402-.706.403-1.041 1.21l-5.037 11.954-13.03 1.143q-.94.134-1.478.603a2.9 2.9 0 0 0-.805 1.21 2.7 2.7 0 0 0-.101 1.511q.168.772.84 1.377l9.873 8.53-2.955 12.692q-.203.873.132 1.579.337.705.942 1.175t1.41.537 1.545-.404L153 168.874l11.148 6.715q.738.472 1.545.404a2.6 2.6 0 0 0 1.41-.537q.605-.47.941-1.175t.133-1.579l-2.955-12.693 9.873-8.529q.672-.604.84-1.377a2.7 2.7 0 0 0-.102-1.512 2.9 2.9 0 0 0-.804-1.209q-.538-.47-1.479-.603l-13.029-1.143-5.037-11.955q-.335-.806-1.041-1.209a2.9 2.9 0 0 0-1.443-.402m0 9.537 3.895 9.133 9.806.873-7.455 6.447 2.217 9.672L153 162.56l-8.463 5.106 2.217-9.606-7.455-6.513 9.806-.873z"/></svg>