<svg xmlns="http://www.w3.org/2000/svg" width="192" height="192" viewBox="0 0 192 192"><path d="M60 16c-7.733 0-14.33 2.737-19.797 8.203Q32.001 32.402 32 44v104q0 11.598 8.203 19.797Q48.402 176 60 176h92c2.267 0 4.17-.806 5.703-2.406q2.298-2.397 2.297-5.797v-2c0-1.867-.57-3.463-1.703-4.797q-1.7-2-4.297-3c-1.867-.8-3.34-2.133-4.406-4S148 150.134 148 148s.527-4.106 1.594-5.906 2.54-3.16 4.406-4.094 3.34-2.266 4.406-4 1.594-3.663 1.594-5.797V32q-.002-6.597-4.703-11.297Q150.599 16.003 144 16zm0 16h84v88H60c-2.133 0-4.203.194-6.203.594s-3.93 1.066-5.797 2V44q0-5 3.5-8.5C55 32 56.667 32 60 32m36 9a6.4 6.4 0 0 0-2.459.5 7.5 7.5 0 0 0-2.207 1.416l-6.5 6.418H76q-2.75-.001-4.709 1.957-1.958 1.96-1.957 4.709v8.834l-6.418 6.5a7.5 7.5 0 0 0-1.416 2.207Q61 74.751 61 76c0 1.249.167 1.653.5 2.459q.5 1.208 1.416 2.207l6.418 6.5V96q-.001 2.75 1.957 4.709 1.96 1.958 4.709 1.957h8.834l6.5 6.418a7.5 7.5 0 0 0 2.207 1.416q1.21.5 2.459.5c1.249 0 1.653-.167 2.459-.5a7.5 7.5 0 0 0 2.207-1.416l6.5-6.418H116q2.75.001 4.709-1.957 1.958-1.96 1.957-4.709v-8.834l6.418-6.5a7.5 7.5 0 0 0 1.416-2.207q.5-1.21.5-2.459c0-1.249-.167-1.653-.5-2.459a7.5 7.5 0 0 0-1.416-2.207l-6.418-6.5V56q.001-2.75-1.957-4.709-1.96-1.958-4.709-1.957h-8.834l-6.5-6.418a7.5 7.5 0 0 0-2.207-1.416A6.4 6.4 0 0 0 96 41m0 6.666L104.334 56H116v11.666L124.334 76 116 84.334V96h-11.666L96 104.334 87.666 96H76V84.334L67.666 76 76 67.666V56h11.666zm0 11.668q-7 0-11.834 4.875c-4.834 4.875-4.832 7.18-4.832 11.791q0 7 4.832 11.834c4.832 4.834 7.167 4.832 11.834 4.832q6.916 0 11.791-4.832 4.875-4.833 4.875-11.834 0-.667-.041-1.334a7.4 7.4 0 0 0-.209-1.332q-.915 3.916-4.082 6.457-3.168 2.542-7.418 2.543-5 0-8.416-3.418-3.416-3.417-3.416-8.416 0-3.834 2.166-6.875t5.666-4.291zm8.334 0-1.834 5.75h-6.084l4.918 3.582-1.918 5.668 4.918-3.584 4.832 3.584-1.916-5.668 4.916-3.582h-6zM60 136h74.594a23 23 0 0 0-2 5.797c-.6 2.998-.594 4.07-.594 6.203q.002 3.399.703 6.297a36 36 0 0 0 1.891 5.703H60c-3.467 0-6.327-1.14-8.594-3.406S48 151.467 48 148c0-3.333 1.14-6.167 3.406-8.5S56.533 136 60 136"/></svg>