<svg xmlns="http://www.w3.org/2000/svg" width="192" height="192"><path d="M122.4 16.001a7.5 7.5 0 0 0-2.676.457l-91.25 37.234q-4.437 1.736-7.04 5.594c-2.604 3.858-2.604 5.465-2.604 8.68v92.6q0 6.366 4.533 10.9 4.534 4.533 10.9 4.533h97.242v-.002c-.633-1.33-.717-2.911-.42-4.198v-.004l2.408-10.342-1.03-.888h-98.2V106.55h123.47v28.898l2.701 6.412 10.736.94.11.015a7.5 7.5 0 0 1 1.882.517V67.965q0-6.365-4.535-10.898-4.533-4.534-10.898-4.535H67.444l57.297-23.34q2.7-.964 3.762-3.57 1.06-2.605.095-5.305-.963-2.701-3.568-3.763a7.3 7.3 0 0 0-2.629-.553zM34.257 67.968h123.47v23.15h-15.434v-7.717q0-3.28-2.219-5.498-2.22-2.219-5.498-2.219t-5.498 2.22c-2.219 2.22-2.219 3.31-2.219 5.497v7.717H34.261zm30.871 46.299q-8.102 0-13.697 5.594t-5.594 13.697c0 8.102 1.865 9.968 5.594 13.697q5.594 5.595 13.697 5.595 8.105 0 13.697-5.595 5.596-5.595 5.596-13.697c0-8.102-1.866-9.968-5.596-13.697q-5.595-5.594-13.697-5.594m85.033 17.801q-.739 0-1.443.402-.706.403-1.041 1.21l-5.037 11.954-13.03 1.143q-.94.134-1.478.603a2.9 2.9 0 0 0-.807 1.21q-.268.738-.1 1.511.17.772.84 1.377l9.874 8.53-2.955 12.692q-.203.874.132 1.579.337.705.942 1.175.604.471 1.41.537t1.545-.404l11.148-6.715 11.148 6.715q.738.472 1.545.404a2.6 2.6 0 0 0 1.41-.537 3.2 3.2 0 0 0 .94-1.175q.335-.706.134-1.579l-2.955-12.693 9.873-8.529q.672-.604.84-1.377a2.7 2.7 0 0 0-.102-1.512 2.9 2.9 0 0 0-.804-1.209q-.538-.47-1.479-.603l-13.029-1.143-5.037-11.955q-.335-.805-1.041-1.209a2.9 2.9 0 0 0-1.443-.402m0 9.537 3.895 9.133 9.806.873-7.455 6.45 2.217 9.669-8.463-5.172-8.463 5.106 2.217-9.604-7.455-6.515 9.804-.873zm23 14.38-6.334 5.47 2.229 9.568q4.105-4.398 4.105-10.457zm-23 17.558L146.083 176h8.156z"/></svg>