<svg xmlns="http://www.w3.org/2000/svg" width="192" height="192" viewBox="0 0 192 192"><path d="M60 16c-7.733 0-14.33 2.737-19.797 8.203Q32.001 32.402 32 44v104q.001 11.598 8.203 19.797Q48.402 176 60 176h92c2.267 0 4.17-.806 5.703-2.406q2.298-2.398 2.297-5.797v-2c0-1.867-.57-3.463-1.703-4.797q-1.699-2-4.297-3c-1.867-.8-3.34-2.133-4.406-4S148 150.134 148 148s.527-4.106 1.594-5.906 2.54-3.16 4.406-4.094 3.34-2.266 4.406-4 1.594-3.663 1.594-5.797V32q-.002-6.598-4.703-11.297Q150.599 16.002 144 16zm0 16h84v88H60c-2.133 0-4.203.194-6.203.594s-3.93 1.066-5.797 2V44q0-5 3.5-8.5C55 32 56.667 32 60 32m36 9q-3.402-.001-5.703 2.297Q87.999 45.598 88 49v8h-8q-3.402-.001-5.703 2.297Q71.999 61.598 72 65c.001 3.402.764 4.17 2.297 5.703Q76.598 73.001 80 73h8v30q-.001 3.402 2.297 5.703Q92.598 111.001 96 111c3.402-.001 4.17-.764 5.703-2.297q2.298-2.301 2.297-5.703V73h8q3.402.001 5.703-2.297Q120.001 68.402 120 65c-.001-3.402-.764-4.17-2.297-5.703Q115.402 56.999 112 57h-8v-8q.001-3.402-2.297-5.703Q99.402 40.999 96 41m-36 95h74.594q-1.4 2.799-2 5.797c-.6 2.998-.594 4.07-.594 6.203q.002 3.399.703 6.297a36 36 0 0 0 1.891 5.703H60c-3.467 0-6.327-1.14-8.594-3.406S48 151.467 48 148c0-3.333 1.14-6.167 3.406-8.5S56.533 136 60 136"/></svg>