<svg xmlns="http://www.w3.org/2000/svg" width="192" height="192"><path d="M124 18q-4 0-7 3.001t-2.999 7Q114 32.003 117 35.004l11.667 11.664-12 12.332q-2.666 3-2.666 7-.001 4 2.998 7.001 3 2.999 7 2.998c4 0 5.002-.998 7.001-2.998l11.667-11.667 11.664 11.667q3.001 2.999 7.001 2.998 4 .001 7-2.998 2.668-2.667 2.835-6.833Q171.33 62 168.665 59l-12-12.333 11.668-11.664q3-3.001 3-7.001t-3-7Q165.332 18 161.332 18t-7 3.001l-11.665 11.667L131 21.001q-3-3-7-3.001M29.335 36.668q-4.335 0-7.168 2.834-2.834 2.832-2.834 7.165 0 4.335 2.834 7.168t7.168 2.834h46.664q4.335 0 7.168-2.834t2.834-7.168-2.834-7.165q-2.835-2.835-7.168-2.834zm23.334 63.999q-4.335 0-7.168 2.834t-2.834 7.168v16.665H26.002q-4.335 0-7.168 2.834T16 137.333c0 4.332.945 5.28 2.834 7.168q2.835 2.834 7.168 2.834h16.665V164q0 4.333 2.834 7.168t7.168 2.834q4.333 0 7.165-2.834 2.834-2.835 2.834-7.168v-16.665h16.665q4.335 0 7.168-2.834t2.834-7.168c0-4.333-.945-5.276-2.834-7.165q-2.835-2.834-7.168-2.834H62.668v-16.665q0-4.335-2.834-7.168-2.832-2.835-7.165-2.834m66.665 10.002q-4.335-.001-7.168 2.83-2.834 2.835-2.834 7.169c0 4.334.945 5.276 2.834 7.165s4.28 2.834 7.168 2.834h46.664q4.335 0 7.168-2.834t2.834-7.165c0-4.333-.945-5.28-2.834-7.168q-2.835-2.833-7.168-2.831zm0 33.333q-4.335 0-7.168 2.834c-2.833 2.834-2.834 4.276-2.834 7.165q0 4.333 2.834 7.165c2.834 2.832 4.28 2.834 7.168 2.834h46.664q4.335 0 7.168-2.834t2.834-7.165q0-4.333-2.834-7.165-2.835-2.834-7.168-2.834z"/></svg>