<svg xmlns="http://www.w3.org/2000/svg" width="192" height="192"><path d="M24 56q-3.4 0-5.7-2.3T16 48V24q0-3.4 2.3-5.7T24 16h24q3.4 0 5.7 2.3T56 24t-2.3 5.7T48 32H32v16q0 3.4-2.3 5.7T24 56m0 120q-3.4 0-5.7-2.3T16 168v-24q0-3.4 2.3-5.7T24 136t5.7 2.3T32 144v16h16q3.4 0 5.7 2.3T56 168t-2.3 5.7T48 176zm120 0q-3.4 0-5.7-2.3T136 168t2.3-5.7 5.7-2.3h16v-16q0-3.4 2.3-5.7t5.7-2.3 5.7 2.3 2.3 5.7v24q0 3.4-2.3 5.7T168 176zm18.3-122.3Q160 51.4 160 48V32h-16q-3.4 0-5.7-2.3T136 24t2.3-5.7T144 16h24q3.4 0 5.7 2.3T176 24v24q0 3.4-2.3 5.7T168 56t-5.7-2.3M140 152v-12h12v12zm0-24v-12h12v12zm-12 12v-12h12v12zm-12 12v-12h12v12zm-12-12v-12h12v12zm24-24v-12h12v12zm-12 12v-12h12v12zm-12-12v-12h12v12zm8-28q-3.4 0-5.7-2.3T104 80V48q0-3.4 2.3-5.7T112 40h32q3.4 0 5.7 2.3T152 48v32q0 3.4-2.3 5.7T144 88zm-64 64q-3.4 0-5.7-2.3T40 144v-32q0-3.4 2.3-5.7T48 104h32q3.4 0 5.7 2.3T88 112v32q0 3.4-2.3 5.7T80 152zm0-64q-3.4 0-5.7-2.3T40 80V48q0-3.4 2.3-5.7T48 40h32q3.4 0 5.7 2.3T88 48v32q0 3.4-2.3 5.7T80 88zm4 52h24v-24H52zm0-64h24V52H52zm64 0h24V52h-24z"/></svg>