<svg xmlns="http://www.w3.org/2000/svg" width="192" height="192" viewBox="0 0 192 192"><path d="M49.8 173q-6.352 0-10.876-4.524T34.4 157.6V34.4q0-6.352 4.524-10.876T49.8 19h92.4q6.353 0 10.876 4.524T157.6 34.4v123.2q0 6.353-4.524 10.876T142.2 173zm0-15.4h92.4V34.4h-15.4v47.162q0 2.31-1.925 3.369t-3.85-.096l-9.433-5.775q-1.925-1.155-3.946-1.155T103.7 79.06l-9.432 5.775q-1.925 1.155-3.947.096t-2.02-3.369V34.4H49.8zm0 0V34.4zm38.5-76.038q0 2.31 2.021 3.369t3.946-.096l9.433-5.775q1.925-1.155 3.946-1.155t3.946 1.155l9.433 5.775q1.925 1.155 3.85.096t1.925-3.369q0 2.31-1.925 3.369t-3.85-.096l-9.433-5.775q-1.925-1.155-3.946-1.155T103.7 79.06l-9.433 5.775q-1.925 1.155-3.946.096T88.3 81.562"/></svg>