<svg xmlns="http://www.w3.org/2000/svg" width="192" height="192" viewBox="0 0 192 192"><path d="m123.01 116.99 6.203-22.409q.8-2.401-.1-4.802t-3.102-4.002l-19.008-13.005q-1.6-1.2-3.501-.5T101 74.973l-6.203 22.41q-.8 2.4.1 4.801T98 106.186l19.008 13.005q1.6 1.2 3.501.5t2.501-2.701m-91.036 37.615-6.603-3.201q-6.202-2.601-8.403-8.904-2.2-6.302.6-12.505l14.406-31.212zm32.013 17.407q-6.603 0-11.305-4.802t-4.702-11.405v-47.819l21.41 58.824q.6 1.4 1 2.701.4 1.3 1.4 2.501zm41.216-1q-6.202 2.2-12.405-.6-6.202-2.802-8.403-9.004L48.98 63.568q-2.201-6.202.6-12.304 2.8-6.103 9.003-8.304l60.224-22.009q6.203-2.2 12.305.6 6.103 2.802 8.304 9.004l35.614 97.84q2.2 6.202-.6 12.304-2.802 6.103-9.004 8.304zm-5.602-15.006 60.424-22.01-35.814-98.038-60.224 22.009z"/></svg>