<svg xmlns="http://www.w3.org/2000/svg" width="192" height="192" viewBox="0 0 192 192"><path d="M36.111 173q-7.058 0-12.085-5.026T19 155.889V36.109q0-7.059 5.026-12.085t12.085-5.027h119.78q7.058 0 12.085 5.027t5.026 12.085v119.78q0 7.058-5.026 12.085T155.891 173zm0-17.111h27.806v-38.5h-2.139q-3.636 0-6.096-2.46t-2.46-6.095V36.112h-17.11zm91.972 0h27.806V36.109h-17.111v72.722q0 3.636-2.46 6.096t-6.095 2.46h-2.14zm-51.333 0h38.5v-38.5h-2.139q-3.636 0-6.096-2.46t-2.46-6.095V36.112h-17.11v72.722q0 3.636-2.46 6.095-2.46 2.46-6.096 2.46H76.75z"/></svg>