<svg xmlns="http://www.w3.org/2000/svg" width="192" height="192" viewBox="0 0 192 192"><circle cx="96" cy="96" r="72" fill="none" stroke="#000" stroke-linejoin="round" stroke-width="16"/><path d="M76 46c-5.464 0-10 4.536-10 10s4.536 10 10 10 10-4.536 10-10-4.536-10-10-10m40 0c-5.464 0-10 4.536-10 10s4.536 10 10 10 10-4.536 10-10-4.536-10-10-10M56 66c-5.464 0-10 4.536-10 10s4.536 10 10 10 10-4.536 10-10-4.536-10-10-10m40 0c-5.464 0-10 4.536-10 10s4.536 10 10 10 10-4.536 10-10-4.536-10-10-10m40 0c-5.464 0-10 4.536-10 10s4.536 10 10 10 10-4.536 10-10-4.536-10-10-10M76 86c-5.464 0-10 4.536-10 10s4.536 10 10 10 10-4.536 10-10-4.536-10-10-10m40 0c-5.464 0-10 4.536-10 10s4.536 10 10 10 10-4.536 10-10-4.536-10-10-10m-60 20c-5.464 0-10 4.536-10 10s4.536 10 10 10 10-4.536 10-10-4.536-10-10-10m40 0c-5.464 0-10 4.536-10 10s4.536 10 10 10 10-4.536 10-10-4.536-10-10-10m40 0c-5.464 0-10 4.536-10 10s4.536 10 10 10 10-4.536 10-10-4.536-10-10-10m-60 20c-5.464 0-10 4.536-10 10s4.536 10 10 10 10-4.536 10-10-4.536-10-10-10m40 0c-5.464 0-10 4.536-10 10s4.536 10 10 10 10-4.536 10-10-4.536-10-10-10"/></svg>