<svg xmlns="http://www.w3.org/2000/svg" width="192" height="192" viewBox="0 0 192 192"><path d="M16 141.92q1.636-19.455 11.909-35.818 10.273-16.364 27.364-26L41.818 56.829q-1.09-1.636-.545-3.455.545-1.818 2.363-2.727 1.455-.909 3.273-.364 1.818.546 2.909 2.182l13.455 23.273Q78.909 69.193 96 69.193t32.727 6.545l13.455-23.273q1.09-1.636 2.909-2.182 1.818-.545 3.273.364 1.818.91 2.363 2.727.546 1.819-.545 3.455l-13.455 23.273q17.09 9.636 27.364 26Q174.364 122.466 176 141.92zm50.091-22.636q2.636-2.636 2.636-6.455t-2.636-6.454q-2.636-2.637-6.454-2.637-3.819 0-6.455 2.637t-2.636 6.454 2.636 6.455q2.636 2.636 6.455 2.636t6.454-2.636m72.727 0q2.636-2.636 2.636-6.455t-2.636-6.454q-2.636-2.637-6.454-2.637-3.819 0-6.455 2.637t-2.636 6.454 2.636 6.455q2.636 2.636 6.455 2.636t6.454-2.636"/></svg>