<svg xmlns="http://www.w3.org/2000/svg" width="192" height="192"><path d="M24 16q-3.4 0-5.7 2.3T16 24v24q0 3.4 2.3 5.7 2.3 2.299 5.7 2.3c3.4.001 4.166-.767 5.7-2.3Q32 51.4 32 48V32h16q3.4 0 5.7-2.3 2.299-2.3 2.3-5.7c.001-3.4-.767-4.166-2.3-5.7Q51.4 16 48 16zm120 0q-3.4 0-5.7 2.3T136 24c0 3.4.767 4.166 2.3 5.7q2.3 2.3 5.7 2.3h16v16q0 3.4 2.3 5.7 2.3 2.299 5.7 2.3c3.4.001 4.166-.767 5.7-2.3q2.3-2.3 2.3-5.7V24q0-3.4-2.3-5.7T168 16zM48 40q-3.4 0-5.7 2.3-2.299 2.3-2.3 5.7v32q0 3.4 2.3 5.7T48 88h32q3.4 0 5.7-2.3T88 80V48q0-3.4-2.3-5.7-2.3-2.299-5.7-2.3zm64 0q-3.4 0-5.7 2.3T104 48v32q0 3.4 2.3 5.7T112 88h32q3.4 0 5.7-2.3T152 80V48q0-3.4-2.3-5.7-2.3-2.299-5.7-2.3zM52 52h24v24H52zm64 0h24v24h-24zm-68 52q-3.4 0-5.7 2.3-2.299 2.3-2.3 5.7v32q0 3.4 2.3 5.7T48 152h32q3.4 0 5.7-2.3T88 144v-32q0-3.4-2.3-5.7T80 104zm56 0v12h12v-12zm12 12v12h12v-12zm12 0h12v-12h-12zm12 0v12h12v-12zm0 12h-12v12h12zm0 12v2.1l2.729-.239.783-1.861zm-12 0h-12v12h10.488a6 6 0 0 1-.332-1.049 6.9 6.9 0 0 1 .25-3.726 7.1 7.1 0 0 1 1.594-2.536zm-12 0v-12h-12v12zm-64-24h24v24H52zm101 16.068q-.738 0-1.443.402-.706.403-1.041 1.21l-5.037 11.954-13.03 1.143q-.94.134-1.478.603a2.9 2.9 0 0 0-.805 1.21 2.7 2.7 0 0 0-.101 1.511q.168.772.84 1.377l9.873 8.53-2.955 12.692q-.202.874.134 1.579t.94 1.175q.604.471 1.41.537t1.545-.404L153 168.872l11.148 6.715q.738.472 1.545.404a2.6 2.6 0 0 0 1.41-.537q.605-.47.941-1.175t.133-1.579l-2.955-12.693 9.873-8.529q.672-.605.84-1.377a2.7 2.7 0 0 0-.102-1.512 2.9 2.9 0 0 0-.804-1.209q-.538-.47-1.479-.603l-13.029-1.143-5.037-11.955q-.335-.805-1.041-1.209a2.9 2.9 0 0 0-1.443-.402M24 136q-3.4 0-5.7 2.3T16 144v24q0 3.4 2.3 5.699t5.7 2.3h24q3.4 0 5.7-2.3 2.299-2.3 2.3-5.7c.001-3.4-.767-4.165-2.3-5.699Q51.4 160 48 160H32v-16q0-3.4-2.3-5.7T24 136m144 0q-3.4 0-5.7 2.3a9 9 0 0 0-.364.387l1.337 3.174 10.736.94.108.015a7.5 7.5 0 0 1 1.86.508q-.21-2.955-2.278-5.024-2.3-2.3-5.7-2.3zm-15 5.605 3.897 9.133 9.804.873-7.455 6.45 2.217 9.669-8.463-5.172-8.46 5.105 2.214-9.605-7.453-6.514 9.805-.873zm23 14.379-6.332 5.47 2.406 10.343.002.004a6.8 6.8 0 0 1-.052 3.19 8 8 0 0 0 1.675-1.292Q176 171.4 176 168zm-23 17.559L148.922 176h8.158z"/></svg>