<svg xmlns="http://www.w3.org/2000/svg" width="192" height="192" viewBox="0 0 192 192"><path d="M120 160q-3.4 0-5.7-2.3T112 152t2.3-5.7 5.7-2.3h16q3.4 0 5.7-2.3t2.3-5.7v-16q0-7.6 4.4-13.8t11.6-8.8v-2.8q-7.2-2.6-11.6-8.8T144 72V56q0-3.4-2.3-5.7T136 48h-16q-3.4 0-5.7-2.3T112 40t2.3-5.7T120 32h16q10 0 17 7t7 17v16q0 3.4 2.3 5.7T168 80t5.7 2.3T176 88v16q0 3.4-2.3 5.7T168 112t-5.7 2.3-2.3 5.7v16q0 10-7 17t-17 7zm-64 0q-10 0-17-7t-7-17v-16q0-3.4-2.3-5.7T24 112t-5.7-2.3T16 104V88q0-3.4 2.3-5.7T24 80t5.7-2.3T32 72V56q0-10 7-17t17-7h16q3.4 0 5.7 2.3T80 40t-2.3 5.7T72 48H56q-3.4 0-5.7 2.3T48 56v16q0 7.6-4.4 13.8T32 94.6v2.8q7.2 2.6 11.6 8.8T48 120v16q0 3.4 2.3 5.7T56 144h16q3.4 0 5.7 2.3T80 152t-2.3 5.7T72 160z"/></svg>