<svg xmlns="http://www.w3.org/2000/svg" width="192" height="192"><path d="m88 97.6-7.2-7.2q-2.2-2.2-5.6-2.2t-5.6 2.2-2.2 5.6 2.2 5.6l20.8 20.8q2.4 2.4 5.6 2.4t5.6-2.4l20.8-20.8q2.2-2.2 2.2-5.6t-2.2-5.6-5.6-2.2-5.6 2.2l-7.2 7.2V72q0-3.4-2.3-5.7T96 64t-5.7 2.3T88 72zm8 78.4q-16.6 0-31.2-6.3t-25.4-17.1-17.1-25.4T16 96t6.3-31.2 17.1-25.4 25.4-17.1T96 16t31.2 6.3 25.4 17.1 17.1 25.4T176 96t-6.3 31.2-17.1 25.4-25.4 17.1T96 176m0-16q26.8 0 45.4-18.6T160 96t-18.6-45.4T96 32 50.6 50.6 32 96t18.6 45.4T96 160"/></svg>