<svg xmlns="http://www.w3.org/2000/svg" width="192" height="192"><path d="M78.105 109.68q-7.368-7.368-7.368-17.895V41.259q0-10.526 7.368-17.895T96 15.996t17.895 7.368 7.368 17.895v50.526q0 10.526-7.368 17.895T96 117.048t-17.895-7.368m9.474 57.892v-17.474q-19.368-2.737-33.158-16.421-13.789-13.684-16.737-33.263-.421-3.579 1.895-6.105t5.894-2.527 6 2.422q2.421 2.42 3.264 6 2.947 14.737 14.632 24.21T96 133.889q15.158 0 26.737-9.579t14.526-24.105q.842-3.579 3.263-6t6-2.42 5.895 2.525 1.894 6.106q-2.947 19.158-16.632 33.053Q124 147.363 104.421 150.1v17.474q0 3.579-2.42 6-2.422 2.42-6 2.42-3.58 0-6-2.42-2.422-2.421-2.422-6zM102 97.783q2.421-2.421 2.421-6V41.257q0-3.579-2.421-6t-6-2.421-6 2.421-2.421 6v50.526q0 3.579 2.421 6t6 2.421 6-2.421"/></svg>