<svg xmlns="http://www.w3.org/2000/svg" width="192" height="192"><path d="M96 16q-2.502 0-4.194 1.693-1.693 1.691-1.693 4.193v58.867q0 2.502 1.693 4.194Q93.497 86.64 96 86.64q2.502 0 4.195-1.692 1.692-1.692 1.692-4.194V21.886q0-2.501-1.693-4.193Q98.503 16 96 16M72.454 27.773q-2.502 0-4.194 1.693t-1.693 4.194v35.32q0 2.501 1.693 4.194 1.692 1.692 4.194 1.691t4.195-1.691q1.691-1.693 1.69-4.195V33.66q.001-2.502-1.69-4.194-1.693-1.692-4.195-1.693m47.093 0q-2.502 0-4.194 1.693t-1.692 4.194v35.32q0 2.501 1.692 4.194 1.692 1.692 4.194 1.691t4.194-1.691q1.693-1.693 1.693-4.195V33.66q0-2.502-1.693-4.194-1.692-1.692-4.194-1.693M48.908 42.49q-2.502 0-4.194 1.693-1.693 1.692-1.693 4.193v5.887q0 2.502 1.693 4.195 1.692 1.692 4.194 1.691t4.195-1.691q1.691-1.693 1.69-4.195v-5.887q.001-2.501-1.69-4.193-1.693-1.692-4.195-1.693m94.185 0q-2.502 0-4.194 1.693-1.693 1.692-1.692 4.193v5.887q0 2.502 1.692 4.195 1.692 1.692 4.194 1.691c2.502 0 3.066-.563 4.195-1.691q1.692-1.693 1.692-4.195v-5.887q0-2.501-1.692-4.193-1.693-1.692-4.195-1.693m-9.538 38.415q-2.473.058-4.58 2.166l-54.708 54.708a13.4 13.4 0 0 0-3.996-1.375 24.4 24.4 0 0 0-4.246-.374q-8.243 0-14.114 5.87-5.871 5.872-5.872 14.115t5.872 14.114Q57.78 176 66.025 176c8.245 0 10.2-1.957 14.114-5.871q5.87-5.87 5.87-14.114 0-2.124-.375-4.248a13.4 13.4 0 0 0-1.373-3.996L96 136.03l11.742 11.74a13.4 13.4 0 0 0-1.374 3.997 24.4 24.4 0 0 0-.375 4.248q0 8.244 5.87 14.114Q117.736 176 125.98 176t14.114-5.871q5.87-5.87 5.87-14.114t-5.87-14.114q-5.87-5.871-14.114-5.871-2.124 0-4.247.374c-2.123.374-2.747.709-3.996 1.375l-11.742-11.741 32.85-32.85a7.3 7.3 0 0 0 1.561-2.31 6.8 6.8 0 0 0 .562-2.686q0-4.746-4.31-6.619-1.615-.703-3.1-.668zm-75.009.1q-1.5-.049-3.138.63-4.372 1.811-4.372 6.557 0 1.374.561 2.685c.561 1.311.896 1.645 1.562 2.311l27.853 27.853 9.993-9.991-27.853-27.853q-2.107-2.109-4.606-2.191M96 123.54q1 0 1.75.75.749.749.749 1.748t-.75 1.748c-.75.749-1.083.75-1.749.75q-1 0-1.749-.75c-.749-.75-.75-1.082-.75-1.748q0-1 .75-1.749t1.75-.75m-29.976 22.482q4.122 0 7.057 2.936t2.935 7.057-2.935 7.056-7.057 2.935c-4.122 0-5.1-.978-7.056-2.935q-2.936-2.934-2.937-7.056t2.937-7.057q2.935-2.936 7.056-2.936m59.953 0q4.122 0 7.057 2.936t2.936 7.057q-.001 4.121-2.936 7.056t-7.057 2.935q-4.121 0-7.056-2.935t-2.935-7.056q0-4.122 2.935-7.057t7.056-2.936"/></svg>