<svg xmlns="http://www.w3.org/2000/svg" width="192" height="192"><path d="M117.08 116.69q2.406-2.406 2.406-5.679t-2.406-5.679-5.679-2.406-5.679 2.406-2.406 5.68 2.406 5.678 5.68 2.406 5.678-2.406m-5.679-22.234q2.118 0 3.946-1.54t2.214-4.043q.385-2.31 1.636-4.235t4.524-5.197q5.775-5.775 7.7-9.336t1.925-8.374q0-8.663-6.064-14.149t-15.88-5.486q-6.353 0-11.55 2.887t-8.278 8.278q-1.155 1.925-.193 4.042t3.273 3.08q2.117.963 4.139.193t3.369-2.695q1.732-2.503 4.042-3.754t5.198-1.251q4.62 0 7.507 2.599t2.888 7.026q0 2.695-1.54 5.101t-5.39 6.064q-5.583 4.812-7.123 7.411t-1.925 7.604q-.192 2.31 1.444 4.042t4.139 1.733zm-46.2 47.74q-6.352 0-10.876-4.524t-4.524-10.876v-92.4q0-6.352 4.524-10.876t10.876-4.524h92.4q6.353 0 10.876 4.524t4.524 10.876v92.4q0 6.353-4.524 10.876t-10.876 4.524zm0-15.4h92.4v-92.4h-92.4zm-30.8 46.2q-6.352 0-10.876-4.524t-4.524-10.876v-100.1q0-3.272 2.214-5.486t5.486-2.214 5.487 2.214 2.213 5.486v100.1h100.1q3.273 0 5.487 2.214t2.213 5.486-2.213 5.486-5.487 2.214zm30.8-138.6v92.4z"/></svg>