<svg xmlns="http://www.w3.org/2000/svg" width="192" height="192" viewBox="0 0 192 192"><path d="M96 16q-16.6 0-31.199 6.3t-25.4 17.1c-10.8 10.8-12.9 15.668-17.1 25.4q-6.3 14.601-6.3 31.2 0 16.6 6.3 31.199c6.3 14.599 9.9 18.2 17.1 25.4s15.667 12.9 25.4 17.1q14.6 6.3 31.199 6.3t31.199-6.3a87 87 0 0 0 6.897-3.34v-18.607Q117.746 160 95.998 160q-26.8 0-45.4-18.6C32 122.8 32 113.866 32 96q0-26.8 18.6-45.4C69.2 32 78.133 32 96 32q26.8 0 45.4 18.6C160 69.2 160 78.134 160 96q0 16.566-7.107 30h7.914c3.137 0 6.086.55 8.668 1.717l.225-.518Q176 112.599 176 96t-6.3-31.199-17.1-25.4c-10.8-10.8-15.667-12.9-25.4-17.1s-20.133-6.3-31.2-6.3zM82.176 64.926q-1.526-.076-3.076.773Q76 67.4 76 71v50q0 3.6 3.1 5.301 3.1 1.7 6.1-.3l39-25q2.8-1.8 2.8-5c0-3.2-.934-3.8-2.8-5l-39-25q-1.5-1-3.024-1.075M144.584 130q-2.666 0-4.594 1.928-1.894 1.894-1.894 4.56v32.99q-.001 2.668 1.894 4.594 1.928 1.928 4.594 1.928h17.604q6.36 0 10.086-3.727 3.727-3.757 3.727-9.219 0-4.176-2.282-7.035-2.279-2.859-6.52-3.855 3.374-1.156 5.3-3.854 1.927-2.73 1.927-6.746 0-5.108-3.662-8.32-3.661-3.244-9.957-3.244zm5.332 8.674h7.195q2.827 0 4.434 1.445 1.639 1.413 1.639 3.791 0 2.249-1.51 3.758-1.51 1.51-4.049 1.51h-7.709zm0 17.764h8.287q2.764 0 4.498 1.476 1.767 1.479 1.768 3.856 0 2.441-1.703 4.015-1.703 1.575-4.37 1.575h-8.48z"/></svg>