<svg xmlns="http://www.w3.org/2000/svg" width="192" height="192"><path d="M92.25 131.12q-1.75-.625-3.25-2.125l-36-36q-3-3-2.875-7t2.875-7q3-3 7.125-3.125t7.125 2.875L86 97.495v-71.5q0-4.25 2.875-7.125T96 15.995t7.125 2.875T106 25.995v71.5l18.75-18.75q3-3 7.125-2.875T139 78.995q2.75 3 2.875 7t-2.875 7l-36 36q-1.5 1.5-3.25 2.125t-3.75.625-3.75-.625M36 175.995q-8.25 0-14.125-5.875T16 155.995v-20q0-4.25 2.875-7.125T26 125.995t7.125 2.875T36 135.995v20h120v-20q0-4.25 2.875-7.125t7.125-2.875 7.125 2.875 2.875 7.125v20q0 8.25-5.875 14.125T156 175.995z"/></svg>