<svg xmlns="http://www.w3.org/2000/svg" width="192" height="192" viewBox="0 0 192 192"><path d="M98.226 175.88q-17.097 0-32.056-6.513t-26.052-17.605Q29.026 140.67 22.513 125.71T16 93.654q0-26.052 14.654-47.219T69.935 16.72q4.478-1.628 8.345 1.12 3.867 2.747 3.663 7.428-.61 17.3 5.496 32.972t18.318 27.884 27.884 18.318 32.972 5.496q5.291-.204 7.836 3.561t.915 8.447q-8.955 24.424-30.02 39.18t-47.118 14.756zm0-16.282q17.911 0 33.176-8.955t24.017-24.627q-17.504-1.629-33.176-8.854T94.156 97.521 74.414 69.434t-8.752-33.176Q49.99 45.01 41.137 60.376q-8.853 15.367-8.853 33.277 0 27.477 19.234 46.71 19.234 19.234 46.71 19.234z"/></svg>