<svg xmlns="http://www.w3.org/2000/svg" width="192" height="192"><path d="M93.083 167.46v-51.458l-32.5 32.5q-2.292 2.292-5.833 2.292t-5.834-2.292q-2.291-2.292-2.291-5.833t2.291-5.834L89.75 96.002 48.916 55.17q-2.291-2.291-2.291-5.833t2.291-5.833q2.292-2.292 5.834-2.292t5.833 2.292l32.5 32.5V24.545q0-3.75 2.5-6.146t5.833-2.396q1.667 0 3.125.625 1.459.625 2.709 1.875l35.833 35.833q1.25 1.25 1.77 2.708.521 1.459.521 3.125 0 1.667-.52 3.125-.521 1.459-1.771 2.709l-30 30 30 30q1.25 1.25 1.77 2.708.521 1.458.521 3.125t-.52 3.125-1.771 2.708l-35.833 35.833q-1.25 1.25-2.709 1.875-1.458.625-3.125.625-3.333 0-5.833-2.395t-2.5-6.146zm16.667-91.458 15.833-15.833-15.833-15.417zm0 71.25 15.833-15.417-15.833-15.833z"/></svg>