<svg xmlns="http://www.w3.org/2000/svg" width="192" height="192"><path d="m109.17 30.5 12.833 12.833q1.833 1.833 1.833 4.667t-1.833 4.666q-1.833 1.834-4.667 1.834t-4.666-1.834L84.337 24.333q-2-2-1.084-4.666.917-2.667 3.75-3.167 2.334-.333 4.5-.417t4.5-.083q16.5 0 31.083 6.25t25.5 17.167 17.167 25.5T176.003 96q0 2.833-1.916 4.75-1.917 1.917-4.75 1.917t-4.75-1.917T162.67 96q0-11.833-4-22.667-4-10.833-11.083-19.5t-16.917-14.75Q120.837 33 109.17 30.5m-26.333 131-12.833-12.833q-1.833-1.833-1.833-4.667t1.833-4.666q1.833-1.834 4.667-1.834t4.666 1.834l28.333 28.333q2 2 1.084 4.75t-3.75 3.083q-2.334.333-4.5.417t-4.5.083q-16.5 0-31.083-6.25t-25.5-17.167-17.167-25.5T16.004 96q0-2.833 1.916-4.75 1.917-1.917 4.75-1.917t4.75 1.917T29.337 96q0 11.833 4 22.667 4 10.833 11.083 19.5t16.917 14.75q9.833 6.083 21.5 8.583m15.833-15.833L46.503 93.334q-1.833-1.833-2.833-4.167t-1-4.833 1-4.833 2.833-4.167l28.833-28.833q1.833-1.833 4.167-2.75t4.833-.917 4.833.917 4.167 2.75l52.167 52.167q1.833 1.833 2.833 4.167t1 4.833-1 4.833-2.833 4.167l-28.833 29q-1.833 1.833-4.167 2.75t-4.833.917-4.833-.917-4.167-2.75zm9-9.667 28.333-28.333L84.336 56 56.003 84.333zm-29.5-52.667q2.167 0 3.583-1.5t1.417-3.5q0-2.166-1.417-3.583t-3.583-1.417q-2 0-3.5 1.417t-1.5 3.583q0 2 1.5 3.5t3.5 1.5"/></svg>