<svg width="192" height="192" fill="none" xmlns="http://www.w3.org/2000/svg"><path d="M96 170c8.837 0 16-7.163 16-16s-7.163-16-16-16-16 7.163-16 16 7.163 16 16 16Z" stroke="#000" stroke-width="12" stroke-linecap="round" stroke-linejoin="round"/><path d="M26 31a5 5 0 1 0 0-10 5 5 0 0 0 0 10Zm0 56a5 5 0 1 0 0-10 5 5 0 0 0 0 10Zm56-56a5 5 0 1 0 0-10 5 5 0 0 0 0 10Zm0 56a5 5 0 1 0 0-10 5 5 0 0 0 0 10ZM68 59a5 5 0 1 0 0-10 5 5 0 0 0 0 10Zm0 56a5 5 0 1 0 0-10 5 5 0 0 0 0 10Zm42-84a5 5 0 1 0 0-10 5 5 0 0 0 0 10Zm0 56a5 5 0 1 0 0-10 5 5 0 0 0 0 10ZM96 59a5 5 0 1 0 0-10 5 5 0 0 0 0 10Zm0 56a5 5 0 1 0 0-10 5 5 0 0 0 0 10ZM54 31a5 5 0 1 0 0-10 5 5 0 0 0 0 10Zm0 56a5 5 0 1 0 0-10 5 5 0 0 0 0 10ZM40 59a5 5 0 1 0 0-10 5 5 0 0 0 0 10Zm98-28a5 5 0 1 0 0-10 5 5 0 0 0 0 10Zm0 56a5 5 0 1 0 0-10 5 5 0 0 0 0 10Zm-14-28a5 5 0 1 0 0-10 5 5 0 0 0 0 10Zm0 56a5 5 0 1 0-.001-10.001A5 5 0 0 0 124 115Zm42-84a5 5 0 1 0 0-10 5 5 0 0 0 0 10Zm0 56a5 5 0 1 0 0-10 5 5 0 0 0 0 10Zm-14-28a5 5 0 1 0 0-10 5 5 0 0 0 0 10Z" stroke="#000" stroke-width="10" stroke-linecap="round" stroke-linejoin="round"/></svg>