<svg xmlns="http://www.w3.org/2000/svg" width="192" height="192"><path d="M51.556 176q-7.333 0-12.556-5.222t-5.222-12.556V42.662q-3.778 0-6.333-2.556t-2.556-6.333 2.556-6.333 6.333-2.556h35.556q0-3.778 2.555-6.333t6.334-2.556h35.556q3.777 0 6.333 2.556t2.556 6.333h35.556q3.777 0 6.333 2.556t2.555 6.333-2.555 6.333q-2.556 2.556-6.333 2.556v115.56q0 7.333-5.223 12.556T140.445 176zm88.889-133.33H51.556v115.56h88.889zm-55.889 95.222q2.556-2.556 2.556-6.333V69.337q0-3.778-2.556-6.334t-6.333-2.555-6.334 2.555-2.555 6.334v62.222q0 3.777 2.555 6.333t6.334 2.556 6.333-2.556m35.556 0q2.556-2.556 2.556-6.333V69.337q0-3.778-2.556-6.334t-6.333-2.555-6.334 2.555-2.555 6.334v62.222q0 3.777 2.555 6.333t6.334 2.556 6.333-2.556M51.556 42.67v115.56z"/></svg>