<svg xmlns="http://www.w3.org/2000/svg" width="192" height="192"><path d="M48 16q-6.6 0-11.301 4.7-4.7 4.7-4.7 11.3v128q0 6.6 4.7 11.301 4.7 4.7 11.301 4.7h96q6.6 0 11.301-4.7c4.701-4.7 4.7-6.9 4.7-11.3V70.6q0-3.2-1.2-6.1c-1.2-2.9-1.934-3.633-3.4-5.1L116.6 20.6q-2.2-2.2-5.1-3.4c-2.9-1.2-3.966-1.2-6.1-1.2zm0 16h56v32q0 3.4 2.3 5.7T112 72h32v88H48zm19.199 80q-1.28 0-2.24.959-.96.96-.96 2.24v25.602q0 1.28.96 2.24c.96.96 1.387.96 2.24.96s1.602-.32 2.242-.96.96-1.387.96-2.24V131.2h6.4q2.719 0 4.558-1.84 1.84-1.84 1.84-4.559v-6.4q0-2.721-1.84-4.56Q79.52 112 76.801 112zm25.602 0q-1.28 0-2.242.959-.96.96-.96 2.24v25.602q0 1.28.96 2.24c.96.96 1.389.96 2.242.96h9.6q2.72 0 4.558-1.84 1.841-1.841 1.842-4.561v-19.199q0-2.72-1.842-4.56-1.84-1.84-4.558-1.84zm25.6 0q-1.28 0-2.24.959-.96.96-.961 2.24v25.602q0 1.28.96 2.24c.96.96 1.388.96 2.241.96s1.6-.32 2.24-.96q.96-.96.96-2.24V131.2h3.2q1.28 0 2.24-.96t.96-2.24c0-1.28-.32-1.6-.96-2.24s-1.386-.959-2.24-.959h-3.2v-6.4h3.2q1.28 0 2.24-.96c.96-.96.96-1.388.96-2.241s-.32-1.6-.96-2.24q-.96-.96-2.24-.96zm-48 6.4h6.4v6.4h-6.4zm25.6 0h6.4v19.2h-6.4z"/></svg>