<svg xmlns="http://www.w3.org/2000/svg" width="192" height="192" viewBox="0 0 192 192"><path d="M48 176q-6.6 0-11.3-4.7T32 160v-15.8q0-4 1.8-7.4t4.8-5.8q13.8-11.2 20.7-22.6T69 88H56q-3.4 0-5.7-2.3T48 80t2.3-5.7T56 72h10q-2.8-4.4-4.4-9.4T60 52q0-15 10.5-25.5T96 16t25.5 10.5T132 52q0 5.6-1.6 10.6T126 72h10q3.4 0 5.7 2.3T144 80t-2.3 5.7T136 88h-13q2.8 9 9.7 20.4t20.7 22.6q3 2.4 4.8 5.8t1.8 7.4V160q0 6.6-4.7 11.3T144 176zm0-16h96v-16q-18.4-14.4-26.6-29.7t-11-26.3H85.6q-2.8 11-11 26.3T48 144zm48-88q8.4 0 14.2-5.8T116 52t-5.8-14.2T96 32t-14.2 5.8T76 52t5.8 14.2T96 72"/></svg>