<svg xmlns="http://www.w3.org/2000/svg" width="192" height="192" viewBox="0 0 192 192"><path d="M166.67 176q-27.778 0-54.889-12.111t-49.333-34.333-34.333-49.333-12.111-54.889q0-4 2.667-6.667t6.666-2.666h36q3.111 0 5.556 2.11 2.444 2.112 2.889 5l5.778 31.112q.444 3.555-.223 6-.666 2.444-2.444 4.222L51.337 86.223q4.444 8.222 10.556 15.889t13.444 14.778q6.889 6.889 14.444 12.778t16 10.778l20.89-20.89q2-2 5.221-3t6.334-.555l30.667 6.223q3.11.888 5.11 3.222t2 5.222v36q0 4-2.666 6.667T166.67 176M42.89 69.33l14.667-14.667-3.778-20.889H34.001q1.111 9.111 3.111 18T42.89 69.33m79.556 79.556q8.667 3.778 17.667 6t18.111 2.889v-19.556l-20.889-4.222z"/></svg>