<svg xmlns="http://www.w3.org/2000/svg" width="192" height="192" viewBox="0 0 192 192"><path d="M65.847 19.15a5.775 5.775 0 0 0-4.497 5.625V61.35H24.775a5.775 5.775 0 0 0 0 11.55H61.35v46.2H24.775a5.775 5.775 0 0 0 0 11.55H61.35v36.575a5.775 5.775 0 0 0 11.55 0V130.65h46.2v36.575a5.775 5.775 0 0 0 11.55 0V130.65h36.575a5.775 5.775 0 0 0 5.775-5.775 5.775 5.775 0 0 0-5.775-5.775H130.65V72.9h36.575A5.775 5.775 0 0 0 173 67.125a5.775 5.775 0 0 0-5.775-5.775H130.65V24.775a5.775 5.775 0 0 0-11.55 0V61.35H72.9V24.775a5.775 5.775 0 0 0-7.053-5.625M72.9 72.9h46.2v46.2H72.9z"/></svg>