<svg xmlns="http://www.w3.org/2000/svg" width="192" height="192"><path d="M69.333 176q-3.778 0-6.333-2.556t-2.556-6.333v-35.556H24.888q-3.778 0-6.333-2.556t-2.556-6.333V69.333q0-3.778 2.556-6.333t6.333-2.556h35.556V24.888q0-3.778 2.556-6.333t6.333-2.556h53.333q3.778 0 6.333 2.556t2.556 6.333v35.556h35.556q3.778 0 6.333 2.556T176 69.333v53.333q0 3.778-2.556 6.333t-6.333 2.556h-35.556v35.556q0 3.778-2.556 6.333T122.666 176zm8.889-17.778h35.556v-44.444h44.444V78.222h-44.444V33.778H78.222v44.444H33.778v35.556h44.444z"/></svg>