<svg xmlns="http://www.w3.org/2000/svg" width="192" height="192" viewBox="0 0 192 192"><path d="M56 136V56q0-3.4 2.3-5.7T64 48t5.7 2.3T72 56v80q0 3.4-2.3 5.7T64 144t-5.7-2.3T56 136m32 32V24q0-3.4 2.3-5.7T96 16t5.7 2.3T104 24v144q0 3.4-2.3 5.7T96 176t-5.7-2.3T88 168m-64-64V88q0-3.4 2.3-5.7T32 80t5.7 2.3T40 88v16q0 3.4-2.3 5.7T32 112t-5.7-2.3T24 104m96 32V56q0-3.4 2.3-5.7T128 48t5.7 2.3T136 56v80q0 3.4-2.3 5.7T128 144t-5.7-2.3-2.3-5.7m32-32V88q0-3.4 2.3-5.7T160 80t5.7 2.3T168 88v16q0 3.4-2.3 5.7T160 112t-5.7-2.3-2.3-5.7"/></svg>