<svg xmlns="http://www.w3.org/2000/svg" width="192" height="192"><path d="M57.5 100.81h9.625q4.09 0 6.858-2.767t2.767-6.858V81.56q0-4.09-2.767-6.858t-6.858-2.767H52.687q-1.925 0-3.369 1.444c-1.444 1.444-1.444 2.085-1.444 3.369v38.5q0 1.925 1.444 3.368c1.444 1.443 2.086 1.444 3.369 1.444s2.406-.481 3.369-1.444 1.444-2.085 1.444-3.368zm0-9.625V81.56h9.625v9.625zm48.125 28.875q4.09 0 6.858-2.767c2.768-2.767 2.767-4.13 2.767-6.858V81.56q0-4.09-2.767-6.858t-6.858-2.767H91.187q-1.925 0-3.369 1.444c-1.444 1.444-1.444 2.085-1.444 3.369v38.5q0 1.925 1.444 3.368c1.444 1.443 2.086 1.444 3.369 1.444zM96 110.435V81.56h9.625v28.875zm38.5-9.625h4.813q1.925 0 3.368-1.444c1.443-1.444 1.444-2.085 1.444-3.369s-.481-2.406-1.444-3.368-2.085-1.444-3.369-1.444H134.5V81.56h4.813q1.925 0 3.368-1.444c1.443-1.444 1.444-2.085 1.444-3.369s-.481-2.406-1.444-3.369-2.085-1.443-3.369-1.443h-9.625q-1.925 0-3.368 1.443c-1.443 1.443-1.444 2.086-1.444 3.37v38.5q0 1.924 1.444 3.368c1.444 1.444 2.085 1.444 3.369 1.444s2.406-.481 3.368-1.444 1.444-2.085 1.444-3.369zm-96.25 72.188q-7.94 0-13.595-5.655T19 153.748v-115.5q0-7.94 5.655-13.595T38.25 19h115.5q7.941 0 13.595 5.654T173 38.248v115.5q0 7.941-5.655 13.595t-13.595 5.655zm0-19.25h115.5v-115.5H38.25zm0-115.5v115.5z"/></svg>