<svg xmlns="http://www.w3.org/2000/svg" width="192" height="192" viewBox="0 0 192 192"><path d="M36.111 18.996q-7.06.001-12.086 5.027Q19 29.05 19 36.11v119.78q-.002 7.06 5.025 12.086t12.086 5.026h95.236V173c-.633-1.33-.719-2.911-.422-4.198l.002-.003 2.408-10.342-2.97-2.567h-2.284v-1.972l-2.82-2.438-.031-.027c-.954-.86-1.771-2.115-2.072-3.5a6.9 6.9 0 0 1 .25-3.727 7 7 0 0 1 1.931-2.853c.842-.738 1.807-1.166 2.742-1.399v-22.586h2.14q3.636 0 6.097-2.459c2.46-2.459 2.459-3.673 2.459-6.097V36.11h17.11v92.432q.165.298.292.601l4.095 9.719 10.736.94.108.015c.61.087 1.253.249 1.883.518V36.115q.001-7.06-5.026-12.086Q162.948 19 155.89 19H36.11zm0 17.115h17.111v72.723q0 3.635 2.459 6.096c2.459 2.46 3.672 2.459 6.096 2.459h2.14v38.5H36.11V36.109zm51.334 0h17.109v72.723q0 3.635 2.46 6.096 2.46 2.46 6.097 2.459h2.138v38.5h-38.5v-38.5h2.139q3.636 0 6.096-2.46t2.46-6.095zm62.557 92.957q-.738 0-1.443.402-.706.403-1.041 1.21l-5.037 11.954-13.03 1.143q-.94.134-1.478.603a2.9 2.9 0 0 0-.805 1.21 2.7 2.7 0 0 0-.101 1.511q.168.772.84 1.377l9.873 8.53-2.956 12.692q-.201.874.135 1.579t.94 1.175q.605.471 1.41.537t1.545-.404l11.148-6.715 11.148 6.715q.738.472 1.545.404a2.6 2.6 0 0 0 1.41-.537q.605-.47.941-1.175t.133-1.579l-2.955-12.693 9.873-8.529q.672-.604.84-1.377a2.7 2.7 0 0 0-.102-1.512 2.9 2.9 0 0 0-.804-1.209q-.538-.47-1.479-.603l-13.029-1.143-5.037-11.955q-.335-.805-1.041-1.209a2.9 2.9 0 0 0-1.443-.402m0 9.537 3.897 9.133 9.804.873-7.455 6.45 2.217 9.669-8.463-5.172-8.46 5.106 2.214-9.606-7.453-6.514 9.805-.873z"/></svg>