<svg xmlns="http://www.w3.org/2000/svg" width="192" height="192" viewBox="0 0 192 192"><path d="M75.175 134.35q-24.808 0-41.991-17.184T16 75.175t17.184-41.991T75.175 16q24.808 0 41.991 17.184t17.184 41.991q0 10.014-3.186 18.89t-8.649 15.704l50.982 50.982q2.504 2.504 2.504 6.373t-2.504 6.372-6.373 2.504-6.372-2.504l-50.982-50.982q-6.828 5.463-15.704 8.649t-18.89 3.186zm0-18.208q17.07 0 29.018-11.949t11.949-29.018q0-17.07-11.949-29.018T75.175 34.208 46.157 46.157 34.208 75.175q0 17.07 11.949 29.018t29.018 11.949"/></svg>