<svg xmlns="http://www.w3.org/2000/svg" width="192" height="192" viewBox="0 0 192 192"><path d="M55.284 16q-2.7 0-4.624 1.924t-1.923 4.623V42.19q0 2.701 1.923 4.625t4.624 1.923h114.17q2.7 0 4.624-1.923t1.923-4.625V22.547q0-2.7-1.923-4.623T169.454 16zm0 6.547h114.17V42.19h-29.381q.573-1.145.86-2.373.286-1.227.286-2.537 0-4.665-3.397-8.061-3.395-3.397-8.06-3.397h-16.369q-4.665 0-8.06 3.397-3.397 3.396-3.397 8.06 0 1.311.286 2.538.286 1.228.86 2.373H55.286zm58.107 9.821h4.91v9.821h-4.91q-1.964 0-3.438-1.473-1.473-1.473-1.473-3.437 0-1.965 1.473-3.438t3.438-1.473m11.458 0h4.91q1.965 0 3.438 1.473t1.473 3.438-1.473 3.437-3.437 1.473h-4.911zm-102.3 16.368q-2.7 0-4.624 1.924t-1.923 4.624v114.17q0 2.7 1.923 4.624t4.624 1.923h19.642q2.7 0 4.624-1.923t1.923-4.624V55.284q0-2.7-1.923-4.624t-4.624-1.924zm0 6.548h19.642v29.38a10.8 10.8 0 0 0-2.374-.859 11 11 0 0 0-2.537-.286q-4.665 0-8.06 3.396-3.397 3.397-3.397 8.061v16.368q0 4.666 3.396 8.062t8.061 3.396q1.31 0 2.537-.286 1.228-.286 2.374-.86v47.796H22.549zm89.822 6.598c-27.844 0-50.487 22.642-50.487 50.486s22.643 50.487 50.487 50.487 50.486-22.642 50.486-50.487c0-27.844-22.642-50.486-50.486-50.486m-3.274 6.667v31.941a12.44 12.44 0 0 0-8.603 8.604H68.552c1.59-21.69 18.856-38.955 40.546-40.545zm6.548 0c21.69 1.59 38.955 18.855 40.545 40.545h-31.941a12.44 12.44 0 0 0-8.604-8.603zm17.313 12.275c-6.417 0-11.688 5.272-11.688 11.688s5.271 11.688 11.688 11.688 11.688-5.271 11.688-11.688-5.272-11.688-11.688-11.688m0 6.548c2.877 0 5.14 2.263 5.14 5.14s-2.263 5.141-5.14 5.141-5.141-2.264-5.141-5.14c0-2.878 2.263-5.141 5.14-5.141M37.28 90.066q1.965 0 3.437 1.473 1.473 1.473 1.473 3.437v4.91h-9.82v-4.91q0-1.965 1.472-3.437 1.473-1.473 3.438-1.473m-4.91 16.368h9.82v4.91q0 1.965-1.473 3.438t-3.437 1.473c-1.964 0-2.456-.491-3.438-1.473q-1.473-1.473-1.473-3.438zm80 .157c3.228 0 5.776 2.548 5.776 5.776s-2.548 5.776-5.776 5.776-5.776-2.547-5.776-5.776 2.548-5.776 5.776-5.776m-43.82 9.05h31.942a12.44 12.44 0 0 0 8.604 8.604v31.942c-21.69-1.59-38.956-18.856-40.546-40.546m55.697 0h31.941c-1.59 21.69-18.855 38.956-40.545 40.546v-31.942a12.44 12.44 0 0 0 8.604-8.604"/></svg>