<svg xmlns="http://www.w3.org/2000/svg" width="192" height="192" viewBox="0 0 192 192"><path d="m144.9 44.037.007.027q1.63 2.449 3.06 5.04.483.885.94 1.784.986 1.899 1.858 3.858c.268.618.557 1.235.805 1.859q1.087 2.623 1.966 5.354.067.215.148.423.892 2.952 1.536 6.005a67 67 0 0 1 1.06 6.469q.115.94.215 1.906c.202 2.127.336 4.287.336 6.468 0 26.17-14.34 48.976-35.564 61.067-4.911 2.804-10.2 4.992-15.76 6.555a67 67 0 0 1-8.254 1.758c-.724.114-1.449.248-2.18.336-2.819.349-5.637.577-8.536.577-2.18 0-4.341-.134-6.468-.322q-.96-.101-1.906-.228a74 74 0 0 1-4.622-.698q-.926-.161-1.846-.35a67 67 0 0 1-6.005-1.536l-.423-.16a74 74 0 0 1-5.355-1.947q-.94-.389-1.858-.812a67 67 0 0 1-3.859-1.858 74 74 0 0 1-6.823-4.006l-.027-.013a70.25 70.25 0 0 0 58.363 31.101c38.824 0 70.294-31.471 70.294-70.294 0-24.31-12.347-45.748-31.101-58.363m-87.198 7.24a74 74 0 0 0-6.22 6.562c-4.999 5.999-8.656 13.152-9.46 20.92a44.69 44.69 0 0 0 23.96 44.187 44.55 44.55 0 0 1-5.012-20.546c0-12.18 4.885-23.216 12.783-31.282V51.284zm48.003 0V73.64a15.97 15.97 0 0 1-12.494 15.58 15.94 15.94 0 0 0 15.687 13.18 15.97 15.97 0 0 0 15.976-15.977V70.447h6.387l-6.387-19.17z"/></svg>