<svg width="192" height="192" version="1.1" viewBox="0 0 192 192" xmlns="http://www.w3.org/2000/svg"><path d="m144.9 44.037 7e-3 0.02683q1.6306 2.4492 3.0598 5.0393 0.48312 0.88574 0.93942 1.7849 0.98638 1.899 1.8587 3.8583c0.26842 0.61733 0.55694 1.2347 0.80522 1.8587q1.087 2.6228 1.9661 5.3539 0.0672 0.21472 0.14761 0.42274 0.89246 2.9525 1.5366 6.0056a67.1 67.1 0 0 1 1.0602 6.4686q0.11406 0.93942 0.21472 1.9057c0.2013 2.1271 0.3355 4.2878 0.3355 6.4686 0 26.169-14.34 48.976-35.564 61.067-4.911 2.804-10.199 4.9915-15.76 6.555a67.1 67.1 0 0 1-8.2535 1.758c-0.7247 0.11407-1.4494 0.24827-2.1808 0.33551-2.8183 0.34893-5.6365 0.57708-8.5353 0.57708-2.1808 0-4.3415-0.13421-6.4686-0.32209q-0.95955-0.10067-1.9057-0.22814a73.81 73.81 0 0 1-4.6224-0.69786q-0.926-0.16105-1.8453-0.34893a67.1 67.1 0 0 1-6.0056-1.5366l-0.42274-0.16105a73.81 73.81 0 0 1-5.3547-1.9459q-0.93942-0.38919-1.8587-0.81193a67.1 67.1 0 0 1-3.8583-1.8579 73.81 73.81 0 0 1-6.8234-4.006l-0.02683-0.0134a70.253 70.253 0 0 0 58.363 31.101c38.824-1e-5 70.294-31.471 70.294-70.294 0-24.31-12.347-45.748-31.101-58.363m-87.198 7.2394a73.81 73.81 0 0 0-6.2195 6.5625c-4.9991 5.9989-8.6561 13.152-9.4613 20.921a44.689 44.689 0 0 0 23.961 44.186 44.554 44.554 0 0 1-5.0125-20.546c0-12.179 4.885-23.216 12.783-31.282v-19.834zm48.003 0v22.364a15.969 15.969 0 0 1-12.494 15.58 15.942 15.942 0 0 0 15.687 13.179 15.969 15.969 0 0 0 15.976-15.976v-15.976h6.3872l-6.3872-19.17z"/></svg>
