<svg width="192" height="192" version="1.1" viewBox="0 0 192 192" xmlns="http://www.w3.org/2000/svg"><path d="m96.008 69.029c-0.36179 0-0.59703 0.20933-0.70834 0.62681-1.315 4.3834-2.5046 8.8933-5.0094 12.776a10.437 10.437 0 0 1-3.6743 3.4041c-3.5485 2.0247-7.4924 3.1307-11.354 4.3622a4.1747 4.1747 0 0 0-1.5492 0.97844 4.1747 4.1747 0 0 0 1.4626 0.92238c4.1747 1.3359 8.4992 2.5029 12.236 4.8616 2.1917 1.3776 3.4857 3.7177 4.5711 5.9929h0.0407c1.3776 3.1936 2.3202 6.5323 3.343 9.8302 0.27135 0.96018 1.4162 0.3957 1.4371-0.39748 0.86277-3.1588 1.8979-6.2694 3.1086-9.3308l-0.0814-0.20895 0.2497-0.0815c0.70969-1.1898 1.2535-2.5073 2.1302-3.5927a12.524 12.524 0 0 1 4.2603-3.2971l1.753-0.83575c2.7762-1.148 5.635-2.0225 8.5155-2.92 0.56358-0.22961 1.5021-0.41918 1.3351-1.2332a6.262 6.262 0 0 0-1.7938-0.85613c-3.7781-1.148-7.5995-2.2977-11.023-4.2807a10.437 10.437 0 0 1-3.6334-3.4398c-2.4213-3.8616-3.6082-8.3102-4.9024-12.613a0.75144 0.75144 0 0 0-0.71345-0.66758zm-36.024 25.424a4.1747 4.1747 0 0 0-1.4422 0.18856 208.74 208.74 0 0 0-21.291 6.2834c-5.2183 1.8786-10.293 4.1782-14.906 7.2466-1.8786 1.2524-3.6749 2.6055-5.3865 4.0666-0.39659 0.35485-0.83282 0.73082-0.95806 1.2944 0.54271 3.3397 3.7574 5.1754 6.5127 6.5739 4.5504 2.0873 9.6619 3.2798 14.671 2.7162-1.5029-1.2524-3.5662-1.4616-5.1317-2.5888-0.64707-0.48008-0.66875-1.3338-0.83574-2.0435-1.5446 0.3131-3.0066 0.89368-4.5304 1.2485 1.4194-0.85581 2.9215-1.501 4.3826-2.2524 7.8275-3.3397 16.267-4.799 24.634-5.9471 5.8445-0.6262 11.793-0.83542 17.428-2.5888-0.45661-1.2733-0.68546-3.1343-2.3136-3.343-3.5276-1.816-5.2219-5.6123-7.2466-8.8059a4.1747 4.1747 0 0 0-3.5876-2.0486zm72.221 0a4.1747 4.1747 0 0 0-3.0219 1.1313c-1.1272 1.1689-1.7992 2.7104-2.655 4.0462a15.446 15.446 0 0 1-4.9431 5.4884c-0.54271 0.37572-1.3788 0.2952-1.6919 0.96315a8.3493 8.3493 0 0 0-0.96315 2.6092c5.6358 1.6699 11.564 1.8582 17.388 2.5888 9.2051 1.148 18.536 2.838 26.927 6.9918l2.1709 1.167c-1.5446-0.37572-3.0479-0.87644-4.5508-1.3148-0.25048 0.75144-0.29324 1.7112-1.0447 2.1913-1.5446 1.0437-3.565 1.2548-4.9635 2.5072 2.3796 0.3131 4.8012 0.10249 7.1599-0.35672 4.5921-0.87668 9.2878-2.5855 12.648-5.9878l0.0407 0.0203a7.0969 7.0969 0 0 0 1.2944-3.4042 58.448 58.448 0 0 0-18.702-11.227 187.87 187.87 0 0 0-23.59-7.1854 6.262 6.262 0 0 0-1.5033-0.20386z"/></svg>
