<svg xmlns="http://www.w3.org/2000/svg" width="192" height="192" viewBox="0 0 192 192"><path d="M96.008 69.029q-.542 0-.708.627c-1.315 4.383-2.505 8.893-5.01 12.776a10.44 10.44 0 0 1-3.674 3.404c-3.549 2.025-7.492 3.13-11.354 4.362a4.2 4.2 0 0 0-1.55.979 4.2 4.2 0 0 0 1.463.922c4.175 1.336 8.5 2.503 12.236 4.862 2.192 1.377 3.486 3.717 4.571 5.992h.041c1.378 3.194 2.32 6.533 3.343 9.83.272.96 1.416.396 1.437-.397a89 89 0 0 1 3.109-9.33l-.082-.21.25-.081c.71-1.19 1.254-2.507 2.13-3.593a12.5 12.5 0 0 1 4.26-3.297l1.754-.836c2.776-1.148 5.635-2.022 8.515-2.92.564-.23 1.502-.419 1.335-1.233a6.3 6.3 0 0 0-1.794-.856c-3.778-1.148-7.599-2.298-11.023-4.28a10.44 10.44 0 0 1-3.633-3.44c-2.421-3.862-3.608-8.31-4.902-12.613a.75.75 0 0 0-.714-.668M59.984 94.453a4.2 4.2 0 0 0-1.442.189 209 209 0 0 0-21.291 6.283c-5.218 1.879-10.293 4.178-14.906 7.247a57 57 0 0 0-5.387 4.066c-.396.355-.833.731-.958 1.295.543 3.34 3.758 5.175 6.513 6.573 4.55 2.088 9.662 3.28 14.67 2.717-1.502-1.253-3.565-1.462-5.13-2.59-.648-.48-.67-1.333-.836-2.043-1.545.313-3.007.894-4.53 1.249 1.418-.856 2.92-1.501 4.382-2.253 7.827-3.34 16.267-4.799 24.634-5.947 5.844-.626 11.793-.835 17.428-2.588-.457-1.274-.686-3.135-2.314-3.343-3.527-1.816-5.222-5.613-7.246-8.806a4.18 4.18 0 0 0-3.588-2.049zm72.221 0a4.18 4.18 0 0 0-3.022 1.131c-1.127 1.17-1.8 2.71-2.655 4.046a15.45 15.45 0 0 1-4.943 5.489c-.543.376-1.379.295-1.692.963a8.4 8.4 0 0 0-.963 2.61c5.636 1.67 11.564 1.857 17.388 2.588 9.205 1.148 18.536 2.838 26.927 6.992l2.17 1.167c-1.544-.376-3.047-.877-4.55-1.315-.25.751-.293 1.711-1.045 2.191-1.544 1.044-3.565 1.255-4.963 2.508 2.38.313 4.801.102 7.16-.357 4.592-.877 9.288-2.586 12.648-5.988l.04.02a7.1 7.1 0 0 0 1.295-3.404 58.5 58.5 0 0 0-18.702-11.227 188 188 0 0 0-23.59-7.185 6.3 6.3 0 0 0-1.503-.204z"/></svg>