<svg width="192" height="192" fill="none" xmlns="http://www.w3.org/2000/svg"><circle cx="36" cy="86" r="14" stroke="#000" stroke-width="12" stroke-linecap="round" stroke-linejoin="round"/><circle cx="92" cy="41" r="14" stroke="#000" stroke-width="12" stroke-linecap="round" stroke-linejoin="round"/><circle cx="156" cy="75" r="14" stroke="#000" stroke-width="12" stroke-linecap="round" stroke-linejoin="round"/><circle cx="131" cy="139" r="14" stroke="#000" stroke-width="12" stroke-linecap="round" stroke-linejoin="round"/><circle cx="60" cy="149" r="14" stroke="#000" stroke-width="12" stroke-linecap="round" stroke-linejoin="round"/><path d="M43.323 73.359c4.137-5.956 9.374-11.541 15.653-16.463A80.895 80.895 0 0 1 78.5 45.576m39.5 99.871c-14.299 7.339-29.948 9.958-44 7.845m66.364-24.792c10.775-11.688 16.804-25.6 17.556-39M150.23 61a44.34 44.34 0 0 0-3.553-4.506C136.82 45.52 122.207 40.028 106.5 40m-73.972 60c-1.95 13.666 1.464 27.119 10.795 37.506a45.577 45.577 0 0 0 3.5 3.494" stroke="#000" stroke-width="12" stroke-linecap="round" stroke-linejoin="round"/></svg>