<svg width="192" height="192" fill="none" xmlns="http://www.w3.org/2000/svg"><path d="M25 31a6 6 0 0 1 6-6h130a6 6 0 0 1 6 6v130a6 6 0 0 1-6 6H31a6 6 0 0 1-6-6V31Z" stroke="#000" stroke-width="12" stroke-linecap="round" stroke-linejoin="round"/><path d="M102.147 75.063c1.992-17.937 11.954-27.404 22.911-25.91C136.015 50.649 140 61.113 140 68.088 140 75.063 136.015 93 119.081 93c0 0-18.926 0-16.934-17.937Z" stroke="#000" stroke-width="12" stroke-linejoin="round"/><path d="M129 25c-41 0-56 28-56 51 0 35 17 45 36 45s27-8 27-8-2.927 33-27 33-34.407-7.394-43-16c-8.593-8.606-18 37 13 37" stroke="#000" stroke-width="12" stroke-linecap="round" stroke-linejoin="round"/></svg>