<svg xmlns="http://www.w3.org/2000/svg" width="192" height="192" viewBox="0 0 192 192"><path d="M163.83 109.72c-7.57-4.38-10.19-13.83-5.92-21.33 1.41-2.42 3.45-4.43 5.92-5.83 3.75-2.1 6.49-5.56 7.61-9.63 1.13-4.07.54-8.41-1.63-12.06l-5.33-9.31c-2.15-3.66-5.71-6.33-9.89-7.42-4.18-1.1-8.63-.52-12.37 1.58a16.75 16.75 0 0 1-12.42 1.6c-4.18-1.1-7.76-3.77-9.93-7.43a16.07 16.07 0 0 1-2.19-7.96c.02-4.22-1.68-8.27-4.74-11.26-3.05-2.99-7.21-4.67-11.54-4.67H90.67c-9 0-16.31 7.09-16.35 15.86.03 5.69-3.07 10.95-8.13 13.8a16.64 16.64 0 0 1-16.33-.01c-3.78-2.19-8.31-2.8-12.56-1.69s-7.86 3.85-10 7.6l-5.11 8.95c-4.47 7.61-1.8 17.3 5.98 21.69 7.8 4.43 10.45 14.16 5.92 21.76a15.1 15.1 0 0 1-5.92 5.76c-3.75 2.1-6.49 5.57-7.61 9.64s-.54 8.4 1.63 12.05l5.11 9.1c4.54 7.6 14.53 10.18 22.34 5.76 7.81-4.3 17.73-1.71 22.27 5.84 1.44 2.41 2.2 5.16 2.19 7.96 0 4.25 1.74 8.32 4.84 11.31 3.1 3 7.3 4.66 11.66 4.62h10.73c9.03 0 16.35-7.13 16.35-15.93-.05-4.24 1.64-8.33 4.7-11.35 3.05-3.02 7.23-4.72 11.58-4.72 2.88-.02 5.7.72 8.18 2.13 7.81 4.35 17.76 1.75 22.27-5.83l5.4-9.1c4.37-7.55 1.7-17.11-5.98-21.48" opacity=".4"/><path d="M96 116c11.05 0 20-8.95 20-20s-8.95-20-20-20-20 8.95-20 20 8.95 20 20 20"/></svg>