<svg xmlns="http://www.w3.org/2000/svg" width="192" height="192"><path d="M130.1 16.002c-2.009.02-4.059.178-5.542.06-.498-.04-1.413-.002-1.908.028-1.54.134-2.802.464-3.821 1.737-2.053 2.567-.405 5.664-1.815 8.472-.963 1.918-4.423 3.204-6.449 3.607-4.132.821-5.778-5.397-9.935-4.868-.787.064-1.796.377-2.435.858-1.97 1.488-3.58 3.46-5.357 5.19-1.786 1.739-4.51 3.82-4.056 6.654.704 4.395 6.862 5.433 4.384 10.812-.524 1.177-.697 2.042-1.516 3.242-2.713 3.973-7.887.245-10.679 3.836a5.5 5.5 0 0 0-1.065 2.432c-.245 1.376-.27 10.225-.032 11.688.207 1.283.789 2.507 1.873 3.272 4.404 3.113 9.621-2.718 11.803 7.703.262 1.25-.007 2.482-.7 3.546-1.558 2.392-4.685 3.874-4.048 7.259.142.759.481 1.443.938 2.061.93 1.26 7.505 7.82 8.718 8.579 1.067.668 2.268.886 3.496.586 4.8-1.169 4.778-7.82 12.887-3.188 1.238.708 2.22 1.695 2.616 3.097.825 2.927-.793 6.41 2.48 8.347.687.406 1.456.63 2.241.735 1.723.233 3.565.102 5.304.098 2-.005 4.076.095 6.063-.11 1.259-.179 2.525-.715 3.218-1.803 2.524-3.959-1.072-8.698 4.92-10.87 2.207-.801 4.38-1.976 6.73-.15 2.167 1.682 3.517 4.378 6.764 3.883.474-.066 1.152-.166 1.58-.438 1.748-1.113 3.137-2.71 4.602-4.182 1.35-1.434 2.961-2.803 4.202-4.322.835-1.023 1.403-2.401 1.189-3.687-.689-4.141-6.68-5.452-4.555-10.44.484-1.134.853-2.531 1.645-3.568 2.667-4.029 7.827-.361 10.733-3.908 1.456-1.793 1.163-4.092 1.18-6.235.013-1.495-.052-2.997-.01-4.492.073-2.454.1-5.176-2.136-6.782-2.461-1.768-5.787-.047-8.3-1.603-1.234-.75-1.803-1.785-2.35-3.027-1.027-2.364-1.824-4.387-.2-6.726 1.554-2.236 4.707-3.81 3.922-6.997-.757-3.073-4.666-5.722-6.672-8.037-1.797-2.075-4.062-3.979-6.877-3.058-2.24.65-3.125 2.588-4.934 3.84-2.523 1.735-5.242.27-7.653-.85-5.072-2.354-.473-9.123-5.148-11.508-1.32-.674-3.288-.793-5.297-.774zm-2.095 27.603c9.03.19 19.149 6.8 20.046 18.828.836 11.219-7.589 20.989-18.81 21.811-11.198.82-20.946-7.587-21.78-18.785s7.558-20.956 18.756-21.806q.884-.067 1.788-.048M72.143 56.536c-.62-.05-1.76-.003-2.377.034-1.92.168-3.495.579-4.765 2.167-2.559 3.199-.504 7.06-2.262 10.56-1.2 2.392-5.515 3.997-8.04 4.498-5.152 1.024-7.204-6.728-12.387-6.07-.981.082-2.239.471-3.035 1.072-2.456 1.854-4.464 4.314-6.678 6.47-2.227 2.167-5.624 4.763-5.058 8.296.878 5.479 8.556 6.773 5.467 13.48-.654 1.467-.87 2.545-1.89 4.04-3.383 4.954-9.833.307-13.314 4.784a6.9 6.9 0 0 0-1.328 3.03c-.306 1.717-.336 12.749-.04 14.573.259 1.6.984 3.125 2.335 4.08 5.49 3.88 11.995-3.39 14.715 9.602.327 1.56-.008 3.095-.872 4.422-1.943 2.982-5.842 4.83-5.048 9.05.178.946.601 1.799 1.17 2.57 1.16 1.57 9.357 9.748 10.87 10.694 1.33.834 2.827 1.104 4.358.731 5.984-1.457 5.957-9.749 16.066-3.974 1.543.881 2.768 2.113 3.261 3.86 1.03 3.65-.988 7.992 3.093 10.407.856.506 1.815.784 2.795.916 2.147.29 4.443.128 6.611.123 2.493-.006 5.082.119 7.56-.138 1.568-.222 3.148-.891 4.012-2.247 3.146-4.936-1.338-10.845 6.132-13.553 2.752-.998 5.462-2.463 8.392-.187 2.701 2.098 4.384 5.46 8.432 4.842.59-.083 1.437-.206 1.97-.545 2.18-1.388 3.91-3.38 5.738-5.214 1.681-1.788 3.691-3.495 5.238-5.389 1.041-1.275 1.75-2.994 1.482-4.597-.858-5.163-8.328-6.797-5.678-13.015.603-1.414 1.063-3.156 2.05-4.449 3.326-5.023 9.758-.45 13.381-4.872 1.815-2.234 1.45-5.102 1.473-7.772v-.058c-.484.117-.952.203-1.395.265l-.135.02-.137.014c-2.753.286-5.063.146-6.804.15h-.001c-1.384.004-3.532.21-6.305-.164-1.514-.204-3.262-.664-5.003-1.693v-.001l-.002-.001c-3.758-2.224-5.567-7.085-5.75-9.6-.093-1.267-.024-1.038-.034-1.552-1.2 1.209-3.295 2.881-6.71 3.713a11.4 11.4 0 0 1-2.913.31c.324 1.335.544 2.715.649 4.13 1.043 13.986-9.461 26.166-23.45 27.19-13.963 1.022-26.115-9.46-27.155-23.42-1.04-13.962 9.424-26.128 23.384-27.186 1.95-.148 4.43-.11 7.196.476-.121-3.53 1.559-6.906 2.908-8.55.75-.915.749-.84 1.157-1.272-1.952.002-4.892-.376-7.973-2.553-3.087-2.181-4.455-5.413-4.89-8.108-.25-1.539-.192-2.08-.222-3.235a140 140 0 0 1-.038-3.837 139 139 0 0 1 .059-3.823c.036-1.137-.038-1.599.248-3.224l.043-.237a15 15 0 0 1-.556-.033"/></svg>