<svg width="192" height="192" fill="none" xmlns="http://www.w3.org/2000/svg"><path d="M96 170c36.451 0 66-29.549 66-66 0-36.45-29.549-66-66-66-36.45 0-66 29.55-66 66 0 36.451 29.55 66 66 66Z" stroke="#000" stroke-width="12" stroke-linecap="round" stroke-linejoin="round"/><path d="M30 96h132" stroke="#000" stroke-width="10" stroke-linecap="round" stroke-linejoin="round"/><path d="M64.91 44.028 52 22m73.258 21.522L138 22M54.34 99.139v15.533a19.33 19.33 0 0 0 5.648 13.667A19.274 19.274 0 0 0 73.622 134h41.541a19.256 19.256 0 0 0 13.635-5.661 19.367 19.367 0 0 0 5.648-13.667V99.137M71.541 69.256l-2.046 4.225m49.651-4.225 2.047 4.225" stroke="#000" stroke-width="12" stroke-linecap="round" stroke-linejoin="round"/></svg>