<svg xmlns="http://www.w3.org/2000/svg" width="192" height="192" viewBox="0 0 192 192"><path d="M95.42 19a10.087 10.087 0 0 0-10.092 10.092A10.087 10.087 0 0 0 95.42 39.169a10.087 10.087 0 0 0 10.077-10.077A10.087 10.087 0 0 0 95.42 19m28.109 6.497-6.572 16.62a58.75 58.75 0 0 1 33.072 33.297l16.664-6.467a76.7 76.7 0 0 0-43.164-43.449zm-56.594.15a76.433 76.433 0 1 0 99.577 99.037l-16.619-6.573a58.6 58.6 0 0 1-54.474 37.043v-.015a58.576 58.576 0 0 1-21.838-112.9zM95.42 57.774a38.81 38.81 0 0 0-38.817 38.802A38.817 38.817 0 1 0 95.42 57.773m0 17.28a21.53 21.53 0 0 1 21.522 21.523A21.53 21.53 0 1 1 95.42 75.054zm67.483 12.078a10.087 10.087 0 0 0-10.077 10.076 10.087 10.087 0 0 0 10.077 10.093 10.087 10.087 0 0 0 10.092-10.093 10.087 10.087 0 0 0-10.092-10.076"/></svg>