<svg xmlns="http://www.w3.org/2000/svg" width="192" height="192" viewBox="0 0 192 192"><path d="m66.56 59.431 4.832-8.232 17.84-30.44c3.744-6.344 9.792-6.344 13.528 0l17.84 30.44 21.8 37.2a56 56 0 0 1 9.704 31.496A56.16 56.16 0 0 1 96 176a56.16 56.16 0 0 1-56.105-56.105c0-11.672 3.616-22.504 9.704-31.488l13.144-22.384 14.024 14.024a12.104 12.104 0 0 0 6.76 16.96v41.785a12.2 12.2 0 0 0-8.104 11.464c0 6.68 5.416 12.096 12.136 12.096 6.672 0 12.096-5.416 12.096-12.096 0-5.28-3.36-9.784-8.112-11.464V97.015q.816-.256 1.56-.64l16.08 16.048a12.112 12.112 0 1 0 5.288-5.12L98.31 91.135a12.136 12.136 0 0 0-16.336-16.336z"/></svg>