<svg xmlns="http://www.w3.org/2000/svg" width="192" height="192" viewBox="0 0 192 192"><path d="m116.64 81.176-1.4 1.96-19.232 27.248-19.216-27.2-1.4-1.976C63.266 64.37 75.251 40.872 96 40.8c20.72.098 32.692 23.542 20.624 40.384M96.016 16c-27.664 0-50.144 22.584-50.144 50.336 0 10.56 3.28 20.704 9.448 29.328l1.328 1.856 26.112 36.976s3.184 5.224 10.128 5.224h6.24c6.96 0 10.12-5.224 10.12-5.224l26.096-36.976 1.328-1.864a50 50 0 0 0 9.448-29.328C146.12 38.576 123.632 16 96 16m-.112 132.57c9.488 0 13.944 7.71 13.944 13.752 0 7.456-5.96 13.68-14.04 13.68-7.976 0-13.888-6.12-13.888-13.66s5.952-13.772 13.984-13.772"/></svg>