<svg xmlns="http://www.w3.org/2000/svg" width="192" height="192"><path d="M173 57.589c-.27-9.086-5.505-17.094-13.783-20.982-8.508-3.965-18.326-2.733-25.448 3.234L96.001 70.718 58.271 39.88c-7.2-6.006-16.978-7.238-25.487-3.272-8.277 3.888-13.514 11.896-13.783 20.982v88.55c0 6.352 5.159 11.55 11.55 11.55h26.95c4.235 0 7.7-3.465 7.7-7.7v-42.35l21.021 17.286c2.81 2.348 6.314 3.542 9.779 3.542s6.969-1.194 9.779-3.542l21.021-17.286v42.35c0 4.235 3.465 7.7 7.7 7.7h26.95c6.391 0 11.55-5.198 11.55-11.55zm-123.2 84.7H34.4V82.267l15.4 12.705zM96 113.067 37.48 64.865a8.59 8.59 0 0 1-3.08-6.584c0-3.426 1.848-6.314 4.928-7.738a8.4 8.4 0 0 1 3.696-.847c1.925 0 3.811.693 5.428 2.002l47.549 38.885 47.547-38.885c2.657-2.195 6.045-2.618 9.125-1.155 3.119 1.424 4.928 4.312 4.928 7.738 0 2.58-1.116 4.967-3.041 6.584zm46.2 29.222V94.972l15.4-12.667v59.983z"/></svg>