<svg xmlns="http://www.w3.org/2000/svg" width="192" height="192" viewBox="0 0 192 192"><path d="M38.128 31.462a19.2 19.2 0 0 0-11.536 2.624C19.84 38.214 16 46.07 16 54.742v87.56a18.424 18.424 0 0 0 18.296 18.312H62.8v-50.376L96 135.142l33.2-24.904v50.376h28.504A18.43 18.43 0 0 0 176 142.294V54.75c0-8.672-3.832-16.528-10.592-20.656s-16.208-3.488-23.376 1.888v-.016l-9.624 7.216L96 70.494 59.6 43.19l-9.632-7.216a22.7 22.7 0 0 0-11.84-4.512m-3.192 16.28c1.28-.776 2.424-1.208 5.424 1.032l9.624 7.216L96 90.494l46.016-34.52 9.608-7.2c3.016-2.264 4.16-1.816 5.44-1.04 1.28.784 2.936 2.936 2.936 7.008v87.56c0 1.368-.92 2.312-2.296 2.312H145.2V78.222L96 115.142l-49.2-36.92v66.392H34.296A2.184 2.184 0 0 1 32 142.318V54.742c0-4.072 1.664-6.224 2.936-7"/></svg>