<svg width="192" height="192" fill="none" xmlns="http://www.w3.org/2000/svg"><path d="M162.346 131.907A74.052 74.052 0 0 1 133 163.256a12.984 12.984 0 0 1-9.865 1.3 13.002 13.002 0 0 1-7.893-6.064 13.032 13.032 0 0 1-1.299-9.877 13.012 13.012 0 0 1 6.057-7.903 48.038 48.038 0 0 0 20.346-23.229 48.111 48.111 0 0 0 2.018-30.83 48.062 48.062 0 0 0-17.143-25.69A47.964 47.964 0 0 0 96 51.032a47.961 47.961 0 0 0-29.22 9.931 48.062 48.062 0 0 0-17.144 25.69 48.115 48.115 0 0 0 2.018 30.83A48.043 48.043 0 0 0 72 140.712a13.014 13.014 0 0 1 6.057 7.903 13.03 13.03 0 0 1-1.299 9.877 12.999 12.999 0 0 1-7.893 6.064c-3.33.894-6.88.426-9.865-1.3a74.052 74.052 0 0 1-29.369-31.395 74.172 74.172 0 0 1-6.998-42.44 74.134 74.134 0 0 1 17.73-39.182 73.987 73.987 0 0 1 36.484-22.714 73.915 73.915 0 0 1 42.94 1.407 74.003 74.003 0 0 1 34.921 25.055 74.15 74.15 0 0 1 15.134 40.258 74.178 74.178 0 0 1-7.496 37.662Zm0 0a.986.986 0 0 1 .023-.046" stroke="#000" stroke-width="12" stroke-linecap="round" stroke-linejoin="round"/><circle cx="96" cy="99" r="24" stroke="#000" stroke-width="12" stroke-linecap="round" stroke-linejoin="round"/></svg>