<svg width="192" height="192" fill="none" xmlns="http://www.w3.org/2000/svg"><path d="M120 162.475C117.845 151.383 107.919 143 96 143c-11.92 0-21.845 8.383-24 19.475C79.42 165.394 87.519 167 96 167s16.581-1.606 24-4.525Z" stroke="#000" stroke-width="12" stroke-linecap="round" stroke-linejoin="round"/><circle cx="96" cy="99" r="24" stroke="#000" stroke-width="12" stroke-linecap="round" stroke-linejoin="round"/><path d="M162.346 131.907a74.33 74.33 0 0 1-2.26 4.23c-.789 1.367-1.715 2.707-2.586 4.017a12.991 12.991 0 0 1-10.929 5.957c-7.179 0-13-5.82-13-13 0-2.69.817-5.189 2.217-7.263 1.753-2.619 3.339-5.419 4.558-8.365a48.111 48.111 0 0 0 2.018-30.83 48.062 48.062 0 0 0-17.143-25.69A47.964 47.964 0 0 0 96 51.032a47.961 47.961 0 0 0-29.22 9.931 48.062 48.062 0 0 0-17.144 25.69 48.115 48.115 0 0 0 2.018 30.83c1.219 2.946 2.805 5.746 4.558 8.365a12.94 12.94 0 0 1 2.217 7.263c0 7.18-5.82 13-13 13a12.99 12.99 0 0 1-10.929-5.957c-1.761-2.649-3.452-5.418-4.869-8.293a74.172 74.172 0 0 1-6.998-42.44 74.134 74.134 0 0 1 17.73-39.182 73.987 73.987 0 0 1 36.484-22.714 73.915 73.915 0 0 1 42.94 1.407 74.003 74.003 0 0 1 34.921 25.055 74.15 74.15 0 0 1 15.134 40.258 74.178 74.178 0 0 1-7.496 37.662Zm0 0 .023-.046" stroke="#000" stroke-width="12" stroke-linecap="round" stroke-linejoin="round"/></svg>