<svg xmlns="http://www.w3.org/2000/svg" width="192" height="192"><path d="M100.06 16.178a79.84 79.84 0 0 0-37.317 7.153 79.8 79.8 0 0 0-29.774 23.593l22.022 38.15a42.48 42.48 0 0 1 41.006-31.501h67.69a79.82 79.82 0 0 0-63.628-37.396zM25.304 58.66a79.9 79.9 0 0 0-9.305 36.849 79.9 79.9 0 0 0 8.776 36.979 79.88 79.88 0 0 0 60.19 42.743l22.022-38.142a42.24 42.24 0 0 1-47.768-19.774l-.035.026zm100.8 7.413a42.4 42.4 0 0 1 12.04 24.488 42.4 42.4 0 0 1-5.373 26.753l.052.026-33.82 58.584a79.86 79.86 0 0 0 36.546-10.347 79.8 79.8 0 0 0 27.63-26.05 79.86 79.86 0 0 0 12.465-35.876 79.85 79.85 0 0 0-5.512-37.578zM96 66.082c-16.568 0-30 13.43-30 30 0 16.568 13.431 30 30 30 16.568 0 30-13.431 30-30 0-16.568-13.431-30-30-30"/></svg>