<svg xmlns="http://www.w3.org/2000/svg" width="192" height="192" viewBox="0 0 192 192"><path d="M82.788 16c-8.493 0-15.848 5.902-17.729 14.166l-2.76 12.112c-1.511 6.669-5.588 12.427-10.149 17.529-8.635 9.633-13.877 22.344-13.877 36.337s5.269 26.732 13.933 36.393c4.589 5.13 8.693 10.887 10.203 17.584l2.65 11.712a18.17 18.17 0 0 0 17.729 14.166h20.067c8.493 0 15.842-5.901 17.723-14.166l2.65-11.712c1.538-6.726 5.614-12.454 10.202-17.584a54.5 54.5 0 0 0 12.485-23.858c.171 0 .37.033.54.033a7.265 7.265 0 0 0 7.27-7.27V90.528a7.265 7.265 0 0 0-7.27-7.27c-.2 0-.4 0-.629.028a54.2 54.2 0 0 0-12.335-23.48c-4.56-5.1-8.637-10.83-10.148-17.528l-2.766-12.112A18.17 18.17 0 0 0 102.854 16zm10.203 34.4c25.194 0 45.6 20.406 45.6 45.6s-20.406 45.6-45.6 45.6-45.6-20.406-45.6-45.6 20.406-45.6 45.6-45.6M68.293 74.614a7.13 7.13 0 0 0-6.368 3.574c-1.966 3.42-.798 7.751 2.622 9.746l24.68 14.25c3.392 1.967 7.753.799 9.72-2.621.47-.82.761-1.693.885-2.572l24.91-14.384c2.052-1.197 2.761-3.793 1.564-5.845-1.168-2.052-3.787-2.738-5.839-1.57l-24.72 14.272-24.075-13.899a7.1 7.1 0 0 0-3.379-.951"/></svg>