<svg xmlns="http://www.w3.org/2000/svg" width="192" height="192" viewBox="0 0 192 192"><path d="M175.79 108.91c-1.189-9.115-7.134-16.778-16.381-20.741-17.57-7.662-32.63 5.68-45.973 17.57-4.756 4.227-10.04 8.983-15.192 12.418 3.831-5.813 8.587-12.154 11.757-16.513 15.853-21.533 26.421-35.669 19.42-49.54-1.585-3.17-6.737-10.833-19.288-10.833-12.946 0-25.629 6.209-37.518 14.003 1.057-4.227.396-8.851-2.114-12.814-4.756-7.398-14.664-9.38-21.93-4.624C36.814 45.631 18.32 65.314 16.205 83.15c-.924 7.795 1.321 15.192 6.341 20.477 4.36 4.756 14.4 11.361 31.31 2.775 6.605-3.435 13.738-8.587 21.268-14.135 1.586-1.19 3.303-2.51 5.153-3.832-14.135 19.42-25.364 36.33-19.816 51.125 1.585 4.096 5.944 11.625 17.042 14.135 17.967 3.964 33.423-4.888 45.973-14.928a15.9 15.9 0 0 0 3.17 11.757c3.039 4.096 7.794 6.21 12.55 6.21 3.303 0 6.738-1.058 9.776-3.04 8.851-7 29.328-24.967 26.818-44.783zM49.63 44.046c.132-.66.925-1.057 1.453-.66l2.246 1.453c3.17 1.981 6.737 3.434 10.436 3.963l2.642.396c.66.132 1.057.925.66 1.453l-1.453 2.246c-1.981 3.17-3.434 6.738-3.963 10.436l-.396 2.642c-.132.66-.925 1.057-1.453.66l-2.246-1.452c-3.17-1.982-6.737-3.435-10.436-3.964l-2.642-.396c-.66-.132-1.057-.925-.66-1.453l1.452-2.246c1.982-3.17 3.435-6.737 3.964-10.436z"/></svg>