<svg xmlns="http://www.w3.org/2000/svg" width="192" height="192" viewBox="0 0 192 192"><path d="M97.894 112.55c-2.992-3.003-7.861-3.003-10.848 0-7.845 7.861-57.034 57.183-63.658 63.775 7.685 8.192 21.605 10.176 31.36 4.224l70.634-40.48c-6.517-6.495-20.88-20.89-27.488-27.52M87.046 79.996a7.66 7.66 0 0 0 10.848 0l16.496-16.533-.016-.01 11.227-11.217-70.575-40.639c-9.952-6.229-24.288-4.096-32.005 4.256 6.47 6.432 56.314 56.426 64.026 64.143zm-10.821 21.712a7.706 7.706 0 0 0 0-10.88L32.044 46.525 16.178 30.68a22 22 0 0 0-.176 2.917l.01 125.06c.038 1.174.209 2.539.39 3.718 10.448-10.23 48.901-49.535 59.823-60.666zm86.612-28.032-23.477-13.52c-6.88 6.827-23.61 23.648-30.64 30.682a7.697 7.697 0 0 0 0 10.88c7.072 7.04 23.514 23.605 30.437 30.469l23.461-13.44c17.738-8.8 17.872-36.117.219-45.071"/></svg>