<svg xmlns="http://www.w3.org/2000/svg" width="192" height="192" viewBox="0 0 192 192"><path d="M89.586 19.6A76.46 76.46 0 0 0 38.38 41.94c-29.846 29.862-29.84 78.263.014 108.12 29.854 29.854 78.255 29.862 108.12.016 23.145-23.196 28.936-58.562 14.398-87.928l-20.109 20.11a49.96 49.96 0 0 1-13.032 49.072c-19.56 19.195-50.932 19.047-70.31-.33-19.38-19.379-19.528-50.75-.333-70.312a49.96 49.96 0 0 1 33.536-14.904 49.95 49.95 0 0 1 32.804 10.558l18.535-18.535A76.46 76.46 0 0 0 89.59 19.602zm52.413 18.205a76.5 76.5 0 0 1 18.91 24.34l12.995-12.995a7.12 7.12 0 0 0 0-10.089l-11.536-11.536a7.12 7.12 0 0 0-10.089 0zM123.464 56.34 92.445 87.359 79.469 74.383a6.12 6.12 0 0 0-8.65 0L57.845 87.359a6.11 6.11 0 0 0 0 8.65l30.272 30.271a6.12 6.12 0 0 0 8.657 0L140.8 82.254a49.96 49.96 0 0 0-17.336-25.915z"/></svg>