<svg width="192" height="192" fill="none" xmlns="http://www.w3.org/2000/svg"><path d="m94 135-36 26m4-106h68m-36 80h36M70 35h52M58 161v-26.201A39.999 39.999 0 0 1 62 55m68 0a39.998 39.998 0 0 1 40 40 40.001 40.001 0 0 1-40 40m-3.689-44.5a35 35 0 0 1-60.622 0" stroke="#000" stroke-width="12" stroke-linecap="round" stroke-linejoin="round"/><path d="M70 35a40 40 0 0 0-39.62 34.5M122 35a39.998 39.998 0 0 1 39.62 34.5" stroke="#000" stroke-width="12" stroke-linecap="round" stroke-linejoin="round"/></svg>