<svg xmlns="http://www.w3.org/2000/svg" width="192" height="192" viewBox="0 0 192 192"><path d="M22.16 34.455a6.16 6.16 0 0 0-6.16 6.16v110.77a6.16 6.16 0 0 0 6.16 6.16h147.68a6.16 6.16 0 0 0 6.16-6.16V40.615a6.16 6.16 0 0 0-6.16-6.16zm83.072 33.85h40a3.08 3.08 0 0 1 3.08 3.08v6.15a3.08 3.08 0 0 1-3.08 3.08h-40a3.073 3.073 0 0 1-3.08-3.07v-6.16a3.08 3.08 0 0 1 3.08-3.08m-43.072.008a26.4 26.4 0 0 1 18.504 7.223l-7.896 7.88A15.04 15.04 0 0 0 62.16 79.28c-7.215 0-13.335 4.865-15.52 11.44a16.56 16.56 0 0 0-.007 10.567c2.192 6.584 8.311 11.449 15.527 11.449a16.8 16.8 0 0 0 9.392-2.672c2.912-1.96 4.88-4.848 5.543-8.264H62.152V91.392h26.08a31.4 31.4 0 0 1 .44 5.24c0 8.424-3.001 15.528-8.217 20.352-4.568 4.224-10.823 6.72-18.303 6.719a27.68 27.68 0 0 1-24.713-15.279 27.36 27.36 0 0 1 0-24.832 27.68 27.68 0 0 1 24.72-15.279zm43.072 21.535h49.232a3.08 3.08 0 0 1 3.07 3.072v6.16a3.08 3.08 0 0 1-3.07 3.073h-49.232a3.075 3.075 0 0 1-3.08-3.073v-6.16a3.08 3.08 0 0 1 3.08-3.072m0 21.537h40a3.08 3.08 0 0 1 3.08 3.08v6.15a3.08 3.08 0 0 1-3.08 3.08h-40a3.08 3.08 0 0 1-3.08-3.08v-6.15a3.076 3.076 0 0 1 3.08-3.08"/></svg>