<svg xmlns="http://www.w3.org/2000/svg" width="192" height="192" viewBox="0 0 192 192"><path d="M59.64 23.284A43.64 43.64 0 0 0 16 66.908a43.64 43.64 0 0 0 43.64 43.632 43.64 43.64 0 0 0 43.632-43.632 43.64 43.64 0 0 0-43.632-43.64M165.1 52.364a10.91 10.91 0 0 0-10.912 10.904A10.91 10.91 0 0 0 165.1 74.18a10.91 10.91 0 0 0 10.904-10.904 10.91 10.91 0 0 0-10.912-10.904m-32.72 14.544a21.816 21.816 0 0 0-21.824 21.816 21.816 21.816 0 0 0 21.824 21.816 21.816 21.816 0 0 0 21.816-21.816 21.816 21.816 0 0 0-21.816-21.816m0 50.904a25.44 25.44 0 0 0-25.456 25.456 25.44 25.44 0 0 0 25.456 25.456 25.44 25.44 0 0 0 25.448-25.456 25.44 25.44 0 0 0-25.448-25.456"/></svg>