<svg xmlns="http://www.w3.org/2000/svg" width="192" height="192" viewBox="0 0 192 192"><path d="m170.98 114.54-43.069-73.997c-7.137-12.224-19.525-18.376-31.913-18.376S71.141 28.32 64.086 40.543L21.017 114.54c-14.274 24.529 3.61 55.293 32.159 55.293h85.647c28.549 0 46.433-30.682 32.159-55.293zM78.278 48.746c5.332-9.188 14.192-10.173 17.72-10.173s12.388.984 17.72 10.173l13.126 22.56-9.516 16.489H55.554l22.642-39.05zm-25.103 104.68c-7.547 0-14.274-3.856-17.966-10.337-1.723-3.035-5.25-11.157 0-20.263l10.829-18.622h19.197l28.385 49.222zm31.01-49.222h23.709L96.08 124.713l-11.813-20.509zm72.603 38.886c-3.692 6.48-10.419 10.337-17.966 10.337H112.57l-7.137-12.306 30.846-53.488 20.427 35.194c5.332 9.106 1.805 17.228 0 20.263z"/></svg>