<svg xmlns="http://www.w3.org/2000/svg" width="192" height="192" viewBox="0 0 192 192"><path d="M96 19a76.83 76.83 0 0 0-60.103 28.875l25.359 43.95A34.99 34.99 0 0 1 96 60.991h68.598A77 77 0 0 0 96 19M31.38 54.095A76.66 76.66 0 0 0 19 96a77 77 0 0 0 65.39 76.127l25.342-43.924a34.99 34.99 0 0 1-44.044-14.716L31.38 54.086zM96 67.998a28.007 28.007 0 0 0 0 56.013 28.007 28.007 0 0 0 0-56.013m21.004 0a34.95 34.95 0 0 1 9.497 45.113h43.642a9 9 0 0 1 .924.034 77.26 77.26 0 0 0-3.311-45.148zm13.218 53.669a8.537 8.537 0 0 0-8.556 8.556v34.222a8.537 8.537 0 0 0 8.556 8.555h34.222a8.537 8.537 0 0 0 8.556-8.555v-34.222a8.537 8.537 0 0 0-8.556-8.556zm4.56 8.556h13.39q2.19 0 4.106.718 1.916.668 3.294 1.908 1.437 1.198 2.258 2.823a7.7 7.7 0 0 1 .796 3.491q0 2.72-1.335 4.577a8.56 8.56 0 0 1-3.242 2.772v.385q2.626.959 4.192 3.012a7.7 7.7 0 0 1 1.643 5.03 8.56 8.56 0 0 1-.924 3.962 9 9 0 0 1-2.387 2.969q-1.523 1.24-3.577 1.908a13.7 13.7 0 0 1-4.363.667h-13.85zm6.451 5.783v8.17h6.45q2.251 0 3.44-1.188a4.02 4.02 0 0 0 1.24-2.926q0-1.66-1.188-2.858a4.45 4.45 0 0 0-3.294-1.198zm-28.122.334-21.107 36.558a77 77 0 0 0 21.132-1.84 9 9 0 0 1-.026-.915zm28.122 13.38v8.796h7.17q2.438 0 3.73-1.19a4.28 4.28 0 0 0 1.283-3.165 4.1 4.1 0 0 0-1.335-3.148q-1.283-1.284-3.858-1.284h-6.99z"/></svg>