<svg xmlns="http://www.w3.org/2000/svg" width="192" height="192" viewBox="0 0 192 192"><path d="M96.719 16.013c-.391.009-.8.062-1.173.018-.96-.107-1.84.329-2.729.622a8 8 0 0 0-3.226 2.258L22.838 85.778c-.978 1.013-2.045 1.955-2.89 3.084q-.48.889-.986 1.778c.018.488-.355.88-.329 1.377-.089 2.445-.026 4.889-.044 7.342q-.018 19.394 0 38.798l101.49-101.49c-.445-.649-1.076-1.138-1.609-1.707l-16.035-16.044a8.9 8.9 0 0 0-4.604-2.675 1.78 1.78 0 0 0-1.111-.231m26.914 24.212L99.547 64.31q19.697 19.768 39.447 39.491v72.174h25.545c4.71.382 9.226-4.044 8.862-8.773v-71.95c-.027-1.467.15-2.987-.418-4.374-.569-2.142-2.373-3.538-3.84-5.057-15.172-15.2-30.363-30.372-45.509-45.597m-70.663 70.663L18.6 145.267q-.018 11.653 0 23.314c.48 3.777 3.778 6.924 7.51 7.395 25.493.017 1.76 0 107.85 0v-34.371H52.998z"/></svg>