<svg xmlns="http://www.w3.org/2000/svg" width="192" height="192" viewBox="0 0 192 192"><path d="M112.27 113.47c-2.72-2.73-7.147-2.73-9.862 0-7.132 7.147-51.85 51.986-57.872 57.978 6.987 7.447 19.641 9.25 28.51 3.84l64.212-36.8a15397 15397 0 0 1-24.989-25.018zm-9.862-29.595a6.96 6.96 0 0 0 9.862 0l14.996-15.03-.015-.01 10.206-10.196-64.16-36.946c-9.047-5.663-22.08-3.723-29.096 3.87 5.882 5.847 51.195 51.296 58.206 58.312zm-9.837 19.738a7.006 7.006 0 0 0 0-9.89L52.406 53.445 37.982 39.041a20 20 0 0 0-.16 2.652l.01 113.69c.033 1.067.188 2.308.353 3.38 9.498-9.3 44.456-45.033 54.386-55.152zm78.74-25.484-21.343-12.291c-6.255 6.206-21.464 21.498-27.855 27.893a6.997 6.997 0 0 0 0 9.89c6.429 6.4 21.377 21.46 27.67 27.7l21.329-12.218c16.126-8 16.247-32.834.198-40.975z"/></svg>