<svg xmlns="http://www.w3.org/2000/svg" width="192" height="192" viewBox="0 0 192 192"><path d="M41.212 102.84c-12.534.426-20.864 12.508-17.903 26.491 18.383 40.199 65.801 57.765 106 39.381a80.007 80.007 0 0 0 33.825-29.167c-20.09 22.322-55.986 30.954-92.568-18.117-10.223-13.734-20.775-18.89-29.354-18.597"/><path d="M49.008 61.447c-18.081-.053-31.558 15.628-32.971 34.545a79.562 79.562 0 0 0 7.272 33.336c-4.987-23.549 22.064-41.71 47.257-7.912 36.59 49.09 72.486 40.447 92.576 18.117a80.007 80.007 0 0 0 12.126-32.403c-5.903 26.437-46.582 39.541-79.25-11.139-16.1-24.953-32.945-34.509-47.01-34.545" opacity=".8"/><path d="M66.521 30.76c-10.916.16-21.628 4.81-31.549 13.663l-.755.755a79.74 79.74 0 0 0-18.18 50.813c2.497-33.629 43.168-57.036 79.979 0 32.715 50.76 73.482 37.532 79.279 11.023l.035-.23a67.561 67.561 0 0 0 .613-10.934v-3.645c-7.04 8.774-29.024 19.262-54.528-21.735-16.9-27.167-36.197-39.985-54.893-39.71" opacity=".6"/><path d="M85.651 18.387c-5.894.027-12.126.995-21.797 4.534-9.673 3.555-20.926 11.69-29.638 22.268C61.25 20.298 94.372 27.018 121.414 70.48c25.504 40.999 47.489 30.509 54.529 21.744a80.007 80.007 0 0 0-2.934-18.028c-9.325 2.72-16.419 1.787-28.064-16.028-14.561-22.268-33.754-39.897-59.293-39.772" opacity=".4"/><path d="M144.95 58.159C156.604 76 163.707 76.907 173.041 74.178a80.095 80.095 0 0 0-106.11-52.716c35.158-11.086 60.093 9.29 78.015 36.696" opacity=".2"/></svg>