<svg xmlns="http://www.w3.org/2000/svg" width="192" height="192" viewBox="0 0 192 192"><path d="M157.6 42.1H87.376L80.6 19H34.4C25.93 19 19 25.93 19 34.4v100.1c0 8.47 6.93 15.4 15.4 15.4h53.9L96 173h61.6c8.47 0 15.4-6.93 15.4-15.4V57.5c0-8.47-6.93-15.4-15.4-15.4m-98.791 73.843A31.527 31.527 0 0 1 27.316 84.45a31.484 31.484 0 0 1 31.493-31.493c8.008 0 15.323 2.849 21.098 8.239l.539.462-9.471 9.086-.462-.385a16.77 16.77 0 0 0-11.704-4.543c-10.087 0-18.326 8.393-18.326 18.634s8.239 18.634 18.326 18.634c10.549 0 15.092-6.699 16.324-11.242H58.116V79.907h30.415l.077.539c.308 1.617.385 3.08.385 4.697 0 18.095-12.397 30.8-30.184 30.8m46.431-13.167c2.541 4.62 5.698 9.086 9.163 13.09l-4.158 4.081zm5.929-5.852h-7.623l-2.387-8.008h30.723s-2.618 10.087-12.012 21.098a71 71 0 0 1-8.701-13.09M165.3 157.6c0 4.235-3.465 7.7-7.7 7.7h-53.9l15.4-15.4-6.237-21.329 7.084-7.084 20.636 20.713 5.621-5.621-20.867-20.636c6.93-7.931 12.32-17.325 14.784-27.027h9.779v-8.008h-28.028V72.9h-8.008v8.008H98.772L89.686 49.8H157.6c4.235 0 7.7 3.465 7.7 7.7z"/></svg>