<svg xmlns="http://www.w3.org/2000/svg" width="192" height="192" viewBox="0 0 192 192"><path d="m78.888 19.002-12.833 17.11H54.077c-19.367 0-35.076 15.71-35.076 35.077v20.533h17.11v-19.25c0-10.384 7.7-19.25 17.11-19.25h85.556c9.41 0 17.112 8.866 17.112 19.25v32.083h17.11V71.188c0-19.367-15.71-35.077-35.077-35.077h-11.978l-12.832-17.11zm17.185 59.887a25.666 25.666 0 0 0-25.665 25.667 25.666 25.666 0 0 0 25.665 25.665 25.666 25.666 0 0 0 25.667-25.665 25.666 25.666 0 0 0-25.667-25.667M19 117.388v20.533c0 19.367 15.708 35.077 35.076 35.077h41.921v-17.11l-42.883-.108c-9.41 0-17.004-8.758-17.004-19.142v-19.25zm128.4 12.833a17.11 17.11 0 0 0-17.11 17.112 17.11 17.11 0 0 0 17.11 17.11 17.11 17.11 0 0 0 17.112-17.11 17.11 17.11 0 0 0-17.112-17.112"/></svg>