<svg xmlns="http://www.w3.org/2000/svg" width="192" height="192" viewBox="0 0 192 192"><path d="M163.89 39.518c18.857 18.487 13.996 48.264-2.922 67.028-16.273 18.088-34.452 36.667-52.171 54.14a18.12 18.12 0 0 1-25.532.03c-1.846-1.814-2.4-4.613-1.323-6.951 7.721-17.072 17.226-35.806 29.223-54.94 2.953-4.736 7.844-11.873 11.351-16.98.37-.553-.37-1.168-.83-.676-4.215 4.583-9.998 11.012-13.536 15.35-12.612 15.504-23.132 31.223-32.145 46.111a6.183 6.183 0 0 1-9.72 1.2c-12.151-12.304-24.147-24.886-35.283-37.252C14.145 87.783 9.254 58.037 28.08 39.58c9.136-8.952 23.594-13.72 33.929-13.535 7.598-.123 14.796 1.6 21.44 4.645 3.353 1.538 4.122 5.813 1.907 8.797C76.312 51.73 68.499 64.157 61.7 76.37c-.339.585.492 1.108.892.585A395 395 0 0 1 85.263 49.7c7.076-7.752 13.843-14.796 23.533-19.164 6.521-2.953 13.596-4.584 21.04-4.46 10.337-.185 24.794 4.583 33.93 13.534z"/></svg>