<svg xmlns="http://www.w3.org/2000/svg" width="192" height="192"><path d="M56.004 32.001C33.925 32.001 16 49.918 16 71.997v71.998c0 8.832 7.173 16.004 16.004 16.004h87.995c8.832 0 15.997-7.173 15.997-16.004v-16.987l21.119 14.812c2.144 1.504 4.511 2.212 6.847 2.212 6.24 0 12.037-4.965 12.037-12.037v-71.96c0-7.071-5.797-12.037-12.037-12.037v-.03c-2.336 0-4.703.67-6.847 2.205l-21.119 14.82V48c0-8.831-7.165-15.997-15.997-15.997zm0 15.967H120v95.997H32.005V71.967c0-13.248 10.752-23.999 23.999-23.999m103.99 19.679v56.608l-23.999-16.837V84.476zm-108 44.316c-6.624 0-12 5.376-12 12s5.376 12 12 12 12-5.376 12-12-5.376-12-12-12"/></svg>