<svg xmlns="http://www.w3.org/2000/svg" width="192" height="192" viewBox="0 0 192 192"><path d="M88.084 16.004a42.56 42.56 0 0 0-42.543 42.543v.056h21.471A21.015 21.015 0 1 1 88.027 79.61V58.539h-.056a58.702 58.702 0 0 0 0 117.4h.056c12.616-.024 24.527-3.456 34.199-9.744l9.768 9.8h30.727l-25.103-25.175c3.36-5.28 5.76-11.312 6.96-18h13.688v-21.687h-33.16c.273 7.536.4 4.224.273 7.536a39.2 39.2 0 0 1-3.952 15.904l-33.391-33.495h-30.72l49.056 49.215c-5.36 2.92-11.584 4.56-18.336 4.576h-.056a37.631 37.631 0 1 1 0-75.254h.056v21.463h.056A42.543 42.543 0 1 0 88.076 16z"/></svg>