<svg width="192" height="192" fill="none" xmlns="http://www.w3.org/2000/svg"><path d="M48 90H30a6 6 0 0 0-6 6v68a6 6 0 0 0 6 6h132a6 6 0 0 0 6-6V96a6 6 0 0 0-6-6h-18" stroke="#000" stroke-width="12" stroke-linecap="round" stroke-linejoin="round"/><path d="M144 94.67V27.973c0-3.299-2.686-5.973-6-5.973H54c-3.314 0-6 2.674-6 5.973V94.67c0 1.88.89 3.65 2.4 4.778l42 31.357a6.021 6.021 0 0 0 7.2 0l42-31.357a5.963 5.963 0 0 0 2.4-4.778Z" stroke="#000" stroke-width="12" stroke-linecap="round" stroke-linejoin="round"/><path d="M136 151H56M86 41v25m3 27s-1.411-1.882-2.298-5" stroke="#000" stroke-width="10" stroke-linecap="round" stroke-linejoin="round"/><path d="M107 96s18-2 18-17c0-8-6-14-20-14-16 0-36 2-36 20 0 20 39-5 38-35m-37-3h48" stroke="#000" stroke-width="10" stroke-linecap="round" stroke-linejoin="round"/></svg>