<svg xmlns="http://www.w3.org/2000/svg" width="192" height="192"><path d="M100.06 16.181a79.84 79.84 0 0 0-37.315 7.152 79.8 79.8 0 0 0-29.771 23.593l22.019 38.147a42.48 42.48 0 0 1 41.005-31.499h67.688a79.83 79.83 0 0 0-63.624-37.393zM25.31 58.66a79.9 79.9 0 0 0-9.306 36.849 79.9 79.9 0 0 0 8.777 36.976 79.88 79.88 0 0 0 60.186 42.742l22.02-38.14a42.245 42.245 0 0 1-47.765-19.772l-.035.025zm100.79 7.412a42.4 42.4 0 0 1 12.039 24.488 42.4 42.4 0 0 1-5.373 26.753l.05.025-33.815 58.581a79.86 79.86 0 0 0 36.019-10.052V137.38c0-2.683 1.127-5.382 3.021-7.277 1.906-1.906 4.613-3.049 7.309-3.049h15.824c2.856 0 5.56.465 7.962 1.451a79.9 79.9 0 0 0 6.502-24.855 79.85 79.85 0 0 0-5.513-37.575zm-30.103.01c-16.567 0-29.999 13.43-29.999 29.999 0 16.567 13.431 29.999 29.999 29.999s29.999-13.431 29.999-30c0-16.566-13.431-29.998-29.999-29.998m49.356 64.973q-2.6 0-4.48 1.878-1.85 1.85-1.85 4.45v32.179q0 2.6 1.85 4.48 1.88 1.88 4.48 1.88h17.169q6.205.001 9.84-3.634 3.634-3.665 3.634-8.992 0-4.073-2.224-6.863-2.225-2.788-6.361-3.76 3.29-1.128 5.17-3.76 1.88-2.662 1.88-6.58 0-4.981-3.572-8.114-3.572-3.165-9.713-3.164zm5.201 8.458h7.02q2.758 0 4.323 1.41 1.599 1.38 1.598 3.698 0 2.193-1.473 3.666t-3.949 1.472h-7.519zm0 17.328h8.084q2.694 0 4.386 1.442 1.724 1.44 1.723 3.76 0 2.38-1.66 3.915t-4.262 1.536h-8.271z"/></svg>