<svg xmlns="http://www.w3.org/2000/svg" width="192" height="192" viewBox="0 0 192 192"><path d="m45.385 24-.002 19.199H15.998v23.504c0 21.368 16.064 39.033 36.92 41.865a50.72 50.72 0 0 0 31.328 22.848v17.904H72.869c-10.048 0-18.199 8.024-18.199 17.936V168h81.896v-.744c0-9.912-8.145-17.936-18.201-17.936h-11.367v-17.729a50.72 50.72 0 0 0 32.08-23.023c20.856-2.832 36.92-20.505 36.92-41.865V43.199h-29.385V24H45.383zm50.613 22.4 7.8 17.84 19.952 1.672-15.152 12.744 4.552 18.943-17.152-10.047-17.152 10.047 4.52-18.943-15.119-12.744 19.951-1.68zm-64.83 11.744h14.217v23.631a52 52 0 0 0 .832 9.248c-8.928-4.52-15.049-13.704-15.049-24.32zm115.45 0h14.217v8.559a27.28 27.28 0 0 1-15.049 24.32q.825-4.505.832-9.248z"/></svg>