<svg xmlns="http://www.w3.org/2000/svg" width="192" height="192" viewBox="0 0 192 192"><path d="M32 24c-8.742 0-16 7.258-16 16v112c0 8.742 7.258 16 16 16h128c8.742 0 16-7.258 16-16V40c0-8.742-7.258-16-16-16zm0 16h128v112h-16v-8h-32v8H32zm64 32a12 12 0 0 0 0 24 12 12 0 0 0 0-24M66 84a9 9 0 0 0 0 18 9 9 0 0 0 0-18m60 0a9 9 0 0 0 0 18 9 9 0 0 0 0-18m-30 18c-8.008 0-24 4.016-24 12v6h48v-6c0-7.976-15.992-12-24-12m-30 4.5c-6 0-18 3.016-18 9v4.5h20v-6c0-2.736 1.197-5.151 2.813-7.031A29 29 0 0 0 66 106.5m60 0c-1.36 0-3.036.165-4.812.469 1.623 1.88 2.812 4.295 2.812 7.031v6h20v-4.5c0-5.992-12-9-18-9"/></svg>