<svg xmlns="http://www.w3.org/2000/svg" width="192" height="192" viewBox="0 0 192 192"><path d="M106.27 19c-3.389 0-6.161 2.773-6.161 6.161v61.613a4.127 4.127 0 0 0 4.127 4.128h61.613c3.389 0 6.162-2.773 6.162-6.161 0-36.29-29.45-65.74-65.74-65.74zm-65.695 5.353a8.2 8.2 0 0 0-5.715 2.534c-6.9 7.36-13.018 15.307-14.11 25.753-2.834 17.252 2.22 38.138 14.233 58.163l.116-.054-.054.054c5.421 8.995 12.63 18.052 20.824 26.247 8.186 8.186 17.419 15.51 26.406 20.93l-.035.08c20.024 11.952 40.91 17.004 58.163 14.17 10.288-1.087 18.384-7.352 25.753-14.108 3.265-3.142 3.388-8.257.308-11.522l-29.697-31.669c-3.266-3.08-8.318-3.018-11.46.124l-21.041 20.978-47.288-47.225-.023-.038 20.97-21.034c3.143-3.143 3.204-8.195.124-11.46L46.38 26.579a8.13 8.13 0 0 0-5.808-2.227zm63.692 111.74.05.05-.063-.037z"/></svg>