<svg xmlns="http://www.w3.org/2000/svg" width="192" height="192"><path d="M83.333 21.333c-8.467 0-15.334 6.867-15.334 15.334v52.718a41.3 41.3 0 0 0-10.666-1.384C34.506 88.001 16 106.507 16 129.334s18.506 41.333 41.333 41.333c21.934 0 39.878-17.08 41.252-38.667h.082V36.666c0-8.467-6.867-15.334-15.334-15.334zM122 46.664a15.334 15.334 0 0 0-15.334 15.334v57.336A15.334 15.334 0 0 0 122 134.668a15.334 15.334 0 0 0 15.334-15.334V61.998A15.334 15.334 0 0 0 122 46.664m38.667 20.002A15.334 15.334 0 0 0 145.333 82v17.336a15.334 15.334 0 0 0 15.334 15.334 15.334 15.334 0 0 0 15.334-15.334V82a15.334 15.334 0 0 0-15.334-15.334"/></svg>