<svg xmlns="http://www.w3.org/2000/svg" width="192" height="192" viewBox="0 0 192 192"><path d="M165.45 88.727h-33.673c6.91-7.71 11.2-17.891 11.2-29.091C142.977 35.563 123.413 16 99.341 16c-5.89 0-10.618 4.727-10.618 10.545v33.673c-7.71-6.91-17.891-11.127-29.091-11.127-24.073 0-43.636 19.564-43.636 43.636 0 5.818 4.727 10.545 10.618 10.545h33.673c-6.91 7.71-11.2 17.891-11.2 29.091 0 24.073 19.564 43.636 43.636 43.636 5.818 0 10.545-4.727 10.545-10.545v-33.673c7.71 6.91 17.891 11.2 29.091 11.2 24.073 0 43.636-19.564 43.636-43.636 0-5.89-4.727-10.618-10.545-10.618m-62.182-57.891c14.182 1.89 25.164 14.109 25.164 28.8s-10.982 26.909-25.091 28.8v-57.6zm-43.636 32.8c14.691 0 26.909 10.982 28.8 25.091h-57.6c1.89-14.182 14.109-25.091 28.8-25.091m29.091 97.527c-14.182-1.89-25.091-14.109-25.091-28.8s10.982-26.909 25.091-28.8zm43.636-32.8c-14.691 0-26.909-10.982-28.8-25.091h57.673c-1.964 14.182-14.182 25.091-28.873 25.091"/></svg>