<svg xmlns="http://www.w3.org/2000/svg" width="192" height="192" viewBox="0 0 192 192"><path d="M40.762 16c-9.905 0-18.289 8.384-18.289 18.289s8.384 18.289 18.289 18.289h92.187c-4.7-4.7-7.619-11.18-7.619-18.289 0-7.108 2.92-13.589 7.619-18.289zm110.48 0a18.286 18.286 0 0 0-18.289 18.289 18.286 18.286 0 0 0 18.289 18.289 18.286 18.286 0 0 0 18.289-18.289A18.286 18.286 0 0 0 151.242 16M39.232 64.006a16.76 16.76 0 0 0-16.756 16.756 16.76 16.76 0 0 0 16.756 16.756 16.76 16.76 0 0 0 16.771-16.756 16.76 16.76 0 0 0-16.771-16.756m17.634 0c4.174 4.382 6.756 10.287 6.756 16.756s-2.582 12.374-6.756 16.756h51.711c9.143 0 16.756-7.613 16.756-16.756.762-9.143-6.854-16.756-15.997-16.756zm-18.393 44.182c-8.381 0-15.997 6.857-15.997 15.238s6.854 15.997 15.997 15.997h15.61c-3.772-4.136-6.086-9.629-6.086-15.61 0-5.989 2.32-11.484 6.1-15.625zm32.768 0a15.62 15.62 0 0 0-15.625 15.625 15.62 15.62 0 0 0 15.625 15.61 15.62 15.62 0 0 0 15.61-15.61 15.62 15.62 0 0 0-15.61-15.625m-34.286 38.854a14.476 14.476 0 0 0-14.479 14.479A14.476 14.476 0 0 0 36.955 176a14.476 14.476 0 0 0 14.479-14.479 14.476 14.476 0 0 0-14.479-14.479"/></svg>