<svg xmlns="http://www.w3.org/2000/svg" width="192" height="192" viewBox="0 0 192 192"><path d="M96 19a76.83 76.83 0 0 0-60.103 28.875l25.359 43.95A34.99 34.99 0 0 1 96 60.991h68.598A77 77 0 0 0 96 19M31.38 54.095A76.66 76.66 0 0 0 19 96a77 77 0 0 0 65.39 76.127l25.342-43.924a34.99 34.99 0 0 1-44.044-14.716L31.38 54.086zM96 67.998a28.007 28.007 0 0 0 0 56.013 28.007 28.007 0 0 0 0-56.013m21.004 0a34.95 34.95 0 0 1 9.497 45.113h43.642a9 9 0 0 1 .924.034 77.26 77.26 0 0 0-3.311-45.148zm13.218 53.669a8.537 8.537 0 0 0-8.556 8.556v34.222a8.537 8.537 0 0 0 8.556 8.555h34.222a8.537 8.537 0 0 0 8.556-8.555v-34.222a8.537 8.537 0 0 0-8.556-8.556zm19.147 8.556q3.936 0 6.904 1.368 3.012 1.37 5.348 3.979l-4.347 4.21a11.1 11.1 0 0 0-3.37-2.687 9.4 9.4 0 0 0-4.5-1.027q-2.285.009-4.296.838-2.01.77-3.525 2.242a11.1 11.1 0 0 0-2.335 3.56q-.873 2.052-.873 4.628c0 2.575.29 3.25.873 4.663q.872 2.053 2.335 3.524 1.515 1.455 3.525 2.293 2.01.77 4.295.779 2.755 0 4.868-1.095 2.14-1.155 3.79-3.208l4.398 4.158a16.6 16.6 0 0 1-5.732 4.491 17.1 17.1 0 0 1-7.358 1.506q-3.653.009-6.819-1.318a16.94 16.94 0 0 1-9.017-9.026 17.1 17.1 0 0 1-1.327-6.767 17.1 17.1 0 0 1 4.954-12.166 16.94 16.94 0 0 1 12.21-4.945m-36.259 6.117-21.107 36.558a77 77 0 0 0 21.132-1.84 9 9 0 0 1-.026-.915z"/></svg>