<svg xmlns="http://www.w3.org/2000/svg" width="192" height="192" viewBox="0 0 192 192"><path d="M102.67 74.495c-4.002-10.652 1.847-23.182 16.44-26.845 12.807-3.356 28.292 3.448 32.141 15.578 5.51-5.726 8.743-13.361 7.666-21.797-2.494-19.795-21.673-25.337-39.221-25.245-11.114-.277-22.29-.154-33.434-.185-14.008.4-29.585-1.2-41.807 6.68C31 31.18 29.03 51.222 39.868 62.612c.246.278.554.524.83.801 3.726-12.253 19.335-19.18 32.203-15.793 14.623 3.664 20.442 16.193 16.47 26.815H32.91c0 9.144-.031 18.903.061 27.861.185 12.838.893 25.922 6.188 37.836 9.452 22.043 33.064 36.112 56.831 35.866 23.767.247 47.441-13.854 56.893-35.927 5.265-11.914 5.973-24.998 6.158-37.805.092-8.958.061-18.749.061-27.86H102.64z"/></svg>