<svg xmlns="http://www.w3.org/2000/svg" width="192" height="192" viewBox="0 0 192 192"><path d="M138.22 30.579a9.57 9.57 0 0 0-6.746 2.857c-33.852 34.393-34.105 89.224.096 124.72a9.57 9.57 0 0 0 13.534.252 9.57 9.57 0 0 0 .252-13.534c-27.446-28.488-27.09-70.732-.239-98.013a9.57 9.57 0 0 0-.106-13.536 9.6 9.6 0 0 0-4.31-2.443 9.6 9.6 0 0 0-2.48-.306zm-84.902.33a9.6 9.6 0 0 0-2.48.306 9.6 9.6 0 0 0-4.31 2.443 9.57 9.57 0 0 0-.108 13.536c26.852 27.282 27.206 69.525-.239 98.013a9.57 9.57 0 0 0 .253 13.534 9.57 9.57 0 0 0 13.534-.252c34.2-35.5 33.948-90.331.096-124.72a9.57 9.57 0 0 0-6.746-2.857zM25.637 58.282a9.6 9.6 0 0 0-2.48.31 9.6 9.6 0 0 0-4.306 2.45 9.57 9.57 0 0 0-.09 13.535c11.431 11.582 12.816 28.483-.246 42.748a9.57 9.57 0 0 0 .595 13.524 9.57 9.57 0 0 0 13.523-.594c19.144-20.905 17.798-50.84-.247-69.124a9.57 9.57 0 0 0-6.749-2.848zm140.73.092a9.57 9.57 0 0 0-6.75 2.848c-18.045 18.283-19.39 48.219-.246 69.124a9.57 9.57 0 0 0 13.524.594 9.57 9.57 0 0 0 .594-13.524c-13.063-14.264-11.677-31.165-.246-42.748a9.57 9.57 0 0 0-.089-13.536 9.6 9.6 0 0 0-4.307-2.449 9.6 9.6 0 0 0-2.48-.31z"/></svg>