<svg xmlns="http://www.w3.org/2000/svg" width="192" height="192" viewBox="0 0 192 192"><path d="M41.211 102.84c-12.534.426-20.864 12.508-17.903 26.49 18.383 40.198 65.8 57.764 106 39.38a80 80 0 0 0 33.824-29.166c-20.09 22.322-55.985 30.953-92.566-18.117-10.223-13.734-20.775-18.89-29.353-18.597"/><path d="M49.007 61.446c-18.081-.053-31.557 15.628-32.97 34.544a79.6 79.6 0 0 0 7.272 33.335c-4.987-23.549 22.064-41.709 47.256-7.912 36.589 49.09 72.484 40.446 92.574 18.117a80 80 0 0 0 12.126-32.402c-5.903 26.436-46.581 39.54-79.248-11.139-16.1-24.952-32.944-34.508-47.01-34.544" opacity=".8"/><path d="M66.52 30.76c-10.916.16-21.628 4.81-31.548 13.663l-.755.755a79.74 79.74 0 0 0-18.18 50.812c2.497-33.628 43.167-57.035 79.977 0 32.714 50.759 73.48 37.531 79.277 11.023l.035-.23a67.6 67.6 0 0 0 .613-10.934v-3.645c-7.04 8.774-29.023 19.262-54.527-21.735-16.9-27.166-36.196-39.984-54.892-39.709" opacity=".6"/><path d="M85.65 18.387c-5.894.027-12.126.995-21.797 4.534-9.673 3.555-20.926 11.69-29.637 22.268 27.033-24.89 60.155-18.171 87.196 25.29 25.503 40.998 47.488 30.508 54.528 21.744a80 80 0 0 0-2.934-18.028c-9.325 2.72-16.419 1.787-28.063-16.028-14.56-22.268-33.753-39.896-59.292-39.771" opacity=".4"/><path d="M144.95 58.158c11.654 17.841 18.757 18.748 28.09 16.019A80.093 80.093 0 0 0 66.93 21.462c35.157-11.086 60.092 9.29 78.013 36.695" opacity=".2"/></svg>