<svg xmlns="http://www.w3.org/2000/svg" width="192" height="192"><path d="M53.714 16a37.5 37.5 0 0 0-14.428 2.865 37.6 37.6 0 0 0-16.928 13.89 37.6 37.6 0 0 0-6.357 20.952 37.5 37.5 0 0 0 2.867 14.436 37.5 37.5 0 0 0 8.174 12.237 37.5 37.5 0 0 0 12.235 8.178 37.5 37.5 0 0 0 14.439 2.866 37.6 37.6 0 0 0 20.949-6.358 37.6 37.6 0 0 0 13.888-16.923 37.6 37.6 0 0 0 2.153-21.788 37.6 37.6 0 0 0-10.326-19.31 37.6 37.6 0 0 0-19.306-10.328 38 38 0 0 0-7.357-.716zm84.57 0a37.5 37.5 0 0 0-14.428 2.865 37.6 37.6 0 0 0-16.928 13.89 37.6 37.6 0 0 0-6.357 20.952 37.5 37.5 0 0 0 2.867 14.436 37.5 37.5 0 0 0 8.174 12.237 37.5 37.5 0 0 0 12.235 8.178 37.5 37.5 0 0 0 14.439 2.866 37.6 37.6 0 0 0 20.949-6.358 37.6 37.6 0 0 0 13.888-16.923 37.6 37.6 0 0 0 2.153-21.788 37.6 37.6 0 0 0-10.326-19.31 37.6 37.6 0 0 0-19.306-10.328 38 38 0 0 0-7.357-.716zm-8.888 22.355 8.888 8.884 8.888-8.884 6.469 6.457-8.898 8.894 8.898 8.885-6.47 6.476-8.887-8.894-8.898 8.884-6.459-6.466 8.888-8.885-8.888-8.894zM36.571 49.14h34.285v9.143H36.571zm101.7 51.426a37.5 37.5 0 0 0-14.428 2.875 37.6 37.6 0 0 0-16.918 13.89 37.6 37.6 0 0 0-6.357 20.952 37.5 37.5 0 0 0 2.878 14.426 37.5 37.5 0 0 0 8.173 12.237 37.5 37.5 0 0 0 12.235 8.178 37.62 37.62 0 0 0 35.377-3.502 37.6 37.6 0 0 0 13.888-16.913 37.57 37.57 0 0 0 2.143-21.788 37.6 37.6 0 0 0-10.316-19.31 37.6 37.6 0 0 0-19.316-10.318 38 38 0 0 0-7.357-.726zm-84.56.05a37.5 37.5 0 0 0-14.428 2.865 37.6 37.6 0 0 0-16.928 13.9 37.6 37.6 0 0 0-6.357 20.952 37.5 37.5 0 0 0 2.868 14.376 37.5 37.5 0 0 0 8.173 12.237 37.5 37.5 0 0 0 12.235 8.178A37.5 37.5 0 0 0 53.713 176a37.6 37.6 0 0 0 20.949-6.317A37.6 37.6 0 0 0 88.55 152.76a37.6 37.6 0 0 0 2.153-21.788 37.6 37.6 0 0 0-10.326-19.311 37.6 37.6 0 0 0-19.306-10.317 38 38 0 0 0-7.357-.726zM49.14 121.19h9.143v12.566h12.57v9.143h-12.57v12.575H49.14v-12.576H36.569v-9.143H49.14zm71.948 6.397h34.387v7.81h-34.387zm0 13.68h34.387v7.81h-34.387z"/></svg>