<svg xmlns="http://www.w3.org/2000/svg" width="192" height="192" viewBox="0 0 192 192"><path d="M157.6 34.4H34.4c-8.727 0-15.4 7.187-15.4 15.4v92.4c0 8.213 6.673 15.4 15.4 15.4h123.2c8.213 0 15.4-7.187 15.4-15.4V49.8c0-8.213-7.187-15.4-15.4-15.4m-53.9 32.34h46.2v11.807h-46.2zm-21.56 50.82c-4.62 4.62-11.293 7.187-18.993 7.187-11.293 0-21.047-6.674-25.667-15.913-2.053-4.107-3.08-8.727-3.08-13.347s1.027-8.727 3.08-12.833c4.62-9.24 14.373-15.913 25.667-15.913 7.7 0 14.373 3.08 19.507 7.7l-8.213 8.213c-3.08-3.08-7.187-4.62-11.293-4.62-7.187 0-13.86 5.133-15.913 12.32-1.027 1.54-1.027 3.593-1.027 5.133 0 2.054 0 4.107 1.027 5.647 2.053 7.187 8.726 11.807 15.913 11.807 4.106 0 7.186-1.027 9.753-2.567 3.593-2.053 5.133-5.133 6.16-8.726H63.148V90.355h27.207c.513 2.053.513 4.106.513 6.16 0 8.726-3.08 15.913-8.726 21.047zm67.76 7.187h-46.2V112.94h46.2zm7.7-23.1h-53.9V89.84h53.9z"/></svg>