<svg width="192" height="192" version="1.1" viewBox="0 0 192 192" xmlns="http://www.w3.org/2000/svg"><path d="m41.211 102.84c-12.534 0.42599-20.864 12.508-17.903 26.49 18.383 40.198 65.8 57.764 106 39.38a80.005 80.005 0 0 0 33.824-29.166c-20.09 22.322-55.985 30.953-92.566-18.117-10.223-13.734-20.775-18.89-29.353-18.597"/><path d="m49.007 61.446c-18.081-0.052999-31.557 15.628-32.97 34.544a79.56 79.56 0 0 0 7.2718 33.335c-4.9869-23.549 22.064-41.709 47.256-7.9118 36.589 49.089 72.484 40.446 92.574 18.117a80.005 80.005 0 0 0 12.126-32.402c-5.9029 26.436-46.581 39.54-79.248-11.139-16.1-24.952-32.944-34.508-47.009-34.544" opacity=".8"/><path d="m66.52 30.76c-10.916 0.16-21.628 4.8099-31.548 13.663l-0.75498 0.75498a79.738 79.738 0 0 0-18.18 50.812c2.4969-33.628 43.167-57.035 79.977 0 32.714 50.759 73.48 37.531 79.277 11.023l0.035-0.23a67.56 67.56 0 0 0 0.61299-10.934v-3.6449c-7.0399 8.7738-29.023 19.262-54.527-21.735-16.9-27.166-36.196-39.984-54.892-39.709" opacity=".6"/><path d="m85.65 18.387c-5.8939 0.027-12.126 0.99498-21.797 4.5339-9.6728 3.5549-20.926 11.69-29.637 22.268 27.033-24.89 60.155-18.171 87.196 25.29 25.503 40.998 47.488 30.508 54.528 21.744a80.005 80.005 0 0 0-2.9339-18.028c-9.3248 2.7199-16.419 1.787-28.063-16.028-14.561-22.268-33.753-39.896-59.292-39.771" opacity=".4"/><path d="m144.95 58.158c11.654 17.841 18.757 18.748 28.09 16.019a80.093 80.093 0 0 0-106.11-52.715c35.157-11.086 60.092 9.2898 78.013 36.695" opacity=".2"/></svg>
