<svg xmlns="http://www.w3.org/2000/svg" width="192" height="192"><path d="M100.06 16.181a79.85 79.85 0 0 0-37.315 7.152 79.8 79.8 0 0 0-29.773 23.593l22.021 38.15a42.48 42.48 0 0 1 41.005-31.499h67.689a79.81 79.81 0 0 0-63.625-37.396zM25.308 58.662a79.9 79.9 0 0 0-9.306 36.849 79.9 79.9 0 0 0 8.777 36.977 79.89 79.89 0 0 0 60.188 42.741l22.02-38.14a42.245 42.245 0 0 1-47.765-19.774l-.035.025zm100.8 7.412a42.4 42.4 0 0 1 12.041 24.488 42.4 42.4 0 0 1-5.373 26.753l.05.025-33.816 58.582a79.85 79.85 0 0 0 35.61-9.826c-2.046-3.909-3.086-8.375-3.086-13.173 0-7.735 2.68-14.588 7.898-19.61 4.288-4.128 9.751-6.491 15.851-7.235l4-.34c2.86 0 5.48.296 7.873.955q1.262.337 2.441.776a80 80 0 0 0 6.05-23.818 79.84 79.84 0 0 0-5.513-37.575zm-30.103.01c-16.568 0-29.999 13.43-29.999 29.999s13.431 29.999 29.999 29.999 29.999-13.431 29.999-30c0-16.567-13.431-29.998-29.999-29.998m63.277 63.654v.002q-10.371 0-17.076 6.455-6.674 6.421-6.674 16.728 0 10.121 6.518 16.576 6.548 6.423 17.076 6.423 4.104 0 7.27-.877 3.164-.909 5.388-2.32 2.225-1.44 3.29-3.32 1.065-1.911.909-3.572-.126-1.691-1.317-3.008-1.221-1.316-2.537-1.504a3.9 3.9 0 0 0-2.476.438q-1.159.626-2.6 1.441-1.41.784-3.26 1.348-1.848.533-4.355.533-5.483-.001-8.742-3.416-3.257-3.415-3.257-8.773 0-5.484 3.416-8.898 3.445-3.447 8.708-3.446 2.382 0 4.106.625 1.754.596 3.132 1.317 1.41.69 2.602 1.222 1.222.532 2.506.313 1.316-.22 2.601-1.66 1.254-1.41 1.285-3.258.063-1.849-1.16-3.478-1.19-1.63-3.385-2.946-2.193-1.347-5.138-2.13-2.946-.815-6.83-.815"/></svg>