<svg xmlns="http://www.w3.org/2000/svg" width="192" height="192" viewBox="0 0 192 192"><path d="M92.923 59.572 50.277 29.849c-4.061-2.83-9.661.062-9.661 5.046v76.892c0 8.062 3.938 15.6 10.522 20.185l41.785 29.138zm6.154 101.54 41.785-29.138a24.59 24.59 0 0 0 10.523-20.185V34.897c0-4.985-5.6-7.877-9.662-5.046L99.077 59.574zM47.63 137.02l37.6 26.246H40.616c-13.6 0-24.615-11.015-24.615-24.615V67.882c0-3.385 2.769-6.154 6.154-6.154h12.308v50.062a30.77 30.77 0 0 0 13.169 25.231zm109.91-25.231V61.727h12.308c3.384 0 6.154 2.77 6.154 6.154v70.769c0 13.6-11.015 24.615-24.615 24.615h-44.615l37.6-26.246a30.77 30.77 0 0 0 13.169-25.231z"/></svg>