<svg xmlns="http://www.w3.org/2000/svg" width="192" height="192" viewBox="0 0 192 192"><path d="M36 146.92h18.72q.16.64.264 1.544.112.912.112 1.816 0 3.68-1.12 6.936t-3.52 5.808q-2.56 2.72-6.136 4.216t-8.16 1.496q-4.16 0-7.84-1.496t-6.4-4.16-4.32-6.296q-1.6-3.68-1.6-8t1.6-7.944q1.6-3.68 4.32-6.344 2.72-2.672 6.4-4.16 3.68-1.496 7.84-1.496 4.64 0 8.264 1.6 3.68 1.6 6.296 4.424l-4.96 4.856q-1.864-1.976-4.16-2.984-2.296-1.072-5.496-1.072-2.608 0-4.96.96-2.344.912-4.104 2.616t-2.824 4.16q-1.016 2.4-1.016 5.384t1.016 5.44q1.064 2.4 2.824 4.112 1.816 1.704 4.16 2.664 2.344.904 5.016.904 3.04 0 5.12-.848 2.128-.912 3.624-2.296 1.064-.96 1.816-2.4.8-1.496 1.224-3.304H36zm43.144 21.816q-4.264 0-7.944-1.552-3.624-1.544-6.296-4.208-2.664-2.72-4.208-6.352-1.496-3.68-1.496-7.84T60.696 141q1.544-3.68 4.208-6.344 2.672-2.72 6.296-4.272 3.68-1.544 7.944-1.544 4.272 0 7.896 1.544 3.68 1.552 6.344 4.272 2.672 2.664 4.16 6.344 1.552 3.624 1.552 7.784t-1.552 7.84q-1.488 3.632-4.16 6.352-2.664 2.664-6.344 4.208-3.624 1.552-7.896 1.552m0-6.832q2.672 0 4.96-.96 2.352-.96 4.056-2.664 1.76-1.704 2.72-4.104 1.016-2.456 1.016-5.392t-1.016-5.328q-.96-2.456-2.72-4.16-1.704-1.712-4.056-2.672-2.288-.96-4.96-.96-2.664 0-5.008.96-2.296.96-4.056 2.672-1.704 1.704-2.72 4.16-.96 2.4-.96 5.328t.96 5.392q1.016 2.4 2.72 4.104 1.76 1.704 4.056 2.664 2.344.96 5.008.96M59.64 23.284A43.64 43.64 0 0 0 16 66.908a43.64 43.64 0 0 0 43.64 43.632 43.64 43.64 0 0 0 43.632-43.632 43.64 43.64 0 0 0-43.632-43.64M165.1 52.364a10.91 10.91 0 0 0-10.912 10.904A10.91 10.91 0 0 0 165.1 74.18a10.91 10.91 0 0 0 10.904-10.896 10.91 10.91 0 0 0-10.912-10.904m-32.72 14.544a21.816 21.816 0 0 0-21.824 21.816 21.816 21.816 0 0 0 21.824 21.816 21.816 21.816 0 0 0 21.816-21.816 21.816 21.816 0 0 0-21.816-21.816m0 50.904a25.44 25.44 0 0 0-25.456 25.456 25.44 25.44 0 0 0 25.456 25.456 25.44 25.44 0 0 0 25.448-25.456 25.44 25.44 0 0 0-25.448-25.456"/></svg>