<svg xmlns="http://www.w3.org/2000/svg" width="192" height="192" viewBox="0 0 192 192"><path d="M101.25 18.94c-22.795-.826-45.662 9.177-60.527 26.478-2.743 3.377-6.129 6.754-6.735 11.279-.977 5.649 2.139 11.673 7.307 14.149 1.962 1.055 4.126 1.775 6.372 1.817 4.488.191 8.981-2.023 11.564-5.697 9.774-13.589 26.853-21.427 43.53-19.976 9.784.75 19.306 4.528 26.945 10.688 4.805 4.015 12.392 3.945 17.127-.149 1.452-1.126 2.761-2.455 3.682-4.058 2.374-3.924 2.522-9.067.377-13.121-1.898-3.821-5.793-6.02-9.115-8.423-11.937-8.015-26.156-12.574-40.528-12.986zM32.56 79.335c-7.495.012-14.492 5.649-16.092 12.974-1.774 7.016 1.62 14.904 7.931 18.444 5.325 3.178 12.392 3.001 17.57-.385 4.388-2.777 7.326-7.686 7.7-12.864.717-7.682-4.537-15.43-12.017-17.477a16.9 16.9 0 0 0-5.092-.691zm53.683 2.954c-6.658.012-12.701 5.545-13.298 12.177-.873 6.6 3.809 13.325 10.303 14.797 1.73.502 3.514.387 5.284.401h57.654c-4.473 15.733-17.3 28.723-32.976 33.392-5.756 1.802-11.855 2.39-17.858 1.995-14.101-.944-27.591-8.362-35.943-19.764-3.784-5.533-11.761-7.493-17.678-4.344-6.04 2.908-9.179 10.5-6.956 16.822 1.25 3.804 4.238 6.665 6.712 9.687 15.341 17.319 38.802 26.987 61.893 25.506 23.105-1.208 45.286-13.534 58.514-32.517 9.165-12.933 14.168-28.751 14.106-44.603.008-6.199-4.701-11.975-10.773-13.22-1.886-.436-3.814-.309-5.73-.33H86.243z"/></svg>