<svg xmlns="http://www.w3.org/2000/svg" width="192" height="192" viewBox="0 0 192 192"><path d="M130.42 19.15c-4.582 0-8.719 2.467-10.962 6.247a76.4 76.4 0 0 0-27.22-5.02 76.5 76.5 0 0 0-38.115 10.192l-.005.003a76.6 76.6 0 0 0-27.92 27.92l-.003.005a76.5 76.5 0 0 0-10.193 38.116 76.5 76.5 0 0 0 10.193 38.115l.003.005a76.6 76.6 0 0 0 13.98 17.578 12.8 12.8 0 0 0-.666 4.09c0 6.893 5.612 12.685 12.727 12.685 3.17 0 6.081-1.181 8.312-3.125a76.45 76.45 0 0 0 31.688 6.889 76.5 76.5 0 0 0 38.115-10.193l.005-.003a76.6 76.6 0 0 0 27.92-27.92l.003-.005a77 77 0 0 0 3.015-5.8q.984.157 2.02.158c6.972 0 12.684-5.713 12.684-12.685 0-5.396-3.33-9.927-7.946-11.802.279-2.646.42-5.312.42-7.987a76.5 76.5 0 0 0-10.193-38.115l-.003-.005a76.6 76.6 0 0 0-16.946-20.21c1.151-1.977 1.772-4.216 1.772-6.405 0-7.27-5.962-12.728-12.684-12.728zm-38.182 5.708a71.9 71.9 0 0 1 25.656 4.74 13 13 0 0 0-.201 2.28c0 7.73 6.448 12.684 12.727 12.684 3.218 0 5.939-1.113 8.026-2.852a72.2 72.2 0 0 1 15.953 19.025 72 72 0 0 1 9.594 35.878 72 72 0 0 1-.35 7.066 12 12 0 0 0-.327-.004c-7.035 0-12.727 5.692-12.727 12.727 0 4.671 2.578 8.838 6.455 11.038a72 72 0 0 1-2.645 5.051 72.13 72.13 0 0 1-26.283 26.283 72 72 0 0 1-35.878 9.595 72 72 0 0 1-28.803-6.028 12.6 12.6 0 0 0 1.487-5.939c0-7.268-5.962-12.727-12.685-12.727a12.77 12.77 0 0 0-9.8 4.604 72 72 0 0 1-12.36-15.787 72 72 0 0 1-9.594-35.878 72 72 0 0 1 9.594-35.878A72.13 72.13 0 0 1 56.36 34.453a72 72 0 0 1 35.878-9.595M79.68 31.835c-7.036 0-12.727 5.693-12.727 12.727 0 .838.076 1.644.219 2.415q-1.386.7-2.736 1.48a55.7 55.7 0 0 0-20.353 20.354 55.6 55.6 0 0 0-7.447 27.845c0 4.053.443 8.084 1.313 12.018a12.7 12.7 0 0 0-4.653 9.843c0 6.892 5.612 12.685 12.727 12.685.84 0 1.66-.083 2.456-.24a55.7 55.7 0 0 0 15.957 13.85 55.6 55.6 0 0 0 29.732 7.415c2.218 3.643 6.229 6.12 10.882 6.12 6.827 0 12.446-5.475 12.678-12.248a55.67 55.67 0 0 0 22.708-21.64 55.6 55.6 0 0 0 7.447-27.804v-.042a55.6 55.6 0 0 0-7.446-27.803 55.7 55.7 0 0 0-20.353-20.354 55.6 55.6 0 0 0-28.219-7.445c-1.545-5.345-6.49-9.177-12.185-9.177zm12.653 13.658a51.1 51.1 0 0 1 25.506 6.845 51.2 51.2 0 0 1 18.716 18.717 51.1 51.1 0 0 1 6.845 25.56v.042a51.1 51.1 0 0 1-6.845 25.559 51.2 51.2 0 0 1-19.549 19.186c-1.762-4.971-6.517-8.467-11.957-8.467-7.035 0-12.727 5.692-12.727 12.727q.001 1.079.179 2.114h-.22a51.1 51.1 0 0 1-25.602-6.845 51.2 51.2 0 0 1-13.857-11.722c3.531-2.26 5.886-6.216 5.886-10.693 0-7.269-5.963-12.727-12.685-12.727-1.385 0-2.718.22-3.966.629a51 51 0 0 1-.94-9.762 51.13 51.13 0 0 1 6.846-25.602A51.2 51.2 0 0 1 68.79 51.182c2.363 3.822 6.664 6.065 10.888 6.065 5.893 0 12.157-4.497 12.653-11.755zm14.704 17.971a12.7 12.7 0 0 0-10.026 4.882 28.7 28.7 0 0 0-4.773-.4c-5.006 0-9.957 1.33-14.315 3.854a28.8 28.8 0 0 0-10.5 10.5 28.6 28.6 0 0 0-3.853 14.315c0 5.045 1.33 9.998 3.853 14.358a28.8 28.8 0 0 0 10.5 10.5 28.66 28.66 0 0 0 14.358 3.853c5.006 0 9.957-1.33 14.315-3.853a28.8 28.8 0 0 0 10.5-10.5 28.66 28.66 0 0 0 3.853-14.358c0-4.665-1.154-9.282-3.354-13.416a12.6 12.6 0 0 0 2.128-7.008c0-7.115-5.792-12.727-12.685-12.727zm-14.799 8.964q1.305 0 2.594.14a12.8 12.8 0 0 0-.522 3.623c0 6.893 5.612 12.685 12.727 12.685 2.684 0 5.18-.846 7.237-2.284a24.1 24.1 0 0 1 2.192 10.023c0 4.257-1.122 8.437-3.25 12.112a24.34 24.34 0 0 1-8.866 8.866 24.15 24.15 0 0 1-12.07 3.25 24.2 24.2 0 0 1-12.112-3.25 24.34 24.34 0 0 1-8.867-8.866 24.2 24.2 0 0 1-3.25-12.112c0-4.212 1.123-8.395 3.25-12.07a24.34 24.34 0 0 1 8.867-8.866 24.15 24.15 0 0 1 12.07-3.25z"/></svg>