<svg xmlns="http://www.w3.org/2000/svg" width="192" height="192"><path d="M27.532 16C21.181 16 16 21.18 16 27.532v7.833a2.16 2.16 0 0 0 2.162 2.162 2.16 2.16 0 0 0 2.162-2.162v-7.833c0-4.03 3.177-7.207 7.208-7.207h7.832a2.16 2.16 0 0 0 2.163-2.162A2.16 2.16 0 0 0 35.364 16zm129.1 0a2.16 2.16 0 0 0-2.162 2.162 2.16 2.16 0 0 0 2.162 2.162h7.833c4.03 0 7.207 3.177 7.207 7.208v7.832a2.16 2.16 0 0 0 2.162 2.163 2.16 2.16 0 0 0 2.163-2.163v-7.832c0-6.352-5.181-11.532-11.532-11.532zm-60.636 1.4a54.775 54.775 0 0 0-54.775 54.775 54.775 54.775 0 0 0 54.775 54.775 54.775 54.775 0 0 0 54.775-54.775A54.775 54.775 0 0 0 95.996 17.4m0 14.679a40.096 40.096 0 0 1 40.096 40.096 40.096 40.096 0 0 1-40.096 40.096A40.096 40.096 0 0 1 55.9 72.175a40.096 40.096 0 0 1 40.096-40.096m0 4.404a35.69 35.69 0 0 0-35.692 35.692 35.69 35.69 0 0 0 35.692 35.692 35.69 35.69 0 0 0 35.692-35.692 35.69 35.69 0 0 0-35.692-35.692m0 4.064a31.627 31.627 0 0 1 31.627 31.627 31.627 31.627 0 0 1-31.627 31.627 31.627 31.627 0 0 1-31.627-31.627 31.627 31.627 0 0 1 31.627-31.627m14.464 7.905a7.01 7.01 0 0 0-7.011 7.01 7.01 7.01 0 0 0 7.011 7.012 7.01 7.01 0 0 0 7.012-7.011 7.01 7.01 0 0 0-7.012-7.01m-14.464 9.259a14.464 14.464 0 0 0-14.464 14.464A14.464 14.464 0 0 0 95.996 86.64a14.464 14.464 0 0 0 14.464-14.464 14.464 14.464 0 0 0-14.464-14.464m21.588 10.522a2.7 2.7 0 0 0-2.7 2.7 2.7 2.7 0 0 0 2.7 2.7 2.7 2.7 0 0 0 2.7-2.7 2.7 2.7 0 0 0-2.7-2.7M59.107 127.39l35.567 42.57a1.527 1.056 0 0 0 2.645 0l35.567-42.57-34.484 10.913a5.777 3.992 0 0 1-4.81 0zm-40.949 27.084a2.16 2.16 0 0 0-2.162 2.162v7.833c0 6.351 5.18 11.532 11.532 11.532h7.833a2.16 2.16 0 0 0 2.162-2.162 2.16 2.16 0 0 0-2.162-2.162h-7.833c-4.03 0-7.207-3.177-7.207-7.207v-7.833a2.16 2.16 0 0 0-2.163-2.163m155.68 0a2.16 2.16 0 0 0-2.162 2.162v7.833c0 4.03-3.177 7.207-7.207 7.207h-7.833a2.16 2.16 0 0 0-2.162 2.163 2.16 2.16 0 0 0 2.162 2.162h7.833c6.35 0 11.532-5.18 11.532-11.532v-7.833a2.16 2.16 0 0 0-2.163-2.162"/></svg>