<svg xmlns="http://www.w3.org/2000/svg" width="192" height="192" viewBox="0 0 192 192"><path d="M102.65 23.21c-12.639-.03-25.263 3.325-36.22 9.624-11.369 6.494-20.922 16.125-27.304 27.559a72.15 72.15 0 0 0-9.108 31.247c-3.287.002-6.573-.004-9.86.003-1.66.042-3.224 1.144-3.835 2.685-.638 1.519-.3 3.385.838 4.578.857.936 2.138 1.44 3.402 1.378h9.43c.683 11.999 4.356 23.83 10.72 34.034 7.769 12.55 19.478 22.584 33.016 28.445 11.915 5.2 25.248 7.131 38.142 5.417 14.177-1.854 27.777-7.962 38.533-17.39 10.124-8.822 17.718-20.506 21.66-33.343a72.6 72.6 0 0 0 2.403-10.483c.718-4.716 2.206-10.71 1.198-12.823-.637-1.427-2.103-2.438-3.669-2.496-2.037-.014-4.074-.002-6.111-.006H38.665c.544-8.154 2.638-16.207 6.207-23.562 5.059-10.523 13.072-19.595 22.88-25.926 9.724-6.318 21.19-9.913 32.78-10.265.943-.07 1.896.041 2.834-.092 1.67-.257 3.104-1.59 3.487-3.235.392-1.54-.157-3.269-1.37-4.296a4.3 4.3 0 0 0-2.83-1.054zm-64.004 77.074h127.9c-.712 11.258-4.472 22.306-10.801 31.646-7.1 10.552-17.411 18.907-29.217 23.643-12.953 5.248-27.637 6.046-41.094 2.294-11.944-3.294-22.855-10.176-31.014-19.496-7.698-8.739-12.935-19.62-14.931-31.095a65 65 0 0 1-.84-6.991z"/></svg>