<svg xmlns="http://www.w3.org/2000/svg" width="192" height="192" viewBox="0 0 192 192"><path d="M170.19 88.416a19.5 19.5 0 0 0-13.86-5.813c-3.8 0-7.607 1.413-9.7 2.806-4.34 2.894-7.907 6.027-14.327 14.32v5.96c5.447-7.093 10.6-12.687 14.513-15.76 2.573-2.066 6.22-3.34 9.513-3.34 8.5 0 15.68 7.18 15.68 15.68v3.587c0 4.2-1.646 8.153-4.653 11.12a15.6 15.6 0 0 1-11.027 4.567c-6.987 0-13.133-4.794-14.8-11.34l-2.813 3.4c2.046 6.866 9.446 11.927 17.613 11.927 5.186 0 10.107-2.067 13.86-5.814 3.746-3.746 5.806-8.666 5.806-13.86v-3.586c0-5.187-2.066-10.113-5.806-13.853M84.856 86.59c2.706 0 5.046.58 7.16 1.773.993-1.24 1.993-2.246 2.74-2.993-2.234-1.707-6.02-2.767-9.9-2.767-5.534 0-10.56 2-14.147 5.62-3.56 3.6-5.534 8.58-5.534 14.047v23.26h3.987v-23.267c0-9.233 6.453-15.68 15.693-15.68m37.853 38.933v-23.253c0-7.146-5.6-12.753-12.753-12.753-3.333 0-6.507 1.354-8.953 3.8a12.63 12.63 0 0 0-3.8 8.954v3.586c0 6.914 5.846 12.753 12.753 12.753 1.9 0 4.473-.466 6.053-1.76v-4.206c-1.547 1.246-3.8 1.986-6.053 1.986a8.68 8.68 0 0 1-8.767-8.773v-3.587a8.667 8.667 0 0 1 8.767-8.76 8.667 8.667 0 0 1 8.773 8.76v23.26zM15.998 99.97v1.287c0 6.907 2.62 13.353 7.38 18.147a25.06 25.06 0 0 0 17.927 7.413c5.467 0 10.32-1.24 14.413-3.673 3.373-2.013 4.867-4.047 5-4.233V97.463H40.331v3.98h16.4v16.227l-.013.013c-1.92 1.92-6.48 5.133-15.413 5.133a21.1 21.1 0 0 1-15.193-6.253 21.65 21.65 0 0 1-6.134-15.313v-1.287c0-5.533 2.5-11.04 6.84-15.127a23.72 23.72 0 0 1 16.28-6.446c5.647 0 9.587.86 12.753 2.773v-4.467c-3.293-1.4-7.233-2.033-12.753-2.033-14.687 0-27.1 11.587-27.1 25.3m68.86-6.453c1.507 0 2.794.246 3.807.746.5-1.24 1.007-2.26 1.747-3.5-1.08-.773-3.66-1.24-5.553-1.24-7.267 0-12.753 5.487-12.753 12.753v23.26h3.986v-23.267c0-5.16 3.6-8.76 8.767-8.76m-29.007-4.68V84.11c-3.607-1.933-7.54-2.793-12.753-2.793-5.327 0-10.367 1.953-14.213 5.493-3.847 3.547-5.967 8.22-5.967 13.147v1.287c0 10.28 8.247 18.64 18.387 18.64 8.247 0 11.633-2.7 12.493-3.554v-11.96H40.332v3.987h9.734v5.993l-.034.007c-1.246.5-3.853 1.54-8.733 1.54-3.867 0-7.48-1.5-10.187-4.24a14.7 14.7 0 0 1-4.213-10.414v-1.286c0-7.947 7.42-14.653 16.2-14.653 6.066 0 9.666.98 12.753 3.52m94.033 7.506c1.8-1.8 4.153-2.826 6.446-2.826 4.914 0 8.767 3.846 8.767 8.76v3.586c0 4.92-3.853 8.774-8.767 8.774-2.38 0-4.68-1.307-6.48-3.667a14.34 14.34 0 0 1-2.786-7.467l-3.227 3.94c.633 3.014 2.2 5.9 4.433 7.934 2.294 2.086 5.16 3.24 8.06 3.24a12.767 12.767 0 0 0 12.753-12.753v-3.587c0-3.327-1.346-6.513-3.8-8.953a12.64 12.64 0 0 0-8.953-3.8c-2.107 0-5.453.76-9.447 4.346l-.013.014c-1.067 1.066-3.573 3.573-5.1 5.36-2.56 2.8-6.287 7.026-9.467 11.253v6.22c3.527-4.534 5.554-7.067 8.867-10.893 2.967-3.46 6.64-7.667 8.713-9.48m-59.593 9.52c0 5.193 2.067 10.113 5.814 13.867a19.53 19.53 0 0 0 13.853 5.8c2.2 0 4.46-.467 6.053-1.254v-3.98c-1.867.78-4.12 1.254-6.053 1.254-8.494 0-15.68-7.18-15.68-15.687v-3.587c0-8.5 7.186-15.68 15.68-15.68a15.6 15.6 0 0 1 15.687 15.687v23.253h3.986v-24.027a19.86 19.86 0 0 0-6.1-13.373 19.47 19.47 0 0 0-13.573-5.533c-5.186 0-10.107 2.066-13.853 5.82a19.5 19.5 0 0 0-5.813 13.853zm46.12-15.42c1.22-1.467 2.48-2.954 3.974-4.207v-21.04h-3.974zm6.914-5.84V65.183h3.98v16.68a24 24 0 0 0-3.98 2.733"/></svg>