<svg width="192" height="192" fill="none" xmlns="http://www.w3.org/2000/svg"><path d="M52 28a6 6 0 0 1 6-6h76a6 6 0 0 1 6 6v136a6 6 0 0 1-6 6H58a6 6 0 0 1-6-6V28Z" stroke="#000" stroke-width="12" stroke-linecap="round" stroke-linejoin="round"/><path d="M71 103h6v6h-6v-6Zm0 22h6v6h-6v-6Zm0 22h6v6h-6v-6Zm22-44h6v6h-6v-6Zm0 22h6v6h-6v-6Zm0 22h6v6h-6v-6Zm22-44h6v6h-6v-6Zm0 22h6v6h-6v-6Zm0 22h6v6h-6v-6Z" stroke="#000" stroke-width="6" stroke-linecap="round" stroke-linejoin="round"/><path d="M52 86h88" stroke="#000" stroke-width="12" stroke-linecap="round" stroke-linejoin="round"/><path d="M96 22v64m-45-1c21 0 29-43 45-43s24 43 45 43" stroke="#000" stroke-width="10" stroke-linecap="round" stroke-linejoin="round"/></svg>