<svg xmlns="http://www.w3.org/2000/svg" width="192" height="192" viewBox="0 0 192 192"><path d="M167.64 19.08a5.777 5.777 0 0 0-6.655 4.739s-3.969 23.385-9.404 48.118c-2.718 12.366-5.806 25.078-8.899 35.208-1.546 5.065-3.105 9.494-4.546 12.821a34 34 0 0 1-.876 1.842 22.95 22.95 0 0 0-11.231-2.927 22.96 22.96 0 0 0-12.241 3.536c-3.035-4.357-6.204-10.473-8.557-15.97-3.206-7.487-5.185-13.757-5.185-13.757l-.03-.118c-4.112-12.218-8.533-20.884-11.988-26.562a73 73 0 0 0-3.655-5.467 23 23 0 0 0 2.006-9.404c0-12.738-10.452-23.19-23.19-23.19s-23.19 10.452-23.19 23.19a23 23 0 0 0 3.773 12.613c-1.337 1.947-2.376 4.137-3.446 6.685-1.636 3.895-3.168 8.537-4.65 13.727-2.964 10.38-5.71 22.914-8.082 35.075-4.742 24.32-7.978 47.167-7.978 47.167a5.777 5.777 0 0 0 4.918 6.536 5.777 5.777 0 0 0 6.536-4.917s3.189-22.62 7.859-46.573c2.335-11.977 5.054-24.285 7.859-34.109 1.402-4.912 2.836-9.21 4.19-12.434a31 31 0 0 1 1.574-3.194 22.94 22.94 0 0 0 10.637 2.615c5.07 0 9.776-1.659 13.608-4.457.423.648.872 1.34 1.367 2.154 3.013 4.953 7.06 12.815 10.904 24.23.03.096 2.116 6.737 5.54 14.737 2.834 6.618 6.363 14.122 11.054 20.026a22.95 22.95 0 0 0-2.823 11.053c0 12.738 10.452 23.19 23.19 23.19s23.19-10.452 23.19-23.19c0-4.321-1.196-8.378-3.283-11.855 1.021-1.683 1.891-3.545 2.808-5.66 1.715-3.96 3.366-8.715 4.991-14.04 3.251-10.647 6.382-23.562 9.137-36.1 5.51-25.073 9.493-48.682 9.493-48.682a5.777 5.777 0 0 0-4.724-6.655z"/></svg>