<svg width="192" height="192" fill="none" xmlns="http://www.w3.org/2000/svg"><path d="M24.734 116C33.46 147.153 62.061 170 96 170c40.869 0 74-33.131 74-74 0-40.87-33.131-74-74-74-26.976 0-50.58 14.434-63.511 36" stroke="#000" stroke-width="12" stroke-linecap="round" stroke-linejoin="round"/><path d="M88 166v-64a6 6 0 0 0-6-6H70a6 6 0 0 1-6-6V74a6 6 0 0 1 6-6h40a6 6 0 0 1 6 6v87" stroke="#000" stroke-width="10" stroke-linecap="round" stroke-linejoin="round"/><circle cx="94" cy="74" r="4" stroke="#000" stroke-width="8" stroke-linecap="round" stroke-linejoin="round"/><path d="M42 98c-15 0-21-16-21-16 12 2 12-4 22-4s14 7 21 11c0 0-7 9-22 9Zm92-30 8 8-8 8 8 8-8 8 8 8-8 8 8 8-8 8 13 13" stroke="#000" stroke-width="10" stroke-linecap="round" stroke-linejoin="round"/></svg>