<svg xmlns="http://www.w3.org/2000/svg" width="192" height="192" viewBox="0 0 192 192"><path d="m176 19.202-22.012 22.031v-.066l-76.199 76.63 53.193-39.309c2.608-1.927 6.332-1.184 7.575 1.81 6.54 15.787 3.617 34.766-9.394 47.793-13.01 13.026-31.105 15.88-47.652 9.374l-18.084 8.382c25.926 17.742 57.416 13.354 77.09-6.357 15.604-15.624 20.437-36.923 15.917-56.127l.038.038c-6.554-28.212 1.613-39.49 18.337-62.55.395-.546.794-1.089 1.19-1.65zm-76.208 17.99c-15.836-.404-31.832 5.455-43.902 17.531-16.888 16.908-22.198 42.914-13.078 65.099 6.813 16.58-4.35 28.305-15.6 40.143-3.987 4.196-7.99 8.392-11.212 12.834l50.802-45.44.019-.01c-18.61-17.797-15.41-45.344.468-61.227 11.741-11.755 30.982-16.55 47.774-9.497l18.037-8.334c-3.249-2.35-7.418-4.879-12.197-6.656a59.4 59.4 0 0 0-21.112-4.443z"/></svg>