<svg xmlns="http://www.w3.org/2000/svg" width="192" height="192" viewBox="0 0 192 192"><path d="m93.864 89.59-6.512 1.296v17.328c0 6.24 3.216 9.728 9 9.728 2.368 0 4.432-.672 6.032-2.024a13.6 13.6 0 0 1-1.336-3.44 6.4 6.4 0 0 1-1.968.296c-3.44 0-5.216-1.92-5.216-5.896v-7.016h6.696v-4.864h-6.696zm71.392 0-6.552 1.304v26.24h6.56zm-21.248 4.48c-7.936 0-12.648 5.176-12.648 11.68 0 7.136 5.328 12.08 13.6 12.08 3.832 0 7.472-1.184 9.768-2.88v-5.048a14.16 14.16 0 0 1-8.272 2.64c-4.864 0-7.888-2.024-8.616-5.44h17.656v-2.368c0-6.592-4.024-10.656-11.488-10.656zm.144 5.064c3.488 0 5.52 1.648 5.824 4.52h-12.08c.592-2.68 2.736-4.52 6.256-4.52m-112.05-5.048c-3.648 0-6.144 1.728-7.488 5.584v-4.664h-6.44v22.136h6.48v-11.44c0-3.648 1.68-6.136 4.592-6.136 2.688 0 4.104 1.952 4.104 4.936v12.64h6.48v-12.096c0-3.224 1.52-5.48 4.512-5.48 2.76 0 4.144 1.992 4.144 5.48v12.096h6.52v-13.48c0-6.128-2.84-9.576-8-9.576-3.872 0-6.4 1.76-7.696 5.48-1.04-3.488-3.552-5.48-7.2-5.48zm27.16.92v13.216c0 6.248 3.216 9.728 9 9.728 3.84 0 6.896-1.776 8.392-5.328v4.52h6.512V95.006h-6.512v11.568c0 3.84-2.08 6.224-5.672 6.224-3.44 0-5.208-1.92-5.208-5.904V95.006zm45.112 0v13.216c0 6.248 3.216 9.728 9.008 9.728 3.824 0 6.888-1.776 8.384-5.328v4.52h6.52V95.006h-6.52v11.568c0 3.84-2.072 6.224-5.664 6.224-3.448 0-5.216-1.92-5.216-5.904V95.006zm20.992 29.944a800 800 0 0 0-19.56.096c-22.056.376-55.28 1.832-88.288 6.584a1.8 1.8 0 0 0-1.52 1.776 1.808 1.808 0 0 0 2.032 1.776c32.816-4.736 65.88-6.16 87.84-6.544 26.36-.456 51.752.4 67.952 2.296a1.808 1.808 0 0 0 2.176-1.76 1.81 1.81 0 0 0-1.76-1.8l-.016-.016c-12.264-1.424-29.72-2.272-48.848-2.408zM26.414 56.806c-6.128 0-10.416 4.976-10.416 11.416 0 6.856 4.824 11.8 10.76 11.8 4.48 0 7.816-2.64 9.376-6.28v2.56c0 5.36-3.216 8.736-9.16 8.736-3.52 0-6.4-1.04-8.768-3.104v2.368c2.256 1.952 5.44 2.912 8.848 2.912 6.664 0 11.376-3.952 11.376-10.696V57.31h-2.296v6.136a10.08 10.08 0 0 0-9.712-6.64zm.72 2.192c5.36 0 9.04 4.152 9.04 9.432s-3.52 9.416-8.848 9.416c-5.48 0-9-4.176-9-9.544 0-5.248 3.44-9.296 8.808-9.296zm38.736-2.192c-6.744 0-11.496 5.056-11.496 11.568S59.126 80.03 65.87 80.03s11.456-5.136 11.456-11.648-4.68-11.576-11.456-11.576m0 2.192c5.448 0 9.04 4.024 9.04 9.392s-3.6 9.44-9.04 9.44-9.04-4.144-9.04-9.464c0-5.312 3.584-9.36 9.04-9.36zm50.68-2.192c-4.864 0-8.424 2.904-9.808 6.856v-6.36h-2.336v29.904l2.336-.464v-13.2c1.536 3.76 4.904 6.48 9.464 6.48 5.944 0 10.768-4.936 10.768-11.8 0-6.44-4.288-11.416-10.424-11.416m-.72 2.192c5.408 0 8.816 4.064 8.816 9.312 0 5.352-3.52 9.52-9 9.52-5.336 0-8.856-4.176-8.856-9.424s3.64-9.408 9.04-9.408m25.056-2.184c-6.936 0-11.04 5.056-11.04 11.456 0 6.88 4.608 11.76 11.616 11.76 3.44 0 6.512-1.16 8.584-2.88v-2.264a12.8 12.8 0 0 1-8.24 2.96c-5.896 0-9.496-3.832-9.536-9.536v-.192l18.424-.016v-1.48c0-5.936-3.56-9.808-9.808-9.808m-.12 2.184c4.984 0 7.6 2.96 7.664 7.304h-16.056c.616-4.288 3.56-7.304 8.4-7.304zM51.67 57.23c-3.064 0-5.4 2-6.4 5.6v-5.52h-2.36v22.128h2.368V66.886c.04-4.44 2.448-7.4 6.016-7.4 1.336 0 2.336.296 3.136.88v-2.36a4.8 4.8 0 0 0-2.76-.768zm28.912.08v12.984c0 6.136 3.144 9.736 8.816 9.736 3.944 0 7.008-2.224 8.272-6.224v5.632h2.336V57.31H97.67l.008 12.144c0 4.784-2.832 8.384-7.624 8.384-4.672 0-7.128-2.84-7.128-7.848V57.31z"/></svg>