<svg xmlns="http://www.w3.org/2000/svg" width="192" height="192" viewBox="0 0 192 192"><path d="M107.94 147.06c-.08-.904 0-10.801 0-14.722-.064-.624 1.016-2.048 1.296-2.6-.168-.16-.32-.336-.68-.736q-.607.635-1.28 1.2a48 48 0 0 0-2.096-1.84c-1.144 1.232-2.369 2.184-4.377 4.296-.184-1.424-.832-3.008-2.288-3.04-.296 1.064-2.289 2.648-3.297 3.2q.22.385.48.744c.216-.104 1.569-.96 1.537-.36.056 1.792.184 15.122-.52 16.002.136.296 1.76 1.728 2.216 2.129a20 20 0 0 0 2.456-2.209c-.832-1.36-.488-12.162-.464-14.242.696-.768 1.68-1.664 2.224-2.176.6-.456 1.297.376 1.273 1.352l.048 12.642c.024.816-.144 3.697 1.44 4.705.288-.256 3.04-2.96 3.632-3.537-.128-.208-.472-.648-.584-.8-.52.272-.904.48-1.032.008zm-50.806 6.225c-.216 0-.392.072-.456-.312V136.57c.144-.48.984-1.584.928-1.656.192-.48-.696-.92-.744-.92a3.52 3.52 0 0 1-1.832 1.64c-1.6.528-4.129-.76-5.48-1.56-.201.24-.225 2.368-3.313 2.784q-.061.69-.24 1.36a4 4 0 0 1 1.088 1.176 5.6 5.6 0 0 1 1.04 2.777 11.2 11.2 0 0 1-.024 2.336c-.296.36-.568.56-.872 1a10.4 10.4 0 0 0-1.12 2.184c-1.136 3.089-1.016 7.177.928 10.001a4.8 4.8 0 0 0 1.936 1.52c.92-.928 1.808-1.88 2.736-2.8.312-.416.64-.72 1.048-1.2 0-.032 1.52 2.024 2.769 2.224.96-.984 2.216-2.824 3.064-3.856-.176-.216-.4-.544-.568-.752a2.4 2.4 0 0 1-.88.464zm-6.489 1.512c-.192 0-2.664-.336-1.688-9.201 1.12.448 2.208.904 3.336 1.352-.08 2.616.368 6.76-1.64 7.857zm1.656-9.441a24 24 0 0 1-2.936-1.056c0-.624.456-3.04-1.328-5.393 1.64.312 4.248.864 4.272.888zm78.41-8.801c.296.424 1.577 2.032 1.857 2.408.432-.336 2.296-1.896 2.736-2.264-.072-.16-2.672-4.369-2.672-4.4-1.032.76-2.92 2.031-2.945 2.071-.752-.824-2.16-2.336-2.368-2.528a128 128 0 0 1-3.16 2.192c.152.2.336.504.496.696q.414-.167.856-.24c.616.176.64 2.88.64 4.105a64 64 0 0 1-.504 8.721c-.232 1.016-.24 2.12-.72 3.04.68.769 3.536 3.313 4.08 3.721.56-.376 3.385-2.368 3.953-3.008l-.76-1.073c-.128.096-.72.56-1.145.44-.616-.208-.72-.4-1.016-.856-1.312-2.032-1.424-8.08-.528-10.8.28-.849.448-1.545 1.2-2.24zm-9.68-4.633c-.113-.056-.16.16-.417-.144-.392-.432-8.721-9.441-9.521-10.24l-.024 5.008c.584.536 3.856 4.48 3.88 4.496l-3.416 2.729.144 10.48c0 1.297-.08 3.721-.64 4.401 2.616.536 4.865 2.88 5.92 4.137a24 24 0 0 1 4.945-2.84v-16.723a3.6 3.6 0 0 1 .816-1.472c-.184-.232-.344-.384-.56-.696-.288.176-.544.664-1.144.864zm-2.673 17.202c-.432-.36-.6-.528-.968-.8a16 16 0 0 0-2.553-1.576v-12.002s.8-1.2 1.12-1.64c.809.824 1.753 1.824 2.409 2.592v13.442zm18.482-12.482c.12 1.992.376 7.681.376 8.561.048.992.072 6.345-1.312 8.241.64.544 4.488 3.857 4.8 4.185.72-.536 3.257-2.929 4.249-3.873a8 8 0 0 0-.528-.752c-.848.52-2.033 1.808-3.169 1.592-.744-.344-.824-2.08-.856-2.536v-5.073c.064-.136 4.377-3.384 5.857-5.2-.376-.968-4.369-7.77-4.753-8.241-.672.456-3.672 2.44-4.656 3.12zm3.328 8.241.064-6.425c.456.544 2.793 4.185 2.817 4.209a64 64 0 0 1-2.889 2.216zm15.602-3.96c-.296-.32-2.768-2.849-3.696-3.769-1.155 1.555-5.125.487-4.777 1.648q.466.741.808 1.545c.288.512 1.169 3.224 1.136 4.184 0 .272.04.424.04.696l-.68.464a5.2 5.2 0 0 0-1.488 1.952c-1.44 3.36-1.296 10.081 1.584 12.882.552-.584 3.72-3.2 4.12-3.592.035.733.137 1.462.305 2.176.352.968.544 1.44 1.792 2.257l2.624-2.553c.024-.024-.384-.48-.496-.672-.192.096-.28.16-.448.24s-.48.16-.496-.272v-14.882c0-.976 1.512-1.712 1.624-2.32a1.1 1.1 0 0 0-.032-.464 1.04 1.04 0 0 0-.24-.4c-.536.28-1.224.656-1.712.872zm-4.056 14.482a1.6 1.6 0 0 1-.92.88c-.68-.488-.968-1.016-1.249-1.96-.704-2.393-.208-5.585.457-7.105.944.68 1.928 1.864 2.648 2.56.064 2.128-.096 3.96-.952 5.625zm1.016-7.61c-.816-.703-1.44-1.576-2.208-2.336a20 20 0 0 0-.937-5.072c1.145.648 2.313 1.864 3.169 2.632.024 1.656 0 3.152 0 4.76zm19.042-2.984c.36-1.256.336-3.224-.304-4.112a1.2 1.2 0 0 0-1.352-.376c-1.273.496.4 3.648-.44 4.696-.68.72-1.497.704-2.257.248-1.168-.584-3.352-3.616-3.456-3.752-1.352.8-2.688 1.48-4.097 2.304v8.081c.312.472 2.473 3.192 3.08 3.953-.535.88-3.936 6.088-4.32 6.68.52.449 1.352 1.12 1.384 1.145.624-.777 1.729-1.56 3.04-.92 1.601.784 3.13 3.72 3.153 3.72a6.08 6.08 0 0 1 4.193-1.416c.264-3.665.744-7.93-.872-10.961-.416-.68-.889-1.352-1.729-1.6.424-.577 1.016-1.553 1.353-2.033.528-.56 2.144-3.48 2.664-5.68zm-4.609 18.162c-.336-.288-1.976-2.8-4.752-2.872.768-1.2 2.976-4.593 3.24-5.105 2.608.56 1.88 5.609 1.544 7.985zm-2.368-9.761a32 32 0 0 1-1.688-2.136v-5.209c1.168 1.432 2.984 2.776 4.544 2.704-.56.968-2.856 4.64-2.856 4.64m-125.62-11.2a16 16 0 0 0-2.176-1.048c-.336-.152-.544-.232-.992-.408l3.368-8.977c-.44-.256-1.432-.929-1.552-.977-.168.336-.408.857-.616 1.24-.064.057-1.585-1.12-1.897-1.328a144 144 0 0 1-6.112-4.512q-.754.754-1.4 1.6a24 24 0 0 0-2.609 4.28 24 24 0 0 0-1.04 3.281l-.304 2.04c0 .512-.024.776-.032 1.096a3.6 3.6 0 0 0-1.08 1.217 10.4 10.4 0 0 0-.896 2.24c-1.36 4.152.216 8.4 2.84 10 .772.429 1.594.757 2.449.977q1.112.19 2.24.224a2.96 2.96 0 0 1-1.008 1.76c-.76.456-2.32-.536-3.529-.248-2.08.48-3.56 2.216-4.224 4.4-1.096 3.593.64 8.482 5.12 7.49 1.697-.384 2.785-1.353 4.025-2.265.36-.28 1.152-1.016 1.176-1.016l4.529 3.745c.792-.632 2.688-2.769 3.296-3.473q.9-1.02 1.68-2.136a27.2 27.2 0 0 0 3.745-7.401c.696-2.168.672-5.105-.304-7.033-.896-2.12-2.849-3.616-4.713-4.768zm-11.201 20.643c-1.072.784-3.76 2.28-4.737.536a4.32 4.32 0 0 1 .024-3.528c1.169-2 3.6.112 4.777.936.4.28.68.592 1.104.944a8 8 0 0 1-1.184 1.12zm.744-27.764a13.6 13.6 0 0 1 .96-2.408c.728.464 5.145 3.632 5.673 3.976-.48 1.424-.96 2.64-1.464 3.945-3.6 0-6.113-1.689-5.177-5.505zm-3.44 9.601a19 19 0 0 1-.448-3.672c1.2 2.976 2.568 5.56 6.76 5.536-.255.808-.52 1.337-.8 2.033-3.008-.144-4.616-1.689-5.52-3.889zm9.52 12.482q-.311.468-.655.912c-.896-.48-2.745-1.576-3.969-2.168.44-1.016.68-1.56 1.056-2.488 5.895-.238 4.03 3.07 3.585 3.752zm3.49 1.48c-.305.48-.68 1.016-1.049 1.585a8 8 0 0 1-1.104-.777c.48-.704.928-1.328 1.28-1.904 1.36-2.176 2.689-5.648.056-7.505a8 8 0 0 0-1.776-.896 13.6 13.6 0 0 0-3.04-.496c.336-.832.528-1.256.792-2.032 8.251.569 7.093 6.448 7.003 6.886-.41 2.006-1.24 3.734-2.163 5.14zm33.395-8.745c-.08-.904.048-10.88.048-14.802-.064-.632 1.016-2.4 1.313-2.944a8 8 0 0 0-.84-.6q-.621.697-1.185 1.44c-.544-.424-1.456-1.008-2.24-1.68a161 161 0 0 0-4.2 4.32c-.185-1.416-1.193-2.816-2.337-2.984-.4 1.032-2.224 2.704-3.224 3.264q.166.357.368.696c.208-.104 1.688-.92 1.664-.336.064 1.785.384 14.962-.336 15.842.136.288 2 1.625 2.464 2.033a19 19 0 0 0 2.4-2.105c-1.12-1.544-.864-12.162-.84-14.162a56 56 0 0 1 2.225-2.272c.592-.456 1.288.384 1.28 1.352v12.722c.016.816.184 3.32 2.08 3.985.288-.24 2.608-2.809 3.2-3.385-.135-.216-.455-.552-.575-.712-.513.344-1.16 1.016-1.257.376zm21.563-2.576s-.592.568-.608-.224v-24.483c.112-.56 1.424-2.032 1.904-2.568a.8.8 0 0 0-.184-.344.8.8 0 0 0-.336-.217l-3.488 2.985c-1.648-.928-5.297-3.04-8.881-1.496-3.265 1.216-6.729 5.456-6.505 12.882.024.48.216 3.504 1.568 5.76.208.336 1.4 1.68 1.352 1.713-2.752 4.248-2.984 5.256-3.52 6.88-.36 1.12-.616 2.92.064 3.929.432.856 3.096 1.704 2.744-1.28-.048-.24-.496-2.825 1.905-2.12 2.384.584 4.968 2.728 5.344 3.064l3.609-3.673c.736 1.6 2.224 4.305 4.544 2.625.777-.56 2.063-2.49 2.225-3.385.065-.403-.373-1.558-1.736-.048zm-15.162-12.026c-.68-3.537.48-7.305 2.297-8.881.435-.395.94-.707 1.488-.92.28-.08 2.032-.776 4.608.4l-.824 1.456c-.64-.12-1.2-.344-2.112-.224-1.552.336-2.256 1.184-2.768 2.392a6.4 6.4 0 0 0-.44 2.737c.432-.608 1.104-2 2.864-1.985q.455.09.896.232l-4.705 8.153c-.672-.84-1.072-2.432-1.32-3.384zm10.001 11.28c-.68.921-1.928 1.953-3.288 1.521-1.168-.368-2.216-1.096-3.297-1.56a24 24 0 0 0-1.944-.736l1.872-3.72c2.24-.177 4.49-.44 6.73-.617 0 .632-.073 4.425-.073 5.137zm.104-8.16c-.57.032-4.991.455-5.456.496l5.504-10.169-.04 9.681zm44.086-118.42v7.04h-3.264a9.6 9.6 0 0 0-3.416.697 7.2 7.2 0 0 0-2.08 1.28 8 8 0 0 0-.96-.704 8.8 8.8 0 0 0-4.386-1.24l-32.564-.016a9.6 9.6 0 0 0-3.408.696c-.722.3-1.396.704-2 1.2a8.4 8.4 0 0 0-5.417-1.92H42.056c-3.68 0-7.633 2.744-7.633 6.833v36.645h18.642q.607.006 1.208-.08v8.96h2.169V91.76a6.4 6.4 0 0 0 1.016 3.544c-1.563 0-4.118.334-6.01 2.233a6.4 6.4 0 0 0-1.855 4.616v21.043c0 2.793 1.544 5.017 4.224 6.081a8 8 0 0 0 1.44.448c-.2.768-.424 1.392-.888 1.64l-.112.04c-.191.059-.392.08-.592.064l-.16-.024a4.8 4.8 0 0 1-1.232-.456 330 330 0 0 1-4.865-2.528v.032l-.032-.016c-.28 2.136-.376 3.488-1.296 4.104-.56.353-1.4.449-2.752.297v.032h-.04l-1.368 6.048c-.32-.184-.8-.368-1.12-.528l3.28-8.72-7.01-4.545-.52.904-7.624-5.489-1.2.92c-.216.16-3.233 2.512-5.441 6.32-1.934 3.276-2.297 6.386-2.288 8.298-1.693 1.795-2.872 5.034-2.937 8.681 0 .608.024 1.416.144 2.312s.336 1.897.72 2.905a10.4 10.4 0 0 0 1.649 2.944 8.72 8.72 0 0 0-3.569 7.153q-.024 1.216.112 2.344v.072c.592 3.833 2.184 6.305 4.737 7.345 3.48 1.424 7.44-.424 9.6-1.752l4.93 3.817 1.256-.96a38.4 38.4 0 0 0 8.48-9.682 8.5 8.5 0 0 0 3.921 2.185l1.08.216 3.12-3.145a5.6 5.6 0 0 0 3.041.96h.784l.568-.536c.12-.112.32-.304 3.04-3.808l3.001 1.888 3.28-3.144a5.6 5.6 0 0 0 4.161 1.4l.76-.048.536-.544 1.096-1.088a4.5 4.5 0 0 0 2.497.784h.08a4 4 0 0 0 1.936-.52q.598-.341 1.096-.816.62-.61 1.096-1.337l.272-.464a24 24 0 0 1 3.096 2.32l1.425 1.209 1.32-1.32q.392-.4 1.72-1.673a5.2 5.2 0 0 0 2.84 1.185 5.44 5.44 0 0 0 3.497-.969q.568-.376 1.136-.88c.64.552 1.416 1.225 2.136 1.865l1.28 1.136 3.513-2.857a6 6 0 0 0 3.68 2.193l1.016.16.729-.713c.36-.336 1.88-1.752 2.56-2.368.48.272 1.168.704 2.016 1.376.84.672 1.848 1.577 2.96 2.793l1.113 1.208 1.416-.832.432-.304c2.368-1.784 3.84-2.592 4.689-2.96 1.97 1.74 3.977 3.442 5.968 5.16l4.209-2.96 7.777 6.785 3-2.777c.584 1.264 1.488 2.705 2.825 3.673q.672.488 1.496.776l.84.296.784-.424c.152-.08.424-.232 1.712-1.376a8 8 0 0 0 2.84 2.208c.24.162.52.256.809.272.287.027.577-.011.848-.112q.832.655 1.6 1.12c.83.536 1.771.873 2.752.984q.625.048 1.169-.112c.204-.057.394-.156.56-.288q.57.593 1.008 1.288c1.04 1.6 2.096 3.825 2.096 3.825 1.296-1.088 2.424-2 3.753-2.616a8.8 8.8 0 0 1 3.488-.793q.736-.022 1.472.024l.224-1.776q.56-4.6.472-7.985a24 24 0 0 0-.272-3.072c-.12-.831-.32-1.649-.6-2.44a8 8 0 0 0-.84-1.68 24 24 0 0 0 2-3.985c.824-2.137 1.056-3.92.912-5.409-.422-5.249-5.266-7.244-8.04-4.945a4 4 0 0 0-.993 1.297l-1.784-2.033-3.688 1.873a3.5 3.5 0 0 0-1.089-1.297 4 4 0 0 0-3.296-.568l-4.705-4.776c-.677 1.081-1.747 2.312-3.088 2.264a8 8 0 0 0-2.304.16l-4.193-6.137-5.656 3.553-1.32-1.904a9.6 9.6 0 0 0 3.08-.672c2.704-1.08 4.24-3.305 4.24-6.09v-21.042a6.4 6.4 0 0 0-1.856-4.625 8 8 0 0 0-4.36-2.08v-9.201h7.776v5.52a6.4 6.4 0 0 0 1.833 4.553c2.12 2.112 5.184 2.224 5.792 2.224h10.881c.608 0 3.68-.096 5.801-2.208a6.4 6.4 0 0 0 1.84-4.56V65.676h-10.8V62.59h-15.283v1.272h-15.442a9.6 9.6 0 0 0-3.424.672 8 8 0 0 0-2.032 1.216c-2.089-1.8-4.849-1.904-5.41-1.904h-10.88a9.6 9.6 0 0 0-3.417.68 7.2 7.2 0 0 0-1.944 1.16 7.6 7.6 0 0 0-4.92-1.776h-3.657v-2.408l54.2.016V19.832zm3.297 3.296h8.8v35.124h-15.281s-4.36-.032-4.36-3.488V33.695c0-3.52 4.36-3.545 4.36-3.545h6.545zM41.96 30.143h15.282v33.204l.024-.016s0 3.68-4.32 3.68H37.582V60.02h10.881v-1.776h-6.537s-4.36-.024-4.36-3.489V33.631c0-1.64 1.712-3.52 4.336-3.52zm17.522 0h15.202s4.328.032 4.328 3.577v8.72c0 1.017-1.072 1.425-1.072 1.425a2.24 2.24 0 0 1 1.088 2.072V60.02H90.07v7.193h6.961s3.857 0 3.857 3.537v24.563h-8.721V74.269H90.06v21.043h-8.72V67.068h-6.674s-4.4 0-4.4-3.489V47.817H68.17L68.154 63.9h-8.72zm26.083.016h10.88s4.337 0 4.337 3.545v24.483H85.58s-4.32-.008-4.32-3.489v-10.56c0-3.49 4.32-3.49 4.32-3.49h6.513v-3.48h-2.112v1.713H81.26V33.68c0-3.545 4.328-3.545 4.328-3.545zm32.564.016c1.36 0 4.328.84 4.328 3.545v24.483h-8.72V37.16h-2.113v21.043h-8.721V30.119h8.72v1.768q2.13-1.752 6.498-1.76zm-71.77 7.017v14.082h2.121V37.192zm87.212 0v14.162h2.128V37.192zm-65.128.008v3.504h2.104V37.2zm21.683 10.481v3.537h2.112V47.68zM59.722 65.763h8.72v3.208h10.962v6.993H68.603v12.322h2.168v-10.56h8.641v14.081c0 3.489-4.32 3.489-4.32 3.489H64.21s-4.337-.024-4.337-3.489V75.965h-2.16v-6.993h2.032zm88.01.12h8.722v3.089h10.8v6.992h-10.8v12.322h2.144v-10.56h8.641v14.081c0 3.48-4.32 3.48-4.32 3.48h-10.881s-4.321 0-4.321-3.464V75.981h-2.16V68.99h2.16zm-40.564 1.28h10.88s4.337-.016 4.337 3.529v14.082h-10.8v3.544h2.12v-1.776h8.72v5.28-.007c0 3.488-4.328 3.488-4.328 3.488h-10.88s-4.337-.016-4.337-3.488V70.692c0-3.545 4.336-3.545 4.336-3.545zm21.763.008h15.282l-.032 7.041H133.3v1.712h10.88v7.05H133.3v12.321h-8.801V70.732c0-3.552 4.36-3.552 4.36-3.552zm-17.362 7.041v3.489h2.12v-3.497zM98.287 97.175h8.64l.04 3.2h10.802v6.994h-10.801v12.242h.768l.072 5.288-.64.592-2.376-1.84-2.993 2.88c-1.248-.2-3.52-.904-3.52-3.392v-15.842h-2.177v-7.009h2.169zm-23.923 1.4h8.64v18.002a11.28 11.28 0 0 0-8.64 4.689zm-17.442.024h10.88s4.337 0 4.345 3.553v23.283a21 21 0 0 0-.424 1.264H56.921s-4.32-.008-4.32-3.48v-10.561c0-3.489 4.32-3.489 4.32-3.489h6.497v-3.488h-2.112v1.688h-8.721v-5.193c0-3.544 4.328-3.544 4.328-3.544zm28.244.016h8.72v16.882l-.64.288-.24.096a8 8 0 0 0-.783.336l-.16.096c-.224.16-.512.409-1.009.817l-.888.752-.048-.024a16 16 0 0 0-2.288-.8 16 16 0 0 0-2.688-.424zm39.205.016h10.96s4.337-.032 4.337 3.52v21.044c0 3.488-4.336 3.488-4.336 3.488H124.45s-4.337 0-4.337-3.48V102.16c0-3.537 4.337-3.537 4.337-3.537zm4.352 7.017v14.002h2.12v-14.002zm-19.602 3.44h8.641v14.083a1 1 0 0 1-.032.208l-7.016-7.057-1.6.248zm-47.846 7.066v3.52h2.113v-3.52zm32.804 1.504c1.32.488 1.905 1.28 1.929 1.968.056 1.152-1.313 2.176-1.313 2.176l-.512 1.657-.024 7.913s2.305-.585 3.449-3.897a5.6 5.6 0 0 1 3.968 2.136l3.385-3.256 2.336 1.816 1.304-1.2 2.568 2.944c-.856 1.385-1.016 1.865-.752 2.033a.48.48 0 0 0 .32.08.48.48 0 0 0 .304-.16l1.353-1.225-2.497-3.464-.096-8.641.272-.04 11.441 11.52.976-.68 2.145 2.297 2.744-2.08 2.368 2.464 3.32-2.136 3.273 4.704 5.649-3.52 4.056 5.897s.424-.864 3.017-.672a3.92 3.92 0 0 0 3.216-1.36c.304.296 3.977 4.16 3.977 4.16s3.96-1.904 3.352 2.664c.504-.28 4.833-2.416 4.833-2.416l3.304 3.825s.72.616.552 0c.136-.6-1.395-5.903 3.354-4.14 4.83 2.226-1.04 13.354-1.474 13.204 0 0 3.64.608 1.897 14.642a9.84 9.84 0 0 0-6.297 2.177s-1.52-3.017-3.16-4.297c-.56-.552-.809.632-1.64.72-1.521.56-4.881-2.576-4.881-2.576s-.809.752-.785.64a6 6 0 0 1-3.352-3.673s-2.792 2.585-3.192 2.8c-3.065-1.055-4.057-6.152-4.057-6.152l-3.976 3.648-7.617-6.632-4.2 2.96s-5.17-4.457-5.602-4.873c-2.52.48-6.48 3.68-6.656 3.793-4.08-4.44-6.857-5.2-6.857-5.2s-3.04 2.784-3.585 3.328c-2.544-.4-3.424-3.273-3.424-3.273l-4.025 3.28s-3.52-3.104-3.656-3.12c-4.425 5.577-7.17.52-7.17.52l-3.271 3.16c-4.401-3.72-5.753-3.456-5.817-3.424a4 4 0 0 1-.56 2.033c-2.505 3.84-5.04.224-5.04.224s-1.865 1.792-2.505 2.432c-2.817.192-3.793-2.432-3.793-2.432l-3.792 3.632-3.217-2.032s-3.696 4.8-3.944 5.04c-1.56.024-3.152-1.664-3.152-1.664s-3.72 3.72-3.649 3.673-3.328-.68-4.513-4.289c-2.944 7.041-9.52 12.162-9.52 12.162l-4.833-3.72s-10.721 7.993-12.482-3.417c-.368-3.384.08-6.729 4.824-8.961-4.64-2.976-3.816-9.441-3.816-9.441s.48-5.385 2.944-6.785c-.8-8.081 6.881-13.922 6.881-13.922l8.241 5.92.56-1.007 3.84 2.504s-3.152 8.241-3.424 9.041c5.49 1.816 7.05 5.897 7.05 5.897s4.288-3.104-1.24-6.609l.855-3.976c2.96.24 3.609-1.529 3.96-3.52.649.32 1.209.671 2.545 1.375 1.776.928 3.968 1.937 5.2-1.224a24 24 0 0 0 2.569 1.536c.832-.104 2.032-1.896 2.32-2.76a5.6 5.6 0 0 1 3.545 2.104l3.216-3.28 2.648 1.616 1.169-1.168 1.248.696s1.32-14.322 14.322-11.201c.984.224 1.944.72 3.072 1.144.592-.28 2.32-1.864 2.8-2.216q.408-.192.833-.336zM79.277 132.78c-.12.336.08 1.888.32 2.624l1.24-2.336c-.88.712-1.48-.2-1.552-.272zm14.802.96-.008 9.841 1.465 1.296.024-9.36zm-7.545.56-1.168 2.296 1.12-.152zm16.322.968-.736.808v10.321c-.08.528.272.544.424.504.28.024.32-.432.32-.432zm-72.409.08s-.48 1.272-.128 2a2.4 2.4 0 0 0 2.129 1.065l.552-1.48zm42.645.496-.056 10.721a37 37 0 0 1 2.729-5.409c-1.4-.936-2.673-5.272-2.673-5.272zm37.045.096-.544.056v-.008s-.064 8.241.08 8.961c.184 1.2.32-.056.296-.08.176-1.504.216-7.489.176-8.96zm6.265.256-.016 8.881q.373.215.784.344c.024-.72.024-8.4.024-8.4zm7.585.8-.336.16-.112 11.201s.216.04.192 0c.16-.312.984-9.6.376-11.2-.024-.145-.12-.145-.12-.145zm-57.287 1.28-.656.689-.016 6.144s.192 3.153.192 3.025c.24 1.496.528.24.504-.144.024-.56-.024-9.681-.024-9.681zm-7.84.505-.073.04s-.36.08-.36 1.296c0 1.44.016 10.4.056 10.48.256.72.696.113.72-.055s.032-10.401.032-10.721c-.024-1.016-.264-1.048-.376-1zm76.17.296c-.137.072-2.601 2.032-2.601 2.032l-1.2-1.376c0 .024-1.12 3.2 0 8.08.4 1.905 1.696.68 1.696.68l1.872 2.401s1.44-6.16.224-11.842zm-84.604 1.616a8 8 0 0 1 .256 2.528c.048.664.52.416.52.416l.024-2.752zm91.212.896v.84l.416-.336zm-54.807 1.144-3.944.256v-.024s-.824 1.864-.824 1.944c.417.064.822.194 1.2.384a16 16 0 0 0 2.024.753c1.44.344 1.488-.609 1.52-.64.064-.137.032-2.673.032-2.673zm64.808.144v.008c.256 1.152.176 2.112.608 2.184.016.016.016-1.56.016-1.56zm-17.842.024q.057 1.481-.024 2.96l-.264-.327-.248.224a16 16 0 0 1-.16-2.297zm13.682.528-5.24 4.617.08 3.384s.111 2.473 2.48-.024c.232-.424.208-4 2.936-7.033zm11.121.872-.656.304c0 .016.04 11.441 0 12.082.92.296 1.816 1.465 1.816 1.465l1.44-2.209-2.552-3.136zm-.656.304-.016.016zm-107.21 2.68s-.24 4.001.4 5.073c.192.52.32-.808.32-.808l.2-3.688c-.584-.384-.92-.576-.92-.576m114.41 1.224h.016zm.016 0c0 .016-.2 2 .272 1.96.352-.504.728-1.096.832-1.232a2.4 2.4 0 0 1-1.112-.72zm-13.842.952h-.008c-.4 2.56.064 4.425.336 4.529.376-.705.472-3.617.472-3.617zm-117.62 4.937c-.896-.112-1.072.792-1.072.792l1.616.936s1.032-1.032-.12-1.616m132.39 2.488-1.2 1.92s.96.512 1.56.784h.008c.304-2.2-.368-2.704-.368-2.704m-141.57 4.456s-.04 1.008.848.904c0 0 1.296-.232 1.672-.848 0 0-1.08-1.08-1.768-1.12-.713.008-.75.983-.752 1.064"/></svg>