<svg xmlns="http://www.w3.org/2000/svg" width="192" height="192" viewBox="0 0 192 192"><path d="M128.44 46.434c5.807-2.86 8.687-2.48 8.753.407.08 3.766-.473 8.753-.873 12.38-2.153 19.647-5.76 35.707-6.04 55.887 9.493-24.573 17.46-41.653 27.707-62.687 3.253-6.694 5.327-5.454 8-6.64 10.42-4.634 10.813-1.787 9.447 3.873-5.054 21-17.967 87.12-19.947 97.3-.574 2.947-3.774 1.7-4.607.547-3.707-5.127-7.887-5.207-7.413-8.62 2.32-16.973 10.687-59.56 12.867-69.593-11.127 22.8-22.653 51.293-28.573 67.453-1.26 3.433-3.54 3.18-4.967.666-2-3.526-5.887-5.326-6.527-9.493-2.04-13.247 2.32-38.507 2.927-54.48-6.053 17.453-16.22 51.34-20.673 66.647-1.84 6.333-7.953 5.3-6.327-.873 6.767-25.693 21.34-71.133 27.653-87.474 1.48-3.84 5.367-3.707 8.594-5.3zm-36.9-3.16c1.84.447 1.693 2.62.567 5.587C88.78 57.62 84.173 69.128 78.9 82.7c3.313-.38 5.113-.507 5.113-.507 4.753-.587 5.64 1.793 4.3 4.32-1.067 2.02-2.353.673-6.8 7.307-2.507 3.74-6.6 4.726-8.88 5.226-5.473 14.5-11.347 30.68-17.047 47.92-.833 2.514-3.26 1.967-3.987.947-2.68-3.747-4.653-3.867-6.733-6.893-.247-.494-.733-1.154-.44-2.36 1.527-6.24 5.58-19.06 11.747-35.947-7.767 1.686-16.173 3.493-19.647 4.3-4.16 11.007-8.227 22.053-12.073 32.96-2.387 6.766-8.6 5.46-6.42-.94 3.473-10.187 7.307-20.767 11.153-31.027-4.307-.46-5.76-3.5-8.167-6.04-.926-.98-2.953-.84-3.946-2.214-1.78-2.473-1.607-3.573 2.513-4.76a412 412 0 0 1 16.213-4.326c6.96-17.96 13.247-33.373 16.6-41.593 2.587-6.34 9.247-5.747 6.72.5-5.147 12.707-10.42 25.9-15.627 39.287a382 382 0 0 1 19.36-3.84 990 990 0 0 1 14.98-36.327c.367-.84 1.433-2.027 2.54-2.214 3.5-.6 9.193-3.68 11.167-3.206zm-11.92 82.234a14 14 0 0 0 1.627-1.187q-.62-1.828-1.22-3.666c-.407.52-.8 1.046-1.194 1.58-2.326 3.193-.946 4.333.787 3.273m3.1-15.167c2.887-3.26-2.82-4.62-1.507.36.074.28.167.613.267.973q.63-.651 1.24-1.333m3 9.82c2.86-2.48 5.587-.02 2.76 4.16a46 46 0 0 1-2.047 2.827c.3.853.607 1.7.934 2.54 1.46 3.746-2.38 4.686-3.614 1.58a49 49 0 0 1-.333-.86c-2.333 2.066-5.027 3.366-7.907 2.466-4.74-1.473-5.946-8.146-1.52-13.287 1.774-2.06 3.107-3.493 4.227-4.633a97 97 0 0 1-.787-2.673c-.58-2.08-1.093-4.5.987-6.974 3.907-4.633 12.967-.52 8.38 6.614-1.1 1.72-2.393 3.34-3.74 4.986.467 1.474.933 2.94 1.413 4.407.407-.4.82-.78 1.247-1.153"/></svg>