<svg xmlns="http://www.w3.org/2000/svg" width="192" height="192"><path d="M42.349 19c-2.32 0-4.237 1.917-4.237 4.237v141.29H26.013c-2.32 0-4.237 1.917-4.237 4.237 0 2.319 1.918 4.236 4.237 4.236h139.97c2.32 0 4.237-1.917 4.237-4.236s-1.917-4.237-4.237-4.237h-119.3v-106.8L76.934 27.47h42.256v14.815a21.96 21.96 0 0 0-11.494 6.063c-3.933 4.034-6.458 9.58-6.458 15.731 0 6.152 2.424 11.697 6.458 15.731 3.06 2.984 6.99 5.156 11.394 6.03v6.08l-23.294 8.363c-2.118.807-3.327 3.229-2.52 5.447.806 2.118 3.222 3.328 5.441 2.521l20.373-7.318v25.604l-19.968 24.571c-1.513 1.815-1.21 4.44.605 5.953 1.816 1.512 4.44 1.21 5.953-.606l17.658-21.733 17.735 21.833c1.412 1.816 4.137 2.118 5.952.606 1.816-1.412 2.118-4.132.606-5.947l-20.068-24.693V101l20.473 7.351c2.218.807 4.634-.302 5.441-2.52.807-2.22-.302-4.641-2.52-5.448l-23.395-8.396v-6.096a21.95 21.95 0 0 0 11.594-6.08c3.933-4.035 6.458-9.58 6.458-15.732s-2.424-11.697-6.458-15.73c-3.083-3.007-7.048-5.192-11.494-6.053V23.234c0-2.32-1.917-4.237-4.237-4.237zm4.337 8.474h18.152L46.686 45.626zm76.745 22.894c3.832 0 7.163 1.51 9.684 4.03s4.031 5.953 4.031 9.685c0 3.832-1.51 7.157-4.031 9.678s-5.953 4.037-9.684 4.037c-3.832 0-7.157-1.515-9.679-4.037-2.52-2.521-4.036-5.947-4.036-9.678 0-3.832 1.515-7.163 4.036-9.684s5.947-4.031 9.679-4.031"/></svg>