<svg width="192" height="192" fill="none" xmlns="http://www.w3.org/2000/svg"><path d="M113.554 125.354a22.25 22.25 0 0 1 2.495 16.773 22.153 22.153 0 0 1-10.04 13.633 21.966 21.966 0 0 1-16.694 2.506 22.06 22.06 0 0 1-13.568-10.087L25.15 63.571a22.263 22.263 0 0 1-2.495-16.773c.7-2.824 1.948-5.48 3.67-7.82a22.09 22.09 0 0 1 6.37-5.813 21.951 21.951 0 0 1 16.694-2.507 22.01 22.01 0 0 1 7.783 3.688 22.123 22.123 0 0 1 5.785 6.4l41.304 69.067m9.293 15.541-9.293-15.541m9.293 15.541 15.489 25.9a22.064 22.064 0 0 0 13.568 10.088 21.967 21.967 0 0 0 16.694-2.507 22.153 22.153 0 0 0 10.04-13.633 22.251 22.251 0 0 0-2.495-16.773l-24.782-41.44a22.129 22.129 0 0 0-5.786-6.4A22.004 22.004 0 0 0 128.5 76.9a21.953 21.953 0 0 0-16.694 2.506 22.091 22.091 0 0 0-6.37 5.814 22.254 22.254 0 0 0-1.175 24.592" stroke="#000" stroke-width="12" stroke-linecap="round" stroke-linejoin="round"/></svg>