<svg xmlns="http://www.w3.org/2000/svg" width="192" height="192" viewBox="0 0 192 192"><path d="M41.311 45.241c-6.344 3.976-11.928 14.304-19.2 35.72-2.368 7.12-4.888 13.616-5.504 14.304-.992 1.144-.84 1.528.992 3.216 2.528 2.288 4.672 2.52 5.28.608.768-2.368 24.552-25.16 32.736-31.44 1.68-1.296 1.68-1.216 12.08 29.376 9.488 28.144 12.776 36.256 17.136 42.753 7.88 11.704 16.528 10.864 23.944-2.44 2.368-4.208 4.056-5.968 4.056-4.136 0 1.528 8.944 10.4 12.544 12.4 3.056 1.752 4.816 2.288 8.104 2.288 11.624-.08 20.496-9.792 34.96-38.4 2.672-5.424 5.656-10.632 6.496-11.472 1.376-1.376 1.376-1.6.232-3.36-.688-1.072-3.136-7.496-5.432-14.304-4.896-14.232-11.4-28.08-14.84-31.744-6.8-7.12-13.76-5.816-19.888 3.6-1.296 2.136-2.6 3.896-2.824 3.896-.16 0-2.984-1.528-6.2-3.36-3.208-1.92-9.176-4.52-13.152-5.896-6.656-2.296-8.032-2.528-16.832-2.528s-10.168.24-17.128 2.608c-6.048 2.064-7.808 2.368-8.8 1.6a72 72 0 0 0-5.36-2.904c-3.512-1.68-4.656-1.84-8.024-1.376-4.664.688-6.04.688-10.016 0-2.296-.304-3.6-.08-5.36.992m21.416 6.424c2.448 1.152 2.448 1.536-.536 3.216-2.296 1.456-2.368 1.456-3.44 0-2.68-3.6-2.752-4.128-.304-4.128 1.296 0 3.208.376 4.28.912m44.369.232c4.352 1.072 18.352 7.576 21.256 9.864 1.224.92 1.152 1.304-.84 6.272-1.224 2.912-5.352 14.84-9.256 26.472-3.896 11.696-7.345 21.416-7.72 21.64-.313.232-5.513-9.256-11.4-21.112-11.857-23.632-13.153-26-18.665-34.264-2.064-3.056-3.44-5.888-3.056-6.192.304-.384 3.056-1.376 5.96-2.224 6.585-1.832 17.36-2.064 23.713-.456zm43.137 1.528c1.296 1.528 3.288 4.512 4.36 6.656 2.216 4.44 8.72 20.88 8.72 22.184 0 .384-3.216-2.224-7.04-5.968a312 312 0 0 0-12.616-11.24c-3.064-2.528-5.584-4.744-5.584-4.896 0-.616 3.976-6.504 5.352-7.88 2.216-2.216 4.128-1.92 6.8 1.144zM52.4 57.402l1.68 2.912-3.28 2.672c-1.84 1.456-6.432 5.44-10.176 8.8-3.752 3.36-6.656 5.432-6.272 4.584 1.912-5.2 13.92-21.792 15.76-21.792.296 0 1.368 1.296 2.288 2.824m23.176 7.88c2.368 3.6 9.328 16.296 15.376 28.304s12.24 24.016 13.76 26.688l2.76 4.824-1.84 4.128c-2.448 5.28-6.192 10.784-8.104 11.776-2.144 1.152-4.056-.08-6.96-4.28-3.825-5.584-7.88-15.76-16.753-41.993-4.592-13.464-9.024-26.16-9.864-28.224-.92-2.064-1.536-3.824-1.456-3.896 3.216-2.376 6.576-4.208 7.496-4.056.608.152 3.136 3.136 5.585 6.728m69.985 10.176c4.056 3.6 10.712 9.865 14.688 13.92l7.264 7.265-5.584 11.016c-9.713 19.352-18.664 31.28-25.088 33.352-3.672 1.224-7.417.152-11.624-3.52-2.904-2.448-10.096-11.624-10.096-12.848 0-.768 17.36-51.785 18.736-55.001 1.456-3.44.84-3.744 11.704 5.816"/></svg>