<svg width="192" height="192" fill="none" xmlns="http://www.w3.org/2000/svg"><path d="M25 49c0-13.255 10.745-24 24-24h94c13.255 0 24 10.745 24 24v94c0 13.255-10.745 24-24 24H49c-13.255 0-24-10.745-24-24V49Zm71-24v12m22-12v12m22-12v12M74 25v12M52 25v12M27 59h138" stroke="#000" stroke-width="12" stroke-linecap="round" stroke-linejoin="round"/><path d="M96 145s-40-17.231-40-42.667c0-2.801.549-5.575 1.616-8.164a21.34 21.34 0 0 1 4.6-6.92 21.218 21.218 0 0 1 6.886-4.625 21.13 21.13 0 0 1 16.245 0 21.218 21.218 0 0 1 6.886 4.624A21.328 21.328 0 0 1 96 92.385a21.338 21.338 0 0 1 3.767-5.137 21.213 21.213 0 0 1 6.886-4.624 21.131 21.131 0 0 1 16.245 0 21.206 21.206 0 0 1 6.885 4.624 21.329 21.329 0 0 1 4.601 6.921 21.421 21.421 0 0 1 1.616 8.164C136 127.769 96 145 96 145Z" stroke="#000" stroke-width="12" stroke-linecap="round" stroke-linejoin="round"/></svg>