<svg width="192" height="192" version="1.1" xml:space="preserve" xmlns="http://www.w3.org/2000/svg"><path d="m16 49.117v93.765h10.619v-34.465c0-4.3269 0.70088-8.0135 2.1194-11.054 1.4148-3.0368 3.479-5.3869 6.1844-7.0539 2.7054-1.6633 6.4794-2.4998 10.141-2.4998 5.076 0 8.8391 1.5891 11.293 4.7497 2.4569 3.1643 3.6845 7.9827 3.6845 14.477v35.845h10.608v-37.715c0-8.575-1.9928-15.171-5.9887-19.792-3.9964-4.6208-9.7021-6.9343-17.108-6.9343-5.2452 0-10.401 1.3596-14.314 4.0649-2.8896 1.998-5.0913 4.5944-6.6191 7.793v-41.182zm96.417 29.324c-5.6592 0-9.2221 1.4609-13.173 4.3693-2.8708 2.1147-4.9982 4.8296-6.4017 8.1299l-0.15214-10.586h-9.9885v62.517h10.608v-34.585c0-4.3274 0.69154-8.0131 2.0651-11.054 1.3731-3.0401 3.3293-5.3671 5.8692-6.9887 2.5361-1.622 4.7255-2.4346 8.3038-2.4346 4.9935 0 8.6923 1.5614 11.108 4.6845 2.4156 3.123 3.6302 7.9284 3.6302 14.423v35.954h10.608v-34.465c0-4.3269 0.68066-8.0022 2.0542-11.043 1.3736-3.0363 3.3204-5.3869 5.8148-7.0539 2.4986-1.6633 4.1413-2.4998 7.6408-2.4998 5.0756 0 8.8462 1.5783 11.304 4.7388 2.4569 3.1648 3.6845 7.9936 3.6845 14.488v35.835h10.608v-37.704c0-8.575-1.9923-15.171-5.9887-19.792-3.9959-4.6204-9.7021-6.9343-17.108-6.9343-5.5762 0-9.122 1.6257-13.325 4.8692-3.1685 2.4457-5.4245 5.4642-6.7713 9.0429-1.4448-3.9509-3.5557-7.0633-6.3365-9.3472-3.7062-3.0368-8.3938-4.5649-14.053-4.5649z"/></svg>
