<svg xmlns="http://www.w3.org/2000/svg" width="192" height="192" viewBox="0 0 192 192"><path d="M96 16c-36.112 0-67.514 24.867-75.791 60.018s8.73 71.415 41.048 87.528a2.85 2.85 0 0 0 3.825-1.28 2.85 2.85 0 0 0-1.28-3.825c-29.976-14.946-45.718-48.51-38.041-81.116C33.438 44.72 62.503 21.705 96 21.705s62.56 23.015 70.239 55.62c7.677 32.605-8.065 66.17-38.042 81.116a2.85 2.85 0 0 0-1.28 3.825 2.85 2.85 0 0 0 3.825 1.28c32.318-16.113 49.325-52.377 41.048-87.528S132.112 16 95.999 16zm4.915 25.139a9.78 9.78 0 0 0-9.78 9.78 9.78 9.78 0 0 0 9.78 9.781 9.78 9.78 0 0 0 9.782-9.781 9.78 9.78 0 0 0-9.782-9.78m-7.072 24.207c-3.192 0-5.057.214-5.946.676a267 267 0 0 0-9.354 5.956c-5.424 3.566-8.268 5.716-8.73 6.623-1.628 3.147-7.096 16.538-7.096 17.383 0 .498.57 1.556 1.272 2.338 1.582 1.779 4.223 1.99 5.743.461.534-.524 2.312-3.99 3.966-7.706l3.005-6.74 4.96-2.872c2.72-1.592 4.998-2.828 5.07-2.757.053.072-.89 4.668-2.109 10.198-1.209 5.54-2.214 10.474-2.223 10.981-.044 2.819 1.05 4.517 7.078 10.971 4.543 4.873 6.224 6.996 6.58 8.303a471 471 0 0 1 2.318 10.225c2.045 9.309 2.412 10.296 4.119 11.23a5.486 5.486 0 0 0 7.566-2.382c.693-1.458.745-2.02.3-3.673-.293-1.067-1.465-6.17-2.621-11.344l-2.09-9.389-4.09-6.953c-2.24-3.832-3.993-7.272-3.877-7.664.116-.373 1.575-6.153 3.247-12.82 3.316-13.266 3.528-15.56 1.67-18.165-1.6-2.258-3.503-2.88-8.758-2.88m14.832 8.783c-.08.08-.756 2.57-1.512 5.539l-1.36 5.388 2.124 2.278c2.054 2.196 2.348 2.336 8.305 4.061v-.008c7.664 2.232 8.792 2.294 10.553.534 1.751-1.752 1.787-3.673.08-5.478-.978-1.05-2.507-1.706-6.97-3.022l-5.727-1.69-2.666-3.876c-1.467-2.134-2.747-3.806-2.827-3.726m-27.43 34.65-.533 2.418a272 272 0 0 0-1.057 5.032c-.471 2.32-1.183 3.448-6.447 10.223-5.574 7.175-5.921 7.736-5.921 9.674 0 1.716.25 2.294 1.557 3.6 1.645 1.645 3.573 2.02 5.911 1.14.65-.258 3.674-3.752 7.203-8.358 5.762-7.504 6.116-8.108 6.978-11.505l.9-3.585-4.295-4.319zm42.662 38.481a2.5 2.5 0 0 0-.635.153 2.5 2.5 0 0 0-1.387 1.32l-7.18 16.176a2.5 2.5 0 0 0 1.206 3.27l15.857 7.578a2.5 2.5 0 0 0 3.335-1.178 2.5 2.5 0 0 0-1.178-3.334l-13.663-6.53 6.195-13.953a2.5 2.5 0 0 0-1.272-3.3 2.5 2.5 0 0 0-1.277-.201z"/></svg>