<svg width="192" height="192" version="1.1" xmlns="http://www.w3.org/2000/svg"><path d="m96 16c-44.109 0-80 35.891-80 80 0 44.11 35.891 80 80 80 44.11 0 80-35.884 80-80 0-44.115-35.89-80-80-80zm-49.95 125.37c-3.6296-3.9935-6.7884-8.4275-9.3868-13.208-1.037-1.913-1.9906-3.8795-2.8429-5.9-0.22645-0.5305-0.42315-1.079-0.6377-1.6155h29.585v16.158c0 1.335 1.0788 2.414 2.4138 2.414h14.089c1.335 0 2.414-1.079 2.414-2.414v-33.208h28.626v33.208c0 1.335 1.0785 2.414 2.4135 2.414h14.09c1.335 0 2.4135-1.079 2.4135-2.414v-50.266h33.578c0.435 3.0935 0.673 6.246 0.673 9.4585 0 37.268-30.21 67.478-67.478 67.478-19.799 0-37.607-8.5285-49.95-22.105zm14.959-103.08c1.8536-1.1264 3.7667-2.1694 5.7337-3.117 1.9665-0.9476 3.987-1.7999 6.055-2.5568 1.031-0.38145 2.08-0.73305 3.135-1.0608 2.1155-0.6556 4.273-1.2158 6.4665-1.6628 4.3925-0.8999 8.94-1.3708 13.6-1.3708 5.823 0 11.473 0.739 16.866 2.1217 21.05 5.4176 38.108 20.746 45.951 40.706h-29.585v-16.158c0-1.335-1.0785-2.4138-2.414-2.4138h-14.089c-1.335 0-2.414 1.0788-2.414 2.4138v33.209h-28.626v-33.209c0-1.335-1.0785-2.4138-2.4135-2.4138h-14.089c-1.335 0-2.4138 1.0788-2.4138 2.4138v50.266h-33.578c-0.43505-3.0935-0.67345-6.246-0.67345-9.4585 0-5.823 0.739-11.473 2.1217-16.866 0.8344-3.2365 1.8953-6.377 3.1766-9.405 0.4291-1.007 0.8761-2.0085 1.3529-2.9915 5.6858-11.801 14.703-21.694 25.836-28.453z"/></svg>
