<svg width="192" height="192" fill="none" xmlns="http://www.w3.org/2000/svg"><path d="M62.059 103.941a47.998 47.998 0 0 1 40.206-81.53 47.998 47.998 0 0 1 40.813 38.225 48.006 48.006 0 0 1-3.356 29.174C136 98 126 104 122.941 110.941 119.882 117.882 120 127 101.5 127H75.583c-1.012 0-1.383 1.331-.517 1.855L110 150l-30 4 24 16" stroke="#000" stroke-width="12" stroke-linecap="round" stroke-linejoin="round"/><path d="M96 50a20.003 20.003 0 0 1 18.478 12.346A20.002 20.002 0 0 1 116 70" stroke="#000" stroke-width="12" stroke-linecap="round" stroke-linejoin="round"/></svg>