<svg width="192" height="192" fill="none" xmlns="http://www.w3.org/2000/svg"><path d="M103.549 92.231a20.997 20.997 0 0 1 32.683-12.3 20.997 20.997 0 0 1 8.435 20.793 20.007 20.007 0 0 1 18.021 3.816 20.008 20.008 0 0 1 7.216 17.42 19.993 19.993 0 0 1-10.476 15.678A19.995 19.995 0 0 1 150 140h-46.451M83 140H50a27.995 27.995 0 0 1-22.214-10.955 27.998 27.998 0 0 1 11.499-42.914 28 28 0 0 1 14.893-1.818A31 31 0 0 1 106.84 59" stroke="#000" stroke-width="12" stroke-linecap="round" stroke-linejoin="round"/></svg>