<svg xmlns="http://www.w3.org/2000/svg" width="192" height="192"><path d="M128.17 143.44c.563.563 1.688 1.042 2.5 1.042 1.627 0 4.732-.73 6.482-1.042 5.21-.917 17.36-3.355 21.258-6.648.938-.813.876-1.25 1.063-2.439.917-5.668.771-12.15.896-17.902.417-19.966.271-39.994-1.167-59.897-.146-.77-2.813-2.042-3.563-2.376-4.252-1.938-9.441-3.188-14.005-4.189-3.022-.666-7.399-1.75-10.4-1.959-2.147-.145-3.752.897-3.981 3.127-.5 5.064.27 11.004 0 16.193-.396 8.086-3.96 16.464-9.233 22.508-7.19 8.273-18.59 12.4-27.593 18.36-3.668 2.418-6.648 5.753-8.378 9.817-5.335 12.379 3.48 27.406-8.774 37.263-6.314 5.064-11.942 4.46-19.424 3.167-9.878-1.73-28.28-5.44-34.075-14.339-3.126-4.793-2.813-14.9-3.084-20.674-.813-18.423-.959-37.118-.146-55.54.23-5.42.146-13.735 2.543-18.59 5.314-10.755 23.8-14.444 34.596-16.132 6.69-1.042 11.713-1.834 17.756 1.939 12.484 6.815 8.711 24.78 8.711 37.43 0 4.501-4.98 9.545-8.774 9.545-3.939.333-6.356-3.877-6.606-7.336-.563-7.795.437-16.318 0-24.196-.771-4.231-5.002-2.835-8.024-2.376-6.086.917-17.881 3.105-22.675 6.856-1.292 1-1.292 1.397-1.521 2.98-.626 4.106-.584 8.358-.75 12.506-.46 12.4-.355 24.905-.147 37.305.167 9.295.271 18.569 1.188 27.823.188.667 3.189 2.125 3.94 2.459 7.627 3.355 16.588 4.522 24.737 6.085 1.71-.166 2.98-1.25 3.251-3 .188-9.4-.958-18.362 2.376-27.344 6.273-16.923 19.924-20.695 33.7-29.427 4.231-2.688 7.628-6.335 9.483-11.046 4.71-12.15-3.543-26.197 8.045-36.22 6.856-5.92 13.838-4.628 21.966-3.085 9.524 1.792 27.176 5.502 32.303 14.526 2.73 4.751 2.438 15.005 2.688 20.632.792 18.319.938 36.888.146 55.228-.23 5.21-.125 13.088-2.293 17.798-4.73 10.212-21.32 14.005-31.386 15.902-7.648 1.438-14.526 3.063-21.508-1.5-5.043-3.294-8.128-8.816-8.44-14.86-.417-7.503.146-15.59.208-23.114 1-4.98 7.024-11.337 12.13-7.21 1.708 1.375 2.917 3.647 3.063 5.835.542 7.773-.417 16.193 0 24.05.062.646.458 1.584.917 2.063z"/></svg>