<svg width="192" height="192" version="1.1" xmlns="http://www.w3.org/2000/svg"><path d="m128.17 143.44c0.5627 0.5627 1.6881 1.042 2.5009 1.042 1.6256 0 4.7309-0.72943 6.4815-1.042 5.2102-0.917 17.36-3.3554 21.258-6.6482 0.93785-0.81279 0.87532-1.2504 1.0629-2.4384 0.917-5.6687 0.77111-12.15 0.89616-17.902 0.41684-19.966 0.27092-39.994-1.1671-59.897-0.14589-0.77111-2.8135-2.0424-3.5638-2.3759-4.2515-1.9382-9.4409-3.1887-14.005-4.189-3.0219-0.66691-7.3985-1.7506-10.4-1.959-2.1466-0.14588-3.7514 0.89616-3.9806 3.1261-0.50018 5.0643 0.27092 11.004 0 16.193-0.39598 8.0863-3.9598 16.464-9.2325 22.508-7.1901 8.2738-18.59 12.4-27.593 18.361-3.668 2.4176-6.6482 5.7521-8.378 9.816-5.3353 12.379 3.4804 27.406-8.774 37.263-6.3148 5.0643-11.942 4.4599-19.424 3.1678-9.8786-1.7298-28.281-5.4395-34.075-14.339-3.1261-4.7934-2.8135-14.901-3.0844-20.674-0.81279-18.423-0.95868-37.118-0.14589-55.541 0.22925-5.4186 0.14589-13.734 2.5426-18.59 5.3144-10.754 23.8-14.443 34.596-16.131 6.6899-1.042 11.713-1.834 17.756 1.9382 12.484 6.815 8.7115 24.78 8.7115 37.43 0 4.5016-4.981 9.5451-8.774 9.5451-3.9389 0.33345-6.3565-3.8764-6.6066-7.336-0.5627-7.7945 0.43766-16.318 0-24.196-0.77111-4.2307-5.0018-2.8344-8.0237-2.3759-6.0855 0.917-17.881 3.1053-22.675 6.8566-1.2921 1.0004-1.2921 1.3963-1.5214 2.9802-0.62522 4.1057-0.58354 8.3572-0.75027 12.505-0.4585 12.4-0.3543 24.905-0.14589 37.305 0.16673 9.295 0.27093 18.569 1.1879 27.823 0.18757 0.66691 3.1887 2.1258 3.9389 2.4592 7.6278 3.3554 16.589 4.5225 24.738 6.0855 1.7089-0.16673 2.9802-1.2505 3.2512-3.0011 0.18757-9.3992-0.95868-18.361 2.3759-27.343 6.2731-16.923 19.924-20.695 33.7-29.427 4.2307-2.6885 7.6278-6.3356 9.4826-11.046 4.71-12.15-3.543-26.197 8.0446-36.221 6.8566-5.9188 13.838-4.6267 21.966-3.0844 9.5243 1.7923 27.176 5.502 32.303 14.526 2.7302 4.7517 2.4384 15.005 2.6885 20.632 0.79195 18.319 0.93783 36.888 0.14586 55.228-0.22925 5.2102-0.12506 13.088-2.2925 17.798-4.7309 10.212-21.32 14.005-31.386 15.902-7.6486 1.438-14.526 3.0636-21.508-1.5005-5.0435-3.2929-8.1279-8.8157-8.4406-14.86-0.41684-7.5027 0.14587-15.589 0.2084-23.113 1.0004-4.981 7.0234-11.337 12.129-7.2109 1.709 1.3755 2.9177 3.6472 3.0636 5.8354 0.54186 7.7736-0.41679 16.193 0 24.05 0.0625 0.64607 0.45851 1.5839 0.917 2.0632z"/></svg>
