<svg xmlns="http://www.w3.org/2000/svg" width="192" height="192" viewBox="0 0 192 192"><path d="M73.737 175.28c-10.592-2-20.433-7.808-26.849-15.832-3.456-4.328-7.216-11.816-8.608-17.16-1.568-5.984-1.56-15.88.016-21.817a45.44 45.44 0 0 1 32.24-32.273c8.353-2.216 19.578-1.424 27.93 1.968 1.76.72 3.312 1.296 3.456 1.296s.328-16.656.408-37.025c.144-36.32.16-37.04 1.208-37.817a4.32 4.32 0 0 1 2.664-.6c1.88.224 47.825 30.697 48.353 32.065a5.6 5.6 0 0 1 .336 1.64c0 .984-11.008 15.536-12.264 16.208-1.696.904-2.408.608-9.04-3.768-3.56-2.36-6.568-4.2-6.68-4.096-.104.112-.24 14.912-.288 32.897-.128 45.76-.368 49.065-4.24 58.178-7.92 18.657-28.817 29.88-48.641 26.137"/></svg>