<svg xmlns="http://www.w3.org/2000/svg" width="192" height="192" viewBox="0 0 192 192"><path d="M96 16c-42.45 0-77.305 33.268-79.851 75.091h14.312c2.5-34.074 30.81-60.809 65.539-60.809s63.04 26.735 65.539 60.809h14.312C173.305 49.268 138.45 16 96 16m0 63.71A16.29 16.29 0 0 0 79.71 96 16.29 16.29 0 0 0 96 112.29 16.29 16.29 0 0 0 112.29 96 16.29 16.29 0 0 0 96 79.71m-79.851 21.199C18.695 142.732 53.55 176 96 176s77.305-33.268 79.851-75.091h-14.312c-2.5 34.074-30.81 60.809-65.539 60.809s-63.04-26.735-65.539-60.809z"/></svg>