<svg width="192" height="192" fill="none" xmlns="http://www.w3.org/2000/svg"><path d="M118 110.545V156a7.003 7.003 0 0 1-7 7H99a6.996 6.996 0 0 1-6.467-4.321A7.002 7.002 0 0 1 92 156v-32a7.288 7.288 0 0 0-3.375-6.147l-13.985-8.9a8.638 8.638 0 0 0-9.28 0l-13.985 8.9A7.29 7.29 0 0 0 48 124v32a7 7 0 0 1-7 7H29a6.996 6.996 0 0 1-6.467-4.321A7.002 7.002 0 0 1 22 156V36a7.001 7.001 0 0 1 7-7h12a7 7 0 0 1 7 7v54l17.36-11.047a8.64 8.64 0 0 1 9.28 0l39.985 25.445a7.291 7.291 0 0 1 3.375 6.147ZM163 163h-12a6.997 6.997 0 0 1-6.467-4.321A6.997 6.997 0 0 1 144 156V83a6.999 6.999 0 0 1 7-7h12a7 7 0 0 1 7 7v73a6.997 6.997 0 0 1-4.321 6.467A6.997 6.997 0 0 1 163 163Zm-6-108c7.18 0 13-5.82 13-13s-5.82-13-13-13-13 5.82-13 13 5.82 13 13 13Z" stroke="#000" stroke-width="12" stroke-linecap="round" stroke-linejoin="round"/></svg>