<svg xmlns="http://www.w3.org/2000/svg" width="192" height="192" viewBox="0 0 192 192"><path d="M95.959 25.117a4.73 4.73 0 0 0-3.32 1.365l-75.6 76.88a4 4 0 0 0-1.04 2.64 3.76 3.76 0 0 0 3.76 3.76h14v53.998a3.12 3.12 0 0 0 3.2 3.12H92.88L81.6 155.523H70.32a5.92 5.92 0 0 1-5.68 4.08 6.08 6.08 0 0 1 0-12.16 5.92 5.92 0 0 1 5.68 4.08h7.2L64 137.922a5.6 5.6 0 0 1-2.32.638c-6.113.036-8.448-7.954-3.284-11.219s11.38 2.274 8.725 7.78l13.52 13.52v-7.6a6.16 6.16 0 0 1-4.08-5.76 6.08 6.08 0 0 1 12.16 0 6.16 6.16 0 0 1-4.08 5.76v11.68l9.28 9.28v-30.318l-17.36-17.44H65.362a6.16 6.16 0 0 1-5.76 4c-7.179-.827-7.179-11.255 0-12.08a6.16 6.16 0 0 1 5.76 4h7.2L60 97.68V84.722a6.16 6.16 0 0 1-4-5.76 6.08 6.08 0 0 1 6-6.08 6 6 0 0 1 6 6.08 6.16 6.16 0 0 1-4 5.76v11.28l11.361 11.278v-7.6a6 6 0 0 1-4-5.679c-.42-3.612 2.403-6.785 6.04-6.785S83.86 90.389 83.44 94a6 6 0 0 1-4 5.68v11.68l14.24 14V82.88l-8-8a5.6 5.6 0 0 1-2.64.64 6.08 6.08 0 0 1 0-12.16 6.08 6.08 0 0 1 6.081 6.08 5.6 5.6 0 0 1-.64 2.56L96 80l6.959-7.44a5.6 5.6 0 0 1-.639-2.56c0-5.417 6.55-8.129 10.38-4.299s1.117 10.38-4.3 10.38a5.3 5.3 0 0 1-2.56-.642l-8 8v59.52l10.08-10.16v-12a6.16 6.16 0 0 1-4-5.76 6 6 0 0 1 6-6.08 6.08 6.08 0 0 1 6.08 6.08 6.16 6.16 0 0 1-4 5.76v8l11.039-10.959v-8.48l-8.719-8.719a5.6 5.6 0 0 1-2.64.639c-5.417 0-8.13-6.55-4.3-10.38 3.83-3.829 10.38-1.117 10.38 4.3a5.6 5.6 0 0 1-.56 2.64l6.08 6.16V85.12a6.16 6.16 0 0 1-4.08-5.76 6.08 6.08 0 0 1 12.16 0 6.16 6.16 0 0 1-4.08 5.76v18.56l5.84-5.84a7.2 7.2 0 0 1-.561-2.64c0-5.417 6.549-8.129 10.379-4.299s1.118 10.38-4.3 10.38a5.6 5.6 0 0 1-2.638-.64l-8.96 8.72v10.48l-12.08 12.16h16.88c1.024-2.939 3.553-4.207 6.01-4.076 2.956.157 5.809 2.339 5.809 6.076 0 3.884-3.08 6.09-6.157 6.088-2.345-.002-4.686-1.287-5.662-4.088h-20.88L98 148.722V162l10.88-10.879h12.24a5.92 5.92 0 0 1 5.679-4.08 6.08 6.08 0 0 1 0 12.16 5.92 5.92 0 0 1-5.68-4.08H110.32l-11.762 11.76h56.48a3.12 3.12 0 0 0 3.12-3.12v-53.999h14.078a4 4 0 0 0 2.64-1.04 3.76 3.76 0 0 0 0-5.36l-16.8-17.2V59.045a3.2 3.2 0 0 0-3.121-3.201h-13.117a3.12 3.12 0 0 0-3.121 3.2v7.442l-39.44-40a4.7 4.7 0 0 0-2.108-1.207l.002-.002a4.7 4.7 0 0 0-1.213-.158zM83.187 67.053a2.5 2.5 0 0 0-.559.014c-3.13.408-2.742 5.054.413 4.937a2.4 2.4 0 0 0 2.398-2.4 2.483 2.483 0 0 0-2.252-2.551m25.84 0a2.5 2.5 0 0 0-.559.014c-3.128.408-2.742 5.05.41 4.937a2.4 2.4 0 0 0 2.401-2.4 2.483 2.483 0 0 0-2.252-2.551m15.832 9.676a2.4 2.4 0 0 0-2.22 2.392 2.4 2.4 0 0 0 2.4 2.48v.241a2.4 2.4 0 0 0 2.4-2.72 2.4 2.4 0 0 0-2.58-2.393m-63.002.203a2.48 2.48 0 0 0-2.258 2.031 2.48 2.48 0 0 0 2.479 2.479 2.48 2.48 0 0 0 2.4-2.479 2.48 2.48 0 0 0-2.621-2.031m15.731 14.52a2.5 2.5 0 0 0-.559.014c-3.128.408-2.742 5.05.41 4.937a2.483 2.483 0 0 0 .148-4.951zm34.225.838a2.48 2.48 0 0 0-2.213 2.912 2.4 2.4 0 0 0 2.4 2.4 2.4 2.4 0 0 0 2.481-2.4 2.48 2.48 0 0 0-2.668-2.912m26.318 0a2.48 2.48 0 0 0-2.211 2.912 2.4 2.4 0 0 0 2.479 2.4 2.4 2.4 0 0 0 2.4-2.4 2.48 2.48 0 0 0-2.668-2.912m-78.078 17.432q-.229 0-.453.04c-2.711.497-2.711 4.383 0 4.88 3.553.646 4.065-4.907.453-4.92m50.016 2.924c-3.085.118-3.074 4.693.012 4.797a2.4 2.4 0 1 0-.012-4.797M61.411 129.57a2.48 2.48 0 0 0-2.21 2.912 2.4 2.4 0 0 0 2.48 2.4 2.4 2.4 0 0 0 2.398-2.4 2.48 2.48 0 0 0-2.668-2.912m76.1 1.634a2.4 2.4 0 0 0 .01 4.797 2.4 2.4 0 0 0 2.48-2.4 2.4 2.4 0 0 0-2.49-2.397m-55.047 1.686a2.4 2.4 0 0 0-2.22 2.393 2.4 2.4 0 0 0 2.4 2.48 2.4 2.4 0 0 0 2.4-2.48 2.4 2.4 0 0 0-2.58-2.393m44.805 17.758c-3.197-.151-3.423 4.644-.227 4.795v.08a2.4 2.4 0 0 0 2.48-2.48 2.4 2.4 0 0 0-2.253-2.395m-62.569.48a2.4 2.4 0 0 0-2.22 2.395 2.4 2.4 0 0 0 2.4 2.478 2.4 2.4 0 0 0 2.4-2.478 2.4 2.4 0 0 0-2.58-2.395"/></svg>