<svg width="192" height="192" fill="none" xmlns="http://www.w3.org/2000/svg"><path d="M96 52 65 65 52 96l13 31 31 13 31-13 13-31-13-31-31-13Zm11-15c0 8.284-4.925 15-11 15s-11-6.716-11-15c0-8.284 4.925-15 11-15s11 6.716 11 15Zm38.497 25.059c-5.857 5.858-14.089 7.124-18.384 2.828-4.296-4.295-3.03-12.527 2.828-18.385 5.858-5.857 14.089-7.124 18.385-2.828 4.296 4.296 3.029 12.527-2.829 18.385ZM52 96c0 6.075-6.716 11-15 11-8.284 0-15-4.925-15-11s6.716-11 15-11c8.284 0 15 4.925 15 11Zm12.887-31.113c-4.295 4.296-12.527 3.03-18.385-2.828-5.857-5.858-7.124-14.09-2.828-18.385 4.296-4.296 12.527-3.03 18.385 2.828 5.858 5.858 7.124 14.09 2.828 18.385ZM170 96c0 6.075-6.716 11-15 11-8.284 0-15-4.925-15-11s6.716-11 15-11c8.284 0 15 4.925 15 11Zm-21.674 52.326c-4.296 4.296-12.527 3.029-18.385-2.829-5.858-5.857-7.124-14.089-2.828-18.384 4.295-4.296 12.527-3.03 18.384 2.828 5.858 5.858 7.125 14.089 2.829 18.385ZM107 155c0 8.284-4.925 15-11 15s-11-6.716-11-15c0-8.284 4.925-15 11-15s11 6.716 11 15Zm-44.941-9.503c-5.858 5.858-14.09 7.125-18.385 2.829-4.296-4.296-3.03-12.527 2.828-18.385 5.858-5.858 14.09-7.124 18.385-2.828 4.296 4.295 3.03 12.527-2.828 18.384Z" stroke="#000" stroke-width="12" stroke-linecap="round" stroke-linejoin="round"/></svg>