<svg xmlns="http://www.w3.org/2000/svg" width="192" height="192" viewBox="0 0 192 192"><path d="M79.342 172.87a59.6 59.6 0 0 1-14.222-4.729c-5.929-2.995-8.978-5.386-16.409-12.844a231 231 0 0 0-11.04-10.47c-8.062-6.756-14.951-16.045-18.471-24.908-2.498-6.284-3.2-10.062-3.2-17.262 0-5.653.151-7.058 1.2-11.164 1.618-6.338 3.644-11.52 6.969-17.813 1.529-2.889 2.782-5.715 2.782-6.275 0-1.156 1.422-6.907 2.436-9.805q9.04-25.928 29.707-34.275c7.27-2.933 11.52-3.644 25.209-4.178 21.955-.862 23.51-.87 27.715-.16 11.324 1.938 21.564 7.378 30.4 16.195 2.07 2.063 5.484 4.96 7.582 6.445 4.889 3.467 11.804 10.08 14.942 14.302a58.2 58.2 0 0 1 10.809 27.6c.995 8.55-1.085 21.547-4.533 28.355-.73 1.422-1.245 3.662-1.734 7.404-2.222 17.022-8.915 29.778-20.249 38.524-10.338 7.982-21.973 11.947-37.555 12.764-3.893.214-7.83.658-9.049 1.031-6.284 1.92-16.56 2.49-23.289 1.271zm27.378-9.618c12.542-1.946 22.978-6.542 33.173-14.613 12.978-10.267 22.551-27.404 24.595-44.035.622-5.102.551-13.618-.178-18.987-2.195-16.195-10.853-31.787-23.538-42.364-30.755-25.653-76.702-20-99.955 12.302-5.893 8.178-9.857 17.644-11.956 28.551-1.04 5.351-1.04 17.484 0 22.853 3.271 17.084 11.502 31.262 24.124 41.582a68.62 68.62 0 0 0 53.733 14.711M59.82 143.225c-5.2-1.689-8.293-5.422-8.293-9.955 0-2.711.738-4.48 2.747-6.614 1.644-1.75 3.635-2.808 8.4-4.462 5.049-1.75 6.862-2.755 7.84-4.355.817-1.342.844-2.365.844-30.444 0-28.498.018-29.084.889-30.49 1.049-1.706 2.969-2.488 8.391-3.421l42.507-7.618 5.431-.942 1.529.95c3.058 1.885 2.924.17 2.924 36.65 0 33.938-.168 37.778-1.777 41.475-1.218 2.773-4.747 6.178-7.885 7.6-7.058 3.2-15.182-.071-17.36-7.005-.613-1.937-.63-2.524-.15-4.249 1.208-4.31 4.64-7.102 11.43-9.297 4.125-1.334 5.947-2.302 7.28-3.885l1.129-1.342v-17.83c0-16.445-.053-17.885-.773-18.756a2.85 2.85 0 0 0-1.831-.978L81.928 75.69a4.45 4.45 0 0 0-2.098.888l-1.138.898v24.01c-.027 25.954-.258 30.648-1.724 34.061-1.138 2.65-4.374 5.813-7.236 7.085-2.551 1.128-7.369 1.422-9.911.586z"/></svg>