<svg xmlns="http://www.w3.org/2000/svg" width="192" height="192" viewBox="0 0 192 192"><path d="M135.73 63.117q-.016.056 0 .104c.048.176.56.584 1.216.96.72.4 1.6 1.28 2.04 2.04q.28.448.536.792c.256.28.488.472.616.448a4 4 0 0 0 .96-1.248 6.4 6.4 0 0 1 2.056-2.048 4 4 0 0 0 1.167-.88l.024-.04c.024-.128-.16-.344-.423-.592a8 8 0 0 0-.816-.56 6.4 6.4 0 0 1-2.04-2.04c-.376-.656-.792-1.176-.968-1.224q-.152.032-.416.296a8 8 0 0 0-.632.928 6.4 6.4 0 0 1-2.04 2.048 4 4 0 0 0-1.28 1.024zm-17.007-24.319c.216 0 .92-.8 1.56-1.776a8 8 0 0 1 2.824-2.72c.968-.56 1.64-1.152 1.64-1.472s-.68-.912-1.68-1.472a6 6 0 0 1-2.656-2.688c-1.28-2.28-1.872-2.28-3.176 0a6.16 6.16 0 0 1-2.672 2.68c-2.192 1.232-2.216 1.864-.104 2.936 1.232.624 1.84 1.216 2.736 2.656.624 1.016 1.312 1.848 1.52 1.856zM50.718 86.66l-.136.032q-.024 0-.04.024a3.2 3.2 0 0 0-.72 1.016 4 4 0 0 1-1.704 1.728 8 8 0 0 0-.8.48c-.216.2-.36.36-.368.432 0 .024.048.064.064.08.096.192.472.488.984.736a4.8 4.8 0 0 1 1.736 1.712q.256.448.504.768.296.352.416.4c.048-.008.12-.08.176-.128a4 4 0 0 0 .672-.96 4.8 4.8 0 0 1 1.76-1.72 4.8 4.8 0 0 0 .88-.576q.32-.312.096-.568a3.2 3.2 0 0 0-.856-.584 4.8 4.8 0 0 1-1.744-1.72 8 8 0 0 0-.56-.848 1.1 1.1 0 0 0-.36-.304m121.34 64.965-.152-.032a32 32 0 0 0-1.536-.36l-.768-.16-.904-.16-.672-.096-.064-1.44-.088-2.16a24 24 0 0 0-.232-2.752c-.056-.48-.136-.688-.2-.96a3.7 3.7 0 0 0-1.256-1.72 8 8 0 0 0-2.256-1.151q-.431-.136-.88-.184l-.847-.088h-.896v-1.192l-.056-.824a8 8 0 0 0-.272-1.608 8.8 8.8 0 0 0-1.232-2.56 8 8 0 0 0-2.16-1.856 8 8 0 0 0-2.808-1.056 16 16 0 0 0-1.576-.184l-.48-.032c-.368-.024-.856-.024-1.28-.032-.8 0-1.56-.008-2.632.008l-2.064.04-.808.024a12.8 12.8 0 0 0-3.055.52 16 16 0 0 0-.96.504 9 9 0 0 1-1.24.6c-.024.024-.12.08-.136.104-.056.08-.352.152-.776.2l-.096.024h-.032l-.16.016-.152.016a24 24 0 0 1-1.448.08c-.32 0-.64.024-1.04.04l-.28.016-2.592.08-1.04.024-.024-.16h-.04v-.24l-.264-1.632c-.48-2.88-2.24-6.256-4.376-8.384l-.08-.08a15.2 15.2 0 0 0-6.832-3.84l-.215-.063-.504-.088a16 16 0 0 0-2.136-.288h-.08a16 16 0 0 0-2.192.008l-.4.024h-.048a16 16 0 0 0-1.488.264q-.56.104-1.12.256a24 24 0 0 1-2.24.624v-.008l-.056.016c-.008 0-.056-.112-.072-.12a5.6 5.6 0 0 1-.592-1.008l-.04-.08c-.728-1.44-1.76-3.92-2.384-5.92a72 72 0 0 1-1.848-8.488l-.112-.64a64 64 0 0 1-.584-4.447c-.176-2.232-.128-3.12-.544-3.12-.28 0-1.96 1.712-3.503 3.328-2.28 2.375-3.2 3.223-4.144 3.495 1.168-.264 2.336-.976 3.744-2.296l.847-.8-.192 5.6c-.32 9.44.624 15.543 3.384 21.84l1.376 3.119 5.92.168c3.424.096 6.288.32 6.76.528 1.36.592 3.143 2.344 3.751 3.68.392.864.568 2.016.576 3.68v2.415h1.648c1.12 0 2.12-.24 3.176-.784 1.384-.696 1.912-.776 5.24-.776 3.816 0 5.311.336 6.615 1.496.84.744 1.744 2.84 1.76 4.048 0 .96.064 1.016 1.12 1.016.872 0 1.376.248 2.192 1.064 1.048 1.04 1.064 1.104 1.064 3.784 0 2.064.096 2.68.392 2.552 4.768-2.104 7.68-2.536 11.087-1.664 6.016 1.544 10.071 5.624 11.551 11.623l.496 2.016h6.48v-20.783c0 4.496-.04 7.8-.08 8.127v.448l-.016-.008v.032l-.032-.016v.016l-.112-.048v.024c-.048-.008-.36-.144-.528-.208-.352-.112-.608-.192-1.28-.424a24 24 0 0 0-1.896-.576zM95.95 102.851c-1.488-.024-2.496-.72-5.064-3.552-2.088-2.304-3.463-3.88-3.823-3.488-.056.056-.224 2.184-.416 4.08l-.12.96q-.12 1.12-.272 2.24l-.024.176a64 64 0 0 1-.4 2.48l-.048.256q-.368 2.024-.848 3.872l-.16.64q-.464 1.744-1.016 3.36l-.096.303a40 40 0 0 1-1.632 3.904l-.352.744a32 32 0 0 1-1.312 2.376l-1.312 2.192-.224.016-.048.072h-1.456l-1.912.088c-1.736.08-3.424.272-4.296.448q-.64.16-1.24.4l-.063.024-.288.128a16 16 0 0 0-1.336.752 11.2 11.2 0 0 0-4.32 5.84l-.104.376-.112.512-.16.672v.36h-.056l-.008.08h-.072l-2.344.024-1.16.048-.184.008-.456.016a16 16 0 0 0-1.928.2 4 4 0 0 1-.992.104h-.056c-.424.064-.672-.056-.992-.384l-.68-.488a8 8 0 0 0-1.44-.864l-.064-.04-.344-.128a8 8 0 0 0-1.807-.424 72 72 0 0 0-4.904-.096 80 80 0 0 0-5.024.096l-.344.016-.24.04a4.8 4.8 0 0 0-1.736.536 8.24 8.24 0 0 0-4.448 6.703l-.08.848v.976h-2.183l-1.552.056a24 24 0 0 0-2.064.152q-.296.056-.576.144a8 8 0 0 0-.8.352 6.4 6.4 0 0 0-1.488.96q-.248.256-.456.528l-.2.32-.112.24c-.352.848-.48 2.048-.568 4.048l-.16 3.632-.24.04v.16h-.856c-.24 0-.96.152-1.6.28l-.528.112-2.08.52c-.288.08-.64.168-.88.248l-.84.288-.952.36v12.247h10.223l.496-2.016c1.48-6 5.536-10.08 11.551-11.623a18 18 0 0 1 7.304.072c.616.176.672.048.8-1.92.112-1.88.232-2.184 1.136-2.992.904-.816 1.208-.896 3.296-.896h2.296l.208-1.52c.264-2.008 1.6-3.856 3.287-4.528.952-.376 2.288-.512 5.064-.512 4.048 0 5.192.296 6.52 1.712.664.704.752.72 1.952.296.688-.24 1.784-.448 2.424-.448 1.12 0 1.183-.048 1.367-1.224.264-1.616 1.896-3.703 3.6-4.607 1.12-.592 1.864-.728 3.968-.728h2.576l1.712-3.36c3.28-6.416 4.32-9.76 4.928-15.703.328-3.304.264-7.744-.2-13.903l-.168-2.192 1.088 1.2c1.84 2.032 2.935 2.68 4.52 2.704" opacity=".5"/><path d="M97.012 102.73a3.2 3.2 0 0 1-.776.096l-.224.032h-.016l-.064-.016c-1.568-.04-2.496-.84-4.368-2.792l-1.312-1.416.24 2.496c.464 6.16.536 10.607.2 13.92-.6 5.935-1.648 9.279-4.92 15.694l-1.711 3.36h-2.584c-2.096 0-2.84.136-3.96.72-1.712.912-3.344 3-3.6 4.616-.192 1.176-.248 1.224-1.368 1.224-.64 0-1.736.2-2.432.448-1.2.424-1.288.408-1.952-.296-1.327-1.416-2.463-1.712-6.52-1.712-2.775 0-4.111.136-5.055.512-1.68.68-3.024 2.52-3.296 4.527l-.2 1.52h-2.296c-2.088 0-2.4.08-3.303.896-.904.808-1.016 1.112-1.136 3-.128 1.96-.176 2.08-.8 1.912a18 18 0 0 0-7.296-.072c-6.016 1.544-10.079 5.624-11.55 11.623l-.505 2.016h143.3l-.496-2.016c-1.48-6-5.536-10.08-11.55-11.623-3.409-.88-6.32-.44-11.088 1.664-.296.128-.392-.496-.392-2.552 0-2.68-.016-2.736-1.056-3.784-.816-.816-1.328-1.064-2.192-1.064-1.056 0-1.12-.056-1.128-1.016-.008-1.208-.92-3.303-1.76-4.047-1.303-1.16-2.8-1.496-6.607-1.496-3.336 0-3.864.08-5.248.776a6.7 6.7 0 0 1-3.176.784h-1.64v-2.416c-.016-1.664-.192-2.816-.584-3.68a8.8 8.8 0 0 0-3.751-3.68c-.472-.208-3.336-.432-6.752-.528l-5.92-.16-1.376-3.128c-2.76-6.295-3.712-12.399-3.384-21.839l.36-6.64-1.335 1.376c-1.408 1.32-2.264 2.496-3.424 2.76M49.715 63.74c.264-.08.8-.64 1.264-1.376.048-.08.144-.16.2-.24a4.8 4.8 0 0 1 1.784-1.807c.12-.08.24-.224.352-.288.752-.48 1.335-1.024 1.391-1.264l-.024-.12c-.08-.24-.64-.712-1.36-1.104a5.2 5.2 0 0 1-2.24-2.264c-.415-.744-.887-1.304-1.151-1.408l-.12-.056c-.256.032-.84.672-1.336 1.472a6.4 6.4 0 0 1-2.328 2.264 3.6 3.6 0 0 0-1.336 1.096.8.8 0 0 0-.032.24c.096.28.672.776 1.392 1.168a5.2 5.2 0 0 1 2.24 2.256c.384.72.832 1.247 1.104 1.383z" opacity=".75"/><path d="m96.004 28.118-2 1.12c-.264.144-.52.32-.784.464l-.032.032-.04.016a40 40 0 0 0-3.48 2.384l-.08.064a48 48 0 0 0-4.991 4.456c-1.408 1.52-2.92 3.287-3.632 4.287l-.04.056c-.8 1.12-1.672 2.688-2.504 4.344-1.2 2.4-2.32 5.008-2.88 7.016a32 32 0 0 0-.992 5.567l-.048.432q-.064.784-.088 1.56c-.032.552-.08 1.12-.08 1.64-.016.96.008 1.888.08 2.704l.224 2.352c.016 0 .096-.08.096-.08l-.088.12.008.112-.536.56c-.072.088-.032.096-.144.224-.192.2-.288.256-.432.368l-1.312 1.36c-1.704 1.76-2.56 2.88-2.848 4.056q.032.256-.064.376h-.016c-.128.88.04 1.84.416 3.151.576 2.016 1.312 4.432 2.008 6.784.752 2.536 1.504 5.12 2.184 7.36 1.328 4.336 2.44 7.871 2.64 8.255q.28.584.616 1.04.16.208.328.392.176.216.368.4a4 4 0 0 0 1.064.672q.4.152.816.16a3.2 3.2 0 0 0 .96-.12 3.5 3.5 0 0 0 1.344-.936c.4-.424.984-1.192 1.504-1.872 1.031-1.48 2.2-2.624 2.76-2.68a2.4 2.4 0 0 1 .767-.048c.328-.08 1.72.736 3.808 3.04 2.568 2.824 3.576 3.52 5.064 3.544h.064q.12 0 .232-.024a8 8 0 0 0 .776-.096c.936-.272 1.864-1.12 4.136-3.496 1.544-1.616 3.04-2.944 3.32-2.944.36-.16.743-.32 1.36 0 .615.384 1.055.896 1.567 1.36.152.16.296.296.448.48q.48.576.976 1.312l.184.24c.928 1.2 1.544 1.824 2.144 2.056q.064.04.144.064.184.048.376.056.248.04.536.048a2.8 2.8 0 0 0 1.472-.48 5.6 5.6 0 0 0 1.784-2.176c.44-.88 6.024-19.439 7.023-23.263.112-.448.36-1.36.368-1.472-.04-1.448-.912-2.928-3.08-5.2l-2.415-2.551.176-2.264c.064-.784.056-1.568.064-2.344q-.008-1.008-.056-2.08-.024-.664-.072-1.328l-.024-.344a40 40 0 0 0-.72-4.568l-.04-.168v-.008a40 40 0 0 0-.848-2.944 45 45 0 0 0-3.432-7.471l-.272-.48a40 40 0 0 0-1.992-2.88l-.4-.512a40 40 0 0 0-1.64-1.944c-2.28-2.456-5.063-4.944-7.24-6.352l-.135-.088a40 40 0 0 0-2.16-1.376zm.336 18.479a7.03 7.03 0 0 1 4.456 1.824q1.112.976 1.792 2.272.144.264.264.528a6.96 6.96 0 0 1 0 5.695l-.064.12a7.04 7.04 0 0 1-3.472 3.688l-.016.008-.024.008a7.2 7.2 0 0 1-4.176.704 6.4 6.4 0 0 1-1.8-.32c-1.392-.52-2.896-1.888-3.784-3.32l-.168-.28c-.08-.136-.192-.28-.256-.424q-.104-.248-.176-.511-.056-.136-.096-.28a8 8 0 0 1-.24-1.2l-.016-.064a8 8 0 0 1 0-1.384v-.184q.016-.232.064-.44l.048-.352a8 8 0 0 1 .352-1.312l.04-.112a7.2 7.2 0 0 1 1.4-2.432 7.2 7.2 0 0 1 2.696-1.64 7.6 7.6 0 0 1 3.176-.584zM76.733 73.18q.312-.008.576.04c.352.072.64.24.912.624q.216.28.424.76c.208.48.288.704.448 1.168q.24.704.52 1.68a424 424 0 0 1 2.936 11.35c.4 1.633.64 2.72.64 2.88a.8.8 0 0 1-.064.329 3.2 3.2 0 0 1-1.872 1.736 1.6 1.6 0 0 1-.36.056 2.7 2.7 0 0 1-1.44-.552.8.8 0 0 1-.2-.24 8 8 0 0 1-.776-1.928 72 72 0 0 1-.776-2.68l-1.088-4.136a192 192 0 0 1-2.176-8.992.8.8 0 0 1 .064-.32 3.36 3.36 0 0 1 1.88-1.72 1.6 1.6 0 0 1 .352-.056m38.646.312c.664 0 1.328.192 1.664.568.288.32.52 1.056.52 1.64 0 1.872-4.224 17.215-4.864 17.68-.68.503-1.944.535-2.736.08-1.336-.785-1.264-1.489 1.064-10.392 1.216-4.663 2.432-8.727 2.704-9.031.328-.368.992-.552 1.648-.544m27.76 11.199a4 4 0 0 0-.793-.984.8.8 0 0 0-.68-.032c-.432.304-.936 1-1.576 2.16a4.8 4.8 0 0 1-.816 1.048l-.144.16h-.016a8 8 0 0 1-1.296.928c-.104.064-.16.128-.272.192a8 8 0 0 0-1.648 1.216.8.8 0 0 0-.048.624q.456.64 2.2 1.591c.912.496 1.552 1.208 2.288 2.544q.344.608.688 1.064a4 4 0 0 0 .6.656q.136.08.272.08c.296-.112.944-.872 1.536-1.816a6.9 6.9 0 0 1 2.6-2.656c2.688-1.464 2.688-1.976-.016-3.495-1.088-.616-1.704-1.272-2.464-2.648-.136-.248-.272-.424-.416-.64z"/></svg>