<svg xmlns="http://www.w3.org/2000/svg" width="192" height="192" viewBox="0 0 192 192"><path d="M18.32 96.186a64 64 0 0 0-1.136 5.336c-2.528 14.104-1.36 32.99 6.952 44.599a31.6 31.6 0 0 0 21.536 13.2c40.95 6.432 87.647-22.384 98.35-29.792 4.144-2.88 19.624-16.056 23.616-23.384l-18.624-1.24v4.776h-19.28v-6.064l-22.344-1.488v7.52h-6.048v-7.92l-16.824-1.12v9.072h-6.04v-9.48l-17.264-1.152v10.632h-6.016v-11.04l-12.296-.816v11.856h-6.08V97.417zm117.4 7.832v.032h.528zm-61.711-63.88a3 3 0 0 1 .52-.095c8.568-1.752 17.944-1.976 28.36-.096 25.616 4.752 54.207 19.304 63.943 39.455 2.976 6.144 4.2 12.8 2.912 19.824-.456 2.36-1.68 3.8-2.104 6.92 6.208-9.056 10.088-19.44 7.6-29.944-5.24-22.448-34.28-39.071-60.767-43.247-35.12-5.496-61.583 8.48-78.143 28.272 11.096-9.68 23.2-17.992 37.679-21.088" opacity=".5"/><path d="M88.047 38.275a68 68 0 0 0-13.52 1.44 3 3 0 0 1-.496.104 71.76 71.76 0 0 0-37.703 21.408 89.6 89.6 0 0 0-18.016 34.959c-1.92 8.488-1.52 17.28 2.496 25.88 22.568 49.967 119.8 18.904 146.82-15.92a24 24 0 0 0 2.464-6.952c1.224-6.984.032-13.68-2.912-19.824-9.768-20.152-38.679-35.055-64.295-39.743a80 80 0 0 0-14.84-1.352m13.288 42.08h10.872q4.616.007 7.536 2.48 2.944 2.447 2.936 6.927c0 3.104-.96 5.528-2.936 7.144q-2.912 2.424-7.76 2.424h-4.6v10.32h-6.048zm-64.519.023h6.048V91.93H55.15V80.386h6.048v29.296h-6.016V97.81H42.894v11.872h-6.08zm30.88 0h7.024L81.51 92.09l6.824-11.704h6.92L84.518 97.81v11.872H78.47v-11.6h-.032v.032zm62.039 0h19.208v5.696h-13.224v5.952h11.84v5.688h-11.84v6.344h13.288v5.624h-19.28zm-22.32 5.728v7.6h4.368c2.72 0 4.848-1.232 4.848-3.752-.064-2.68-2.128-3.848-4.912-3.848z"/></svg>