<svg xmlns="http://www.w3.org/2000/svg" width="192" height="192" viewBox="0 0 192 192"><path d="M120.53 16.101q-2.952.24-5.856 1.144c-7.712 2.408-14.864 8.392-20.104 18.424-3.008 5.76-5.48 9.792-7.632 12.256-2.16 2.464-3.784 3.28-5.504 3.248-1.712-.04-3.88-1.08-6.704-3.28-2.816-2.208-6.232-5.48-10.496-9.552-4.368-4.16-9.16-6.728-13.8-7.576s-9.16.08-12.68 2.856c-7.04 5.544-9.744 17.832-4.112 36.36l.016.048 7.16 21.128c3.744 19.976 9.912 32.464 17.984 39.728 7.96 13.088 17.016 24.96 27.744 34.936 5.824 7.08 12.768 10.616 20.12 10.136s14.864-4.864 22.208-12.8c18.976-20.528 28.104-55.544 32.176-94.144 2.416-22.888-8.632-41.384-23.184-49.12-5.456-2.904-11.44-4.296-17.336-3.792m5.544 3.2c3.512.432 7 1.576 10.32 3.344 13.312 7.08 23.84 24.312 21.552 46.04-4.048 38.304-13.256 72.768-31.36 92.352-7.016 7.576-13.88 11.392-20.128 11.808-6.24.408-12.112-2.456-17.496-9.008l-.072-.08-.08-.08c-10.552-9.776-19.496-21.496-27.4-34.504l-.12-.2-.176-.16c-7.464-6.56-13.56-18.48-17.264-38.4l-.024-.104-7.192-21.24c-5.44-17.896-2.496-28.624 3.056-33 2.768-2.184 6.28-2.944 10.192-2.232s8.192 2.944 12.192 6.76c4.264 4.064 7.704 7.376 10.736 9.752 3.04 2.368 5.72 3.88 8.56 3.944 2.84.056 5.44-1.488 7.92-4.32 2.464-2.824 4.992-7.016 8.048-12.856 4.944-9.464 11.424-14.752 18.272-16.888a24.8 24.8 0 0 1 10.464-.92zm-4.336 5.384c-11.176.704-21.984 9.4-30.104 27.176-2.192 4.816-4.36 8.208-6.4 10.336-2.04 2.136-3.864 2.984-5.632 3.04-1.776.072-3.68-.672-5.816-2.344s-4.416-4.24-6.776-7.536c-4.64-6.464-8.752-11.04-12.432-13.816s-7.2-3.888-10.176-2.536c-2.96 1.36-4.68 4.72-5.648 9.488q-1.456 7.128-.688 19.136l3.112-.2c-.496-7.84-.24-14 .64-18.32.88-4.312 2.368-6.568 3.888-7.264 1.52-.688 3.744-.272 6.992 2.184s7.24 6.832 11.776 13.144c2.464 3.44 4.888 6.216 7.384 8.176 2.496 1.952 5.12 3.12 7.856 3.016 2.72-.104 5.36-1.488 7.776-4.008s4.696-6.192 6.984-11.2c7.84-17.184 17.76-24.744 27.456-25.36s19.744 5.744 27.824 17.84l2.592-1.736c-8.464-12.672-19.44-19.92-30.608-19.216m-.072 8.496c-10.16.48-19.12 8.544-25.104 22.824-2.184 5.232-4.456 9.296-6.88 12.072s-4.928 4.24-7.84 4.584c-5.808.688-14.024-3.504-25.624-14.296l-2.128 2.288c11.84 11.008 20.6 16 28.128 15.112 3.76-.448 7.024-2.464 9.808-5.632 2.776-3.176 5.16-7.52 7.416-12.92 5.712-13.656 13.76-20.504 22.376-20.912 8.608-.408 18.448 5.664 27.64 19.464l2.6-1.728c-9.528-14.304-20.224-21.344-30.392-20.856m.064 9.8q-2.768.504-5.488 2.128c-7.232 4.28-14.472 13.904-22.16 27.632l2.72 1.52c7.584-13.52 14.816-22.784 21.032-26.464 3.112-1.84 5.84-2.328 8.464-1.568 2.624.768 5.304 2.896 7.968 6.816l2.592-1.76c-2.92-4.288-6.136-7.016-9.688-8.048a12 12 0 0 0-5.44-.256M56.346 65.493l-2.04 2.36c6.224 5.384 12.528 9.8 19.152 11.104l-.176-.04c5.952 1.92 8.8 4.728 10.288 8.16 1.48 3.416 1.52 7.656 1.104 12.232l-.008.064v22.096-.144c-.4 4.448.744 7.56 3.08 8.88 2.328 1.32 5.24.344 7.096-1.84 1.36-1.6 4.728-3.792 6.944-4.032 2.168-.232 4.4-.112 6.208-1.6a4.64 4.64 0 0 0 1.56-3.296c.08-1.352-.208-2.896-.848-4.856l-2.96.968c.56 1.76.736 2.976.688 3.696-.04.72-.184.88-.424 1.08-.48.4-2.256.656-4.552.904-3.6.384-7.056 2.832-9 5.12-1.184 1.392-2.368 1.6-3.176 1.144s-1.856-2.08-1.504-5.88l.008-.08v-22.08.136c.424-4.752.48-9.512-1.36-13.76-1.832-4.24-5.632-7.776-12.184-9.888l-.08-.024-.096-.016c-5.664-1.12-11.656-5.16-17.72-10.4zm78 4.416c-12.32-.16-21.736 1.104-27.944 4.4-3.104 1.648-5.424 3.864-6.68 6.656-1.248 2.8-1.392 6.08-.496 9.712l.336 1.384 1.416-.208c13.48-2.048 24.28-10.12 34.4-19.224l2.96-2.664zm-4.96 3.408c-8.368 7.096-17.08 13.04-27.312 15.024-.344-2.36-.248-4.424.496-6.096.92-2.056 2.64-3.76 5.296-5.176 4.48-2.376 12.136-3.488 21.52-3.76zm-85.68 5.72 1.968 2.624c4.984 6.68 10.48 11.584 16.768 13.84 6.296 2.256 13.312 1.736 20.864-2.112l1.176-.6-.392-1.264c-1.4-4.48-6.016-7.28-12.416-9.136s-14.832-2.8-24.688-3.216zm7.04 3.56c7.936.488 14.96 1.32 20.056 2.792 5.008 1.44 7.808 3.472 9.256 5.784-6.152 2.688-11.6 3.168-16.56 1.392-4.528-1.624-8.72-5.28-12.752-9.968m44.72 3.696-3.12.024.176 30.04 3.12-.016zm49.2 16-3.12.056c.328 16.576-5.568 36.568-14.064 48.6l2.544 1.8c9.04-12.8 14.992-33.104 14.64-50.456m-12.024 3.488c-4.24-1.344-9.84.376-17.272 4.384l1.488 2.752c7.144-3.848 12.248-4.976 14.84-4.16 1.296.416 2.104 1.16 2.704 2.616.6 1.448.872 3.648.656 6.544l3.112.232c.24-3.2 0-5.84-.88-7.968a7.52 7.52 0 0 0-4.648-4.4m-59.536 2.88c-3.808 6.12-8.088 8.616-11.568 8.808s-6.432-1.736-8.048-5.52l-2.872 1.232c2.032 4.752 6.288 7.68 11.096 7.408s9.88-3.584 14.048-10.272zm54.416 8.232-.208.232c-6.24 5.72-9.832 13.104-17.472 15.864-2.56.92-4.424 1.328-6.208 1.864a15.2 15.2 0 0 0-5.312 2.728c-.704.56-1.176.72-1.76.72a5.6 5.6 0 0 1-2.464-.856 10.4 10.4 0 0 0-3.76-1.28c-.968-.128-1.512-.144-2.208-.432-6.448-2.8-11.704-7-17.832-10.656l-1.792 2.544c14.68 12.048 14.44 13.176 19.256 17.936 4.712 4.656 9.224 6.528 13.44 6.064 4.208-.472 7.808-3.144 11.04-6.704 6.464-7.136 11.856-18.216 17.576-25.936zm-32.44 12.544c-.944.36-1.152 1.024-1.32 1.488-.32.92-.36 1.848-.424 2.72l-.064 1.168c-.016.32-.056.6-.032.496l3.048.64c.08-.384.08-.616.104-.96v-.056c.224.48.24.376.504 1.04l2.912-1.128c-.96-2.504-1.56-3.824-2.432-4.744a2.4 2.4 0 0 0-.856-.624 2.08 2.08 0 0 0-1.44-.04m22.52 2.512c-2.52 4.016-5.04 7.96-7.672 10.864-2.976 3.28-5.984 5.36-9.072 5.704s-6.584-.92-10.896-5.184c-2.352-2.32-3.64-3.92-6.184-6.448 1.064.56 1.984 1.232 3.128 1.728l.024.008h.008c1.216.496 2.208.528 2.984.632s1.448.24 2.64.904c1.36.776 2.648 1.256 4 1.264a5.92 5.92 0 0 0 3.704-1.4c1.496-1.2 2.68-1.688 4.28-2.176s3.616-.928 6.36-1.92c2.64-.952 4.768-2.376 6.696-3.976m-13.944 29.944a4.4 4.4 0 0 0-2.208.144 4.16 4.16 0 0 0-2.88 3.288c-.248 1.656.568 3.456 2.344 5.064l2.096-2.312c-1.304-1.176-1.4-1.928-1.352-2.288.056-.352.344-.648.776-.792s.8-.08 1.056.184c.248.256.624.976.272 2.76l3.064.608c.472-2.4.08-4.344-1.104-5.552a4 4 0 0 0-2.064-1.104"/></svg>