<svg width="192" height="192" version="1.1" xmlns="http://www.w3.org/2000/svg"><path d="m17.438 126.69h12.571c1.5714 0 1.746-1.3968 1.0476-2.1824-2.8808-3.4046-2.9681-3.4046-2.8808-10.039v-37.8c0-6.6346 0-6.6346 2.8808-10.039 0.69838-0.78568 0.52378-2.1824-1.0476-2.1824h-12.571c-1.5714 0-1.746 1.3968-1.0476 2.1824 2.8808 3.4046 2.9681 3.4046 2.8808 10.039v37.8c0 6.6346 0 6.6346-2.8808 10.039-0.69838 0.78568-0.52378 2.1824 1.0476 2.1824zm53.077 0.87297c6.0235 0 11.349-2.6189 14.666-7.5949 0.34919-0.52378 0.52378-0.43648 0.61108 0.1746 0.34919 5.1506 2.5316 7.1584 6.46 7.1584 2.6189 0 4.976-0.87298 6.2854-2.0952 0.96027-0.78567 0.78568-2.0951-0.61109-2.0951-2.9681 0.0873-3.8411-1.0476-3.8411-4.5395v-22.785c0-12.134-6.46-17.198-17.285-17.198-10.301 0.08729-17.983 5.8489-17.983 11.698 0 2.2697 1.3968 4.0157 3.8411 4.0157 7.0711 0 5.0633-11.349 14.142-11.349 6.0235 0 8.2933 3.9284 8.7298 10.039 0 0.52378-0.26189 0.87298-0.78568 1.0476-14.666 3.0554-28.721 8.6425-28.721 20.515 0 8.2933 6.7219 13.007 14.491 13.007zm-5.6743-14.229c0-6.9838 6.8092-12.222 19.031-15.015 1.1349-0.26189 1.746 0 1.746 0.61108v7.6822c0 9.7773-5.7616 15.102-12.309 15.102-5.3251 0-8.4679-3.9284-8.4679-8.3806zm40.419 13.357h12.134c1.5714 0 1.746-1.3968 1.0476-2.1824-2.8808-3.4046-2.9681-3.4046-2.8808-10.039v-18.856c0-8.1187 5.2379-11.523 10.65-11.523 6.5473 0 8.817 3.8411 8.817 10.825v19.555c0 6.6346 0 6.6346-2.8808 10.039-0.69839 0.78568-0.52379 2.1824 1.0476 2.1824h12.134c1.5714 0 1.746-1.3968 1.0476-2.1824-2.8808-3.4046-2.8808-3.4046-2.8808-10.039v-18.158c0-8.206 5.3251-12.222 10.388-12.222 6.1108 0 8.4679 3.8411 8.4679 10.825v24.88c0.0873 5.4124 2.357 7.5076 6.2854 7.5076 2.9681 0 5.7616-1.5714 6.8092-2.7935 0.87298-1.0476 0.78568-2.4443-0.78568-2.2697-2.7935 0.2619-3.8411-0.17459-3.8411-3.6665v-23.832c0-12.484-6.8092-16.237-14.142-16.237-5.0633 0-10.214 2.0951-13.968 6.8965-0.34918 0.52378-0.78568 0.52378-1.1349-0.0873-2.5316-5.0633-7.333-6.8092-12.571-6.8092-4.8887 0-9.9519 1.746-13.444 6.0235-0.52379 0.61108-1.0476 0.43648-1.0476-0.34919v-3.4046c0-1.4841-1.3968-2.0951-3.0554-1.4841l-6.46 2.2697c-1.4841 0.61108-1.3968 1.5714-0.52379 2.6189 2.4443 3.0554 2.6189 3.0554 2.6189 9.8646v20.428c0 6.6346 0 6.6346-2.8808 10.039-0.69838 0.78568-0.52379 2.1824 1.0476 2.1824z"/></svg>
