<svg xmlns="http://www.w3.org/2000/svg" width="192" height="192"><path d="M17.438 126.69h12.571c1.571 0 1.746-1.397 1.048-2.182-2.881-3.405-2.968-3.405-2.881-10.04v-37.8c0-6.634 0-6.634 2.88-10.038.699-.786.524-2.183-1.047-2.183H17.438c-1.571 0-1.746 1.397-1.048 2.183 2.881 3.404 2.969 3.404 2.881 10.039v37.8c0 6.634 0 6.634-2.88 10.039-.699.785-.524 2.182 1.047 2.182m53.077.873c6.024 0 11.349-2.619 14.666-7.595.35-.524.524-.436.611.175.35 5.15 2.532 7.158 6.46 7.158 2.619 0 4.976-.873 6.285-2.095.96-.786.786-2.095-.61-2.095-2.969.087-3.842-1.048-3.842-4.54V95.786c0-12.134-6.46-17.198-17.285-17.198-10.3.088-17.983 5.85-17.983 11.698 0 2.27 1.397 4.016 3.841 4.016 7.071 0 5.064-11.349 14.142-11.349 6.024 0 8.294 3.928 8.73 10.039q0 .786-.785 1.048c-14.666 3.055-28.721 8.642-28.721 20.515 0 8.293 6.721 13.007 14.49 13.007zm-5.674-14.229c0-6.984 6.809-12.222 19.03-15.015 1.136-.262 1.747 0 1.747.611v7.682c0 9.778-5.762 15.102-12.31 15.102-5.324 0-8.467-3.928-8.467-8.38m40.419 13.357h12.134c1.571 0 1.746-1.397 1.047-2.182-2.88-3.405-2.968-3.405-2.88-10.04V95.615c0-8.12 5.237-11.523 10.65-11.523 6.547 0 8.817 3.84 8.817 10.825v19.555c0 6.634 0 6.634-2.881 10.039-.699.785-.524 2.182 1.047 2.182h12.134c1.572 0 1.746-1.397 1.048-2.182-2.88-3.405-2.88-3.405-2.88-10.04V96.314c0-8.206 5.324-12.222 10.387-12.222 6.11 0 8.468 3.84 8.468 10.825v24.88c.087 5.412 2.357 7.507 6.285 7.507 2.969 0 5.762-1.571 6.81-2.793.873-1.048.785-2.445-.786-2.27-2.794.262-3.841-.175-3.841-3.667V94.741c0-12.484-6.81-16.237-14.142-16.237-5.063 0-10.214 2.096-13.968 6.897-.35.524-.786.524-1.135-.087-2.532-5.064-7.333-6.81-12.571-6.81-4.889 0-9.952 1.746-13.444 6.024-.524.611-1.048.436-1.048-.35v-3.404c0-1.484-1.396-2.095-3.055-1.484l-6.46 2.27c-1.484.61-1.397 1.571-.524 2.619 2.444 3.055 2.619 3.055 2.619 9.864v20.428c0 6.635 0 6.635-2.88 10.04-.7.785-.525 2.182 1.047 2.182z"/></svg>