<svg xmlns="http://www.w3.org/2000/svg" width="192" height="192" viewBox="0 0 192 192"><path d="M120.24 20.863v25.936a29.9 29.9 0 0 1 10.747 2.917l12.968-22.229c-7.18-3.758-15.119-6.336-23.715-6.625zm-12.912 1.543c-7.921 1.725-15.642 4.883-22.417 10.183l16.657 19.857a29.9 29.9 0 0 1 10.107-4.667zm47.525 12.215-16.676 19.857a29.9 29.9 0 0 1 6.343 9.148l24.242-8.715c-3.084-7.497-7.52-14.546-13.909-20.29M75.99 42.075c-4.944 6.408-8.852 13.778-10.634 22.19l25.541 4.5c.896-3.711 2.633-7.102 4.743-10.07zm-45.85 14.21a12.046 12.046 0 0 0-11.143 12.008 12.046 12.046 0 0 0 24.092 0A12.046 12.046 0 0 0 30.14 56.285M172.51 67.37l-25.522 4.498v.019c.424 3.797-.053 7.588-1.016 11.086l24.148 8.903c2.467-7.729 3.604-15.987 2.39-24.506m-107.87 9.9c.328 8.095 2.08 16.244 6.117 23.828L93.211 88.13c-1.696-3.42-2.543-7.133-2.842-10.766zm-33.747 5.157c-3.537 0-7.077 3.54-7.077 7.077v72.803c0 3.547 3.54 7.077 7.077 7.077l.301.02c3.546 0 7.077-3.55 7.077-7.096V89.506c0-3.537-3.53-7.077-7.077-7.077zm111.63 8.451a29.9 29.9 0 0 1-7.905 7.83l12.78 22.36c6.842-4.336 13.02-9.936 17.58-17.24zm-44.194 4.179-19.782 16.469c5.464 5.994 12.047 11.114 20.026 14.323l8.865-24.355v-.02c-3.508-1.532-6.546-3.825-9.11-6.418zm28.59 7.51c-3.681 1.07-7.491 1.269-11.105.922l-4.574 25.334c8.028 1.089 16.362.768 24.544-1.901zm-67.608.527v55.995c0 6.023 6.023 12.046 12.046 12.046h.546c6.023 0 12.046-6.023 12.046-12.046V130.5a65.14 65.14 0 0 1-24.638-27.405z"/></svg>