<svg width="192" height="192" fill="none" xmlns="http://www.w3.org/2000/svg"><circle cx="96" cy="141" r="5" stroke="#000" stroke-width="10" stroke-linecap="round" stroke-linejoin="round"/><path d="M46 28a6 6 0 0 1 6-6h88a6 6 0 0 1 6 6v136a6 6 0 0 1-6 6H52a6 6 0 0 1-6-6V28Zm38 32v10m24-10v10" stroke="#000" stroke-width="12" stroke-linecap="round" stroke-linejoin="round"/><path d="M75 78a6 6 0 0 1 6-6h30a6 6 0 0 1 6 6v28a6 6 0 0 1-6 6H81a6 6 0 0 1-6-6V78Zm33-18a11.998 11.998 0 0 0-12-12 12 12 0 0 0-12 12" stroke="#000" stroke-width="12" stroke-linecap="round" stroke-linejoin="round"/></svg>