<svg xmlns="http://www.w3.org/2000/svg" width="192" height="192" viewBox="0 0 192 192"><path d="M54.44 172.88c-13.388-.979-25.867-9.545-31.593-21.686-2.169-4.619-3.633-9.68-3.747-14.807-.158-17.712-.1-65.201-.016-79.279.024-1.617-.018-3.24.296-4.84 1.797-13.997 11.965-26.47 25.318-31.04 3.594-1.21 7.37-2.11 11.181-2.125 25.754-.225 77.463-.024 79.206-.012 1.596.022 3.197-.007 4.774.313 13.32 1.768 25.266 11.076 30.272 23.54.321.267.823.327 1.013.746.302.71.127 1.504.222 2.25.15 1.335.604 2.61.842 3.929.239 1.205.45 2.417.605 3.636.02.96.288 31.48.146 77.197-.02 2.162-.002 4.326-.07 6.487-.825 14.139-10.23 27.279-23.295 32.713-4.207 1.725-8.727 2.956-13.3 3.01-21.383.159-70.59.063-80.254.005-.529-.015-1.087.007-1.6-.037m10.437-6.194c-1.038-.416-2.106-.766-3.08-1.326-.73-.661-1.498-1.794-1.14-2.831.225-.307-.018-.766.359-.918.85-1.092 1.5-2.323 2.294-3.455 1.19-1.81 2.634-3.43 4.047-5.064 1.132-1.305 2.32-2.56 3.51-3.812a6 6 0 0 0 1.201-1.785c.702-1.282 1.561-2.471 2.444-3.633.796-1.078 1.863-1.903 2.817-2.833.67-.612 1.398-1.17 2.21-1.581 1.531-1.154 2.99-2.405 4.468-3.626 1.135-1.037 2.182-2.182 3.047-3.455.347-.493.5-1.085.825-1.592.546-.922 1.168-1.798 1.67-2.746 1.443-2.605 2.962-5.168 4.326-7.816q.17-.361.336-.724c-.283-.892-.604-1.788-.625-2.735-.064-1.717.234-3.42.44-5.118.128-1.007.305-2.023.766-2.938.823-1.74 1.643-3.483 2.48-5.217.272-.508.513-1.065.983-1.424.685-.605 1.348-1.246 2.146-1.704 1.105-.684 2.302-1.198 3.503-1.686.116-1.005.248-2.014.572-2.976.49-1.63 1.637-2.933 2.755-4.168.777-.876 1.628-1.683 2.399-2.564.69-.852 1.078-1.894 1.598-2.85.58-1.16 1.283-2.26 2.134-3.242 1.025-1.21 2.105-2.377 3.031-3.664.86-1.299 1.509-2.752 1.8-4.286.405-1.726 1.451-3.255 2.81-4.374 1.323-1.133 2.93-1.87 4.555-2.468 1.182-.486 2.408-.872 3.674-1.066.476-.18 1.162-.076 1.585-.398.251-.67-.053-1.457.336-2.093.244-.47.774-.78.867-1.324-.137-.625.726-1.113.248-1.698-.099-.36-.23-.9.107-1.162.414.03.782.333 1.213.286.438-.034.556-.543.606-.899-.02-.63.374-1.115.887-1.408 1.063-.688 2.206-1.277 3.421-1.645a14.2 14.2 0 0 1 3.222-.389c1.305.076 2.57.492 3.762 1.01.514.268 1.09.466 1.509.882.369.415.538.996.975 1.349.295.094.47.375.684.582 1.95-.666 3.89-1.359 5.844-2.013 1.334-.387 2.678-.744 4-1.177l1.645-.514c.327-.755.642-1.522.766-2.34.305-1.855.398-3.74.803-5.579.371-1.321.504-2.686.784-4.02.167-.49.345-1.007.705-1.39.236-.263-.152-.664-.245-.952-.817-1.506-1.797-2.918-2.809-4.298-5.309-6.957-13.571-11.626-22.287-12.487-5.847-.107-11.696-.089-17.544-.118-20.184-.04-40.368-.054-60.552.05-1.997.028-3.996.005-5.991.088-12.094 1.332-22.958 10.072-26.835 21.607-.831 2.63-1.645 5.36-1.619 8.147-.14 11.829-.203 55.27-.034 79.536.056 1.976-.093 3.974.43 5.91 2.199 12.064 11.838 22.326 23.738 25.276 2.445.635 4.966 1.008 7.494.995 2.466.011 4.932.041 7.398.01.104-.021.838.025.532-.146zm34.818.01c-1.62-.201-3.264-.389-4.807-.949-.55-.19-1.024-.526-1.507-.84.017-.417-.046-.847.073-1.252.213-.433.78-.624.846-1.144.191-.99.137-2.04.647-2.95.41-1.11 1.193-1.99 1.926-2.89 1.636-2.142 3.119-4.395 4.536-6.685 1.389-2.253 2.624-4.594 3.858-6.934 1.016-1.889 2.141-3.724 3.465-5.415.598-.83 1.192-1.668 1.684-2.566.283-.433-.322-.493-.619-.448h-.452c-.315-.756-.582-1.534-.952-2.266-.279-.478-.802-.72-1.227-1.048-.097.02-.176.188-.267.263-1.495 1.7-3.128 3.275-4.788 4.812a49 49 0 0 0-2.463 2.33c-.735.71-1.772.976-2.768 1.017l-1.155.077c-1.23 1.097-2.52 2.132-3.937 2.987-1.192.759-2.54 1.323-3.579 2.31-1.479 1.338-2.849 2.809-4.487 3.96-2.102 1.498-4.298 2.86-6.406 4.349-1.448 1.03-2.926 2.05-4.16 3.338a6.5 6.5 0 0 0-.957 1.294c-.08.387.27.7.487.983a15.2 15.2 0 0 0 2.603 2.335c.798.623 1.475 1.377 2.204 2.074a3.1 3.1 0 0 0 1.645.845c.844.192 1.496.786 2.267 1.142.333.175.688.463.662.879.04.434.484.518.842.504 2.115.075 4.233.037 6.35.045 3.445-.018 6.892.022 10.337-.043.168.006.725-.034.29-.099-.06-.003-.147-.029-.191-.016zm39.053-.086c2.826-.443 5.63-1.12 8.256-2.274 4.896-2.102 9.332-5.33 12.65-9.52 3.404-4.196 5.68-9.254 6.705-14.55.36-1.625.323-3.3.377-4.954.002-.159.186-34.316.099-68.745-.02-1.59.006-3.184-.082-4.773.056-1.151-3.513.254-2.237 1.498-3.234 2.563-6.8 4.636-10.3 6.802-4.46 2.623-9.16 4.798-13.81 7.043-.327.201-.383.65-.769.798-.535.346-1.16.511-1.79.572-.392.062-.363.54-.384.843-.026 1.91.002 3.826-.173 5.732-.24 2.812-.772 5.589-1.354 8.347-.173.83-.473 1.656-1.048 2.295-1.128 1.337-2.618 2.436-2.775 4.396-1.097 2.147-1.323 4.561-2.127 6.804-.642 1.844-1.404 3.661-2.442 5.32-.315.451-.62.968-1.131 1.216-.676.172-1.305-.287-1.79-.703-.75-.534-1.589-1.258-2.552-1.313-.112.342.163.739.153 1.112.236 1.697.441 3.4.557 5.11.045.883-.35 1.713-.315 2.595-.01 1.086.035 2.172.053 3.258.588 1.745 1.227 3.484 1.519 5.309.283 1.726.391 3.478.406 5.225.005.862-.126 1.77-.672 2.47-.899 1.118-1.957 2.095-3.012 3.063-.913.81-1.861 1.58-2.749 2.419-2.251 2.058-4.385 4.245-6.69 6.244-1.536 1.47-2.934 3.08-4.251 4.747-.834 1.058-1.62 2.218-1.776 3.598-.038.692-.16 1.432.066 2.108.124.374.5.531.71.843.839 1.015 1.58 2.153 2.679 2.913.368.265.841.251 1.255.407.994.309 1.998.61 2.943 1.05.562.307.76.941 1.118 1.433.207.32.363.795.034 1.096-.157.154-.33.292-.493.44 6.796-.029 13.593-.04 20.39-.085 1.496-.029 2.998 0 4.49-.152.087-.01.175-.026.262-.038zm26.999-117.48-.222-.71c.066 1.04.14 2.08.128 3.122.094-.583.27-1.162.251-1.757-.021-.225-.091-.44-.157-.655"/></svg>