<svg width="192" height="192" fill="none" xmlns="http://www.w3.org/2000/svg"><circle cx="120" cy="96" r="4" stroke="#000" stroke-width="8" stroke-linecap="round" stroke-linejoin="round"/><circle cx="120" cy="120" r="4" stroke="#000" stroke-width="8" stroke-linecap="round" stroke-linejoin="round"/><circle cx="120" cy="144" r="4" stroke="#000" stroke-width="8" stroke-linecap="round" stroke-linejoin="round"/><circle cx="120" cy="168" r="4" stroke="#000" stroke-width="8" stroke-linecap="round" stroke-linejoin="round"/><circle cx="120" cy="72" r="4" stroke="#000" stroke-width="8" stroke-linecap="round" stroke-linejoin="round"/><circle cx="120" cy="48" r="4" stroke="#000" stroke-width="8" stroke-linecap="round" stroke-linejoin="round"/><circle cx="120" cy="24" r="4" stroke="#000" stroke-width="8" stroke-linecap="round" stroke-linejoin="round"/><circle cx="96" cy="96" r="4" stroke="#000" stroke-width="8" stroke-linecap="round" stroke-linejoin="round"/><circle cx="96" cy="120" r="4" stroke="#000" stroke-width="8" stroke-linecap="round" stroke-linejoin="round"/><circle cx="96" cy="144" r="4" stroke="#000" stroke-width="8" stroke-linecap="round" stroke-linejoin="round"/><circle cx="96" cy="168" r="4" stroke="#000" stroke-width="8" stroke-linecap="round" stroke-linejoin="round"/><circle cx="96" cy="72" r="4" stroke="#000" stroke-width="8" stroke-linecap="round" stroke-linejoin="round"/><circle cx="96" cy="48" r="4" stroke="#000" stroke-width="8" stroke-linecap="round" stroke-linejoin="round"/><circle cx="96" cy="24" r="4" stroke="#000" stroke-width="8" stroke-linecap="round" stroke-linejoin="round"/><circle cx="72" cy="96" r="4" stroke="#000" stroke-width="8" stroke-linecap="round" stroke-linejoin="round"/><circle cx="72" cy="120" r="4" stroke="#000" stroke-width="8" stroke-linecap="round" stroke-linejoin="round"/><circle cx="72" cy="144" r="4" stroke="#000" stroke-width="8" stroke-linecap="round" stroke-linejoin="round"/><circle cx="72" cy="168" r="4" stroke="#000" stroke-width="8" stroke-linecap="round" stroke-linejoin="round"/><circle cx="72" cy="72" r="4" stroke="#000" stroke-width="8" stroke-linecap="round" stroke-linejoin="round"/><circle cx="72" cy="48" r="4" stroke="#000" stroke-width="8" stroke-linecap="round" stroke-linejoin="round"/><circle cx="72" cy="24" r="4" stroke="#000" stroke-width="8" stroke-linecap="round" stroke-linejoin="round"/></svg>