<svg xmlns="http://www.w3.org/2000/svg" width="192" height="192" viewBox="0 0 192 192"><path d="M95.908 17.787c-8.32.123-15.888 4.661-19.661 12.218H58.174c-21.289 0-38.435 17.145-38.435 38.435v28.898l-3.528 32.727c-1.179 10.932 2.692 19.573 9.274 25.897 6.756 10.946 18.82 18.251 32.69 18.251h75.651c13.868 0 25.933-7.305 32.69-18.251 6.581-6.323 10.452-14.964 9.274-25.897l-3.528-32.727V68.44c0-21.29-17.146-38.435-38.435-38.435h-18.073c-3.773-7.557-11.342-12.077-19.661-12.218zm-1.473 8.934h3.13v13.745h11.533L96 53.9 82.902 40.466h11.533zm75.494 44.326-.03 17.734v9.079l3.462 31.6c2.67 24.328-21.502 36.752-43.559 36.78-22.535.052-45.069.02-67.604 0-22.057-.03-46.228-12.452-43.558-36.78l3.463-31.6v-9.08l-.03-17.734c49.285-.024 98.57-.01 147.86 0zM64.38 84.03c-3.129 0-5.247 2.152-5.247 5.925s2.118 6.04 5.247 6.04 5.244-2.267 5.244-6.04c0-3.743-2.115-5.925-5.244-5.925m31.625 0c-3.129 0-5.241 2.152-5.241 5.925s2.112 6.04 5.241 6.04c3.13 0 5.25-2.267 5.25-6.04 0-3.743-2.12-5.925-5.25-5.925m-19.293.028v.002c-2.914 0-5.463 2.241-5.463 6.045 0 3.865 2.453 5.919 5.367 5.919l.036-.03c1.503 0 2.788-.579 3.739-1.683l-1.407-1.63c-.552.614-1.321 1.073-2.242 1.073-1.687 0-2.79-1.377-2.79-3.739 0-2.331 1.256-3.715 2.82-3.715.829 0 1.443.4 2.026.922l1.379-1.659c-.767-.798-1.992-1.505-3.465-1.505m4.296.186v2.212h3.158l.03 9.353H86.8v-9.353h3.164v-2.212zm33.16 0V95.81h7.395v-2.206h-4.788v-2.672h3.93v-2.174h-3.93v-2.33h4.638v-2.182zm9.726.003V95.81h2.612v-4.17h1.439l2.21 4.17h2.913l-2.607-4.633c1.228-.552 2.056-1.624 2.056-3.342 0-2.73-1.992-3.588-4.446-3.588zm-20.497.058.03 11.505h4.295c2.485 0 4.482-1.042 4.482-3.404 0-1.534-.893-2.39-2.09-2.697v-.066c.952-.369 1.503-1.469 1.503-2.48 0-2.21-1.866-2.858-4.26-2.858zM64.382 86.27c1.564 0 2.576 1.386 2.576 3.687 0 2.331-.981 3.799-2.576 3.799-1.565 0-2.583-1.468-2.583-3.8 0-2.3.987-3.686 2.583-3.686m31.625 0c1.564 0 2.576 1.386 2.576 3.687 0 2.331-.981 3.799-2.576 3.799-1.565 0-2.577-1.468-2.577-3.8 0-2.3.981-3.686 2.577-3.686m10.026 0h1.228c1.227 0 1.809.339 1.809 1.228 0 .829-.551 1.349-1.81 1.349l-1.227.03zm20.473.03h1.348c1.35 0 2.116.4 2.116 1.535s-.736 1.72-2.116 1.72h-1.348zm-20.473 4.512h1.474c1.442 0 2.15.395 2.15 1.407 0 1.074-.739 1.57-2.15 1.57h-1.474zm-30.026 17.792c-5.737 0-10.583 2.213-15.123 6.017l6.32 7.638c2.946-2.485 5.154-3.835 8.222-3.835 3.16 0 4.846 1.476 4.846 4.268 0 3.221-2.364 5.271-10.156 5.271v8.808c9.787 0 11.595 2.05 11.595 5.578 0 2.945-2.635 4.422-6.746 4.422-3.313 0-6.686-1.753-9.539-4.422l-5.74 7.953c3.528 4.11 9.05 6.62 16.598 6.62l.03.066c9.694 0 18.07-4.85 18.07-13.685 0-5.89-3.68-9.537-8.957-11.162v-.313c5-2.209 7.483-5.581 7.483-10.06 0-8.436-6.625-13.164-16.902-13.164zm40.07.894c-3.528 2.209-6.906 3.527-12.212 4.57v7.79h8.801v24.115h-10l.03 10.12h31.019v-10.15h-8.378v-36.446z"/></svg>