<svg width="192" height="192" fill="none" xmlns="http://www.w3.org/2000/svg"><path d="m66 155-5.315 15M47 74.917h80a6.004 6.004 0 0 0 6-6V30a6 6 0 0 0-6-6H53a6 6 0 0 0-6 6v44.917Zm0 0v53.603a6.002 6.002 0 0 0 6 6.001h41m-26.5-20.529h16" stroke="#000" stroke-width="12" stroke-linecap="round" stroke-linejoin="round"/><path d="M121 21H57" stroke="#000" stroke-width="10" stroke-linecap="round" stroke-linejoin="round"/><path d="m128.347 103.611-5.434-5.426a4.05 4.05 0 0 0-6.23.616 4.049 4.049 0 0 0-.683 2.25v58.898a4.05 4.05 0 0 0 6.913 2.866l5.434-5.426a8 8 0 0 1 11.306 0l5.434 5.426a4.06 4.06 0 0 0 4.413.875 4.064 4.064 0 0 0 2.5-3.741v-58.898a4.049 4.049 0 0 0-4.839-3.973 4.05 4.05 0 0 0-2.074 1.107l-5.434 5.426a8 8 0 0 1-11.306 0Z" stroke="#000" stroke-width="12" stroke-linecap="round" stroke-linejoin="round"/></svg>