<svg xmlns="http://www.w3.org/2000/svg" width="192" height="192" viewBox="0 0 192 192"><path d="M160.76 19.006h-28.748c-5.948 0-10.905 3.965-12.227 9.252H57.662C36.513 28.258 19 45.441 19 66.92v67.741c0 4.957.991 9.583 2.644 13.879 3.304 8.922 8.921 15.861 17.844 20.157 4.956 2.643 10.573 3.965 15.86 4.296h66.42c21.149 0 38.662-17.183 38.662-38.662V73.199c6.939 0 12.556-5.948 12.556-12.887V31.564c.33-6.94-5.287-12.557-12.227-12.557zm-26.105 18.505c3.17-2.887 6.222-5.891 9.252-8.922 1.983-1.983 4.627-1.983 6.279 0 2.965 3.099 6.111 6.005 9.252 8.922.992.991 1.653 2.313 1.653 3.304 0 1.322-.331 2.644-1.322 3.305-1.983 1.982-4.957 1.982-6.94.33l-.99-.991V59.65c0 2.643-2.314 4.957-4.958 4.957-2.643 0-4.956-2.313-4.956-4.957V44.119l-.661.66c-1.983 1.653-4.957 1.653-6.94-.33-.99-.991-1.321-2.313-1.321-3.304 0-1.322.66-2.644 1.652-3.635zm16.192 68.071-3.305-1.652c-5.948-3.305-12.887-2.644-18.175 1.652-9.913 8.261-19.165 16.191-28.748 24.453-6.94 5.618-14.87 5.618-21.809 0-2.974-2.974-6.94-4.957-11.235-4.957-2.974 0-6.278 1.322-9.252 2.974-8.592 5.618-16.853 11.235-25.444 16.853-1.652-3.304-2.313-7.27-2.313-11.235V68.572c-.037-15.163 12.264-27.464 27.427-27.427h61.462V60.31c0 6.94 5.617 12.887 12.887 12.887h18.505zm-81.62-15.2c-9.583 0-17.183-7.6-17.183-17.183s7.6-17.183 17.183-17.183 17.183 7.6 17.183 17.183c0 9.252-7.6 17.183-17.183 17.183"/></svg>