<svg xmlns="http://www.w3.org/2000/svg" width="192" height="192" viewBox="0 0 192 192"><path d="m170.27 144.04-54.634-115.6a21.726 21.726 0 0 0-39.276 0L21.726 144.03a22.4 22.4 0 0 0-.8 17.438 22.637 22.637 0 0 0 26.613 13.87l42.371-10.223a25.9 25.9 0 0 1 12.175 0l42.371 10.223a22.637 22.637 0 0 0 26.613-13.862 22.4 22.4 0 0 0-.8-17.438M96 148.222a6.52 6.52 0 0 1-5.488 6.455q-1.448.224-2.88.568l-42.37 10.23a13.6 13.6 0 0 1-3.137.369 12.191 12.191 0 0 1-11.615-17.646l54.634-115.59a11.76 11.76 0 0 1 7.304-6.368 2.752 2.752 0 0 1 3.551 2.616z"/></svg>