<svg xmlns="http://www.w3.org/2000/svg" width="192" height="192"><path d="M131.71 16.025c-13.11.403-28.274 5.656-43.508 15.366-4.043 2.965-8.088 6.47-12.131 10.256-32.086 31.803-45.575 75.481-29.66 97.325 6.492 8.62 16.559 12.575 28.389 12.231 3.347-8.754 5.494-17.007 7.468-24.913 3.503-15.363 3.777-26.142 1.89-28.568-2.965-3.787-9.434-2.968-16.994 1.344-3.773 2.156-8.624.811-2.951-6.196 5.93-7.008 28.837-23.73 36.923-26.425 9.177-2.426 19.42 1.077 15.917 11.049-1.686 5.03-17.401 46.25-19.11 68.384 12.298-5.03 25.16-13.541 37.165-25.25 17.802-17.248 29.66-37.204 34.513-55.801 1.347-13.745-.538-25.89-6.738-35.053-7.007-9.703-18.062-14.151-31.173-13.748zm-4.506 12.162c2.13.09 3.946.78 5.21 2.127 1.347 1.347 2.158 2.964 2.158 5.12v.809c-.27 4.582-2.968 10.24-7.82 15.093-7.276 7.007-16.975 9.7-21.031 5.671-4.582-4.312-1.873-13.759 5.404-21.305 5.188-5.003 11.393-7.71 16.08-7.514z" opacity=".8"/><path d="M86.889 32.373C79.11 37.457 71.354 43.441 63.93 50.811c-36.654 36.385-52.299 86.271-34.78 111.34 6.04 8.381 15.029 12.909 25.69 13.853l-.614-.094c7.277.269 13.224-7.83 18.075-18.611a135 135 0 0 0 2.494-6.092 47 47 0 0 1-4.348-.073c-2.84-.185-5.556-.638-8.119-1.371-5.125-1.466-9.64-4.043-13.318-7.773a30 30 0 0 1-2.6-3.014c-15.914-21.844-2.425-65.522 29.66-97.325 3.605-3.376 7.214-6.529 10.819-9.274zm82.689 32.606c-1.215 4.621-2.868 9.328-4.931 14.053-2.073 4.748-4.561 9.515-7.457 14.242-1.996 3.257-4.433 6.445-6.806 9.642-1.075 1.449-1.937 2.939-3.088 4.369a147 147 0 0 1-12.189 13.344c-12.003 11.708-24.867 20.22-37.165 25.249-.763 9.887 1.267 15.966 8.592 13.307h.004c7.402-4.992 14.765-10.993 21.83-18.06 23.35-23.18 38.117-51.911 41.208-76.146z"/></svg>