<svg width="192" height="192" version="1.1" xmlns="http://www.w3.org/2000/svg"><path d="m131.71 16.025c-13.11 0.40259-28.274 5.6564-43.508 15.366-4.0428 2.9647-8.088 6.4694-12.131 10.256-32.086 31.803-45.575 75.481-29.66 97.325 6.4916 8.62 16.559 12.575 28.389 12.231 3.3467-8.7537 5.494-17.007 7.4676-24.913 3.5037-15.363 3.7772-26.142 1.8905-28.568-2.9647-3.7867-9.4337-2.9679-16.994 1.3444-3.7733 2.1561-8.6246 0.81071-2.9513-6.1967 5.9294-7.0075 28.837-23.73 36.923-26.425 9.177-2.4257 19.421 1.0769 15.917 11.049-1.6858 5.0297-17.401 46.251-19.11 68.384 12.298-5.0293 25.161-13.541 37.165-25.249 17.802-17.249 29.661-37.205 34.513-55.802 1.3475-13.745-0.53829-25.89-6.7376-35.053-7.0075-9.7027-18.062-14.151-31.173-13.748zm-4.5057 12.162c2.1303 0.08916 3.946 0.77925 5.2094 2.1268 1.3476 1.3476 2.1584 2.964 2.1584 5.1202v0.80873c-0.2693 4.5818-2.9682 10.241-7.8194 15.093-7.277 7.0075-16.976 9.7009-21.032 5.6716-4.5818-4.3123-1.8731-13.759 5.4038-21.305 5.1883-5.0029 11.393-7.711 16.08-7.5148z" opacity=".8"/><path d="m86.889 32.373c-7.779 5.0836-15.535 11.068-22.959 18.438-36.654 36.385-52.299 86.271-34.78 111.34 6.0392 8.381 15.029 12.909 25.69 13.853-0.20396-0.0295-0.4106-0.063-0.61443-0.0945 7.277 0.2695 13.224-7.8304 18.075-18.611 0.90385-2.0587 1.7281-4.0873 2.4944-6.0917-1.4785 0.0427-2.9283 0.0183-4.3482-0.0732-2.8399-0.18436-5.556-0.6381-8.1187-1.371-5.1254-1.4658-9.6396-4.0424-13.318-7.7721-0.91951-0.93232-1.7881-1.937-2.5995-3.0143-15.915-21.844-2.4259-65.522 29.66-97.325 3.6044-3.3761 7.2132-6.5291 10.818-9.2741zm82.689 32.606c-1.2147 4.6212-2.8683 9.3277-4.9311 14.053-2.0728 4.7482-4.561 9.5149-7.4571 14.242-1.9955 3.2571-4.4328 6.4453-6.8059 9.6417-1.0753 1.4488-1.9366 2.9391-3.0878 4.3692-3.6829 4.5738-7.7505 9.0436-12.189 13.344-12.003 11.708-24.867 20.22-37.165 25.249-0.76322 9.8867 1.267 15.966 8.5914 13.307h5e-3c7.4018-4.9914 14.764-10.993 21.83-18.06 23.35-23.179 38.117-51.911 41.208-76.146z"/></svg>
