<svg width="192" height="192" fill="none" xmlns="http://www.w3.org/2000/svg"><path d="M69 116c47 48 81-7 81-7m-55-6c10-2 11 6 20 6s7-12 7-12" stroke="#000" stroke-width="10" stroke-linecap="round" stroke-linejoin="round"/><path d="M65 120s2-7 8-7" stroke="#000" stroke-width="10" stroke-linecap="round" stroke-linejoin="round"/><path d="M61.924 22c25.825 0 47.677 4 61.582 4 13.906 0 24.832-4 32.778 2 7.946 6-3.973 51-4.966 74-.994 23-27.812 68-59.596 68-31.784 0-54.63-34-54.63-74s-2.979-74 24.832-74Z" stroke="#000" stroke-width="12" stroke-linecap="round" stroke-linejoin="round"/><path d="M78 66.158c7 .984 10 7.874 10 7.874S88 76 82 76s-17-6.89-17-6.89 6-3.936 13-2.952Z" stroke="#000" stroke-width="10" stroke-linecap="round" stroke-linejoin="round"/><path d="M128.064 67.683c-2.972 1.04-7.926 6.238-6.935 7.277.991 1.04 1.981 1.04 3.963 1.04 5.945 0 9.908-5.198 9.908-7.278 0-2.079-3.963-2.079-6.936-1.04Z" stroke="#000" stroke-width="8" stroke-linecap="round" stroke-linejoin="round"/></svg>