<svg width="192" height="192" fill="none" xmlns="http://www.w3.org/2000/svg"><path d="m60.723 69.328-.532 8.796a15.717 15.717 0 0 0 5.797 13.163l40.862 33.091a15.712 15.712 0 0 1 5.797 13.162l-.532 8.796M60.723 69.328l19.162-23.664M60.723 69.328 44.73 89.078a15.716 15.716 0 0 0-3.473 8.941l-.228 3.769a15.718 15.718 0 0 0 5.796 13.163l40.863 33.091a15.715 15.715 0 0 1 5.797 13.162L92.953 170l19.162-23.664m0 0 19.162-23.664M79.885 45.664l-.532 8.796a15.716 15.716 0 0 0 5.797 13.162l40.862 33.092a15.712 15.712 0 0 1 5.797 13.162l-.532 8.796M79.885 45.664 99.047 22l-.532 8.796a15.714 15.714 0 0 0 5.797 13.162l40.863 33.091a15.715 15.715 0 0 1 5.796 13.163l-.228 3.769a15.72 15.72 0 0 1-3.473 8.941l-15.993 19.75" stroke="#000" stroke-width="12" stroke-linecap="round" stroke-linejoin="round"/></svg>