<svg xmlns="http://www.w3.org/2000/svg" width="192" height="192"><path d="M94.684 16.004a7.25 7.25 0 0 0-5.387 2.118L67.949 39.469a7.273 7.273 0 0 0 0 10.287 7.273 7.273 0 0 0 10.288 0l9.645-9.643v58.058L62.14 60.97c-1.282-2.258-3.648-3.731-6.412-3.731-4.043 0-7.397 3.338-7.397 7.361v53.993c0 4.026 3.354 7.361 7.397 7.361a7.37 7.37 0 0 0 7.398-7.36V85.117l26.139 37.595c0 .099-.001.196.098.295 1.48 1.865 3.552 2.945 5.918 2.945 4.043 0 7.299-3.338 7.299-7.36v-77.39l8.552 8.553a7.273 7.273 0 1 0 10.284-10.287l-21.347-21.347a7.24 7.24 0 0 0-5.384-2.118zM30.296 57.238c-3.981 0-7.28 3.338-7.28 7.361v54.088c0 3.927 3.301 7.266 7.28 7.266 3.981 0 7.184-3.34 7.184-7.266V64.602c0-4.025-3.206-7.364-7.184-7.364m87.097 0c-4.19 0-7.584 3.324-7.584 7.43v53.856c0 4.106 3.192 7.235 7.283 7.43h15.564c4.788 0 9.376-.98 13.668-2.74 4.19-1.759 7.982-4.202 11.174-7.233 3.192-3.323 5.785-6.842 7.482-11.047 1.795-4.203 2.694-8.6 2.694-13.292 0-4.59-.9-9.186-2.694-13.39-1.697-4.106-4.29-7.719-7.482-10.945-3.193-3.03-6.985-5.573-11.174-7.332-4.292-1.759-8.878-2.638-13.668-2.638h-14.068c-.398-.1-.797-.098-1.195-.098zm6.883 14.467h8.088c5.705 0 10.89 2.175 14.83 5.924 3.943 3.75 6.013 8.684 6.013 14.015 0 5.33-2.073 10.267-6.013 14.02-3.94 3.848-9.126 5.822-14.83 5.822h-8.088zm-89.405 68.967c-3.705 0-6.156 2.117-7.168 4.38h-.095v-.966a2.74 2.74 0 0 0-2.743-2.74 2.74 2.74 0 0 0-2.743 2.74v17.469a2.887 2.887 0 1 0 5.774 0v-9.816c0-3.079 1.59-6.255 5.054-6.255 2.935 0 4.281 2.164 4.281 5.005v11.07a2.888 2.888 0 0 0 5.774 0v-9.722c0-2.984 1.492-6.353 5.103-6.353 3.705 0 4.33 3.417 4.33 6.16v9.915a2.888 2.888 0 0 0 5.774 0v-11.547c0-4.716-2.506-9.339-8.52-9.339-3.464 0-6.063 1.588-7.603 4.38-1.3-2.6-3.656-4.38-7.218-4.38zm41.29 0c-6.976 0-12.562 4.86-12.562 12.127s5.586 12.32 12.562 12.32c6.977 0 12.56-5.052 12.56-12.32 0-7.266-5.58-12.127-12.56-12.127m30.891.003c-3.415 0-6.156 2.065-7.168 4.376h-.095v-1.244a2.46 2.46 0 0 0-2.461-2.461h-.566a2.47 2.47 0 0 0-2.468 2.461v18.18a2.46 2.46 0 0 0 2.461 2.46h.854a2.46 2.46 0 0 0 2.462-2.46v-10.245c0-3.078 1.734-6.255 5.39-6.255 3.706 0 4.33 3.419 4.33 6.16v10.343a2.46 2.46 0 0 0 2.462 2.462h.858a2.46 2.46 0 0 0 2.461-2.462v-11.98c0-4.717-2.503-9.334-8.52-9.334zm26.136 0c-6.977 0-12.222 4.907-12.222 12.366 0 7.51 5.291 12.078 12.415 12.078 3.203 0 5.817-.824 7.872-2.471 1.213-.972 1.174-2.841-.042-3.813-.889-.71-2.171-.747-3.045-.02-1.204 1.002-2.776 1.59-4.837 1.59-3.37 0-6.354-2.41-6.595-5.681h16.087a1.53 1.53 0 0 0 1.531-1.522v-.014c0-8.329-4.717-12.513-11.165-12.513zm17.681.671c-2.084 0-3.488 2.132-2.667 4.052l8.176 19.05-1.156 2.935c-.961 2.407-1.636 3.61-4.09 3.61h-.02a2.39 2.39 0 0 0-2.387 2.164l-.023.252c-.132 1.362.926 2.532 2.295 2.579q.236.009.471.01c5.103 0 7.123-2.41 8.759-6.595l9.46-24.293a2.76 2.76 0 1 0-5.185-1.892l-5.09 14.925h-.098l-5.732-14.935a2.91 2.91 0 0 0-2.713-1.862m-17.734 3.656c3.754 0 5.44 2.6 5.44 5.584h-11.842c.242-3.224 2.984-5.584 6.402-5.584m-56.975.386c4.571 0 6.687 3.8 6.687 7.41 0 3.612-2.116 7.509-6.687 7.509s-6.69-3.897-6.69-7.508c0-3.608 2.12-7.41 6.69-7.41"/></svg>