<svg width="192" height="192" version="1.1" xmlns="http://www.w3.org/2000/svg"><path d="m94.684 16.004c-1.9411-0.06502-3.9042 0.63694-5.3875 2.1177l-21.347 21.347c-2.8415 2.8415-2.8415 7.4458 0 10.287 2.8415 2.8415 7.4458 2.8415 10.287 0l9.6458-9.6425v58.058l-25.743-37.202c-1.2828-2.2585-3.6486-3.7313-6.412-3.7313-4.0436 0-7.3972 3.3384-7.3972 7.3612v53.993c0 4.0255 3.3536 7.3612 7.3972 7.3612 4.1426 0 7.3972-3.3384 7.3972-7.3612v-33.474l26.139 37.595c0 0.0989-6.8e-4 0.1957 0.0982 0.29458 1.4806 1.8657 3.5523 2.9458 5.9178 2.9458 4.0436 0 7.299-3.3384 7.299-7.3612v-77.389l8.5526 8.5526c2.8415 2.8415 7.4458 2.8415 10.287 0 2.8414-2.8415 2.8382-7.4458-3e-3 -10.287l-21.347-21.347c-1.4833-1.4833-3.4431-2.1827-5.3842-2.1177zm-64.388 41.234c-3.9813 0-7.2794 3.3384-7.2794 7.3612v54.088c0 3.9265 3.3006 7.2663 7.2794 7.2663 3.9813 0 7.1844-3.3398 7.1844-7.2663v-54.085c0-4.0255-3.2059-7.3645-7.1844-7.3645zm87.097 0c-4.1894 0-7.5838 3.3238-7.5838 7.4299v53.856c0 4.1061 3.1921 7.2347 7.2826 7.4299h15.564c4.7878 0 9.3767-0.98046 13.668-2.7396 4.1896-1.759 7.9819-4.202 11.174-7.2336 3.1924-3.3228 5.7847-6.8417 7.4823-11.047 1.7948-4.2025 2.6938-8.6004 2.6938-13.292 0-4.5901-0.89896-9.1853-2.6938-13.39-1.6976-4.1061-4.2898-7.7186-7.4823-10.945-3.1924-3.0289-6.9848-5.5726-11.174-7.3317-4.2918-1.7589-8.8773-2.6381-13.668-2.6381h-14.068c-0.39801-0.09887-0.79667-0.09819-1.1947-0.09819zm6.8833 14.467h8.0878c5.7045 0 10.889 2.1746 14.83 5.9243 3.9432 3.7497 6.0127 8.6836 6.0127 14.015 0 5.329-2.0728 10.267-6.0127 14.019-3.9399 3.8485-9.1259 5.8228-14.83 5.8228h-8.0878zm-89.405 68.967c-3.7054 0-6.1562 2.117-7.1681 4.3794h-0.09492v-0.96556c-2e-6 -1.515-1.2281-2.7396-2.7429-2.7396-1.5149 0-2.7429 1.2246-2.7429 2.7396v17.469c0 1.5937 1.2915 2.8869 2.8869 2.8869 1.5925 0 2.8869-1.2915 2.8869-2.8869v-9.816c0-3.0785 1.5897-6.2549 5.0537-6.2549 2.935 0 4.2812 2.164 4.2812 5.0046v11.07c0 1.592 1.2915 2.8869 2.8869 2.8869 1.5925 0 2.8869-1.2915 2.8869-2.8869v-9.7211c-1e-6 -2.9846 1.4922-6.3531 5.1028-6.3531 3.7054 0 4.3303 3.4166 4.3303 6.16v9.9142c0 1.592 1.2913 2.8869 2.8869 2.8869 1.5925 0 2.8869-1.2915 2.8869-2.8869v-11.547c0-4.7158-2.5062-9.3381-8.5199-9.3381-3.4639 0-6.0627 1.5875-7.6034 4.3794-1.2994-2.5992-3.6555-4.3794-7.2172-4.3794zm41.29 0c-6.9766 0-12.562 4.8604-12.562 12.127 0 7.2681 5.5855 12.32 12.562 12.32 6.9768 0 12.559-5.0519 12.559-12.32 0-7.2664-5.5792-12.127-12.559-12.127zm30.891 3e-3c-3.4152 0-6.1562 2.0652-7.1681 4.3761h-0.0949v-1.2438c0-1.3591-1.1016-2.4614-2.4614-2.4614h-0.56624c-1.3598 0-2.4592 1.1023-2.4679 2.4614v18.179c0 1.3608 1.1016 2.4614 2.4614 2.4614h0.85428c1.3598 0 2.4614-1.1006 2.4614-2.4614v-10.244c0-3.0785 1.7341-6.2549 5.3908-6.2549 3.7054 0 4.3303 3.4183 4.3303 6.16v10.343c0 1.3591 1.1016 2.4614 2.4614 2.4614h0.85756c1.3598 0 2.4614-1.1023 2.4614-2.4614v-11.98c0-4.7174-2.5033-9.3349-8.5199-9.3349zm26.136 0c-6.9771 0-12.222 4.9067-12.222 12.366 0 7.5094 5.2909 12.078 12.415 12.078 3.2025 0 5.8172-0.82385 7.8718-2.4712 1.2133-0.97198 1.1741-2.8412-0.0426-3.8132-0.88818-0.70888-2.1709-0.74695-3.044-0.0196-1.2049 1.0021-2.7764 1.5907-4.8376 1.5907-3.3694 0-6.3538-2.4109-6.5953-5.6821h16.087c0.84462 0 1.5285-0.68072 1.5318-1.522v-0.0134c0-8.3288-4.7176-12.513-11.165-12.513zm17.681 0.67098c-2.0847 0-3.4887 2.1316-2.6676 4.0521l8.1762 19.049-1.1554 2.936c-0.96192 2.4065-1.6363 3.6102-4.0914 3.6102h-0.0196c-1.2334-3e-3 -2.2671 0.93345-2.3861 2.1635l-0.023 0.25203c-0.13239 1.3624 0.92529 2.5323 2.2944 2.5792 0.15752 5e-3 0.31547 0.0101 0.47132 0.0101 5.1029 0 7.1232-2.4107 8.7588-6.5953l9.4592-24.293c0.70385-1.8099-0.63038-3.764-2.5727-3.764-1.1815 0-2.2298 0.75276-2.6119 1.8722l-5.0897 14.925h-0.0982l-5.7312-14.935c-0.43236-1.1211-1.5118-1.8624-2.7134-1.8624zm-17.734 3.656c3.7538 0 5.4399 2.6009 5.4399 5.5839h-11.842c0.24148-3.2243 2.984-5.5839 6.4022-5.5839zm-56.975 0.38623c4.5708 0 6.6869 3.8006 6.6869 7.4103 0 3.6114-2.1161 7.5085-6.6869 7.5085-4.5706 0-6.6902-3.8971-6.6902-7.5085 0-3.608 2.1196-7.4103 6.6902-7.4103z"/></svg>
