<svg xmlns="http://www.w3.org/2000/svg" width="192" height="192" viewBox="0 0 192 192"><path d="M133.71 53.421c14.023-.002 27.75 7.486 35.34 19.277 7.784 11.693 9.15 27.307 3.474 40.162-5.48 12.973-17.807 22.724-31.693 25.068-14.119 2.611-29.352-2.58-38.915-13.298a42.5 42.5 0 0 1-4.311-5.629 44.7 44.7 0 0 0 5.156-12.953c3.464 10.875 13.12 19.444 24.33 21.592 11.089 2.334 23.22-1.777 30.613-10.367 5.195-5.885 8.1-13.719 8.011-21.568-.005-11.249-6.416-22.198-16.223-27.707a32.3 32.3 0 0 0-17.035-4.266c-.448.003-.895.04-1.342.067-.522.043-1.045.078-1.564.15-.236.018-.47.064-.703.091-.245.059-.503.077-.754.123a35 35 0 0 0-1.551.302c-.281.065-.561.116-.839.198a30 30 0 0 0-3.635 1.128 33 33 0 0 0-3.584 1.602c-.264.146-.535.276-.792.435-.524.272-1.02.59-1.52.902q-.38.234-.746.488c-.197.138-.404.261-.591.413-.694.47-1.351.996-2.003 1.525-7.332 6-11.74 15.37-11.684 24.845.104 14.082-7.357 27.917-19.181 35.566-11.015 7.352-25.533 9.064-37.946 4.435-13.266-4.72-23.714-16.456-26.866-30.179-2.55-10.505-.833-21.948 4.645-31.262 6.974-12.168 20.305-20.35 34.312-21.059 7.745-.463 15.607 1.243 22.448 4.905a42.8 42.8 0 0 1 15.844 14.6 44.7 44.7 0 0 0-5.156 12.945c-3.466-10.87-13.119-19.435-24.324-21.583-11.087-2.335-23.216 1.777-30.608 10.363-7.534 8.436-10.04 20.969-6.296 31.647 3.545 10.742 13.15 19.164 24.262 21.274 11.074 2.312 23.171-1.805 30.553-10.373 5.237-5.923 8.138-13.824 8.018-21.725-.006-.443.01-.885.031-1.326.004-.324.033-.648.048-.971.024-.313.042-.629.071-.94.022-.235.039-.47.065-.704.034-.312.065-.627.106-.94.062-.46.117-.923.2-1.382.04-.267.08-.533.133-.796.026-.205.085-.405.108-.61 1.622-8.45 5.9-16.354 12.07-22.349a43 43 0 0 1 10.749-7.654c.357-.188.728-.346 1.09-.525.422-.2.854-.38 1.28-.57q.699-.298 1.408-.57a49 49 0 0 1 1.788-.642c.45-.144.905-.296 1.363-.426.389-.118.782-.22 1.175-.332.428-.107.852-.229 1.285-.319.22-.055.445-.098.667-.148.809-.184 1.629-.317 2.447-.45.406-.054.81-.127 1.217-.17a49 49 0 0 1 2.008-.206c.478-.022.957-.066 1.437-.08.463-.027.927-.029 1.39-.035a6 6 0 0 1 .722.011z"/></svg>