<svg xmlns="http://www.w3.org/2000/svg" width="192" height="192"><path d="M63.701 35.9v42.618c0 5.001 2.395 9.7 6.441 12.637l33.898 24.612a12.5 12.5 0 0 1 5.153 10.11v25.844a7.96 7.96 0 0 1-7.96 7.96H89.691a7.96 7.96 0 0 1-7.96-7.96v-38.593h-18.03V156.1A19.9 19.9 0 0 0 83.602 176h24.796a19.9 19.9 0 0 0 19.9-19.9v-38.134c0-5.009-2.368-9.721-6.387-12.71L86.84 79.183a12.67 12.67 0 0 1-5.11-10.168V41.473a7.96 7.96 0 0 1 7.96-7.96h11.543a7.96 7.96 0 0 1 7.96 7.96v33.748h19.104v-39.32a19.9 19.9 0 0 0-19.901-19.9H83.601a19.9 19.9 0 0 0-19.9 19.9z"/></svg>