<svg xmlns="http://www.w3.org/2000/svg" width="192" height="192" viewBox="0 0 192 192"><path d="M68.077 67.537h-.584c.576 2.224.576 4.64.576 7.256 1.168.296 2.232.88 2.232 2.52 1.16.575 2.224.871 3.384 1.743.48-.296.776-1.168 1.064-1.936-1.064-1.455-3.576-.583-3.576-3.103l-1.648-.576c0-1.648 0-3.296-.288-4.456l.28-.192c0 .192.288.48.872 1.064 1.16 0 2.224.288 3.384-.576.48-.296.48-1.648 1.064-1.648.48 0 1.063 0 1.36-.584 0 0 .575 0 0-.288l-6-.872c-.68.872-2.136.872-2.136 1.648zm-17.519-6.2c1.16-.864 3.96-2.8 5.416-3.383-.288-2.712-3.392-3-4.84-4.16h-1.16c-2.224.872-2.712 3.096-3 4.936.776 2.607 2.416.871 3.576 2.607m1.056 4.56c0 1.152.88 1.64 1.744 1.64 0 1.16.88 1.36 1.16 1.64.88.584 1.168.584 1.936 0 .88.584 1.168-.48 1.456 0 0 1.744 0 2.52-.288 3.872-.296 2.04-1.936 1.744-3.392 2.52 0 .872-.872 2.224 0 3.096.88-.576 1.456-.872 2.808-1.448 0-.88.872-1.744 1.936-2.232 0-2.512.871-4.936.871-7.544 0-.584-.583-1.16-1.455-1.648H52.19c0 .096-.584.096-.584.096zM69.805 82.44l-.288.288 3.096 1.168V82.44zm-2.608-21.087c1.456 0 .88 1.928 2.04 2.224h2.512c0-.88-.288-.88-.584-.88-1.448 0-1.448-2.216-2.512-1.736-.584 0-1.16-.576-1.936 0 0 .392 0 .392.48.392m-12.959 20.52c0 .575 0 1.16.864 1.735a4.48 4.48 0 0 1 2.52-1.16c-.584-1.16-2.032 0-3.392-.576zm7.928-20.816c-.576-.576-2.224.296-3.096.584-1.16.288-1.936 1.16-1.936 1.936h3.096c.192-.776 1.36-1.936 1.936-2.52m16.159 1.744h.88c.872-.872 1.447 0 2.031-.872.576-1.448.576-3.968-.584-5.224-.575-1.16-1.935-1.743-3.383-2.807l-1.936 1.063c-1.064.584-1.552 1.744-1.552 3 1.744.872 3.68 3.096 4.552 4.84m-2.216 75.884c-.584 0-1.84.872-1.84 1.448 0 1.16-.48 7.36-.48 7.36h1.84c.864-2.52 2.512-5.904 2.512-7.36-.096-1.16-.968-1.448-2.032-1.448m-6.584-1.064c-.584 0-1.456 1.64-1.456 2.224 0 2.224.584 5.424 1.456 7.648h2.224c0-2.52.288-5.424.288-7.648-.288 0 .296.584-2.512-2.224m95.723 1.064c6.776-6.48 10.743-17.231 10.743-27.583a48.16 48.16 0 0 0-14.23-33.782c-3.969-3.968-8.224-5.904-11.616-9.775a20 20 0 0 1-4.16-5.616c-1.448-1.448-2.32-2.224-3.967-3.096.287.872.583 1.744.871 2.52h-.288c-1.455 0-2.807-.88-3.967-1.744l1.16-1.16c-.296-.48-1.16-.48-1.744-.48-4.552-.784-8.712 1.64-13.063 2.512v.576c2.8.88 3.383 4.264 4.935 5.904h1.64c.584 0 1.456.584 2.032.584 0-.584-.576-1.648-.576-1.648q.864-.864 1.744 0c1.448.88 3.384-.576 4.832 1.648-1.736 0-3.384 0-4.832.872 0 .288.864.776.576 1.36-1.448-.584-3.096 0-3.68-1.072l-.288.192c1.744 2.032 4.256 3.583 6.776 4.455 3.68.576 6.776-1.16 10.36-.288 12.774 6.288 21.87 20.8 21.87 35.422 0 20.807-11.903 29.04-19.359 29.04-1.448 0-3.576-.88-4.448-1.648.872-2.904 1.352-6.288 1.352-11.423 0-12-4.744-25.063-11.327-31.742-3.096-3.096-6.48-5.712-9.967-5.712-1.744 0-3.384 0-4.544 1.448-1.456 1.168-2.32 3.392-2.04 4.84-2.224 1.743-5.904 2.52-8.8 2.52-3.103 0-7.071-1.16-10.559-3.968v-4.256c-.768-.296-3.68-2.04-2.224-3.296a4.8 4.8 0 0 1 1.744 1.064c-.288-1.84-.288-4.16-1.744-5.808-.575 0-1.447 0-2.223-.576-.872-.88-1.744-1.936-1.744-3.392.88 1.456 2.232.88 3.103 1.744-1.455-3.383-.88-4.84-3.391-9.775-.584-2.52-3.096-3.968-4.84-5.616-.872-.576-1.16-1.448-2.128-1.448-1.16-.296-1.16-1.744-1.16-2.52.288 0 1.16.48 1.64.776-1.64-3.871-2.8-8.031-6.48-10.359l-.88.584h-4.543c.583-.584 1.743-.872 2.52-1.456-.88-.864-1.456-1.16-3.096-1.16-.776.296-1.84 1.16-2.904 1.16h-.296c0-.864-.288-2.031 1.36-2.511a14.4 14.4 0 0 0-5.04 0c-.288 1.447-1.16 2.223-1.16 3.383-.872.584-1.16 1.456-2.032 2.232 0-1.744.88-3.392 1.16-5.135-1.16.295-2.512 1.167-3.096 1.167-2.224-1.167-5.127-2.231-6.191-2.231 1.743 1.16.872 3.095 1.16 4.551l-1.16-.584c-.288-1.16-1.744-2.032-1.936-3.383-1.744 0-2.8.576-4.256 1.447v.296c.864 0 2.032.872 2.512 1.736-1.936 0-3.384-.864-5.416-.864 0 0 0-.296-.296-.296-.768.296-1.544 1.16-2.032 1.744-2.032 1.744-3.384 3.096-4.256 5.616.576 0 1.448 0 1.744.288-1.168.288-1.744 1.744-2.808 2.032v4.16c-.88.88-1.936 1.744-2.52 3.391-1.447 4.456-1.743 9.488-1.743 15.2-.288 1.16-.864 1.447-1.448 1.735v4.36s1.744-1.552 2.52-2.128v3.576c-1.168 0-1.936 1.456-1.936 2.232 0 1.16.288 2.224.288 3.384 0 .584 0 .584.288 1.16 0-.576.584-1.16 1.456-1.448 0 0 .576-.584 1.735-.584-.864.872-1.16 2.032-1.735 3.096l-.88.88s-.288.576-.288.864c1.167 5.807 2.807 10.935 5.135 16.455-2.232 3.68-4.84 10.743-6.487 17.519-1.448-1.448-3.384-1.648-5.128-1.648-1.552.296-3.296.88-4.456 2.52-1.744-.872-3.968-.584-5.032.576-2.32 2.04-2.32 3.103-2.32 4.84a5.84 5.84 0 0 0-1.751 3.975c0 2.512.288 4.256 1.743 6.48H60.23a7.2 7.2 0 0 0-1.447-2.512c-.88-1.744-.296-3.968-.296-5.712.88-1.648 1.744-3.296 2.808-4.744.295-.872 0-.872.295-1.16l2.032-.295c1.16 0 1.936-.864 3.384-.864.88 1.16.88-.88 2.32-1.456 3.104-.584 6 0 7.648 2.224 0 .296.296.296.296.584h-1.456c-1.544-.584-3.48-1.456-5.416-.584 0 .584-.296.584-.296 1.455v1.448c1.168 0 2.032 1.064 3.104 1.648.48-.872 2.032-1.648 3.192-1.648 1.448 0 3.384.776 3.384 3.096v3.104c1.167 1.16 2.52 1.448 3.967 1.936-.576 1.16-1.448 1.16-2.224 1.16h-2.223c-.288-.288-.88-.288-.88-1.16-.864 1.16-1.44 2.32-2.024 3.384h32.806c-.576-1.16-1.16-1.936-1.448-2.512-.584-1.744-.584-3.976-.584-5.712l3.104-4.16c1.64 0 3.095-.584 6.191-.88.576-.864 0-1.16 2.512-1.16 1.936 0 3.392.296 3.976.584.288.576.288.576 0 1.16-.584.584-1.648-.584-2.52-.288-.584.576.288.872.288 1.448.584.48-2.512-.576-2.512-.576s-.584 1.64-.88 2.224c0 0 1.168 1.16 1.752 1.648.576.872-.88 1.736-.88 2.512-.576-.288-1.736-1.16-1.736-.872-.584 2.32 0 4.264-.288 6.488h3.096l.288-4.84c.288-2.8 3.68-7.84 5.712-7.84 1.16 0 1.936.584 2.8 1.16.488 1.064 1.84 1.648 1.84 2.224s-.768.88-2.128.88c-.576 0-.576-.88-1.352-1.456l-1.744 1.648s1.936 1.736 1.936 2.8c0 1.456-.288 1.936-1.16 2.808l-1.744-3.384c-.872 0-2.224 1.744-2.224 2.512 0 1.168-.584 1.744-.584 3.392h17.327c1.936 0 3.68-.584 5.616-1.744h3.384c7.551.192 12.975-1.744 17.999-6.872zm-30.79-75.892c-.576-.872-1.448 0-2.032 0s-.872 0-1.936-.872c1.648 0 2.52-.872 3.968-1.448 1.16.872 2.224 1.16 3.096 2.224h-3.096zm9.104 4.256c-.88-1.16-1.936-2.512-3.104-2.512.88 0 2.032-.88 3.392-.88.576 1.456 1.744 2.24 2.032 3.392l.287 1.744a3.12 3.12 0 0 0-2.607-1.744m-46.366 36.974-1.448.584c-3.104 0-4.56-.872-5.912-2.032 1.168 0 2.52-1.456 2.52-1.456 1.456 1.456 3.488 2.616 4.84 2.904m-14.615-3.192c-1.448.288-2.52-1.16-3.968-1.744-.584-1.544-.584-3.288-1.16-4.064 1.16.872 3.68.872 3.096 3.392 0 .768 1.16 1.352 2.032 2.416m0 9.391c.872.288 2.224 1.16 3.095 1.736h-.871c-3.096 1.064-5.712-.864-8.224-2.512a14.4 14.4 0 0 1 5.128-.88zm.584-4.56c1.16-.863 2.512-.863 3.095-1.151 1.16 1.16 2.128 3.095 4.16 4.255-1.16 0-3 0-4.16-.872-1.743-.775-2.223-1.36-3.095-2.223m-3.104 17.43c0-.871.584-1.647 1.744-2.223 1.744.576 3.096-3.104 4.84-1.168.88.296 1.647.296 2.127.296 1.936.872 2.52 2.512 3.392 3.967-1.456 0-2.52 0-3.392-1.455-.288 0-.768-.872-1.063-.288-1.448 1.16-2.8-.872-4.544-.584a5.44 5.44 0 0 1-3.104 1.744zm14.039-29.718c-.288 1.167-1.456 0-1.648 0h-2.512c-.296-.576-.584-.872-.584-1.448 1.16-.288 1.936-.872 2.8-.288.488.864 1.072 1.736 1.944 1.736m-5.424-12.095c.584 1.16.584 1.743 1.16 2.223 1.168-.575 1.168.88 1.456 1.16.288.776.872 1.552.872 2.424-1.744 0-2.52-.872-3.392-2.424-.096-.768-.288-1.936-.096-3.383M86.556 95.03l2.712 2.52c-1.648 0-3.584.871-4.456-.88.584-.184 1.168-1.056 1.744-1.64m-.288-21.391c0 .288-.584 2.808-.584 2.808l-2.224.584 1.448-6.104c.48 1.064 1.36 2.136 1.36 2.72zm-39.79-20.327c.48 0 1.256-.296 1.552-.88 1.352-.288 2.224-1.736 3.968-.864 1.16 0 2.224.576 3.096.864 0 .584 0 .88.576 1.456 1.744 0 1.744 1.647 2.52 3.095.872.288 1.648.288 2.224.288 1.743.48 3.095.48 3.68 1.264 2.223-1.264 4.551-1.552 7.063-1.264.296-.864.88-2.032 1.168-3.383.288.872.288 0 .864 0 1.064-.872 2.32-2.224 4.264-1.744 1.16.872 3.095.288 4.255 1.744.872 1.063 1.456 2.8 2.224 4.16-.864 1.647 0 3.967-1.736 4.743l-1.744 1.744c-.583 0-.583.576-1.455.576.88 1.936.296 4.744-.576 6.68.576-.192 1.448-.192 1.448-1.064.296.296 0 .776 0 1.064v.776c0 1.456-.872 2.808-2.032 3.967-.576 1.744-1.936 3.968-3.776 4.264v.576c4.064 0 7.551 1.16 11.519 3.096v1.84c-3.384-1.84-7.064-3.288-11.223-3.576 0 .864 0 1.64-.296 1.928 3.296 1.552 6.392 3.008 9.2 5.52v2.616c-2.809-2.808-6-5.712-9.488-6.48-.288.576-1.36 1.152-1.648 2.216-2.032-1.448-4.256-2.8-6.576-3.096-.88 0-1.456-3-1.456-3a4.48 4.48 0 0 0 2.808-2.8h1.16c.872 0 .872-.584.872-1.456 0-1.744-3.68-1.744-5.424-1.744-2.031 0-3.383 0-4.543.872-.584 0-.288.872-.288 1.448 0 .296.864.88.864.88.584 0 1.167-.584 1.743-.584-.288 1.744.288 2.512 1.936 3.384l-.288 2.712c-3.391 0-5.711 1.36-8.231 2.52-.864-.584-1.448-1.456-2.032-2.232-3.384 1.16-9.096 5.616-9.096 5.616v-1.936c2.52-2.224 5.712-3.384 8.224-4.744v-1.936c-1.16-.576-2.224 0-3.384 0-2.416.296-4.84 1.36-6.584 2.712 0-.776-.287-1.936-.287-1.936 3.095-1.744 6.871-3.096 10.55-2.52v-1.16c-.295-.576-.295-1.448-.88-1.448-1.735-1.743-3.383-4.263-3.383-6l1.168-.583c-.584-1.648-1.168-5.808 0-7.256-1.648-.88-3.2-2.232-3.776-3.392-.584-1.448-1.16-2.224-1.456-3.871 1.36-1.448 1.84-2.032 2.712-3.68zm26.135 52.357c-1.456-.872-3.968-1.16-3.392-2.8.584-1.456 1.456-1.752 1.936-2.24.296 1.944.584 3.392 1.456 5.04m-17.519-8.032-.88 3.48c-.864-1.64-1.736-3.288-1.928-5.224zm-3.776 4.352a9.2 9.2 0 0 1-4.455-3.576 9.6 9.6 0 0 1-.768-3.392c1.064 0 1.84.872 2.032 1.456v.288c1.544 1.744 2.904 3 3.191 5.224m-3.095 3.392c0 1.16-.48 2.512-1.84 3.967-.288.288-1.064.872-1.064.872 0-1.744.776-3.095.776-4.551.864-.288 1.64-.872 2.128-.288m2.8 3.383c.296-.288.584 0 1.167 0l-1.16 4.16c-1.455 1.072-3.391.584-4.935.584 2.128-.576 3.872-3 4.936-4.744M41.359 64.44c.584-.872.88-1.744 1.752-2.52v3.392l-1.936.576zm0 5.712 2.232-.88-1.448 1.752c.288 2.704-.88 4.736-.88 7.256l-1.44-4.552c.48-1.16.768-2.224 1.544-3.576zm-.184 32.422c.288-1.16 1.16-1.744 1.352-1.936.872.288 1.448.288 2.52.584-1.456 1.448-2.808 2.032-3.392 3.68a8 8 0 0 0-.48-2.328m-18.103 37.55c-.288 0-1.16-.872-2.032-.872-.776 1.744 0 2.808 0 4.84a6.4 6.4 0 0 1-.288 1.744c-.48 0-1.552-1.16-1.84-2.224v-4.552l2.32-3.096c1.84 1.064 2.424 2.712 1.84 4.16m6.48 0c-.288-1.16-1.056-2.512-2.416-2.512-1.16 2.224-1.448 3.096-.288 6.48-.88.88-1.456 1.168-2.52 1.744-.576-1.16-.576-3.096-.576-4.256 0-2.032.288-3.968.872-5.616.864-.872 1.448-2.32 2.224-2.904h3c-1.36 0-1.36 1.16-1.36 2.032.776.296 1.936.584 1.936 1.936a8 8 0 0 1-.864 3.096zm7.071 3.968c0-1.448.872-3.096.872-4.84 0 0-1.16-1.16-2.32-1.16-.88.584-.88 1.16-1.167 2.032-.872 1.744-2.512 3.392-2.8 5.136-.296 0-.296-.296-.296-.296 0-2.8.288-7.64 1.936-9.576 1.447-1.743 2.52-1.743 4.255-1.935l1.456.287-1.16 1.744c1.16.576 2.8 1.64 2.8 3.384.104 2.128-3.576 5.224-3.576 5.224m10.64-5.416-1.84-5.04c-2.32-2.024-4.832-2.32-6.288-3.48-1.16-.287-1.16.585-1.736 0 0-.575 0-1.447.872-2.223h1.64l1.744.872c.872.872 2.8.872 2.8 2.512 0 .296-.28.584.584 1.743l2.616.584.287 2.32zm3.007-5.04c-.584-.576 0-2.024-.88-2.896 0-.583.592-.88.296-1.16-.288-.583-3.48-1.743-3.48-1.743-1.063-.88-2.52-1.744-3.68-2.808-1.16-.288-1.935.288-3.391.576v-.576c.584-1.16.584-2.52 2.232-2.52.872 0 1.936 0 2.512.88 1.16 0 1.744 1.152 2.52 1.44 1.256 1.36 2.416 2.04 3.2 2.52q0 1.312.863 1.744c1.744 0 1.16 1.647 1.744 2.8zm3.096-6.287c-.584-1.936-1.936-3.968-3.68-3.968-.872-.872-1.64-1.744-1.936-2.512-.776-.88-1.544 0-2.608-.88-1.167 0-2.52 0-3.68.88v-.88l1.937-2.224c2.031.296 4.351 0 4.84 1.456 1.447.872 2.8 1.744 3.095 2.32v.88c.584.288 1.744.576 2.224.864.096.68-.192 4.064-.192 4.064m3.096-13.84c-.872 0-2.32.585-3.968 0 .872-.583 1.744-.775 2.808-1.543l2.224-2.232h2.232c-.776 1.648-1.552 3.2-3.296 3.776m.872-12.68c.872 0 1.744 0 2.52.585 0 1.448.576 2.608.576 4.255-1.64-1.647-3.096-3.095-3.096-4.84m.872 16.936c.288-.864 1.064-1.16 1.648-1.928.576-.88 1.736-2.232 2.032-3.104 1.448-.768 2.032-.768 3.096-.768-.288 1.544-1.16 2.128-2.52 4.064-.872.576-2.608.872-4.256 1.736m3.968 5.327-1.744-2.224h4.264l.864 1.64c-1.16.88-2.032.88-3.384.584m1.936-16.55-.584-2.8a9.6 9.6 0 0 0 2.808-2.624c.096 2.031-.192 4.56-2.224 5.423m3.383-14.615c-.288 0 0 .872-.288.872 0 .576-.575 1.744-.575 2.8-.584.296-1.744.88-2.808.296v-.872c-.296-.576-.296-1.744-.296-2.224l-.288-.288c-.872.288-.872.864-.872 1.448-.288.584-.872 1.16-.872 1.936a3.6 3.6 0 0 1-2.512-.872V92.51c0-.584 0-.584-.296-.584l-1.448 1.448c-1.16-.864-1.456-3.096-1.456-4.544 4.56-2.52 10.159-1.744 13.647-.296.584.296 1.168.296 1.648.584-.288 1.744-.872 4.256-2.512 5.424.096-1.168-.488-1.744-1.072-2.616m5.136 30.398a8.8 8.8 0 0 1-2.808-1.456c-.288-.88-.288-1.744-.288-1.744h2.224l1.448 3.096h-.576zm0-7.752c-1.744-1.36-2.808-3-4.552-5.223l4.552.872c.872.576 2.416 2.416 3.192 3.288-.584.584-2.128 1.063-3.2 1.063zm2.904-10.55c-1.552-2.608-.776-4.84 0-6.672.576 1.64.872 3.28 1.064 4.64.288 1.167 2.032 1.743 2.512 2.52-1.064.287-3 .871-3.576-.48zm1.064 25.07 1.448-3.383c1.16 0 2.031-.584 2.52-.584 1.16-.288 2.031-.288 2.8-.288v.288c3.103 0 6.687-.288 9.007 2.224l.288 2.32c-1.16-.864-2.8-.864-3.384-2.32-1.064-.288-1.84-.288-3.296-.288-1.16.288-2.512.288-3.68.288-.288 0 0-.288-.576-.576-1.647.576-3.383.576-5.127 2.32m9.095 10.159-.872.88c-.872-.88-.288-3.104-1.744-3.392-1.447 0-2.511-1.36-3.095-1.648l1.16-.576s.583-.296 1.167 0c.576.576 1.16.872 1.16 1.448.576.776 1.448 0 2.032.776.192.872.48 1.936.192 2.512m8.712-.576c-.584-1.744-1.16-4.16-3.096-4.16-.288-1.168-.584-1.456-1.744-2.32l-2.128-.296c.288 1.16 1.84 1.16.776 2.616 1.064.872 1.936.872 2.512 2.224.584.872 0 2.032.296 2.52l-1.744.864c0-1.448.288-4.16-1.648-4.736-1.648.576-1.936-1.744-3.096-2.32-.584 0-.584-1.456-1.455-.88-1.448.88-3.096 0-4.544.88l1.448-2.24c1.16-.864 2.232-.576 3.391-.864l2.224-.288c2.224 0 4.16 1.16 6.392 1.936a2.72 2.72 0 0 1 1.64 2.608c.584.296 1.744.296 1.744 1.168-.096.576-.68 2.224-.968 3.28zm3.968-4.16c-.584-.88-.872-1.456-1.448-1.456.864-3.096-.88-5.712-1.456-8.224v-.88c.872 1.456 3.096 2.816 2.808 4.264.288 2.52.288 4.84.288 6.296zm-2.8-35.038 2.216-.968c.88.672 2.04.96 2.52 1.256-.776.872-3.096 1.064-4.744-.288zm18.959 4.544c.584.584 1.168.88 1.648 1.647v2.224c-2.512-1.448-3.968-3.967-6.192-6.48 2.32 0 2.904 2.32 4.552 2.609m-12.575.584c.768.872 1.84 2.031 1.84 2.8 0 .88-.584 1.167-1.072 1.751 0 0-1.064-1.456-1.064-2.032 0-1.167 0-1.743.296-2.52m2.416 21.104c0-1.744-.288-3.104-1.448-4.264 0-.576.768-.576.288-1.448 0 0-1.552-.88-1.552-2.032s1.064-2.032 1.552-2.808c0-.296 1.16.576 1.16 2.224 0 .288 0 1.16-.288 1.744-.288.872 1.743.872 1.743 1.744 0 1.64-1.167 3.096-1.455 4.84m3.095-12.2c0 .585-.872 1.064-1.16 1.064 0 0-1.448-1.36-1.648-2.711-.288-1.16.88-3.096.88-3.096.288 0 .576.584.864.584.296.288 0 1.16.296 1.936.768.68 1.352 1.648.768 2.224m2.52 14.719c.584-1.456.584-4.264 0-4.264-.584-.288-1.744 0-1.744-.584 0-.872.288-1.936.288-2.512 0-1.168-.864-1.744-.864-2.232 0-1.736 2.032-1.936 2.512-3.096.288 1.16.288 2.224.288 3.68 0 .584.88 2.32 0 3.68 0 .872 1.648.288 1.648 1.16.192 1.36-1.544 3-2.128 4.16m4.552-6.784c-.88 0-.88-.576-.88-1.744-.288-1.736-.864-3.096-1.44-4.832-.584-2.232-1.944-4.072-3.104-6.68-.288-1.168-1.743-1.744-2.8-2.52 1.44 0 2.8 0 3.96 1.16 0 .584.296.88 1.16 1.744 1.936 0 1.456 2.52 3.104 3.68-.88.776-1.168 1.256-1.744 1.84.872.576 1.744.872 2.032 1.744 0 1.64-.288 3.576-.288 5.608m3.968-2.8c-.584-1.744-1.744-3.392-2.32-5.04 0-.288-.296-.288.288-.576.288 0 1.448 0 1.448.288.288.584.872 1.36.872 2.224 0 1.064-.584 1.936-.288 3.096m15.095-8.424c-.576-.584 0-1.744-1.448-1.744-.584 0-1.456.872-1.456.872-.48.288-2.128-.872-2.128 0 0 1.448-1.064 1.936-2.52 1.936-.576 0-1.16 0-1.736-.288v-2.72c3.68 0 3.384-1.152 4.936-1.152 1.064 0 1.84.576 2.704.576 1.456 0 .584-.576 2.04-.576 1.448 0 1.936 1.16 2.8 1.448 0 .872.88 2.032.88 3.096-1.84 0-3.784-.576-4.072-1.448m1.744 7.551c-.872-.296-2.8-.584-2.8-1.455 0-1.16-.592-1.448-1.944-1.448-1.064 0-1.84.288-3.48.864 0 0-.88-1.16-1.168-2.224a13.6 13.6 0 0 1 3.776-.776c1.936 0 3.872 0 3.872.776 0 1.064 1.744 1.36 1.744 4.263m-3.2-15.783c.88 0 1.456-.575 2.04-.575 1.448 0 2.512 2.32 2.8 3.967a16.5 16.5 0 0 0-7.544-2.32c-1.064 0-4.36 1.44-5.52 2.512l-.575-2.52c1.735-.288 1.735-1.735 2.8-1.735.88 0 1.935-.296 2.72-.296.767 0 1.351-.576 1.543-.576 1.448.192.96 1.543 1.744 1.543zm-8.512-3.48c.872-.88 2.224-2.031 3.384-2.031 1.936 0 3.488 1.448 3.488 2.704-1.552 0-1.84-.192-2.904-.192-1.448 0-3.096.48-3.968 1.936-.584-1.16-.288-1.744 0-2.416m.872-7.456c1.16-.576 1.744-.288 2.224 0 0 1.744 1.936.872 3 1.456.48.864.776 1.448 1.064 2.512-1.84-.576-2.904-1.448-4.544-1.448-.584 0-3.104.872-3.392 1.448-.871-1.064.48-3.384 1.648-3.968m5.224 42.59a8 8 0 0 0-3.776-.88c0-1.152-.872-2.512-1.448-2.512-1.744 0-1.456 1.168-2.808 1.168l2.52-2.52c.288-.584.288-.584.864-.584.88.584 1.168.88 1.936.88 0 .576 0 .864-.288 1.64.872.584 1.36-.288 1.936.584.776.288 1.552.576 1.552 1.736zm2.712-3.68c-1.936-.288-1.936-2.52-2.224-2.8-1.36-1.751-3.2-.296-4.648-.296-.584-1.743.288-1.743.288-2.807.88 0 1.744-.584 2.52 0 1.36-.584 2.128.871 3.48.871.296.576.88 2.032 1.168 2.224 0 1.064-.296 1.36-.584 2.808m1.448-6c-2.032 0-.864-3.967-4.936-3.967-.768 0-1.352 1.448-2.416 1.744 0-.296.288-2.032.288-2.032 0-.584.296-1.744 1.36-2.232 2.128 0 1.544.88 3.192 1.456.872.288 1.448.872 2.512.872zm3.976 12.776c0-1.36-1.744-2.224-2.808-4.552l1.16-2.032c.872.584 2.032 1.456 2.032 2.808 0 0-.288.584 0 1.16 0 .296.583.296.583.88-.68.96-.68.96-.967 1.736m1.935-5.424-1.743-2.512c.575-.872.575-1.936 1.447-3.392.296 0 1.16 1.936 1.16 2.232 0 1.736 0 2.32-.864 3.68m-77.916 9.391c-.88 2.8 1.736 4.552 2.032 6.776h3.384c-1.448-2.52-1.744-6.48-1.744-7.36 0-1.447 0-3.383.88-4.735l-3.104.576c-.872 1.064-1.16 1.648-1.16 2.224l1.448-.576c.296 0 .584.576.88 1.16-.4 1.36-2.04 1.36-2.616 1.935m49.262-1.448c-.575 0-.871 1.448-.871 2.032 0 2.512 1.16 4.544 1.935 6.192h2.52c-.288-2.224-.88-4.256-.88-6.776 0-1.448.88-3.095 1.168-3.967l-2.8.288c1.152.583 1.152 2.031 1.152 2.231a3.2 3.2 0 0 1-1.16 2.224c-.48-.48-.48-1.36-1.064-2.224"/></svg>