<svg width="192" height="192" fill="none" xmlns="http://www.w3.org/2000/svg"><path d="M58 38a16 16 0 1 0-27.314 11.314M52 78h28l-4 24-14 10m-36 47c18-10 34-13 34-13s-14-12-38-7m144 20c-18-10-34-13-34-13s14-12 38-7M68 170c16-7 28-7 28-7m0 0s12 0 28 7m-28-7v-22m-14-11s6-2 14-2 14 2 14 2M80 54l4-6m50-10a16 16 0 0 1 11.857-15.46A15.998 15.998 0 0 1 163.856 30 15.998 15.998 0 0 1 158 51.856M140 78h-28l4 24 14 10m-18-58-4-6" stroke="#000" stroke-width="12" stroke-linecap="round" stroke-linejoin="round"/><path d="M96 140a5 5 0 1 0 0-10 5 5 0 0 0 0 10ZM69 92a5 5 0 1 0 0-10 5 5 0 0 0 0 10Zm54-10a5 5 0 1 1 0 10 5 5 0 0 1 0-10Z" stroke="#000" stroke-width="10" stroke-linecap="round" stroke-linejoin="round"/></svg>