<svg xmlns="http://www.w3.org/2000/svg" width="192" height="192" viewBox="0 0 192 192"><path d="m127.34 23.092 32.392-5.706a14.096 14.096 0 0 1 4.888 27.76l-32.392 5.714z" opacity=".5"/><path d="M127.7 23.228a16 16 0 0 0-2.789.529L95.236 28.99a14.104 14.104 0 0 0-11.115 13.76 14.104 14.104 0 0 0 15.988 13.928l.016.08 28.633-5.049v58.06a23.48 23.48 0 0 0-32.889 21.477 23.489 23.489 0 0 0 46.977 0V37.268A14.104 14.104 0 0 0 127.7 23.22zM61.922 37.316a14.104 14.104 0 0 0-13.039 14.056v72.485a23.48 23.48 0 0 0-32.881 21.477 23.489 23.489 0 0 0 46.977 0V65.428a14.104 14.104 0 0 0 14.096-14.056 14.104 14.104 0 0 0-15.146-14.056z"/></svg>