<svg xmlns="http://www.w3.org/2000/svg" width="192" height="192" viewBox="0 0 192 192"><path d="M86.668 16a56 56 0 0 0 7.904 17.465c5.904 8.624 13.496 13.752 13.496 13.752a56 56 0 0 0-7.896-17.473C94.26 21.128 86.668 16 86.668 16m54.633 30.08c-28.024.128-50.641 22.584-50.521 50.16.128 27.584 22.952 49.839 50.984 49.711a48 48 0 0 0 6.88-.496c-19.456-2.442-35.35-15.715-41.462-33.361 5.427-.061 11.95-4.342 11.95-4.342s-15.183-4.607-14.231-18.287c2.992-22.44 21.096-40.057 43.76-42.889a56 56 0 0 0-7.36-.496m-86.4 4.56A57.6 57.6 0 0 0 70.213 62.4c9.313 4.88 18.44 5.9 18.469 5.903a57.6 57.6 0 0 0-15.301-11.758c-9.328-4.88-18.48-5.905-18.48-5.905m33.781 17.662.01.01v-.008zM62.477 92.768c-10.576 0-19.137 3.329-19.137 3.329s8.569 3.32 19.137 3.32 19.135-3.32 19.135-3.32-8.575-3.328-19.135-3.328m26.215 30.92s-9.15 1.025-18.479 5.913c-9.336 4.88-15.312 11.768-15.312 11.768s9.153-1.023 18.48-5.903 15.311-11.777 15.311-11.777zm19.377 21.097s-7.592 5.128-13.496 13.752A56 56 0 0 0 86.669 176s7.592-5.128 13.504-13.752a56.8 56.8 0 0 0 7.896-17.465z"/></svg>