<svg xmlns="http://www.w3.org/2000/svg" width="192" height="192" viewBox="0 0 192 192"><path d="M36.071 16a4.89 4.89 0 0 0-4.902 4.902V31.17H20.902A4.89 4.89 0 0 0 16 36.071v5.215a4.89 4.89 0 0 0 4.902 4.902h114.75c5.64 0 10.213 4.572 10.213 10.213v75.856h15.019V56.4c0-13.935-11.297-25.231-25.231-25.231H46.187V20.903A4.89 4.89 0 0 0 41.285 16zM96 59.655c-19.984 0-36.345 16.361-36.345 36.345S76.016 132.345 96 132.345 132.345 115.984 132.345 96 115.984 59.655 96 59.655m-64.886.089V135.6c0 13.935 11.297 25.23 25.231 25.23h89.466v10.268a4.89 4.89 0 0 0 4.902 4.902h5.215a4.89 4.89 0 0 0 4.902-4.902V160.83h10.267a4.89 4.89 0 0 0 4.902-4.903v-5.214a4.89 4.89 0 0 0-4.902-4.902H56.347c-5.64 0-10.213-4.573-10.213-10.213V59.743zM96 74.674c11.867 0 21.327 9.459 21.327 21.327 0 11.867-9.46 21.327-21.327 21.327S74.673 107.868 74.673 96 84.133 74.674 96 74.674"/></svg>