<svg xmlns="http://www.w3.org/2000/svg" width="192" height="192" viewBox="0 0 192 192"><path d="M64.11 19.539c-8.193.386-13.787 1.694-18.679 3.615-5.061 1.973-9.352 4.62-13.621 8.905-4.268 4.284-6.898 8.577-8.856 13.648-1.896 4.9-3.18 10.5-3.542 18.698-.362 8.197-.442 10.833-.402 31.743s.132 23.53.53 31.745c.39 8.19 1.693 13.784 3.615 18.677 1.976 5.062 4.62 9.35 8.906 13.62s8.576 6.894 13.658 8.856c4.898 1.892 10.498 3.183 18.694 3.542s10.834.442 31.738.402 23.536-.133 31.748-.523c8.214-.389 13.777-1.701 18.671-3.614 5.063-1.98 9.355-4.62 13.621-8.907 4.268-4.288 6.895-8.584 8.852-13.657 1.898-4.897 3.187-10.498 3.542-18.688.36-8.22.444-10.843.405-31.75-.04-20.907-.135-23.529-.525-31.74s-1.694-13.787-3.614-18.683c-1.98-5.062-4.62-9.348-8.904-13.621-4.284-4.274-8.585-6.9-13.655-8.852-4.9-1.896-10.498-3.188-18.694-3.542s-10.834-.446-31.746-.405-23.53.13-31.743.53m.9 139.2c-7.508-.327-11.584-1.574-14.301-2.618-3.597-1.386-6.16-3.062-8.867-5.743s-4.37-5.253-5.775-8.842c-1.055-2.717-2.326-6.79-2.677-14.296-.382-8.114-.462-10.55-.507-31.108-.045-20.557.034-22.991.39-31.108.32-7.501 1.576-11.582 2.618-14.298 1.386-3.602 3.055-6.16 5.743-8.866 2.687-2.705 5.251-4.372 8.844-5.776 2.714-1.06 6.785-2.32 14.29-2.677 8.12-.385 10.553-.462 31.108-.507 20.554-.045 22.994.032 31.118.39 7.5.326 11.584 1.57 14.296 2.618 3.598 1.386 6.16 3.05 8.865 5.743 2.706 2.691 4.373 5.247 5.778 8.847 1.06 2.706 2.321 6.776 2.675 14.285.386 8.12.474 10.555.511 31.108s-.035 22.993-.391 31.108c-.328 7.507-1.573 11.585-2.618 14.305-1.386 3.596-3.057 6.16-5.746 8.864s-5.25 4.37-8.844 5.775c-2.71 1.058-6.787 2.32-14.285 2.678-8.121.382-10.554.462-31.116.507s-22.988-.038-31.108-.39m62.77-103.89a9.24 9.24 0 1 0 9.222-9.255 9.24 9.24 0 0 0-9.221 9.255M56.463 96.078c.043 21.837 17.778 39.499 39.61 39.458s39.507-17.775 39.466-39.612c-.042-21.837-17.781-39.504-39.616-39.461s-39.501 17.781-39.46 39.615m13.87-.028a25.667 25.667 0 1 1 25.718 25.616A25.664 25.664 0 0 1 70.333 96.05"/></svg>