<svg width="192" height="192" fill="none" xmlns="http://www.w3.org/2000/svg"><path d="m65 100.261 26.78 26.55a6 6 0 0 0 8.449-.001L127 100.261m-31.004 24.218V61" stroke="#000" stroke-width="11.998" stroke-linecap="round" stroke-linejoin="round"/><path d="M95.998 22C136.866 22 170 55.13 170 95.998S136.866 170 95.998 170c-10.215 0-19.949-2.07-28.8-5.819m-23.526-15.858a74.24 74.24 0 0 1-15.858-23.521M22 96.002a73.798 73.798 0 0 1 5.814-28.808m15.858-23.522a74.25 74.25 0 0 1 23.522-15.858" stroke="#000" stroke-width="12.001" stroke-miterlimit="6" stroke-linecap="round" stroke-linejoin="round"/></svg>