<svg xmlns="http://www.w3.org/2000/svg" width="192" height="192" viewBox="0 0 192 192"><defs><linearGradient id="a" x2="12.689" y1="10.851" y2="10.851" gradientTransform="translate(21.636 15.823)scale(8.0089)" gradientUnits="userSpaceOnUse"><stop offset=".26"/><stop offset="1" stop-opacity="0"/></linearGradient></defs><path d="M29.477 40.506a7.825 7.825 0 0 1-3.924-14.6l15.673-9.034a7.833 7.833 0 0 1 7.824 13.551l-15.665 9.026a8 8 0 0 1-3.908 1.041zm54.797-2.098a8 8 0 0 0-3.916 1.049l-54.805 31.61a7.817 7.817 0 0 0 3.924 14.6 8 8 0 0 0 3.908-1.048l50.888-29.36 62.63 36.136-109.61 63.238v-27.11l4.965-2.86-8.874-12.933-7.84 4.5a7.85 7.85 0 0 0-3.909 6.776v45.17a7.85 7.85 0 0 0 3.908 6.776A8 8 0 0 0 29.468 176a8 8 0 0 0 3.916-1.042l133.08-76.797a7.817 7.817 0 0 0 0-13.543l-39.011-22.505-.256-.144L88.17 39.465a8 8 0 0 0-3.909-1.057z"/><path fill="url(#a)" d="M107.69 68.914 62.824 94.759l-37.618 21.704a7.77 7.77 0 0 0-3.564 6.543v13.535l15.641-9.018L68.07 109.76l55.197-31.867z"/></svg>