<svg xmlns="http://www.w3.org/2000/svg" width="192" height="192" viewBox="0 0 192 192"><path d="M50.841 149.43c-1.92-.928-2.696-2.376-2.696-5.04 0-.944-.328-2.448-.736-3.328a80 80 0 0 1-1.696-4.192c-2.104-5.584-8.976-17.392-11.632-19.984-.592-.576-1.072-1.224-1.072-1.44s-2.88-3.224-6.384-6.704c-6.704-6.64-8.656-8.936-9.888-11.64-.912-2-.992-4.8-.16-5.488.784-.64 5.744-.56 7.056.12.536.28 2.024 1.896 3.296 3.584s3.04 3.632 3.92 4.312c.88.672 2.36 2 3.296 2.96.936.944 3.04 2.984 4.672 4.536s3.656 3.84 4.496 5.104c2.504 3.752 4.464 5.504 6.152 5.504.52 0 .568-.432.36-3.304-.128-1.824-.24-18.512-.256-37.096l-.008-33.776.872-.928c1.12-1.2 2.6-1.192 4.52.024 2.48 1.568 2.72 2.624 2.456 10.776-.128 3.848-.192 7.6-.144 8.32.128 1.888.16 39.304.04 40.672-.056.624-.016 3.664.088 6.768.168 4.832.336 6.032 1.208 8.504 1.576 4.464 2 5.344 2.544 5.344.896 0 7.04-7.176 7.04-8.224 0-.184.784-1.504 1.744-2.928s2.296-3.712 2.984-5.08c.688-1.376 1.872-3.6 2.64-4.96 2.144-3.776 2.376-4.224 3.2-6.048 1.024-2.264 2.16-3.504 4.08-4.48 2.224-1.136 4.128-1.048 6.216.272 4.84 3.064 4.32 11.168-.88 13.888-.56.288-1.816 1.728-2.8 3.2-.992 1.472-2.104 2.84-2.48 3.04s-1.712 1.592-2.984 3.096c-4.504 5.344-11.48 12.624-14.4 15.032-.88.72-2.784 2.928-4.24 4.88l-2.632 3.568.432 1.856c.24 1.024.424 2.88.424 4.136 0 1.96-.16 2.48-1.112 3.688-1.824 2.296-4.664 2.848-7.536 1.456m83.263-.016c-.784-.84-.8-1.152-.96-21.28-.096-11.232-.04-27.92.104-37.072.16-9.152.224-16.704.16-16.784s-.544-.032-1.056.096q-2.168.544-5.136 4.936a40 40 0 0 1-4.8 5.52 264 264 0 0 0-4.48 4.36 48 48 0 0 1-3.328 2.992c-1 .8-2.856 2.84-4.12 4.52-1.36 1.8-2.776 3.256-3.44 3.536-.608.256-2.352.48-3.864.48-3.4 0-3.784-.352-3.496-3.16.376-3.672 2.4-6.464 10.2-14.056 3.2-3.12 6.152-6.192 6.552-6.816s.984-1.384 1.312-1.696c2.528-2.4 9.136-13.816 11.728-20.24.672-1.664 1.456-3.56 1.736-4.216a8.8 8.8 0 0 0 .52-2.944c0-2.688.784-4.136 2.728-5.08 2.896-1.4 5.648-.864 7.488 1.456 1.504 1.896 1.72 3.352.984 6.52-.32 1.392-.48 2.84-.352 3.216.44 1.24 5.376 7.552 6.768 8.656 2.44 1.928 10.08 9.92 14.168 14.8 1.256 1.504 2.592 2.896 2.976 3.096s1.552 1.632 2.624 3.176c1.216 1.76 2.36 2.976 3.072 3.28 2.272.936 3.808 3.896 3.808 7.32 0 3.12-1.36 5.416-3.96 6.672-2.184 1.056-4.056.888-6.344-.56-1.504-.96-3.696-3.824-3.696-4.848 0-.24-.368-1.04-.824-1.768a80 80 0 0 1-4.04-7.376 56 56 0 0 0-3.208-5.544 32 32 0 0 1-2.136-3.536c0-1.016-6.184-8.136-7.064-8.136-.568 0-.808.52-2.424 5.176-1.192 3.44-1.256 4.88-1.184 26.792.12 40.648.064 45.2-.64 46.456-.76 1.376-3.168 2.888-4.608 2.904a2.8 2.8 0 0 1-1.768-.848"/></svg>