<svg xmlns="http://www.w3.org/2000/svg" width="192" height="192" viewBox="0 0 192 192"><defs><linearGradient id="a" x1="80" x2="28" y1="28" y2="80" gradientTransform="translate(-70.154 -70.154)scale(3.0769)" gradientUnits="userSpaceOnUse"><stop offset="0" stop-opacity=".498"/><stop offset="1"/></linearGradient></defs><path d="M85.231 52.923c-12.954 0-19.446 0-24.093 3.107a18.4 18.4 0 0 0-5.108 5.108c-3.108 4.646-3.107 11.14-3.107 24.093v21.538c0 12.954 0 19.446 3.107 24.093a18.4 18.4 0 0 0 5.108 5.108c4.646 3.108 11.139 3.107 24.093 3.107h21.538c12.954 0 19.446.001 24.093-3.107a18.4 18.4 0 0 0 5.108-5.108c3.108-4.646 3.107-11.139 3.107-24.093V85.231c0-12.954 0-19.446-3.107-24.093a18.4 18.4 0 0 0-5.108-5.108c-4.646-3.108-11.139-3.107-24.093-3.107zM96 71.385c13.522 0 24.615 11.094 24.615 24.615 0 13.522-11.094 24.615-24.615 24.615-13.522 0-24.615-11.094-24.615-24.615 0-13.522 11.094-24.615 24.615-24.615" opacity=".22"/><path fill="url(#a)" d="M114.46 16c3.385 0 6.154 2.77 6.154 6.154v18.923c7.538.554 12.769 1.846 17.108 4.738a30.8 30.8 0 0 1 8.461 8.462c2.893 4.338 4.185 9.569 4.739 17.108h18.923c3.384 0 6.154 2.769 6.154 6.154s-2.77 6.153-6.154 6.153h-18.492c.03 3.262.03 6.831.03 10.77v3.076c0 3.939 0 7.508-.03 10.77h18.492c3.384 0 6.154 2.769 6.154 6.153 0 3.385-2.77 6.154-6.154 6.154h-18.923c-.554 7.538-1.846 12.769-4.739 17.108a30.8 30.8 0 0 1-8.461 8.461c-4.339 2.893-9.57 4.185-17.108 4.739v18.923c0 3.384-2.77 6.154-6.154 6.154s-6.154-2.77-6.154-6.154v-18.492c-3.261.03-6.83.03-10.769.03H86.86c-1.108 0-2.154-.03-3.169-.03v18.492c0 3.384-2.77 6.154-6.154 6.154s-6.154-2.77-6.154-6.154v-18.923c-7.107-.523-12.185-1.692-16.369-4.246l-.738-.493a30.3 30.3 0 0 1-7.6-7.23l-.862-1.231c-2.892-4.339-4.184-9.57-4.738-17.108H22.153c-3.385 0-6.154-2.77-6.154-6.154s2.77-6.154 6.154-6.154h18.492c-.03-3.261-.03-6.83-.03-10.769v-3.077c0-3.938 0-7.507.03-10.769H22.153c-3.385 0-6.154-2.769-6.154-6.153 0-3.385 2.77-6.154 6.154-6.154h18.923c.523-7.108 1.692-12.185 4.246-16.37l.492-.738a30.3 30.3 0 0 1 7.231-7.6l1.231-.861c4.339-2.893 9.57-4.185 17.108-4.739V22.154c0-3.384 2.77-6.154 6.154-6.154s6.154 2.77 6.154 6.154v18.492c1.015 0 2.061-.03 3.169-.03h10.677c3.938 0 7.508 0 10.769.03V22.154c0-3.384 2.769-6.154 6.154-6.154zm-20 36.923c-11.046 0-18.431.03-24.031.585-5.385.553-7.785 1.507-9.292 2.523a18.4 18.4 0 0 0-5.108 5.107c-1.015 1.508-1.97 3.908-2.523 9.293-.554 5.6-.585 12.985-.585 24.03v3.078c0 11.046.031 18.43.585 24.03.554 5.385 1.508 7.785 2.523 9.293a18.4 18.4 0 0 0 5.108 5.108c1.507 1.015 3.907 1.969 9.292 2.523 5.6.554 12.985.584 24.031.584h3.077c11.046 0 18.43-.03 24.03-.584 5.386-.554 7.786-1.508 9.293-2.523a18.4 18.4 0 0 0 5.108-5.108c1.015-1.508 1.97-3.908 2.523-9.292.554-5.6.585-12.985.585-24.031v-3.077c0-11.046-.031-18.431-.585-24.031-.554-5.385-1.508-7.785-2.523-9.293a18.4 18.4 0 0 0-5.108-5.107c-1.507-1.016-3.907-1.97-9.292-2.523-5.6-.554-12.985-.585-24.031-.585z"/><path fill="none" stroke="url(#a)" stroke-width="12" d="M96 77.538A18.46 18.46 0 0 1 114.462 96 18.46 18.46 0 0 1 96 114.462 18.46 18.46 0 0 1 77.538 96 18.46 18.46 0 0 1 96 77.538z"/></svg>