<svg xmlns="http://www.w3.org/2000/svg" width="192" height="192" viewBox="0 0 192 192"><path d="M136.67 19.213a6 6 0 0 0-3.508 1.66L96.005 58.03l-37.43-37.157c-5.673-5.673-14.186 2.823-8.514 8.504l37.44 37.15H36.85a17.744 17.744 0 0 0-17.744 17.752v70.978c0 9.796 7.948 17.744 17.744 17.744h118.3a17.744 17.744 0 0 0 17.744-17.744V84.28a17.744 17.744 0 0 0-17.744-17.753h-50.649l37.157-37.149c4.295-3.987.796-11.122-4.988-10.173M81.205 78.358c44.036 0 50.281.128 50.281 41.41 0 41.28-6.673 41.408-50.28 41.408-43.806 0-50.274-.445-50.274-41.409 0-40.956 6.468-41.409 50.273-41.409m70.986 17.376a9.22 9.22 0 0 1 9.24 9.24 9.24 9.24 0 0 1-9.24 9.24 9.24 9.24 0 0 1-9.248-9.24 9.24 9.24 0 0 1 9.24-9.24zm0 23.665a9.21 9.21 0 0 1 9.24 9.24 9.24 9.24 0 0 1-9.24 9.24 9.24 9.24 0 0 1-9.248-9.24 9.24 9.24 0 0 1 9.24-9.24z"/></svg>