<svg xmlns="http://www.w3.org/2000/svg" width="192" height="192" viewBox="0 0 192 192"><path d="M100.06 19.002c-13.733-.14-28.519 9.4-39.737 27.535 24.649-24.767 44.921-19.479 54.454 7.091l.03.087a195 195 0 0 0-28.47 3.367c-23.88 4.585-42.273 12.548-57.12 20.08 2.212 5.524 4.385 10.352 7.245 16.055-32.72 33.826-12.843 66.602 31.128 67.939-33.723-8.953-39.303-29.103-21.18-50.602a194 194 0 0 0 16.193 21.753C76.48 148.62 91.62 161.29 109.623 173a194 194 0 0 0 10.402-14.49c45.65 11.399 64.078-22.2 43.255-60.935 9.108 33.667-5.534 48.582-33.205 43.642l.006-.01a193.5 193.5 0 0 0 11.118-26.085h-.002c8.537-24.75 10.44-44.892 11.237-59.696a187 187 0 0 0-17.677-1.772c2.783 17.479 3.346 33.689 1.147 51.384a163.9 163.9 0 0 1-15.992 53.446c-18.442-7.04-32.88-15.325-46.082-25.457C55.034 118.9 42.293 101.762 36.568 93.19c.397-.33.802-.65 1.206-.97a176 176 0 0 1 42.549-25.646c17.25-7.564 35.716-11.536 54.433-12.92-6.654-23.39-20.078-34.505-34.696-34.653zM75.833 76.065a1.81 1.81 0 0 0-1.808 1.808v45.164c.001.998.81 1.807 1.808 1.81h33.126L89.425 106.72c-2.905-2.802-1.175-6.458 2.253-5.865 5.87-.104 10.184-2.807 12.516-6.436a12.5 12.5 0 0 0 1.943-5.476 10.9 10.9 0 0 0-.837-5.517c-1.42-3.248-4.643-6.044-9.97-7.362zm32.659 0a17.5 17.5 0 0 1 4.368 13.537 19.26 19.26 0 0 1-2.97 8.472h-.002a20.5 20.5 0 0 1-10.838 8.35l19.854 18.422h3.169a1.81 1.81 0 0 0 1.81-1.81V77.872a1.81 1.81 0 0 0-1.81-1.808z"/></svg>