<svg xmlns="http://www.w3.org/2000/svg" width="192" height="192" viewBox="0 0 192 192"><path d="M96 19c-42.472 0-77 34.528-77 77s34.528 77 77 77 77-34.528 77-77-34.528-77-77-77m0 9.356c13.858 0 26.73 4.146 37.445 11.27l-79.609 79.376c-2.76 3.98-.468 9.482 4.303 10.321 2.162.4 24.671.138 31.761-.364 11.43-.817 19.182-2.691 26.11-6.317 4.043-2.11 5.938-3.564 7.845-6.066 7.15-9.41 2.465-19.064-1.346-22.57-4.388-3.977-11.92-7.776-17.583-9.473-2.196-.647-2.753-.955-3.025-1.662-.45-1.191-.804-.817 17.434-19.08 9.745-9.77 17.746-17.635 18.214-17.916 1.038-.73 2.721-.853 3.707-.182 13.75 12.373 22.388 30.313 22.388 50.308 0 37.413-30.23 67.644-67.644 67.644-37.413 0-67.644-30.231-67.644-67.644S58.587 28.357 96 28.357zm2.06 59.267c1.6-.085 3.266.42 5.768 1.713 16.02 8.29 5.267 23.468-6.266 27.805-4.902 1.847-10.706 2.805-19.76 3.256-2.103.102-5.422.184-7.38.184-3.54 0-3.569.002-4.139-.483a1.96 1.96 0 0 1-.515-2.476c.17-.332 6.699-6.955 14.477-14.725C96.04 87.137 95.312 87.76 98.061 87.623z"/></svg>