<svg xmlns="http://www.w3.org/2000/svg" width="192" height="192" viewBox="0 0 192 192"><path d="M154.88 167.73c-3.448-4.496-15.384-14.112-21.071-16.96-1.68-.848-3.088-1.48-3.144-1.424s-1.752.976-3.76 2.024c-5 2.608-12.56 4.72-22.343 6.24-10.208 1.592-22.407.056-34.695-4.352l-8.32-2.992-5.712 3.376c-3.135 1.856-8.727 6.312-12.432 9.895-5.471 5.312-6.663 7.04-6.4 9.344.297 2.48.769 2.808 4 2.744 2.016-.04 8.592-1.104 14.609-2.352 24.999-5.208 59.43-5.256 83.854-.112 13.264 2.8 15.832 3.384 16.928 2.368.312-.28.504-.68.776-1.2.96-1.76.576-2.856-2.288-6.6m1.776-115.03c-8.896-16.832-24.615-29.639-42.327-34.487-14.304-3.92-32.543-2.56-45.567 3.408-27.52 12.6-44.055 41.68-40.207 70.742 2.112 15.952 8.167 27.88 20.239 39.8 14.2 14.04 27.839 19.55 48.247 19.518 9.655-.016 12.816-.456 19.479-2.728 21.95-7.471 37.015-22.383 44.695-44.239 2.392-6.807 2.768-9.575 2.784-20.335.016-14.08-1.488-20.59-7.344-31.679M140 95.994a39.999 39.999 0 1 1-79.998 0 39.999 39.999 0 0 1 79.998 0m-8 0a31.999 31.999 0 1 1-63.998 0 31.999 31.999 0 0 1 63.998 0"/></svg>