<svg xmlns="http://www.w3.org/2000/svg" width="192" height="192" viewBox="0 0 192 192"><path d="m39.709 49.201-.325 30.21c0 6.802 4.338 9.326 9.154 9.36 4.552-.034 8.616-2.327 9.07-8.273l.307-47.843a5.185 5.185 0 0 1 5.15-5.194h6.982c2.866 0 5.176 2.362 5.159 5.254l-.06 8.144c1.42-.88 3.063-1.411 4.8-1.411 5.282.009 9.541 4.326 9.48 9.608 0 5.236-4.193 9.496-9.48 9.496a9.4 9.4 0 0 1-4.903-1.42l-.162 22.287c0 6.656 4.158 9.214 8.855 9.351 6.476 0 9.779-3.756 9.779-3.756l.008.018a7.7 7.7 0 0 1 5.852-2.396h.01c2.925.068 5.791 1.566 7.074 4.235 1.138 2.37 3.56 3.944 7.495 4.252 4.723.368 7.828-1.437 8.102-5.03.283-3.705-1.873-5.074-10.566-7.915-12.748-4.363-21.149-7.785-20.19-20.465.898-11.84 10.565-18.788 25.922-17.599 8.744.685 14.947 3.893 18.72 8.642 4.192 5.287.12 13.158-6.579 13.013a7.96 7.96 0 0 1-6.973-4.484c-1.026-2.121-3.063-3.533-6.416-3.79-4.612-.359-7.119 1.37-7.367 4.723-.333 4.303 4.235 5.262 11.405 7.743 11.926 4.175 20.26 8.675 19.404 19.917-.95 12.56-10.652 19.875-26.599 18.634-5.877-.462-10.746-1.882-14.562-4.158-5.475 3.157-10.95 4.14-18.394 4.14-7.392 0-13.492-2.018-17.428-6.296-3.037 3.662-7.452 6.297-13.894 6.297-15.39 0-26.565-6.485-26.445-20.876l.325-34.48a3.42 3.42 0 0 1 3.406-3.421h10.48a3.42 3.42 0 0 1 3.406 3.482m-8.248-11.105c-5.224 0-9.44-4.273-9.368-9.497a9.52 9.52 0 0 1 9.368-9.6c5.279 0 9.48 4.253 9.48 9.6 0 5.236-4.193 9.497-9.48 9.497m110.71 70.352c17.65 0 29.26 11.516 29.26 30.834v1.386c0 3.08-2.464 5.578-5.51 5.578h-36.54c.359 7.674 4.979 12.594 12.79 12.594 4.552 0 7.888-1.429 9.822-3.987l.017-.026a7.87 7.87 0 0 1 7.563-3.354c6.64.89 9.48 9.3 4.535 13.877-.55.528-8.202 7.65-21.457 7.65-15.717 0-27.31-8.745-30.63-23.332v13.364c0 4.723-3.78 8.556-8.444 8.556a8.496 8.496 0 0 1-8.435-8.556v-25.179c0-7.726-3.465-12.063-9.942-12.063-6.015 0-9.71 3.987-10.404 10.078v27.164c0 4.723-3.782 8.556-8.444 8.556a8.496 8.496 0 0 1-8.436-8.556v-25.179c0-7.726-3.585-12.063-9.71-12.063-6.708 0-10.755 4.92-10.755 12.183v25.068a8.47 8.47 0 0 1-8.436 8.539 8.496 8.496 0 0 1-8.444-8.547v-20.918l.034-.043a91 91 0 0 1-.034-1.831c0-31.313 24.058-30.372 31.681-30.372 8.213 0 14.801 3.397 18.728 9.6 3.465-5.502 9.36-9.6 18.377-9.6 12.936 0 21.697 8.325 22.578 22.253 3.191-14.861 14.784-23.673 30.235-23.673m-12.79 26.154h24.64c-.36-7.555-4.15-12.474-11.97-12.474-7.34 0-12.2 4.56-12.67 12.474"/></svg>