<svg width="192" height="192" fill="none" xmlns="http://www.w3.org/2000/svg"><circle cx="4" cy="4" r="4" transform="matrix(0 -1 -1 0 50 113)" stroke="#000" stroke-width="8" stroke-linejoin="round"/><circle cx="4" cy="4" r="4" transform="matrix(0 -1 -1 0 82 113)" stroke="#000" stroke-width="8" stroke-linejoin="round"/><path d="M46 67h32" stroke="#000" stroke-width="12" stroke-linecap="round" stroke-linejoin="round"/><path d="M164 137H38s-16 0-16-30c0-55 12-64 12-64h8V33h38v10h10s31.08 65.817 74.013 71.596c3.284.442 5.987 3.09 5.987 6.404v10a6 6 0 0 1-6 6Z" stroke="#000" stroke-width="12" stroke-linejoin="round"/><path d="M22 159h72.136a6.325 6.325 0 0 0 3.412-1.016C104.308 153.659 132.154 137 160 137m-114 0v22m32-22v22" stroke="#000" stroke-width="12" stroke-linecap="round" stroke-linejoin="round"/></svg>