<svg xmlns="http://www.w3.org/2000/svg" width="192" height="192" viewBox="0 0 192 192"><path d="M60.261 16c-1.825 0-3.315 1.49-3.315 3.345v2.376h-3.41a3.88 3.88 0 0 0-3.832 3.16l-5.199 18.34a37.8 37.8 0 0 0-1.218 9.222l-.243 20.925v2.406c0 6.51 5.26 11.74 11.769 11.74h88.065c2.677 0 4.866-2.19 4.836-4.866 0-3.65 0-6.603-.03-8.793v-.03a4.82 4.82 0 0 0-2.982-4.438c-18.555-7.543-33.372-23.456-40.946-32.825-3.133-3.863-5.868-8.03-8.24-12.41v-.03h-.03v-.03a4.41 4.41 0 0 0-3.868-2.281l-3.285-.09v-2.376c0-1.855-1.49-3.345-3.315-3.345zm-3.226 16.546h28.256a6.667 6.667 0 0 1 6.666 6.666v2.038c0 3.68-2.985 6.66-6.666 6.66H57.035c-3.68 0-6.66-2.98-6.66-6.66v-2.038c0-3.68 2.98-6.666 6.66-6.666m47.879 21.566h.03a2.76 2.76 0 0 1 2.768 2.769v9.826c0 1.552-1.247 2.799-2.768 2.799h-.03c-1.52 0-2.769-1.247-2.769-2.799v-9.826a2.76 2.76 0 0 1 2.769-2.769m9.916 5.905a2.76 2.76 0 0 1 2.768 2.77v8.025a2.76 2.76 0 0 1-2.768 2.77 2.78 2.78 0 0 1-2.769-2.77v-8.026a2.78 2.78 0 0 1 2.769-2.769m-57.884 1.064c3.62 0 6.535 2.921 6.535 6.541s-2.915 6.571-6.535 6.571-6.571-2.951-6.571-6.57 2.95-6.542 6.57-6.542m28.41 0c3.62 0 6.57 2.921 6.57 6.541s-2.95 6.571-6.57 6.571-6.541-2.951-6.541-6.57 2.92-6.542 6.54-6.542m38.415 3.862a2.78 2.78 0 0 1 2.768 2.768v5.781c0 1.551-1.247 2.769-2.768 2.769S121 75.043 121 73.492v-5.78a2.78 2.78 0 0 1 2.769-2.77m7.973 4.563a2.76 2.76 0 0 1 2.768 2.768v4.2a2.774 2.774 0 0 1-2.768 2.763c-1.552 0-2.799-1.242-2.799-2.762v-4.2c0-1.552 1.247-2.77 2.799-2.77m-80.336 22.54c-.822 0-1.462.67-1.462 1.492v5.323h-3.16a2.936 2.936 0 0 0-2.923 2.768l-.06 1.005c-.06 1.642 1.244 3.041 2.917 3.041h45.966c3.072 0 6.11-.46 9.06-1.372.974-.304 2.133-.669 3.41-1.034a76 76 0 0 1 10.404-2.4c11.924-1.856 26.099-3.38 31.452-3.927a2.44 2.44 0 0 0 2.192-2.43 2.457 2.457 0 0 0-2.436-2.466h-59.92c-.821 0-1.462.67-1.462 1.492v3.861c0 .822-.67 1.462-1.49 1.462H65.855c-.79 0-1.461-.64-1.461-1.462v-3.861c0-.822-.67-1.492-1.462-1.492zm-3.042 30.3a4.72 4.72 0 0 0-4.658 4.771c0 2.586 2.131 4.688 4.747 4.658a4.684 4.684 0 0 0 4.688-4.747 4.724 4.724 0 0 0-4.777-4.682m41.915 0a4.724 4.724 0 0 0-4.777 4.682c0 2.616 2.072 4.746 4.688 4.777 2.616 0 4.746-2.102 4.776-4.688 0-2.616-2.071-4.74-4.687-4.77zm-35.647 13.047 6.6 14.205-11.287 15.607h7.39a4.42 4.42 0 0 0 3.559-1.794L65 157.75l3.47 7.457h9.642L70.906 149.6l10.308-14.205h-7.48c-1.43 0-2.738.698-3.559 1.823l-3.042 4.2-2.768-6.024zm57.67 0c-10.677 0-16.546 8.428-16.546 17.918 0 7.21 4.472 10.676 9.613 10.676 3.163 0 5.687-1.159 7.147-2.893h.214l-.517 2.834c-.76 4.167-2.587 5.686-6.785 5.686a9.2 9.2 0 0 1-5.412-1.735 2.966 2.966 0 0 0-3.927.546l-3.012 3.654c1.368 1.156 4.411 3.921 11.864 3.921 8.09 0 13.626-4.013 14.78-12.013l3.256-22.998a4.357 4.357 0 0 0-3.285-4.836c-1.825-.456-4.197-.76-7.39-.76m28.44 0c-10.403 0-15.084 8.182-15.084 18.798 0 6.297 4.072 11.015 11.829 11.015 10.373 0 14.966-8.278 14.966-18.832 0-6.358-3.801-10.98-11.71-10.98zm-94.446.03a2.98 2.98 0 0 0-2.923 2.525l-3.832 27.258h5.139c1.46 0 2.68-1.065 2.893-2.525l3.832-27.258zm41.582 0a2.98 2.98 0 0 0-2.923 2.525l-3.832 27.258h5.11c1.49 0 2.71-1.065 2.922-2.525l3.832-27.258zm52.502 5.965c2.86 0 4.32 1.943 4.32 5.472 0 4.776-1.612 12.352-6.904 12.352-2.89 0-4.32-1.98-4.32-5.478 0-4.776 1.642-12.346 6.904-12.346m-28.137.178h.06c1.581 0 2.797 1.461 2.554 3.013l-1.123 7.545c-.487 3.407-2.434 5.81-5.537 5.81-2.768 0-4.349-1.581-4.349-5.08 0-7.422 3.558-11.287 8.395-11.287z"/></svg>