<svg width="192" height="192" fill="none" xmlns="http://www.w3.org/2000/svg"><path d="M46 105a4 4 0 1 1 0 8 4 4 0 0 1 0-8Zm32 0a4 4 0 1 1 0 8 4 4 0 0 1 0-8Z" stroke="#000" stroke-width="8" stroke-linejoin="round"/><path d="M46 67h32" stroke="#000" stroke-width="12" stroke-linecap="round" stroke-linejoin="round"/><path d="M164 137H38s-16 0-16-30c0-55 12-64 12-64h8V33h38v10h10s31.08 65.817 74.013 71.596c3.284.442 5.987 3.09 5.987 6.404v10a6.003 6.003 0 0 1-1.757 4.243A6.003 6.003 0 0 1 164 137Z" stroke="#000" stroke-width="12" stroke-linejoin="round"/><path d="M22 159h72.136a6.328 6.328 0 0 0 3.412-1.016C104.308 153.659 132.154 137 160 137m-114 0v22m32-22v22" stroke="#000" stroke-width="12" stroke-linecap="round" stroke-linejoin="round"/></svg>