<svg xmlns="http://www.w3.org/2000/svg" width="192" height="192" viewBox="0 0 192 192"><path d="M22.659 59.015q-2.756 0-4.707 1.952-1.953 1.951-1.953 4.708t1.952 4.712q1.952 1.952 4.708 1.952 2.755 0 4.708-1.952 1.951-1.955 1.951-4.713 0-2.756-1.952-4.707-1.95-1.952-4.707-1.952m59.482 0q-2.758 0-4.712 1.952t-1.952 4.708q0 2.757 1.952 4.712 1.955 1.952 4.712 1.952 2.755 0 4.707-1.952 1.952-1.955 1.952-4.713 0-2.756-1.952-4.707t-4.707-1.952m25.834 17.46q-3.982 0-7.123 1.646a16.9 16.9 0 0 0-5.319 4.323q-2.183 2.682-3.371 6.206a22.4 22.4 0 0 0-1.188 7.197q0 4.213 1.301 7.734c.868 2.348 2.11 4.379 3.717 6.088q2.413 2.564 5.782 3.978 3.368 1.418 7.502 1.42 2.603-.002 5.55-1.114 2.95-1.108 4.94-3.786h.153v3.598q0 3.98-2.49 6.546c-1.659 1.71-4.245 2.563-7.768 2.563q-3.523.001-6.472-1.3-2.95-1.303-5.63-3.525l-6.353 9.499c2.706 2.144 5.666 3.582 8.882 4.323a43.6 43.6 0 0 0 9.8 1.114c7.247 0 12.65-1.826 16.198-5.477q5.318-5.474 5.318-16.04V77.392h-10.568v4.9h-.148q-.69-.994-1.838-2.026-1.15-1.035-2.76-1.878c-1.073-.561-2.28-1.023-3.634-1.38q-2.03-.534-4.48-.533zm47.351 0q-4.287-.002-8.08 1.375-3.789 1.377-6.585 3.944-2.794 2.566-4.402 6.166-1.607 3.6-1.607 8.04t1.607 8.04q1.608 3.596 4.402 6.161 2.796 2.566 6.586 3.944 3.79 1.38 8.079 1.38c4.289 0 5.552-.461 8.08-1.38q3.789-1.379 6.585-3.944 2.794-2.564 4.401-6.161Q176 100.44 176 96t-1.607-8.04q-1.608-3.6-4.402-6.166-2.796-2.565-6.586-3.944-3.79-1.377-8.079-1.375m-138.41.917v37.21h11.485v-37.21zm15.882 0L45.2 94.699l-14.699 19.904h13.398l8.73-12.402 8.113 12.402h13.556l-14.32-19.904 12.096-17.307H59.287l-6.354 10.105-6.585-10.105zm43.6 0v37.21h11.485v-37.21zm35.254 9.188q1.914 0 3.598.764a10 10 0 0 1 2.948 2.031 8.93 8.93 0 0 1 2.637 6.393 8.94 8.94 0 0 1-2.637 6.394 10 10 0 0 1-2.948 2.03c-1.123.51-2.27.765-3.598.765q-1.992 0-3.638-.765a10.2 10.2 0 0 1-2.913-2.03 9 9 0 0 1-1.952-2.909c-.46-1.097-.685-2.26-.685-3.485s.225-2.388.685-3.485a9 9 0 0 1 1.952-2.908 10.2 10.2 0 0 1 2.913-2.03c1.098-.511 2.362-.765 3.638-.765m43.674 0q4.365 0 6.778 2.603 2.411 2.603 2.41 6.817.001 4.21-2.41 6.812c-1.607 1.736-3.869 2.603-6.778 2.603s-5.17-.867-6.778-2.603q-2.411-2.601-2.41-6.812-.001-4.213 2.41-6.817 2.413-2.603 6.778-2.603"/></svg>