<svg width="192" height="192" fill="none" xmlns="http://www.w3.org/2000/svg"><path d="M147 95v24m-34-24v24m34 0a51.003 51.003 0 0 1-31.483 47.118 51.003 51.003 0 0 1-66.635-27.601A51.005 51.005 0 0 1 45 119" stroke="#000" stroke-width="12" stroke-linecap="round" stroke-linejoin="round"/><path d="M113 119a17.012 17.012 0 0 1-4.979 12.021A17.013 17.013 0 0 1 96 136a17.006 17.006 0 0 1-15.706-10.494A17.006 17.006 0 0 1 79 119" stroke="#000" stroke-width="12" stroke-linecap="round" stroke-linejoin="round"/><circle cx="96" cy="39" r="17" stroke="#000" stroke-width="12" stroke-linecap="round" stroke-linejoin="round"/><circle cx="130" cy="39" r="17" stroke="#000" stroke-width="12" stroke-linecap="round" stroke-linejoin="round"/><path d="M147 95a17.006 17.006 0 0 0-10.494-15.706 17.006 17.006 0 0 0-18.527 3.685A17.003 17.003 0 0 0 113 95m-34 24a17.006 17.006 0 0 0-4.98-12.021 17.003 17.003 0 0 0-24.04 0A17.01 17.01 0 0 0 45 119" stroke="#000" stroke-width="12" stroke-linecap="round" stroke-linejoin="round"/><circle cx="62" cy="40" r="17" stroke="#000" stroke-width="12" stroke-linecap="round" stroke-linejoin="round"/></svg>