<svg width="192" height="192" fill="none" xmlns="http://www.w3.org/2000/svg"><path d="M95.778 101.703 63.19 122.775s11.93 20.622 30.956 33.378m1.632-54.45v-35.82s-23.794 0-44.357 10.024m0 0a44.682 44.682 0 0 1 .61-17.343 44.753 44.753 0 0 1 13.045-22.499 44.9 44.9 0 0 1 23.372-11.474 44.946 44.946 0 0 1 25.821 3.418c24.084 10.919 29.449 32.17 28.551 51.243-.965 20.467-9.14 38.426-9.14 38.426l-37.902-15.975M51.421 75.907C35.775 83.533 22 96.96 22 120.608a44.713 44.713 0 0 0 7.561 24.875 44.846 44.846 0 0 0 20.135 16.49 44.945 44.945 0 0 0 44.45-5.82m48.674-76.9a44.855 44.855 0 0 1 16.046 11.627 44.727 44.727 0 0 1 10.75 23.677 44.691 44.691 0 0 1-4.243 25.647 44.814 44.814 0 0 1-17.805 18.973c-20.483 11.801-38.993 6.651-53.422-3.024" stroke="#000" stroke-width="12" stroke-linecap="round" stroke-linejoin="round"/></svg>