<svg width="192" height="192" fill="none" xmlns="http://www.w3.org/2000/svg"><path d="m132.14 86.676-45.51 45.289a37.857 37.857 0 0 1-12.282 8.167 38.027 38.027 0 0 1-28.977 0 37.859 37.859 0 0 1-12.282-8.167 37.659 37.659 0 0 1-8.207-12.223 37.517 37.517 0 0 1 0-28.836 37.664 37.664 0 0 1 8.207-12.223l13.385-13.32m13.386 39.961 45.51-45.289A37.953 37.953 0 0 1 132.14 49a37.954 37.954 0 0 1 26.771 11.035A37.583 37.583 0 0 1 170 86.675a37.581 37.581 0 0 1-11.089 26.641l-13.385 13.321" stroke="#000" stroke-width="12" stroke-linecap="round" stroke-linejoin="round"/><circle cx="64" cy="48" r="4" stroke="#000" stroke-width="8" stroke-linecap="round" stroke-linejoin="round"/><circle cx="128" cy="144" r="4" stroke="#000" stroke-width="8" stroke-linecap="round" stroke-linejoin="round"/></svg>