<svg xmlns="http://www.w3.org/2000/svg" width="192" height="192" viewBox="0 0 192 192"><path d="M56.903 45.369c-9.285-.15-15.171 8.026-12.053 16.765 2.483 6.966 7.095 12.692 11.448 18.81.436-.366.736-.526.906-.775 2.698-3.951 5.52-7.832 8.014-11.9 1.82-2.97 3.221-6.185 3.533-9.742.595-6.76-5.046-13.046-11.848-13.157zm-.36 5.012c4.087.055 7.39 3.459 7.31 7.532h-.004c-.074 3.995-3.582 7.213-7.737 7.097-4.002-.106-7.363-3.538-7.267-7.433.096-4.007 3.571-7.251 7.698-7.196m67.889 14.059a27.5 27.5 0 0 0-7.8 1.12c-5.726 1.667-9.239 5.552-10.4 11.281-.42 2.073-.375 4.24-.55 6.512-.528.033-1.112.103-1.702.103q-4.76.007-9.521.007c-4.5.006-5.104-.783-3.778-5.095.504-1.623 1.56-2.619 3.386-2.796 2.398-.233 4.665.092 6.887 1 .425.172 1.376.101 1.484-.126 1.365-2.948 2.624-5.945 3.94-9.004-6.156-2.964-12.43-3.691-18.857-2.361-6.905 1.424-11.123 5.695-12.33 12.528-.323 1.806-.052 3.72-.052 5.775h-6.69l-.003.016v8.295q.005 2.167 2.294 2.172h4.32v34.004h15.222v-1.986c.006-10.113.027-20.22-.024-30.333-.005-1.48.504-1.823 2.227-1.7 3.679.254 7.376.35 11.05.011 1.926-.183 2.355.22 2.35 1.717-.057 10.163-.033 20.333-.033 30.495v1.756h15.218c.029-.576.068-.997.068-1.424.006-10.274.027-20.542-.012-30.816-.006-1.29.313-1.834 1.736-1.756 1.961.105 3.94 0 5.906.016.964.005 1.507-.288 1.575-1.357.062-.98.35-1.944.538-2.92 1.87 5.37 3.491 10.738 5.106 16.113 2.126 7.07 4.219 14.146 6.401 21.195.142.46.917.956 1.456 1.028 1.156.16 2.355.048 3.75.048-1.071 2.831-2.76 4.887-5.277 5.945-2.273.953-4.781 1.393-7.196 2.014-.878.227-1.93.109-1.681 1.538.516 2.987.975 5.986 1.491 9.178 1.417-.116 2.709-.19 3.996-.329 11.682-1.268 19.426-7.264 22.952-18.319 3.9-12.224 7.813-24.448 11.713-36.678.805-2.52 1.575-5.058 2.409-7.73-1.088-.077-1.62-.17-2.425-.058-3.378.476-6.814.563-10.186.059-2.42-.355-3.235-.078-3.592 1.562-2 9.138-4.05 18.263-6.096 27.39-.352 1.563-.76 3.123-1.14 4.68-2.357-10.745-4.47-21.435-6.522-32.14-.233-1.225-.673-1.663-1.994-1.647-6.728.073-13.462.034-20.19.04-2.828.006-2.865-.025-2.678-2.757.017-.266.069-.525.103-.791.493-3.591 2.08-4.855 5.787-4.368 1.973.26 3.912.789 6.14 1.254 1.275-2.97 2.629-6.13 4.034-9.41-4.254-1.905-8.508-2.94-12.809-2.951zm-85.374 5.514c-3.94.056-7.873.013-11.812.024-3.248.011-2.8-.229-2.8 2.742q-.02 23.737-.013 47.474c.006 5.22-2.186 9.035-7.23 11.108-.392.16-.75.41-1.203.66 1.388 3.602 2.747 7.126 4.193 10.867 1.207-.399 2.2-.68 3.153-1.056 4.115-1.629 8.084-3.482 11.219-6.713 4.466-4.594 5.938-10.213 5.95-16.326.027-15.771.005-31.541.039-47.311 0-1.108-.34-1.484-1.496-1.468zm9.897 13.592v1.595c0 12.828-.005 25.662 0 38.49 0 4.338.016 4.34 4.443 4.34h10.83V83.545H48.96z"/></svg>