<svg xmlns="http://www.w3.org/2000/svg" width="192" height="192" viewBox="0 0 192 192"><path d="M164.42 23.518a9.096 9.096 0 0 0-10.56-7.376l-8.104 1.456L128.1 48.55l39.504-7.016zm-41.968-1.824-37.416 6.64L67.38 59.118l37.416-6.56zM61.819 32.438l-33.32 5.824a9.12 9.12 0 0 0-7.464 10.288l3.096 18.208 19.936-3.56zM25.411 75.862v81.937a18.21 18.21 0 0 0 18.208 18.2h109.24a18.21 18.21 0 0 0 18.2-18.2V75.862zm93.401 57.353-24.216 18.208a9.104 9.104 0 0 1-14.568-7.28v-36.424a9.104 9.104 0 0 1 14.56-7.28l24.224 18.208a9.104 9.104 0 0 1 0 14.56z"/></svg>