<svg xmlns="http://www.w3.org/2000/svg" width="192" height="192"><path d="M61.753 52.165a45.38 45.38 0 0 0-31.416 12.07 44.9 44.9 0 0 0-14.318 30.464 44.05 44.05 0 0 0 6.23 23.906c4.317 7.195 10.643 13.03 18.238 16.707a43.75 43.75 0 0 0 47.171-5.434c2.558-1.998 5.67-3.123 8.947-3.123 3.278 0 6.389 1.124 8.947 3.123 4.557 3.758 9.92 6.55 15.677 8.229a43.6 43.6 0 0 0 17.582 1.202c5.916-.88 11.513-2.876 16.63-6.074 5.036-3.118 9.351-7.365 12.71-12.242a43.71 43.71 0 0 0 3.044-44.922h-.078v.078a44.25 44.25 0 0 0-15.755-17.269 43.6 43.6 0 0 0-22.375-6.714zm-6.964 19.861c.317-.01.648.007.968.047 1.28.16 2.474.715 3.513 1.514l17.988 15.99c.88.719 1.52 1.675 1.999 2.794.48 1.04.718 2.252.718 3.451s-.238 2.396-.718 3.435c-.48 1.12-1.12 2.152-1.999 2.951l-17.675 15.99c-1.279 1.199-2.865 1.842-4.544 1.842-1.039 0-2.085-.237-3.044-.796a7.5 7.5 0 0 1-2.951-2.967 7.76 7.76 0 0 1-1.047-4.232V80.067a8.94 8.94 0 0 1 1.125-4.325 7.5 7.5 0 0 1 2.95-2.95 5.8 5.8 0 0 1 2.718-.766zm81.148.125a7.995 7.995 0 0 1 0 15.989 7.995 7.995 0 0 1 0-15.99m-15.989 15.99a7.995 7.995 0 0 1 0 15.989 7.995 7.995 0 0 1 0-15.99m31.978 0a7.995 7.995 0 0 1 0 15.989 7.995 7.995 0 0 1 0-15.99m-15.989 15.91a7.995 7.995 0 0 1 0 15.99 7.995 7.995 0 0 1 0-15.99"/></svg>