<svg xmlns="http://www.w3.org/2000/svg" width="192" height="192"><path d="M96.31 20.729c-5.8 0-11.52 2.07-15.889 5.803L21.396 76.108a15.46 15.46 0 0 0-4.857 7.774 15.57 15.57 0 0 0 5.804 16.603 16.57 16.57 0 0 0 8.735 3.259v43.788c0 6.355 2.546 12.389 7.154 16.758 4.607 4.448 10.806 6.982 17.16 6.982h81.2c6.514 0 12.633-2.534 17.16-6.982 4.529-4.45 7.138-10.561 7.138-16.758v-43.788c3.178-.239 6.21-1.352 8.752-3.259a15.97 15.97 0 0 0 5.477-7.463c1.033-2.94 1.184-6.12.31-9.14a15.44 15.44 0 0 0-4.84-7.774l-58.39-49.576A24.77 24.77 0 0 0 96.31 20.73zm-1.412 47.605a7.945 7.945 0 0 1 8.472 7.929 7.945 7.945 0 0 1-15.889 0 7.945 7.945 0 0 1 7.417-7.929M70.645 80.235a7.945 7.945 0 0 1 0 15.889 7.945 7.945 0 0 1 0-15.889m49.11.016a7.945 7.945 0 0 1 8.488 7.929 7.945 7.945 0 0 1-15.89 0 7.945 7.945 0 0 1 7.402-7.93m6.657 26.92a7.945 7.945 0 0 1 0 15.89 7.945 7.945 0 0 1 0-15.89m-62.424.017a7.945 7.945 0 0 1 8.487 7.929 7.945 7.945 0 0 1-15.889 0 7.945 7.945 0 0 1 7.402-7.93m17.705 21.506a7.945 7.945 0 0 1 0 15.889 7.945 7.945 0 0 1 0-15.89m27.015.016a7.945 7.945 0 0 1 8.487 7.929 7.945 7.945 0 0 1-15.889 0 7.945 7.945 0 0 1 7.402-7.93z"/></svg>