<svg width="192" height="192" fill="none" xmlns="http://www.w3.org/2000/svg"><path d="M96 76a4 4 0 1 0 0-8 4 4 0 0 0 0 8Zm33 41a4 4 0 1 0 0-8 4 4 0 0 0 0 8Zm-48 21a4 4 0 1 0 0-8 4 4 0 0 0 0 8Zm30 0a4 4 0 1 0 0-8 4 4 0 0 0 0 8Zm-48-21a4 4 0 1 0 0-8 4 4 0 0 0 0 8Zm7-27a4 4 0 1 0 0-8 4 4 0 0 0 0 8Zm52 0a4 4 0 1 0 0-8 4 4 0 0 0 0 8Z" stroke="#000" stroke-width="8" stroke-linecap="round" stroke-linejoin="round"/><path d="M26.686 78.664A16.005 16.005 0 0 0 38 105.985v44.011C38 158.835 45.163 166 54 166h83.997c8.837 0 16-7.165 16-16.004v-44.011a15.998 15.998 0 0 0 15.695-19.126 16.008 16.008 0 0 0-4.381-8.195m-138.62.004c5.423-4.965 40.958-35.434 58.933-50.825a15.927 15.927 0 0 1 20.749 0c17.974 15.39 53.51 45.86 58.934 50.825" stroke="#000" stroke-width="12" stroke-linecap="round" stroke-linejoin="round"/></svg>