<svg xmlns="http://www.w3.org/2000/svg" width="192" height="192" viewBox="0 0 192 192"><path d="M96.424 16.011c-44.485-.02-80.423 35.591-80.423 79.718a79.935 79.935 0 0 0 80.094 80.261c43.889 0 79.852-35.763 79.906-79.41.038-44.543-35.525-80.568-79.576-80.568zm-.738 37.066a24 24 0 0 1 1.906.027q.93.05 1.818.178h.001a19 19 0 0 1 1.73.329h.002q.841.203 1.64.479c6.386 2.211 10.583 7.982 12.133 16.96h13.266c.235 0 .433.029.655.04.316.014.648.018.936.056q.363.046.697.116.33.069.63.162l.014.004c2.472.768 3.48 2.739 3.183 6.183-1.292 15.141-2.662 30.268-3.995 45.4-.204 2.35-.375 4.703-.566 7.052-.259 3.078-2.174 5.049-5.256 5.049h-.013q-28.53.054-57.051 0h-.013c-3.037 0-4.948-1.829-5.21-4.82L58.026 82.81c-.167-1.937-.33-3.87-.508-5.806-.33-3.562 1.695-5.915 5.269-5.953h.013c5.135-.025 10.267 0 15.51 0 .076-1.118.222-2.179.43-3.184.623-3.017 1.807-5.534 3.332-7.585q.677-.907 1.433-1.695c3.526-3.675 8.23-5.41 12.18-5.51zm.584 7.585a10.19 10.19 0 0 0-9.735 10.276h20.027c-.32-6.044-4.869-10.497-10.292-10.276"/></svg>