<svg xmlns="http://www.w3.org/2000/svg" width="192" height="192"><path d="M76.766 168.48a69.7 69.7 0 0 0-45.033-31.774h-.728a3.234 3.234 0 0 0-2.587 5.174 81.4 81.4 0 0 0 44.79 31.531h.809a3.234 3.234 0 0 0 3.234-3.234 6.7 6.7 0 0 0-.485-1.698zm95.483-94.917a4 4 0 0 0 0-.97 80.85 80.85 0 0 0-62.415-56.594h-.566a3.234 3.234 0 0 0-3.234 3.234v.566a248.7 248.7 0 0 1-14.068 131.95 3.23 3.23 0 0 1-2.991 2.02 3.153 3.153 0 0 1-3.234-3.152s-.485-5.336-.809-8.085A309.4 309.4 0 0 0 50.41 32.092a3.315 3.315 0 0 0-4.689-1.617A81.33 81.33 0 0 0 19.93 64.108a3.48 3.48 0 0 0 1.294 4.042A125.4 125.4 0 0 1 80.97 171.64a3.315 3.315 0 0 0 2.83 3.153c1.94 0 3.8.486 5.74.566a3.234 3.234 0 0 0 3.153-2.668 131.06 131.06 0 0 1 77.534-97.019 2.91 2.91 0 0 0 2.02-2.102zm-7.761 61.364a3.234 3.234 0 0 0-3.234-3.234h-.728a113.6 113.6 0 0 0-63.71 38.969 3.15 3.15 0 0 0-.727 2.102 3.234 3.234 0 0 0 3.234 3.234 80.85 80.85 0 0 0 64.68-39.454 3.4 3.4 0 0 0 .484-1.617z"/></svg>