<svg xmlns="http://www.w3.org/2000/svg" width="192" height="192" viewBox="0 0 192 192"><path d="M105.57 18.107c-25.818.28-49.655 17.6-62.208 30.153-13.39 13.39-29.486 37.604-27.126 58.542s19.989 52.066 63.228 64.49c31.181 8.942 67.956-6.273 82.032-28.449 9.043-14.254 21.54-48.873 9.615-75.824-11.559-26.11-29.67-46.26-60.352-48.729a57 57 0 0 0-5.188-.183zm-8.656 9.645a23 23 0 0 1 2.54.396c2.57.67 3.226 1.837 2.221 4.29a103.6 103.6 0 0 0-5.066 20.995 83.4 83.4 0 0 1-6.526 19.2c-1.48 3.295-3.643 3.373-5.645.335a179 179 0 0 0-13.22-17.724 19.86 19.86 0 0 1-4.169-8.474 9.27 9.27 0 0 1 3.834-9.113v-.015a39.7 39.7 0 0 1 15.274-7.683 39 39 0 0 1 10.756-2.206zm12.885 2.754a30.4 30.4 0 0 1 16.674 5.827c1.488.794 1.406 1.896.837 3.104a16.4 16.4 0 0 1-4.23 5.568 24.9 24.9 0 0 0-6.085 9.539c-.233.53-.576 1.19 0 1.643.6.467 1.23.336 1.993-.046a39 39 0 0 0 7.06-5.31c1.596-1.3 3.126-2.677 4.73-3.985 2.626-2.143 2.892-2.174 5.782-.305a15.19 15.19 0 0 1 7.135 13.327c.031 3.295-.566 3.898-3.681 4.732a46.7 46.7 0 0 0-14.5 5.172 25.7 25.7 0 0 1-9.736 2.708 109 109 0 0 0-14.118 3.682 17.1 17.1 0 0 1-5.675.791c-1.612-.015-2.949-.011-1.095-2.13-1.449-.296-2.112 1.943-3.225.502-.99-1.277.127-2.373.836-3.362a39 39 0 0 1 2.267-2.723 24.93 24.93 0 0 0 4.975-13.692 124.6 124.6 0 0 1 4.899-21.771c.864-2.532 2.392-3.084 5.157-3.271M62.622 45.248c1.56-.157 2.663.755 3.47 2.723a56.9 56.9 0 0 0 10.36 16.035 117 117 0 0 1 8.656 11.7c.973 1.432.529 2.206-1.278 2.494a23.4 23.4 0 0 1-8.778-.38c-3.67-.802-7.286-1.866-10.94-2.723-5.32-1.223-10.813-1.363-16.125-2.632a19.5 19.5 0 0 1-5.66-2.42 2.8 2.8 0 0 1-1.658-2.89 6.23 6.23 0 0 1 .776-3.575 45.2 45.2 0 0 1 19.458-17.815q.94-.439 1.719-.517m47.863 13.981c-.415-.014-.9.273-1.309.38a3.1 3.1 0 0 0-1.156.609 796 796 0 0 0-5.75 5.355l.73.883c2.375-1.745 4.783-3.458 7.12-5.25.475-.365 1.338-.82 1.003-1.52-.166-.336-.39-.448-.639-.457zm28.251 8.809a23.4 23.4 0 0 1 4.443.304 2.8 2.8 0 0 1 2.312 2.115 16.4 16.4 0 0 1 .959 6.1 26.9 26.9 0 0 1-2.465 10.908 81 81 0 0 1-5.933 11.091 11.7 11.7 0 0 1-2.754 3.15 3.793 3.793 0 0 1-5.096.243 55.3 55.3 0 0 0-19.671-10.087A148 148 0 0 1 94.8 83.327c-1.324-.685-1.03-1.882.73-2.708a31.9 31.9 0 0 1 11.136-3.712 85.7 85.7 0 0 0 14.149-3.438 62 62 0 0 0 9.25-3.53 23.4 23.4 0 0 1 8.671-1.902zm-97.548 5.857a14 14 0 0 1 4.822.167c6.598 1.441 13.446 1.205 20.051 2.708 4.596 1.052 9.203 2.15 13.8 3.226.529.124 1.023.352 1.155.897.148.623-.463.852-.821 1.187a12.31 12.31 0 0 1-14.438.776 13.16 13.16 0 0 0-11.912.578 7.63 7.63 0 0 0-4.199 7.029c-.53 1.004 1.296 2.448-.107 3.453a13.2 13.2 0 0 1-3.666 1.521c-4.83 1.59-9.27 4.225-14.255 5.401-4.058.958-6.294-.988-5.827-5.233a48.3 48.3 0 0 1 2.89-10.878 15.42 15.42 0 0 1 7.912-9.357 14 14 0 0 1 4.594-1.475zm38.854 10.284c.458-.084.905 0 1.278.517.662.904-.257 1.61-.639 2.373-.342.702-1.093 1.173-1.156 2.1 1.122.226 1.768-.691 2.602-1.05a2.34 2.34 0 0 1 2.297 0c.755.546.494 1.535.167 2.267-1.48 3.373-3.045 6.714-4.549 10.071-1.191 2.648-2.34 5.297-3.742 8.444a3.43 3.43 0 0 0 2.1-2.465c2.126-5.593 5.848-10.437 7.5-16.248a1.4 1.4 0 0 1 1.49-1.08c.81-.031 1.067.67 1.324 1.278a62.3 62.3 0 0 1 3.697 12.506c1.27 6.971 3.292 13.787 4.336 20.782.92 6.208-.533 8.428-5.69 10.36a55.3 55.3 0 0 1-21.558 3.027 10 10 0 0 1-2.19-.35c-3.07-.81-3.287-1.512-2.313-4.488a51.4 51.4 0 0 1 5.994-12.049c1.791-2.734 2.307-6.007 4.138-9.037-1.371.39-1.64 1.344-2.07 2.1-2.928 5.102-5.818 10.226-8.747 15.32-.81 1.41-1.87 2.697-2.556 4.153a5.17 5.17 0 0 1-5.979 3.088 20.8 20.8 0 0 1-13.494-5.75c-2.017-2.275-1.86-3.82.578-5.705 2.306-1.792 2.973-2.842 3.028-4.914-1.355 1.051-2.57 2.078-3.88 2.982a5.998 5.998 0 0 1-9.386-1.46 24.9 24.9 0 0 1-4.245-7.973 6.67 6.67 0 0 1 2.875-8.489 64.7 64.7 0 0 1 15.122-8.14c6.933-2.523 13.78-5.26 20.751-7.637 3.88-1.316 7.847-2.318 11.593-4.016.406-.183.866-.433 1.324-.517m14.894 1.202a24.2 24.2 0 0 1 8.261 3.895 50 50 0 0 0 8.414 3.97 56.1 56.1 0 0 1 18.089 9.783 2.57 2.57 0 0 1 .745 2.419 14.5 14.5 0 0 1-3.5 7.743A53.75 53.75 0 0 1 103 129.272c-1.97.717-2.883.146-3.545-1.84a203 203 0 0 1-5.462-23.445 140 140 0 0 0-3.438-14.179c-.99-3.147-.058-4.458 4.382-4.427zm-31.705 18.895c-5.265 3.66-9.418 8.582-14.544 12.384a39.26 39.26 0 0 0 14.545-12.384"/></svg>