<svg width="192" height="192" fill="none" xmlns="http://www.w3.org/2000/svg"><path d="M145 45a22.998 22.998 0 0 0-14.198-21.25 23.004 23.004 0 0 0-25.065 4.986A23 23 0 0 0 99 45M71 170a73.997 73.997 0 0 0 74-74m-74 74H53a6 6 0 0 1-6-6v-16c0-13.255 10.745-24 24-24h4c13.255 0 24-10.745 24-24V45m46 0v51" stroke="#000" stroke-width="12" stroke-linecap="round" stroke-linejoin="round"/><path d="M99 96c0 60-49 71-49 71" stroke="#000" stroke-width="12" stroke-linecap="round" stroke-linejoin="round"/></svg>