<svg width="192" height="192" fill="none" xmlns="http://www.w3.org/2000/svg"><path d="M25 31a6 6 0 0 1 6-6h130a6 6 0 0 1 6 6v130a6 6 0 0 1-6 6H31a6 6 0 0 1-6-6V31Z" stroke="#000" stroke-width="12" stroke-linecap="round" stroke-linejoin="round"/><path d="M118.039 122H142c-.391 5.066-2.26 9.906-5.379 13.86-3.529 4.471-8.438 7.531-13.893 8.66-5.454 1.128-11.116.254-16.021-2.472-4.905-2.727-8.749-7.137-10.877-12.481a25.936 25.936 0 0 1-.795-16.824c1.615-5.535 5.024-10.316 9.648-13.53 4.625-3.213 10.177-4.66 15.712-4.093 5.089.522 9.874 2.716 13.669 6.246" stroke="#000" stroke-width="12" stroke-linecap="round" stroke-linejoin="round"/><path d="M70.092 70c-3.095 32.972 9.283 77.934-11.346 75.936-20.63-1.999-4.126-39.966 9.283-48.959" stroke="#000" stroke-width="10" stroke-linecap="round" stroke-linejoin="round"/><circle cx="71" cy="49" r="4" stroke="#000" stroke-width="8" stroke-linecap="round" stroke-linejoin="round"/></svg>