<svg xmlns="http://www.w3.org/2000/svg" width="192" height="192" viewBox="0 0 192 192"><path d="M57.266 16c-2.8 0-5.062 2.384-5.062 5.344v10.672c0 2.952 2.262 5.328 5.062 5.328h11.797v3.547H42.11c-5.6 0-10.109 4.768-10.109 10.672v64c0 5.656 4.158 10.273 9.438 10.625h109.12c5.272-.36 9.437-4.985 9.437-10.641v-64c0-2.952-1.13-5.612-2.953-7.532a9.76 9.76 0 0 0-7.156-3.125H122.95v-3.546h11.78c2.8 0 5.063-2.384 5.063-5.344V21.344c0-1.48-.572-2.821-1.484-3.781A4.8 4.8 0 0 0 134.73 16h-20.203c-2.8 0-5.063 2.384-5.063 5.344V32c0 2.952 2.263 5.344 5.063 5.344h1.672v3.546H75.794v-3.546h1.671c2.8 0 5.063-2.384 5.063-5.344V21.344c0-1.48-.572-2.821-1.484-3.781A4.8 4.8 0 0 0 77.465 16zM45.375 52.453a2.5 2.5 0 0 1 1.281.313L96 80.532l49.344-27.766a2.48 2.48 0 0 1 3.406 1.093 2.744 2.744 0 0 1-1.03 3.61L96 86.578l-51.719-29.11a2.744 2.744 0 0 1-1.031-3.609 2.48 2.48 0 0 1 2.125-1.406m1.828 81.75L63.673 160a10 10 0 0 0 8.75 5.344H85.89c0 2.824 1.073 5.53 2.969 7.53S93.32 176 96 176s5.245-1.125 7.141-3.125 2.969-4.707 2.969-7.531h13.469c3.76 0 7.006-2.152 8.75-5.344h.015l16.47-25.797z"/></svg>