<svg xmlns="http://www.w3.org/2000/svg" width="192" height="192" viewBox="0 0 192 192"><path d="M96 22.001c-44.184 0-80 28.32-80 63.232 0 22.576 14.976 42.376 37.504 53.568-1.232 4.24-7.88 27.248-8.144 29.056 0 0-.16 1.36.72 1.88s1.904.104 1.904.104c2.52-.352 29.2-19.12 33.816-22.384q6.92.984 14.2 1c44.184 0 80-28.304 80-63.224s-35.816-63.232-80-63.232m-53.952 46h23.136c2.448 0 4.44 1.984 4.44 4.424a4.43 4.43 0 0 1-4.44 4.416h-7.056v26.848a4.424 4.424 0 0 1-4.52 4.312 4.4 4.4 0 0 1-4.512-4.32V76.849h-7.048a4.45 4.45 0 0 1-4.456-4.416c0-2.44 2.008-4.424 4.456-4.424zm38.312 0c2.952.064 5.264 2.304 6.032 4.472l10.8 28.416c1.368 4.272.176 5.864-1.064 6.44a6.912 6.904 0 0 1-2.88.608c-1.88 0-3.312-.768-3.752-2l-2.24-5.84H73.464l-2.256 5.84c-.432 1.232-1.864 2-3.744 2a7.2 7.2 0 0 1-2.88-.608c-1.24-.576-2.448-2.16-1.08-6.424L74.32 72.457c.76-2.16 3.088-4.392 6.032-4.456zm24.392 0a4.56 4.56 0 0 1 4.608 4.512v26.552h9.608c2.392 0 4.344 1.856 4.344 4.136a4.24 4.24 0 0 1-4.344 4.144H104.48a4.24 4.24 0 0 1-4.328-4.144V72.513a4.56 4.56 0 0 1 4.608-4.512zm24.824 0c2.496 0 4.536 2.024 4.536 4.512v9.72l12.608-12.624a3.52 3.52 0 0 1 2.496-1c1.128 0 2.264.48 3.112 1.328a4.48 4.48 0 0 1 1.328 2.88 3.52 3.52 0 0 1-.984 2.744l-10.32 10.296 11.136 14.736a4.48 4.48 0 0 1 .872 3.344 4.48 4.48 0 0 1-1.752 2.984 4.48 4.48 0 0 1-2.72.912 4.48 4.48 0 0 1-3.624-1.784L135.68 92.001l-1.56 1.56v9.864a4.53 4.53 0 0 1-4.536 4.512 4.528 4.52 0 0 1-4.512-4.512V72.513a4.517 4.517 0 0 1 4.512-4.512zM80.36 79.265l-4.52 12.832h9.04z"/></svg>