<svg width="192" height="192" fill="none" xmlns="http://www.w3.org/2000/svg"><path d="M138 115a41.999 41.999 0 0 0-71.698-29.698A42 42 0 0 0 54 115" stroke="#000" stroke-width="12" stroke-linecap="round" stroke-linejoin="round"/><circle cx="96" cy="115" r="14" stroke="#000" stroke-width="12" stroke-linecap="round" stroke-linejoin="round"/><path d="M54 115c0 41 42 55 42 55m42-55c0 41-42 55-42 55m27.82-138.389a17.965 17.965 0 0 1 2.18 8.57c0 18.183-23.077 15.91-33.462 31.819h-8.076a18.662 18.662 0 0 1-10.257-3.064 18.244 18.244 0 0 1-6.8-8.16 17.927 17.927 0 0 1-1.05-10.505 18.099 18.099 0 0 1 5.052-9.31 18.551 18.551 0 0 1 9.453-4.975 18.737 18.737 0 0 1 8.637.34 18.07 18.07 0 0 1 3.77-7.679 18.441 18.441 0 0 1 7.207-5.263 18.716 18.716 0 0 1 8.874-1.296 18.641 18.641 0 0 1 8.447 2.976 18.286 18.286 0 0 1 6.025 6.547Z" stroke="#000" stroke-width="12" stroke-linecap="round" stroke-linejoin="round"/></svg>