<svg xmlns="http://www.w3.org/2000/svg" width="192" height="192" viewBox="0 0 192 192"><path d="M16 96h26.94c29.663 0 28-.096 28 1.446 0 .506-.217.82-.771 1.229-1.036.698-1.398 1.156-1.398 1.759 1.538 6.553 3.364 13.04 5.108 19.542l-1.662 6.506-1.639 6.507-2.94.07c-2.626.05-2.94.026-3.06-.36-.028-.141-5.59-20.433-5.59-20.29l-.097 45.278h117.11V34.317h-160zm38.313-42.891c1.325.699.988 2.12-.603 2.65-.457.145-.964.483-1.084.723-.313.603-.337 29.036 0 29.615.12.241.651.627 1.18.844 1.567.602 1.808 1.855.507 2.554-.265.144-3.325.241-8 .241-8.145 0-8.627-.073-8.627-1.277 0-.772.266-1.06 1.229-1.47.482-.194.988-.506 1.133-.699.217-.265.289-4.048.24-15.133l-.072-14.795-1.18-.602c-.651-.337-1.229-.747-1.302-.916-.192-.578.218-1.518.747-1.735.772-.313 15.278-.313 15.832 0m17.325.072c.313.145.65.507.747.772.337.94-.169 1.542-2.024 2.385-2.17.988-3.542 2.217-5.687 5.036l-1.615 2.145 4.314 11.229c3.494 9.156 4.41 11.349 4.964 11.783 1.928 1.542 2.072 1.904 1.253 2.723-.458.457-.795.481-8.313.481s-7.856-.024-8.314-.481c-.602-.603-.626-1.325-.024-1.831.24-.218.723-.65 1.06-.94l.627-.554-2.073-6.218c-1.325-4.048-2.072-6.626-2.072-7.349-.024-1.06.145-1.373 3.615-6.289 4.217-5.976 4.41-6.338 4.41-7.71 0-1.302-.434-1.928-1.76-2.555-.578-.265-1.18-.65-1.35-.867-.433-.53-.143-1.567.531-1.832.844-.337 11.036-.289 11.711.072m30.385-.216c0 .313 7.494 31.735 7.76 32.554.24.723.554 1.085 1.325 1.518 1.3.698 1.614 1.615.794 2.265-.48.41-1.132.434-8.048.434-8.12 0-8.626-.072-8.77-1.253-.05-.458.096-.747.553-1.085 1.808-1.229 1.88-1.59 1.013-5.012l-.554-2.169-3.663-.072c-2.747-.048-3.615-.144-3.543-.36.05-.146.218-.748.362-1.326l.265-1.012h2.988c1.663 0 3.012-.073 3.012-.145 0-.217-4.024-17.83-4.578-20.073-.241-.963-.41-1.88-.362-2.048.049-.145.217-.723.362-1.301l.265-1.012h5.398c2.988 0 5.42.048 5.42.096m32.29 16.482c0 15.518.024 16.627.433 16.964.218.217.676.458 1.013.554.915.265 1.205.602 1.205 1.35 0 1.373-.29 1.421-8.675 1.421s-8.675-.048-8.675-1.421c0-.772.314-1.109 1.254-1.35 1.469-.385 1.397.41 1.348-15.807l-.072-14.796-1.204-.626c-1.085-.554-1.206-.699-1.206-1.421 0-1.374.338-1.446 7.904-1.446h6.675zm9.807-16c3.976 1.084 6.362 3.47 7.084 7.084.988 5.134-1.806 9.205-7.325 10.7-.627.144-1.133.361-1.133.433 0 .097.772.29 1.712.458 2.53.458 4.915 1.735 5.782 3.108 1.013 1.615 1.182 2.434 1.182 6.025 0 3.687.168 3.976 1.566 2.723.482-.41.964-.747 1.108-.747.338 0 1.422 1.132 1.422 1.47 0 .723-1.084 2.433-2.193 3.47-1.639 1.542-3.036 2.12-5.422 2.24-2.578.145-4.217-.337-5.735-1.662-2.048-1.807-2.53-3.59-2.554-9.35 0-3.951-.386-5.036-1.928-5.662-.964-.386-.964-.386-.964-1.687 0-1.277.024-1.325.82-1.59.434-.145 1.06-.53 1.374-.868.578-.602.578-.698.65-5.976.072-5.253.072-5.349-.482-6.168-.313-.458-.964-1.06-1.47-1.326-.868-.482-.892-.506-.892-1.904v-1.42l3.085.144c1.687.096 3.639.313 4.313.506zM90.457 65.253c0 .242-1.085 4.386-2.41 9.206s-2.41 9.228-2.41 9.806c0 1.302.458 1.952 1.952 2.7 1.446.746 1.807 1.638.94 2.337-.482.385-1.012.433-4.796.433-4.819 0-5.397-.144-5.518-1.373-.072-.723.024-.82 1.254-1.397 1.566-.747 2.626-1.928 3.253-3.615.265-.675 1.783-6.048 3.397-11.927 1.59-5.904 2.988-10.892 3.06-11.085.12-.361 1.254 4 1.278 4.916zm-8.53 31.013c2.264 8.118 4.362 16.282 6.505 24.433l-1.518 5.904c-.819 3.254-1.518 6-1.518 6.096s-1.325.145-2.915.121l-2.94-.072c-12.813-47.164 9.929 36.383-6.386-23.567 1.093-4.357 2.273-8.693 3.326-13.06 0-.265 5.277-.12 5.446.145m15.108.192c.674.554.506 1.446-.362 1.904-1.204.65-2.602 1.976-3.084 2.964-.265.482-1.253 4-2.193 7.783-.963 3.807-1.807 6.77-1.903 6.602-.097-.169-.41-1.3-.723-2.482l-.53-2.168 1.108-4.579c.603-2.53 1.109-4.819 1.109-5.108 0-.94-.482-1.614-1.76-2.482-1.276-.892-1.662-1.638-1.132-2.29.41-.506.988-.554 5.205-.53 2.891.049 3.975.145 4.265.386m18 36.41h-6.82c-7.566 0-7.879-.049-7.879-1.47 0-.603.145-.771.916-1.109 1.88-.771 1.735.627 1.735-15.71 0-8.194-.097-14.748-.217-14.94-.12-.194-.699-.58-1.277-.844-.867-.433-1.06-.627-1.109-1.301-.144-1.374.507-1.494 8.024-1.422l6.507.048c.058 12.25.088 24.498.12 36.747zm13.253-31.615c0 3.759-.073 5.325-.29 5.542-.168.169-.65.29-1.108.29-.723 0-.844-.097-1.277-1.157-1.735-4.194-3.952-6.29-7.301-6.916l-.868-.169V96h10.843zm25.567-4.603c.794.796.457 1.663-.868 2.241-.723.313-1.18.676-1.325 1.085-.314.82-.338 28.289-.024 29.109.12.313.578.723 1.036.891 1.662.65 2.072 1.494 1.156 2.41-.458.458-.795.482-8.313.482s-7.855-.024-8.313-.482c-.265-.265-.482-.627-.482-.795 0-.579.723-1.325 1.446-1.494 1.494-.337 1.446.217 1.446-15.494 0-9.831-.073-14.458-.266-14.795-.145-.266-.723-.699-1.301-.94-.578-.265-1.132-.675-1.205-.94-.193-.602.242-1.421.916-1.687.289-.12 3.927-.193 8.048-.168 7.35.048 7.542.048 8.048.578zm-30.675 10.241c.216.218.29 2.145.29 7.23v6.94l-.603.288c-.916.41-1.614-.192-2.145-1.88-.506-1.686-1.35-2.866-2.457-3.517-.772-.458-.82-.554-.82-1.855 0-1.325.024-1.422.892-1.976 1.108-.699 1.83-1.783 2.385-3.422.217-.699.554-1.445.771-1.687.41-.482 1.277-.53 1.687-.12m5.06 14.94c.217.217.29 1.807.29 5.663v5.373h-11.084v-2.602l1.108-.265c2.916-.747 5.302-2.844 6.844-6 .554-1.157 1.156-2.169 1.3-2.265.41-.29 1.23-.217 1.543.096z"/></svg>