<svg xmlns="http://www.w3.org/2000/svg" width="192" height="192" viewBox="0 0 192 192"><path d="M72.912 74.213a7.696 7.696 0 1 0 0-15.384 7.696 7.696 0 0 0 0 15.384m-53.864 15.4h153.91v15.392H19.048zm66.183 23.088H19.048v15.392h60.127a16.96 16.96 0 0 1 6.064-15.392m21.52 0a16.96 16.96 0 0 1 6.064 15.392h60.127v-15.392zm-24.504 23.088h-63.2v15.384H74.72l7.632-15.256zm35.024 15.384-7.632-15.256.096-.128h63.207v15.384zm-98.24 7.696h153.92v15.384H19.04zm107.74-92.351a7.696 7.696 0 1 1-15.391 0 7.696 7.696 0 0 1 15.392 0m-26.624 67.599a9.28 9.28 0 1 0-8.32 0l-8.216 16.44h24.752zM52.54 15.377a3.84 3.84 0 0 0 0 5.44l13.336 13.336c-20.696 8.904-35.64 26.68-38.6 47.768H42.9c4.192-20.752 25.016-38.488 53.096-38.488s48.896 17.736 53.096 38.48h15.624c-3.08-21.944-19.152-40.304-41.152-48.8l12.312-12.304a3.848 3.848 0 0 0-5.44-5.44l-15.112 15.104a77.6 77.6 0 0 0-19.328-2.424c-7.744 0-15.184 1.128-22.128 3.208L57.98 15.385a3.84 3.84 0 0 0-5.44 0"/></svg>