<svg xmlns="http://www.w3.org/2000/svg" width="192" height="192" viewBox="0 0 192 192"><path d="M73.111 118.89V73.334h45.556v45.556zm13.333-13.333h18.889V86.668H86.444zm-17.111 70.444v-17.778H47.111q-5.333 0-9.333-4t-4-9.333v-22.222H16v-13.333h17.778V81.779H16V68.446h17.778V46.224q0-5.334 4-9.334t9.333-4h22.222V16.001h13.333v16.89h27.556V16h13.333v16.89h22.222q5.333 0 9.333 4t4 9.333v22.222H176v13.333h-16.89v27.556H176v13.333h-16.89v22.222q0 5.333-4 9.333t-9.333 4h-22.222V176h-13.333v-17.778H82.666V176zm76.444-31.111V46.223H47.11v98.667z"/></svg>