<svg xmlns="http://www.w3.org/2000/svg" width="192" height="192" viewBox="0 0 192 192"><path d="M96 16c-30.944 0-56.168 25.232-56.168 56.168v10.344a13.6 13.6 0 0 0-6.808 11.784v31.776c-.01 2.545.183 5.086.576 7.6a49.6 49.6 0 0 0 5.44 16.192 50.16 50.16 0 0 0 31.424 24.56 48 48 0 0 0 4.88 1c2.514.393 5.055.586 7.6.576h26.112c27.57 0 49.92-22.35 49.92-49.92-.031-10.821.047-21.643-.008-32.464a13.6 13.6 0 0 0-6.8-11.096V72.168c0-30.944-25.224-56.168-56.16-56.168zm0 20.424c19.811-.17 35.915 15.933 35.744 35.744v8.512H60.256v-8.512C60.086 52.357 76.189 36.253 96 36.424m0 64.68c10.344 0 18.72 8 18.72 17.872 0 7.128-4.368 13.28-10.696 16.16v11.928a5.12 5.12 0 0 1-5.104 5.104h-5.84a5.12 5.12 0 0 1-5.104-5.104v-11.936c-6.32-2.864-10.704-9.024-10.704-16.152 0-9.864 8.384-17.872 18.72-17.872z"/></svg>