<svg xmlns="http://www.w3.org/2000/svg" width="192" height="192" viewBox="0 0 192 192"><path d="M161.96 70.863c-27.921.008-35.002 15.769-36.138 26.473-1.296 12.009 7.016 23.801 27.521 23.801 8.616 0 14.257-1.504 16.257-2.136a1.44 1.44 0 0 0 .984-1.104l1.152-6.073a1.224 1.224 0 0 0-1.576-1.4 37.6 37.6 0 0 1-11.233 1.68c-9.792 0-16.865-5.88-15.969-16 .872-9.801 7.48-17.266 16.57-17.266 5.471 0 7.887 2.865 7.711 6.689v.216a1.224 1.224 0 0 0 1.209 1.288h3.712c.576 0 1.072-.4 1.2-.952l2.6-11.737a1.44 1.44 0 0 0-1-1.696 48 48 0 0 0-13.001-1.776zm-134.39.776a1.36 1.36 0 0 0-1.296 1.04l-.72 3.224a1.32 1.32 0 0 0 .864 1.536l.216.064c1.392.552 3 1.777 2.32 4.993l-5.28 24.129c-1.376 6.584-3.608 7.936-5.729 8.176h-.072a1.36 1.36 0 0 0-1.168 1.04l-.68 3.104a1.28 1.28 0 0 0 1.248 1.552h23.241c.568 0 1.064-.4 1.184-.952l.8-3.616a1.2 1.2 0 0 0-.744-1.4l-.152-.064c-1.176-.472-2.784-1.496-2.368-3.4l2.696-12.337c9.265 16.897 12.321 21.777 23.425 21.76h10.041a1.2 1.2 0 0 0 1.185-.943l.696-3.128a1.304 1.304 0 0 0-1.24-1.592c-2.505-.04-3.729-.616-6.233-3.833l-12.88-17.425 16.736-13.92c2.24-1.76 4.985-2.257 6.505-2.457l.152-.016a1.2 1.2 0 0 0 1.08-.96l.688-3.088a1.224 1.224 0 0 0-1.2-1.488h-20.13a1.33 1.33 0 0 0-1.288 1.04l-.68 3.056a1.336 1.336 0 0 0 .92 1.568c1.185.464 1.44 1.6.416 2.44L42.97 94l2.937-13.425a4.56 4.56 0 0 1 3.176-3.248l.168-.056a1.36 1.36 0 0 0 .904-.976l.704-3.184a1.2 1.2 0 0 0-1.184-1.464zm59.203 0a1.36 1.36 0 0 0-1.296 1.04l-.712 3.216a1.28 1.28 0 0 0 .816 1.48l.136.048c1.36.512 3.24 1.833 2.424 5.057l-8.064 36.538a1.216 1.216 0 0 0 1.184 1.48h18.513c.576 0 1.064-.4 1.2-.96l.8-3.64a1.16 1.16 0 0 0-.656-1.313l-.184-.08c-1.176-.576-2.92-1.904-2.336-4.472l1.8-8.264h15.753c.568 0 1.064-.4 1.2-.96l1.472-6.664a1.224 1.224 0 0 0-1.2-1.489h-15.201l2.848-12.937 10.61-.024c3.44 0 4.48 1.8 4.28 4.857l-.009.16a1.224 1.224 0 0 0 1.216 1.368h3.92c.569 0 1.065-.4 1.185-.96l2.664-12.001a1.224 1.224 0 0 0-1.2-1.48z"/></svg>