<svg xmlns="http://www.w3.org/2000/svg" width="192" height="192" viewBox="0 0 192 192"><path d="M94.44 16.123a10.4 10.4 0 0 0-2.96.936L30.247 51.94c-3.216 1.616-4.512 4.216-4.512 7.776v72.562c0 3.56 1.296 5.84 4.512 7.784l61.24 34.881a10.16 10.16 0 0 0 9.025 0l61.241-34.88c3.24-1.945 4.512-4.225 4.512-7.785V59.716c0-4.208-1.952-6.48-4.512-7.784l-61.24-34.881a10.16 10.16 0 0 0-6.081-.928M96 50.18a17.28 17.28 0 0 1 12.24 5.064 17.28 17.28 0 0 1 0 24.473 17.28 17.28 0 0 1-24.481 0 17.28 17.28 0 0 1 0-24.473 17.28 17.28 0 0 1 12.24-5.064M42.238 81.277c29.105.16 52.681 24.545 52.681 54.641v1.28h2.248v-1.28c0-30.097 23.537-54.481 52.601-54.641a56 56 0 0 1 .28 5.752c0 23.537-14.424 43.601-34.593 51.297A56 56 0 0 1 96 141.814a55.2 55.2 0 0 1-19.456-3.488C56.36 130.63 41.95 110.566 41.95 87.03a56 56 0 0 1 .28-5.752"/></svg>