<svg xmlns="http://www.w3.org/2000/svg" width="192" height="192" viewBox="0 0 192 192"><path d="M75.559 16.007a8 8 0 0 0-1.56.208c-.824.192-2.16.368-2.984.376-2.112.024-4.24 1.112-6.816 3.464a32 32 0 0 1-3.191 2.68c-2.368 1.552-5.632 8.335-6.592 13.679-.328 1.84-.296 3.463.16 7.68.352 3.303.44 5.671.24 6.199-.4 1.04-.176 1.312 1.04 1.312.752 0 .832.088.464.544-.64.76-.16 1.32 1.12 1.32 1.304 0 1.328.136.336 1.992-.536 1-.648 1.56-.384 1.88.216.264-.696.096-2.12-.4-3.872-1.312-3.904-1.304-5.52 2.031-1.256 2.6-1.68 3.096-4.192 4.928-3.967 2.896-5.967 5.008-8.927 9.44-6.032 9.023-7.624 13.07-9.408 23.919-.704 4.264-.776 5.775-.592 13.199.12 4.96.52 10.807.96 14.343 1.52 11.903 1.592 12.767 1.16 15.55q-.408 2.625-.04 3.009c.432.432 4.032.512 6.176.136l1.488-.264-1.4.752c-.768.416-1.392.935-1.392 1.144 0 .583 2.416 4.223 3.88 5.847l1.312 1.456c6.295 6.552 15.07 10.56 27.359 5.632l4-3.136c-.289-.08.975-1.088 2.791-2.232 4.24-2.656 6.352-4.256 11.6-8.791 2.351-2.024 5.303-4.2 6.559-4.832a48 48 0 0 0 7.52-4.856c.752-.656.784-.64 1.656.92.488.872 1.583 2.336 2.431 3.256 3.336 3.631 4.64 5.6 4.64 6.991 0 .944.464 2.048 1.544 3.712 2.48 3.808 3.92 4.56 5.824 3.064 1.152-.904.6-1.408 5.848 5.408l4 5.2-.217 1.88c-3.807 12.318 10.607 7.951 17.727 9.175 6.88.768 12.96 3.144 19.967 1.744l1.104-.672c1.368-.84 2.256-2.144 2.32-3.2.08-1.384-1.584-1.12-3.336-.44-.64.256-.704-.184-1.935-.464-.416-.088-.936.024-1.416-.128-3.216-1-6.992-3.512-10.04-5.36-5.344-3.24-8.6-5.423-11.015-7.383-2.296-1.872-5.808-6.888-7.88-11.247-1.808-3.792-1.848-3.84-3.056-3.408-.824.296-.72.128.584-.984.872-.736 1.584-1.56 1.584-1.832 0-.264-.768-2.016-1.696-3.88-1.192-2.368-2.016-3.551-2.736-3.927q-1.04-.545-1.704-2.328a12 12 0 0 0-1.12-2.352 48 48 0 0 1-2.24-3.904 72 72 0 0 0-2.88-4.976 24 24 0 0 1-1.96-3.76c-.92-2.344-3.4-6.767-4-7.151-.215-.128.345-.88 1.249-1.68.896-.784 2.736-2.48 4.08-3.76 1.936-1.84 3.183-2.648 5.92-3.816a56 56 0 0 0 5.007-2.392c2.2-1.28 4.76-4.151 4.632-5.175-.056-.448.272-1.592.728-2.536.452-.87.721-1.823.792-2.8-.024-.584.384-1.896.92-2.904a9.6 9.6 0 0 0 .976-2.416c0-.32 3.176-4.272 7.04-8.76 3.871-4.495 6.96-8.367 6.863-8.607l-13.143-.92-19.767 24.095c-.193.235.456.488 1.16.488 1.24 0 1.28.304.344 2.76-.84 2.208-6.504 5.735-15.623 9.72l-6.48 2.831-1.44-1.408c-1.295-1.256-1.52-1.36-2.215-.92-1.136.704-1.216.32-.144-.688.512-.48.936-1.2.936-1.576 0-1.504-1.904-4.015-3.04-4.015-.416 0-.88-.48-1.2-1.24a5.6 5.6 0 0 0-1.4-1.952 5.6 5.6 0 0 1-1.312-1.648 21.6 21.6 0 0 0-2.344-3.168c-1.968-2.296-6.96-11.639-7.896-14.751a8.8 8.8 0 0 0-2.031-3.184c-1.544-1.544-1.544-1.544-.8-2.288.736-.744.744-.744 3.391.672 6.392 3.384 10.352 3.344 11.175-.032.16-.656.504-1.608 1.344-1.76.704-.112 1.168-.752 1.12-.896-.32-1.12.384-.776.912-1.12.616-.391.776-1.183 1.032-2.151.304-1.16.232-1.32 1.576-1.536 1.432-.224 2.6-1.232 2.32-2-1.456-3.944-1.072-7.224 1.12-9.688.744-.824 1.152-1.12.92-.68q-.888 1.712.192.824c.544-.456.584-.416.328.368-.448 1.424.432.6 1.672-1.568.608-1.056 1.12-1.68 1.136-1.36.056 1.024.664-.88.72-2.24.04-1.04.112-1.16.344-.56.263.657.327.6.56-.431.343-1.568-.36-5.312-1.488-7.856-.976-2.208-3.656-6.152-5-7.36a24 24 0 0 1-2.416-3.2c-1.776-2.735-3.2-3.791-6.184-4.575-1.112-.288-1.976-.72-1.92-.936.128-.592-1.776-.504-2.992.128-.96.496-1.136.472-2.32-.328a7.7 7.7 0 0 0-4.4-1.168m-1.943 89.884c.48.088.976.376 1.12.816.112.344 1.048 1.504 2.096 2.56 1.855 1.904 3.087 2.392 3.92 1.552.383-.376 1.631-.128 1.623.336 0 .128-.632.592-1.392 1.016-.768.432-2.48 1.44-3.815 2.256-1.336.816-3.2 1.92-4.16 2.48-2.624 1.503-2.768 1.04-1.6-5 .52-2.744 1.032-5.256 1.12-5.584.12-.392.6-.512 1.088-.432"/></svg>