<svg xmlns="http://www.w3.org/2000/svg" width="192" height="192"><path d="M96 16a80 80 0 1 0 80 80 79.965 79.965 0 0 0-80-80m0 9.045c5.208-.364 9.722 4.158 9.722 9.714A9.722 9.722 0 1 1 96 25.01zM38.283 86.963c-5.556 0-10.078-4.522-9.722-9.722a9.722 9.722 0 1 1 9.722 9.722m21.563 67.83a9.94 9.94 0 0 1-9.722-9.713 9.722 9.722 0 1 1 9.722 9.713M116.4 128.31a6.5 6.5 0 0 1-4.878-2.161L89.16 101.59h-2.916v20.156a6.606 6.606 0 0 1-13.203 0v-53.55a6.606 6.606 0 0 1 13.203 0v20.156h2.76l19.965-23.594a6.615 6.615 0 1 1 10.035 8.533L100.775 94.81l20.434 22.43a6.563 6.563 0 0 1-4.878 11.008zm15.443 26.484c-5.564 0-10.087-4.514-9.722-9.713a9.722 9.722 0 1 1 9.722 9.713m31.597-77.917a9.722 9.722 0 1 1-9.722-9.713 9.68 9.68 0 0 1 9.687 9.678z"/></svg>