<svg width="192" height="192" fill="none" xmlns="http://www.w3.org/2000/svg"><path d="M167 32c0 16.443-7.48 32.213-20.795 43.84C132.89 87.469 114.83 94 96 94s-36.89-6.532-50.205-18.16C32.48 64.214 25 48.444 25 32" stroke="#000" stroke-width="12" stroke-linecap="round" stroke-linejoin="round"/><path d="M25 31a6 6 0 0 1 6-6h130a6.002 6.002 0 0 1 6 6v130a6.003 6.003 0 0 1-1.757 4.243A6.003 6.003 0 0 1 161 167H31a6 6 0 0 1-6-6V31Z" stroke="#000" stroke-width="12" stroke-linecap="round" stroke-linejoin="round"/></svg>