<svg xmlns="http://www.w3.org/2000/svg" width="192" height="192" viewBox="0 0 192 192"><path d="M94.41 27.661A80.004 80.004 0 0 0 16 107.634a80 80 0 0 0 .797 8.72c.24 2 .41 5.121.89 5.921s.47 1.513.47 2.313a64 64 0 0 0 1.765 6.813c.4 1.28.801 2.55 1.281 3.75a32 32 0 0 0 1.438 3.61A77 77 0 0 0 30 152.355a70 70 0 0 0 4.078 5.516 64 64 0 0 0 4.485 5.047l.562.64a144 144 0 0 0 2.64-16 15.2 15.2 0 0 0-1.452-5.767 48 48 0 0 1-4.079-4.719 40 40 0 0 1-4.234-7.36 36.8 36.8 0 0 1-2-23.594 35.2 35.2 0 0 1 7.125-13.923 16 16 0 0 1 1.516-1.766 39.44 39.44 0 0 1 22.314-11.438 32.8 32.8 0 0 1 16.563 1.438 32 32 0 0 1 5.047 2.328 18.4 18.4 0 0 0 8 3.36 24 24 0 0 0 14.954-4.642 88.4 88.4 0 0 1 50.643-9.844c0 1.6-6.563 2.322-14.563 5.922-29.52 13.201-27.997 14.563-37.517 22.564a5.6 5.6 0 0 0-1.922 2.47 7.52 7.52 0 0 0 0 5.843 8.48 8.48 0 0 0 5.125 4.563l5.032 1.594a67.68 67.68 0 0 1 40.002 49.768c.96-.88 1.854-1.837 2.734-2.797l2.547-2.875 2.407-3.047a72 72 0 0 0 6.078-9.594 12.8 12.8 0 0 0 1.203-2.329 48 48 0 0 0 2.407-5.031 106 106 0 0 0 2.625-7.047 80.004 80.004 0 0 0-77.91-103.97zM73.159 98.039a4.8 4.8 0 0 0-4.438 4.797 4.8 4.8 0 0 0 9.594 0 4.8 4.8 0 0 0-5.156-4.797"/></svg>