<svg width="192" height="192" fill="none" xmlns="http://www.w3.org/2000/svg"><path d="M109 154v16m20-16v10m-46-10h58m-58 0c0 8.837-7.163 16-16 16s-16-7.163-16-16 7.163-16 16-16 16 7.163 16 16ZM68 50v30m56-30v30m-28 30v19m-48.997-7.5a48.985 48.985 0 0 1 10.123-30.33A49 49 0 0 1 143.749 132" stroke="#000" stroke-width="12" stroke-linecap="round" stroke-linejoin="round"/><circle cx="96" cy="110" r="6" stroke="#000" stroke-width="12" stroke-linecap="round" stroke-linejoin="round"/><path d="M124 50a28.002 28.002 0 0 0-28-28 27.999 27.999 0 0 0-28 28" stroke="#000" stroke-width="12" stroke-linecap="round" stroke-linejoin="round"/></svg>