<svg width="192" height="192" fill="none" xmlns="http://www.w3.org/2000/svg"><circle cx="120" cy="57" r="6" stroke="#000" stroke-width="12" stroke-linecap="round" stroke-linejoin="round"/><path d="M25 31a6 6 0 0 1 6-6h130a6 6 0 0 1 6 6v130a6 6 0 0 1-6 6H31a6 6 0 0 1-6-6V31Z" stroke="#000" stroke-width="12" stroke-linecap="round" stroke-linejoin="round"/><path d="m163 160-35.089-45.246a4 4 0 0 0-6.114-.246L104 134 79.118 98.454c-1.547-2.21-4.793-2.286-6.442-.152L25 160" stroke="#000" stroke-width="12" stroke-linecap="round" stroke-linejoin="round"/></svg>