<svg xmlns="http://www.w3.org/2000/svg" width="192" height="192" viewBox="0 0 192 192"><path d="M96 19a77 77 0 0 0-77 77 77 77 0 0 0 77 77 77 77 0 0 0 77-77 77 77 0 0 0-77-77m.116 9.571a67.42 67.42 0 0 1 67.429 67.43c0 15.715-5.352 30.183-14.468 41.687l-34.511-34.51c.916-2.28 1.37-4.675 1.37-7.293a19.835 19.835 0 0 0-19.82-19.82 19.835 19.835 0 0 0-19.82 19.82c0 2.618.454 5.013 1.363 7.292l-34.511 34.511A67.3 67.3 0 0 1 28.68 96a67.42 67.42 0 0 1 67.437-67.429m-.115 62.301s12.528 20.505 12.874 20.166l33.826 33.711c-12.19 11.504-28.475 18.68-46.585 18.68a66.84 66.84 0 0 1-46.585-18.68l33.71-33.71c.347.23 12.76-20.167 12.76-20.167"/></svg>