<svg xmlns="http://www.w3.org/2000/svg" width="192" height="192"><path d="m82.643 33.846 24.847-8.187.144 134.22-25.063 8.403z" opacity=".6"/><path d="M97.364 117.44c-10.772 12.998-21.185 26.284-40.718 26.284C29.07 143.724 16 117.081 16 94.747s10.197-46.75 37.127-46.75c11.634 0 22.908 7.11 29.587 14.65v18.169c-5.601-3.734-18.097-7.469-26.284-7.612-17.02-.287-32.101 7.11-31.813 23.914.215 11.562 11.634 19.46 23.052 19.46 17.522 0 28.079-15.942 36.912-28.078 2.442-3.16 9.407-12.496 10.557-14.004 9.838-13.716 21.185-26.284 40.718-26.284 22.98 0 35.907 18.528 39.569 37.63h-10.341c-4.165-6.176-12.208-9.982-20.108-9.982-18.097 0-28.869 16.66-37.917 28.869 0 0-7.038 9.551-9.551 12.639zM176 105.375c-2.298 19.174-13.07 38.564-36.625 38.636-13.716 0-24.417-9.407-31.885-20.898v-13.285c9.264 4.596 17.953 9.551 28.51 9.695 12.998.215 24.704-4.812 29.587-14.147z"/></svg>