<svg width="192" height="192" fill="none" xmlns="http://www.w3.org/2000/svg"><path d="M121.5 138.6A65.009 65.009 0 0 1 104 141a53.002 53.002 0 0 1-53-53 82 82 0 0 0 82 82c.835 0 1.669-.028 2.5-.085M170 133a37.006 37.006 0 0 1-13.274 28.391C154.854 149.558 144 146.706 144 133a13 13 0 0 1 26 0Zm-71.236-30.13C79.836 88.166 22 22 22 22s76.764 44.11 95.693 58.814c8.412 6.302 22.083 19.955 13.67 29.407-8.413 9.453-25.238-1.05-32.599-7.351ZM148 123l-16-13" stroke="#000" stroke-width="12" stroke-linecap="round" stroke-linejoin="round"/></svg>