<svg xmlns="http://www.w3.org/2000/svg" width="192" height="192" viewBox="0 0 192 192"><path d="m69.365 96 46.562 47.386 29.377-29.905a13.12 13.12 0 0 1 18.801 0c5.184 5.28 5.184 13.841 0 19.121l-38.778 39.466a13.2 13.2 0 0 1-18.801 0l-55.946-56.93v33.841c0 7.44-5.992 13.529-13.297 13.529-7.336 0-13.281-6.056-13.281-13.521V43.017c0-7.464 5.944-13.521 13.281-13.521 7.344 0 13.297 6.056 13.297 13.521v33.849l55.946-56.93a13.2 13.2 0 0 1 18.801 0l38.77 39.458c5.2 5.28 5.2 13.841 0 19.121a13.137 13.137 0 0 1-18.801 0l-29.369-29.897zm46.578-13.537c7.344 0 13.297 6.056 13.297 13.537 0 7.48-5.952 13.537-13.297 13.537-7.344 0-13.305-6.064-13.305-13.537 0-7.48 5.96-13.537 13.305-13.537"/></svg>