<svg xmlns="http://www.w3.org/2000/svg" width="192" height="192" viewBox="0 0 192 192"><path d="M94.752 16.077a6 6 0 0 0-1.812.594L27.893 50.437a6.005 6.005 0 0 0-2.563 8.094 6.005 6.005 0 0 0 8.094 2.562L95.72 28.765l62.875 32.422a6.005 6.005 0 0 0 8.078-2.578 6.005 6.005 0 0 0-2.578-8.094L98.47 16.671a6 6 0 0 0-3.719-.594zM38.611 70.765a6.505 6.505 0 0 0-6.5 6.5V114.5c0 3.587 2.913 6.515 6.5 6.516h114.78c3.587 0 6.5-2.93 6.5-6.516V77.265c0-3.587-2.913-6.5-6.5-6.5zm6.5 13h101.78V108H45.111zm14.828 5.406c-1.514.001-2.765 1.237-2.766 2.75v8.047c.002 1.514 1.252 2.749 2.766 2.75h8.031a2.76 2.76 0 0 0 2.75-2.75v-8.047a2.76 2.76 0 0 0-2.75-2.75zm32.031 0a2.76 2.76 0 0 0-2.75 2.75v8.047a2.76 2.76 0 0 0 2.75 2.75h8.047a2.76 2.76 0 0 0 2.75-2.75v-8.047a2.76 2.76 0 0 0-2.75-2.75zm32.063.125c-1.514.001-2.764 1.237-2.766 2.75v8.032c.001 1.513 1.252 2.748 2.766 2.75h8.047a2.76 2.76 0 0 0 2.75-2.75v-8.032a2.76 2.76 0 0 0-2.75-2.75h-.016zm-85.641 41.797a6.005 6.005 0 0 0-6 6.016V170a6.005 6.005 0 0 0 6 6 6.005 6.005 0 0 0 6-6v-26.891h103.22V170a6.005 6.005 0 0 0 6 6 6.005 6.005 0 0 0 6-6v-32.891a6.005 6.005 0 0 0-6-6.016z"/></svg>