<svg width="192" height="192" fill="none" xmlns="http://www.w3.org/2000/svg"><path d="M25 28a6 6 0 0 1 6-6h44a6 6 0 0 1 6 6v55a6 6 0 0 1-6 6H31a6 6 0 0 1-6-6V28Zm86 0a6 6 0 0 1 6-6h44a6 6 0 0 1 6 6v22a6 6 0 0 1-6 6h-44a6 6 0 0 1-6-6V28Zm0 58a6 6 0 0 1 6-6h44a6 6 0 0 1 6 6v78a6 6 0 0 1-6 6h-44a6 6 0 0 1-6-6V86Z" stroke="#000" stroke-width="12" stroke-linecap="round" stroke-linejoin="round"/><circle cx="53" cy="141" r="29" stroke="#000" stroke-width="12" stroke-linecap="round" stroke-linejoin="round"/></svg>