<svg xmlns="http://www.w3.org/2000/svg" width="192" height="192" viewBox="0 0 192 192"><path d="M70.642 138.38q-1.424 0-2.824.24c-12.584 2.16-19.624 15.064-14.392 26.408 2.248 4.88 7.056 8.92 12.376 10.4 4.544 1.264 10.376.408 14.76-2.16 2.496-1.464 5.84-5.056 7.088-7.616l.976-2.024h12.712v3.888c0 4.568.72 6.176 3.336 7.408a6 6 0 0 0 7.624-2.256c.528-.8.816-2.384.944-5.096l.2-3.944h1.936c1.936 0 1.936 0 2.24 1.888 1.064 6.728 10.576 6.744 11.664.024l.272-1.696 3.32-.24c3.92-.28 5.424-1.104 6.736-3.68 1.688-3.312.232-7.648-3.016-9.008-1.2-.496-5.904-.616-24.76-.616H88.538l-1.312-2.32c-3.304-5.848-9.992-9.6-16.592-9.6zm.536 10.2q1.576.048 3.152.728c6.08 2.696 6.624 11.432.904 14.64-5.8 3.264-12.552-.48-12.608-6.976a8.296 8.296 0 0 1 8.56-8.392zm61.056-59.104q.104.44.104.896v33.28a3.6 3.6 0 0 1-3.576 3.6 17.97 17.97 0 0 1-17.92-17.992V96.164L90.786 76.028a6 6 0 0 1 0-8.48l20.064-20.144V33.996a17.95 17.95 0 0 1 17.912-17.992 3.6 3.6 0 0 1 3.584 3.6v32.984a4 4 0 0 1-.136.96 6 6 0 0 1-1.72 4.664L116.97 71.78l13.52 13.576a6 6 0 0 1 1.736 4.12m-57.04 37.784h-9.552a5.976 5.976 0 0 1-5.976-6V22.004a6 6 0 0 1 5.976-6h9.552a6 6 0 0 1 5.968 6v99.256a6 6 0 0 1-5.968 6"/></svg>