<svg width="192" height="192" fill="none" xmlns="http://www.w3.org/2000/svg"><path d="M68 164c1.657 0 3-2.686 3-6s-1.343-6-3-6-3 2.686-3 6 1.343 6 3 6Zm28 8s4 0 4-2-4-2-4-2-4 0-4 2 4 2 4 2Zm28-8c1.657 0 3-2.686 3-6s-1.343-6-3-6-3 2.686-3 6 1.343 6 3 6Z" stroke="#000" stroke-width="8" stroke-linecap="round" stroke-linejoin="round"/><path d="M154 170a58 58 0 0 0-116 0" stroke="#000" stroke-width="12" stroke-linecap="round" stroke-linejoin="round"/><path d="M88 111.583s-13.478-93.128-49.765-82.78C1.948 39.151 57.934 124 57.934 124M106 111.559s9.02-118.811 45.099-82.742C187.178 64.886 136.132 124 136.132 124" stroke="#000" stroke-width="12" stroke-linecap="round" stroke-linejoin="round"/></svg>