<svg xmlns="http://www.w3.org/2000/svg" width="192" height="192" viewBox="0 0 192 192"><path d="m86.56 130.73-5.867-15.947s-9.533 10.627-23.82 10.627c-12.647 0-21.627-10.993-21.627-28.587 0-22.547 11.36-30.607 22.54-30.607 16.133 0 21.26 10.447 25.66 23.827l5.867 18.327c5.867 17.773 16.86 32.067 48.567 32.067 22.727 0 38.12-6.96 38.12-25.287 0-14.847-8.433-22.54-24.2-26.207l-11.72-2.567c-8.067-1.833-10.447-5.133-10.447-10.633 0-6.226 4.947-9.893 13.013-9.893 8.8 0 13.56 3.3 14.293 11.18l18.327-2.2c-1.467-16.493-12.827-23.28-31.527-23.28-16.493 0-32.62 6.233-32.62 26.213 0 12.467 6.047 20.34 21.26 24.007l12.467 2.933c9.347 2.2 12.46 6.047 12.46 11.36 0 6.78-6.6 9.534-19.067 9.534-18.507 0-26.2-9.714-30.6-23.093l-6.047-18.333c-7.7-23.82-19.98-32.62-44.353-32.62-26.947 0-41.24 17.047-41.24 46 0 27.867 14.293 42.893 39.953 42.893 20.707 0 30.607-9.714 30.607-9.714z"/></svg>