<svg xmlns="http://www.w3.org/2000/svg" width="192" height="192" viewBox="0 0 192 192"><path d="M171.7 56.711a4.28 4.28 0 0 0-4.296 4.336v69.918a4.32 4.32 0 0 0 5.944 4.008 4.32 4.32 0 0 0 2.656-4.016v-69.91a4.32 4.32 0 0 0-4.304-4.328zM79.927 81.734a14.72 14.72 0 0 0-13.712 9.088 14.96 14.96 0 0 0 3.12 16.216 14.696 14.696 0 0 0 22.727-2.2 14.96 14.96 0 0 0-1.768-18.727 14.64 14.64 0 0 0-10.368-4.376m49.055 0a14.7 14.7 0 0 0-8.224 2.448 14.84 14.84 0 0 0-6.368 15.224 14.72 14.72 0 0 0 20.087 10.904 14.88 14.88 0 0 0 9.136-13.728 14.88 14.88 0 0 0-4.264-10.48 14.64 14.64 0 0 0-10.368-4.368m-98.109 0a14.7 14.7 0 0 0-8.224 2.448 14.84 14.84 0 0 0-6.367 15.224 14.72 14.72 0 0 0 20.095 10.904 14.8 14.8 0 0 0 9.12-13.728 14.8 14.8 0 0 0-4.257-10.48 14.64 14.64 0 0 0-10.368-4.368"/></svg>