<svg width="192" height="192" fill="none" xmlns="http://www.w3.org/2000/svg"><path d="M100.71 142.682c.631-2.659.966-5.435.966-8.291 0-6.813-1.904-13.176-5.203-18.575m4.237 26.866c17.103-2.326 30.29-17.142 30.29-35.073a35.84 35.84 0 0 0-.994-8.41A35.006 35.006 0 0 0 126.27 99a34.537 34.537 0 0 0-15.77 3.788m-9.79 39.894c-1.54.21-3.113.318-4.71.318-19.33 0-35-15.845-35-35.391 0-2.856.334-5.632.966-8.291 1.54-.21 3.112-.318 4.71-.318a34.54 34.54 0 0 1 15.194 3.5m14.603 13.316c-3.5-5.728-8.57-10.372-14.603-13.316m14.603 13.316a35.303 35.303 0 0 1 14.027-13.028m-11 4.712c1.527-5.712 1.527-7.469 1.527-9.935a30.1 30.1 0 0 0-4.608-16.042m0 0a30.978 30.978 0 0 0-12.16-11.12m12.16 11.12a30.975 30.975 0 0 1 11.843-10.955M99 75c1-4 1.216-6.184 1.216-8.26 0-4.956-1.414-9.583-3.865-13.51m0 0a25.991 25.991 0 0 1 7.628-7.854A26.063 26.063 0 0 1 118.486 41c.938 0 1.864.05 2.776.145a25.58 25.58 0 0 1 .738 6.116c0 9.93-5.419 19.015-13.738 23.307M96.352 53.23a26.029 26.029 0 0 0-14.633-11.142 26.494 26.494 0 0 0-11.002-.857 25.559 25.559 0 0 0-.717 6.03c0 10.063 5.757 18.91 14.258 23.143m0 0A31.221 31.221 0 0 0 70.027 67a31.72 31.72 0 0 0-4.172.274 30.24 30.24 0 0 0-.855 7.16c0 12.014 6.646 23.07 16.87 28.066m26.392-31.932A31.214 31.214 0 0 1 122.811 67c1.118 0 2.221.058 3.309.172.575 2.328.88 4.76.88 7.263 0 11.913-6.413 23.31-16.5 28.353M85 41.806c.111-6.238 2.54-12.42 7.296-17.157A24.912 24.912 0 0 1 96.948 21c.895.681 1.754 1.43 2.573 2.245 5.144 5.124 7.637 11.881 7.471 18.56M123.5 171s-18.5-4-20.79-28.318" stroke="#000" stroke-width="10" stroke-linecap="round" stroke-linejoin="round"/></svg>