<svg xmlns="http://www.w3.org/2000/svg" width="192" height="192" viewBox="0 0 192 192"><path d="M29.991 19.005a11.12 11.12 0 0 0-7.79 3.22 11.07 11.07 0 0 0 0 15.57l54.33 54.31-54.81 62.63-.05.07-.29.37-.4.5a11.12 11.12 0 0 0-1.7 8.82l.07.3v.03a11 11 0 0 0 .73 1.95l.05.14.35.62.14.25a11.1 11.1 0 0 0 2.95 3.14l.04.03.42.27.51.34q.94.51 1.97.85l.57.17.44.12h.03a10.87 10.87 0 0 0 7.24-.8q.06-.04.14-.06l70.5-35.3-16.4-16.4-13.87 6.93 16.96-19.38 62.09 62.08a11.07 11.07 0 0 0 15.57 0 11.07 11.07 0 0 0 0-15.57l-33.22-33.22 30.37-15.14a11.06 11.06 0 0 0 4.92-14.78 11.09 11.09 0 0 0-14.79-4.93l-36.88 18.46-20.52-20.5-61.88-61.88a11.12 11.12 0 0 0-7.78-3.21z"/></svg>