<svg width="192" height="192" fill="none" xmlns="http://www.w3.org/2000/svg"><path d="M36 47V28a6 6 0 0 1 6-6h102a6 6 0 0 1 6 6v19M36 101v22m0 22v19a6 6 0 0 0 6 6h102a6 6 0 0 0 6-6V91M84 53a6 6 0 0 1 6-6h73a6 6 0 0 1 6 6v32a6 6 0 0 1-6 6H90a6 6 0 0 1-6-6V53Z" stroke="#000" stroke-width="12" stroke-linecap="round" stroke-linejoin="round"/><path d="M27 53a6 6 0 0 1 6-6h23a6 6 0 0 1 6 6v42a6 6 0 0 1-6 6H33a6 6 0 0 1-6-6V53Zm0 76a6 6 0 0 1 6-6h23a6 6 0 0 1 6 6v10a6 6 0 0 1-6 6H33a6 6 0 0 1-6-6v-10Zm57-10a6 6 0 0 1 6-6h23a6 6 0 0 1 6 6v10a6 6 0 0 1-6 6H90a6 6 0 0 1-6-6v-10Z" stroke="#000" stroke-width="12" stroke-linecap="round" stroke-linejoin="round"/></svg>