<svg xmlns="http://www.w3.org/2000/svg" width="192" height="192" viewBox="0 0 192 192"><path d="M127.04 62.761c-9.481 0-20.752 5.179-28.714 13.192l-.175.175.175.182c3.99 4.213 7.02 9.684 9.537 17.217l.363 1.097.143-1.142c1.277-10.177 10.544-20.703 23.832-20.703 7.447 0 15.074 3.557 19.437 9.069l.896 1.136-.442-1.37c-1.814-5.67-5.193-10.454-9.776-13.828a25.6 25.6 0 0 0-15.276-5.025m-65.542.065c-10.826 0-20.147 3.2-26.967 9.25-6.824 6.056-10.433 14.338-10.433 23.956 0 9.257 3.553 17.699 10.011 23.78 6.453 6.076 15.416 9.426 25.241 9.426 9.162 0 17.429-2.616 23.274-7.362l1.623-1.317-1.902.882c-5.1 2.363-10.163 3.467-15.944 3.467-9.155 0-16.947-2.77-22.533-8.01-5.582-5.24-8.537-12.546-8.537-21.126 0-7.987 2.74-15.226 7.712-20.39 5.023-5.218 12.134-8.096 20.028-8.096 7.704 0 13.914 1.787 18.99 5.46 5.608 4.059 10.076 10.542 13.665 19.825l3.136 8.076c7.378 18.971 19.143 28.59 34.972 28.59 6.584 0 12.815-1.631 18.022-4.72 5.427-3.219 9.485-7.896 11.731-13.528l.617-1.565-1.071 1.299c-5.29 6.433-16.254 10.757-27.28 10.757-7.171 0-12.975-1.879-17.748-5.746-4.721-3.824-8.44-9.606-11.374-17.665l-2.09-5.68C97.806 73.877 81.676 62.825 61.5 62.825zm50.254.83-31.655.144 1.357.5c5.937 2.179 9.75 4.646 14.587 9.432l.182.182.188-.175c4.642-4.328 8.897-7.191 14.224-9.576zm29.519 1.52 1.597.669c8.22 3.432 13.743 14.657 13.743 27.928 0 10.7-3.63 18.426-10.783 22.968l-1.065.675 1.247-.201c5.84-.937 11.289-3.9 15.34-8.349 4.185-4.596 6.492-10.411 6.492-16.386 0-6.535-2.634-12.991-7.408-18.171-4.744-5.148-10.934-8.331-17.437-8.965zm-78.598 4.947c-6.838 0-12.991 2.44-17.801 7.05 3.811-3.086 9.338-4.395 14.931-4.395 5.657 0 10.613 1.736 14.73 5.161 4.314 3.59 7.752 9.076 10.218 16.301l2.48 7.232c5 14.59 15.69 23.897 30.103 26.208l2.402.39-2.26-.883c-9.183-3.584-16.044-12.268-22.24-28.15l-2.811-7.296c-5.714-14.948-14.89-21.618-29.752-21.618m-35.796 7.57-8.66 2.453c-1.872.52-2.214 1.623-2.214 3.61v12.08c0 1.446.992 2.455 2.415 2.455h3.07v-2.195c0-6.788 1.768-13.114 4.98-17.814zm138.88.045.435.61c3.63 5.148 4.713 10.022 3.87 17.392l-.293 2.551h3.817c1.424 0 2.422-1.008 2.422-2.454v-12.08c0-1.972-.336-3.008-2.214-3.604zm-82.266 21.02-.117 1.449c-.791 9.949-10.093 20.359-24.286 20.56l-2.116.032 2.058.48c2.617.613 5.2.916 7.894.916 8.432 0 16.197-2.805 23.079-8.33l.195-.155-.15-.195c-2.482-3.387-4.67-8.133-6.16-13.36z"/></svg>