<svg width="192" height="192" fill="none" xmlns="http://www.w3.org/2000/svg"><path d="M96 102a6 6 0 1 0 0-12 6 6 0 0 0 0 12Z" stroke="#000" stroke-width="12" stroke-linecap="round" stroke-linejoin="round"/><path d="M57 101a5 5 0 1 0 0-10 5 5 0 0 0 0 10Z" stroke="#000" stroke-width="10" stroke-linecap="round" stroke-linejoin="round"/><path d="M24 100a4 4 0 1 0 0-8 4 4 0 0 0 0 8Zm72-72a4 4 0 1 0 0-8 4 4 0 0 0 0 8Zm0 144a4 4 0 1 0 0-8 4 4 0 0 0 0 8Zm72-72a4 4 0 1 0 0-8 4 4 0 0 0 0 8Z" stroke="#000" stroke-width="8" stroke-linecap="round" stroke-linejoin="round"/><path d="M57 62a5 5 0 1 0 0-10 5 5 0 0 0 0 10Zm0 78a5 5 0 1 0 0-10 5 5 0 0 0 0 10Zm78-39a5 5 0 1 0 0-10 5 5 0 0 0 0 10Zm0-39a5 5 0 1 0 0-10 5 5 0 0 0 0 10Zm0 78a5 5 0 1 0-.001-10.001A5 5 0 0 0 135 140ZM96 62a5 5 0 1 0 0-10 5 5 0 0 0 0 10Zm0 78a5 5 0 1 0 0-10 5 5 0 0 0 0 10Z" stroke="#000" stroke-width="10" stroke-linecap="round" stroke-linejoin="round"/></svg>