<svg width="192" height="192" fill="none" xmlns="http://www.w3.org/2000/svg"><path d="M111 168.479A74.348 74.348 0 0 1 96 170c-40.87 0-74-33.131-74-74 0-40.87 33.13-74 74-74 40.869 0 74 33.13 74 74 0 1.005-.02 2.005-.06 3" stroke="#000" stroke-width="12" stroke-linecap="round" stroke-linejoin="round"/><path d="M143.557 89.5a15.38 15.38 0 0 0-4.253-3.61c-10.552-6.061-22.044-2.003-30.185 2.958 8.39-4.534 17.667-12.405 17.667-24.532 0-4.062-1.622-7.958-4.509-10.83A15.432 15.432 0 0 0 111.393 49a15.433 15.433 0 0 0-10.885 4.486A15.279 15.279 0 0 0 96 64.316a15.28 15.28 0 0 0-4.508-10.83A15.432 15.432 0 0 0 80.607 49a15.432 15.432 0 0 0-10.884 4.486 15.278 15.278 0 0 0-4.508 10.83c0 12.127 9.276 19.998 17.666 24.532-8.141-4.961-19.633-9.02-30.185-2.957a15.326 15.326 0 0 0-7.171 9.3 15.25 15.25 0 0 0 1.537 11.622 15.381 15.381 0 0 0 9.347 7.136 15.457 15.457 0 0 0 11.68-1.53 15.328 15.328 0 0 0-7.172 9.3 15.251 15.251 0 0 0 1.538 11.623 15.38 15.38 0 0 0 9.347 7.136 15.462 15.462 0 0 0 11.68-1.53c10.287-5.91 12.641-17.396 12.518-26.768-.123 9.372 2.23 20.858 12.518 26.768a15.442 15.442 0 0 0 7.412 2.049m39.97-5.097L132 160h28m-4.101-24.101a13.99 13.99 0 0 0 3.832-12.63 13.998 13.998 0 0 0-26.078-3.869A14.008 14.008 0 0 0 132 126" stroke="#000" stroke-width="12" stroke-linecap="round" stroke-linejoin="round"/></svg>