<svg width="192" height="192" fill="none" xmlns="http://www.w3.org/2000/svg"><path d="M116 167.266A74.092 74.092 0 0 1 96 170c-40.87 0-74-33.131-74-74 0-40.87 33.13-74 74-74 40.869 0 74 33.13 74 74 0 .837-.014 1.67-.041 2.5" stroke="#000" stroke-width="12" stroke-linecap="round" stroke-linejoin="round"/><path d="M144 90.07a15.363 15.363 0 0 0-4.696-4.18c-10.552-6.061-22.044-2.003-30.185 2.958 8.39-4.534 17.667-12.405 17.667-24.532 0-4.062-1.622-7.958-4.509-10.83A15.432 15.432 0 0 0 111.393 49a15.433 15.433 0 0 0-10.885 4.486A15.279 15.279 0 0 0 96 64.316a15.28 15.28 0 0 0-4.508-10.83A15.432 15.432 0 0 0 80.607 49a15.432 15.432 0 0 0-10.884 4.486 15.278 15.278 0 0 0-4.508 10.83c0 12.127 9.276 19.998 17.666 24.532-8.141-4.961-19.633-9.02-30.185-2.957a15.326 15.326 0 0 0-7.171 9.3 15.25 15.25 0 0 0 1.537 11.622 15.381 15.381 0 0 0 9.347 7.136 15.457 15.457 0 0 0 11.68-1.53 15.328 15.328 0 0 0-7.172 9.3 15.251 15.251 0 0 0 1.538 11.623 15.38 15.38 0 0 0 9.347 7.136 15.462 15.462 0 0 0 11.68-1.53c10.287-5.91 12.641-17.396 12.518-26.768-.123 9.372 2.23 20.858 12.518 26.768a15.42 15.42 0 0 0 3.982 1.599m19.98-19.653c.676-2.163 2.045-4.121 3.953-5.652 1.907-1.531 4.276-2.574 6.839-3.011a16.202 16.202 0 0 1 7.662.538c2.446.789 4.585 2.149 6.176 3.926 1.591 1.777 2.569 3.9 2.826 6.129.256 2.229-.221 4.475-1.377 6.483-1.156 2.009-2.944 3.701-5.163 4.883-2.219 1.183-4.78 1.81-7.393 1.81 2.613 0 5.174.627 7.393 1.81 2.219 1.182 4.007 2.874 5.163 4.883 1.156 2.008 1.633 4.254 1.377 6.483-.257 2.229-1.235 4.352-2.826 6.129-1.591 1.777-3.73 3.137-6.176 3.926a16.202 16.202 0 0 1-7.662.538c-2.563-.437-4.932-1.48-6.839-3.011-1.908-1.531-3.277-3.489-3.953-5.652" stroke="#000" stroke-width="12" stroke-linecap="round" stroke-linejoin="round"/></svg>