<svg width="192" height="192" fill="none" xmlns="http://www.w3.org/2000/svg"><path d="M141 125c16.016 0 29-12.984 29-29s-12.984-29-29-29-29 12.984-29 29 12.984 29 29 29Zm-90 0c16.016 0 29-12.984 29-29S67.016 67 51 67 22 79.984 22 96s12.984 29 29 29Zm0 0h90" stroke="#000" stroke-width="12" stroke-linecap="round" stroke-linejoin="round"/><path d="M36.501 121.115 51 96m0 0L36.501 70.884M51 96h29m35.884-14.499L140.999 96m0 0 25.116-14.499M140.999 96v29" stroke="#000" stroke-width="10" stroke-linecap="round" stroke-linejoin="round"/></svg>