<svg xmlns="http://www.w3.org/2000/svg" width="192" height="192" viewBox="0 0 192 192"><path d="M90.493 19A15.62 15.62 0 0 0 75.29 31.012c-32.195 7.127-56.279 35.823-56.279 70.156 0 14.322 4.192 27.667 11.43 38.875a15.622 15.622 0 0 0 21.68 21.621A71.5 71.5 0 0 0 90.879 173a71.87 71.87 0 0 0 70.283-56.775 15.622 15.622 0 0 0-.043-30.32 71.95 71.95 0 0 0-55.465-55.072 15.62 15.62 0 0 0-15.16-11.832zm14.201 22.125a61.69 61.69 0 0 1 46.141 45.771 15.67 15.67 0 0 0-8.256 9.223 116.6 116.6 0 0 0-60.199 13.687l-.006.01v-.008l.006-.002C90.36 95.1 96.713 75.34 96.114 49.193a15.66 15.66 0 0 0 8.58-8.069zm-28.318.18a15.66 15.66 0 0 0 9.197 8.144c.616 26.454-6.45 45.473-14.527 58.982-6.28 10.49-12.979 17.48-17.83 22.553a178 178 0 0 0-3.277 3.48 15.66 15.66 0 0 0-11.293-.64 61.617 61.617 0 0 1 37.73-92.52zm62.553 65.098q1.89.023 3.82.113a15.66 15.66 0 0 0 8.12 8.727 61.626 61.626 0 0 1-92.524 38.2l-.004.016v-.017l.004.002a15.57 15.57 0 0 0-.851-11.637 137 137 0 0 1 2.814-2.987l.737-.761c12.333-11.935 38.813-32.132 77.885-31.656z"/></svg>