<svg width="192" height="192" fill="none" xmlns="http://www.w3.org/2000/svg"><path d="M96 57a4 4 0 1 0 0-8 4 4 0 0 0 0 8Z" stroke="#000" stroke-width="8" stroke-linecap="round" stroke-linejoin="round"/><path d="M96 81a3 3 0 1 0 0-6 3 3 0 0 0 0 6Zm0 36a3 3 0 1 0 0-6 3 3 0 0 0 0 6ZM78 99a3 3 0 1 0 0-6 3 3 0 0 0 0 6Zm36 0a3 3 0 1 0 0-6 3 3 0 0 0 0 6Z" stroke="#000" stroke-width="6" stroke-linecap="round" stroke-linejoin="round"/><path d="M53 87a4 4 0 1 0 0-8 4 4 0 0 0 0 8Zm86 0a4 4 0 1 0 0-8 4 4 0 0 0 0 8Zm-86 26a4 4 0 1 0 0-8 4 4 0 0 0 0 8Zm86 0a4 4 0 1 0 0-8 4 4 0 0 0 0 8Zm-43 30a4 4 0 1 0 0-8 4 4 0 0 0 0 8Zm26.177-77.114a4 4 0 1 0 0-8 4 4 0 0 0 0 8Zm-52.354 68.228a4 4 0 1 0 0-8 4 4 0 0 0 0 8Zm.002-76.229a4 4 0 1 1 0 8 4 4 0 0 1 0-8Zm52.351 68.23a4 4 0 1 1 0 8 4 4 0 0 1 0-8ZM28 83a4 4 0 1 1-8 0 4 4 0 0 1 8 0Zm22.742 65.39a4.004 4.004 0 0 1 1.99 3.993 4 4 0 1 1-1.99-3.993Zm68 13a3.984 3.984 0 0 1 1.481-.512 3.994 3.994 0 0 1 4.402 5.011 3.99 3.99 0 0 1-1.883 2.429 4 4 0 0 1-4-6.928ZM92 24a4 4 0 1 0 8 0 4 4 0 0 0-8 0Zm64.354 32.536a3.99 3.99 0 0 0-1.883 2.43 4.004 4.004 0 0 0 .396 3.047 4.002 4.002 0 0 0 5.487 1.451 4 4 0 0 0-4-6.928Zm4 72a3.998 3.998 0 0 0-6.024 2.925 3.99 3.99 0 0 0 .824 2.979 4 4 0 1 0 5.2-5.904ZM92 168a3.998 3.998 0 0 0 6.828 2.828A3.998 3.998 0 0 0 96 164a3.997 3.997 0 0 0-4 4Zm-60.354-39.464a4.002 4.002 0 0 0-.453 6.655 3.991 3.991 0 0 0 2.972.785 4 4 0 1 0-2.519-7.44Zm4-72a4 4 0 1 0-4.046 6.902 4 4 0 0 0 4.046-6.902ZM172 83a3.997 3.997 0 0 1-4 4 3.998 3.998 0 0 1-2.828-6.828A3.998 3.998 0 0 1 172 83Zm-49.258-59.318a4 4 0 1 1-4.002 6.929 4.003 4.003 0 0 1-1.464-5.466 4.003 4.003 0 0 1 5.466-1.463Zm-76 13a4 4 0 1 1 4.046 6.902 4 4 0 0 1-4.046-6.902ZM28 109a3.998 3.998 0 0 1-6.828 2.828A3.998 3.998 0 0 1 24 105a3.997 3.997 0 0 1 4 4Zm45.258 52.39a4.004 4.004 0 0 1 1.99 3.993 4 4 0 1 1-1.99-3.993Zm68-13a3.998 3.998 0 0 1 6.024 2.925 3.99 3.99 0 0 1-.824 2.979 4 4 0 1 1-5.2-5.904ZM172 109a3.995 3.995 0 0 1-1.172 2.828 3.995 3.995 0 0 1-5.656 0 3.995 3.995 0 0 1 0-5.656 3.995 3.995 0 0 1 5.656 0A3.995 3.995 0 0 1 172 109Zm-26.742-72.318a3.99 3.99 0 0 1 1.883 2.43 4.004 4.004 0 0 1-.396 3.047 4.002 4.002 0 0 1-5.487 1.451 4 4 0 0 1 4-6.928Zm-76-13a4 4 0 1 1 4.046 6.902 4 4 0 0 1-4.046-6.902Z" stroke="#000" stroke-width="8" stroke-linecap="round" stroke-linejoin="round"/></svg>