<svg width="192" height="192" fill="none" xmlns="http://www.w3.org/2000/svg"><path d="M96 22c-33.137 0-60 26.863-60 60 0 17.384 7.393 33.042 19.208 44 10.705-9.929 25.04-16 40.792-16 15.753 0 30.087 6.071 40.793 16C148.607 115.042 156 99.384 156 82c0-33.137-26.863-60-60-60Zm22.627 125.373A31.987 31.987 0 0 0 96 138a32.003 32.003 0 0 0-22.627 9.373" stroke="#000" stroke-width="12" stroke-linecap="round" stroke-linejoin="round"/><path d="M101 167c0-.525-.129-1.045-.381-1.531a4.063 4.063 0 0 0-1.084-1.297 5.237 5.237 0 0 0-1.622-.868A6.102 6.102 0 0 0 96 163c-.657 0-1.307.103-1.913.304a5.237 5.237 0 0 0-1.623.868 4.069 4.069 0 0 0-1.083 1.297A3.322 3.322 0 0 0 91 167l5 4 5-4Z" stroke="#000" stroke-width="10" stroke-linecap="round" stroke-linejoin="round"/></svg>