<svg xmlns="http://www.w3.org/2000/svg" width="192" height="192" viewBox="0 0 192 192"><path d="M17.4 30.685c-.864.128-1.512.88-1.384 1.744v126.62c0 1.48.64 2.232 2 2.232H96.56c.504 0 .88-.112 1.256-.36.384-.384.744-.848.744-1.48l3.576-21.56c.264-1.12-.104-1.744-1.36-1.744H43.552V31.687c0-.616-.736-1.12-1.36-1zm156.86 29.496a36.8 36.8 0 0 0-18.456 4.456 46.4 46.4 0 0 0-13.264 10.68c0-1.616-.128-3.12-.256-4.48a48 48 0 0 0-.616-3.84 8 8 0 0 0-1-2.848 2.8 2.8 0 0 0-2.608-1.968c-7.36 0-14.896-.024-22.168 0a1.12 1.12 0 0 0-.88 1.36q.592 4.08.784 8.16c.12 3.224.096 6.456.224 9.68.12 3.224.128 6.32.128 9.296v69.144a1.73 1.73 0 0 0 2 1.488h24.136c1.12 0 1.616-.504 1.616-1.744V96.357c1.856-1.984 4.24-3.472 6.712-4.584a50.4 50.4 0 0 1 23.392-4.192c1.36 0 2-.368 2-1.36V62.053l-.032-.52a1.52 1.52 0 0 0-1.712-1.352"/></svg>