<svg xmlns="http://www.w3.org/2000/svg" width="192" height="192" viewBox="0 0 192 192"><path d="M96 20.002c-44.104 0-80 29.064-80 64.784 0 31.992 28.48 58.808 66.904 63.904 2.608.544 6.152 1.712 7.048 3.92.8 2 .528 5.088.248 7.176l-1.088 6.776c-.304 2-1.6 7.896 7 4.296 8.608-3.584 46.104-27.12 62.904-46.384C170.512 111.914 176 99.034 176 84.786c0-35.72-35.904-64.784-80-64.784m-47.832 48a4.177 4.177 0 0 1 4.176 4.168v27.472h11.624a4.18 4.18 0 0 1 0 8.36h-15.8A4.2 4.2 0 0 1 44 103.834V72.162c0-2.288 1.888-4.168 4.168-4.168zm27.976 0c2.288 0 4.16 1.88 4.16 4.168v31.664a4.184 4.184 0 0 1-4.176 4.168 4.184 4.184 0 0 1-4.16-4.168V72.162a4.18 4.18 0 0 1 4.176-4.168zm38 0c2.28 0 4.168 1.88 4.168 4.168v31.664a4.16 4.16 0 0 1-4.184 4.152 4.08 4.08 0 0 1-3.376-1.656l-16.176-22v19.504a4.16 4.16 0 0 1-4.168 4.168 4.16 4.16 0 0 1-4.144-4.168V72.162a4.16 4.16 0 0 1 4.128-4.152c1.288 0 2.472.688 3.264 1.68l16.32 22.104V72.162c0-2.288 1.864-4.168 4.16-4.168zm13.92 0h15.776a4.18 4.18 0 0 1-.008 8.36H132.2v7.472h11.632a4.176 4.176 0 0 1 0 8.336H132.2v7.472h11.632a4.184 4.184 0 0 1 0 8.36h-15.8a4.184 4.184 0 0 1-4.16-4.168V72.162c0-2.288 1.888-4.168 4.192-4.168z"/></svg>