<svg xmlns="http://www.w3.org/2000/svg" width="192" height="192" fill="none"><path stroke="#000" stroke-linecap="round" stroke-linejoin="round" stroke-width="12" d="M79 74s-25-34 30-52m-43.269 88.214 15.25 23.483m-19.367-4.117 23.483-15.25m-59.111 2.617a6 6 0 0 1 1.764-8.3l97.286-63.178a6 6 0 0 1 8.3 1.764l32.678 50.32a6 6 0 0 1-1.764 8.3l-97.286 63.178a6 6 0 0 1-8.3-1.764z"/><circle cx="115.704" cy="106.378" r="5" stroke="#000" stroke-linecap="round" stroke-linejoin="round" stroke-width="10" transform="rotate(-33 115.704 106.378)"/><circle cx="121.585" cy="78.712" r="5" stroke="#000" stroke-linecap="round" stroke-linejoin="round" stroke-width="10" transform="rotate(-33 121.585 78.712)"/></svg>