<svg width="192" height="192" fill="none" xmlns="http://www.w3.org/2000/svg"><path d="M79 74s-25-34 30-52m-43.269 88.214 15.25 23.483m-19.367-4.117 23.483-15.25m-59.111 2.617a6.004 6.004 0 0 1 .087-6.666 5.99 5.99 0 0 1 1.677-1.634l97.286-63.178a6.004 6.004 0 0 1 6.666.087 5.991 5.991 0 0 1 1.634 1.677l32.678 50.32a6.01 6.01 0 0 1 .837 4.515 6.003 6.003 0 0 1-2.601 3.785l-97.286 63.178a6.01 6.01 0 0 1-4.515.837 6.009 6.009 0 0 1-3.785-2.601l-32.678-50.32Z" stroke="#000" stroke-width="12" stroke-linecap="round" stroke-linejoin="round"/><path d="M115.704 111.378a5 5 0 1 0-.001-10.001 5 5 0 0 0 .001 10.001Zm5.881-27.666a5 5 0 1 0 0-10 5 5 0 0 0 0 10Z" stroke="#000" stroke-width="10" stroke-linecap="round" stroke-linejoin="round"/></svg>