<svg xmlns="http://www.w3.org/2000/svg" width="192" height="192" viewBox="0 0 192 192"><path d="M133.77 160.29c-2.184-1.92-3.024-3.936-3.392-8.12l-.288-3.336-8.64 5.976c-7.568 5.24-8.92 6.016-11.04 6.28-2.744.344-4.856-.456-5.848-2.208-.336-.6-.696-3.4-.832-6.48l-.24-5.44-9.96 6.928c-10.529 7.32-12.24 8.104-15.577 7.144-2.664-.76-3.36-2.376-3.632-8.352l-.232-5.32-9.096 6.336c-5.008 3.48-9.776 6.624-10.608 6.984-2.272.984-5.368.832-6.864-.344-1.776-1.4-2.224-2.784-2.544-8.016l-.288-4.576-8.864 6.144c-9.904 6.864-10.992 7.44-13.952 7.44q-4.368-.008-5.376-4.696c-.344-1.584-.504-16.944-.496-47.473 0-49.337-.024-48.641 2.728-54.113.784-1.536 2.112-3.52 2.96-4.4s7.416-5.672 14.6-10.648c13.04-9.024 13.072-9.048 15.92-9.24 1.68-.112 3.28.032 3.888.36 1.848.992 2.8 3.968 2.816 8.768 0 2.368.096 4.32.208 4.32s4.288-2.832 9.28-6.296c9.768-6.776 10.64-7.24 13.4-7.24 4.32 0 5.608 1.872 6 8.744l.288 4.864 9.568-6.672c4.92-3.024 6.905-6.512 12.6-6.848 2.512-.152 3.233-.016 4.233.768 1.64 1.296 2.296 3.84 2.296 8.88 0 2.344.096 4.264.208 4.264s4.432-2.96 9.592-6.56 9.92-6.752 10.56-7c1.56-.592 4.536-.56 5.912.064 2.096.96 2.84 3.008 2.872 7.928l.024 4.48 8.864-5.92c10.688-7.136 11.304-7.464 13.912-7.464 2.584 0 4.8 1.44 6.112 3.968.968 1.856.976 2.248 1.104 48.297.12 46 .112 46.465-.856 49.705-1.144 3.8-2.664 6.592-5.04 9.232-.936 1.04-7.952 6.048-15.6 11.144-13.792 9.184-13.92 9.256-16.432 9.256-2.192 0-2.768-.208-4.256-1.512zm19.128-11.52c7.256-4.84 13.784-9.504 14.512-10.368s1.976-2.936 2.768-4.6c3.856-15.52 1.52-33.513 1.568-49.697.088-33.265-.024-47.025-.392-47.913a3.84 3.84 0 0 0-1.824-1.784c-1.664-.696-1.472-.8-13.672 7.36l-9.688 6.488V87.65c.008 21.664-.176 40.537-.408 41.953-1.04 6.264-3.576 10.528-8.312 14l-2.864 2.096-.032 4.096c-.048 5.904 1.352 8.64 4.08 8.016.592-.136 7.016-4.2 14.264-9.04"/></svg>