<svg xmlns="http://www.w3.org/2000/svg" width="192" height="192" viewBox="0 0 192 192"><path d="M16.519 23.013a.52.52 0 0 0-.52.52v7.792c0 .287.232.52.52.52h158.96a.52.52 0 0 0 .52-.52v-7.793a.52.52 0 0 0-.52-.519zm0 17.143a.52.52 0 0 0-.52.52v7.792c0 .287.232.52.52.52h105.97a.52.52 0 0 0 .52-.52v-7.793a.52.52 0 0 0-.52-.519zm0 17.143a.52.52 0 0 0-.52.52v7.792c0 .287.232.52.52.52h105.97a.52.52 0 0 0 .52-.52v-7.793a.52.52 0 0 0-.52-.519zm0 17.143a.52.52 0 0 0-.52.52v7.792c0 .287.232.52.52.52h105.97a.52.52 0 0 0 .52-.52V74.96a.52.52 0 0 0-.52-.519zm0 17.143a.52.52 0 0 0-.52.52v7.792c0 .287.232.52.52.52h158.96a.52.52 0 0 0 .52-.52v-7.793a.52.52 0 0 0-.52-.519zm0 17.143a.52.52 0 0 0-.52.52v7.792c0 .287.232.52.52.52h75.844a.52.52 0 0 0 .52-.52v-7.793a.52.52 0 0 0-.52-.519zm0 17.143a.52.52 0 0 0-.52.52v7.792c0 .287.232.52.52.52h75.844a.52.52 0 0 0 .52-.52v-7.793a.52.52 0 0 0-.52-.519zm0 17.143a.52.52 0 0 0-.52.52v7.792c0 .287.232.52.52.52h158.96a.52.52 0 0 0 .52-.52v-7.793a.52.52 0 0 0-.52-.519zm0 17.143a.52.52 0 0 0-.52.52v7.792c0 .287.232.52.52.52h158.96a.52.52 0 0 0 .52-.52v-7.793a.52.52 0 0 0-.52-.519z"/></svg>