<svg xmlns="http://www.w3.org/2000/svg" width="192" height="192" viewBox="0 0 192 192"><path d="M96 19a77 77 0 0 0-21.869 3.17l.316 1.066c1.673 5.648 7.62 8.776 13.459 8.046a65.2 65.2 0 0 1 16.19 0c5.839.73 11.785-2.397 13.458-8.046l.315-1.065A77 77 0 0 0 96 19m-36.741 9.331a77 77 0 0 0-30.928 30.928l.976.53c5.177 2.811 11.594.818 15.206-3.828a65.2 65.2 0 0 1 11.448-11.447c4.645-3.613 6.639-10.03 3.828-15.207zm73.482 0-.53.976c-2.811 5.177-.818 11.594 3.828 15.206a65.2 65.2 0 0 1 11.448 11.448c3.612 4.645 10.029 6.639 15.206 3.828l.976-.53A77 77 0 0 0 132.74 28.33zM96 54.519a41.48 41.48 0 0 0-41.482 41.482A41.48 41.48 0 0 0 96 137.483a41.48 41.48 0 0 0 41.482-41.482A41.48 41.48 0 0 0 96 54.519M22.171 74.131a77 77 0 0 0 0 43.738l1.065-.316c5.649-1.673 8.776-7.62 8.046-13.458a65.2 65.2 0 0 1 0-16.19c.73-5.839-2.397-11.785-8.046-13.459zm147.66 0-1.065.316c-5.649 1.673-8.777 7.62-8.046 13.459a65.2 65.2 0 0 1 0 16.19c-.73 5.839 2.397 11.785 8.046 13.458l1.065.315a77 77 0 0 0 0-43.738m-134.39 56.831c-2.077-.184-4.192.195-6.134 1.25l-.976.53a77 77 0 0 0 30.928 30.927l.53-.976c2.81-5.177.818-11.594-3.828-15.206a65.2 65.2 0 0 1-11.448-11.448c-2.257-2.903-5.61-4.77-9.072-5.077m121.12 0c-3.461.306-6.814 2.173-9.072 5.077a65.2 65.2 0 0 1-11.448 11.448c-4.645 3.612-6.639 10.029-3.828 15.206l.53.976a77 77 0 0 0 30.928-30.928l-.976-.53c-1.941-1.054-4.057-1.433-6.134-1.25zm-70.84 29.66c-5.073.187-9.808 3.2-11.273 8.141l-.316 1.066a77 77 0 0 0 43.738 0l-.315-1.066c-1.673-5.648-7.62-8.776-13.458-8.045a65.2 65.2 0 0 1-16.19 0 13.6 13.6 0 0 0-2.186-.096"/></svg>