<svg xmlns="http://www.w3.org/2000/svg" width="192" height="192" viewBox="0 0 192 192"><path d="M49.355 16c-10.546 0-19.095 8.56-19.096 19.119v122.77c0 10.003 8.1 18.112 18.091 18.112h95.446V42.471H51.137c-6.275 0-11.362-4.044-11.362-9.031s5.087-9.03 11.362-9.03h102.77v125.1h7.83V16zm2.122 27.878h90.788v130.43h-20.778l-19.779-43.752c7.506-6.236 12.312-15.631 12.312-26.08 0-18.634-15.28-33.914-33.914-33.914-11.993 0-22.595 6.329-28.63 15.808zm28.63 42.767c9.944 0 17.833 7.89 17.833 17.833 0 9.944-7.89 17.831-17.833 17.831s-17.831-7.888-17.831-17.831 7.888-17.833 17.831-17.833m-28.63 35.938c6.034 9.478 16.637 15.808 28.63 15.808q1.394 0 2.76-.112l16.289 36.032H92.77l-9.227-19.834H51.478z"/></svg>