<svg width="192" height="192" fill="none" xmlns="http://www.w3.org/2000/svg"><path d="M96 46a24 24 0 0 0-48 0v2h-2a24 24 0 0 0 0 48m50 50a23.994 23.994 0 0 1-7.03 16.971 24.007 24.007 0 0 1-26.154 5.202 24.007 24.007 0 0 1-12.99-12.989A23.994 23.994 0 0 1 48 146v-2h-2a24.002 24.002 0 0 1-24-24 23.994 23.994 0 0 1 7.03-16.971A24.008 24.008 0 0 1 46 96m50-50a24 24 0 0 1 48 0v2h2a23.994 23.994 0 0 1 16.971 7.03 24.007 24.007 0 0 1 5.202 26.154 24.007 24.007 0 0 1-12.989 12.99A23.994 23.994 0 0 1 146 96" stroke="#000" stroke-width="12" stroke-linecap="round" stroke-linejoin="round"/><path d="M96 146a23.994 23.994 0 0 0 7.029 16.971A24.012 24.012 0 0 0 120 170a23.996 23.996 0 0 0 22.173-14.816A23.996 23.996 0 0 0 144 146v-2h2a23.996 23.996 0 0 0 22.173-14.816 23.996 23.996 0 0 0-12.989-31.357A23.994 23.994 0 0 0 146 96M96 46v100M46 96h100" stroke="#000" stroke-width="12" stroke-linecap="round" stroke-linejoin="round"/></svg>