<svg width="192" height="192" fill="none" xmlns="http://www.w3.org/2000/svg"><path d="M96 40s18 21 18 44-18 44-18 44-18-21-18-44 18-44 18-44Z" stroke="#000" stroke-width="12" stroke-linecap="round" stroke-linejoin="round"/><path d="M57 71s0-13 9-27c8 3 18 14 18 14m51 13s0-13-9-27c-8 3-18 14-18 14m-29.03 74C82.71 148.878 96 156 96 156s13.29-7.122 17.031-24" stroke="#000" stroke-width="12" stroke-linecap="round" stroke-linejoin="round"/><path d="M84 127s-8 12-31 12-31-12-31-12 10-12 31-12a52.9 52.9 0 0 1 5 .234M108 127s8 12 31 12 31-12 31-12-10-12-31-12c-1.742 0-3.409.083-5 .234" stroke="#000" stroke-width="12" stroke-linecap="round" stroke-linejoin="round"/><path d="M156 68a60.005 60.005 0 0 1-37.039 55.433 60.008 60.008 0 0 1-45.922 0A60.006 60.006 0 0 1 36 68" stroke="#000" stroke-width="12" stroke-linecap="round" stroke-linejoin="round"/><path d="M36 68c24 0 42 17 42 17m78-17c-24 0-42 17-42 17" stroke="#000" stroke-width="12" stroke-linecap="round" stroke-linejoin="round"/></svg>