<svg xmlns="http://www.w3.org/2000/svg" width="192" height="192" viewBox="0 0 192 192"><path d="M58.783 19a8.74 8.74 0 0 0-6.203 2.566L21.566 52.58c-3.422 3.423-3.422 8.984 0 12.406L52.58 96l-31.014 31.014c-3.422 3.423-3.422 8.984 0 12.406l31.014 31.014c3.422 3.423 8.984 3.423 12.406 0L96 139.42l31.014 31.014c3.422 3.423 8.984 3.423 12.406 0l31.014-31.014c3.422-3.422 3.422-8.983 0-12.406L139.42 96l31.014-31.014c3.422-3.422 3.422-8.983 0-12.406L139.42 21.566c-3.422-3.422-8.984-3.422-12.406 0L96 52.58 64.986 21.566A8.74 8.74 0 0 0 58.783 19m0 8.77 31.014 31.014-31.014 31.014-31.014-31.014zM96.318 68.6a8.77 8.77 0 0 1 5.88 2.59 8.772 8.772 0 0 1-12.403 12.403A8.772 8.772 0 0 1 96.318 68.6m18.617 18.635a8.77 8.77 0 0 1 5.875 2.562 8.773 8.773 0 0 1-12.406 12.406 8.772 8.772 0 0 1 6.531-14.969zm-37.547.269a8.5 8.5 0 0 1 8.498 8.5 8.5 8.5 0 0 1-8.498 8.498 8.5 8.5 0 0 1-8.5-8.498 8.5 8.5 0 0 1 8.5-8.5m55.826 14.701 31.014 31.016-31.014 31.016-31.018-31.016zm-37.219 3.908a8.5 8.5 0 0 1 8.5 8.5 8.5 8.5 0 0 1-8.5 8.5 8.5 8.5 0 0 1-8.5-8.5 8.5 8.5 0 0 1 8.5-8.5"/></svg>