<svg width="192" height="192" fill="none" xmlns="http://www.w3.org/2000/svg"><circle cx="96" cy="96" r="74" stroke="#000" stroke-width="12" stroke-linecap="round" stroke-linejoin="round"/><path d="M46.42 108C51.816 85.624 71.967 69 96 69c24.033 0 44.184 16.624 49.58 39m-99.16 0A51.13 51.13 0 0 1 45 96c0-28.166 22.834-51 51-51 28.167 0 51 22.834 51 51 0 4.133-.492 8.152-1.42 12m-99.16 0a50.647 50.647 0 0 0 4.569 12m94.591-12a50.61 50.61 0 0 1-4.569 12m0 0c-8.585 16.067-25.521 27-45.011 27-19.49 0-36.426-10.933-45.011-27m90.022 0C132.426 103.933 115.49 93 96 93c-19.49 0-36.426 10.933-45.011 27" stroke="#000" stroke-width="10" stroke-linecap="round" stroke-linejoin="round"/></svg>