<svg xmlns="http://www.w3.org/2000/svg" width="192" height="192" viewBox="0 0 192 192"><path d="M75.819 65.238v34.594a3.63 3.63 0 0 1-3.712 3.56 3.63 3.63 0 0 1-3.712-3.56V65.238H44.354v40.69c0 7.32 2.536 16.577 14.049 19.593 11.537 3.016 18.225-3.232 18.225-3.232-.608 4.112-4.56 7.12-10.93 7.776-4.816.48-10.976-1.08-14.048-2.368v21.553c7.832 2.264 16.113 3 24.217 1.456 14.713-2.8 24-14.857 24-30.89V65.237zm92.029 30.29v-6.72h7.408v-23.57h-8.136c-3.12-14.16-15.977-24.76-31.346-24.76-17.697 0-32.05 14.073-32.05 31.434v55.05c5.04.697 11.049-.08 16.161-4.24 5.312-4.32 7.72-11.408 7.72-18.08v-2.033h12.137V79.032h-12.137v-7.12h.032c0-4.408 3.64-7.984 8.137-7.984 4.504 0 8.16 3.576 8.16 7.984v23.617c0 17.361 14.37 31.442 32.066 31.442v-23.457a8.08 8.08 0 0 1-8.152-7.984M15.998 42.415h24.297v63.947c0 10.112 4.72 16.145 8.456 18.72-3.952 3.449-16.033 6.465-25.033-.855-5.304-4.32-7.72-11.41-7.72-18.081z"/></svg>