<svg xmlns="http://www.w3.org/2000/svg" width="192" height="192"><path d="M23.822 71.668a8 8 0 0 0-.938.084c-3.57.532-6.398 3.44-6.825 7.023A8.07 8.07 0 0 0 18 85.088l.16.183.014.014 4.58 5.188a38 38 0 0 1 8.036 14.633l2.685 9.303h.009c.951 3.422 4.076 5.929 7.798 5.929 3.721 0 6.842-2.51 7.798-5.923h.006l2.688-9.309A38.1 38.1 0 0 1 59.8 90.488l4.659-5.275.104-.115h-.011a8.08 8.08 0 0 0 1.964-6.172c-.343-3.382-2.837-6.221-6.143-7.029a7.97 7.97 0 0 0-4.624.24v-.008l-.445.17-7.474 2.87a18.32 18.32 0 0 1-13.108.01l-7.217-2.764c-.549-.256-1.002-.38-1.03-.4a8.3 8.3 0 0 0-2.653-.346zm111.95.023c-4.633 0-8.397 3.764-8.397 8.397v15.917c0 13.42 10.895 24.312 24.315 24.312 13.419 0 24.312-10.892 24.312-24.312V80.088c0-4.633-3.761-8.397-8.394-8.397h-31.832zm-42.356.055C80.664 72.62 70.766 83.218 70.765 96c.112 13.347 10.964 24.108 24.312 24.108s24.199-10.76 24.312-24.108c-.001-14.08-11.925-25.215-25.973-24.254"/></svg>