<svg xmlns="http://www.w3.org/2000/svg" width="192" height="192" viewBox="0 0 192 192"><path d="M68.886 16.058a1.36 1.36 0 0 0-1.04.128 1.36 1.36 0 0 0-.536 1.84l6.888 12.585C60.653 37.596 51.5 50.91 51.508 66.191l88.952-.017c0-15.273-9.12-28.546-22.658-35.555l6.897-12.593a1.36 1.36 0 0 0-.536-1.856 1.36 1.36 0 0 0-1.856.544l-6.969 12.721a47.2 47.2 0 0 0-19.346-4.064c-6.92 0-13.48 1.44-19.322 4.032L69.71 16.73a1.36 1.36 0 0 0-.816-.672zm47.364 26.538a3.76 3.76 0 0 1 3.72 3.728 3.72 3.72 0 0 1-3.72 3.737 3.73 3.73 0 0 1-3.736-3.737 3.76 3.76 0 0 1 3.736-3.728m-40.499.016a3.76 3.76 0 0 1 3.728 3.728 3.736 3.736 0 0 1-3.728 3.72 3.728 3.728 0 0 1 0-7.448m78.103 25.122c-5.457 0-9.88 4.44-9.88 9.897v41.348a9.865 9.865 0 0 0 9.88 9.873 9.873 9.873 0 0 0 9.873-9.873V77.607a9.873 9.873 0 0 0-9.873-9.881m-115.7.024c-5.457 0-9.88 4.432-9.88 9.88l.015 41.365a9.873 9.873 0 0 0 9.881 9.873 9.865 9.865 0 0 0 9.873-9.873V77.63a9.88 9.88 0 0 0-9.889-9.881m102.01 1.864-88.296.016.016 64.085a10.52 10.52 0 0 0 10.529 10.53h7.177l.016 21.89a9.873 9.873 0 1 0 19.746-.017l-.016-21.874h13.337l.016 21.874a9.88 9.88 0 0 0 19.746 0l-.016-21.874h7.2A10.56 10.56 0 0 0 140.18 133.7zM82.375 85.191a4.4 4.4 0 0 1 2.432.704c1.2.744 3.088 3.185 3.536 4.593.137.424.985 2.008 1.905 3.52.92 1.504 1.888 3.2 2.144 3.792a24 24 0 0 0 1.704 2.937c.68 1.032 1.456 2.44 1.744 3.128s.672 1.248.848 1.248c.28 0 2.528-3.312 2.528-3.728 0-.16 3.76-6.96 6.193-11.193.712-1.24 1.296-2.4 1.296-2.56 0-.705 2.56-2.217 4-2.36 2.928-.297 4.52 1.295 7.873 7.904.6 1.176 1.592 2.944 2.208 3.92a69 69 0 0 1 2.296 4.097c.648 1.272 1.376 2.56 1.624 2.864.24.288 1.169 1.888 2.049 3.56s2.016 3.656 2.528 4.4c1.432 2.113 1.656 5.017.552 7.081-.416.776-3.168 2.064-4.4 2.064-2.585 0-4.233-1.856-8.057-9.097a32 32 0 0 0-1.968-3.4 8 8 0 0 1-.936-1.6 56 56 0 0 0-1.84-3.496l-1.4-2.44-.72 1.192c-.385.656-.969 1.6-1.313 2.088a32 32 0 0 0-1.68 3.04 56 56 0 0 1-2.192 3.904 20 20 0 0 0-1.984 3.745 32 32 0 0 1-1.545 2.64c-2.136 3.36-4.84 4.264-7.72 2.616-1.072-.616-1.76-1.504-3.04-3.832-.897-1.664-2-3.6-2.433-4.28a6.4 6.4 0 0 1-.8-1.545c0-.264-1.36-2.664-3.168-5.584a4.8 4.8 0 0 1-.56-1.088c-.024-.464-1.448-2.832-1.704-2.832-.16 0-.72.92-1.264 2.048-1.248 2.56-2.937 5.472-3.537 6.096a1.84 1.84 0 0 0-.464 1.104 3.2 3.2 0 0 1-.656 1.488 56 56 0 0 0-2.584 4.36c-1.616 2.961-2.136 3.61-3.328 4.185-1.76.848-3.225.872-4.809.064a4.88 4.88 0 0 1-2.768-3.904c-.208-1.56.928-4.144 4.048-9.24a24 24 0 0 0 1.545-2.745c0-.192 2.808-5.264 4.472-8.08.288-.489 1.264-2.257 2.168-3.921 2.344-4.304 3.304-5.673 4.737-6.64a4.5 4.5 0 0 1 2.44-.817"/></svg>