<svg xmlns="http://www.w3.org/2000/svg" width="192" height="192" viewBox="0 0 192 192"><path d="M108.26 16.004c-1.196.035-2.208.335-2.997.98-2.516 2.058-9.354 8.942-8.437 20.142.356 4.356.452 13.347.54 22.67.138 14.647.29 30.11 1.505 29.63.553-14.843 3.242-24.217 5.525-32.144 2.131-7.389 3.9-13.53 3.239-21.69.916-7.32 4.2-12.687 10.753-17.173-3.98-1.335-7.497-2.491-10.128-2.415m-25.34.014c-2.534.13-5.766 1.192-9.389 2.4 6.553 4.495 9.844 9.85 10.753 17.174-.662 8.167 1.122 14.308 3.253 21.704 2.283 7.927 4.972 17.294 5.525 32.144 1.207.472 1.36-14.97 1.506-29.602.094-9.338.169-18.35.525-22.713.917-11.214-5.92-18.09-8.437-20.156-.944-.77-2.215-1.03-3.736-.952zm-14.346 4.006c-4.582.45-16.15 7.355-14.034 10.213a349 349 0 0 1 9.048 13.025C70.337 53.298 76.45 62.404 85.59 69.895c.604.487-.148-1.102-1.406-3.793-2.356-5.061-6.507-13.953-6.761-19.843-.43-9.89-4.268-26.693-8.85-26.235zm54.786 0c-4.582-.458-8.42 16.345-8.85 26.235-.261 5.89-4.404 14.796-6.76 19.858-1.259 2.676-2.01 4.287-1.407 3.778v.014c9.142-7.49 15.253-16.61 22.002-26.647 2.815-4.196 5.747-8.545 9.049-13.01 2.116-2.866-9.453-9.77-14.034-10.228M51.785 31.16s-7.997 9.568-7.4 14.645c.8 6.8 7.978 13.255 17.542 15.866 10.24 2.807 22.215 9.233 22.215 9.233C73.175 64.009 72.309 63.003 69 59.198c-1.04-1.2-2.335-2.665-4.247-4.687-7.36-7.782-12.969-23.352-12.969-23.352zm88.364 0s-5.623 15.57-12.983 23.352a135 135 0 0 0-4.233 4.687c-3.309 3.811-4.175 4.796-15.142 11.704 0 0 11.961-6.433 22.201-9.233 9.578-2.618 16.756-9.066 17.556-15.866.596-5.069-7.4-14.645-7.4-14.645zM42.523 51.23c-.899.34 3.97 32.088 24.602 32.94 10.662.444 16.192-5.325 15.639-7.769-1.258-5.6-7.854-7.187-15.454-9.02-9.36-2.254-20.24-4.879-24.531-15.78-.108-.276-.196-.393-.256-.37zm106.89 0c-.06-.022-.147.095-.256.37-4.29 10.902-15.17 13.526-24.53 15.781-7.6 1.826-14.197 3.427-15.455 9.02-.552 2.443 4.985 8.213 15.64 7.77 20.637-.853 25.5-32.6 24.601-32.94zM41.783 63.007c-1.561.457-3.374 37.382 14.503 44.956 2.829 1.2 3.494-.29 4.716-3.054 1.214-2.756 2.978-6.778 8.025-10.596 3.142-2.385 9.7-7.193 14.318-10.596v-.014c3.731-2.742 6.195-4.558 4.602-3.423-18.225 13.01-37.153 11.43-45.85-16.86-.097-.314-.209-.443-.313-.412zm108.35 0c-.104-.03-.202.099-.298.412-8.691 28.29-27.64 29.87-45.865 16.86-1.6-1.142.92.716 4.701 3.494 4.618 3.396 11.105 8.176 14.233 10.54 5.04 3.818 6.811 7.84 8.026 10.596 1.214 2.764 1.88 4.254 4.716 3.054 17.877-7.575 16.056-44.5 14.488-44.956zM87.521 94.113a9 9 0 0 0-2.145.34c-4.85 1.397-8.259 5.363-11.633 9.29-3.614 4.204-7.178 8.36-12.414 9.247l-1.35.256c-1.745.335-3.677.698-5.851.597-5.135-.255-11.636-3.15-20.312-15.454-2.567-3.637 6.364 23.429 28.764 23.764 9.149.13 13.793-4.872 18.01-9.418 3.339-3.607 6.414-6.912 11.25-7.13 3.259-.146 4.002-5.285 4.162-7.088.146 1.723.86 7.013 4.162 7.159 4.836.225 7.905 3.537 11.25 7.144 4.218 4.538 8.862 9.534 18.011 9.404 22.4-.328 31.331-27.386 28.764-23.75-8.676 12.306-15.178 15.208-20.312 15.455a24 24 0 0 1-5.852-.597 34 34 0 0 0-1.35-.256c-5.235-.887-8.8-5.057-12.413-9.26-3.375-3.928-6.783-7.894-11.633-9.29-5.506-1.579-9.957 2.726-10.582 3.366-.096-.102-3.691-3.952-8.523-3.778zm.852 18.28c.037.226 1.024 6.387-.213 19.674C86.59 149.04 94.623 176 94.623 176s10.975-27.005 9.062-44.46c-1.236-11.228-.107-16.752.213-18.294.097-.422.107-.548.015-.398-8.32 11.483-15.35-.142-15.54-.454zm17.485.03c-.46-.178-.002 1.496.71 4.047.793 2.837 1.886 6.767 2.358 10.483v.015c1.2 9.258.194 14.85-1.406 23.678l-.724 4.076c-.997 5.746 20.46-17.256 28.693-30.965.305-.516.072-.345-.583.142-2.225 1.651-9.358 6.956-16.434.767-4.13-3.614-6.028-5.586-8.21-7.855a182 182 0 0 0-4.147-4.19c-.106-.103-.19-.173-.256-.199zm-20.085.837c-.065.025-.15.096-.255.2a161 161 0 0 0-4.148 4.204l-.014-.015c-2.182 2.27-4.072 4.248-8.21 7.855-7.07 6.19-14.202.892-16.434-.767-.647-.487-.895-.65-.583-.142 8.233 13.71 29.696 36.711 28.693 30.965a325 325 0 0 0-.724-4.076c-1.593-8.822-2.599-14.435-1.406-23.693.487-3.724 1.572-7.632 2.358-10.47.712-2.557 1.184-4.235.724-4.062z"/></svg>