<svg xmlns="http://www.w3.org/2000/svg" width="192" height="192" viewBox="0 0 192 192"><path d="M95.91 16c-36.875 0-66.873 30.631-66.873 68.303 0 16.949 6.071 33.17 17.086 45.666l41.312 42.393a11.914 11.914 0 0 0 17.15-.01l41.122-42.309.18-.19c11.015-12.502 17.076-28.683 17.076-45.55 0-18.257-6.99-35.439-19.692-48.368C130.64 23.076 113.88 16 96.091 16zm.01 11.43h.16c15.246 0 29.602 6.066 40.433 17.086 10.89 11.08 16.885 25.814 16.885 41.461a58.95 58.95 0 0 1-14.64 39.035l-.148.17-35.253 36.26a10.22 10.22 0 0 1-14.703.02L53.241 125.12c-9.437-10.712-14.639-24.606-14.639-39.141 0-32.281 25.715-58.547 57.318-58.547zm.012 11.43c-26.337 0-47.764 21.89-47.764 48.791a49.26 49.26 0 0 0 12.203 32.616l29.5 30.275a8.515 8.515 0 0 0 12.268-.01l29.364-30.212.127-.137a49.13 49.13 0 0 0 12.203-32.531 48.98 48.98 0 0 0-14.067-34.554C120.74 43.915 108.772 38.86 96.07 38.86zm.01 11.43h.117a37.55 37.55 0 0 1 26.948 11.387 39.17 39.17 0 0 1 11.26 27.637 39.3 39.3 0 0 1-9.756 26.037l-.106.106-23.495 24.173a6.813 6.813 0 0 1-9.798.01L67.5 115.416c-6.297-7.138-9.767-16.41-9.767-26.101 0-21.515 17.144-39.024 38.209-39.024zm.022 11.43c-15.804 0-28.665 13.128-28.665 29.268a29.56 29.56 0 0 0 7.32 19.565l17.71 18.177a5.11 5.11 0 0 0 7.352-.01l17.627-18.126.074-.085c4.719-5.364 7.32-12.293 7.32-19.523a29.4 29.4 0 0 0-8.443-20.73c-5.413-5.51-12.59-8.538-20.21-8.538zm.01 11.43h.054a18.8 18.8 0 0 1 13.474 5.688c3.628 3.694 5.635 8.607 5.635 13.813 0 4.827-1.738 9.445-4.883 13.02l-.053.053-11.748 12.087a3.4 3.4 0 0 1-4.894.01l-11.812-12.119c-3.146-3.568-4.884-8.196-4.884-13.04 0-10.766 8.578-19.512 19.11-19.512z"/></svg>