<svg xmlns="http://www.w3.org/2000/svg" width="192" height="192" viewBox="0 0 192 192"><path d="M96 16c34.645 0 62.727 28.082 62.727 62.727 0 12.864-3.873 24.827-10.518 34.782-13.145 19.691-33.7 34.491-44.291 55.664l-1.4 2.79c-1.345 2.692-3.936 4.037-6.527 4.037s-5.173-1.345-6.518-4.036l-1.4-2.791C77.48 148 56.936 133.2 43.79 113.509c-6.646-9.955-10.519-21.918-10.519-34.782C33.272 44.082 61.354 16 96 16m0 29.082c-18.573 0-33.636 15.064-33.636 33.636S77.419 112.354 96 112.354c18.573 0 33.636-15.064 33.636-33.636S114.572 45.082 96 45.082"/></svg>