<svg xmlns="http://www.w3.org/2000/svg" width="192" height="192" viewBox="0 0 192 192"><path d="M96.011 19.006a76.7 76.7 0 0 0-37.118 9.505c-11.373 20.607-8.548 53.63 1.94 74.447-14.088-16.278-20.24-41.67-12.197-67.679a77.16 77.16 0 0 0-28.77 72.311c11.195 11.187 37.283 8.608 43.073 4.693-8.559 8.94-31.224 9.25-42.036.857.678 3.795 5.15 17.728 10.8 21.838 17.273 1.035 24.4-3.027 32.756-13.611-2.955 12.852-17.039 18.56-29.327 16.995.966 2.226 8.649 9.944 17.055 8.963 2.598-.039 15.448-6.796 15.31-17.596 3.3 6.397-1.703 16.607-10.919 19.07 5.058 3.424 14.9 3.465 23.402.933a13.9 13.9 0 0 1 4.692-.27 13.2 13.2 0 0 1-1.894 2.105l-3.4 2.872c-.813.711-7.798 5.914-10.647 8.047a1.152 1.152 0 0 0 .045 1.88 19.1 19.1 0 0 0 13.205 3.038c.429 7.917 35.77 6.91 35.99.225a19.1 19.1 0 0 0 13.19-3.008 1.152 1.152 0 0 0 .06-1.895c-2.847-2.133-9.835-7.335-10.648-8.046l-3.414-2.872c-6.123-5.575-3.386-11.448-.602-17.266 3.9-7.11 9.548-28.503-1.684-37.374-2.787 5.547-7.976 3.434-10.964 7.61-1.83 2.244-3.94 6.923-3.94 8.708v-.241c0-1.8-2.099-6.455-3.941-8.693-2.979-4.18-8.168-2.075-10.964-7.625-11.232 8.883-5.588 30.267-1.7 37.374.697 1.455 1.389 2.906 1.94 4.361-10.058-8.889-16.347-21.589-16.347-35.689 0-26.886 22.847-48.684 51.045-48.684 19.548 0 30.472 2.784 45.78 9.1-12.272-26.224-38.901-44.383-69.768-44.383zm32.787 41.51a73 73 0 0 0-3.038.015c29.316 22.938 42.034 50.56 31.989 81.26A77.1 77.1 0 0 0 168.427 69.6c-8.168-4.013-24.335-8.842-39.63-9.084zM99.967 81.963c-4.764 0-8.854 2.681-10.693 6.527 1.149 2.4 2.189 5.347 1.91 6.136l-2.918-2.421q-.03.409-.03.827c0 1.827 2.013 5.836 4.317 5.836 1.899-.066 3.832-3.76 7.414-3.76 4.05 0 6.136 3.865 8.122 3.865 1.875 0 3.624-3.448 3.624-5.94 0-.28-.024-.555-.045-.828l-2.918 2.421c-.279-.789.773-3.736 1.926-6.136-1.84-3.846-5.945-6.527-10.708-6.527z"/></svg>