<svg xmlns="http://www.w3.org/2000/svg" width="192" height="192" viewBox="0 0 192 192"><path d="M133.5 161.47q-7.544 0-11.512-4.152-3.768-4.152-5.088-10.752-1.136-6.608-.192-14.904 1.136-8.304 3.4-16.8-2.08 3.776-5.664 10-3.392 6.04-7.168 12.456t-7.36 12.08q-3.393 5.464-5.28 7.92-1.889 2.456-4.16 3.4-2.073.752-3.76.376t-2.457-1.888q-.768-1.512 0-3.96t2.264-7.552q1.504-5.088 3.016-11.696 1.696-6.6 2.832-14.152 1.128-7.736 1.32-15.28-7.168 16.792-13.96 27.545-6.8 10.568-13.4 16.608t-12.832 8.296-11.88 2.264q-5.664 0-10.568-1.696-4.904-1.888-8.488-4.904-3.4-3.208-5.28-7.36-1.704-4.336-1.136-9.24.752-8.12 4.336-12.264 3.776-4.344 8.488-6.04 4.72-1.889 9.249-1.513 4.528.192 7.168 1.136 2.456 1.128 3.4 3.017 1.128 1.888.752 3.584-.184 1.696-1.696 2.64-1.32.944-3.584 0-3.776-1.504-6.8-.376-3.016.944-4.896 3.4-1.889 2.264-2.457 5.472-.56 3.2.376 6.224 1.136 2.832 3.96 4.904 3.025 1.888 8.305 1.888 7.36 0 13.584-5.848t12.08-15.472q5.84-9.808 11.32-22.08 5.464-12.257 11.32-25.09 5.84-13.016 12.072-25.473 6.224-12.448 13.584-22.265 1.696-2.448 4.152-3.016 2.64-.752 4.528 0 2.08.752 2.64 2.832.752 1.88-1.136 4.72-1.32 1.88-3.392 6.6-1.888 4.72-4.336 11.129-2.264 6.416-4.528 14.152-2.272 7.544-3.968 15.28-1.696 7.552-2.64 14.72-.945 6.976-.56 12.448 5.28-8.113 11.12-16.6 5.856-8.68 11.703-16.8 5.849-8.297 11.32-15.84 5.473-7.737 10-13.584 4.529-6.04 7.737-10 3.392-4.153 4.904-5.473 2.264-1.888 4.904-2.264 2.64-.56 4.528.192t2.264 2.824q.376 1.888-1.888 4.912-10 14.144-17.736 27.921-7.728 13.584-13.392 25.85-5.472 12.08-8.864 22.448-3.208 10.192-4.344 17.736-.944 7.36.376 11.704 1.512 4.145 5.472 4.145 1.32 0 3.208-.56 2.08-.76 4.344-1.889 2.264-1.136 4.336-2.64 2.264-1.512 3.96-3.208 3.4-3.4 5.096-5.28 1.888-2.08 4.529-5.288 1.136-1.696 3.016-1.696 2.08-.192 3.592.752 1.696.752 2.448 2.264t-.56 3.208q-1.704 2.264-4.912 6.224-3.2 3.777-8.305 8.68-3.2 3.025-5.84 5.097-2.64 2.08-5.288 3.392-2.64 1.328-5.472 1.888-2.832.568-6.224.568"/></svg>