<svg xmlns="http://www.w3.org/2000/svg" width="192" height="192" viewBox="0 0 192 192"><path d="M95.755 19c-21.097.154-41.408 2.293-53.239 7.358 0 0-23.467 9.795-23.467 43.204 0 7.648-.154 16.793.103 26.486.855 32.673 6.416 64.875 38.807 72.865 14.929 3.696 27.753 4.466 38.07 3.936 18.72-.967 29.234-6.237 29.234-6.237l-.616-12.662s-13.38 3.918-28.412 3.448c-14.886-.48-30.602-1.497-32.998-18.548a34 34 0 0 1-.343-4.774s14.612 3.337 33.143 4.115c11.32.488 21.944-.616 32.724-1.813 20.687-2.31 38.695-14.193 40.963-25.058 3.56-17.111 3.269-41.767 3.269-41.767 0-33.4-23.46-43.196-23.46-43.196-11.831-5.065-32.15-7.195-53.256-7.358h-.514M71.86 45.093c8.795 0 15.46 3.165 19.848 9.462l4.278 6.699 4.286-6.699c4.406-6.305 11.062-9.453 19.848-9.453 7.606 0 13.723 2.49 18.411 7.357q6.784 7.28 6.776 19.694v40.441h-17.17v-39.26c0-8.264-3.739-12.474-11.207-12.474-8.256 0-12.397 4.988-12.397 14.835v21.482H87.457V75.703c0-9.864-4.132-14.843-12.405-14.843-7.46 0-11.19 4.21-11.19 12.474v39.269h-17.18V72.137q0-12.405 6.794-19.694c4.68-4.85 10.797-7.349 18.402-7.349"/></svg>