<svg width="192" height="192" fill="none" xmlns="http://www.w3.org/2000/svg"><path d="M71.573 68.45C69.685 79.41 62.077 87.2 54.58 85.847c-7.495-1.353-12.04-11.335-10.153-22.297 1.889-10.96 9.496-18.75 16.993-17.397 7.496 1.353 12.042 11.335 10.154 22.297Zm69.612 7.726c2.497 9.487-.935 18.666-7.664 20.502-6.73 1.836-14.209-4.367-16.706-13.854-2.497-9.487.935-18.666 7.664-20.502 6.73-1.836 14.209 4.367 16.706 13.854Z" stroke="#000" stroke-width="12" stroke-linecap="round" stroke-linejoin="round"/><path d="M22 146s11-56 36-59 48 55 48 55 11-43 31-46 33 33 33 33" stroke="#000" stroke-width="12" stroke-linecap="round" stroke-linejoin="round"/></svg>