<svg xmlns="http://www.w3.org/2000/svg" width="192" height="192"><path d="M37.187 75.743c-3.963 0-6.627 1.295-8.267 2.662a8.9 8.9 0 0 0-2.326 2.666v-4.03H16v37.91h11.35v-20.15c0-1.162-.013-3.216.818-5.059.83-1.84 2.394-3.343 5.606-3.343 2.867 0 4.245 1.436 4.984 3.212.684 1.706.684 3.687.684 4.712v20.629h11.345V94.256c0-1.094 0-3.01.819-4.715.753-1.708 2.327-3.141 5.47-3.141 2.937 0 4.375 1.297 5.06 3.073.75 1.71.748 3.745.748 5.329v20.15h11.349V94.256c0-8.401-.548-10.931-4.102-14.688-3.083-3.21-7.315-3.826-9.98-3.826-3.964 0-7.036 1.436-9.293 3.485a15.6 15.6 0 0 0-2.737 3.28 12.8 12.8 0 0 0-2.25-3.145c-2.814-2.935-6.087-3.62-8.683-3.62zm62.049 0c-10.114 0-19.068 7.788-19.078 20.225 0 10.864 7.04 20.289 19.07 20.289 4.441 0 9.157-1.7 11.206-5.396v4.09h11.353l-.008-37.91h-11.345v4.03c-1.49-2.323-4.98-5.328-11.198-5.328m29.612 1.298 14.885 17.638-15.866 20.272h15.15l8.916-11.538 8.865 11.471.047.068H176l-15.87-20.273 14.885-17.638h-15.483l-7.599 9.782-7.551-9.715-.047-.067zm-27.967 9.291c4.776 0 7.376 2.663 8.608 5.254a9.7 9.7 0 0 1 .945 4.988 10.4 10.4 0 0 1-1.562 4.873c-1.434 2.315-3.895 4.225-7.928 4.225-6.835 0-9.43-6.022-9.43-9.506l.008-.067c0-4.304 2.868-9.766 9.36-9.766z"/></svg>