<svg xmlns="http://www.w3.org/2000/svg" width="192" height="192" viewBox="0 0 192 192"><path d="M107.51 126.78a6.657 6.657 0 1 1-13.24 1.408l-5.464-50.207-19.328 49.095c-.821 2.054-2.93 4.186-5.992 4.28h-.48c-3.42-.105-5.134-2.46-5.943-4.24l-19.36-49.151-5.456 50.215a6.657 6.657 0 1 1-13.24-1.408l6.432-59.199v-.04a11 11 0 0 1 .432-2.048 11.12 11.12 0 0 1 9.08-7.68c.125-.009.25-.026.376-.04.568-.074 1.14-.053 1.712-.048a11 11 0 0 1 2.008.264 10.96 10.96 0 0 1 7.735 6.696L63.254 106.5l16.472-41.823a10.96 10.96 0 0 1 7.736-6.696c.67-.17 1.356-.213 2.04-.264.847-.04 1.404.018 2.04.088h.016a11.12 11.12 0 0 1 9.08 7.68q.312 1.004.432 2.048v.04zm28.927-37.055h10.536v-.112a10.08 10.08 0 0 0 8.504-9.904 10.056 10.056 0 0 0-10.024-10.024h-21.208v52.4h26.91c5.707-.027 10.327-4.646 10.353-10.353-.03-5.703-4.649-10.318-10.352-10.344h-4.176v-.024h-10.536a5.84 5.84 0 0 1-5.816-5.816 5.84 5.84 0 0 1 5.816-5.824zm24.768 5.144a20.16 20.16 0 0 1 11.936 18.048c-.43 11.492-10.04 20.492-21.536 20.168H118.43a5.49 5.49 0 0 1-5.64-5.28V64.646a5.56 5.56 0 0 1 5.536-5.536h27.647c11.665.026 21.116 9.471 21.152 21.136a21.04 21.04 0 0 1-5.92 14.616zm-112.35-75.68h101.9c7.392.232 13.209 6.391 13.016 13.785v6.584a6.336 6.336 0 1 1-12.608.064v-3.6a4.16 4.16 0 0 0-4.16-4.16H44.913a4.16 4.16 0 0 0-4.16 4.16v3.52c.537 3.621-2.233 6.889-5.893 6.952-3.66.064-6.542-3.107-6.13-6.744v-6.784c-.193-7.393 5.623-13.553 13.016-13.784zm46.719 153.64h66.095c15.088 0 15.24-16.047 13.704-23.96-1.695-5.293-9.185-5.293-10.88 0v6.177a5.15 5.15 0 0 1-5.136 5.136H32.647a5.15 5.15 0 0 1-5.128-5.136v-6.176c-1.695-5.294-9.185-5.294-10.88 0-1.544 7.92-1.392 23.96 13.696 23.96z"/></svg>