<svg xmlns="http://www.w3.org/2000/svg" width="192" height="192" viewBox="0 0 192 192"><path d="M93.321 16v10.612h3.316V16zm-8.428 69.507-46.1 10.512 46.046 10.497 9.38 51.568 9.376-51.568 46.041-10.497-46.09-10.512zM16 93.36v2.072h10.593V93.36zm149.4 0v2.072H176V93.36zm-61.854 13.08v.027h-.031zM93.32 165.392V176h3.316v-10.608z"/><path fill-opacity=".75" d="m94.217 33.956 9.385 51.619h-18.77z"/><path d="m134.34 24.505-5.296 9.177 1.792 1.036 5.3-9.177zm-78.668.614-1.796 1.036 5.296 9.177 1.797-1.036zm108.72 28.233-9.177 5.297 1.037 1.796 9.176-5.3zm-138.33 1.063-1.036 1.796 9.176 5.297 1.037-1.793zm8.943 73.64-9.177 5.297 1.036 1.792 9.177-5.296zm120.45 1.063-1.037 1.796 9.18 5.297 1.037-1.796zm-95.817 24.775-5.297 9.173 1.796 1.036 5.297-9.172zm70.735.614-1.793 1.037 5.297 9.173 1.796-1.033z" opacity=".5"/><path d="m114.73 16.622-.99 3.688 2.003.542.987-3.696zm-39.777.319-2.003.533.986 3.692 2.003-.537zm76.388 19.83-3.005 3.002 1.458 1.458 3.005-3.005zm-112.68.872-1.462 1.462 2.698 2.702 1.466-1.466zm134.31 34.884-3.688.99.54 2 3.69-.987zm-155.39 1.19-.533 1.995 3.688.994.537-2.003zm4.537 39.232-3.689.986.534 2.003 3.688-.986zm146.33 1.19-.534 1.999 3.689.99.533-2.003zm-127.53 33.075-2.698 2.702 1.454 1.459 2.698-2.698zm108.18.864-1.466 1.462 2.698 2.702 1.47-1.466zM74.31 167.483l-.99 3.688 2.003.534.986-3.689zm41.067.315-2.004.537.987 3.688 2.003-.537z" opacity=".3"/></svg>