<svg xmlns="http://www.w3.org/2000/svg" width="192" height="192" viewBox="0 0 192 192"><path d="M111.55 19.154a32.3 32.3 0 0 0-6.799.054c-6.607.747-12.967 4.697-21.29 12.112a38.499 38.499 0 0 0-51.859 52.69c-7.7 8.862-11.781 15.492-12.451 22.345a32.73 32.73 0 0 0 4.335 19.673c5.829 9.964 20.128 15.354 48.71 26.095 44.513 16.74 66.766 25.102 80.595 18.749A36.65 36.65 0 0 0 171.04 152.3c6.13-13.96-2.549-36.174-19.889-80.58-11.142-28.512-16.701-42.764-26.711-48.47a32.3 32.3 0 0 0-12.89-4.104zM74.467 44.025a23.16 23.16 0 0 1 9.548 7.777 23.1 23.1 0 1 1-9.548-7.762z"/></svg>