<svg xmlns="http://www.w3.org/2000/svg" width="192" height="192" viewBox="0 0 192 192"><path d="M20.637 93.01c-.411-1.163-5.759-1.081-4.424-3.603s15.399-22.155 22.29-22.158c6.89-.003 15.3 23.072 21.16 23.836 5.86.765 14.56-19.12 23.405-18.502s7.687 13.15 10.412 21.134c2.725 7.983 18.112-22.593 27.44-21.828 9.327.765 19.348 24.874 31.592 28.527s21.364-5.005 23.218-1.965-6.15 9.666-14.814 15.815-17.008 12.713-25.984 8.58-21.22-21.552-27.164-26.547c-5.943-4.995-22.453 26.883-32.207 28.382s-6.803-21.67-9.803-27.074c-3-5.405-18.667 33.567-26.063 23.028-7.397-10.539-12.367-26.451-19.058-27.625"/></svg>