<svg width="192" height="192" fill="none" xmlns="http://www.w3.org/2000/svg"><path d="m139.128 139.128 24.192-24.192a22.804 22.804 0 0 0 4.944-24.856A22.803 22.803 0 0 0 147.192 76a22.816 22.816 0 0 0-16.128 6.68l-24.192 24.192m32.256 32.256-24.192 24.192a22.804 22.804 0 0 1-24.856 4.944A22.803 22.803 0 0 1 76 147.192a22.814 22.814 0 0 1 6.68-16.128l24.192-24.192m32.256 32.256-32.256-32.256" stroke="#000" stroke-width="12" stroke-linecap="round" stroke-linejoin="round"/><circle cx="62" cy="62" r="40" stroke="#000" stroke-width="12" stroke-linecap="round" stroke-linejoin="round"/><path d="M62 48v14l-9 12" stroke="#000" stroke-width="12" stroke-linecap="round" stroke-linejoin="round"/></svg>