<svg xmlns="http://www.w3.org/2000/svg" width="192" height="192" viewBox="0 0 192 192"><path d="M95.977 155.93c-7.15 0-13.172-6.02-13.172-13.172v-60.3c.07-11.165-9.227-20.185-20.231-20-11.003-.185-20.277 8.858-20.231 20v60.3c0 7.266-5.905 13.172-13.172 13.172-7.082 0-13.172-6.113-13.172-13.172V82.666c0-12.872 5.213-24.521 13.656-32.941 8.443-8.443 20.069-13.656 32.918-13.656 13.103 0 24.96 5.42 33.426 14.14a46.4 46.4 0 0 1 33.425-14.14c12.872 0 24.499 5.214 32.918 13.656 8.443 8.443 13.656 20.092 13.656 32.941v60.092c0 7.059-6.09 13.172-13.172 13.172-7.266 0-13.172-5.905-13.172-13.172v-60.3c.07-11.165-9.227-20.185-20.231-20-11.003-.185-20.276 8.858-20.231 20v60.3c-.046 7.151-6.067 13.172-13.218 13.172z"/></svg>