<svg xmlns="http://www.w3.org/2000/svg" width="192" height="192" viewBox="0 0 192 192"><path d="M96 19c-42.527 0-77 34.473-77 77s34.473 77 77 77 77-34.473 77-77-34.473-77-77-77m39.978 104.24a2.387 2.387 0 0 1-2.387 2.38h-10.064a2.387 2.387 0 0 1-2.387-2.388V92.247c0-.254-.293-.385-.516-.208l-21.298 21.306a4.774 4.774 0 0 1-6.699 0L71.321 92.04c-.17-.177-.516-.046-.516.208v30.985a2.387 2.387 0 0 1-2.38 2.387h-10.07a2.387 2.387 0 0 1-2.387-2.387V68.77a2.387 2.387 0 0 1 2.387-2.387h6.907a4.77 4.77 0 0 1 3.372 1.417L95.13 94.296a1.155 1.155 0 0 0 1.671 0L123.303 67.8a4.77 4.77 0 0 1 3.365-1.417h6.9a2.387 2.387 0 0 1 2.386 2.387l.016 54.462z"/></svg>