<svg xmlns="http://www.w3.org/2000/svg" width="192" height="192" viewBox="0 0 192 192"><path d="M108.13 62.602c-7.662 0-12.014 3.76-11.816 10.16h7.445c0-2.718 1.418-3.938 4.392-3.938 2.128 0 3.465.887 3.465 2.226 0 .866-.334 1.203-1.635 1.577l-5.907 1.635c-5.75 1.554-8.312 3.937-8.312 7.875 0 4.667 3.385 7.778 8.368 7.778a7.565 7.565 0 0 0 7.68-4.49v3.938h6.875V71.977c-.099-6.283-4.075-9.375-10.555-9.375m-44.729.038c-7.7 0-13.055 5.614-13.055 13.63 0 8.015 5.28 13.784 12.979 13.784 7.148 0 11.957-4.136 12.094-10.202h-7.031a4.49 4.49 0 0 1-4.966 3.625v-.003a5.65 5.65 0 0 1-5.906-5.906h17.723s.121-1.338.121-2.716c0-7.875-4.67-12.212-11.959-12.212m-43.268.59-4.136 26.052h6.598l2.5-16.205 4.864 16.205h5.653l5.042-16.5 2.406 16.5h6.695L45.64 63.23h-7.82L32.877 79.2l-4.809-15.97zm58.14 0v26.052h7.188V69.89h9.493v-6.66zm-14.806 5.407a4.47 4.47 0 0 1 5.017 3.93H57.908a5.534 5.534 0 0 1 5.56-3.93zm48.209 8.694v.473a5.91 5.91 0 0 1-6.104 6.045c-1.831 0-2.719-.885-2.719-2.184 0-1.298.63-1.97 2.597-2.58zM63.877 95.606c-7.662 0-12.036 3.764-11.819 10.163h7.448c0-2.72 1.415-3.94 4.389-3.94 2.128 0 3.469.907 3.469 2.246 0 .846-.334 1.182-1.653 1.555l-5.91 1.636c-5.732 1.575-8.292 3.937-8.292 7.875 0 4.647 3.385 7.778 8.368 7.778a7.45 7.45 0 0 0 7.663-4.507v3.938h6.893v-17.448c-.098-6.203-4.076-9.296-10.555-9.296zm28.024 0a7.05 7.05 0 0 0-7.031 4.532v-3.941h-7.188v33.202h7.188V118.45a7.07 7.07 0 0 0 7.031 4.43c5.908 0 9.847-4.61 9.847-13.629s-3.879-13.646-9.847-13.646zm48.369.039c-7.7 0-13.055 5.613-13.055 13.608 0 7.996 5.28 13.785 12.979 13.785 7.15 0 11.955-4.136 12.111-10.202h-7.052a4.49 4.49 0 0 1-4.962 3.646 5.67 5.67 0 0 1-5.906-5.91h17.723s.121-1.338.121-2.716c0-7.875-4.652-12.212-11.959-12.212zm-120.14.59-4.135 26.056h6.597l2.5-16.208 4.864 16.208h5.653l5.042-16.503 2.406 16.503h6.695l-4.115-26.056h-7.82l-4.944 15.95-4.805-15.95zm84.353 0v26.056h7.188v-9.987h2.816l6.007 9.987h8.114l-7.937-13.292 7.364-12.764h-7.917l-5.59 9.67h-2.857v-9.67zm49.431 0v6.656h7.448v19.396h7.188v-19.396h7.444v-6.656zm-12.608 5.378a4.51 4.51 0 0 1 4.062 3.959H134.77a5.51 5.51 0 0 1 5.594-3.938 4.5 4.5 0 0 1 .941-.02zm-51.418.65c3.25 0 4.865 2.264 4.865 6.99 0 4.717-1.65 6.96-4.848 6.968-3.275-.01-5.236-2.25-5.236-6.965 0-4.73 1.97-6.993 5.219-6.993m-22.493 8.111v.434a5.91 5.91 0 0 1-6.122 6.045v.003c-1.792 0-2.701-.887-2.701-2.205 0-1.32.654-1.973 2.622-2.524z"/></svg>