<svg width="192" height="192" fill="none" xmlns="http://www.w3.org/2000/svg"><path d="M41.5 32.288c9.661-10.349 25.888-13.982 39.749-5.795l71.026 41.95c8.842 5.222 13.955 13.64 15.339 22.557M43.307 161.5c9.791 8.954 24.912 11.703 37.942 4.007l16.251-9.598" stroke="#000" stroke-width="12" stroke-linecap="round" stroke-linejoin="round"/><path d="M32 86V50l18 36 18-36v36m36 0H94a6 6 0 0 1-6-6V68m16-18H94a6 6 0 0 0-6 6v12m0 0h14m-14 50v12m-24-12v12m-32-24v30a6 6 0 0 0 6 6h10m16-24a12 12 0 0 1 24 0m0 12a11.998 11.998 0 0 1-12 12 11.998 11.998 0 0 1-12-12m44-24v30a6 6 0 0 0 6 6h10m16.117-10.331A11.879 11.879 0 0 1 140 130v-12a12 12 0 0 1 23.435-3.638" stroke="#000" stroke-width="10" stroke-linecap="round" stroke-linejoin="round"/></svg>