<svg width="192" height="192" fill="none" xmlns="http://www.w3.org/2000/svg"><path d="M43 31a6 6 0 0 1 6-6h94a6 6 0 0 1 6 6v6a6 6 0 0 0 6 6h6a6 6 0 0 1 6 6v94a6 6 0 0 1-6 6h-6a6 6 0 0 0-6 6v6a6 6 0 0 1-6 6H49a6 6 0 0 1-6-6v-6a6 6 0 0 0-6-6h-6a6 6 0 0 1-6-6V49a6 6 0 0 1 6-6h6a6 6 0 0 0 6-6v-6Zm93 88H56" stroke="#000" stroke-width="12" stroke-linecap="round" stroke-linejoin="round"/><path d="M55 83h8v8h-8v-8Zm74 0h8v8h-8v-8Z" stroke="#000" stroke-width="8" stroke-linecap="round" stroke-linejoin="round"/></svg>