<svg width="192" height="192" fill="none" xmlns="http://www.w3.org/2000/svg"><path d="m63 87 24-24m-32 74 82-82" stroke="#000" stroke-width="12" stroke-linecap="round" stroke-linejoin="round"/><path d="m94 136 4-4 4 4-4 4-4-4Zm38-38 4-4 4 4-4 4-4-4Z" stroke="#000" stroke-width="8" stroke-linejoin="round"/><path d="M167.217 107.217a23.995 23.995 0 0 0-4.246-28.188l-50-50a24.002 24.002 0 0 0-33.942 0l-50 50a24 24 0 0 0 0 33.942l50 50a24.003 24.003 0 0 0 28.188 4.246" stroke="#000" stroke-width="12" stroke-linecap="round" stroke-linejoin="round"/><path d="M125 157.999V122l28 35.999V122" stroke="#000" stroke-width="10" stroke-miterlimit="6" stroke-linecap="round" stroke-linejoin="round"/></svg>