<svg xmlns="http://www.w3.org/2000/svg" width="192" height="192" viewBox="0 0 192 192"><path d="M77.999 107.34q3.296 0 4.928 1.44 1.648 1.424 1.648 4.072 0 1.192-.336 2.28-.344 1.072-1.12 1.944-.752.848-2.016 1.36-1.264.48-3.104.48h-1.312v5.76h-4.688V107.34zm-.104 3.784h-1.208v3.984h.912q.92 0 1.6-.464.68-.48.68-1.672 0-.824-.48-1.336-.488-.512-1.512-.512zm15.128-3.784q7.064 0 7.064 5.12 0 1.584-.8 2.744-.776 1.144-2.136 1.92l5.048 7.552h-5.312l-3.672-6.32h-1.184v6.32h-4.688V107.34zm-.072 3.544h-.92v3.96h.872q1.072 0 1.752-.464.704-.48.704-1.696 0-.856-.56-1.312-.56-.48-1.84-.48zm27.048 5.096q0 2.696-.88 4.72-.848 1.984-2.72 3.104-1.84 1.12-4.824 1.12-2.912 0-4.784-1.12t-2.768-3.136q-.88-2.016-.88-4.712t.904-4.68q.896-2.016 2.768-3.112 1.872-1.088 4.784-1.088 2.96 0 4.8 1.12 1.872 1.088 2.72 3.104.88 1.992.88 4.68m-11.92 0q0 2.36.8 3.696.824 1.336 2.696 1.336 1.944 0 2.72-1.336t.776-3.696-.776-3.712-2.696-1.36-2.72 1.36-.8 3.712M97.703 67.077a14.4 14.4 0 0 0-5.24.88c-2.32.88-4.96 3.264-5.936 5.36-.744 1.592-.768 1.912-.768 10.216 0 5.52.336 8.624.56 9.04.192.367.608 1.055 1.176 1.303a4.96 4.96 0 0 0 4.12-.008c1.92-.992 1.96-1.216 1.96-9.68v-6.543c0-.64.16-1.704.632-2.16l.08-.064c1.568-1.632 4.944-2 6.448-.08.632.8.664 1.28.664 8.312 0 8.456.16 9.263 2.048 10.16a4.8 4.8 0 0 0 2.032.512 4.8 4.8 0 0 0 2.024-.52c1.888-.888 2.048-1.696 2.048-10.16 0-7.04.04-7.504.672-8.32 1.496-1.904 4.872-1.536 6.448.096l.08.072c.456.448.624 1.504.624 2.16v6.544c0 8.456.048 8.68 1.96 9.671a4.96 4.96 0 0 0 4.128 0c.56-.24.976-.928 1.168-1.288.224-.424.56-3.52.56-9.04 0-8.32-.024-8.64-.76-10.215-.984-2.104-3.632-4.488-5.936-5.36a14.4 14.4 0 0 0-5.248-.888c-2.288.024-4.56.576-6.448 1.624l-1.32.736-1.328-.736c-1.888-1.04-4.16-1.6-6.448-1.624m-69.759 0a14.4 14.4 0 0 0-5.24.88c-2.32.88-4.96 3.264-5.936 5.36-.736 1.592-.76 1.912-.768 10.216 0 5.52.336 8.624.56 9.04.2.367.608 1.055 1.176 1.303 1.36.592 2.96.592 4.128-.008 1.92-.991 1.96-1.216 1.96-9.68v-6.543c0-.64.16-1.704.624-2.16l.08-.064c1.576-1.632 4.944-2 6.448-.08.632.8.672 1.28.672 8.312 0 8.456.16 9.263 2.048 10.16a4.8 4.8 0 0 0 2.024.512 4.8 4.8 0 0 0 2.032-.52c1.88-.888 2.04-1.696 2.04-10.16 0-7.04.04-7.504.672-8.32 1.504-1.904 4.88-1.536 6.456.096l.08.072c.456.448.616 1.504.616 2.16v6.544c0 8.456.048 8.68 1.96 9.671a4.96 4.96 0 0 0 4.128 0c.56-.24.976-.927 1.176-1.288.224-.424.56-3.52.56-9.04 0-8.32-.032-8.64-.768-10.215-.976-2.104-3.624-4.488-5.936-5.36a14.4 14.4 0 0 0-5.24-.888c-2.296.024-4.56.576-6.448 1.624l-1.328.736-1.328-.736c-1.888-1.04-4.16-1.6-6.44-1.624zm112.74.264q-.72 0-1.416.056a12 12 0 0 0-6.624 2.576c-5.264 3.896-6.936 11.2-3.976 17.392 1.648 3.44 4.872 5.92 8.92 6.848 4.936 1.12 12.224-.608 14.912-3.544 2.016-2.216.544-5.776-2.384-5.76-.416 0-2 .584-3.528 1.296-3.24 1.52-5.72 1.728-8.016.68-1.264-.576-2.744-2.16-2.744-2.928 0-.256 2.512-.208 8.32-.36l7.496-.192a3.2 3.2 0 0 0 1.68-.648c.584-.528.832-.992.696-3.344-.408-6.8-6.328-12.032-13.336-12.08zm.192 6.696c1.656.048 3.28.856 4.2 2.448.376.656.616 1.264.528 1.352-.168.16-10.104.448-10.104.288 0-.056.296-.664.64-1.36a5.12 5.12 0 0 1 4.736-2.72zM70.717 67.34a16 16 0 0 0-1.408.056 12 12 0 0 0-6.624 2.576c-5.264 3.896-6.936 11.2-3.976 17.392 1.648 3.44 4.88 5.92 8.92 6.848 4.936 1.12 12.224-.608 14.912-3.544 2.016-2.216.544-5.776-2.384-5.76-.416 0-2 .584-3.528 1.296-3.24 1.52-5.72 1.728-8.016.68-1.264-.576-2.744-2.16-2.744-2.936 0-.24 2.512-.2 8.32-.352l7.496-.192a3.2 3.2 0 0 0 1.68-.648c.584-.528.832-.992.696-3.344-.4-6.8-6.328-12.032-13.336-12.08zm.2 6.696c1.656.048 3.28.856 4.2 2.448.376.656.616 1.264.528 1.352-.168.16-10.096.448-10.096.288 0-.056.288-.664.64-1.36a5.12 5.12 0 0 1 4.72-2.72zm95.518-6.688c-4.856-.096-8.72 2.44-9.6 6.528a7.36 7.36 0 0 0 .664 5.2c1.024 2.048 1.976 2.664 8.08 5.28 2.792 1.191 3.416 1.863 2.544 2.735-.88.88-2.976.688-5.28-.48a18.4 18.4 0 0 0-3.096-1.215c-1.696-.4-2.784.96-2.8.96-.8.96-1.12 1.303-1.096 2.32 0 .703.184 1.591.4 1.983.824 1.456 3.144 2.8 6.024 3.512 6.872 1.664 12.88-1.448 13.648-7.072.56-4.135-2-6.943-8.56-9.343-2.56-.936-3.52-1.768-3.04-2.648.576-1.088 1.696-1.088 4.376-.016 3.656 1.464 5.2 1.312 6.2-.616 1.632-3.152-.984-6-6.336-6.92a16 16 0 0 0-2.136-.208z"/></svg>