<svg xmlns="http://www.w3.org/2000/svg" width="192" height="192" viewBox="0 0 192 192"><path d="M96 42.652c-43.36 0-78.536 22.52-78.536 50.24 0 27.712 35.176 52.432 78.536 52.432s78.536-24.64 78.536-52.432S139.36 42.652 96 42.652m3.072 17.04c7.752-.144 15.648 3.584 15.72 3.584 14.624 7.088 30.496 4.016 42.704-1.096 8.776 7.088 14.48 16.08 16.016 25.592-17.768 3.872-31.808 9.576-34.736 10.896-3.728-3.144-24.864-21.648-30.128-25.6-2.848-2.04-4.608-3.064-6.064-3.504-1.392-.44-3.44-.88-6.656.144-3 .952-6 3.36-9.072 5.776-2.848 2.272-5.704 4.536-7.968 5.04-3.8.808-7.528-.064-8.776-1.6-.512-.656.224-1.464.296-1.536l6.8-7.096c5.264-5.336 10.312-10.312 21.864-10.6M35.96 60.716c8.048 3.8 15.064 5.408 21.208 7.088 1.024.296 6.36 1.176 7.384 1.176 2.416 0 4.76-.664 7.24-1.32 1.976-.512 4.024-1.096 6.216-1.392q-1.2 1.12-2.408 2.344l-6.8 7.384c-.224.224-1.536 1.536-.808 3.216a4.5 4.5 0 0 0 1.608 1.76c1.976 1.312 6.216 2.264 9.728 1.464 2.704-.592 5.632-2.928 8.776-5.416 2.992-2.336 6.36-4.608 8.992-5.336.952-.216 2.344-.44 3.288-.296 1.904.224 3.736.88 6.952 3.296 5.632 4.16 30.272 25.736 30.488 25.96 0 0 1.76 1.456 1.68 3.728a4.32 4.32 0 0 1-2.192 3.512c-3.576 2.336-6.504.216-6.648.144 0 0-8.48-7.752-11.632-10.384-.44-.368-1.096-.88-1.384-.512-.368.44.656 1.312.656 1.312l9.872 9.872s1.392 1.248 1.536 3c.072 1.32-.368 3.072-2.56 4.536-3.656 2.344-6.36.656-6.952.216-3.144-3.072-6.36-6.288-8.624-8.184-.512-.368-1.168-.88-1.464-.512-.368.36.656 1.312.656 1.312l7.24 8.12s1.76 2.048.144 4.096c-.336.344-.68.744-1.016 1.024a6.4 6.4 0 0 1-4.904 1.168c-1.464-.296-1.68-.736-1.76-.8 0 0-3.8-3.952-6.944-6.584-.44-.368-1.024-.88-1.384-.512-.368.36.656 1.312.656 1.312l6.144 6.88c.216.288 0 .656-.224.944-.288.44-1.168 1.248-3.504 1.536-2.928.368-6.216-1.312-7.536-2.048a8.72 8.72 0 0 0-7.68-12.8c-.288 0-.584.08-.88.08.368-3-.288-6.952-4.312-8.704a9.6 9.6 0 0 0-3.656-.8 7.2 7.2 0 0 0-3.072.648 7.2 7.2 0 0 0-4.384-3.944 12 12 0 0 0-3.144-.512c-2.192 0-3.952.8-5.2 1.824a7.36 7.36 0 0 0-5.92-3.072 7.36 7.36 0 0 0-5.408 2.416c-1.24-1.024-8.04-6-29.912-10.896-.944-.216-4.6-1.024-5.992-1.392 1.904-9.944 8.192-18.792 17.84-25.96zm23.696 37.88a5.36 5.36 0 0 1 5.264 4.68c.736-1.176 3.728-4.392 8.336-3 3.216 1.024 3.728 3.952 3.808 5.04 0 .296.072.296.288.08.736-.8 3.072-2.64 6.8-1.024 4.824 2.12 2.856 8.112 2.704 8.48s-.36.952-.216 1.024c.216.144 1.904-.728 3.44-.728 3.728.072 6.72 3.072 6.8 6.72a6.72 6.72 0 0 1-6.728 6.728 6.75 6.75 0 0 1-6.728-6.432c-.08-.656-.144-.728-.656-.288-1.104 1.024-2.784 2.192-5.632 1.016-3.736-1.528-4.024-4.16-3.808-5.408.08-.368 0-.512-.432-.216-1.464 1.024-3.152 1.6-5.2.8-5.04-1.976-4.6-6.8-4.384-8.112.08-.08 0-.152 0-.152a5.6 5.6 0 0 1-3.728 1.464 5.32 5.32 0 0 1-5.336-5.336 5.44 5.44 0 0 1 5.408-5.336" opacity=".5"/><path d="M96 40.604c-44.168 0-80 23.472-80 52.36v3.072c0 30.56 31.296 55.36 80 55.36s80-24.8 80-55.36v-3.072c0-28.88-35.832-52.36-80-52.36m76.344 46.512c-17.4 3.872-30.344 9.504-33.64 10.888-7.6-6.648-25.152-21.864-29.904-25.44-2.712-2.048-4.536-3.152-6.216-3.584a10.4 10.4 0 0 0-3.072-.44c-1.248 0-2.488.216-3.88.656-3.072.952-6.144 3.44-9.064 5.776v.08c-2.784 2.184-5.632 4.456-7.76 4.96a12.8 12.8 0 0 1-2.848.296c-2.408 0-4.608-.728-5.408-1.752-.144-.144-.08-.44.288-.88l.08-.072 6.648-7.16c5.272-5.272 10.168-10.168 21.576-10.464h.584c7.096 0 14.184 3.144 14.92 3.52 6.656 3.208 13.456 4.896 20.4 4.896 7.168 0 14.552-1.76 22.304-5.344 7.968 6.88 13.384 15.136 14.992 24.064M96 43.676c23.472 0 44.464 6.72 58.576 17.328-6.8 2.928-13.312 4.464-19.6 4.464a42.9 42.9 0 0 1-19.088-4.608c-.288-.144-8.112-3.872-16.304-3.872h-.656c-9.584.216-14.92 3.576-18.576 6.576-3.512.08-6.584.96-9.288 1.68-2.416.664-4.464 1.248-6.504 1.248-.808 0-2.344-.08-2.488-.08-2.344-.064-14.04-2.92-23.4-6.432C52.856 49.964 73.256 43.676 96 43.676M36.04 62.028c9.72 4.024 21.568 7.096 25.368 7.312 1.024.08 2.12.224 3.296.224 2.48 0 4.968-.736 7.384-1.392 1.392-.368 3-.8 4.608-1.168l-1.32 1.312-6.8 7.312c-.512.512-1.68 1.976-.952 3.736a4.8 4.8 0 0 0 1.76 1.968c1.6 1.096 4.528 1.832 7.168 1.832q1.536.016 2.848-.296c2.856-.656 5.848-3 8.992-5.552 2.488-1.976 6.072-4.536 8.848-5.272.8-.216 1.68-.36 2.488-.36.224 0 .44 0 .656.072 1.832.216 3.584.88 6.656 3.216 5.56 4.16 30.2 25.744 30.424 25.96 0 0 1.6 1.392 1.464 3.656a4 4 0 0 1-1.976 3.144 6 6 0 0 1-3.216 1.024c-1.68 0-2.784-.8-2.856-.8-.072-.08-8.56-7.832-11.624-10.464-.512-.44-.96-.8-1.464-.8a.96.96 0 0 0-.656.288c-.512.592.072 1.464.728 1.976l9.872 9.944s1.24 1.176 1.392 2.712c.072 1.6-.736 2.992-2.344 4.088a6.1 6.1 0 0 1-3.512 1.176 4.4 4.4 0 0 1-2.776-.88l-1.392-1.392c-2.56-2.56-5.264-5.192-7.232-6.8-.512-.36-.96-.728-1.464-.728a.88.88 0 0 0-.664.288c-.216.224-.36.664.152 1.464a8 8 0 0 0 .512.584l7.168 8.12c.072.072 1.456 1.76.144 3.44l-.296.288-.656.664a5.6 5.6 0 0 1-3.512 1.096c-.368 0-.656 0-.952-.08-.728-.144-1.168-.288-1.384-.576l-.08-.08a96 96 0 0 0-7.016-6.576c-.368-.368-.88-.736-1.392-.736a.88.88 0 0 0-.656.296c-.584.656.296 1.608.656 1.976l6.144 6.8q0 .104-.216.44c-.224.288-.952 1.024-3.216 1.312-.296 0-.512.08-.8.08-2.272 0-4.76-1.104-6-1.76A9.144 9.144 0 0 0 90.08 111.1h-.296c.144-2.344-.144-6.656-4.68-8.632a9.6 9.6 0 0 0-3.8-.88 7.2 7.2 0 0 0-2.784.52 7.68 7.68 0 0 0-4.456-3.808 10.4 10.4 0 0 0-3.296-.584 9.04 9.04 0 0 0-5.12 1.608 7.696 7.696 0 0 0-11.472-.656c-1.904-1.464-9.512-6.288-29.76-10.896-.96-.216-3.152-.88-4.544-1.24 1.76-9.288 7.536-17.624 16.16-24.504zM73.624 114.9l-.216-.216h-.224a1.1 1.1 0 0 0-.584.216 5.2 5.2 0 0 1-3 1.096c-.584 0-1.096-.144-1.68-.288-4.68-1.832-4.32-6.296-4.096-7.608 0-.296 0-.512-.216-.656l-.368-.296-.296.296a4.96 4.96 0 0 1-3.36 1.384 4.9 4.9 0 0 1 0-9.8 4.88 4.88 0 0 1 4.824 4.24l.152 1.32.728-1.096c.08-.144 2.048-3.144 5.704-3.144a8 8 0 0 1 2.12.368c2.928.88 3.36 3.504 3.44 4.6.072.664.512.664.584.664.216 0 .44-.152.584-.296a4.8 4.8 0 0 1 3.584-1.536c.88 0 1.76.224 2.704.584 4.608 1.976 2.48 7.824 2.48 7.904-.36.944-.432 1.384-.064 1.6l.144.08h.144a3.2 3.2 0 0 0 .88-.224c.656-.216 1.536-.512 2.48-.512a6.4 6.4 0 0 1 6.296 6.288c0 3.44-2.856 6.288-6.288 6.288a6.28 6.28 0 0 1-6.288-6c0-.288-.08-1.016-.664-1.016-.288 0-.512.144-.728.368-.728.656-1.68 1.384-3.072 1.384a5.6 5.6 0 0 1-2.048-.44c-3.584-1.456-3.656-3.872-3.512-4.896 0-.216.08-.44-.144-.656M96 142.1c-42.48 0-76.928-22.008-76.928-49.208q0-1.648.216-3.296c.368.08 3.736.88 4.392 1.024 20.696 4.608 27.568 9.36 28.736 10.32a7.76 7.76 0 0 0 7.168 10.752c.512-.008.952-.08 1.464-.16.656 3.152 2.704 5.56 5.848 6.8a7.44 7.44 0 0 0 4.536.296c.584 1.464 1.896 3.296 4.824 4.536a8 8 0 0 0 3.072.656c.8 0 1.608-.144 2.336-.44a9.16 9.16 0 0 0 15.064 2.928c1.464.8 4.608 2.344 7.76 2.344.432 0 .8 0 1.168-.08 3.144-.36 4.6-1.6 5.264-2.56.144-.144.216-.36.288-.504a8.6 8.6 0 0 0 2.488.36q2.52 0 5.04-1.752c1.616-1.168 2.784-2.848 2.928-4.32v-.064a6.4 6.4 0 0 0 1.68.144c1.76 0 3.52-.512 5.12-1.608 3.224-2.12 3.736-4.824 3.736-6.584a9.12 9.12 0 0 0 6.512-1.32 7.2 7.2 0 0 0 3.36-5.48 7.2 7.2 0 0 0-1.096-4.384c5.336-2.272 17.544-6.728 31.88-10.024.08.808.08 1.616.08 2.488 0 27.128-34.448 49.144-76.936 49.144z"/></svg>