<svg xmlns="http://www.w3.org/2000/svg" width="192" height="192" viewBox="0 0 192 192"><path d="M96.169 19C52.695 19 19 50.778 19 93.689c0 22.453 9.225 41.857 24.239 55.255 2.595 2.333 2.056 3.688 2.503 18.079a6.183 6.183 0 0 0 8.654 5.46c16.424-7.239 16.632-7.808 19.42-7.046 47.592 13.09 99.182-17.363 99.182-71.748 0-42.912-33.348-74.69-76.83-74.69m46.338 57.48-22.669 35.883a11.596 11.596 0 0 1-16.732 3.088l-18.033-13.498a4.66 4.66 0 0 0-5.59 0L55.15 120.409c-3.25 2.464-7.5-1.425-5.313-4.867L72.498 79.66a11.596 11.596 0 0 1 16.74-3.08l18.026 13.49a4.66 4.66 0 0 0 5.59 0l24.347-18.44c3.234-2.472 7.492 1.416 5.306 4.85"/></svg>