<svg xmlns="http://www.w3.org/2000/svg" width="192" height="192" viewBox="0 0 192 192"><path d="M22.996 88.327c.562-32.124 25.371-57.903 55.978-57.903h46.007c8.763 0 17.001 2.125 24.339 5.875-8.547-10.41-21.152-16.963-35.212-16.963H65.545c-25.741 0-46.546 21.937-46.546 49.079 0 7.084 1.44 13.829 3.996 19.912m136.29-33.063c-8.223-8.254-19.373-13.398-31.808-13.398H80.015c-25.163 0-45.506 21.013-45.506 47 0 4.504.632 8.924 1.817 13.167A47 47 0 0 0 47.8 121.976l46.061 48.648c.948 1.055 1.98 2.04 3.958 2.04 1.902 0 3.958-.985 3.958-3.603v-33.187h25.002c24.932 0 45.814-20.436 46.215-46.184a47.74 47.74 0 0 0-13.69-34.42"/></svg>