<svg width="192" height="192" fill="none" xmlns="http://www.w3.org/2000/svg"><path d="M104.767 32.939c6.34 9.087 7.076 19.549 1.643 23.367-5.434 3.817-14.979-.454-21.32-9.542-6.34-9.087-7.076-19.549-1.643-23.366 5.434-3.818 14.979.454 21.32 9.541Zm47.568 30.545c-2.861 10.715-10.374 18.005-16.781 16.282-6.407-1.722-9.281-11.805-6.42-22.52 2.861-10.716 10.374-18.006 16.781-16.284 6.407 1.723 9.282 11.806 6.42 22.522Zm2.516 58.422c-10.389 3.794-20.649 1.799-22.918-4.455-2.268-6.255 4.314-14.401 14.702-18.195 10.389-3.795 20.649-1.8 22.918 4.455 2.268 6.254-4.314 14.401-14.702 18.195Zm-27.998 18.102c9.574 5.546 14.647 14.716 11.33 20.48-3.316 5.764-13.766 5.941-23.34.394s-14.646-14.716-11.33-20.48c3.317-5.765 13.767-5.941 23.34-.394Zm-44.797 8.006c1.92 10.925-1.82 20.718-8.352 21.874-6.532 1.156-13.383-6.764-15.303-17.689-1.92-10.925 1.82-20.718 8.352-21.874 6.532-1.156 13.383 6.764 15.303 17.689Zm-35.055-28.908c-7.817 7.844-17.956 10.388-22.646 5.681-4.69-4.706-2.156-14.881 5.661-22.725 7.817-7.844 17.956-10.388 22.647-5.681 4.69 4.706 2.155 14.881-5.662 22.725Zm3.564-69.539c11.013.966 19.472 7.126 18.894 13.756-.579 6.631-9.975 11.223-20.988 10.256C37.458 72.612 29 66.453 29.577 59.822c.578-6.63 9.975-11.222 20.988-10.255Z" stroke="#000" stroke-width="12" stroke-linecap="round" stroke-linejoin="round"/></svg>