<svg xmlns="http://www.w3.org/2000/svg" width="192" height="192" viewBox="0 0 192 192"><path d="M136.9 108.99a16.8 16.8 0 0 1-7.04 2.776c-2.56.4-5.08.32-7.624.32H69.764c-2.552 0-5.08.096-7.632-.32a17.6 17.6 0 0 1-7.048-2.776 15.84 15.84 0 0 1-6.848-13.008c0-5.304 2.576-10.096 6.856-13 2.096-1.496 4.496-2.392 7-2.8s5-.4 7.6-.4h52.504c2.496 0 5.096-.096 7.6.304s4.896 1.288 7.008 2.696a15.6 15.6 0 0 1 6.8 12.992c0 5.2-2.608 10-6.904 13zm21.16-50.368a48 48 0 0 0-19.104-9.32 58.4 58.4 0 0 0-12.144-1.528c-2.992-.104-5.992-.072-9.096-.072H74.404c-3.04 0-6.096-.032-9.144.072a59.2 59.2 0 0 0-12.16 1.528 48.4 48.4 0 0 0-19.12 9.344 47.76 47.76 0 0 0-17.976 37.352 47.92 47.92 0 0 0 17.92 37.376 48.8 48.8 0 0 0 19.104 9.328 58.4 58.4 0 0 0 12.16 1.528c2.992.104 6 .08 9.096.08h43.304c2.992 0 6.096.024 9.096-.08a56 56 0 0 0 12.088-1.52 49.2 49.2 0 0 0 19.112-9.352 47.52 47.52 0 0 0 18.12-37.36 47.92 47.92 0 0 0-17.944-37.376"/></svg>