<svg xmlns="http://www.w3.org/2000/svg" width="192" height="192" viewBox="0 0 192 192"><path d="M96.476 16.004a29.04 29.04 0 0 0-14.671 3.688l-.136.08-.72.424-43.636 26.398a29.12 29.12 0 0 0-14.03 24.902v48.996a29.07 29.07 0 0 0 14.03 24.878l1 .616 13.527 8.183 29.093 17.622a29.04 29.04 0 0 0 30.117 0l43.636-26.414a29.12 29.12 0 0 0 13.999-24.094l.016.16.016-.96V71.495a29.12 29.12 0 0 0-14.031-24.886L111.05 20.203a29.1 29.1 0 0 0-14.575-4.184zm-.48 50.915a29.07 29.07 0 0 1 15.055 4.2l14.031 8.479v14.519a29.09 29.09 0 0 1-14.031 24.878l-15.055 9.103-15.055-9.111A29.12 29.12 0 0 1 66.926 94.1V79.58l14.015-8.47a29.1 29.1 0 0 1 15.055-4.2z"/></svg>