<svg xmlns="http://www.w3.org/2000/svg" width="192" height="192" viewBox="0 0 192 192"><path d="M105.33 31.2a15 15 0 0 0-3.84.423l-16.177 3.901a15.12 15.12 0 0 0-10.07-4.173h-1.209l-.393.182c-.726.06-1.451.06-2.177.242a15 15 0 0 0-3.568 1.33l-43.633 22.83a15.54 15.54 0 0 0-6.562 20.804l36.588 70.757a15.24 15.24 0 0 0 20.622 6.501l9.283-4.868 5.957-1.452 2.057.091L132 160.135a15.51 15.51 0 0 0 19.262-10.069l24.039-76.018a15.33 15.33 0 0 0-10.04-19.2l-16.207-5.02a15.27 15.27 0 0 0-14.151-11.188l-17.205-.545a15.12 15.12 0 0 0-12.367-6.894M85.224 46.774l15.058.484a15 15 0 0 0-1.361 3.024L76.908 120.04l2.48-67.854v-.09a6 6 0 0 1 .483-2.027q.212-.423.514-.816l.635-.847q.423-.363.907-.665.393-.272.817-.484.484-.181.998-.242.725-.242 1.511-.242zm-14.817 2.268c-.242.968-.605 1.875-.666 2.903l-2.721 74.99-15.361-67.551a5.655 5.655 0 0 1 4.233-6.834zm-28.242 8.406c-.091 1.391-.212 2.782.09 4.233l16.782 73.841L26.23 72.143a5.534 5.534 0 0 1 2.389-7.59zm91.228 17.326c1.088 5.17 3.114 8.95 5.382 12.065l.302.423.303.393.423.515 1.39 1.723 2.813 3.296.09.121 1.694 2.117.06.09 1.27 1.996.121.242.242.484.484 1.088a13.9 13.9 0 0 1-.06 9.374l-.303.605-1.028 1.814-.03.09-.514.787v.06l-1.119 1.512-.06.061-1.724 1.875-.09.06a15 15 0 0 1-3.266 2.117l-.666.242h-.03a12.1 12.1 0 0 1-7.076-.121 12.1 12.1 0 0 1-8.164-9.767c-1.965 4.657-.181 11.037.182 12.246 1.088.907 1.663 1.875 1.39 2.691-1.088.756-12.397-2.782-12.941-4.082.272-.816 1.3-1.3 2.781-1.421 5.443-4.052 6.774-8.346 7.106-10.1a12.1 12.1 0 0 1-12.428 3.509c-6.531-2.057-9.343-7.65-7.831-16.631 4.747-14.786 18.052-6.955 31.326-19.473z"/></svg>