<svg xmlns="http://www.w3.org/2000/svg" width="192" height="192" viewBox="0 0 192 192"><path d="M155.5 103.83c.333-2.5.5-5.083.5-7.833 0-2.667-.167-5.334-.583-7.834l16.917-13.167c1.5-1.166 1.916-3.416 1-5.083l-16-27.667c-1-1.833-3.084-2.417-4.917-1.833l-19.917 8c-4.167-3.167-8.583-5.833-13.5-7.833l-3-21.167c-.333-2-2-3.417-4-3.417H80c-2 0-3.583 1.417-3.917 3.417l-3 21.167c-4.916 2-9.416 4.75-13.5 7.833l-19.917-8c-1.833-.667-3.916 0-4.916 1.833L18.833 69.913c-1 1.75-.667 3.917 1 5.083L36.75 88.163c-.417 2.5-.75 5.25-.75 7.834s.166 5.333.583 7.833l-16.917 13.167c-1.5 1.167-1.917 3.417-1 5.083l16 27.667c1 1.834 3.083 2.417 4.917 1.834l19.917-8c4.166 3.166 8.583 5.833 13.5 7.833l3 21.167c.416 2 2 3.417 4 3.417h32c2 0 3.666-1.417 3.916-3.417l3-21.167c4.917-2 9.417-4.667 13.5-7.833l19.917 8c1.834.666 3.917 0 4.917-1.834l16-27.667c1-1.833.583-3.916-1-5.083z" opacity=".2"/><path d="M56.837 85.503c-4.739 17.685 3.043 36.469 18.9 45.622l9.998-17.321c-8.1-4.676-12-14.09-9.58-23.125z" opacity=".6"/><path d="M75.737 60.875a40.57 40.57 0 0 0-18.9 24.629l19.319 5.175a20.55 20.55 0 0 1 9.579-12.482z" opacity=".5"/><path d="M94.779 55.484a40.4 40.4 0 0 0-19.043 5.397l10 17.32a20.47 20.47 0 0 1 24.812 3.267l14.142-14.142c-8.09-8.09-19-12.161-29.911-11.841z" opacity=".7"/><path d="M110.55 110.54c-6.612 6.613-16.714 7.942-24.812 3.267l-10 17.32c15.854 9.153 36.008 6.5 48.954-6.445z" opacity=".8"/></svg>