<svg xmlns="http://www.w3.org/2000/svg" width="192" height="192" viewBox="0 0 192 192"><path d="M95.83 19.234c-32.208-.008-59.595 20.065-71.052 48.331 9.802-10.287 24.639-16.878 40.947-16.878 2.402 0 15.384.154 27.811 6.676 10.764 5.659 16.67 12.758 20.597 19.542 3.996 6.89 4.82 14.599 4.936 18.81 0 .154.038.308.046.462h-.031c0 .238.046.592.046.8 0 4.435-1.963 9.74-5.544 14.406-1.563 2.018-1.416 1.31-1.416 1.64 0 .278.23.986 1.609 1.956h.015c3.696 2.572 9.802 3.988 14.937 4.543 5.12.547 9.286.346 9.317.346a34.26 34.26 0 0 0 17.4-4.797l.016-.015a35.34 35.34 0 0 0 17.532-30.468v-.03c.154-13.268-4.589-21.776-6.768-26.08-12.68-24.808-40.192-39.253-70.398-39.253zM65.724 56.962c-25.617 0-46.437 17.986-46.722 38.868v.015c-.1 11.703 2.148 22.745 7.053 33.316a77.07 77.07 0 0 0 58.818 43.611 54 54 0 0 1-4.304-2.379l-.177-.092-.185-.1a53.1 53.1 0 0 1-15.161-14.23C45.458 129.117 54.805 90.98 84.542 76.18l.085-.062v.016l.107-.077.031-.016.016-.015c1.878-.886 5.874-2.888 11.126-2.795a23.1 23.1 0 0 1 9.878 2.333c-3.31-4.497-7.846-8.801-15.168-12.651-10.84-5.683-22.899-5.952-24.893-5.952m7.207 35.91c-14.26 16.109-16.43 40.748-2.795 59.427l.016.015v.016a46.2 46.2 0 0 0 13.228 12.443l.015.015.185.116a44.27 44.27 0 0 0 36.666 4.712l-.016-.031.793-.27A77.3 77.3 0 0 0 159.9 139.31c-1.624.777-3.249 1.563-4.927 2.194a67 67 0 0 1-23.615 4.258c-31.122 0-58.68-21.497-58.68-49.763v-.031q.024-1.57.255-3.095"/></svg>