<svg xmlns="http://www.w3.org/2000/svg" width="192" height="192"><path d="M173 148.76c0 13.355-10.852 24.183-24.207 24.183H82.982c-8.88 0-16.074-7.195-16.074-16.074 0-5.294 2.72-10.251 7.219-13.066l96.467-60.565A16.6 16.6 0 0 0 173 81.361zM19 81.313a18 18 0 0 0 2.358 1.853l69.95 44.083-19.779 12.44a20.27 20.27 0 0 0-9.505 17.18 20.9 20.9 0 0 0 7.532 16.075H43.208c-13.379 0-24.207-10.828-24.207-24.183zm149.31-20.092a10.28 10.28 0 0 1 4.692 8.277v.578c0 3.682-1.9 7.074-4.98 9.023l-72.116 45.286-25.434-16.026 70.287-44.54c5.703-3.633 8.037-10.058 6.954-15.978zm-30.632-19.876v.024l.433.265c6.593 4.163 6.641 13.74.145 17.999L65.9 105.472 39.864 89.06l70.359-44.684c5.823-3.682 8.18-10.251 7.05-16.266zM82.599 23.033a24.66 24.66 0 0 1 25.891-.602c5.871 4.572 5.558 13.764-.866 17.854L35.316 86.196l-11.358-7.17c-2.96-1.853-4.789-5.053-4.957-8.542v-.602c0-3.489 1.78-6.737 4.692-8.638z"/></svg>