<svg xmlns="http://www.w3.org/2000/svg" width="192" height="192" viewBox="0 0 192 192"><path d="M156.27 70.224a25.3 25.3 0 0 0-15.345-11.15 44.97 44.97 0 0 0-89.86 0 25.3 25.3 0 0 0-15.337 11.15 32.82 32.82 0 0 0-4.627 21.02 104.9 104.9 0 0 0 12.12 42.929 85.7 85.7 0 0 0 10.285 15.065 110.5 110.5 0 0 0 21.813 19.499 33.06 33.06 0 0 0 41.352 0 110.5 110.5 0 0 0 21.813-19.499 85.7 85.7 0 0 0 10.286-15.065 104.9 104.9 0 0 0 12.12-42.929 32.82 32.82 0 0 0-4.627-21.02M95.996 34.267a27.336 27.336 0 0 1 26.775 21.837 340 340 0 0 0-26.775-1.12c-5.403 0-15.553.192-26.775 1.12a27.336 27.336 0 0 1 26.775-21.837m21.98 56.216a21.981 21.981 0 1 1-21.98-21.981 21.98 21.98 0 0 1 21.98 21.981m-6.163 71.161a26 26 0 0 1-15.817 5.763 26.1 26.1 0 0 1-15.825-5.763 99.3 99.3 0 0 1-22.597-21.036 44.97 44.97 0 0 1 76.844 0 99.3 99.3 0 0 1-22.597 21.02z"/></svg>