<svg xmlns="http://www.w3.org/2000/svg" width="192" height="192" viewBox="0 0 192 192"><path d="M16 125.28v3.008c0 3.8 3.056 6.856 6.856 6.856h23.496v-9.864zm101.67 0v9.864h51.472a6.84 6.84 0 0 0 6.856-6.856v-3.008zm-71.312 25.552v10.52c0 3.04 2.448 5.48 5.48 5.48h60.344a5.475 5.475 0 0 0 5.488-5.48v-10.52z"/><path d="M46.352 128.9h71.32v21.944h-71.32zM32.456 25.17a6.39 6.39 0 0 0-6.4 6.4c.064 31.24-.088 62.48 0 93.712h20.296V49.394a5.47 5.47 0 0 1 5.488-5.48h60.344a5.47 5.47 0 0 1 5.488 5.48v75.888h48.272V31.57c0-3.544-2.856-6.4-6.4-6.4zm35.888 24.456a1.84 1.84 0 0 0-1.832 1.832 1.84 1.84 0 0 0 1.832 1.824 1.84 1.84 0 0 0 1.824-1.824 1.84 1.84 0 0 0-1.824-1.832m8.688 0a1.828 1.828 0 1 0 0 3.656h16.456a1.828 1.828 0 1 0 0-3.656z" opacity=".8"/><path d="M46.352 95.752h71.32v33.144h-71.32z" opacity=".65"/><path d="M46.352 59.912h71.32v35.84h-71.32z" opacity=".5"/><path d="M51.84 43.912a5.47 5.47 0 0 0-5.488 5.488v10.512h71.32V49.4a5.47 5.47 0 0 0-5.488-5.488zm16.504 5.712a1.84 1.84 0 0 1 1.824 1.832 1.84 1.84 0 0 1-1.824 1.824 1.84 1.84 0 0 1-1.832-1.824 1.84 1.84 0 0 1 1.832-1.832m8.688 0h16.456a1.828 1.828 0 1 1 0 3.656H77.032a1.828 1.828 0 1 1 0-3.656" opacity=".35"/></svg>