<svg xmlns="http://www.w3.org/2000/svg" width="192" height="192"><path d="M58.388 25.648c16.525-7.475 35.224 4.609 35.224 22.734v32.86c.024 9.457 7.69 17.146 17.17 17.146l32.788-.024c18.125-.024 30.209 18.675 22.758 35.2l-1.266 2.818C151.187 160.072 125.444 176 96 176c-44.179 0-80-35.821-80-80 0-29.564 16.048-55.379 39.881-69.23zm39.69-9.624C141.302 17.123 176 52.514 176 96c0 7.69-1.075 15.116-3.104 22.161-2.412-13.469-14.066-24.597-29.325-24.573l-32.788.024c-6.64 0-12.036-5.206-12.37-11.749l-.024-.62v-32.86c0-15.213-11.057-26.843-24.478-29.279C80.93 17.074 88.335 16 96.024 16z"/></svg>