<svg width="192" height="192" fill="none" xmlns="http://www.w3.org/2000/svg"><path d="M148.326 43.674A74.006 74.006 0 0 0 96 22a74.001 74.001 0 0 0-52.326 21.674m86.267 18.385a48.003 48.003 0 0 0-52.31-10.405A48 48 0 0 0 62.06 62.059M64 116a31.998 31.998 0 0 0 54.627 22.627A31.996 31.996 0 0 0 128 116" stroke="#000" stroke-width="12" stroke-linecap="round" stroke-linejoin="round"/><path d="M84 116a11.998 11.998 0 0 0 12 12c3.183 0 6.235-1.264 8.485-3.515A11.996 11.996 0 0 0 108 116m0-30a11.998 11.998 0 0 0-12-12 12 12 0 0 0-12 12m12 62v22M84 86v30m24-30v30" stroke="#000" stroke-width="12" stroke-linecap="round" stroke-linejoin="round"/></svg>