<svg xmlns="http://www.w3.org/2000/svg" width="192" height="192" viewBox="0 0 192 192"><path d="M67.389 21.59a6.933 6.933 0 0 0-6.753 7.066v8.23h107.92v-8.23a6.933 6.933 0 0 0-6.754-7.066zm71.181 22.309v29.983h29.983V43.899zm-77.934.017v4.132h30.399a14.2 14.2 0 0 1 3.316.4v-4.532zm40.729 0v8.785a13.78 13.78 0 0 1 3.507 9.184V73.9h26.684V43.916zM22.806 55.062A6.82 6.82 0 0 0 16 61.885v68.23a6.82 6.82 0 0 0 6.806 6.822h68.229a6.82 6.82 0 0 0 6.823-6.823V61.885a6.82 6.82 0 0 0-6.823-6.823zm34.67 16.91a21.96 21.96 0 0 1 11.458 2.934 19.56 19.56 0 0 1 7.57 8.23 26.7 26.7 0 0 1 2.656 12.083 28 28 0 0 1-2.726 12.656v.017a20.2 20.2 0 0 1-7.813 8.507 22.76 22.76 0 0 1-11.892 3.02 22.2 22.2 0 0 1-11.7-2.985 20 20 0 0 1-7.692-8.247 25.8 25.8 0 0 1-2.673-11.944 28.44 28.44 0 0 1 2.639-12.569 19.8 19.8 0 0 1 7.795-8.611 23.56 23.56 0 0 1 12.378-3.09zm-.347 7.813a11.82 11.82 0 0 0-7.014 2.066 13 13 0 0 0-4.462 5.73 22.67 22.67 0 0 0-.035 16.301 12.9 12.9 0 0 0 4.393 5.66 11.56 11.56 0 0 0 6.84 2.066 12 12 0 0 0 7.31-2.136 12.44 12.44 0 0 0 4.253-5.66 22.2 22.2 0 0 0 1.354-7.899 24 24 0 0 0-1.285-8.003 12.44 12.44 0 0 0-4.115-5.903 11.3 11.3 0 0 0-7.24-2.222zm47.743 1.128v26.458h26.684V80.913zm33.698 0v26.458h12.986l16.997-9.566V80.913zM176 99.733a3.38 3.38 0 0 1-1.7 2.899l-.07.052-51.302 28.837 53.073 31.076zm-71.127 14.652v6.702l11.059 6.32 15.625-8.786v-4.236zm0 14.792v.938a13.867 13.867 0 0 1-13.837 13.837h-37.83v18.68a7.787 7.787 0 0 0 7.778 7.779h107.33a7.73 7.73 0 0 0 4.6-1.476z"/></svg>