<svg width="191" height="192" fill="none" xmlns="http://www.w3.org/2000/svg"><path d="M147.553 43.674a73.586 73.586 0 0 0-23.882-16.041A73.282 73.282 0 0 0 95.501 22a73.283 73.283 0 0 0-28.172 5.633 73.592 73.592 0 0 0-23.882 16.041m85.817 18.385a47.736 47.736 0 0 0-15.491-10.405 47.532 47.532 0 0 0-36.546 0 47.734 47.734 0 0 0-15.491 10.405M63.667 116a32.084 32.084 0 0 0 9.323 22.627A31.747 31.747 0 0 0 95.5 148c8.443 0 16.54-3.371 22.51-9.373A32.083 32.083 0 0 0 127.333 116" stroke="#000" stroke-width="12" stroke-linecap="round" stroke-linejoin="round"/><path d="M83.563 116a12.03 12.03 0 0 0 3.496 8.485A11.904 11.904 0 0 0 95.5 128c3.166 0 6.202-1.264 8.441-3.515a12.028 12.028 0 0 0 3.496-8.485m.001-30a12.03 12.03 0 0 0-3.497-8.485A11.907 11.907 0 0 0 95.5 74a11.906 11.906 0 0 0-8.441 3.515A12.032 12.032 0 0 0 83.563 86M95.5 148v22M83.563 86v30m23.875-30v30" stroke="#000" stroke-width="12" stroke-linecap="round" stroke-linejoin="round"/></svg>