<svg xmlns="http://www.w3.org/2000/svg" width="192" height="192" viewBox="0 0 192 192"><path d="M137.6 96.608c6.76-7.72 11.56-16.144 13.6-24.041 1.144-4.432 1.416-8.688.664-12.568-3.304-17.176-25.265-20.464-49.145-7.44l-3.264-16.944-25.265 13.96 4.088 21.264c2.64-1.656 5.24-2.728 7.6-2.968 8.056-.832 10.32 7.936 5.088 19.576a48 48 0 0 1-7.288 11.44l4.792 24.92.008.025.08.448.024-.016c3.632 16.864 25.633 19.928 49.473 6.776 23.56-13.016 40.137-37.025 37.705-54.241-.96 6.872-7.76 15.344-16.864 20.376-9.68 5.336-18.608 4.976-21.272-.496l-.016-.08zM66.935 110c-8.048.824-10.32-7.944-5.08-19.576a49.6 49.6 0 0 1 8.4-12.72l-4.512-23.472-49.745 27.465 14.376 74.69 49.737-27.465-4.368-22.688c-3.04 2.12-6.08 3.48-8.816 3.768"/></svg>