<svg width="192" height="192" fill="none" xmlns="http://www.w3.org/2000/svg"><circle cx="96" cy="96" r="74" stroke="#000" stroke-width="12" stroke-linecap="round" stroke-linejoin="round"/><path d="m127.378 132 9.139-39.636a18.868 18.868 0 0 0-2.378-14.23 18.828 18.828 0 0 0-11.731-8.379 18.806 18.806 0 0 0-14.212 2.381 18.847 18.847 0 0 0-8.368 11.746l-4.235 18.369m4.235-18.369a18.874 18.874 0 0 0-2.378-14.23 18.828 18.828 0 0 0-11.731-8.378 18.807 18.807 0 0 0-14.212 2.381 18.85 18.85 0 0 0-8.368 11.746m32.454 26.85-4.904 21.268m4.904-21.268-13.517-3.125m13.517 3.125 13.517 3.124M67.151 58 63.14 75.401m0 0L54 115.038" stroke="#000" stroke-width="12" stroke-linecap="round" stroke-linejoin="round"/></svg>