<svg width="192" height="192" fill="none" xmlns="http://www.w3.org/2000/svg"><path d="M164 95s8 75-64 75c-58 0-64-46-64-46" stroke="#000" stroke-width="12" stroke-linecap="round" stroke-linejoin="round"/><path d="M112.5 23.16c-4.919-.747-10.337-1.16-16.304-1.16-73.804 0-70.812 60.268-70.812 60.268-6.981 14.062-.997 38.17-.997 38.17s11.968 5.022 20.944 1.004c8.976-4.018 6.982-26.116 14.96-30.134 7.98-4.018 13.963 8.036 103.725 4.018l5.601-12.223" stroke="#000" stroke-width="12" stroke-linecap="round" stroke-linejoin="round"/><path d="M170 33a21.977 21.977 0 0 0-10.62-9.325 21.945 21.945 0 0 0-14.095-.925 21.973 21.973 0 0 0-11.745 7.857 22.02 22.02 0 0 0 0 26.786 21.973 21.973 0 0 0 11.745 7.857 21.945 21.945 0 0 0 14.095-.925A21.977 21.977 0 0 0 170 55" stroke="#000" stroke-width="12" stroke-miterlimit="6" stroke-linecap="round" stroke-linejoin="round"/><path d="M84 147c38 0 38-3 38-3l-38-1v4Z" stroke="#000" stroke-width="10" stroke-linecap="round" stroke-linejoin="round"/><path d="m79 116 1-3 20 4-21-1Zm62 2-1-3-20 4 21-1Z" stroke="#000" stroke-width="8" stroke-linecap="round" stroke-linejoin="round"/><ellipse cx="90.5" cy="123" rx="6.5" ry="3" stroke="#000" stroke-width="6" stroke-linecap="round" stroke-linejoin="round"/><ellipse cx="129.5" cy="125" rx="6.5" ry="3" stroke="#000" stroke-width="6" stroke-linecap="round" stroke-linejoin="round"/></svg>