<svg width="192" height="192" fill="none" xmlns="http://www.w3.org/2000/svg"><path d="M164 95s8 75-64 75c-58 0-64-46-64-46" stroke="#000" stroke-width="12" stroke-linecap="round" stroke-linejoin="round"/><path d="M96.196 22c-73.804 0-70.812 60.268-70.812 60.268-6.981 14.062-.997 38.17-.997 38.17s11.968 5.022 20.944 1.004c8.976-4.018 6.982-26.116 14.96-30.134 7.98-4.018 13.963 8.036 103.725 4.018L170 82.268l-8.976-13.058S160.027 22 96.196 22Z" stroke="#000" stroke-width="12" stroke-linecap="round" stroke-linejoin="round"/><path d="M84 147c38 0 38-3 38-3l-38-1v4Z" stroke="#000" stroke-width="10" stroke-linecap="round" stroke-linejoin="round"/><path d="m79 116 1-3 20 4-21-1Zm62 2-1-3-20 4 21-1Z" stroke="#000" stroke-width="8" stroke-linecap="round" stroke-linejoin="round"/><ellipse cx="90.5" cy="123" rx="6.5" ry="3" stroke="#000" stroke-width="6" stroke-linecap="round" stroke-linejoin="round"/><ellipse cx="129.5" cy="125" rx="6.5" ry="3" stroke="#000" stroke-width="6" stroke-linecap="round" stroke-linejoin="round"/></svg>