<svg xmlns="http://www.w3.org/2000/svg" width="192" height="192" viewBox="0 0 192 192"><path d="M118.4 69.467 91.024 87.839l-.002 34.239c5.467-1.765 5.975-4.667 7.372-8.404l10.818-28.885h1.525c3.94 9.96 7.91 19.91 11.856 29.868.56 1.411 1.075 2.88 1.862 4.235.615 1.06 1.226 2.183 2.702 2.782 1.932.789 4.267.074 5.166-1.302.282-.432.35-.913.36-1.386.042-1.74.024-3.486.024-5.227l-.001-19.702c0-1.647.01-3.296-.014-4.944-.013-.844-.55-1.97-1.682-2.374-.69-.246-1.957-.302-2.425-.744-.069-.255-.085-.132.075-.378 1.225-.1 3.551-.052 4.868-.052h8.91zM63.825 82.255q-.495-.031-1.044.005c-6.738 1.218-5.72 10.628 1.49 10.086 1.684-.347 2.573-.864 3.438-1.945 2.076-2.596 1.07-7.833-3.884-8.146m-9.642 3.319h-7.796l-11.083 21.101-11.087-21.1h-8.219v36.434h7.687V99.076l9.305 17.463h4.195l9.311-17.473v22.943h7.688zm88.958.668q-.03 0-.053.003c-2.633.448-3.999.632-4.086 2.906-.074 1.918-.03 3.849-.03 5.77v20.15c0 1.584-.128 3.433.194 4.995.175.845 1.73 1.477 2.811 1.775 1.23.224 2.535.155 3.816.145V87.849c-.435-.304-2.071-1.592-2.652-1.607m-35.45 7.56-6.115 16.546h12.658zm-19.134.816c-.047-.002-.11.012-.298.015-5.191.341-7.457 2.41-9.301 5.67-.123-1.554-.2-3.645-.428-5.155h-6.745l-.002 26.86h7.592l-.002-7.843c.001-3.313-.54-7.882 2.907-10.474 1.746-1.312 4.142-1.375 6.52-1.362l-.036-7.636c-.128-.057-.16-.073-.207-.075m73.4.02c-15.786.93-18.186 19.847-7.259 25.89 6.032 3.335 13.712 2.337 18.303-1.712q.902-.8 1.592-1.698l-1.328-1.276-3.17-3.045c-4.617 5.046-12.655 4.023-14.305-1.873a13 13 0 0 1-.21-.888h20.004c1.763-5.5-2.187-13.846-10.89-15.245a14 14 0 0 0-2.737-.153m-102.3.51-.003 26.86h7.68l.007-26.86zm102.69 5.02c3.965.058 5.71 2.72 6.35 5.234h-12.944c.607-2.445 2.104-4.61 5.772-5.21q.426-.031.822-.025zm-61.125 11.155a253 253 0 0 0-1.52 3.913c-.656 1.71-1.876 3.72-.541 5.369.464.568 1.127 1.044 1.924 1.38l14.02.003c1.446.01 2.648-1.193 2.594-2.126-.082-1.423-.824-2.957-1.372-4.335l-1.675-4.203z"/></svg>