<svg xmlns="http://www.w3.org/2000/svg" width="192" height="192" viewBox="0 0 192 192"><path d="M43.442 90.342v-7.506q0-13.511 6.097-24.697a52.34 52.34 0 0 1 16.43-18.3L51.886 25.76 58.453 19l15.959 15.96a51.97 51.97 0 0 1 43.189 0L133.545 19l6.575 6.76-14.082 14.088a52.36 52.36 0 0 1 16.43 18.292q6.096 11.178 6.097 24.697v7.506zm75.084-15.012a7.24 7.24 0 0 0 5.366-2.171 7.24 7.24 0 0 0 2.156-5.343 7.3 7.3 0 0 0-2.156-5.358 7.3 7.3 0 0 0-5.358-2.156 7.24 7.24 0 0 0-5.343 2.156 7.24 7.24 0 0 0-2.163 5.358q0 3.188 2.155 5.343a7.24 7.24 0 0 0 5.35 2.163m-45.051 0a7.24 7.24 0 0 0 5.35-2.155 7.24 7.24 0 0 0 2.156-5.35 7.3 7.3 0 0 0-2.156-5.359 7.3 7.3 0 0 0-5.35-2.156 7.24 7.24 0 0 0-5.35 2.156 7.24 7.24 0 0 0-2.156 5.358q0 3.188 2.155 5.343a7.24 7.24 0 0 0 5.343 2.163m91.913 51.288a75.5 75.5 0 0 0 5.712-28.739H20.9c-.014 35.835 25.295 66.687 60.442 73.678s70.336-11.827 84.036-44.94"/></svg>