<svg xmlns="http://www.w3.org/2000/svg" width="192" height="192" viewBox="0 0 192 192"><path d="M170.8 83.65c-.012-5.346-6.477-8.01-10.252-4.227-3.775 3.784-1.095 10.243 4.25 10.243a5.99 5.99 0 0 0 6.003-6.016m-28.139-34.923-9.115 91.696c2.045.248 5.21 0 5.77-3.23.871-4.92 8.398-81.695 8.398-81.695s1.38-3.62-5.118-6.77zm9.076 50.301-4.232 40.77s-.573 8.685-6.953 8.685h-7.735l-.09.886s-.964 5.977-6.173 6.758-106.03 0-106.03 0-4.258-.78-4.44-4.766 0-86.136 0-86.136a8.62 8.62 0 0 1 7.331-6.055c2.318-.3 19.792-3.177 40.366-6.602l6.875-13.02c2.882-5.19 10.27-5.398 13.438-.379-3.518-3.824-9.917-2.96-12.369 1.667l-50.654 96.202a7.644 7.644 0 0 0 13.516 7.122l36.46-69.247v57.19a7.565 7.565 0 0 0 7.552 7.54c4.701 0 7.813-5.874 8.074-6.408l20.052-38.686v33.465a7.54 7.54 0 0 0 15.08 0V63.545c.045-8.338-11.49-10.55-14.533-2.786l-.117.182-19.675 37.983-4.83 10.157 3.49-12.618V48.831c25.95-4.336 50.066-8.399 50.066-8.399s6.38-1.55 6.77 5.21l-.286 2.85c2.188-.468 12.5-2.252 13.204 6.511l-1.445 20.834s1.77 1.302 9.466-1.719c0 0 10.82-4.297 11.98 6.433 0 0 2.096 10.99-12.175 15.86 0 0-5.209 1.458-11.98 2.617zm16.407-15.339c0 2.982-3.604 4.474-5.711 2.366s-.616-5.712 2.365-5.712c2.193 0 3.346 1.886 3.346 3.346"/></svg>