<svg xmlns="http://www.w3.org/2000/svg" width="192" height="192" viewBox="0 0 192 192"><path d="M34.511 26.803c-10.153.152-11.165.25-13.315 1.316a9.94 9.94 0 0 0-5.197 6.689l.198 125.72c.002 1.055.344 1.76.574 2.257 1.351 2.922 18.536 2.281 21.429 1.666 1.427-.304 3.062-.946 3.64-1.42 1.026-.857 1.043-1.346 1.043-55.177.016-29.875.333-54.51.402-54.312l37.886 108.49c2.97 4.271 26.686 4.271 29.657 0l37.886-108.49c.069-.197.385 24.438.401 54.312 0 53.83.017 54.32 1.044 55.178.577.473 2.212 1.115 3.64 1.42 2.893.614 20.078 1.255 21.429-1.667.23-.498.571-1.202.573-2.257L176 34.808a9.94 9.94 0 0 0-5.196-6.69c-2.15-1.066-3.162-1.163-13.315-1.315-12.656-.192-18.695.386-22.48 2.15-4.981 2.318-6.728 4.876-10.481 15.302-9.407 26-18.434 52.192-28.527 77.923-10.093-25.73-19.12-51.922-28.527-77.923-3.754-10.426-5.501-12.984-10.481-15.302-3.786-1.764-9.825-2.342-22.48-2.15z"/></svg>