<svg width="192" height="192" fill="none" xmlns="http://www.w3.org/2000/svg"><path d="m22 131.507 14.965 14.965m0 0a20.332 20.332 0 0 1-4.53-6.918 21.13 21.13 0 0 1-1.457-8.256 22.275 22.275 0 0 1 1.842-8.332 23.094 23.094 0 0 1 4.862-7.141 23.117 23.117 0 0 1 7.141-4.862 22.3 22.3 0 0 1 8.333-1.843 21.138 21.138 0 0 1 8.256 1.457 20.334 20.334 0 0 1 6.922 4.535m-31.369 31.36L60.493 170m7.84-54.888 23.524 23.524m-23.523-23.524a20.342 20.342 0 0 1-4.535-6.922 21.133 21.133 0 0 1-1.457-8.256 22.277 22.277 0 0 1 1.843-8.333 23.097 23.097 0 0 1 4.862-7.14 23.1 23.1 0 0 1 7.14-4.862 22.279 22.279 0 0 1 8.333-1.843 21.133 21.133 0 0 1 8.256 1.457 20.337 20.337 0 0 1 6.922 4.535l23.524 23.523m39.205-77.698c10.63 10.63 9.992 28.501-1.425 39.918-11.417 11.417-29.289 12.055-39.919 1.426-10.629-10.63-9.991-28.502 1.426-39.919 11.417-11.417 29.289-12.055 39.918-1.425Z" stroke="#000" stroke-width="12" stroke-linecap="round" stroke-linejoin="round"/></svg>