<svg width="192" height="192" fill="none" xmlns="http://www.w3.org/2000/svg"><path d="M86.43 59.713C92.32 42.987 108.26 31 127 31c23.748 0 43 19.252 43 43 0 13.078-5.838 24.792-15.051 32.679M86.431 59.713A42.802 42.802 0 0 0 65 54c-23.748 0-43 19.252-43 43 0 22.44 17.19 40.865 39.119 42.827M86.43 59.713l-25.312 80.114M86.43 59.713l68.518 46.966m-93.83 33.148C70.587 152.669 85.82 161 103 161c28.719 0 52-23.281 52-52 0-.778-.017-1.552-.051-2.321" stroke="#000" stroke-width="12" stroke-linecap="round" stroke-linejoin="round"/></svg>