<svg width="192" height="192" fill="none" xmlns="http://www.w3.org/2000/svg"><circle cx="96" cy="96" r="23" stroke="#000" stroke-width="12" stroke-linecap="round" stroke-linejoin="round"/><path d="M85.42 26.673c5.677-6.23 15.483-6.23 21.159 0a14.312 14.312 0 0 0 14.922 3.998c8.032-2.557 16.524 2.345 18.325 10.58a14.311 14.311 0 0 0 10.923 10.924c8.235 1.8 13.137 10.292 10.58 18.324a14.312 14.312 0 0 0 3.998 14.922c6.231 5.676 6.231 15.482 0 21.158a14.312 14.312 0 0 0-3.998 14.922c2.557 8.032-2.345 16.524-10.58 18.325a14.31 14.31 0 0 0-10.923 10.923c-1.801 8.235-10.293 13.137-18.325 10.58a14.312 14.312 0 0 0-14.922 3.998c-5.676 6.231-15.482 6.231-21.158 0a14.312 14.312 0 0 0-14.922-3.998c-8.032 2.557-16.524-2.345-18.324-10.58a14.311 14.311 0 0 0-10.924-10.923c-8.235-1.801-13.137-10.293-10.58-18.325a14.312 14.312 0 0 0-3.998-14.922c-6.23-5.676-6.23-15.482 0-21.158a14.312 14.312 0 0 0 3.998-14.922c-2.557-8.032 2.345-16.524 10.58-18.324A14.312 14.312 0 0 0 52.175 41.25c1.8-8.235 10.292-13.137 18.324-10.58a14.312 14.312 0 0 0 14.922-3.998Z" stroke="#000" stroke-width="12" stroke-linecap="round" stroke-linejoin="round"/></svg>