<svg xmlns="http://www.w3.org/2000/svg" width="192" height="192"><path d="m16.942 77.544 27.375-49.356q1.244-2.281 3.11-3.318 1.867-1.037 4.148-1.037t4.148 1.037 3.11 3.318L86.21 77.544q1.036 2.074.933 4.148-.104 2.073-1.14 3.94-1.038 1.866-2.904 3.007-1.867 1.14-4.148 1.14H24.202q-2.281 0-4.147-1.14t-2.904-3.007-1.14-3.94.933-4.148zm11.198 85.441q-9.747-9.747-9.747-23.434 0-13.894 9.747-23.538t23.434-9.643 23.434 9.747 9.747 23.434-9.747 23.434-23.434 9.747-23.434-9.747m35.151-11.717q4.873-4.873 4.873-11.717t-4.873-11.717-11.717-4.873-11.717 4.873-4.873 11.717 4.873 11.717 11.717 4.873 11.717-4.873m-24.99-78.079h26.545L51.574 49.34zm63.043 91.247v-49.771q0-3.525 2.385-5.91t5.91-2.385h49.771q3.526 0 5.91 2.385t2.385 5.91v49.771q0 3.526-2.385 5.91t-5.91 2.385h-49.77q-3.526 0-5.911-2.385t-2.385-5.91m16.59-8.295h33.181V122.96h-33.181zm11.198-70.925-10.991-9.332Q103.832 63.856 98.44 56.909t-5.392-15.45q0-9.332 6.533-15.761 6.532-6.43 16.278-6.43 5.6 0 10.473 2.593t8.191 7.155q3.318-4.562 8.192-7.155t10.472-2.592q9.746 0 16.279 6.429t6.532 15.76q0 8.503-5.392 15.45-5.392 6.948-19.7 18.976l-10.992 9.332q-2.281 2.074-5.392 2.074t-5.392-2.074zm5.392-17.212q14.93-12.443 19.908-17.627 4.977-5.185 4.977-8.503 0-2.696-1.555-4.355-1.556-1.659-4.252-1.659-2.073 0-4.043 1.14-1.97 1.141-4.874 4.045l-10.16 9.747-10.162-9.747Q121.46 38.14 119.49 37t-4.044-1.14q-2.696 0-4.251 1.658-1.556 1.66-1.556 4.355 0 3.318 4.977 8.503 4.977 5.184 19.908 17.627z"/></svg>