<svg xmlns="http://www.w3.org/2000/svg" width="192" height="192" viewBox="0 0 192 192"><path d="M112.28 175.7c-2.68-.84-5.256-2.496-5.824-3.728-.963-11.012-.584-22.186-.584-33.255q-2.592-.402-5.184-.808c-5.44-.64-9.744-3.264-14.16-6.16-4.184-2.752-7.448-6.16-9.584-10.04-1.152-2.08-1.392-3.12-1.4-5.976 0-4.112.752-5.888 4.072-9.455 2.264-2.44 3.88-3.712 15.992-12.64 5.905-3.891 10.933-8.62 15.392-14 6.192 3.655 9.464.768 9.576.664.88-.8.984-.576 2.776 5.96q4.8 17.478 8.336 26.16c2.8 6.871 3.2 9.44 2.04 13.12-1.192 3.8-6.888 9.36-9.608 10.527-.696.296-1.232.8-1.232 1.672.087 7.134-.036 14.266-.112 21.4 1.971 2.447 3.173 5.419 4.56 8.112-1.016 1.64-9.008-.936-10.064-3.248-.884-8.513-.56-17.169-.56-25.736-1.455.124-2.89.433-4.328.648-.135.12-.32 11.256-.6 28.144 1.923 2.586 3.275 5.553 4.776 8.336-.208.64-2.656.816-4.28.304m9.816-104.25c-3.152-2.12-5.92-8.056-6.656-14.24-1.056-9.024 5.224-21.128 10.96-21.128 3.152 0 7.768 3.88 10.096 8.48 2.992 5.928 3.04 12.64.112 18.608-2.352 4.8-7.928 9.408-11.416 9.408a6.8 6.8 0 0 1-3.096-1.128M53.233 15.996l68.287 17.816c.131.034-.936.992-2.288 1.992s-3.864 3.328-5.576 5.176c-5.2 5.648-7.912 10.968-10.24 20.12l-1.28 5.04z"/></svg>