<svg xmlns="http://www.w3.org/2000/svg" width="192" height="192"><path d="M38.583 29.235C23.45 29.235 19 40.363 19 47.039v98.809c.445 9.347 8.457 16.918 17.804 16.918s17.359-7.57 17.804-16.918V85.759C67.071 100.002 74.19 124.482 96 125.372c21.365-.89 29.819-24.924 41.392-39.613 0 0 20.03-32.938 35.608-35.608 0-12.463-4.895-20.916-19.583-20.916-15.133 0-25.816 22.251-33.383 32.043S108.908 81.754 96 81.754 79.087 70.625 71.966 61.278c-7.567-9.792-18.249-32.043-33.383-32.043m132.87 32.188c-7.575-.23-31.601 30.178-34.063 46.592v37.834c.445 9.347 8.457 16.918 17.804 16.918s17.359-7.57 17.804-16.918V62.172c-.383-.487-.904-.73-1.545-.749"/></svg>