<svg width="192" height="192" fill="none" xmlns="http://www.w3.org/2000/svg"><circle cx="138" cy="48" r="26" stroke="#000" stroke-width="12" stroke-linecap="round" stroke-linejoin="round"/><path d="M28 144a26.005 26.005 0 0 0 16.05 24.021 26.012 26.012 0 0 0 19.9 0 26.011 26.011 0 0 0 14.07-14.071A26.005 26.005 0 0 0 80 144m32 0c0 3.414.673 6.795 1.979 9.95a26.023 26.023 0 0 0 5.636 8.435 26.023 26.023 0 0 0 8.435 5.636 26.016 26.016 0 0 0 19.9 0 26.023 26.023 0 0 0 8.435-5.636 26.023 26.023 0 0 0 5.636-8.435A26.016 26.016 0 0 0 164 144m-6.079-79.287-43.534 51.881a24.305 24.305 0 0 1-2.387 2.47m6.087-87.776-22.085 26.32-22.085-26.32a26.003 26.003 0 0 0-36.63-3.205 26.003 26.003 0 0 0-3.204 36.63l43.534 51.881A24.374 24.374 0 0 0 80 119.061M80 144v-24.939M112 144v-24.936m0 0c-9.066 8.139-22.936 8.138-32-.003M164 48v96M28 48v96" stroke="#000" stroke-width="12" stroke-linecap="round" stroke-linejoin="round"/></svg>