<svg xmlns="http://www.w3.org/2000/svg" width="192" height="192" viewBox="0 0 192 192"><path d="M69.611 16.034c-31.956.912-45.118 20.037-44.817 38.528v.175c0 3.758.622 7.344 1.932 11.17a34 34 0 0 0 1.347 3.548c.93 2.138 2.03 4.347 3.34 6.794l48.439 85.876c7.515 13.342 23.097 17.858 37.094 10.033 11.618-6.515 15.787-21.207 9.271-32.825l-16.685-29.748c-6.825-.344-15.822-1.207-21.614-3.137 9.826-.966 21.753-4.343 29.613-8.962-.034-.138-.1-.28-.134-.418-1.38-3.93-1.727-8.889-1.865-14.3-.104-3.759-.068-8.243-.068-13.38.035-2.413.034-5.033.034-7.757 0-6.067-.172-11.31-.31-15.965-.034-1.861-.107-3.616-.141-5.305-.138-5.137-.133-10.035.66-13.965-8.895-4.861-19.687-8.134-31.236-9.582-5.348-.668-10.295-.911-14.86-.78m59.435 5.67c-7.673.284-7.453 7.623-6.962 23.653.138 4.689.31 10.103.31 16.274 0 2.827 0 5.484-.034 7.932-.104 27.614-.139 33.162 17.27 29.99 19.513-3.55 27.58-17.237 27.58-37.922s-8.826-32.165-27.58-37.922c-4.593-1.413-8.026-2.101-10.584-2.006z"/></svg>