<svg width="192" height="192" fill="none" xmlns="http://www.w3.org/2000/svg"><path d="M118.412 57.888a52.45 52.45 0 0 1-48.581-1.966l-8.616-4.962a22.19 22.19 0 0 0-16.803-2.207 22.136 22.136 0 0 0-13.445 10.292 22.044 22.044 0 0 0-2.212 16.763 22.097 22.097 0 0 0 10.317 13.413l8.615 4.963c1 .576 1.976 1.181 2.927 1.816m67.798-38.112a52.28 52.28 0 0 0 3.757-1.966l8.616-4.962a22.19 22.19 0 0 1 16.803-2.207 22.136 22.136 0 0 1 13.445 10.292 22.042 22.042 0 0 1 2.212 16.763 22.097 22.097 0 0 1-10.317 13.413l-8.615 4.963c-1 .576-1.976 1.181-2.927 1.816m-22.974-38.112a52.19 52.19 0 0 1-.269-5.29V44.09a22.062 22.062 0 0 0-6.485-15.62A22.17 22.17 0 0 0 96 22a22.17 22.17 0 0 0-15.657 6.47 22.064 22.064 0 0 0-6.486 15.62v8.507c0 17.503-8.782 33.759-23.243 43.403m90.772 0c.951.635 1.927 1.24 2.927 1.816l8.615 4.962a22.1 22.1 0 0 1 10.317 13.414 22.042 22.042 0 0 1-2.212 16.763 22.133 22.133 0 0 1-13.445 10.292 22.184 22.184 0 0 1-16.803-2.207l-8.616-4.962a52.45 52.45 0 0 0-48.58-1.967M141.385 96a52.228 52.228 0 0 1-16.058-17m-51.74 55.111a52.876 52.876 0 0 0-3.757 1.967l-8.616 4.962a22.184 22.184 0 0 1-16.803 2.207 22.134 22.134 0 0 1-13.445-10.292 22.045 22.045 0 0 1 .215-22.455m42.406 23.611A52.2 52.2 0 0 0 50.614 96m75.011 16.5a52.096 52.096 0 0 0-7.482 26.902v8.507a22.063 22.063 0 0 1-6.485 15.621A22.17 22.17 0 0 1 96 170a22.169 22.169 0 0 1-15.657-6.47 22.086 22.086 0 0 1-4.041-5.53" stroke="#000" stroke-width="12" stroke-linecap="round" stroke-linejoin="round"/></svg>