<svg width="192" height="192" fill="none" xmlns="http://www.w3.org/2000/svg"><path d="m127.398 137.251 9.853-9.853a5.972 5.972 0 0 0 0-8.445L114.3 96.002c4.73-11.825 2.314-25.836-7.252-35.402-10.1-10.1-25.154-12.23-37.359-6.393l21.168 21.167a5.972 5.972 0 0 1 0 8.446l-7.037 7.037a5.972 5.972 0 0 1-8.445 0L54.206 69.69C48.37 81.894 50.5 96.95 60.6 107.048c9.566 9.566 23.577 11.982 35.402 7.252l22.951 22.951a5.972 5.972 0 0 0 8.445 0Z" stroke="#000" stroke-width="12" stroke-linecap="round" stroke-linejoin="round"/><path d="M109 23.138A74.466 74.466 0 0 0 96 22c-40.87 0-74 33.13-74 74 0 40.869 33.13 74 74 74 4.435 0 8.779-.39 13-1.138m28-134.475A74.41 74.41 0 0 1 156.934 54M137 157.613A74.407 74.407 0 0 0 156.934 138m11.744-56A74.394 74.394 0 0 1 170 96c0 4.786-.454 9.467-1.322 14" stroke="#000" stroke-width="12" stroke-linecap="round" stroke-linejoin="round"/></svg>