<svg xmlns="http://www.w3.org/2000/svg" width="192" height="192" viewBox="0 0 192 192"><path d="M89.268 174.38c-28.618-10.025-50.171-35.802-57.307-68.54-1.2-5.496-1.376-9.92-1.392-33.602V44.973l65.14-28.97 65.724 29.202-.072 26.777c-.056 21.777-.304 27.994-1.328 33.29-6.2 32.162-29.466 59.947-58.027 69.324-5.84 1.92-6.657 1.904-12.745-.224zm14.745-21.513c18.593-7.736 33.002-24.817 38.594-45.754 1.496-5.6 1.632-7.872 1.632-27.729V57.759L94.132 37.422l-46.85 20.817L47.576 80c.264 19.313.48 22.401 1.888 27.521 5.697 20.625 19.521 37.05 37.938 45.082 3.296 1.44 7.105 2.616 8.465 2.616s5.04-1.048 8.152-2.352z"/></svg>