<svg width="192" height="192" fill="none" xmlns="http://www.w3.org/2000/svg"><path d="M135 87a39 39 0 0 0-78 0m0 70a13 13 0 0 1-26 0m130 0a12.988 12.988 0 0 1-3.808 9.192 12.988 12.988 0 0 1-14.167 2.818 12.98 12.98 0 0 1-4.217-2.818A12.988 12.988 0 0 1 135 157" stroke="#000" stroke-width="12" stroke-linecap="round" stroke-linejoin="round"/><circle cx="48" cy="113" r="5" stroke="#000" stroke-width="10" stroke-linecap="round" stroke-linejoin="round"/><circle cx="144" cy="113" r="5" stroke="#000" stroke-width="10" stroke-linecap="round" stroke-linejoin="round"/><path d="M31 139v18m130-18v18M31.03 139H28a6 6 0 0 1-6-6V95a6 6 0 0 1 6-6h3.03c-.02-.664-.03-1.33-.03-2 0-35.898 29.102-65 65-65 35.899 0 65 29.102 65 65 0 .67-.01 1.336-.03 2H164a6 6 0 0 1 6 6v38a6 6 0 0 1-6 6h-3.03M135 157v-12a6 6 0 0 0-6-6H63a6 6 0 0 0-6 6v12m0-70h78" stroke="#000" stroke-width="12" stroke-linecap="round" stroke-linejoin="round"/></svg>