<svg xmlns="http://www.w3.org/2000/svg" width="192" height="192" viewBox="0 0 192 192"><path d="M24.064 156.19V35.8a19.805 19.805 0 0 1 29.709-17.152l104.26 60.194a19.806 19.806 0 0 1 0 34.304L53.773 173.34a19.807 19.807 0 0 1-29.709-17.152z" opacity=".6"/><path d="M39.037 39.103a2.36 2.36 0 0 0-2.36 2.36v6.682a2.36 2.36 0 0 0 2.36 2.36 2.36 2.36 0 0 0 2.36-2.36v-6.681a2.36 2.36 0 0 0-2.36-2.361m50.493.195v77.05H68.894a1.93 1.496 0 0 0-1.671 2.244l41.013 55.056a1.93 1.496 0 0 0 3.342 0l41.013-55.056a1.93 1.496 0 0 0-1.672-2.243h-20.636V62.827zM39.037 59.615a2.36 2.36 0 0 0-2.36 2.36v6.68a2.36 2.36 0 0 0 2.36 2.361 2.36 2.36 0 0 0 2.36-2.36v-6.681a2.36 2.36 0 0 0-2.36-2.36m0 20.51a2.36 2.36 0 0 0-2.36 2.36v6.682a2.36 2.36 0 0 0 2.36 2.36 2.36 2.36 0 0 0 2.36-2.36v-6.681a2.36 2.36 0 0 0-2.36-2.36m0 20.512a2.36 2.36 0 0 0-2.36 2.36v6.681a2.36 2.36 0 0 0 2.36 2.36 2.36 2.36 0 0 0 2.36-2.36v-6.68a2.36 2.36 0 0 0-2.36-2.361m0 20.512a2.36 2.36 0 0 0-2.36 2.36v6.681a2.36 2.36 0 0 0 2.36 2.36 2.36 2.36 0 0 0 2.36-2.36v-6.681a2.36 2.36 0 0 0-2.36-2.36m0 20.51a2.36 2.36 0 0 0-2.36 2.36v6.682a2.36 2.36 0 0 0 2.36 2.36 2.36 2.36 0 0 0 2.36-2.36v-6.681a2.36 2.36 0 0 0-2.36-2.36"/></svg>