<svg xmlns="http://www.w3.org/2000/svg" width="192" height="192" viewBox="0 0 192 192"><path d="M96 19a26.288 26.288 0 0 0-22.207 40.317L59.317 73.793A26.288 26.288 0 0 0 19 96a26.288 26.288 0 0 0 51.913 5.775h50.173a26.3 26.3 0 0 0 3.427 8.27l-14.476 14.476a26.288 26.288 0 0 0-40.317 22.207A26.296 26.296 0 0 0 96 173a26.288 26.288 0 0 0 22.207-40.317l14.476-14.476A26.288 26.288 0 0 0 173 96a26.288 26.288 0 0 0-51.913-5.775H70.914a26.2 26.2 0 0 0-3.427-8.27l14.476-14.476a26.288 26.288 0 0 0 40.317-22.207A26.29 26.29 0 0 0 96 19"/></svg>