<svg xmlns="http://www.w3.org/2000/svg" width="192" height="192" viewBox="0 0 192 192"><path d="M95.993 16A80 80 0 0 0 16 95.993 80 80 0 0 0 95.993 176 80 80 0 0 0 176 95.993 80 80 0 0 0 95.993 16m2.102 3.265a74.274 74.274 0 0 1 74.268 74.298 74.274 74.274 0 0 1-74.268 74.268 74.274 74.274 0 0 1-74.283-74.268 74.274 74.274 0 0 1 74.283-74.298m4.293 12.135a57.244 57.244 0 0 0-57.244 57.244 57.244 57.244 0 0 0 57.244 57.244 57.244 57.244 0 0 0 57.244-57.244A57.244 57.244 0 0 0 102.388 31.4m-7.454 28.16a36.78 36.78 0 0 1 36.792 36.776 36.78 36.78 0 0 1-36.791 36.776 36.78 36.78 0 0 1-36.776-36.776A36.78 36.78 0 0 1 94.935 59.56m-9.302 20.259v32.78l26.371-16.8z"/></svg>