<svg xmlns="http://www.w3.org/2000/svg" width="192" height="192"><path d="M50.196 30.859a3.84 3.84 0 0 0-2.142.723l-.222.158a4.39 4.39 0 0 0-.996 6.123l13.235 18.382C47.435 65.227 38.555 78.815 36.13 94.43c-.565 3.61 2.4 6.65 6.048 6.65h107.82c3.648 0 6.613-3.04 6.047-6.65-2.426-15.615-11.311-29.203-23.954-38.185l13.242-18.382c1.411-1.964.969-4.712-.995-6.123l-.222-.158a3.866 3.866 0 0 0-5.394.88l-13.926 19.334c-8.546-4.423-18.322-6.929-28.708-6.929s-20.156 2.506-28.702 6.929L53.459 32.463a3.87 3.87 0 0 0-3.259-1.604zM69.992 72.41c3.74 0 6.77 3.129 6.77 6.985s-3.03 6.973-6.77 6.973-6.776-3.116-6.776-6.973 3.036-6.985 6.776-6.985m52.187 0c3.74 0 6.77 3.129 6.77 6.985s-3.03 6.973-6.77 6.973-6.77-3.116-6.77-6.973 3.03-6.985 6.77-6.985M26.945 95.566a10.24 10.24 0 0 0-5.191 1.09l-.134.064a10.243 10.243 0 0 0-4.519 13.76l2.39 4.742a10.243 10.243 0 0 0 13.76 4.52l.14-.064a10.243 10.243 0 0 0 4.52-13.76l-2.396-4.742a10.24 10.24 0 0 0-8.57-5.61m138.11 0a10.24 10.24 0 0 0-8.57 5.61l-2.396 4.741a10.243 10.243 0 0 0 4.52 13.761l.139.064a10.243 10.243 0 0 0 13.76-4.52l2.39-4.741a10.243 10.243 0 0 0-4.519-13.761l-.133-.064a10.24 10.24 0 0 0-5.191-1.09m-116.37 12.785c-1.444 0-2.862.121-4.24.342 1.294 6.627-1.894 13.573-8.216 16.772a15.46 15.46 0 0 1-12.5.647 26.4 26.4 0 0 0-1.445 8.64c0 14.58 11.82 26.395 26.401 26.395h94.796c14.581 0 26.395-11.814 26.395-26.395 0-3.05-.508-5.978-1.458-8.703a15.45 15.45 0 0 1-12.652-.584c-6.334-3.2-9.516-10.164-8.208-16.798a26 26 0 0 0-4.076-.317z"/></svg>