<svg width="192" height="192" fill="none" xmlns="http://www.w3.org/2000/svg"><path d="M93.657 161.532A7.997 7.997 0 0 1 88 163.875m10.343-2.343a8 8 0 0 0 5.657 2.343m-5.66-2.344-2.34-2-2.34 2M87 134.143 95 133l8 1.143L95 141l-8-6.857Z" stroke="#000" stroke-width="10" stroke-linecap="round" stroke-linejoin="round"/><path d="M63 72a3 3 0 1 1 0 6 3 3 0 0 1 0-6Zm66 6a3 3 0 1 0 0-6 3 3 0 0 0 0 6Z" stroke="#000" stroke-width="6" stroke-linecap="round" stroke-linejoin="round"/><path d="M78 43c8 33 4 69 4 69l-10 7S60 87 30 82m84-39c-8 33-4 69-4 69l10 7s12-32 42-37m-74 81.875c-24 0-23.96-53.615-64.44-32.465M104 163.875c24 0 23.96-53.615 64.44-32.465M45 32H27a6 6 0 0 0-6 6v16m126-22h18a6.002 6.002 0 0 1 6 6v16" stroke="#000" stroke-width="10" stroke-linecap="round" stroke-linejoin="round"/><path d="M23.556 131.411A75.002 75.002 0 0 1 96 37a74.998 74.998 0 0 1 72.444 94.411" stroke="#000" stroke-width="10" stroke-linecap="round" stroke-linejoin="round"/><path d="M60.455 43.859A16 16 0 0 0 45 32m86.545 11.859A16.003 16.003 0 0 1 147 32M21 54a16 16 0 0 0 11.859 15.455M171 54a16 16 0 0 1-11.859 15.455" stroke="#000" stroke-width="10" stroke-linecap="round" stroke-linejoin="round"/></svg>