<svg xmlns="http://www.w3.org/2000/svg" width="192" height="192" viewBox="0 0 192 192"><path d="M96 19a76.833 76.833 0 0 0-76.816 76.816A76.833 76.833 0 0 0 96 172.641a76.833 76.833 0 0 0 76.825-76.825A76.833 76.833 0 0 0 96 19M69.63 31.594a8.78 8.78 0 0 1 8.787 8.779 8.78 8.78 0 0 1-8.787 8.787 8.78 8.78 0 0 1-8.77-8.787 8.78 8.78 0 0 1 8.77-8.779M96 69.48a26.353 26.353 0 0 1 26.335 26.335A26.353 26.353 0 0 1 96 122.15a26.353 26.353 0 0 1-26.335-26.335A26.353 26.353 0 0 1 96 69.48m32.735 53.21 24.718 14.254-24.718 14.271z" opacity=".4"/><path d="M96 29.858a65.9 65.9 0 0 0-21.133 3.49 8.81 8.81 0 0 1 3.55 7.017 9 9 0 0 1-.06 1.078 57.3 57.3 0 0 1 17.644-2.798 57.103 57.103 0 0 1 57.17 57.171 57 57 0 0 1-11.447 34.361l7.598 4.39a65.63 65.63 0 0 0 12.646-38.75c0-36.364-29.587-65.95-65.958-65.95zM60.877 40.023a65.97 65.97 0 0 0-30.844 55.794c0 36.38 29.587 65.958 65.958 65.958a65.7 65.7 0 0 0 44.637-17.429l-11.893 6.87v-8.513A56.9 56.9 0 0 1 96 152.987a57.103 57.103 0 0 1-57.171-57.17A57.07 57.07 0 0 1 64.951 47.79a8.81 8.81 0 0 1-4.09-7.418z" opacity=".6"/><path d="M60.895 39.988a66.05 66.05 0 0 0-26.07 80.495 66.05 66.05 0 0 0 74.959 39.837A35.94 35.94 0 0 0 136.975 173a35.935 35.935 0 0 0 35.935-35.935 35.935 35.935 0 0 0-35.935-35.952 35.935 35.935 0 0 0-35.944 35.944 35.9 35.9 0 0 0 3.56 15.29 57.12 57.12 0 0 1-61.613-35.165 57.1 57.1 0 0 1 21.99-69.381 8.81 8.81 0 0 1-4.108-7.435l.026-.385zm67.849 82.703 24.71 14.254-24.718 14.271z"/></svg>