<svg width="192" height="192" fill="none" xmlns="http://www.w3.org/2000/svg"><path d="M109 76h-6a6 6 0 0 0-6 6v28" stroke="#000" stroke-width="12" stroke-linecap="round" stroke-linejoin="round"/><path d="m88 52 8-10 8 10H88Zm52 36 10 8-10 8V88Zm-52 52 8 10 8-10H88ZM52 88l-10 8 10 8V88Z" stroke="#000" stroke-width="8" stroke-linejoin="round"/><path d="M91 104a6 6 0 1 1 0 12 6 6 0 0 1 0-12Z" stroke="#000" stroke-width="12" stroke-linejoin="round"/><path d="M96 170c40.869 0 74-33.131 74-74 0-40.87-33.131-74-74-74-40.87 0-74 33.13-74 74 0 40.869 33.13 74 74 74Z" stroke="#000" stroke-width="12" stroke-linejoin="round"/></svg>