<svg xmlns="http://www.w3.org/2000/svg" width="192" height="192" viewBox="0 0 192 192"><path d="M41.321 16.002c-8.84.16-16.88 7.28-16.88 17.168v125.67c0 13.2 14.288 21.44 25.728 14.84l54.401-31.408 54.409-31.408c11.44-6.6 11.44-23.12 0-29.712L50.159 18.327a17.04 17.04 0 0 0-8.84-2.32m33.52 36.016a4.8 4.8 0 0 1 2.48.48c16 8.4 23.6 23.584 27.2 36.096.592 3.92-4.68 5.736-6.624 2.28a57.6 57.6 0 0 0-12.68-12.576c-1.808-1.272-3.36-.368-3.36 1.84v47.025c0 9.296-8.704 16.84-19.44 16.84s-19.44-7.544-19.44-16.84c0-9.304 8.704-16.848 19.44-16.848 2.672 0 5.328.48 7.784 1.408V57.191a4.984 4.984 0 0 1 4.64-5.168"/></svg>