<svg xmlns="http://www.w3.org/2000/svg" width="192" height="192" viewBox="0 0 192 192"><path d="M41.934 25.229q-5.096.425-9.342 2.549c-4.246 1.981-7.643 4.81-9.908 8.49v.283c-.283 0-.283.284-.566.567-1.982 3.396-3.114 7.36-3.114 11.607v94.543c0 9.058 5.096 16.984 13.021 20.947 3.397 1.698 7.076 2.547 10.19 2.547 5.094 0 9.908-1.697 14.153-4.811l39.63-30.29 34.24 25.983 1.439-6.182-8.54-7.377-.03-.027c-.976-.878-1.806-2.155-2.112-3.564a7 7 0 0 1 .256-3.8h-.002a7.3 7.3 0 0 1 1.01-1.864l-14.94-11.377.284-.284h-.283l2.832-2.265 21.512-16.418 16.08 12.383q.581-.106 1.176-.108c1.243 0 2.48.37 3.496.95 1.252.715 2.273 1.938 2.798 3.199l1.067 2.533 3.69 2.84v4.947l10.925.957.108.016a7.6 7.6 0 0 1 1.986.554V48.722c0-9.058-5.094-16.982-13.02-20.945q-4.246-2.123-9.342-2.548c-5.095 0-10.19 1.415-14.436 4.812L96.563 60.047l-.283-.283-.283.283-39.63-30.006c-4.245-3.397-9.34-4.812-14.435-4.812zm.566 13.305c1.982 0 3.962.85 5.66 1.982l36.8 27.74-24.344 19.25-28.307-22.08v-16.7c0-3.963 2.265-7.36 5.662-9.06 1.415-.848 3.114-1.132 4.529-1.132m107.26.328a10.24 10.24 0 0 1 4.834 1.088c.85.283 1.7.848 2.266 1.414 1.982 1.698 3.113 4.248 3.113 7.361v16.982l-28.307 21.797L107.32 68.54l36.801-27.74a10 10 0 0 1 5.639-1.937zM96.002 76.75l11.89 9.34 12.454 9.625-22.928 17.834-.85.564-.568.567h-.28l-1.983-1.698-22.361-17.268zm-63.69 5.66 17.267 13.305-17.268 13.305V82.41zm127.66.284v26.609l-17.269-13.305 17.268-13.305zm-99.356 21.514h.284l24.346 18.965s-17.834 13.587-28.025 21.23l-9.059 6.793c-3.114 2.547-7.076 2.83-10.473 1.132s-5.377-4.812-5.377-8.775v-17.268l.281-.283 6.229-4.81c7.643-5.945 21.795-16.985 21.795-16.985zm88.305 16.557q-.773 0-1.511.421-.74.422-1.09 1.266l-5.275 12.518-13.643 1.195q-.985.142-1.547.635-.563.492-.844 1.266a2.8 2.8 0 0 0-.106 1.582q.176.809.88 1.441l10.337 8.932-3.094 13.29q-.21.914.141 1.653.352.738.984 1.23.633.493 1.477.563c.844.07 1.102-.094 1.617-.422l11.674-7.033 11.674 7.033q.774.492 1.617.422a2.7 2.7 0 0 0 1.477-.562 3.4 3.4 0 0 0 .984-1.23q.353-.74.141-1.653l-3.094-13.291 10.338-8.932q.704-.633.88-1.441.174-.81-.106-1.582c-.28-.772-.469-.938-.844-1.266q-.562-.492-1.547-.635l-13.643-1.195-5.275-12.518q-.352-.844-1.09-1.266a3 3 0 0 0-1.512-.421m0 9.986 4.079 9.564 10.268.914-7.807 6.75 2.322 10.127-8.861-5.414-8.861 5.344 2.322-10.057-7.807-6.82 10.268-.914 4.078-9.494zm24.045 14.838-6.802 5.877 1.627 6.992a21.63 21.63 0 0 0 5.176-12.869zm-24.045 18.385-3.75 2.258a22.7 22.7 0 0 0 4.893.533q1.605 0 3.137-.215z"/></svg>