<svg xmlns="http://www.w3.org/2000/svg" width="192" height="192" viewBox="0 0 192 192"><path d="M135.91 161.95c4.246 3.114 9.058 4.812 14.153 4.812q5.52 0 10.19-2.548c8.209-3.962 13.021-11.889 12.738-20.664V48.724c0-9.058-5.095-16.983-13.021-20.946q-4.245-2.124-9.341-2.548c-5.095 0-10.19 1.415-14.436 4.812l-39.63 30.005-.282-.283-.283.283-39.63-30.005c-4.245-3.397-9.34-4.812-14.435-4.812q-5.095.424-9.342 2.548c-4.246 1.981-7.642 4.812-9.907 8.492v.283c-.283 0-.283.283-.566.566a22.95 22.95 0 0 0-3.114 11.606v94.544c0 9.058 5.096 16.984 13.021 20.947 3.397 1.698 7.077 2.547 10.19 2.547 5.096 0 9.908-1.698 14.153-4.812l39.63-30.288zm24.061-18.399v.283c0 3.68-1.981 7.077-5.378 8.775s-7.36 1.132-10.473-1.132l-36.8-28.024.284-.283h-.283l2.83-2.265 21.513-16.418 28.307 21.796zm0-60.859V109.3l-17.267-13.304h.283-.283zm-15.852-41.894c3.114-2.265 7.077-2.548 10.473-.85.85.284 1.698.85 2.265 1.416 1.981 1.698 3.113 4.246 3.113 7.36v16.984l-28.307 21.796-24.344-18.965zM32.309 65.425V48.724c0-3.963 2.265-7.36 5.661-9.058 1.416-.85 3.114-1.132 4.53-1.132 1.98 0 3.962.849 5.66 1.981l36.8 27.741-24.344 19.25zm0 43.592V82.409l17.267 13.304h-.283.283zm24.91 35.383-9.058 6.794c-3.114 2.547-7.077 2.83-10.473 1.132s-5.378-4.812-5.378-8.775v-17.267l.283-.283 6.227-4.812c7.643-5.945 21.796-16.984 21.796-16.984h.283l24.344 18.965S67.41 136.757 57.22 144.4zm38.78-29.722h-.283l-1.982-1.698-22.362-17.267L96 76.748l11.89 9.34 12.454 9.625-22.928 17.833-.849.566z"/></svg>