<svg width="191" height="192" fill="none" xmlns="http://www.w3.org/2000/svg"><path d="M88.537 22H38.828a6 6 0 0 0-6 6v47a6 6 0 0 0 6 6h19.833a6 6 0 0 0 6-6V55a6 6 0 0 1 6-6h17.844a6 6 0 0 1 6 6v20a6 6 0 0 0 6 6h15.854a6 6 0 0 1 6 6v18a6 6 0 0 1-6 6h-15.854a6 6 0 0 0-6 6v20a6 6 0 0 1-6 6H70.662a6 6 0 0 1-6-6v-20a6 6 0 0 0-6-6H38.828a6 6 0 0 0-6 6v47a6 6 0 0 0 6 6h49.709" stroke="#000" stroke-width="12" stroke-linecap="round" stroke-linejoin="round"/><path d="M88.536 170c19.524 0 38.248-7.796 52.054-21.674 13.805-13.878 21.561-32.7 21.561-52.326 0-19.626-7.756-38.448-21.561-52.326C126.784 29.796 108.06 22 88.536 22" stroke="#000" stroke-width="12" stroke-linecap="round" stroke-linejoin="round"/></svg>