<svg width="191" height="192" fill="none" xmlns="http://www.w3.org/2000/svg"><path d="M83.563 32c0-3.314 2.672-6 5.968-6h11.938c3.296 0 5.969 2.686 5.969 6v128c0 3.314-2.673 6-5.969 6H89.531c-3.296 0-5.969-2.686-5.969-6V32Zm-48.334-2.904c.344-3.295 3.281-5.686 6.56-5.34l11.872 1.255c3.278.346 5.656 3.298 5.312 6.594l-13.31 127.299c-.345 3.295-3.282 5.686-6.56 5.34l-11.872-1.255c-3.279-.346-5.657-3.298-5.312-6.594l13.31-127.299Zm121.363 0a6 6 0 0 0-6.594-5.34l-11.935 1.255a6 6 0 0 0-5.34 6.594l13.38 127.299a6 6 0 0 0 6.594 5.34l11.935-1.255a5.998 5.998 0 0 0 5.339-6.594L156.592 29.096Z" stroke="#000" stroke-width="12" stroke-linecap="round" stroke-linejoin="round"/></svg>