<svg width="192" height="192" fill="none" xmlns="http://www.w3.org/2000/svg"><path d="M84 32a6 6 0 0 1 6-6h12a6 6 0 0 1 6 6v128a6 6 0 0 1-6 6H90a6 6 0 0 1-6-6V32Zm-48.587-2.904a6 6 0 0 1 6.594-5.34l11.935 1.255a6 6 0 0 1 5.34 6.594l-13.38 127.299a6 6 0 0 1-6.594 5.34l-11.935-1.255a6 6 0 0 1-5.34-6.594l13.38-127.299Zm121.179 0a6 6 0 0 0-6.594-5.34l-11.935 1.255a6 6 0 0 0-5.34 6.594l13.38 127.299a6 6 0 0 0 6.594 5.34l11.935-1.255a5.998 5.998 0 0 0 5.339-6.594L156.592 29.096Z" stroke="#000" stroke-width="12" stroke-linecap="round" stroke-linejoin="round"/></svg>