<svg xmlns="http://www.w3.org/2000/svg" xml:space="preserve" width="192" height="192" viewBox="0 0 50.8 50.8"><g style="stroke-width:3.14179;stroke-dasharray:none"><g style="opacity:1;stroke-width:2.89725;stroke-dasharray:none"><g style="stroke-width:3.0422;stroke-dasharray:none"><path d="M7.87 31.67v-8.237a2 2 135 0 1 2-2h5.933v8.574-8.574h3.998a4 4 45 0 1 4 4v6.237" style="opacity:1;fill:none;stroke:#000;stroke-width:3.0422;stroke-linecap:round;stroke-linejoin:round;stroke-dasharray:none;paint-order:stroke fill markers" transform="matrix(1.04216 0 0 1.04515 -2.385 -.57)"/></g><path d="M38.676 21.433h-7.63a2 2 135 0 0-2 2v6.237a2 2 45 0 0 2 2h7.63" style="opacity:1;fill:none;stroke:#000;stroke-width:3.0422;stroke-linecap:round;stroke-linejoin:round;stroke-dasharray:none;paint-order:stroke fill markers" transform="matrix(1.04216 0 0 1.04515 -1.889 -.57)"/><path d="M42.38 20.927v9.75" style="opacity:1;fill:none;stroke:#000;stroke-width:2.89725;stroke-linecap:round;stroke-linejoin:round;stroke-dasharray:none;paint-order:stroke fill markers" transform="matrix(1.0943 0 0 1.09743 -2.162 -1.135)"/></g><path d="M40.24 17.808c1.957-.125 2.81.015 4.296.873" style="opacity:1;fill:none;stroke:#000;stroke-width:3.14179;stroke-linecap:round;stroke-linejoin:round;stroke-dasharray:none;stroke-opacity:1;paint-order:stroke fill markers" transform="translate(-.026 -1.945)scale(1.01057)"/></g></svg>