<svg xmlns="http://www.w3.org/2000/svg" width="192" height="192" viewBox="0 0 192 192"><path d="M71 16a12.683 12.683 0 0 0-12.696 12.696v134.61A12.683 12.683 0 0 0 71 176.002h50a12.683 12.683 0 0 0 12.696-12.696V28.696A12.683 12.683 0 0 0 121 16zm3.272 14.424h43.455c6.83 0 12.33 5.031 12.33 11.283s-5.5 11.283-12.33 11.283H74.272c-6.829 0-12.33-5.031-12.33-11.283s5.501-11.283 12.33-11.283M96 89.613a6.55 6.55 0 0 1 4.512 1.808l-2.045 2.045A3.66 3.66 0 0 0 96 92.504a3.655 3.655 0 1 0 3.356 5.1H96v-2.89h6.378q.164.713.167 1.445A6.545 6.545 0 1 1 96 89.613"/></svg>