<svg xmlns="http://www.w3.org/2000/svg" width="192" height="192" viewBox="0 0 192 192"><path d="M121.75 16c-1.6-.016-3.2.08-4.736.32a10.4 10.4 0 0 0-2 .272L46.719 40.8c-4.616 2.12-10.2 6.92-13.192 11.36-4.872 7.24-6.752 17.064-4.84 25.304l34.736 98.535c.035.098.56-1.6 1.016-3.552 1.12-4.728 2.6-8.672 5.52-14.688 2.704-5.568 5.6-10.408 8.824-14.752l2.16-2.912.992.672c8.112 5.432 20.272 4.192 26.752-2.736 1.624-1.728 2.488-3.272 7.584-13.432l5.752-11.472 23.896-8.768a33.6 33.6 0 0 0 12.72-11.208c5.008-7.52 6.688-17.504 4.424-26.136l-11.704-32.8c-2.344-4.912-6.592-9.696-11.4-12.848-1.608-1.064-2.208-1.4-3.104-1.52a34.4 34.4 0 0 0-15.104-3.84zm-2.92 1.888c1.096-.016 2.576-.16 4.76-.016 4.624.32 5.56.696 7.824 1.496 4.032 1.432 9.984 3.52 14.464 9.776q2.375 2.784 3.92 5.848l12.024 34.56a31.44 31.44 0 0 1-4.264 21.944c-2.88 4.68-8.248 9.472-13.128 11.704l-21.24 7.632 27.568-55.663c0-.312-14.576-.152-16.4.176-4.16.752-9.144 4.016-11.328 7.424l-27.816 60.303a2.4 2.4 0 0 1-1.216.544 2.4 2.4 0 0 1-1.208-.544l-28.688-60.72a18.4 18.4 0 0 0-6.152-4.967c-2.944-1.48-4.92-1.744-13.168-1.744-4.168 0-7.536.096-7.48.224l41.44 81.91.952 1.089-1.544 1.96c-5.552 7.088-12.352 20-14.424 27.384a8 8 0 0 1-.576 1.624L30.614 78.2c-.528-1.768-1.056-2.824-1.08-7.2-.024-4.64.48-5.872 1.12-8.192a31.7 31.7 0 0 1 7.656-13.656c2.8-2.944 5.32-4.832 8.608-6.432l69.143-24.504a12.8 12.8 0 0 1 2.776-.32z"/></svg>