<svg xmlns="http://www.w3.org/2000/svg" width="192" height="192" viewBox="0 0 192 192"><path d="M109.51 16c-10.072 0-21.104 4.104-32.8 12.232l-.36.24-.064.048-1.04.704q-.392.32-.904.664a64 64 0 0 0-6.8 5.568c-4.936 5.064-10.568 13.52-10.232 20.72.152 3.04 1.36 5.52 3.576 7.368 1.992 1.656 4.496 2.496 7.424 2.496 5.992 0 12.56-3.448 17.048-6.368a8 8 0 0 1 .856-.608l2.352-1.664.76-.552c6.376-4.528 12.96-9.216 20.424-11.944 1.944-.712 3.624-1.04 5.176-1.04q1.152 0 2.24.256 3.408.84 4.912 4.048c1.712 3.736 1.304 9.64-1.04 14.984-3.2 7.32-8.704 14.544-16.344 21.456-3.904 3.52-7.496 6.248-10.696 8.08l-.288.168c-1.496.88-3.176 1.864-4.96 2.56l-.24.104q-.776.32-1.392.536c-7.472 2.12-2.928-4.848-2.928-4.848 1.648-2.072 3.328-3.736 5.104-5.472l3.104-3.16.24-.256c1.296-1.384 3.088-3.272 2.984-5.984-.16-3.608-3.6-5.864-6.856-5.96h-.232c-3.12 0-6.08 1.952-8.008 3.568a28 28 0 0 0-5.36 6.416c-1.992 3.336-6.176 11.864-2.104 18.672 1.632 2.72 4.36 4.096 8.096 4.096 2.608 0 5.696-.672 9.176-2l.032-.048c5.2-1.984 9.336-4.752 13.288-7.424l1.088-.704a101 101 0 0 0 12.576-10.032c9.376-8.68 15.008-17.2 18.232-27.6 1.312-4.232 3.152-12.44.896-20.16a26 26 0 0 0-9.56-13.744c-.536-.48-6.368-5.416-17.376-5.416M61.222 119.44c-3.36 0-6 2.8-6 6.368 0 3.512 2.728 6.36 6.08 6.36a5.76 5.76 0 0 0 4.28-1.912 6.4 6.4 0 0 0 1.648-4.488c0-3.544-2.64-6.328-6-6.328zm105.1 4.88-9.464 1.712v37.04c0 8.776 4.504 12.536 12.032 12.536 1.6 0 3.616-.4 3.616-.4v-6.28s-.896.024-1.44-.024c-3.92-.32-4.744-2.144-4.744-5.184zm-54.976.056-9.68 1.648v37.216c0 8.336 4.6 12.288 12.312 12.288 1.848 0 3.592-.376 3.592-.376v-6.192c-.104-.008-.816-.008-1.36-.032-4.064-.144-4.864-2.528-4.864-5.264v-20.936h6.224v-7.36h-6.224zm-75.408 10.272c-4.512 0-8.56 1.344-12.72 3.552l-1.072.56 2.536 6 1.44-.72c2.936-1.4 6.08-2.336 8.912-2.208 3.416.144 4.824 1.808 4.824 5.28v2.032H34.25c-8.992 0-14.584 5.048-14.744 12.88 0 7.456 5.864 13.872 14.016 13.872 6.576 0 12.144-2.256 15.904-6.24V148.4c0-10.352-6.976-13.744-13.496-13.744zm53.776.104c-4.136 0-10.504 1.28-16.232 7.744l-.008 32.72h9.624v-30.8c1.256-1.296 3.92-2.44 6.456-2.544 2.344-.096 3.864.416 3.864.416l2.664-6.32c-1.04-.552-3.496-1.216-6.368-1.216m46.68.208c-11.096 0-15.416 10.816-15.504 20.976-.064 6.416 2.224 12.896 6.408 16.576 2.56 2.248 6.08 3.488 10.176 3.488 2.24 0 4.56-.344 6.704-1.048 4.08-1.336 7.096-3.656 7.096-3.656l-2.664-5.8a17.6 17.6 0 0 1-10.16 3.392h-.016c-2.584 0-4.336-.912-5.48-2.216-1.688-1.952-2.456-5.936-2.24-10.176h20.352v-1c-.184-14.112-4.72-20.536-14.672-20.536m-70.464.4-9.44 1.624v38.168h9.44zm70.464 7.04c4.192 0 4.816 4.824 4.816 7.824h-10.224c.16-3.856 1.68-7.824 5.408-7.824m-100.34 13.52h3.784v11.744c-.936.688-2.832 1.28-4.904 1.28-3.792 0-5.504-3.08-5.44-6.672.072-2.968 1.824-6.352 6.56-6.352"/></svg>