<svg xmlns="http://www.w3.org/2000/svg" width="192" height="192" viewBox="0 0 192 192"><path d="M134.94 102.72a24.8 24.8 0 0 0-4.6-10.264c-4.6-6.376-12.568-10.088-22.832-10.088-16.288 0-26.016 11.144-29.032 22.656-2.48-8.144-9.904-13.808-17.168-15.936 5.664-4.24 8.68-10.08 8.68-16.808 0-6.2-2.48-11.864-6.904-15.576-6.728-5.664-15.576-6.728-26.2-6.728h-20.88v90.265h17.872c5.488 0 10.272 0 15.224-.176 15.224-.536 25.664-8.32 29.024-19.648 1.24 5.136 3.192 9.384 6.2 12.56 6.016 6.376 14.336 9.04 23.008 9.04 10.616 0 18.232-3.016 23.36-7.616l-7.432-8.672c-3.72 3.008-8.672 4.424-13.984 4.424-10.616 0-15.224-6.72-15.752-13.28h41.6v23.544h15.569V50.152h-15.568zM31.93 62.015h4.248c4.24 0 7.44.528 9.912 1.408 4.6 1.776 6.904 5.664 6.904 10.096 0 3.888-1.416 10.08-9.92 11.856-1.408.176-3.36.528-6.192.528H31.93zm17.52 64.953c-1.944.176-4.24.528-6.368.528h-11.16V97.944H42.01c3.184 0 6.72.176 8.848.704 7.08 1.952 11.152 6.904 11.152 13.456 0 7.256-3.712 13.096-12.56 14.864m44.249-21.944c1.416-6.728 6.2-11.328 13.28-11.328s11.856 4.24 13.272 11.328zm67.081-54.873h15.224v89.737H160.78z"/></svg>