<svg width="192" height="192" fill="none" xmlns="http://www.w3.org/2000/svg"><path d="M30 65.002a11.97 11.97 0 0 1 6.012-10.378l54-31.027a12.023 12.023 0 0 1 11.976 0l54 31.027A11.972 11.972 0 0 1 162 65.002v61.996c0 4.284-2.293 8.241-6.012 10.378l-54 31.027a12.025 12.025 0 0 1-11.976 0l-54-31.027A11.97 11.97 0 0 1 30 126.998V65.002Z" stroke="#000" stroke-width="12" stroke-linecap="round" stroke-linejoin="round"/><path d="M64 82.415a6 6 0 0 1 2.937-5.159l26-15.437a6 6 0 0 1 6.126 0l26 15.437a6 6 0 0 1 2.937 5.16v27.169a6 6 0 0 1-2.937 5.159l-26 15.437a6 6 0 0 1-6.126 0l-26-15.437A6 6 0 0 1 64 109.585v-27.17ZM96 98v30m0-30L69 81.969M96 98l27-16.031" stroke="#000" stroke-width="12" stroke-linecap="round" stroke-linejoin="round"/></svg>