<svg xmlns="http://www.w3.org/2000/svg" width="192" height="192" viewBox="0 0 192 192"><path d="M152.21 22.091c-5.416 0-10.886.836-16.062 2.5-7.28 2.336-15.131 6.277-19.515 9.797-8.32 6.672-14.363 17.176-16.515 28.64a24 24 0 0 1-.406 1.875 24 24 0 0 1-1.453 1.156l-1.407 1.063-1.546-.204c-8.952-1.224-20.332-.024-31.5 3.344a101.6 101.6 0 0 0-17.203 7.031 104 104 0 0 0-11.578 6.86c-6 4.04-12.168 9.95-15.344 14.734-3.408 5.127-4.454 10.663-3.11 16.39.36 1.528 1.74 4.601 2.5 5.593 1.744 2.272 3.772 3.72 6.516 4.656 3.856 1.312 8.262 1.2 12.734-.312 1.544-.52 4.614-2.059 5.734-2.89 3.84-2.849 7.207-6.587 16.703-18.563 2.144-2.688 6.412-7.725 9.156-10.766 9.576-10.64 16.958-16.12 22.422-16.64a9.9 9.9 0 0 1 5.313.985l.843.437-.062 4.188c-.12 7.464.15 12.585 1.078 20.297 1.232 10.272 3.004 18.185 5.812 25.937 1.76 4.848 5.048 12.229 7.032 15.78 3.712 6.649 8.276 12.493 13.156 16.829 8.055 7.168 16.88 10.393 23.625 8.625 1-.256 3.63-1.533 4.406-2.125 4.68-3.56 7.321-10.75 7.265-19.781-.064-9.216-2.252-17.602-7.156-27.578a112 112 0 0 0-9.547-16 113.6 113.6 0 0 0-20.937-22.797c-7.52-6.264-11.476-8.908-16.812-11.187l-1.14-.485.297-1.172c.16-.64.706-2.379 1.218-3.859l.922-2.672 1.063-.406c5.96-2.352 12.903-4.448 21.015-6.344 12.6-2.944 22.023-5.488 28.375-7.656 6.224-2.12 11.569-4.736 14.297-7 2.688-2.24 3.971-4.956 3.515-7.468a10.4 10.4 0 0 0-.703-1.922 8 8 0 0 0-1.343-2.11c-2.464-2.816-6.56-4.81-12.047-5.875a50.4 50.4 0 0 0-9.61-.906z"/></svg>