<svg width="192" height="192" fill="none" xmlns="http://www.w3.org/2000/svg"><path d="M80 62a5 5 0 1 0 0-10 5 5 0 0 0 0 10Zm55 23a5 5 0 1 0 0-10 5 5 0 0 0 0 10Zm-55 45a5 5 0 1 1 0 10 5 5 0 0 1 0-10ZM57 75a5 5 0 1 1 0 10 5 5 0 0 1 0-10Z" stroke="#000" stroke-width="10" stroke-linecap="round" stroke-linejoin="round"/><path d="M96 28a4 4 0 1 0 0-8 4 4 0 0 0 0 8Zm50.912 21.088a4 4 0 1 0 0-8 4 4 0 0 0 0 8ZM168 100a4 4 0 1 0 0-8 4 4 0 0 0 0 8Zm-21.088 50.912a4 4 0 1 0 0-8 4 4 0 0 0 0 8ZM96 164a4 4 0 1 1 0 8 4 4 0 0 1 0-8Zm-50.912-21.088a4 4 0 1 1 0 8 4 4 0 0 1 0-8ZM24 92a4 4 0 1 1 0 8 4 4 0 0 1 0-8Zm21.088-50.912a4 4 0 1 1 0 8 4 4 0 0 1 0-8Z" stroke="#000" stroke-width="8" stroke-linecap="round" stroke-linejoin="round"/><path d="M112 62a5 5 0 1 0 0-10 5 5 0 0 0 0 10Zm23 55a5 5 0 1 0-.001-10.001A5 5 0 0 0 135 117Zm-23 13a5 5 0 1 1-.001 10.001A5 5 0 0 1 112 130Zm-55-23a5 5 0 1 1 0 10 5 5 0 0 1 0-10Z" stroke="#000" stroke-width="10" stroke-linecap="round" stroke-linejoin="round"/><path d="M96 102a6 6 0 1 0 0-12 6 6 0 0 0 0 12Z" stroke="#000" stroke-width="12" stroke-linecap="round" stroke-linejoin="round"/></svg>