<svg width="192" height="192" fill="none" xmlns="http://www.w3.org/2000/svg"><path d="M96 65a36.999 36.999 0 1 0-74 0m148 0a37.008 37.008 0 0 0-10.837-26.163 37.005 37.005 0 0 0-40.322-8.02A37.004 37.004 0 0 0 96 65" stroke="#000" stroke-width="12" stroke-linecap="round" stroke-linejoin="round"/><path d="M22 65c0 8.587 1.871 16.97 5.018 25M170 65c0 54-74 100-74 100s-20.713-12.876-40.222-33M25 111h26l12-56 12 56h11l10 26 20-60 10 34h26" stroke="#000" stroke-width="12" stroke-linecap="round" stroke-linejoin="round"/></svg>