<svg width="192" height="192" viewBox="0 0 192 192" fill="none" xmlns="http://www.w3.org/2000/svg">
<path d="M96 170C136.869 170 170 136.869 170 96C170 55.1309 136.869 22 96 22C55.1309 22 22 55.1309 22 96C22 120.21 33.6262 141.705 51.6 155.205M96 170C87.8262 170 81.2 163.374 81.2 155.2M96 170C79.341 170 63.9678 164.495 51.6 155.205M81.2 155.2C81.2 147.026 87.8262 140.4 96 140.4C120.521 140.4 140.4 120.521 140.4 96C140.4 90.1883 139.283 84.6373 137.253 79.55M81.2 155.2V122.3C81.2 114.126 87.8262 107.5 96 107.5C114.71 107.5 130.717 95.9275 137.253 79.55M51.6 155.205V96C51.6 71.4786 71.4786 51.6 96 51.6C114.71 51.6 130.717 63.1725 137.253 79.55" stroke="black" stroke-width="12" stroke-linecap="round"/>
</svg>
