<svg width="192" height="192" fill="none" xmlns="http://www.w3.org/2000/svg"><ellipse cx="96" cy="126" rx="61" ry="44" stroke="#000" stroke-width="12" stroke-linecap="round" stroke-linejoin="round"/><path d="M109 141c0 1.182-.336 2.352-.99 3.444-.653 1.092-1.61 2.084-2.818 2.92-1.207.836-2.64 1.499-4.217 1.951A18.145 18.145 0 0 1 96 150c-1.707 0-3.398-.233-4.975-.685-1.577-.452-3.01-1.115-4.217-1.951-1.208-.836-2.165-1.828-2.818-2.92-.654-1.092-.99-2.262-.99-3.444" stroke="#000" stroke-width="10" stroke-linecap="round" stroke-linejoin="round"/><ellipse cx="96" cy="127" rx="3" ry="2" stroke="#000" stroke-width="6" stroke-linecap="round" stroke-linejoin="round"/><path d="M58.93 88s-21.389-62.901 2.037-65.896c23.426-2.996 17.315 59.905 17.315 59.905m37.022.107s3.959-27.594 1.98-30.55c-1.98-2.957-13.858 1.97-16.827-7.885C97.487 33.826 109.365 22 125.202 22c15.837 0 27.715 17.74 9.899 68" stroke="#000" stroke-width="12" stroke-linecap="round" stroke-linejoin="round"/><path d="M77 121v-14h-5m46 14v-14h-5" stroke="#000" stroke-width="10" stroke-linecap="round" stroke-linejoin="round"/></svg>