<svg width="192" height="192" version="1.1" viewBox="0 0 192 192" xmlns="http://www.w3.org/2000/svg"><path d="m76.16 29c-1.8523 3.2295-4.1684 6.1654-7.1172 8.4844-1.1583 0.90343-2.4816 1.5942-3.6953 2.4102-3.1627 2.1267-6.2734 4.6594-8.0762 8.0898-4.568 8.7101 2.8677 20.296-4.8633 27.893-6.0401 5.9353-15.138 7.743-23.408 8.291v23.949c3.0969-0.1127 6.1886-0.39337 9.2598-0.8418 5.3913-0.82294 10.697-2.128 15.855-3.8984 5.8779-2.0658 11.511-4.77 16.799-8.0644 5.8992-3.7222 14.474-10.932 15.316-18.223 0.46501-4.0217 0.26448-9.178-0.09766-13.223-0.58322-6.52-1.2815-12.14 1.1621-18.443 1.937-4.9664 5.4433-9.3456 9.1074-13.16 1.0668-1.1106 2.1469-2.1809 3.2129-3.2637z" opacity=".4"/><path d="m30 29c-0.64049 0-1 0.35951-1 1v54.17c8.271-0.54799 17.369-2.3577 23.408-8.293 7.731-7.5968 0.29531-19.181 4.8633-27.891 1.8029-3.4304 4.9135-5.9651 8.0762-8.0918 1.2137-0.81602 2.5369-1.5048 3.6953-2.4082 2.9489-2.3192 5.2648-5.2566 7.1172-8.4863z" opacity=".2"/><path d="m99.619 29c-1.0665 1.0833-2.1476 2.1525-3.2148 3.2637-3.6641 3.815-7.1704 8.1944-9.1074 13.16-2.4435 6.3028-1.7453 11.925-1.1621 18.445 0.36214 4.0446 0.56266 9.1985 0.097656 13.221-0.84279 7.2903-9.4179 14.502-15.316 18.225-5.288 3.2945-10.921 5.9987-16.799 8.0645-5.1585 1.7704-10.464 3.0736-15.855 3.8965-3.0719 0.44852-6.1642 0.72915-9.2617 0.8418v18.021c2.7484 0.0814 5.5832 0.05009 8.418-0.14648 0.55598-0.81959 1.3065-1.5508 2.168-2.043 1.0148-0.57995 2.2531-0.94922 3.4961-0.94922s2.4834 0.36946 3.498 0.94922c0.27934 0.15964 0.54753 0.34393 0.80078 0.54883 3.1023-0.7621 6.0748-1.8239 8.7949-3.2676 2.6204-1.3908 4.3217-3.1663 6.7324-4.7734 3.8515-2.5681 8.3251-4.4871 12.854-5.4551 2.5599-0.54742 5.2898-0.79327 7.8906-1.1133 3.6331-0.40395 7.1389-0.99891 10.543-2.4062 1.9806-0.58262 6.8645-3.2469 8.4277-4.6074 0.48185-0.19792 1.9266-1.4662 2.3476-1.873-1.3069-6.7507-0.43308-11.74 3.3398-17.566 0.30199-0.30559 1.0338-1.3616 1.4726-1.8359 2.2559-2.4393 4.5065-4.0535 7.5508-5.3887-0.22619-0.49268-0.29962-3.3844-0.40429-4.1641-0.0971-0.72248-0.21018-1.3972-0.36328-2.1543-0.59163-2.5618-1.2675-4.5287-2.2695-6.9668-0.48216-1.173-1.0144-3.6626-1.1504-4.9746-1.041-10.067 2.5838-20.049 7.2168-28.951h-20.744z" opacity=".8"/><path d="m126.59 74.642c-3.059-0.12085-6.1978 0.40637-9.2608 1.5674-3.0442 1.3352-5.2954 2.9501-7.5512 5.3894-0.43884 0.47433-1.1702 1.5308-1.4722 1.8364-3.773 5.8261-4.6466 10.816-3.3397 17.566 1.5647 5.2249 3.317 10.391 5.2525 15.49l11.491 31.628c0.6224 1.7131 1.1166 3.6372 3.2287 3.9789 0.88971 0.14799 1.8014-0.0677 2.5308-0.59862 1.2122-0.88941 1.6863-2.8186 2.1871-4.1992l14.26-39.432c0.89513-2.6186 2.192-6.1877 2.5731-8.8484 0.82835-5.8201-0.72155-11.729-4.2996-16.393-0.5775-0.5763-1.0903-1.3128-1.6948-1.9087-3.9308-3.8746-8.807-5.8771-13.905-6.0785zm-1.115 10.537c6.5478-0.04844 12.197 4.8713 12.92 11.521 0.77 7.093-4.3578 13.467-11.451 14.234-7.0885 0.76609-13.457-4.3573-14.227-11.446-0.7697-7.0885 4.3509-13.459 11.438-14.232 0.44332-0.04835 0.88351-0.07373 1.32-0.07696z"/><path d="m120.36 29c-4.633 8.9021-8.256 18.885-7.2148 28.951 0.13596 1.312 0.6682 3.8016 1.1504 4.9746 1.0019 2.4381 1.6778 4.4051 2.2695 6.9668 0.1531 0.75707 0.26613 1.4318 0.36328 2.1543 0.10468 0.77962 0.17812 3.6714 0.4043 4.1641 8.168-3.0959 16.877-1.6896 23.166 4.5098 0.60457 0.59585 1.1178 1.3339 1.6953 1.9102 0.24724-0.3841 0.0434-1.5368 0.0371-2.1426-0.0265-3.9841-0.76202-7.9335-2.1699-11.66-0.98926-2.5858-1.9367-4.4743-2.7422-7.2324-0.74715-2.627-1.2456-5.3189-1.4902-8.0391-0.71507-8.596 1.4015-16.917 5.1055-24.557zm-15.391 72.002c-0.42186 0.40758-1.866 1.6753-2.3477 1.873-1.5632 1.3604-6.447 4.0247-8.4277 4.6074-3.4039 1.4074-6.9115 2.0022-10.545 2.4062-2.6009 0.32003-5.3288 0.56588-7.8887 1.1133-4.528 0.96792-9.0014 2.887-12.854 5.4551-2.4108 1.6071-4.112 3.3825-6.7324 4.7734-2.7195 1.4433-5.6936 2.5055-8.7949 3.2676 0.88222 0.71359 1.5895 1.6704 1.998 2.6504l4.332 10.283 11.131 0.97461c0.97056-0.8399 1.8501-1.6851 2.873-2.5488 1.9746-1.6405 4.0796-3.1196 6.293-4.4199 3.8635-2.2577 8.0243-3.9611 12.361-5.0625 1.1682-0.29718 2.4311-0.4521 3.5918-0.73242l6.2031-0.77539c4.5508-0.536 8.8091-0.97934 13.182-2.4492 0.77451-0.26048 1.9864-0.61655 2.7031-0.96875-0.63435-1.5816-1.2297-3.343-1.8262-4.957-1.9355-5.0988-3.6872-10.265-5.252-15.49zm-67.551 24.99c-2.8345 0.19665-5.6678 0.22778-8.416 0.14648v11.596l3.4551-0.30274 4.332-10.283c0.16408-0.39382 0.3766-0.78435 0.62891-1.1562z" opacity=".6"/><path d="m30 19c-6.0075 0-11 4.9925-11 11v109c0.66554-0.29309 1.349-0.46584 1.998-0.55859l0.10742-0.01563 7.8945-0.6914v-107.73c0-0.64049 0.35951-1 1-1h132c0.64049 0 1 0.35951 1 1v132c0 0.64049-0.35951 1-1 1h-100.44l1.3125 5.6426v0.0039c0.30294 1.3132 0.218 2.92-0.42578 4.2715-0.013046 0.02739-0.02564 0.05475-0.039063 0.08203h99.592c6.0075 0 11-4.9925 11-11v-132c0-6.0075-4.9925-11-11-11h-132zm-11 132.79v10.207c0 3.427 1.6239 6.5227 4.1348 8.5508-0.036847-0.66109 0.021528-1.312 0.1582-1.9043v-0.0039l2.5469-10.941-6.8398-5.9082zm24.082 18.414-4.6367 2.793h9.2734l-4.6367-2.793z"/><path d="m34.222 164.27 8.8607-5.3446 8.8607 5.4149-2.3207-10.126 7.8059-6.751-10.267-0.9142-4.0787-9.5639-4.0787 9.4936-10.267 0.9142 7.8059 6.8213zm8.8607 1.2658-11.674 7.0323c-0.5157 0.3281-1.0548 0.4688-1.6174 0.4219s-1.0549-0.2344-1.4768-0.5626c-0.42194-0.3281-0.75011-0.7384-0.98452-1.2306-0.23441-0.4923-0.2813-1.0431-0.14065-1.6526l3.0942-13.291-10.337-8.9311c-0.46882-0.4219-0.76184-0.9024-0.87904-1.4416-0.11721-0.5391-0.0821-1.0666 0.10548-1.5823 0.18753-0.5157 0.46882-0.9376 0.84388-1.2658 0.37505-0.3281 0.89076-0.5391 1.5471-0.6329l13.643-1.1955 5.2743-12.517c0.2344-0.56258 0.5977-0.98452 1.09-1.2658 0.4922-0.28129 0.9962-0.42194 1.5119-0.42194s1.0197 0.14065 1.512 0.42194c0.4922 0.28129 0.8555 0.70323 1.09 1.2658l5.2742 12.517 13.643 1.1955c0.6564 0.0938 1.1721 0.3048 1.5471 0.6329 0.3751 0.3282 0.6564 0.7501 0.8439 1.2658s0.2227 1.0432 0.1055 1.5823c-0.1172 0.5392-0.4102 1.0197-0.879 1.4416l-10.338 8.9311 3.0942 13.291c0.1406 0.6095 0.0938 1.1603-0.1407 1.6526-0.2344 0.4922-0.5625 0.9025-0.9845 1.2306-0.4219 0.3282-0.9142 0.5157-1.4768 0.5626-0.5625 0.0469-1.1017-0.0938-1.6174-0.4219z"/></svg>
