<svg width="192" height="192" version="1.1" viewBox="0 0 192 192" xmlns="http://www.w3.org/2000/svg"><path d="m76.16 29c-1.8523 3.2295-4.1684 6.1654-7.1172 8.4844-1.1583 0.90343-2.4816 1.5942-3.6953 2.4102-3.1627 2.1267-6.2734 4.6594-8.0762 8.0898-4.568 8.7101 2.8677 20.296-4.8633 27.893-6.0401 5.9353-15.138 7.743-23.408 8.291v23.949c3.0969-0.1127 6.1886-0.39337 9.2598-0.8418 5.3913-0.82294 10.697-2.128 15.855-3.8984 5.8779-2.0658 11.511-4.77 16.799-8.0644 5.8992-3.7222 14.474-10.932 15.316-18.223 0.46501-4.0217 0.26448-9.178-0.09766-13.223-0.58322-6.52-1.2815-12.14 1.1621-18.443 1.937-4.9664 5.4433-9.3456 9.1074-13.16 1.0668-1.1106 2.1469-2.1809 3.2129-3.2637z" opacity=".4"/><path d="m30 29c-0.64049 0-1 0.35951-1 1v54.17c8.271-0.54799 17.369-2.3577 23.408-8.293 7.731-7.5968 0.29531-19.181 4.8633-27.891 1.8029-3.4304 4.9135-5.9651 8.0762-8.0918 1.2137-0.81602 2.5369-1.5048 3.6953-2.4082 2.9489-2.3192 5.2648-5.2566 7.1172-8.4863z" opacity=".2"/><path d="m99.619 29c-1.0665 1.0833-2.1476 2.1525-3.2148 3.2637-3.6641 3.815-7.1704 8.1942-9.1074 13.16-2.4435 6.3028-1.7453 11.925-1.1621 18.445 0.36214 4.0446 0.56266 9.1988 0.09766 13.221-0.84279 7.2903-9.4175 14.502-15.316 18.225-5.288 3.2945-10.921 5.9987-16.799 8.0645-5.1585 1.7704-10.464 3.0736-15.855 3.8965-3.0719 0.44852-6.1642 0.72915-9.2617 0.8418v18.021c9.148 0.27093 19.241-0.69674 27.176-4.9082 2.6204-1.3908 4.3217-3.1663 6.7324-4.7734 3.8515-2.5681 8.3236-4.4871 12.852-5.4551 2.5599-0.54742 5.2898-0.79329 7.8906-1.1133 3.6331-0.40395 7.1389-0.99886 10.543-2.4062 1.9806-0.58262 6.8645-3.2469 8.4277-4.6074 0.48185-0.19792 1.9266-1.4662 2.3477-1.873-1.3069-6.7507-0.43313-11.74 3.3398-17.566 0.30199-0.30559 1.0338-1.3616 1.4727-1.8359 2.2559-2.4393 4.5065-4.0535 7.5508-5.3887-0.22619-0.49268-0.29963-3.3844-0.4043-4.1641-0.0971-0.72248-0.21018-1.3972-0.36328-2.1543-0.59163-2.5618-1.2675-4.5287-2.2695-6.9668-0.48215-1.173-1.0144-3.6626-1.1504-4.9746-1.041-10.067 2.5838-20.049 7.2168-28.951z" opacity=".8"/><path d="m126.59 74.642c-3.059-0.12085-6.1978 0.40637-9.2608 1.5674-3.0442 1.3352-5.2954 2.9501-7.5512 5.3894-0.43884 0.47433-1.1702 1.5308-1.4722 1.8364-3.773 5.8261-4.6466 10.816-3.3397 17.566 1.5647 5.2249 3.317 10.391 5.2525 15.49l11.491 31.628c0.6224 1.7131 1.1166 3.6372 3.2287 3.9789 0.88971 0.14799 1.8014-0.0677 2.5308-0.59862 1.2122-0.88941 1.6863-2.8186 2.1871-4.1992l14.26-39.432c0.89513-2.6186 2.192-6.1877 2.5731-8.8484 0.82835-5.8201-0.72155-11.729-4.2996-16.393-0.5775-0.5763-1.0903-1.3128-1.6948-1.9087-3.9308-3.8746-8.807-5.8771-13.905-6.0785zm-1.115 10.537c6.5478-0.04844 12.197 4.8713 12.92 11.521 0.77 7.093-4.3578 13.467-11.451 14.234-7.0885 0.76609-13.457-4.3573-14.227-11.446-0.7697-7.0885 4.3509-13.459 11.438-14.232 0.44332-0.04835 0.88351-0.07373 1.32-0.07696z"/><path d="m120.36 29c-4.633 8.9021-8.256 18.885-7.2148 28.951 0.13596 1.312 0.66821 3.8016 1.1504 4.9746 1.0019 2.4381 1.6778 4.4051 2.2695 6.9668 0.1531 0.75707 0.26613 1.4318 0.36328 2.1543 0.10468 0.77962 0.17812 3.6714 0.4043 4.1641 8.168-3.0959 16.877-1.6896 23.166 4.5098 0.60457 0.59585 1.1178 1.3339 1.6953 1.9102 0.24724-0.3841 0.0434-1.5368 0.0371-2.1426-0.0265-3.9841-0.762-7.9333-2.1699-11.66-0.98926-2.5858-1.9367-4.4743-2.7422-7.2324-0.74715-2.627-1.2456-5.3189-1.4902-8.0391-0.71508-8.596 1.4015-16.917 5.1055-24.557zm-15.391 72.002c-0.4211 0.40696-1.8658 1.6752-2.3477 1.873-1.5632 1.3604-6.447 4.0247-8.4277 4.6074-3.4039 1.4074-6.9116 2.0022-10.545 2.4062-2.6009 0.32003-5.3288 0.5659-7.8887 1.1133-4.528 0.96792-9.0019 2.887-12.854 5.4551-2.4108 1.6071-4.112 3.3825-6.7324 4.7734-7.9343 4.211-18.025 5.1788-27.172 4.9082v22.096c1.9807 0.15163 3.9684 0.21542 5.957 0.1914 10.285-0.0478 20.332-2.609 28.59-8.9609 1.5478-1.1905 2.7107-2.3802 4.1641-3.6074 1.9746-1.6405 4.0796-3.1196 6.293-4.4199 3.8635-2.2577 8.024-3.9611 12.361-5.0625 1.1682-0.29718 2.4311-0.4521 3.5918-0.73242l6.2031-0.77539c4.5508-0.536 8.8095-0.97932 13.182-2.4492 0.77451-0.26048 1.9864-0.61655 2.7031-0.96875-0.63435-1.5816-1.2297-3.343-1.8262-4.957-1.9355-5.0988-3.6872-10.265-5.252-15.49z" opacity=".6"/><rect x="24" y="24" width="144" height="144" ry="6" fill="none" stroke="#000" stroke-linejoin="round" stroke-width="10" style="paint-order:normal"/></svg>
