<svg xmlns="http://www.w3.org/2000/svg" width="192" height="192" viewBox="0 0 192 192"><path d="M35.717 175.53a14.8 14.8 0 0 1-7.536-4.92c-3.336-4.384-3.168-.28-3.168-74.592s-.168-70.208 3.16-74.592c.896-1.192 2.848-2.824 4.36-3.648l2.728-1.504 99.232-.272v129.98l-23.192.272-3.784 6.496-.016-23.744H63.005v16.992h-7.872c-4.328 0-8.728.24-9.784.536a10.4 10.4 0 0 0-3.784 2.408c-3.6 3.6-3.776 8.56-.456 12.336 3.024 3.456-1.216 3.224 58.368 3.224h54.016V16.022h13.496v159.98l-64.864-.056c-35.68-.024-65.56-.216-66.416-.424zm67.264-56.016c.984-3.44 2.328-7.6 2.984-9.256 2.112-5.304 7.44-15.376 10.44-19.72l2.912-4.224-5.096-7.52a256 256 0 0 1-23.944-44.272l-3.248-7.744-.016 47.144 1.872.96c2.808 1.456 4.12 3.712 4.12 7.096 0 3.696-1.552 6.096-4.728 7.304-4.36 1.664-8.552-.016-10.384-4.16-1.76-3.976.064-8.8 3.928-10.416l1.68-.704-.296-46.848c-.002-.232-1.408 3.08-2.768 6.464-6.432 16.056-17.784 36.368-29.12 52.104q-.424.624 1.896 3.776c6.512 8.848 13.016 23.568 15.52 35.144l.296 1.384 32.16-.264z"/></svg>