<svg xmlns="http://www.w3.org/2000/svg" width="192" height="192" viewBox="0 0 192 192"><path d="M88.736 16c-.464.008-1.056.224-1.064 1.016 0 .8.832 2.48.784 6.376-.048 4.04-.984 6.775-6.624 13.679L59.49 64.478c-12.935 15.839-21.727 23.079-21.767 40.366s8.832 25.727 21.76 36.142 29.701 23.943 42.741 34.526c.296.24.672.496 1.136.488s1.056-.224 1.064-1.016c0-.8-.888-1.568-.848-5.456.048-4.032.456-6.48 6.128-13.36l23.471-28.446c13.007-15.783 21.063-22.855 21.103-39.934.04-17.087-8.912-26.407-20.375-35.294-15.079-11.695-32.606-26.447-44.022-35.998A1.76 1.76 0 0 0 88.736 16M77.21 67.357h12.623c8.16 0 13.12 7.664 13.12 11.919v44.014c.015 9.871 2.751 12.095 2.751 12.095s-2.848 1.496-7.344 1.496c-4.495 0-9.095-2.944-9.095-9.392V81.595H69.393v-7.04c0-3.831 3.68-7.199 7.816-7.199m21.375 0h24.239v10.855c0 1.84-.88 3.376-3.184 3.376h-10.391c-1.44 0-2.816-.24-3.656-1.608-.832-1.376-.864-3.76-2.16-6.376-1.28-2.616-3.984-4.527-4.856-5.167-.208-.16-.464-.352-.464-.616 0-.256.208-.464.464-.464z"/></svg>