<svg width="192" height="192" fill="none" xmlns="http://www.w3.org/2000/svg"><path d="m102.856 77.274-13.712 37.452m47.804-66.47-32.225 88.012a16.845 16.845 0 0 0 .569 12.952 17 17 0 0 0 9.615 8.758 17.128 17.128 0 0 0 13.029-.565 16.977 16.977 0 0 0 8.811-9.558l32.225-88.013a16.844 16.844 0 0 0-.569-12.952 16.998 16.998 0 0 0-9.615-8.758 17.132 17.132 0 0 0-13.029.565 16.978 16.978 0 0 0-8.811 9.558Zm-81.695-4.11-32.225 88.012a16.847 16.847 0 0 0 .569 12.952 17.001 17.001 0 0 0 9.615 8.758 17.134 17.134 0 0 0 13.03-.565 16.98 16.98 0 0 0 8.81-9.558l32.225-88.013a16.846 16.846 0 0 0-.569-12.952 17.002 17.002 0 0 0-9.615-8.758 17.134 17.134 0 0 0-13.03.565 16.977 16.977 0 0 0-8.81 9.558Z" stroke="#000" stroke-width="12" stroke-linecap="round" stroke-linejoin="round"/></svg>