<svg xmlns="http://www.w3.org/2000/svg" xml:space="preserve" width="192" height="192" viewBox="0 0 50.8 50.8"><g style="stroke:#000;stroke-width:2.57133;stroke-dasharray:none;stroke-opacity:1"><path d="M20.475 26.355a4.3 4.3 0 0 0-.92-2.484 4.3 4.3 0 0 0-2.214-1.456c-.761-.206-1.573-.197-2.345-.032-.772.164-1.507.479-2.192.871a10.44 10.44 0 0 0-3.432 3.176M20.46 36.593l.015-10.238M9.372 36.593V22.624" style="opacity:1;fill:none;fill-opacity:1;stroke:#000;stroke-width:2.57134;stroke-linecap:round;stroke-linejoin:round;stroke-dasharray:none;stroke-opacity:1;paint-order:markers fill stroke" transform="matrix(1.2311 0 0 1.23845 -5.721 -7.313)"/><path d="m27.28 16.237 7.2 19.933a.617.617.588 0 0 1.155.012l7.67-19.946" style="opacity:1;fill:none;fill-opacity:1;stroke:#000;stroke-width:2.57134;stroke-linecap:round;stroke-linejoin:round;stroke-dasharray:none;stroke-opacity:1;paint-order:markers fill stroke" transform="matrix(1.2311 0 0 1.23845 -8.327 -7.313)"/></g></svg>