<svg xmlns="http://www.w3.org/2000/svg" width="192" height="192" viewBox="0 0 192 192"><path d="M101.08 117.9c5.336 2.528 8.296 7.712 7.608 13.24a12.8 12.8 0 0 1-10.144 11.008c-7.032 1.496-14.16-3.44-15.152-10.488-1.064-7.536 4.192-14.224 11.584-14.76 2.088-.152 4.104.152 6.104 1m-47-16.424c-5.625-4.992-10.433-10.56-13.777-17.28-1.28-2.552-2.288-5.2-2.104-8.16.16-2.52 1.712-4.08 4.256-4.24 2.384-.152 4.592.544 6.728 1.48 6 2.616 11.064 6.576 15.616 11.184a78.4 78.4 0 0 1 14.552 20.448c.712 1.44 1.24 3.048 1.464 4.64.528 3.688-1.76 5.704-5.432 4.968-2.728-.552-5.176-1.8-7.536-3.2a100 100 0 0 1-13.76-9.84zm63.896-5.72c5.224-7.68 11.344-14.376 19.136-19.408 3.2-2.056 6.528-3.872 10.368-4.448.832-.128 1.712-.16 2.536-.04 2.768.424 4.136 2.52 3.8 5.64-.32 2.92-1.432 5.56-2.832 8.088-3.888 7.024-9.168 12.872-15.44 17.84-4.664 3.696-9.544 7.104-14.976 9.616a19.2 19.2 0 0 1-4.56 1.44c-3.248.584-5.32-1.456-4.976-4.752.32-3 1.72-5.6 3.208-8.136 1.152-1.976 2.464-3.856 3.736-5.84m-14.72-.552c-.88 2.608-1.664 5.168-2.632 7.656a8.8 8.8 0 0 1-1.76 2.576c-1.744 1.872-4.2 1.952-5.816-.024a18.4 18.4 0 0 1-2.76-4.8c-1.68-4.176-2.4-8.608-3.128-13.024a68 68 0 0 1-.824-17.296c.488-5.464 1.368-10.848 3.944-15.776.672-1.28 1.592-2.48 2.608-3.52 1.856-1.896 4.248-1.856 6.208-.056 2.064 1.896 3.192 4.36 4.088 6.936 1.776 5.08 2.464 10.344 2.656 15.696.256 7.32-.872 14.472-2.576 21.632zM28.047 121.3c9.008-2.096 17.968-1.976 26.944-.32 4.144.752 8.304 1.52 12.224 3.12 1.52.624 3.04 1.416 4.32 2.44 2.28 1.808 2.216 4.376.04 6.312-1.904 1.696-4.256 2.56-6.648 3.216-8.128 2.256-16.4 3.672-24.864 3.416-6.008-.184-11.92-1-17.52-3.336a14.4 14.4 0 0 1-5.144-3.344c-1.872-2-1.872-4.4.032-6.384 2.352-2.448 5.424-3.56 8.552-4.56.656-.2 1.32-.368 2.064-.56m143.83 13.64c-4.16 2.328-8.64 3.352-13.216 3.992-10.896 1.52-21.52 0-31.953-3.112a24 24 0 0 1-5.816-2.736c-1.848-1.144-2.56-2.928-1.888-4.512a7.2 7.2 0 0 1 2.048-2.64c1.856-1.52 4.136-2.24 6.4-2.864a91.2 91.2 0 0 1 18.904-3.216 57.6 57.6 0 0 1 19.608 2.008c2.72.784 5.328 1.816 7.56 3.6q.656.528 1.208 1.152c1.672 1.872 1.712 4.176 0 6-.816.88-1.856 1.528-2.856 2.32z"/></svg>