<svg xmlns="http://www.w3.org/2000/svg" width="192" height="192" viewBox="0 0 192 192"><path d="M96 16a7.62 7.62 0 0 0-7.62 7.62v7.618H65.525c-12.533 0-22.857 10.324-22.857 22.857v30.477c0 12.533 10.324 22.857 22.857 22.857v2.91L39.26 123.47a7.62 7.62 0 0 0-3.408 10.223 7.62 7.62 0 0 0 10.223 3.409l19.449-9.725v41.004a7.619 7.619 0 1 0 15.238 0v-15.238h30.477v15.238a7.619 7.619 0 1 0 15.238 0v-41.004l19.45 9.725a7.62 7.62 0 1 0 6.814-13.632l-26.264-13.13v-2.91c12.533 0 22.857-10.325 22.857-22.858V54.095c0-12.533-10.324-22.857-22.857-22.857H103.62V23.62A7.62 7.62 0 0 0 96 16M65.523 46.477h60.953c4.298 0 7.62 3.321 7.62 7.62v30.476c0 4.298-3.322 7.62-7.62 7.62H65.523c-4.298 0-7.62-3.322-7.62-7.62V54.096c0-4.298 3.322-7.619 7.62-7.619m15.238 15.238a7.62 7.62 0 0 0-7.62 7.62v.075a7.619 7.619 0 1 0 15.24 0v-.076a7.62 7.62 0 0 0-7.62-7.619m30.477 0a7.62 7.62 0 0 0-7.62 7.62v.075a7.619 7.619 0 1 0 15.24 0v-.076a7.62 7.62 0 0 0-7.62-7.619M80.761 107.43h30.477v30.475H80.761z"/></svg>