<svg xmlns="http://www.w3.org/2000/svg" width="192" height="192" viewBox="0 0 192 192"><path d="m173.04 135.26-1.768-1.656.32-2.384-2.088 1.152-2.2-1.04.464 2.376-1.696 1.696 2.424.288 1.152 2.16 1.008-2.192zm2.704-13.64-2.056-1.336-.072-2.416-1.872 1.552-2.352-.688.904 2.24-1.368 2.016 2.416-.144 1.48 1.92.616-2.352zm.256-13.928-2.24-.936-.464-2.352-1.592 1.808-2.416-.256 1.264 2.056-1.016 2.24 2.344-.576 1.808 1.624.216-2.384zm-2.168-13.712-2.344-.544-.904-2.24-1.264 2.064-2.416.176 1.624 1.808-.616 2.344 2.24-.976 2.056 1.304-.216-2.424zm-4.512-13.168-2.416-.112-1.264-2.056-.864 2.272-2.384.544 1.92 1.52-.184 2.408 2.016-1.296 2.24.904-.616-2.352zM18.96 135.26l1.768-1.656-.32-2.384 2.096 1.152 2.2-1.04-.472 2.376 1.696 1.696-2.416.288-1.12 2.16-1.048-2.192zm-2.704-13.64 2.056-1.336.08-2.416 1.872 1.552 2.344-.688-.904 2.24 1.376 2.016-2.424-.144-1.48 1.92-.608-2.352zM16 107.692l2.24-.936.496-2.352 1.592 1.808 2.384-.256-1.232 2.064.976 2.24-2.344-.584-1.808 1.624-.216-2.384zm2.16-13.712 2.344-.544.904-2.24 1.264 2.064 2.416.176-1.584 1.808.576 2.344-2.24-.976-2.056 1.304.216-2.424zm4.512-13.168 2.416-.112 1.304-2.056.824 2.272 2.384.544-1.912 1.52.184 2.408-2.024-1.296-2.24.904.656-2.344zm61.024 19.408v32.48a32.4 32.4 0 0 1 7.208 2.448 18.3 18.3 0 0 1 5.128 3.144c.616-1.12 4.44-2.816 5.088-3.144q2.145-.976 4.4-1.616zm42.976-6.784v38.904h.32a36.08 36.08 0 0 0-.32-38.936zm-61.312 0a36.08 36.08 0 0 0-.32 38.936h.32zm42.976 13.752V78.932a36.8 36.8 0 0 0-19.52-1.408zm18.336-30.096v6.856c12.828 13.307 15.449 33.436 6.456 49.584 1.696.432 3.32.896 4.944 1.4a46.5 46.5 0 0 0 5.408-21.864 47.12 47.12 0 0 0-16.808-35.976M84.56 70.668l1.04 1.552a43.2 43.2 0 0 1 22.88.504v-2.056h8.44a47.68 47.68 0 0 0-41.528 0zm-19.2 13.28v-6.856a47.2 47.2 0 0 0-16.88 36.08 46.4 46.4 0 0 0 5.408 21.872q2.44-.76 4.944-1.408c-9.045-16.173-6.422-36.363 6.456-49.688zm8.84 47.672a44 44 0 0 1 6.96.504l-.208-40.96 27.056 41.496a44 44 0 0 1 9.744-1.04q3.168 0 6.32.392V73.156h-13.208l.144 43.016L83.04 73.164H67.888v58.84a54 54 0 0 1 6.32-.4zm87.44 16.016a44 44 0 0 1-7.224-1.984c-5.448-1.984-10.824-4.688-16.24-6.456a68.8 68.8 0 0 0-20.456-3.608 38.4 38.4 0 0 0-16.712 3.6 18.4 18.4 0 0 0-5.088 3.144 19.2 19.2 0 0 0-5.12-3.136 38.4 38.4 0 0 0-16.712-3.608 69 69 0 0 0-20.456 3.6c-5.6 1.776-10.824 4.48-16.24 6.464a44 44 0 0 1-7.216 1.984l-2.384 3.104c10.72-1.52 21.152-6.384 31.504-8.584a69.6 69.6 0 0 1 20.176-1.408 34.4 34.4 0 0 1 9.272 2.128 27.4 27.4 0 0 1 3.968 2.056 17 17 0 0 1 3.208 2.416 17.3 17.3 0 0 1 3.216-2.416 27.4 27.4 0 0 1 3.968-2.056 34.4 34.4 0 0 1 9.456-2.128 69.6 69.6 0 0 1 20.28 1.48c10.24 2.016 20.672 7.216 31.176 8.584zm-66.984 2.56a24 24 0 0 0-2.88-2.24 33.6 33.6 0 0 0-10.832-4.648 44 44 0 0 0-21.36 1.08c-7.216 1.984-14.432 4.184-21.36 6.32a60 60 0 0 1-12.272 2.632l-.936 1.224q2.576.28 5.16.184a84 84 0 0 0 17.608-3.608 136 136 0 0 1 12.52-2.456 71.2 71.2 0 0 1 32.736 1.368q1.305.432 2.56.976c-.216-.104-.688-.608-.944-.824zm71.488 3.36a64 64 0 0 1-12.24-2.64c-7.208-2.16-14.176-4.36-21.32-6.344a44 44 0 0 0-21.4-1.08 32.9 32.9 0 0 0-10.824 4.616q-1.456.96-2.776 2.096c-.256.216-.616.72-.904.864a31 31 0 0 1 2.56-.976 71.2 71.2 0 0 1 32.696-1.336q6.345.92 12.56 2.488a85.4 85.4 0 0 0 17.568 3.608q2.576.168 5.16 0zm-117.2-16.712C30.832 100.564 58.8 58.284 99.28 60.74a52.8 52.8 0 0 1 34.024 15.304c16.106 15.998 20.058 40.557 9.784 60.8l5.048 2.136c4-8.016 6.08-16.848 6.064-25.8-1.12-44.8-50.304-71.584-88.536-48.216a58.16 58.16 0 0 0-27.84 48.216 57.6 57.6 0 0 0 6.064 25.8zM157.414 73.7l-2.712-3.896 6.496-4.544 2.64 3.6-1.2.832-1.616-2.272-1.44 1.016 1.472 2.088-1.152.832-1.52-2.096-1.472 1.008 1.688 2.456zm-4.768-6.608-1.192-1.328 2.384-2.136-2.2-2.272-2.384 2.168-1.224-1.336 5.92-5.272 1.184 1.304-2.344 2.128 2.208 2.416 2.344-2.088 1.184 1.336zM150.374 55.3l-1.696-1.48-4.256 4.872-1.336-1.16 4.224-4.872-1.696-1.48.936-1.08 4.76 4.04zm-10.464-.368-1.584-1.08.36-1.76-2.208-1.56-1.44 1.152-1.624-1.152 6.824-4.944 1.76 1.152zm-.648-4.216.76-2.672c0-.216.176-.432.288-.688a2.4 2.4 0 0 1-.504.504l-2.208 1.768zm-3.68-8.016-4.616 3.392-1.264 2.528-1.624-.8 1.256-2.48v-5.704l1.84.904-.176 3.208v.648a2.4 2.4 0 0 1 .472-.464l2.48-2.056zm-11.328 3.28-1.84-.64V43.5l-2.672-.944-1.12 1.48-1.592-.72 5.376-6.496 2.024.72zm-1.696-3.888v-2.816a2.4 2.4 0 0 1 0-.688 4 4 0 0 1-.368.616l-1.552 2.2zm-7.296-2.384a3.68 3.68 0 0 1-1.296 2.2 2.72 2.72 0 0 1-2.272.32 4 4 0 0 1-1.088-.464l.4-1.624q.376.424.904.576c.792 0 1.336-.32 1.624-1.48l1.08-4.584 1.736.4zm-11.256 1.08h-1.952l-.464-1.8h-2.816l-.688 1.728h-1.912l3.32-8.224h2.128zm-2.776-3.28-.688-2.704a8 8 0 0 1 0-.72c-.027.234-.09.464-.184.68l-1.008 2.64zm-7.328-5.016-2.128 8.08H89.75l-3.28-7.536h1.92l2.048 5.376q.145.365.216.752a4 4 0 0 1 0-.832l1.408-5.84zm-8.88 8.728-4.648.872-1.48-7.76 4.512-.832.248 1.408-2.704.504.32 1.736 2.56-.472.256 1.408-2.528.504.328 1.768 2.88-.648zm-9.416-6.16-.976 5.624.832 2.704-1.728.504-.8-2.672-3.928-4.144 1.944-.616 2.096 2.456.36.576v-.648l.32-3.216zm-5.84 10.136-1.808.792-1.224-1.376-2.56 1.16.208 1.8-1.76.8-.616-8.376 1.912-.864zm-3.976-1.664-1.872-2.088-.4-.584v.688l.32 2.816zm-5.408 5.992-1.48 1.008-2.56-3.968a16 16 0 0 1-.872-1.44q.264.689.36 1.008l1.336 5.52-1.224.8-4.48-3.616-.824-.688 1.152 1.696 2.384 3.608-1.376.872-4.32-6.568 2.192-1.408 3.936 3.064q.456.36.832.8c0-.4-.256-.8-.36-1.12l-1.16-4.8 2.128-1.376zm-9.6 6.424-1.44 1.264-1.592-.944-2.128 1.88.72 1.656-1.48 1.304-3.032-7.872 1.592-1.36zm-4.256-.432-2.424-1.376-.536-.432a1.6 1.6 0 0 1 .288.432l1.008 2.712zm-2.672 6.6-1.376 1.552-2.344-.432h-.856a.56.56 0 0 0-.616.176l-.288.368 2.272 1.984-1.192 1.328-5.952-5.232 1.88-2.128q1.889-2.112 3.6-.72a2.4 2.4 0 0 1 .512.616 2.4 2.4 0 0 1-.04 2.16.8.8 0 0 1 .368 0h.864l.576-.072zm-8.16-.76 1.664 1.44.504-.568a1.28 1.28 0 0 0 .36-.872 1.12 1.12 0 0 0-.4-.824q-.76-.696-1.584.248zm-1.4 12.272-1.44-1.008a4 4 0 0 0 1.184-.432c.09-.066 1.279-.958 1.12-1.768.37-1.8-2.055-.449-2.304.072a3.2 3.2 0 0 1-1.56.576 2 2 0 0 1-1.368-.4 1.84 1.84 0 0 1-.72-.8 1.6 1.6 0 0 1-.216-.96q0-.552.216-1.056a4 4 0 0 1 .576-1.04 4.8 4.8 0 0 1 .648-.976 2.4 2.4 0 0 1 .688-.576l1.36.936c-.702.122-1.038.823-1.544 1.224-1.483 2.079.989 2.197 1.736 1.152a3.2 3.2 0 0 1 .824-.464 3.2 3.2 0 0 1 .8-.256 1.6 1.6 0 0 1 .752 0q.408.12.76.36.488.32.8.832a2.4 2.4 0 0 1 .208.976 4 4 0 0 1-.248 1.04 7.2 7.2 0 0 1-1.408 2.024 3.2 3.2 0 0 1-.864.544m3.36 67.944 1.904-.72c-20.256-41.72 10.096-90.264 56.48-90.32 46.416-.112 76.888 48.472 56.576 90.216l1.912.72q1.632.6 3.32 1.08c22.832-47.584-14.408-102.04-67.04-98.016-35.845 2.739-63.487 32.699-63.336 68.648a67.7 67.7 0 0 0 6.568 29.44c1.264-.28 2.384-.64 3.608-1.04zm132.14 16.712-.832-.976c-4.472 0-8.984-.288-13.424-.72a72 72 0 0 1-10.824-1.664 95.7 95.7 0 0 0-20.208-3.6 72.8 72.8 0 0 0-24.136 3.24l-.216.216a5.84 5.84 0 0 1-8.264 0l-.112-.32a73.6 73.6 0 0 0-24.136-3.248 96.2 96.2 0 0 0-20.208 3.6 72 72 0 0 1-10.824 1.664c-4.44.432-8.952.72-13.424.72l-1.48 1.736 69.176-.904c.248 0 .936.576 1.184.72q.72.345 1.48.512a11 11 0 0 0 4.728 0 8 8 0 0 0 2.888-1.336l69.104.896z"/></svg>