<svg xmlns="http://www.w3.org/2000/svg" width="192" height="192" viewBox="0 0 192 192"><path d="M78.367 19H36.633c-9.74-.005-17.638 7.893-17.633 17.633v41.734c.042 9.72 7.912 17.591 17.633 17.633h41.734c9.72-.042 17.591-7.912 17.633-17.633V36.633c.005-9.74-7.893-17.638-17.633-17.633M72.9 67.895a24.13 24.13 0 0 1-17.094 13.937 42.8 42.8 0 0 1-11.781 1.001s-.693 0-.693-.539v-8.393c3.114.179 6.236-.16 9.24-1.001a15.4 15.4 0 0 0 11.704-10.78 1.7 1.7 0 0 1 0-.616 23 23 0 0 1-3.773 2.233c-7.371 3.123-15.906.077-19.635-7.007a17.28 17.28 0 0 1 2.618-19.404 17.8 17.8 0 0 1 15.4-6.314 16.26 16.26 0 0 1 13.167 7.084 21.4 21.4 0 0 1 3.542 8.778A44.5 44.5 0 0 1 72.9 67.895M57.5 39.559a5.99 5.99 0 0 0-5.544 3.619 10.78 10.78 0 0 0-.539 8.855 6.25 6.25 0 0 0 5.621 4.312c4.122.87 7.943-2.416 7.7-6.622a15.4 15.4 0 0 0-1.463-6.545 6.16 6.16 0 0 0-5.775-3.619M155.367 96h-41.734c-9.74-.005-17.638 7.893-17.633 17.633v41.734c.042 9.72 7.912 17.591 17.633 17.633h41.734c9.72-.042 17.591-7.912 17.633-17.633v-41.734c.005-9.74-7.893-17.638-17.633-17.633m-3.234 63.987h-35.189v-6.545a1.7 1.7 0 0 1 .462-1.078c4.235-3.927 8.47-7.7 12.628-11.858a40.2 40.2 0 0 0 8.162-10.164 10.27 10.27 0 0 0 1.386-6.391 6.93 6.93 0 0 0-7.084-6.314 17.1 17.1 0 0 0-10.01 3.003l-1.617 1.078c-1.078-2.695-2.156-5.39-3.157-8.085 0 0 0-.539.462-.77a24.8 24.8 0 0 1 9.24-4.081 25.67 25.67 0 0 1 13.167 0 14.8 14.8 0 0 1 10.626 13.86 21.9 21.9 0 0 1-5.39 15.4 74.4 74.4 0 0 1-10.703 10.703l-1.848 1.54h18.942zm-108.57-9.24c2.977.148 5.96-.138 8.855-.847a15.4 15.4 0 0 0 11.704-10.857 2.6 2.6 0 0 1 0-.693 23 23 0 0 1-3.773 2.233c-7.373 3.242-16 .255-19.789-6.853a17.28 17.28 0 0 1 2.618-19.404 17.8 17.8 0 0 1 15.4-6.314 16.26 16.26 0 0 1 13.167 7.084 21.4 21.4 0 0 1 3.542 8.778 44.5 44.5 0 0 1-2.387 21.098 24.13 24.13 0 0 1-16.94 13.937 42.8 42.8 0 0 1-11.781 1.001s-.77 0-.693-.539v-8.393zm20.79-23.947a15.4 15.4 0 0 0-1.463-6.545 6.16 6.16 0 0 0-5.39-3.619 5.99 5.99 0 0 0-5.544 3.619 10.78 10.78 0 0 0-.539 8.855 6.25 6.25 0 0 0 5.621 4.312c3.96.525 7.445-2.63 7.315-6.622m56.441-82.082c-1.078-2.772-2.156-5.467-3.157-8.162 0 0 0-.539.462-.693a24 24 0 0 1 9.24-4.158 26.5 26.5 0 0 1 13.167 0 14.8 14.8 0 0 1 10.626 13.86 22.24 22.24 0 0 1-5.39 15.4 73.6 73.6 0 0 1-10.703 10.626c-.539.462-1.155.924-1.848 1.617h18.942v9.702h-35.189a2.5 2.5 0 0 1 0-.693v-5.852a1.7 1.7 0 0 1 .462-1.078c4.235-3.927 8.47-7.7 12.628-11.858a41 41 0 0 0 8.162-10.087 10.52 10.52 0 0 0 1.386-6.468 6.93 6.93 0 0 0-7.084-6.314 17.1 17.1 0 0 0-10.01 3.003c-.616.385-1.155.693-1.694 1.155"/></svg>