<svg xmlns="http://www.w3.org/2000/svg" width="192" height="192" viewBox="0 0 192 192"><path d="M116.29 135.61a10.32 10.32 0 0 0-8.16-4.216c-1.112 0-2.784.8-3.673 1.4-2.512 1.736-3.536 6.792-1.056 11.753 2.353 4.72 8.36 5.496 12.073 2.936s3.073-8.488.808-11.873m55.683-78.02-2.92-2.368c-5.904-4.76-14.433-8.624-21.56-11.273-4.801-1.792-9.145-3.304-11.65-3.568a6.4 6.4 0 0 0-1.6-.024c-1.264.208-1.544 1.136-1.52 3.584.056 4.496 1.792 20.16 4.264 32.954.768 4.008.928 5.688.632 6.24-.104.2-.84.48-1.84.856a32 32 0 0 0-3.68 1.544c-9.385 4.88-12.537 7.537-19.281 13.505a72 72 0 0 0-2.128 1.944c-1.376 1.297-1.624 1.537-2.736 1.52l-1.864-1.071a808 808 0 0 0-11.45-6.52c-11.28-6.321-17.152-9.521-21.488-9.921-2.704-.248-3.465 1.328-3.8 2.416-.593 2-.865 13.785-.465 21.793.696 14.28 1.04 15.92 6.025 29.049 3.016 7.952 3.072 8.192 4.36 16.769q.368 2.536.76 5.536c.584 4.376 1.256 9.505 2.376 15.441-35.762-8.44-62.363-40.57-62.363-78.908 0-44.786 36.306-81.092 81.084-81.092a81.04 81.04 0 0 1 70.836 41.602m-11.473 43.378c-2.016-2.72-3.744-3.656-6.752-3.656a8 8 0 0 0-3.944 1.12c-2.249 1.544-3.6 7.12-1.136 10.985 3.168 4.24 7.712 4.464 10.993 2.256 2.304-1.544 3.04-7.4.84-10.705"/></svg>