<svg width="192" height="192" fill="none" xmlns="http://www.w3.org/2000/svg"><path d="M54 61c13 1 21-12 21-12s1 10 13 12 18-10 18-10 6 13 17 13" stroke="#000" stroke-width="10" stroke-linecap="round" stroke-linejoin="round"/><path d="M71.491 82.965c.272.048.804-1.677 1.187-3.852.384-2.176.475-3.978.203-4.026-.272-.048-.804 1.677-1.187 3.852-.384 2.176-.475 3.978-.203 4.026Zm27 3c.272.048.804-1.677 1.187-3.852.384-2.176.475-3.978.203-4.026-.272-.048-.804 1.677-1.187 3.852-.384 2.176-.475 3.978-.203 4.026Z" stroke="#000" stroke-width="8" stroke-linecap="round" stroke-linejoin="round"/><path d="m47 102 7.5-57L52 21l20 10s12-8 25-6 22 13 22 13l26-2-20 28-6 38m21 0 5-22" stroke="#000" stroke-width="10" stroke-linecap="round" stroke-linejoin="round"/><path d="M147 132v32a6.003 6.003 0 0 1-1.757 4.243A6.003 6.003 0 0 1 141 170H45a6 6 0 0 1-6-6v-54a6.002 6.002 0 0 1 6-6h102m-47 2-2 63" stroke="#000" stroke-width="12" stroke-linecap="round" stroke-linejoin="round"/><path d="m102 106 14 25 47-1-14.514-26.126A1.694 1.694 0 0 0 147 103" stroke="#000" stroke-width="10" stroke-linecap="round" stroke-linejoin="round"/><path d="M145 84a4 4 0 1 0 0-8 4 4 0 0 0 0 8Z" stroke="#000" stroke-width="8" stroke-linecap="round" stroke-linejoin="round"/></svg>