<svg xmlns="http://www.w3.org/2000/svg" width="192" height="192" viewBox="0 0 192 192"><path d="M132.99 82.561a18.183 18.055 0 0 0-7.464 34.519.992.984 0 0 0 1.304-.56l3.56-9.2a.992.984 0 0 0-.448-1.2 6.32 6.264 0 0 1 .856-11.368 6.4 6.36 0 0 1 8.224 4.12 6.304 6.256 0 0 1-2.984 7.24.992.984 0 0 0-.44 1.216l3.552 9.192a.992.984 0 0 0 1.304.56 18.183 18.055 0 0 0-7.464-34.52m-87.997.496a4 4 0 0 0-4 4 4 4 0 0 0 4 4h28a4 4 0 0 0 0-8zm-7 14.991a4 4 0 0 0-4 4.008 4 4 0 0 0 4.009 4h41.99a4.004 4.004 0 0 0 0-8.008zm7 15.015a4 4 0 0 0-4.008 4h.016a4 4 0 0 0 3.992 4h28a4 4 0 0 0 0-8z" opacity=".6"/><path d="M107.53 46.946a2.4 2.4 0 0 0-1.616.68c-1 .992-.888 2.68.232 3.792l10.912 10.856a43.2 43.2 0 0 0-14.479 9.375 6.005 6.005 0 0 0 8.496 8.488 30.999 30.999 0 1 1-9.064 21.92 42.96 42.96 0 0 0-34.623-42.175 43 43 0 0 0-7.335-.808 42.998 42.998 0 0 0-42.198 55.47 42.998 42.998 0 0 0 71.549 17.92 6 6 0 0 0-8.488-8.48A30.999 30.999 0 1 1 65.029 71.65a31 31 0 0 1 24.959 30.406 42.96 42.96 0 0 0 9.767 27.288 42.998 42.998 0 0 0 72.965-10.84 42.96 42.96 0 0 0-15.839-52.207 43.2 43.2 0 0 0-8.567-4.287l10.664-10.592c1.12-1.112 1.232-2.8.24-3.792-1.008-.992-2.712-.896-3.832.216l-12.032 11.944a3.2 3.2 0 0 0-.392.48 43.2 43.2 0 0 0-20.68.2 3.2 3.2 0 0 0-.511-.68l-12.032-11.944a3.04 3.04 0 0 0-2.208-.896m16.415 15.935a3.104 3.08 0 0 1 3.112 3.08 3.104 3.08 0 0 1-3.112 3.072 3.104 3.08 0 0 1-3.088-3.072 3.104 3.08 0 0 1 3.088-3.08m16.903 0a3.104 3.08 0 0 1 3.112 3.08 3.104 3.08 0 0 1-3.12 3.072 3.104 3.08 0 0 1-3.104-3.072 3.104 3.08 0 0 1 3.112-3.08"/></svg>