<svg xmlns="http://www.w3.org/2000/svg" width="192" height="192" viewBox="0 0 192 192"><path d="M60.062 53.008a43 43 0 0 0-42.21 55.471 43 43 0 0 0 71.562 17.926 6.002 6.002 0 0 0-8.489-8.489 30.996 30.996 0 1 1-15.873-52.33 30.996 30.996 0 0 1 24.953 30.41 43 43 0 0 0 9.764 27.284 43 43 0 0 0 72.96-10.836 42.984 42.984 0 0 0-15.841-52.19 42.984 42.984 0 0 0-54.29 5.332 6.002 6.002 0 0 0 8.488 8.489 30.996 30.996 0 1 1-9.079 21.92A42.984 42.984 0 0 0 67.4 53.818a43 43 0 0 0-7.338-.809zM45.013 76.997a3.98 3.98 0 0 0-3.995 3.996 3.98 3.98 0 0 0 3.995 3.995h28a4 4 0 0 0 0-7.991zm88.446.031a3.6 3.6 0 0 0-.855.218l-16.215 6.265a3.614 3.614 0 0 0 0 6.747l16.215 6.235a3.6 3.6 0 0 0 2.596 0l16.215-6.235a3.614 3.614 0 0 0 0-6.747L135.2 77.246a3.6 3.6 0 0 0-1.741-.218M38.017 91.984a3.98 3.98 0 0 0-3.995 4.011h-.016a3.98 3.98 0 0 0 4.011 3.996H80.01a4.003 4.003 0 0 0 0-8.007zm79.833 2.192a2.945 2.945 0 0 0-2.907 1.881 2.945 2.945 0 0 0 1.694 3.81l16.215 6.234a2.95 2.95 0 0 0 2.115 0l16.215-6.235a2.945 2.945 0 0 0 1.694-3.809 2.945 2.945 0 0 0-3.809-1.694l-15.158 5.845-15.158-5.845a3 3 0 0 0-.901-.187m0 8.69a2.945 2.945 0 0 0-2.907 1.882 2.945 2.945 0 0 0 1.694 3.81l16.215 6.249a2.95 2.95 0 0 0 2.115 0l16.215-6.25a2.945 2.945 0 0 0 1.694-3.809 2.945 2.945 0 0 0-3.809-1.694l-15.158 5.845-15.158-5.845a3 3 0 0 0-.901-.187zm-72.837 4.136a3.98 3.98 0 0 0-4.011 3.996h.015a3.98 3.98 0 0 0 3.996 3.995h28a4 4 0 0 0 0-7.99z"/></svg>