<svg xmlns="http://www.w3.org/2000/svg" width="192" height="192" viewBox="0 0 192 192"><path d="M47.699 172.8a34.2 34.2 0 0 1-10.387-3.286 32.17 32.17 0 0 1-14.888-14.87 30.8 30.8 0 0 1-3.397-14.666c0-6.374.727-8.325 3.311-8.838.907-.18 1.36-.017 2.336.856l1.198 1.078-.402 3.995c-.676 6.674.257 11.345 3.303 16.471 1.805 3.063 6.63 7.932 9.583 9.677 4.817 2.867 10.344 4.022 15.966 3.337 3.816-.462 5.022-.137 5.852 1.6.915 1.908-.308 3.97-2.618 4.44-2.105.429-7.726.54-9.857.206m77.484-2.053c-1.463-1.232-11.499-12.552-12.064-13.604a6.8 6.8 0 0 1-.428-2.516c0-1.506.171-1.89 1.412-3.131a5.13 5.13 0 0 1 2.935-1.652l1.523-.24v-7.76c0-7.332.043-7.854.821-9.377 1.472-2.875 3.337-3.662 8.719-3.662s7.238.787 8.71 3.662c.77 1.523.821 2.053.821 9.369v7.769l1.412.222c3.525.565 5.699 4.869 3.833 7.581-1.668 2.439-11.534 13.467-12.38 13.861-1.712.77-4.04.548-5.305-.513zm8.54-10.105c2.557-2.96 4.645-5.476 4.645-5.596s-1.318-.214-2.926-.214h-2.935l-.197-20.723-4.124-.103-4.132-.11-.368.957c-.197.54-.36 5.083-.36 10.447v9.498l-5.758.214 5.322 5.98c4.235 4.758 5.416 5.878 5.758 5.502zm-84.527-1.438A19.68 19.68 0 0 1 33.3 145.292c-.667-2.241-.787-7.717-.222-10.088.727-3.089 3.833-4.132 5.963-1.993 1.053 1.052 1.095 1.215.804 2.84-.17.941-.316 3.209-.325 5.023 0 2.806.129 3.568.907 5.082 1.181 2.327 4.278 5.134 6.477 5.887 1.951.658 5.742.752 8.171.196 2.054-.479 3.508.069 4.296 1.583.735 1.43.385 3.32-.788 4.244-.77.616-5.484 1.626-6.887 1.489zm98.02-8.41c-1.79-.428-3.047-1.464-3.988-3.312-.77-1.523-.822-2.053-.822-9.377v-7.77l-1.736-.256c-3.166-.479-5.254-3.919-4.065-6.725.634-1.523 11.807-14.152 12.98-14.69 1.54-.703 3.953-.514 5.22.41 1.249.898 10.764 11.85 11.859 13.647 1.745 2.858-.283 6.845-3.774 7.4l-1.411.223v7.77c0 7.323-.043 7.845-.83 9.368a5.73 5.73 0 0 1-4.15 3.329c-1.737.402-7.555.393-9.283-.018m9.043-15.298.094-10.353 5.896-.205-5.066-5.938c-2.78-3.26-5.133-5.938-5.244-5.938-.103 0-2.533 2.678-5.408 5.938l-5.22 5.938 2.927.103 2.935.111v9.728c0 6.11.145 9.994.385 10.447.36.668.727.719 4.492.625l4.107-.103zm-76.577 12.988c-1.625-.821-1.942-2.053-1.48-5.81a25.07 25.07 0 0 0-3.337-15.965c-1.745-2.952-6.614-7.77-9.677-9.583-5.133-3.037-9.805-3.97-16.47-3.294l-4.005.402-1.078-1.206c-.873-.976-1.027-1.42-.856-2.328.514-2.592 2.464-3.32 8.839-3.32 17.54 0 31.495 13.082 33.027 30.94.256 2.994-.291 8.008-1.001 9.146a3.85 3.85 0 0 1-2.61 1.489 4.3 4.3 0 0 1-1.352-.47m-14.349-.788c-1.403-.787-1.908-2.276-1.454-4.261.564-2.43.47-6.229-.197-8.18-.745-2.19-3.56-5.287-5.878-6.477-1.515-.77-2.285-.907-5.083-.898a34 34 0 0 0-5.03.325c-1.626.291-1.789.248-2.841-.813-2.14-2.13-1.095-5.227 2.002-5.963 2.37-.556 7.837-.437 10.088.23 9.403 2.712 15.343 11.97 13.887 21.648q-.42 2.806-1.198 3.679a3.72 3.72 0 0 1-4.295.71m-16.48-2.148a5.65 5.65 0 0 1-2.446-2.438c-1.044-1.977-1.061-3.363-.086-5.39 2.379-4.912 9.48-4.116 10.952 1.223 1.001 3.61-2.113 7.444-6.058 7.444a6.9 6.9 0 0 1-2.361-.839m87.683-61.022a33.37 33.37 0 0 1-21.459-11.55c-5.168-6.024-7.65-12.895-7.65-21.212 0-10.139 3.851-18.48 11.569-25.12 6.023-5.177 12.886-7.65 21.202-7.65s15.187 2.481 21.21 7.65q11.57 9.924 11.569 25.12c0 8.325-2.482 15.187-7.65 21.211a32.77 32.77 0 0 1-17.796 10.875c-2.49.59-8.805.984-10.995.685zm10.396-6.57c7.435-1.9 14.289-7.573 17.651-14.606 1.925-4.03 2.524-6.768 2.524-11.594s-.599-7.555-2.524-11.594a27.98 27.98 0 0 0-12.817-12.8c-4.004-1.908-6.75-2.507-11.568-2.507s-7.555.6-11.628 2.541c-2.575 1.233-8.648 5.527-8.18 5.99l6.28 6.203 2.276-1.711c5.99-4.535 12.757-5.27 19.226-2.07a18.05 18.05 0 0 1 9.729 13.321 17.88 17.88 0 0 1-9.694 18.55c-6.298 3.097-12.578 2.584-18.541-1.506l-2.405-1.643-6.134 6.332c-.274.283 4.132 3.482 6.237 4.654a29.1 29.1 0 0 0 8.753 3.012c2.712.428 7.983.154 10.806-.573zm-1.42-15.53c4.243-2.088 6.605-5.904 6.614-10.678 0-2.378-.172-3.097-1.198-5.193-3.32-6.734-11.26-8.822-17.55-4.62-.983.667-1.813 1.454-1.839 1.753-.026.3 1.318 1.848 2.995 3.431 2.969 2.824 3.063 2.875 3.884 2.293 2.995-2.087 6.349 1.857 3.765 4.424-.796.804-1.164.915-2.464.744-1.506-.188-1.6-.137-4.809 2.85l-3.268 3.037 1.557 1.026q6.058 4.014 12.312.942zM23.824 80.847c-1.147-.3-1.36-1.788-1.36-9.78 0-6.442.102-7.914.573-8.59.564-.804.701-.821 9.283-.821 6.28 0 8.83.128 9.155.445.308.316.428 2.866.428 9.155 0 8.582-.009 8.71-.813 9.275-.684.479-2.105.564-8.71.53q-4.282.036-8.556-.214m38.716-.3c-.813-.581-.822-.684-.822-9.3 0-6.28.12-8.83.437-9.146.316-.317 2.866-.445 9.155-.445h8.727l.582.89c.488.753.556 2.104.462 9.155-.086 6.16-.231 8.385-.582 8.744-.36.35-2.584.496-8.813.582-7.144.085-8.436.026-9.146-.488zm-32.291-25.94c.102-4.364.128-4.492 1.027-4.946.65-.333 3.31-.462 9.437-.462l8.53-.008v-1.797c0-2.807.137-2.97 2.567-2.97s2.567.163 2.567 2.961v1.797l8.53.017c6.127 0 8.788.128 9.447.462.89.454.915.582 1.018 4.946l.102 4.483h-4.791v-4.766H34.938v4.766h-4.791zm12.603-13.33c-.813-.813-.864-16.856-.052-17.968.48-.66 1.096-.72 8.839-.822 7.084-.094 8.445-.025 9.198.462l.881.582v8.454c0 5.125-.145 8.727-.376 9.155-.36.684-.856.718-9.147.718-7.478 0-8.847-.085-9.343-.581"/></svg>