<svg xmlns="http://www.w3.org/2000/svg" xml:space="preserve" width="192" height="192" viewBox="0 0 192 192"><path d="M42.648 29.247v6.662h53.069v-6.662zm53.069 6.662v6.662h6.662V35.91zm-59.732 0v6.661h-6.662v6.764h6.662v-6.762h6.662V35.91zm66.432 6.662v6.662h6.624v6.662h18.729v-6.662h-18.691v-6.662zm25.353 6.662h21.402v-6.662H127.77zm21.402 0v6.662h6.662v-6.662zm6.662 6.662v6.662h6.662v-6.662zm6.662 6.662v6.662h6.662v-6.662zm-6.662 0h-6.662v13.065h-5.223l-.001 4.325h-12.813v-4.271h-4.271V62.557h-11.16V75.88h6.662v6.662h6.82v10.459h40.152v2.507h-60.296l-.001-13.226H95.718v6.762h6.662v6.564c-19.547.001-39.094-.102-58.64-.099v16.557h6.662v-9.896h51.978v6.346h6.662q.002 3.44 0 6.881h6.662v4.572h6.662v-4.591h-6.662v-13.207c20.099-.055 40.198.099 60.296-.05V69.495h-6.662V87.98H142.51v-5.695h6.766v-6.662h6.558zm-6.662 0v-6.662H127.77v6.64h3.363l.002-4.043h12.813v4.065zM22.662 49.335v6.637h-6.66v106.78h6.662V55.992h6.728V49.33zm112.75 13.528v4.27h-4.27v4.271h4.27v4.27h4.27v-4.27h4.271v-4.27h-4.27v-4.27zm-85.006 51.891v2.87h-6.662v5.838h6.664v-5.838h19.985v-2.87zm-6.662 8.707h-6.293v9.576h6.293zm58.641-8.084v4.592h6.662v-4.592zm-31.992 2.246v26.07h6.662v-26.07zm0 26.07H63.73v6.661h6.662zm-19.986-16.9v6.245h-6.662v6.662h6.662v-6.663h6.662v-6.244zm-27.738 29.3v6.661h34.4v-6.662z"/><path d="M50.683 35.909v6.885h-5.097v6.507h-6.43v6.732h-3.17v6.67H22.664v93.389c13.686-.058 27.373-.042 41.06-.042l.002-16.351H43.74v-6.661h-6.292v-.001h-.002v-9.576l.002-8.588v-32.59h.007v-.048h51.793v.371l.013 6.44h.013v6.551q6.234.011 12.468.013h.639v-6.565h-6.662v-6.762h19.986V69.22h-11.658v-6.662h23.725v-6.662h-30.35V49.3h-6.663V35.909zm77.087 19.986h13.046v-6.662H127.77v6.66zm-64.045 83.804v3.993h6.662v-16.899h-6.662zm0-12.906v-9.17H50.402v9.17zm78.785-44.509v5.695h6.766v-5.695zm-33.467 6.563v6.662h6.849v-6.662zm20.144 4.155v2.508h40.15v-2.508z" opacity=".8"/><path d="M90.757 35.875v13.426h6.664v6.594h11.658v-6.73h-6.664V42.57h-6.737v-6.696zm-48.108.034v6.662h-6.662v6.73h9.6v-6.507h5.097V35.91zm-3.492 13.392-9.771.002v6.67h-6.723v6.73h13.324v-6.67h3.17zm101.66-.068v6.662h8.356v-6.662zm8.356 6.662v6.662h6.662v-6.662zm6.662 6.662v13.065h-6.558V87.98h20.061V69.22h-6.841v-6.662zm-51.79 0v6.662h11.659v-6.662zm11.659 13.324v6.403h-6.662v6.563h6.85v6.662h13.295V82.544h-6.821V75.88zm-78.25 6.354-.009 41.227h6.294V95.51l45.535.1-.027-13.374zm6.285 41.227v9.575h6.663v-9.575zm6.663 9.576v6.662h13.324v-12.906h-6.662v6.244zm13.324-15.413v9.169h6.662v-9.17z" opacity=".5"/></svg>