<svg xmlns="http://www.w3.org/2000/svg" width="192" height="192"><path d="m163.97 59.412-.005-.125a168 168 0 0 1-.144-4.972c-.13-8.822-7.144-16.119-15.967-16.613-18.396-1.026-32.627-7.025-44.786-18.877l-.104-.098a10.24 10.24 0 0 0-13.916 0l-.104.098c-12.159 11.852-26.39 17.85-44.786 18.878-8.822.492-15.836 7.79-15.967 16.613a164 164 0 0 1-.144 4.971l-.007.29c-.358 18.758-.802 42.104 7.008 63.294 4.294 11.653 10.798 21.782 19.33 30.108 9.717 9.483 22.444 17.01 37.827 22.374a11.5 11.5 0 0 0 6.052.422 12 12 0 0 0 1.557-.424c15.365-5.374 28.078-12.905 37.787-22.386 8.528-8.329 15.032-18.46 19.33-30.116 7.839-21.254 7.396-44.644 7.04-63.437"/></svg>