<svg xmlns="http://www.w3.org/2000/svg" width="192" height="192" viewBox="0 0 192 192"><path d="M176 96.008c-.064-13.2-10.624-23.88-23.68-23.944-9.44 0-17.536 5.784-21.336 13.92-4.36-15.384-18.288-26.8-34.864-26.784-16.664 0-30.664 11.536-34.944 27.04-3.72-8.296-11.944-14.176-21.496-14.176-13.056.064-23.616 10.744-23.68 23.92V96c.056 13.184 10.624 23.864 23.68 23.928 9.544 0 17.76-5.888 21.496-14.184 4.272 15.52 18.28 27.056 34.944 27.056 16.584 0 30.504-11.408 34.88-26.8 3.784 8.16 11.88 13.928 21.312 13.928 13.064-.048 23.632-10.736 23.688-23.92M29.9 96c0-5.552 4.296-9.888 9.784-9.888 5.48 0 9.784 4.336 9.784 9.888 0 5.544-4.296 9.88-9.784 9.888-5.557 0-9.784-4.502-9.784-9.888m43.712 0c0-12.656 10-22.76 22.512-22.76s22.52 10.104 22.52 22.76c0 12.648-10 22.752-23.597 22.752S73.612 106.172 73.612 96m68.928 0c0-5.552 4.288-9.888 9.776-9.888S162.1 90.448 162.1 96c0 5.544-4.296 9.888-10.175 9.888s-9.385-5.257-9.385-9.888"/></svg>