<svg xmlns="http://www.w3.org/2000/svg" width="192" height="192" viewBox="0 0 192 192"><path d="M134.5 57.5H173v77h-38.5v15.4a7.7 7.7 0 0 0 7.7 7.7h15.4V173h-19.25c-4.235 0-11.55-3.465-11.55-7.7 0 4.235-7.315 7.7-11.55 7.7H96v-15.4h15.4a7.7 7.7 0 0 0 7.7-7.7V42.1a7.7 7.7 0 0 0-7.7-7.7H96V19h19.25c4.235 0 11.55 3.465 11.55 7.7 0-4.235 7.315-7.7 11.55-7.7h19.25v15.4h-15.4a7.7 7.7 0 0 0-7.7 7.7zM19 57.5h84.7v15.4H34.4v46.2h69.3v15.4H19zm138.6 61.6V72.9h-23.1v46.2zM69.05 96A11.55 11.55 0 0 0 57.5 84.45 11.55 11.55 0 0 0 45.95 96a11.55 11.55 0 0 0 11.55 11.55A11.55 11.55 0 0 0 69.05 96m34.65-8.547a11.5 11.5 0 0 0-16.324.847 11.345 11.345 0 0 0 .924 16.247c4.235 4.004 11.011 4.004 15.4 0z"/></svg>