<svg xmlns="http://www.w3.org/2000/svg" width="192" height="192" viewBox="0 0 192 192"><path d="M65.063 46.123c-2.522-.014-4.94 1.588-5.948 3.892l-42.43 86.341c-1.799 3.4.107 8.056 3.788 9.192 1.802.632 3.786.303 5.46-.536l90.314-42.273q12.633 10.335 25.264 20.672c.622.632 1.39 1.07 2.204 1.393a6.1 6.1 0 0 0 2.432.423c.905-.04 1.808-.222 2.628-.618 1.467-.649 2.576-1.901 3.23-3.342l23.323-47.432c1.169-2.32.784-5.303-.935-7.25-1.5-1.787-4.014-2.64-6.291-2.121-1.027.216-1.94.736-2.887 1.162l-47.104 22.057-48.545-39.72c-.904-.853-2.042-1.463-3.267-1.688a10 10 0 0 0-1.237-.153zm2.344 16.648 37.817 30.936-68.841 32.216zm88.201 21.552-11.92 24.28-14.544-11.896z"/></svg>