<svg xmlns="http://www.w3.org/2000/svg" width="192" height="192"><path d="M62.199 28.385a7.967 7.967 0 0 0-7.984 7.984v119.26a7.967 7.967 0 0 0 7.984 7.985h67.922a8 8 0 0 0 3.863-.99 6.8 6.8 0 0 1-.06-3.21l.002-.003 2.408-10.344-8.076-6.975-.03-.027c-.954-.86-1.77-2.115-2.072-3.5a6.9 6.9 0 0 1 .25-3.729 7 7 0 0 1 1.932-2.851c1.086-.95 2.377-1.388 3.545-1.555l.11-.016 6.112-.535V36.367a7.967 7.967 0 0 0-7.984-7.984zm96.885 35.789-5.027 8.705a31.11 31.11 0 0 1 11.963 24.53c0 7.742-2.87 15.064-7.862 20.68a6.7 6.7 0 0 1 1.02 1.667l3.39 8.047A41.13 41.13 0 0 0 176 97.408a41.13 41.13 0 0 0-16.916-33.234m-126.98.602a41.13 41.13 0 0 0-16.107 32.633 41.13 41.13 0 0 0 17.035 33.318l5.022-8.702a31.1 31.1 0 0 1-12.077-24.617 31.11 31.11 0 0 1 11.174-23.895zm45.59 12.46h9.281l22.156 30.24v-30.24h7.684v40.42h-8.983L85.428 87.469v30.189h-7.734zm72.91 1.622-5.047 8.742a11.65 11.65 0 0 1 3.887 8.695 11.64 11.64 0 0 1-3.666 8.492l5.062 8.766a21.66 21.66 0 0 0 8.584-17.258 21.67 21.67 0 0 0-8.82-17.438zm-110.01.617a21.67 21.67 0 0 0-8.025 16.82 21.66 21.66 0 0 0 9.86 18.152l5.003-8.664a11.64 11.64 0 0 1-4.883-9.489c0-3.01 1.152-5.846 3.15-7.976zm112.4 40.209q-.739 0-1.443.402c-.704.402-.818.672-1.041 1.21l-5.038 11.954-13.029 1.143q-.94.134-1.478.603a2.9 2.9 0 0 0-.805 1.21q-.269.738-.101 1.511t.84 1.377l9.873 8.53-2.956 12.69q-.201.874.135 1.58.336.704.94 1.174.605.471 1.41.537c.805.066 1.052-.089 1.545-.402l11.148-6.717 11.148 6.717q.738.47 1.545.402a2.6 2.6 0 0 0 1.41-.537q.605-.47.941-1.174.335-.706.133-1.58l-2.955-12.69 9.873-8.53q.672-.605.84-1.377a2.7 2.7 0 0 0-.102-1.512 2.9 2.9 0 0 0-.804-1.209q-.538-.47-1.479-.603l-13.029-1.143-5.037-11.955q-.335-.806-1.041-1.209c-.706-.403-.95-.402-1.443-.402m0 9.537 3.896 9.133 9.805.873-7.455 6.447 2.217 9.672-8.463-5.172-8.46 5.104 2.214-9.604-7.455-6.514 9.806-.873z"/></svg>