<svg xmlns="http://www.w3.org/2000/svg" width="192" height="192"><path d="M62.199 28.385a7.967 7.967 0 0 0-7.984 7.984v119.26a7.967 7.967 0 0 0 7.984 7.984h67.923a7.967 7.967 0 0 0 7.984-7.984V36.369a7.967 7.967 0 0 0-7.984-7.984zm96.886 35.788-5.027 8.705a31.1 31.1 0 0 1 11.962 24.53 31.11 31.11 0 0 1-10.857 23.624l5.054 8.756A41.13 41.13 0 0 0 176 97.408a41.13 41.13 0 0 0-16.915-33.234zm-126.98.602a41.13 41.13 0 0 0-16.108 32.632 41.13 41.13 0 0 0 17.034 33.32l5.023-8.701a31.1 31.1 0 0 1-12.077-24.619 31.1 31.1 0 0 1 11.175-23.894zm45.588 12.461h9.282l22.155 30.24v-30.24h7.684v40.42h-8.982l-22.404-30.19v30.19h-7.734zm72.911 1.62-5.047 8.742a11.65 11.65 0 0 1 3.887 8.696c0 3.26-1.351 6.317-3.666 8.493l5.062 8.765a21.66 21.66 0 0 0 8.584-17.258 21.67 21.67 0 0 0-8.82-17.438m-110.01.618a21.67 21.67 0 0 0-8.025 16.82c0 7.347 3.74 14.18 9.861 18.153l5.002-8.664a11.64 11.64 0 0 1-4.883-9.49c0-3.009 1.152-5.845 3.15-7.975z"/></svg>