<svg width="192" height="192" fill="none" xmlns="http://www.w3.org/2000/svg"><path d="M73 147v-22a6 6 0 0 0-6-6H45m74 28v-22a6 6 0 0 1 6-6h22M73 45v22a6 6 0 0 1-6 6H45m74-28v22a6 6 0 0 0 6 6h22m-28-28a22.998 22.998 0 0 0-23-23 23 23 0 0 0-23 23m0 102a22.998 22.998 0 0 0 39.263 16.263A22.996 22.996 0 0 0 119 147M45 73a23 23 0 0 0 0 46m102 0c6.1 0 11.95-2.423 16.263-6.737a22.996 22.996 0 0 0 0-32.526A22.998 22.998 0 0 0 147 73" stroke="#000" stroke-width="12" stroke-linecap="round" stroke-linejoin="round"/></svg>