<svg xmlns="http://www.w3.org/2000/svg" width="192" height="192" viewBox="0 0 192 192"><path d="M129.93 19.005c-1.616.107-3.536 1.85-11.421 9.78-3.363 3.383-7.43 7.165-9.04 8.405-1.61 1.241-4.985 4.22-7.501 6.621-6.38 6.086-5.947 5.958-9.34 2.768-1.546-1.454-4.032-3.537-5.524-4.63s-4.157-3.422-5.923-5.178c-6.866-6.827-15.659-14.986-17.436-16.179-3.251-2.183-6.248-1.188-6.248 2.077 0 1.338.665 2.193 5.538 7.128 3.045 3.084 7.006 6.778 8.803 8.209 5.353 4.263 10.73 10.205 9.943 10.99-.343.343-11.954.246-25.231-.21-5.867-.202-11.968-.209-13.561-.015-1.592.193-6.601.354-11.131.358-9.223.009-10.363.29-11.534 2.85-.588 1.285-.651 4.675-.463 24.767.12 12.803.225 23.991.232 24.862s-.01 3.312-.04 5.425c-.162 11.486.277 48.743.585 49.628.803 2.31 2.167 2.54 15.36 2.598 8.568.037 12.229.204 12.348.561.093.28.658 1.178 1.255 1.998s1.713 2.543 2.478 3.828c1.6 2.686 4.808 5.805 6.91 6.719 2.066.899 6.132.832 7.826-.128 1.984-1.124 5.683-5.408 7.365-8.53 2.272-4.217 2.249-4.198 5.502-4.267 3.928-.083 13.78-.136 16.009-.087 8.05.18 13.172.143 16.126-.119l3.47-.307 1.144 1.814c.63.998 1.36 1.947 1.621 2.109.262.161 1.155 1.348 1.984 2.637 1.99 3.09 5.565 6.368 7.725 7.081 2.195.725 6.136.347 8.065-.773 1.554-.902 5.405-6.117 7.298-9.882l1.156-2.3 11.778-.287c12.905-.313 13.502-.43 15.244-3.02.99-1.469 1.044-1.873.79-5.875-.3-4.761-.35-10.98-.363-45.432-.005-12.927-.008-24.827-.017-26.443-.002-1.616.034-7.763.077-13.66.128-16.711.145-16.687-10.224-15.828-3.792.313-7.481.368-9.467.14-1.79-.207-12.214-.269-23.166-.138-11.64.14-19.91.07-19.906-.167.012-.724 2.86-3.693 5.897-6.147 3.104-2.508 15.563-15.195 17.762-18.086 1.004-1.32 1.212-1.962.98-3.02-.367-1.672-1.084-2.283-3.054-2.603a3 3 0 0 0-.69-.04zM71.362 54.943c5.29-.028 8.746 0 13.709.07 4.848.067 10.442.093 12.43.057 1.989-.035 14.397-.058 27.574-.05 13.176.01 24.771-.015 25.765-.053s4.536.1 7.87.307c4.902.303 6.219.531 6.877 1.19.926.925.917.279.947 61.523.017 36.948.158 35.218-2.899 35.76-.822.145-8.41.278-16.863.295-18.326.037-86.283-.09-89.5-.168-1.243-.03-5.414.113-9.27.318s-7.11.274-7.232.154-3.103-.338-6.624-.485-6.706-.383-7.078-.526c-1.812-.695-1.83-1.204-1.785-48.968.03-30.614.202-46.332.515-47.144.336-.872.894-1.298 1.96-1.497.819-.152 9.32-.38 18.892-.505 12.299-.162 19.424-.248 24.713-.277zm82.594 8.317c-.691.014-1.548.052-2.623.108-6.7.35-17.405.435-52.927.415-16.409-.01-31.054-.016-32.545-.016a7582 7582 0 0 1-16.492-.055c-11.764-.048-13.88.043-14.465.629-.602.602-.682 5.492-.66 40.408.02 31.45.144 39.866.6 40.415.315.38 1.321.754 2.234.83.914.076 19.358.09 40.987.029s45.734-.07 53.565-.02c18.23.116 25.426-.05 25.992-.603.295-.288.418-11.03.352-30.818a40679 40679 0 0 1-.113-40.174c-.008-8.517-.111-9.898-.764-10.55-.482-.483-1.066-.642-3.14-.597zm-86.651 3.867c7.193-.012 16.451-.01 28.391 0 57.769.044 55.112-.088 57.079 2.835 1.021 1.518 1.057 1.851.92 8.815-.076 3.98-.068 19.061.018 33.511.115 19.032.017 26.539-.355 27.234-.282.528-1.052 1.311-1.709 1.742-1.082.71-3.163.794-22.246.898-11.578.063-26.205.168-32.503.234s-11.526.045-11.617-.047c-.09-.09-9.602-.172-21.136-.18-14.017-.01-21.468-.18-22.469-.512-.823-.273-1.923-1.072-2.443-1.774-.941-1.27-.946-1.457-.907-34.58.045-37.456-.077-36.035 3.222-37.471 1.169-.51 4.174-.671 25.755-.706zm65.908 15.722a7.23 7.23 0 0 0-7.232 7.233 7.23 7.23 0 0 0 7.232 7.232 7.23 7.23 0 0 0 7.232-7.232 7.23 7.23 0 0 0-7.232-7.233M58.262 97.424a7.23 7.23 0 0 0-7.232 7.233 7.23 7.23 0 0 0 7.232 7.232 7.23 7.23 0 0 0 7.232-7.232 7.23 7.23 0 0 0-7.232-7.233m37.659 22.553a2.127 2.113 0 0 0-1.579.697l-9.434 10.384a1.048 1.04 0 0 0 .778 1.737h20.47a1.048 1.04 0 0 0 .778-1.737L97.5 120.674a2.127 2.113 0 0 0-1.579-.697m37.612 39.868c2.525.01 4.568.067 4.686.185.475.472-3.377 5.32-5.208 6.553-2.335 1.574-3.5 1.337-5.956-1.211-1.953-2.026-3.847-4.871-3.48-5.228.163-.16 3.745-.266 7.326-.293.896-.007 1.79-.008 2.632-.005zm-71.061.073c4.941 0 7.232.157 7.232.495 0 .724-1.682 3.068-3.78 5.268-2.017 2.115-3.78 2.5-5.603 1.224-.95-.666-5.081-6.117-5.081-6.705 0-.155 3.254-.282 7.232-.282"/></svg>