<svg xmlns="http://www.w3.org/2000/svg" width="192" height="192" viewBox="0 0 192 192"><path d="M89.478 172.66c-9.172-.898-17.626-3.371-26.97-7.889-14.948-7.222-27.663-20.125-34.91-35.423-8.762-18.516-9.968-38.375-3.525-57.79 6.545-19.705 20.116-35.312 38.863-44.673a77.6 77.6 0 0 1 42.542-7.427c5.527.642 6.4 1.044 2.327 1.078-17.387.12-35.363 7.915-47.488 20.595-9.429 9.874-15.136 20.99-18.028 35.175-.915 4.467-.907 18.593.009 23.316 2.053 10.524 5.835 19.51 11.679 27.731 2.567 3.62 10.268 11.893 11.063 11.893s12.783-15.64 14.417-18.798c.522-1.01.496-1.078-1.3-3.251a27.4 27.4 0 0 1-4.844-9.438c-.496-1.848-.907-6.195-1.386-14.726-.068-1.198-.719-4.38-1.455-7.102-2.344-8.787-4.535-20.792-4.543-25.027-.009-2.224-.462-2.224 5.236-.017 6.871 2.653 12.1 5.716 20.048 11.722l3.543 2.661 2.481-.565a43 43 0 0 1 5.185-.795c1.49-.12 2.832-.402 2.995-.625.171-.214 1.095-2.088 2.053-4.15 2.516-5.442 5.032-9.89 7.325-12.963 2.455-3.277 7.332-8.274 8.068-8.274s2.413 4.484 3.594 9.524c1.318 5.621 2.02 10.764 2.259 16.368.205 4.902 2.002 18.952 2.704 21.15a60 60 0 0 0 1.968 4.595c1.84 3.936 2.19 5.75 1.608 8.428q-1.565 7.316-10.31 13.408l-2.909 2.028-.23 3.697c-.13 2.027-.343 8.992-.471 15.47-.231 11.43-.223 11.782.445 11.782 1.274 0 8.582-2.122 11.808-3.423 13.878-5.596 24.47-14.306 32.71-26.9.753-1.147 2.396-4.228 3.663-6.829s2.293-4.423 2.301-4.021c.01.838-2.053 7.615-3.345 10.96a77.52 77.52 0 0 1-30.093 36.776c-7.17 4.637-17.55 8.813-26.44 10.644a82 82 0 0 1-22.648 1.112zm23.188-83.861a7.7 7.7 0 0 0 2.285-1.771 4.7 4.7 0 0 0 .076-4.723c-.547-.83-2.618-2.413-3.165-2.413-.094 0-.103.71 0 1.566.154 1.386.06 1.651-.856 2.37-.873.684-1.352.787-3.149.659-1.762-.12-2.267-.317-2.969-1.13-.462-.539-.847-1.3-.847-1.685 0-.343.137-.856.017-.925-.23-.154-.855.488-1.266 1.284-1.883 3.636 1.395 7.572 6.289 7.572 1.369 0 2.507-.256 3.585-.804m29.887-21.853a111 111 0 0 1-.556-2.97c-.753-4.252-1.712-5.929-3.936-6.955a25.7 25.7 0 0 0-4.715-1.344c-3.131-.556-3.063-.676.805-1.309 5.39-.89 6.887-2.524 7.786-8.47.53-3.517.65-3.466 1.275.556.616 4.012 1.54 5.647 3.739 6.674.992.453 2.952 1.018 4.355 1.249 3.808.624 3.885.77.77 1.266-6.717 1.104-8.163 2.576-9.155 9.344a10.3 10.3 0 0 1-.368 1.968zm19.577-10.114a17 17 0 0 0-.907-3.08c-.582-1.335-.873-1.566-2.55-2.062a14.6 14.6 0 0 0-2.524-.565c-.35 0-.736-.163-.856-.36s.154-.359.634-.359c.479 0 1.694-.257 2.712-.556 1.557-.462 1.976-.77 2.533-1.882a12 12 0 0 0 .915-2.687c.291-1.566.924-1.805.967-.36.086 3.038 1.917 4.912 5.194 5.323 2.31.29 2.276.701-.086 1.052-.941.146-2.173.496-2.738.787-1.095.565-2.379 2.935-2.396 4.432-.025 1.772-.633 1.986-.898.317m-26.61-20.279c-.599-3.046-1.797-4.218-4.817-4.706-1.771-.282-1.652-.684.29-1.001 3.08-.488 3.765-1.198 4.51-4.775l.436-2.096.257 1.438c.573 3.183 1.24 4.389 2.755 4.997a8.6 8.6 0 0 0 2.302.573c1.523 0 1.326.633-.274.873-2.652.393-3.722 1.309-4.5 3.876l-.685 2.267z"/></svg>