<svg width="192" height="192" fill="none" xmlns="http://www.w3.org/2000/svg"><path d="M48.386 36.393 22.401 149.687a15.869 15.869 0 0 0 1.979 11.902 15.728 15.728 0 0 0 4.187 4.48 15.571 15.571 0 0 0 17.395.535 15.697 15.697 0 0 0 4.452-4.215 15.811 15.811 0 0 0 2.51-5.608l17.529-76.426M48.386 36.393l32.945-3.469 40.28 78.444M48.386 36.393l22.067 43.962m39.996 79.681 33.385-5.389 25.765-112.334a15.871 15.871 0 0 0-1.979-11.902 15.73 15.73 0 0 0-4.187-4.48 15.618 15.618 0 0 0-5.572-2.527 15.565 15.565 0 0 0-11.824 1.992 15.702 15.702 0 0 0-4.451 4.215 15.81 15.81 0 0 0-2.51 5.608l-17.465 76.149m-11.162 48.668L70.453 80.355m39.996 79.681 11.162-48.668" stroke="#000" stroke-width="12" stroke-linecap="round" stroke-linejoin="round"/></svg>