<svg xmlns="http://www.w3.org/2000/svg" width="192" height="192" viewBox="0 0 192 192"><path d="M95.837 19.104a77 77 0 0 0-54.216 22.518l16.64 16.649a53.3 53.3 0 0 1 51.547-13.808 53.3 53.3 0 0 1 37.738 37.73 53.3 53.3 0 0 1-13.808 51.555l16.64 16.64a77 77 0 0 0 19.9-74.278 76.95 76.95 0 0 0-74.432-56.996z" opacity=".7"/><path d="M41.622 41.622c-29.936 29.936-29.936 78.821 0 108.76 29.936 29.936 78.821 29.936 108.76 0l-16.64-16.64a53.19 53.19 0 0 1-75.476 0 53.19 53.19 0 0 1 0-75.476z" opacity=".8"/><path d="M169.29 22.705a12.577 12.577 0 0 1 0 17.83L40.53 169.295a12.577 12.577 0 0 1-17.83 0 12.577 12.577 0 0 1 0-17.83l128.76-128.76a12.577 12.577 0 0 1 17.83 0"/></svg>