<svg xmlns="http://www.w3.org/2000/svg" width="192" height="192" viewBox="0 0 192 192"><path d="M26.486 19A7.47 7.47 0 0 0 19 26.486v139.03a7.467 7.467 0 0 0 7.486 7.486h139.03a7.467 7.467 0 0 0 7.486-7.486V26.486A7.47 7.47 0 0 0 165.516 19zm17.111 23.528h104.81a6.417 6.417 0 0 1 6.417 6.417 6.417 6.417 0 0 1-6.417 6.416H43.597a6.417 6.417 0 0 1-6.417-6.416 6.417 6.417 0 0 1 6.417-6.417m0 25.667h104.81a6.417 6.417 0 0 1 6.417 6.417 6.417 6.417 0 0 1-6.417 6.416H43.597a6.417 6.417 0 0 1-6.417-6.416 6.417 6.417 0 0 1 6.417-6.417m0 25.667h41.708a6.417 6.417 0 0 1 6.417 6.417 6.417 6.417 0 0 1-6.417 6.416H43.597a6.417 6.417 0 0 1-6.417-6.416 6.417 6.417 0 0 1 6.417-6.417"/></svg>