<svg xmlns="http://www.w3.org/2000/svg" width="192" height="192"><path d="M31 19c-6.579 0-12 5.421-12 12v130c0 6.579 5.421 12 12 12h130c6.579 0 12-5.421 12-12V31c0-6.579-5.421-12-12-12zm0 8h130c2.285 0 4 1.715 4 4v130c0 2.285-1.715 4-4 4H43.48c14.127-20.376 12.611-16.993 16.943-22.449 5.238-.184 9.37-2.127 12.348-4.654 2.753-2.338 4.578-5.099 5.68-7.383h7.677c3.44 0 6.353-2.339 7.23-5.506l25.919 14.965c.71.41 1.674.15 2.084-.559l5.701-9.875 6.305 1.34c.8.17 1.64-.375 1.81-1.176l4.784-22.504 14.896-25.803c.41-.709.15-1.674-.559-2.084l-7.49-4.326 2.988-14.06c.17-.802-.375-1.64-1.176-1.81L98.143 48.389q-.15-.032-.3-.032c-.7.001-1.36.505-1.508 1.205l-3.16 14.867c-1.052-2.873-3.818-4.935-7.047-4.935H63.093c-4.13 0-7.5 3.37-7.5 7.5V94.42q-.266.058-.53.12c-2.735.63-5.346 1.507-7.498 2.849-2.152 1.341-3.884 3.229-4.488 5.728q-.015.064-.025.13l-1.461 9.71c-1.59 7.724-2.335 10.844-2.645 11.611q-.06.155-.088.32c-.67 4.143-.463 6.004-.779 7.045-2.11 3.08-3.37 5.265-11.076 11.336V30.998c0-2.285 1.715-4 4-4zm67.959 24.629 47.592 10.115-14.006 65.895-34.814-7.4c1.576-1.219 2.593-2.979 2.594-5.022 0-1.274-.424-2.494-1.164-3.535 1.136-1.027 1.907-2.423 1.908-3.996v-.004a4.9 4.9 0 0 0-.352-1.805L127 111.465a1.5 1.5 0 1 0 .623-2.936l-27.13-5.769c.716-.909 1.164-2.005 1.163-3.205q0-.417-.068-.817l19.158 4.075a1.5 1.5 0 1 0 .623-2.934l-21.13-4.494a1.5 1.5 0 0 0-.68.012 7 7 0 0 0-.292-.23c1.028-1.033 1.717-2.376 1.793-3.864l29.61 6.297a1.5 1.5 0 1 0 .623-2.934l-31.096-6.613a6.8 6.8 0 0 0-1.625-1.783c-1.337-1.033-3.06-1.665-4.948-1.774v-7.771zm3.635 7.693a1.5 1.5 0 0 0-.235 2.967l35.465 7.54a1.5 1.5 0 0 0 .625-2.934l-35.467-7.541a1.5 1.5 0 0 0-.388-.032M63.09 62.494h23.035c2.519 0 4.5 1.981 4.5 4.5v1.887H58.59v-1.887c0-2.519 1.98-4.5 4.5-4.5m38.014 3.834a1.5 1.5 0 0 0-.233 2.965l33.574 7.139a1.5 1.5 0 0 0 .625-2.934l-33.576-7.139a1.5 1.5 0 0 0-.39-.03zM58.59 71.881h32.035v46.479H58.59v-10.85c0-.552.317-1.316.742-1.668 2.04-1.688 3.843-1.967 5.793-2.201 1.105-.133 2.25-.216 3.436-.569a6.9 6.9 0 0 0 3.341-2.177c1.074-1.168 1.675-2.674 1.633-4.21-.042-1.548-.994-3.246-2.738-3.841a1.5 1.5 0 0 0-.592-.078c-2.87.203-7.222.405-11.615 1.098zm41.025 1.455a1.5 1.5 0 0 0-.235 2.965l29.752 6.326a1.5 1.5 0 0 0 .623-2.933l-29.752-6.327a1.5 1.5 0 0 0-.388-.03m46.533 4.736 5.369 3.102-9.541 16.527zm-48.023 2.27a1.5 1.5 0 0 0-.233 2.965l35.604 7.57a1.5 1.5 0 1 0 .623-2.935l-35.604-7.569a1.5 1.5 0 0 0-.39-.031m-4.5 7.162c1.248.107 2.342.545 3.113 1.14.89.688 1.33 1.513 1.33 2.381s-.44 1.692-1.33 2.38a5.3 5.3 0 0 1-1.23.69q-.097.042-.196.08c-.422.155-.881.27-1.367.335h-.002a7 7 0 0 1-.318.035zm-23.637 8.287c.395.19.532.43.547.975.017.635-.31 1.536-.85 2.117l-.059.066c-.587.71-1.147 1.016-1.921 1.246s-1.767.327-2.938.467c-1.88.226-3.922.638-6.178 2.291v-.02c-.054.04-.113.104-.168.145-.5.38-1.008.8-1.53 1.317-.734.876-1.256 2.157-1.3 3.088-.005.1-.002.201-.002.302v15.23c0 4.128 3.371 7.5 7.5 7.5h11.96c-.973 1.67-2.369 3.52-4.223 5.095-5.429 4.61-11.695 4.017-11.89 3.998-.357-.036-.974-.143-1.997-.469a1.5 1.5 0 1 0-.91 2.858q.437.138.812.24c-3.112 3.7-2.996 2.486-17.014 22.764H31c-2.285 0-4-1.715-4-4V147.07c8.926-6.857 11.089-9.827 13.156-12.838.694 1.214 1.614 2.041 2.502 2.81a1.5 1.5 0 0 0 1.963-2.267c-1.082-.937-1.68-1.463-2.14-2.615-.457-1.14-.764-3.06-.704-6.543l.014-.09c.59-1.56 1.198-4.49 2.74-11.99l.016-.078 1.45-9.652c.387-1.573 1.446-2.807 3.153-3.871 1.715-1.07 4.043-1.885 6.584-2.471.934-.215 1.891-.4 2.856-.559 4.12-.68 8.367-.905 11.398-1.113zm26.373 1.201c1.522.65 2.295 1.668 2.295 2.563 0 .713-.393 1.43-1.281 2.062a5.3 5.3 0 0 1-1.069.578l-.346.12q-.256.089-.529.158l-.058.013q-.241.06-.49.104-.099.015-.198.027a7.5 7.5 0 0 1-1.06.084v-5.148a9.5 9.5 0 0 0 2.736-.56m-.102 8.38c1.203.659 1.806 1.531 1.809 2.316-.001.712-.396 1.429-1.283 2.06a5.8 5.8 0 0 1-1.156.605q-.11.045-.223.085a7 7 0 0 1-.69.203 7.4 7.4 0 0 1-1.092.166V105.7h.006c.222 0 .442-.016.659-.04a10.4 10.4 0 0 0 1.97-.29zm.223 7.876c.513.616.842 1.281.842 1.969 0 1.63-1.476 3.214-3.7 3.676v-5.078a10 10 0 0 0 2.858-.567m-37.893 8.111h32.035v1.655c0 2.519-1.981 4.5-4.5 4.5H63.089a4.46 4.46 0 0 1-4.5-4.5zm16.238 1.008a2 2 0 1 0 0 4 2 2 0 0 0 0-4m20.805.492 28.34 6.024-4.477 7.754z"/></svg>