<svg xmlns="http://www.w3.org/2000/svg" width="192" height="192" viewBox="0 0 192 192"><path d="M66.592 64.706a5.376 5.376 0 0 0-5.387 5.387v7.362h-7.362a5.376 5.376 0 0 0-5.387 5.387v.032a5.374 5.374 0 0 0 5.387 5.385h7.362v7.364a5.374 5.374 0 0 0 5.387 5.385h.032a5.373 5.373 0 0 0 5.385-5.385v-7.364h7.364a5.373 5.373 0 0 0 5.385-5.385v-.032a5.374 5.374 0 0 0-5.385-5.387H72.01v-7.362a5.374 5.374 0 0 0-5.385-5.387z" opacity=".5"/><path d="M58.977 41.021v.002a23.8 23.8 0 0 0-22.959 16.89L17.057 119.93a23.8 23.8 0 0 0 15.837 29.784l.682.207a23.8 23.8 0 0 0 29.783-15.836 13.1 13.1 0 0 1 12.598-7.435h40.087a13.1 13.1 0 0 1 12.6 7.435 23.8 23.8 0 0 0 29.784 15.836l.68-.207a23.8 23.8 0 0 0 15.836-29.784l-18.962-62.018c-3.092-10.113-12.219-16.635-22.218-16.865l-.002-.02zm68.19 23.346a6.05 6.05 0 1 1 0 12.1 6.05 6.05 0 0 1 0-12.1m-60.574.34h.032a5.374 5.374 0 0 1 5.385 5.386v7.362h7.364a5.374 5.374 0 0 1 5.385 5.388v.032a5.37 5.37 0 0 1-5.385 5.384H72.01v7.365a5.373 5.373 0 0 1-5.385 5.384h-.032a5.374 5.374 0 0 1-5.387-5.384v-7.365h-7.362a5.374 5.374 0 0 1-5.387-5.384v-.032a5.376 5.376 0 0 1 5.387-5.388h7.362v-7.362a5.376 5.376 0 0 1 5.387-5.387m48.175 12.156a6.05 6.05 0 1 1 0 12.101 6.05 6.05 0 0 1 0-12.1m24.799 0a6.05 6.05 0 0 1 6.05 6.05 6.05 6.05 0 1 1-6.05-6.05m-12.4 12.257a6.05 6.05 0 1 1 0 12.1 6.05 6.05 0 0 1 0-12.1"/></svg>