<svg xmlns="http://www.w3.org/2000/svg" width="192" height="192" viewBox="0 0 192 192"><path d="M40.471 16a10.33 10.33 0 0 0-10.353 10.353v139.29a10.33 10.33 0 0 0 10.353 10.353h111.06a10.33 10.33 0 0 0 10.353-10.353V26.353A10.33 10.33 0 0 0 151.531 16zm4 10.666h103.06a3.757 3.757 0 0 1 3.765 3.765v103.06a3.757 3.757 0 0 1-3.765 3.764H44.471a3.757 3.757 0 0 1-3.765-3.764V30.43a3.756 3.756 0 0 1 3.765-3.765m24.938 15.568a15.06 15.06 0 0 0-15.059 15.06 15.06 15.06 0 0 0 15.059 15.059 15.06 15.06 0 0 0 15.059-15.059 15.06 15.06 0 0 0-15.059-15.059m39.034 39.947L49.775 113.55v14.834h92.45V99.039z"/></svg>