<svg xmlns="http://www.w3.org/2000/svg" width="192" height="192"><path d="M92.462 17.465 73.377 36.55a4.83 4.83 0 0 1-3.416 1.415H42.968a5.003 5.003 0 0 0-5.003 5.003v26.993a4.83 4.83 0 0 1-1.415 3.416L17.465 92.462a5.003 5.003 0 0 0 0 7.076l19.085 19.085a4.83 4.83 0 0 1 1.415 3.416v26.993a5.003 5.003 0 0 0 5.003 5.003H69.96a4.83 4.83 0 0 1 3.416 1.415l19.085 19.085a5.003 5.003 0 0 0 7.075 0l19.085-19.085a4.83 4.83 0 0 1 3.417-1.415h26.993a5.003 5.003 0 0 0 5.003-5.003v-26.993a4.83 4.83 0 0 1 1.415-3.416l19.085-19.085a5.003 5.003 0 0 0 0-7.076L155.45 73.377a4.83 4.83 0 0 1-1.415-3.416V42.968a5.003 5.003 0 0 0-5.003-5.003h-26.993a4.83 4.83 0 0 1-3.417-1.415L99.537 17.465a5.003 5.003 0 0 0-7.075 0m7.075 8.49 16.6 16.598a4.83 4.83 0 0 0 3.416 1.415h23.475a5.003 5.003 0 0 1 5.003 5.003v23.476a4.83 4.83 0 0 0 1.415 3.416l16.599 16.599a5.003 5.003 0 0 1 0 7.075l-16.6 16.599a4.83 4.83 0 0 0-1.414 3.416v23.475a5.003 5.003 0 0 1-5.003 5.003h-23.475a4.83 4.83 0 0 0-3.417 1.415l-16.599 16.6a5.003 5.003 0 0 1-7.075 0l-16.599-16.6a4.83 4.83 0 0 0-3.416-1.415H48.972a5.003 5.003 0 0 1-5.003-5.003v-23.475a4.83 4.83 0 0 0-1.415-3.416l-16.6-16.599a5.003 5.003 0 0 1 0-7.075l16.6-16.6a4.83 4.83 0 0 0 1.415-3.415V48.972a5.003 5.003 0 0 1 5.003-5.003h23.475a4.83 4.83 0 0 0 3.416-1.416l16.599-16.599a5.003 5.003 0 0 1 7.075 0" opacity=".6"/><path d="M92.462 25.994 75.875 42.581a4.83 4.83 0 0 1-3.416 1.415h-23.46A5.003 5.003 0 0 0 43.998 49v23.46a4.83 4.83 0 0 1-1.415 3.415L25.995 92.461a5.003 5.003 0 0 0 0 7.076l16.587 16.587a4.83 4.83 0 0 1 1.415 3.416v23.459A5.003 5.003 0 0 0 49 148.002h23.459a4.83 4.83 0 0 1 3.416 1.415l16.587 16.587a5.003 5.003 0 0 0 7.075 0l16.587-16.587a4.83 4.83 0 0 1 3.417-1.415H143a5.003 5.003 0 0 0 5.003-5.003v-23.46a4.83 4.83 0 0 1 1.415-3.415l16.586-16.587a5.003 5.003 0 0 0 0-7.076l-16.587-16.587a4.83 4.83 0 0 1-1.415-3.416V49A5.003 5.003 0 0 0 143 43.996h-23.458a4.83 4.83 0 0 1-3.417-1.415L99.537 25.994a5.003 5.003 0 0 0-7.075 0m7.075 8.49 14.102 14.101a4.83 4.83 0 0 0 3.417 1.416h19.942A5.003 5.003 0 0 1 142 55.004v19.942a4.83 4.83 0 0 0 1.414 3.416l14.102 14.102a5.003 5.003 0 0 1 0 7.075l-14.102 14.102a4.83 4.83 0 0 0-1.415 3.416V137a5.003 5.003 0 0 1-5.003 5.003h-19.942a4.83 4.83 0 0 0-3.416 1.415L99.537 157.52a5.003 5.003 0 0 1-7.075 0L78.36 143.417a4.83 4.83 0 0 0-3.416-1.415H55.002A5.003 5.003 0 0 1 49.999 137v-19.942a4.83 4.83 0 0 0-1.415-3.416l-14.1-14.101a5.004 5.004 0 0 1 0-7.076l14.1-14.1a4.83 4.83 0 0 0 1.415-3.417V55.005a5.003 5.003 0 0 1 5.003-5.003h19.942a4.83 4.83 0 0 0 3.416-1.415l14.102-14.102a5.003 5.003 0 0 1 7.075 0z" opacity=".4"/><path d="M87.995 79.887V94.57a5.9 5.9 0 0 1 4.002-3.606v-6.906c.7-.011 1.628.003 2.148.023.986.038 1.92.235 3.498.913 1.079.766 1.701 1.463 1.93 1.948.242.516.243.851.087 1.364-.312 1.026-1.723 2.602-3.525 3.962-1.456 1.098-3.154 2.048-4.718 3.357s-3.01 3.146-3.398 5.646l-.024.153v10.217l1.972.029c4.444.063 7.789-.466 10.35-1.528s4.333-2.745 5.26-4.689c1.847-3.866.759-7.247-.355-10.289-.563 1.453-1.666 2.676-3.091 3.477.485 1.88.558 3.576-.165 5.089-.494 1.035-1.343 1.952-3.181 2.714-1.491.619-3.848.989-6.787 1.109v-5.73c.228-1.356.85-2.175 1.99-3.13 1.16-.97 2.83-1.927 4.556-3.23 2.072-1.562 4.154-3.386 4.947-5.993a5.96 5.96 0 0 0-.297-4.23c-.651-1.385-1.806-2.584-3.426-3.681l-.147-.1-.162-.072c-2.101-.936-3.733-1.25-5.161-1.304s-2.53.08-4.157-.039zm-29.674.19v30.643h3.803V89.422l21.927 22.48V81.284h-3.803v21.274zm66.956.24c-9.277 0-17 6.946-17 15.683s7.724 15.683 17 15.683a18 18 0 0 0 8.175-1.939v-4.405c-2.233 1.59-5.062 2.543-8.175 2.543-7.4 0-13.197-5.396-13.197-11.882s5.797-11.882 13.197-11.882c3.113 0 5.942.954 8.175 2.542v-4.405a18.04 18.04 0 0 0-8.175-1.938"/></svg>