<svg xmlns="http://www.w3.org/2000/svg" width="192" height="192" viewBox="0 0 192 192"><path d="M57.987 19.054c-9.99.007-19.976 3.802-27.562 11.385-15.172 15.165-15.189 39.93-.04 55.116l.024.014 10.42 10.414-10.408 10.402-.029.02c-15.187 15.18-15.189 39.974-.002 55.154s39.997 15.182 55.184.002l.06-.072 10.367-10.361 10.366 10.36.06.073c15.187 15.18 39.997 15.178 55.184-.002s15.186-39.975-.002-55.155l-.03-.02-10.406-10.401 10.419-10.414.023-.014c15.15-15.186 15.133-39.951-.039-55.116-7.586-7.583-17.573-11.378-27.562-11.385s-19.983 3.774-27.58 11.346l-.052.063-10.38 10.375-10.38-10.375-.053-.063c-7.597-7.572-17.591-11.353-27.58-11.346zm76.034 87.89a27.049 27.037 0 0 1 27.048 27.035 27.049 27.037 0 0 1-27.048 27.037 27.049 27.037 0 0 1-27.048-27.037 27.049 27.037 0 0 1 27.048-27.035"/></svg>