<svg xmlns="http://www.w3.org/2000/svg" width="192" height="192" viewBox="0 0 192 192"><path d="M122.99 20.956a3.7 3.7 0 0 0-2.892 1.38l-7.424 9.183a3.72 3.72 0 0 1-3.86 1.256l-11.405-3.07c-2.288-.615-4.557 1.041-4.678 3.404l-.614 11.795a3.72 3.72 0 0 1-2.382 3.285L78.33 52.55a3.393 3.393 0 0 0-1.628 5.024 3.48 3.48 0 0 0 2.233 1.506c15.05 3.098 28.14 11.564 37.19 23.285 1.061 1.377 2.902 1.907 4.548 1.339a51.6 51.6 0 0 1 16.773-2.79c9.172 0 17.776 2.39 25.236 6.585 1.005.568 2.215.679 3.285.27l1.31-.502a3.713 3.713 0 0 0 1.786-5.498l-6.437-9.898a3.74 3.74 0 0 1 0-4.064l6.437-9.899a3.713 3.713 0 0 0-1.786-5.498l-11.032-4.222a3.73 3.73 0 0 1-2.382-3.285l-.603-11.795c-.13-2.363-2.4-4.019-4.69-3.405l-11.403 3.07a3.73 3.73 0 0 1-3.861-1.255l-7.424-9.182a3.7 3.7 0 0 0-2.892-1.38M66.126 70.802c-27.684 0-50.122 22.438-50.122 50.122 0 27.033 21.405 49.07 48.196 50.084v.038h75.182V171c20.391-1.005 36.622-17.861 36.622-38.503 0-21.293-17.264-38.557-38.557-38.557a38.4 38.4 0 0 0-24.588 8.855c-7.265-18.716-25.45-31.99-46.733-31.99z"/></svg>