<svg xmlns="http://www.w3.org/2000/svg" width="192" height="192" viewBox="0 0 192 192"><path d="M171.79 24.424a4.193 4.193 0 0 1 4.208 4.208v134.73a4.208 4.208 0 1 1-8.416 0V28.632a4.193 4.193 0 0 1 4.208-4.208m-25.265 50.523a4.2 4.2 0 0 1 4.208 4.216v33.682a4.208 4.208 0 1 1-8.416 0V79.163a4.205 4.205 0 0 1 4.208-4.216m-25.265 8.424a4.205 4.205 0 0 1 4.216 4.209v16.849a4.212 4.212 0 1 1-8.424 0v-16.85a4.203 4.203 0 0 1 4.208-4.208m-25.265-16.84a4.2 4.2 0 0 1 4.216 4.208v50.53a4.212 4.212 0 1 1-8.424 0V70.74a4.2 4.2 0 0 1 4.208-4.209M70.73 49.681a4.207 4.207 0 0 1 4.216 4.217v84.212a4.212 4.212 0 1 1-8.424 0V53.898a4.205 4.205 0 0 1 4.208-4.217m-25.265 8.425a4.205 4.205 0 0 1 4.216 4.208v67.371a4.212 4.212 0 1 1-8.424 0V62.322a4.205 4.205 0 0 1 4.208-4.216m-25.249 16.84a4.205 4.205 0 0 1 4.208 4.217v33.682a4.212 4.212 0 1 1-8.424 0V79.163a4.207 4.207 0 0 1 4.216-4.216"/></svg>