<svg xmlns="http://www.w3.org/2000/svg" width="192" height="192" viewBox="0 0 192 192"><path d="M64.532 52.229a26.67 26.67 0 0 0-19.627 8.347h-.009q-.533-.027-1.084-.018A28 28 0 0 0 19.152 75.6c-2.053 4-2.817 8.294-3.057 12.667-.214 3.93 0 7.912 0 11.796v37.69h21.13s.017-18.56 0-34.526c0-10.738-.08-20.312 0-22.285.373-9.289 2.915-15.36 7.653-20.33 15.734 0 25.912 10.72 26.472 27.78.134 3.92.178 24.871.178 24.871v24.481H92.64v-33.095c0-10 .089-18.667-.613-24.64-1.947-16.659-12.134-27.78-27.503-27.78zm55.931 2-21.103.027V87.35c0 10.009-.089 18.667.613 24.64 1.947 16.659 12.134 27.78 27.494 27.78a26.67 26.67 0 0 0 19.627-8.347h.01q.533.026 1.093.018a27.91 27.91 0 0 0 24.65-15.032c2.062-4 2.818-8.303 3.058-12.667.213-3.938 0-7.912 0-11.805v-37.69h-21.13s-.018 18.57 0 34.526c.009 10.738.08 20.312 0 22.285-.374 9.28-2.916 15.36-7.654 20.33-15.734 0-25.912-10.73-26.472-27.78-.133-3.92-.178-13.626-.178-24.89V54.23"/></svg>