<svg xmlns="http://www.w3.org/2000/svg" width="192" height="192" viewBox="0 0 192 192"><path d="M134.6 16.001c-1.656-.018-3.116.23-3.116.23-3.762 0-5.434 4.52-6.198 5.828l-11.288 22.21c-2.142 3.646-9.116 19.362-11.477 22.861-.166-3.53.049-10.622.159-12.317.459-6.705.926-11.757 1.617-17.924.532-4.771 1.545-10.136.548-14.889-.612-2.967-1.588-3.18-5.834-3.634-4.417-.465-7.476 6.006-8.945 9.029-5.438 11.195-11.489 22.165-16.31 33.623-1.407 3.328-3.182 6.669-4.614 9.997-1.713 3.983-3.357 7.953-5.23 11.868-1.987 4.148-8.233 17.642-10.007 21.882-1.927 4.631-2.332 8.368 5.432 8.172 1.193-.03 3.927.288 7.268-3.334 2.606-2.826 3.139-5.475 4.71-9.39a1011 1011 0 0 1 15.503-36.882c.606-1.37 1.956-5.257 3.302-8.315-.074 4.313-.796 9.484-1.077 12.892-1.01 12.474-1.75 24.543-2.832 36.9-.147 1.652-.593 3.646.197 5.206.777 1.548 2.672 1.958 4.263 2.154 6.197.747 6.833-2.314 8.766-6.59 1.707-3.78 2.765-6.876 4.3-10.724a569 569 0 0 1 15.344-35.262c1.419-2.949 2.858-5.884 4.387-8.772 2.814-5.334 5.157-10.376 8.234-16.285 2.282-4.374 4.517-9.153 6.958-13.858l.01-.024c1.996-3.858-1.31-4.622-4.07-4.652m-61.51 119.03c-7.517 0-11.49 3.381-11.49 9.784 0 3.039 1.193 5.129 2.233 6.615 1.362 1.903 3.16 3.43 5.243 5.194l.748.635c.487.428.952.827 1.406 1.212l.286.248c1.393 1.174 2.595 2.19 3.524 3.345 1.176 1.442 1.682 2.945 1.682 5.025 0 4.341-2.502 6.363-7.865 6.363-2.65 0-5.35-.233-7.406-.435l-.213-.019-.008 2.182.162.027c3.22.505 6.1.761 8.556.761 7.59 0 12.119-3.841 12.119-10.273 0-2.652-.685-4.78-2.23-6.895h.003v-.003c-1.308-1.754-3.03-3.25-5.022-4.978l-.051-.046-.5-.432q-.495-.425-.977-.83c-1.708-1.444-3.321-2.811-4.547-4.354-1.341-1.628-1.94-3.19-1.94-5.081 0-3.769 2.352-5.602 7.186-5.602 1.834 0 3.922.15 5.878.435l.224.03v-2.171l-.162-.033c-2.477-.449-4.969-.704-6.839-.704m62.25.005c-8.833.002-13.126 6.702-13.126 20.481 0 13.775 4.294 20.478 13.129 20.478 8.833 0 13.175-6.7 13.175-20.481 0-13.777-4.307-20.477-13.175-20.478zm-116.71.41v40.141h5.446v-18.289h11.94v-3.531h-11.94v-14.838h13.723l-.003-.003v-3.48zm26.388.014v.003l-10.041 40.14h2.397l2.843-10.706h11.158l2.96 10.707h5.58L49.699 135.46zm40.584.01v40.134h5.432v-18.316h11.99v18.316h5.432l.049-40.127h-5.43l-.051 18.294h-11.99v-18.3zm27.589.006-.054 40.127h5.532l.051-40.127h-.003zm42.055.019-3.499.008v40.154h2.503v-30.292l15.937 30.297 3.196.005v-40.162h-2.462v29.637zm-17.3 2.57c.702 0 1.476.13 2.327.375 5.392 1.587 5.902 5.849 2.257 18.966h.003v.003l-.051.143c-2.43 8.707-4.442 12.821-6.95 14.204-1.263.697-2.741.739-4.797.135-4.99-1.465-6.433-4.366-2.47-18.532 2.476-8.843 4.662-13.24 7.314-14.703a4.8 4.8 0 0 1 2.367-.591m-92.158 4.052 4.74 19.244h-9.384z"/></svg>