<svg xmlns="http://www.w3.org/2000/svg" width="192" height="192" viewBox="0 0 192 192"><path d="M159.66 16.001a32 32 0 0 0-5.168.376c-6.16 0-8.928 7.44-10.2 9.56l-18.608 36.665c-3.504 6.056-15.088 31.985-18.912 37.73-.32-5.849.104-17.537.208-20.305.744-11.048 1.488-19.44 2.656-29.537.856-7.864 2.56-16.688.96-24.552-1.064-4.888-2.656-5.208-9.672-5.952-7.328-.744-12.32 9.88-14.768 14.88-8.928 18.488-18.92 36.561-26.888 55.473-2.336 5.52-5.2 11.048-7.648 16.472-2.872 6.584-5.528 13.072-8.609 19.552-3.296 6.8-13.6 29.121-16.48 36.13-3.184 7.655-3.824 13.815 8.929 13.495 2.024 0 6.48.432 12.008-5.52 4.36-4.68 5.208-9.04 7.76-15.52a1680 1680 0 0 1 25.616-60.889c.96-2.24 3.184-8.72 5.416-13.712-.104 7.12-1.28 15.624-1.808 21.256-1.696 20.616-2.864 40.489-4.672 60.897-.216 2.76-.96 6.056.32 8.6 1.272 2.56 4.456 3.192 7.008 3.512 10.2 1.272 11.264-3.824 14.456-10.84 2.864-6.272 4.56-11.368 7.12-17.744 7.864-19.664 16.152-39.113 25.288-58.24a368 368 0 0 1 7.224-14.449c4.68-8.824 8.504-17.12 13.6-26.888 3.832-7.016 7.552-14.984 11.592-22.744 3.32-6.376-2.16-7.648-6.736-7.704z"/></svg>