<svg xmlns="http://www.w3.org/2000/svg" xml:space="preserve" width="192" height="192" viewBox="0 0 192 192"><path d="M139.09 16.001c-1.71-.02-3.217.241-3.217.241-3.888 0-5.61 4.788-6.4 6.176l-11.656 23.533c-2.211 3.863-9.406 20.52-11.844 24.226-.172-3.742.048-11.258.165-13.048.474-7.104.955-12.462 1.669-19.003.549-5.046 1.591-10.733.568-15.773-.632-3.143-1.64-3.377-6.028-3.85-4.56-.493-7.719 6.367-9.236 9.567C87.5 39.932 81.25 51.56 76.27 63.699c-1.448 3.531-3.282 7.07-4.758 10.595-1.772 4.222-3.47 8.421-5.407 12.573-2.053 4.398-8.501 18.7-10.328 23.19-1.991 4.912-2.41 8.873 5.605 8.662 1.236-.028 4.059.302 7.506-3.533 2.692-2.995 3.24-5.8 4.861-9.952 5.741-14.724 9.746-24.527 16.009-39.082.625-1.452 2.018-5.57 3.405-8.812-.068 4.568-.816 10.044-1.104 13.66-1.044 13.215-1.806 26.01-2.926 39.105-.15 1.755-.612 3.862.198 5.518.804 1.636 2.763 2.074 4.404 2.278 6.4.796 7.059-2.446 9.05-6.978 1.765-4.01 2.858-7.288 4.444-11.37 4.917-12.615 10.107-25.119 15.841-37.362 1.463-3.123 2.946-6.238 4.526-9.297 2.905-5.653 5.33-10.994 8.502-17.253 2.355-4.638 4.663-9.7 7.184-14.691l.008-.02c2.064-4.088-1.35-4.898-4.2-4.93zm-18.703 113.39-3.951.01v46.561h2.829v-35.126l18.005 35.128 3.606.008v-46.574h-2.781v34.377zm-72.304.008v46.564h2.745v-35.781l9.523 35.56.061.22h4.736l9.894-35.925v35.926h6.577v-46.564h-6.442l-10.64 38.138-10.37-37.917-.06-.221zm57.544 0L83.64 176.003h3.068l5.978-12.497H105.4l-.036 12.497h6.826v-46.604zm-.069 6.79h.008l-.109 23.229H94.502z"/></svg>