<svg xmlns="http://www.w3.org/2000/svg" width="192" height="192" viewBox="0 0 192 192"><path d="M157.82 114.77h-.66a50.88 50.88 0 0 1-29.091 29.891V114.77l16.301-14.54-16.301-14.56V65.309a26.11 26.11 0 0 0 26.191-25.601c0-17.521-16.731-23.701-26.191-23.701a28.8 28.8 0 0 0-7.27.8v.88h3.71a9.84 9.84 0 0 1 11.5 8.85 9.52 9.52 0 0 1-9.93 9.12l-.4-.03c-16.301 0-35.491-13.23-56.372-13.23A29.9 29.9 0 0 0 37.896 50.26a20.8 20.8 0 0 0 16.5 21.38v-.8a9.92 9.92 0 0 1-4.5-9.09 12.3 12.3 0 0 1 13.14-11.35l.22.02c17.531 0 45.822 14.54 63.352 14.54h.66v20.96l-16.3 14.54 16.3 14.54v30.331a62.4 62.4 0 0 1-20.23 3.13 45.04 45.04 0 0 1-30.762-10.1l29.531-13.24V65.67l-41.3 18.191a43.6 43.6 0 0 1 23.92-26.04v-.65c-30.1 6.7-54.252 28.29-54.252 58.031 0 34.631 26.831 60.802 65.452 60.802 40.081 0 58.182-29.09 58.182-58.762zm-82.763 22.481a45.84 45.84 0 0 1-13.38-34.401 55.2 55.2 0 0 1 2.47-17.311l13.68-6.26v56.512z"/></svg>