<svg xmlns="http://www.w3.org/2000/svg" width="192" height="192" viewBox="0 0 192 192"><path d="M96 144.27a6.976 6.976 0 1 0 0-13.952 6.976 6.976 0 0 0 0 13.952m0-60.464v-4.64h24.4v4.64h-9.456v25.928h-5.496v-25.92zm31.312-4.64 7.952 24.056h.32l7.936-24.056h6.088l-10.776 30.568H132l-10.768-30.568zM88.8 117.406H78v-2.328l3.688-4.032q1.2-1.24 1.936-2.064a8 8 0 0 0 1.064-1.52 3.2 3.2 0 0 0 .336-1.464q0-.952-.536-1.416a2 2 0 0 0-1.392-.48 4 4 0 0 0-1.792.424 56 56 0 0 0-2.592 1.336v-3.28a11.2 11.2 0 0 1 2.168-.96 8 8 0 0 1 2.456-.32 5.6 5.6 0 0 1 2.672.56 4 4 0 0 1 2.344 3.736 5.6 5.6 0 0 1-.512 2.408 8.8 8.8 0 0 1-1.52 2.152 48 48 0 0 1-2.384 2.352l-2.048 1.92v.152H88.8zm-9.896-26.784q0 4.2-1.096 7.672a16 16 0 0 1-3.352 5.92 14.4 14.4 0 0 1-5.656 3.832 23.2 23.2 0 0 1-8.112 1.312q-4.68 0-8.112-1.32a14.8 14.8 0 0 1-5.68-3.84 16 16 0 0 1-3.336-5.936 25.6 25.6 0 0 1-1.088-7.688q0-5.64 1.936-9.84 1.96-4.192 6.016-6.504 4.064-2.32 10.32-2.32 6.232 0 10.24 2.32 4.016 2.312 5.96 6.512 1.96 4.2 1.96 9.88m-27.928 0q0 3.8 1 6.568 1.024 2.736 3.16 4.224 2.144 1.472 5.552 1.472 3.456.008 5.6-1.472 2.16-1.488 3.112-4.224a19.2 19.2 0 0 0 1-6.56q0-5.736-2.248-9.016t-7.408-3.28q-3.44 0-5.608 1.488a8.56 8.56 0 0 0-3.16 4.24 19.2 19.2 0 0 0-1 6.56m-16.4-35.816h122.84c6.352 0 11.504 5.152 11.504 11.504v56.28a11.52 11.52 0 0 1-11.504 11.504h-41.28a3.544 3.544 0 1 0 0 7.08h41.272A18.59 18.59 0 0 0 176 122.582V66.318a18.59 18.59 0 0 0-18.592-18.592H34.588a18.59 18.59 0 0 0-18.592 18.592v56.264a18.59 18.59 0 0 0 18.592 18.592h41.176a3.544 3.544 0 1 0 0-7.08H34.588a11.52 11.52 0 0 1-11.512-11.504V66.31c0-6.352 5.152-11.504 11.504-11.504"/></svg>