<svg xmlns="http://www.w3.org/2000/svg" width="192" height="192" viewBox="0 0 192 192"><path d="M99.542 146.76a112 112 0 0 1-8.96-1.92c-15.4-3.952-27.327-12.024-40.983-27.727-13.576-15.616-18.488-19.152-28.847-20.792a6.8 6.8 0 0 1-3.392-1.76C16.016 93.121 16 92.969 16 81.817V70.521l1.648-1.416c1.52-1.312 1.936-1.392 5.36-1.04a57.6 57.6 0 0 1 31.095 13.12c2.952 2.448 8.696 8.248 12.776 12.888 12.536 14.264 17.392 18.36 25.6 21.56 4.551 1.776 6.96 2.352 13.487 3.24 8.856 1.2 8.536.64 8.536 14.68 0 11.16-.024 11.4-1.312 12.608-1.128 1.064-1.904 1.216-5.784 1.16a80 80 0 0 1-7.864-.56m65.303-23.416c-15.296-2.568-26.895-9.88-39.783-25.063-15.52-18.312-24.08-23.728-39.95-25.32-4.113-.407-5.377-.76-6.48-1.807-1.377-1.288-1.385-1.336-1.385-12.672 0-11.368 0-11.376 1.4-12.688 1.344-1.256 1.632-1.296 7.48-.936 7.68.48 14.88 1.992 21.968 4.616 13.696 5.072 21.328 10.936 36.103 27.71 4.136 4.697 8.832 9.713 10.424 11.145 3.72 3.344 9.968 6.384 14.608 7.104 2.656.408 4.024.944 5.08 2 1.4 1.4 1.44 1.632 1.624 10.8.224 10.8-.04 12.8-1.896 14.664-1.536 1.536-2.44 1.576-9.2.44z"/></svg>