<svg width="192" height="192" fill="none" xmlns="http://www.w3.org/2000/svg"><path d="M64 125c-22 21-42-8-42-8m106 8c22 21 42-8 42-8m-86 19c-19 35-51 15-51 15" stroke="#000" stroke-width="12" stroke-linecap="round" stroke-linejoin="round"/><path d="M96 136c28.167 0 51-24.624 51-55s-22.833-55-51-55c-28.166 0-51 24.624-51 55s22.834 55 51 55Z" stroke="#000" stroke-width="12" stroke-linecap="round" stroke-linejoin="round"/><path d="M79.5 104c1.38 0 2.5-2.686 2.5-6s-1.12-6-2.5-6-2.5 2.686-2.5 6 1.12 6 2.5 6Z" stroke="#000" stroke-width="10" stroke-linecap="round" stroke-linejoin="round"/><path d="M39.853 162.915c1.867.5 3.67-.175 4.028-1.509.357-1.334-.867-2.821-2.734-3.321s-3.67.175-4.028 1.509c-.357 1.334.867 2.821 2.734 3.321Zm22.822.821c1.867-.5 3.091-1.987 2.734-3.321-.358-1.333-2.161-2.009-4.028-1.509-1.867.501-3.091 1.987-2.734 3.321.358 1.334 2.16 2.009 4.028 1.509Zm19.335-10.725c1.368-1.367 1.684-3.267.708-4.243-.976-.976-2.876-.66-4.243.707-1.367 1.367-1.683 3.267-.707 4.243.977.976 2.876.66 4.243-.707Z" stroke="#000" stroke-width="6" stroke-linecap="round" stroke-linejoin="round"/><path d="M107.995 136c19 35 51 15 51 15" stroke="#000" stroke-width="12" stroke-linecap="round" stroke-linejoin="round"/><path d="M152.143 162.915c-1.868.5-3.671-.175-4.028-1.509-.358-1.334.866-2.82 2.733-3.321 1.868-.5 3.671.176 4.028 1.509.358 1.334-.866 2.821-2.733 3.321Zm-22.824.821c-1.867-.5-3.091-1.987-2.733-3.32.357-1.334 2.16-2.009 4.027-1.509 1.868.5 3.092 1.987 2.734 3.321-.357 1.333-2.16 2.009-4.028 1.508Zm-19.335-10.727c-1.367-1.367-1.683-3.266-.707-4.242.977-.977 2.876-.66 4.243.707 1.367 1.367 1.683 3.266.707 4.242-.976.977-2.876.66-4.243-.707Z" stroke="#000" stroke-width="6" stroke-linecap="round" stroke-linejoin="round"/><path d="M112.5 104c1.381 0 2.5-2.686 2.5-6s-1.119-6-2.5-6-2.5 2.686-2.5 6 1.119 6 2.5 6Z" stroke="#000" stroke-width="10" stroke-linecap="round" stroke-linejoin="round"/></svg>