<svg width="192" height="192" fill="none" xmlns="http://www.w3.org/2000/svg"><path d="M169.592 88.181a73.552 73.552 0 0 0-11.126-31.872C145.333 35.683 122.264 22 96 22c-26.264 0-49.333 13.683-62.466 34.309m136.058 31.872A74.8 74.8 0 0 1 170 96c0 40.869-33.131 74-74 74-40.87 0-74-33.131-74-74 0-2.64.138-5.25.408-7.819A73.551 73.551 0 0 1 33.534 56.31m99.442 6.034C108.578 72.18 96 90 96 90S83.422 72.18 59.024 62.343a87.092 87.092 0 0 0-25.49-6.034m124.932 0a87.091 87.091 0 0 0-25.49 6.034m36.616 25.838C119.942 91.01 96 130 96 130S72.058 91.008 22.408 88.181m36.616-25.838C68.17 52.302 81.35 46 96 46s27.831 6.302 36.976 16.343" stroke="#000" stroke-width="12" stroke-linecap="round" stroke-linejoin="round"/></svg>