<svg xmlns="http://www.w3.org/2000/svg" width="192" height="192" viewBox="0 0 192 192"><path d="M98.432 49.744v92.512h22V49.744zm-45.24 8.496C32.64 58.24 16.001 75.144 16.001 96s16.647 37.76 37.191 37.76c20.536 0 37.186-16.904 37.186-37.76s-16.65-37.76-37.186-37.76m75.305 13.568v16.176l8.191 8.32-8.191 8.319v15.426h15.928l7.824-7.946 7.817 7.946h15.936v-15.426l-8.192-8.319L176.002 88V71.809h-15.184l-8.569 8.703-8.576-8.703zM53.192 85.056c5.952 0 10.777 4.896 10.777 10.943s-4.825 10.943-10.777 10.943c-5.96 0-10.783-4.895-10.783-10.943s4.823-10.943 10.783-10.943"/></svg>