<svg xmlns="http://www.w3.org/2000/svg" width="192" height="192" viewBox="0 0 192 192"><path d="M95.718 16.002c-8.592.024-9.16.08-13.976 1.376a80 80 0 0 0-8.864 2.976c-17.032 7.2-29.79 22.944-33.815 41.71-1.264 5.92-1.072 16.657.416 23.04 1.296 5.545 3.512 11.457 6.104 16.28.968 1.8 7.304 11.44 14.08 21.409a16872 16872 0 0 1 30.271 44.687c3.232 4.76 6.04 8.592 6.248 8.52s3.296-4.456 6.856-9.744a25976 25976 0 0 1 24.656-36.479c20.616-30.463 22.424-33.607 24.872-43.431 1.312-5.248 1.616-16.56.616-22.56a60.5 60.5 0 0 0-10.368-24.656c-6.912-9.392-17.704-17.144-28.752-20.648-7.24-2.304-8.736-2.504-18.344-2.48m.72 9.424q3.464.032 6.952.592a47.6 47.6 0 0 1 29.296 16.504c10.544 12.432 14 28.336 9.536 43.79a48.8 48.8 0 0 1-34.183 33.28c-3.424.888-5.496 1.128-10.792 1.24-3.6.072-7.144.04-7.864-.08a48.8 48.8 0 0 1-27.96-14.616c-9.44-9.872-13.808-21.56-13.2-35.287.384-8.624 2.712-16.032 7.224-23.008 9.2-14.208 24.8-22.56 40.983-22.416zm20.984 17.936c-.56-.112-50.927 35.359-53.703 37.823-.424.368-.76.888-.76 1.152.024 1.568.776 1.736 11.664 2.688 12.112 1.056 13.624 1.456 16.6 4.432 1.008 1.016 3.712 5.336 6.64 10.64 2.72 4.912 5.24 9.16 5.6 9.44.392.32 1.008.391 1.584.175.864-.32 1.472-2.983 7.432-32.606 4.575-22.728 6.367-32.455 6.071-32.935a2 2 0 0 0-1.12-.808z"/></svg>