<svg xmlns="http://www.w3.org/2000/svg" width="192" height="192" viewBox="0 0 192 192"><path d="M20.589 167.26v-8.737h150.82v17.475H20.589zm54.552-16.441a65 65 0 0 0-1.81-.322c-.65-.107-1.252-.249-1.339-.315-.086-.067-.44-.171-.787-.233a5.7 5.7 0 0 1-1.102-.326c-.26-.117-.92-.398-1.469-.624a43 43 0 0 1-1.937-.866c-.517-.25-1.202-.54-1.522-.643s-.653-.242-.74-.31c-.209-.162-1.78-.596-3.149-.869-.606-.12-1.385-.29-1.731-.377-.82-.204-4.382-.21-5.371-.008-2.097.429-4.36 1.033-5.044 1.347-.273.126-.547.228-.609.228s-.653.254-1.314.564a58 58 0 0 1-2.147.952c-.52.213-1.086.453-1.26.532-1.682.775-4.278 1.251-6.838 1.255-3.371.005-5.372-.541-10.243-2.798-1.58-.731-4.47-1.765-4.936-1.765-.135 0-.423-.08-.64-.18l-.396-.18C44.93 102.83 69.2 59.826 93.436 16.811c.49-.87 2.607-1.02 3.731-.55 1.606.736 2.153 2.507 2.977 3.964l70.168 124.03c.027.048.185.394.413.754.383.608.393.668.143.852-.149.108-.565.244-.925.301-1.413.226-3.894 1.18-9 3.462-.509.228-2.35.742-3.62 1.011-2.998.635-7.018.162-10.1-1.188-.273-.12-.536-.217-.585-.217s-.912-.39-1.917-.866c-1.006-.477-1.912-.867-2.013-.867-.102 0-.397-.112-.657-.247-.486-.254-1.603-.566-3.385-.945-.563-.12-1.377-.296-1.81-.391-1.746-.384-5.536-.01-8.817.87-1.069.286-.882.21-3.623 1.471-4.505 2.072-8.29 2.926-11.366 2.565-2.653-.312-3.64-.469-3.934-.625-.157-.083-.76-.297-1.338-.475-.58-.179-2.103-.794-3.385-1.368-3.02-1.351-3.203-1.43-3.67-1.555a5.5 5.5 0 0 1-.709-.251c-1.071-.494-4.104-.936-5.321-.778-1.382.181-4.22.948-5.227 1.414a179 179 0 0 1-3.88 1.729c-.637.272-1.3.563-1.473.647-1.743.846-7.217 1.613-8.974 1.258zm44.127-19.69c2.224-.853 3.34-2.268 3.34-4.232 0-1.187-.445-2.297-1.654-4.126-1.192-1.803-1.746-3.38-1.578-4.495.255-1.706 1.292-3.069 2.893-3.804 1.237-.566 3.399-.59 4.904-.053 1 .357 2.194.69 4.567 1.277l1.889.468c1.262.314 2.75.942 4.185 1.766 1.664.955 3.192 1.151 2.896.61L98.35 40.88c-.262-.438-.649-.795-1.032-1.078-.68-.502-1.924-.545-2.579-.02-.394.315-.766.697-.929 1.097l-42.614 78.046c-.494.906 5.305 2.941 9.067 3.481 4.102.589 6.687-.067 9.935-2.52 1.486-1.123 2.652-2.315 3.977-4.065 1.183-1.564 2.528-2.837 3.564-3.373.764-.395 1.033-.448 2.283-.448 1.296 0 1.49.041 2.283.49.816.464.917.591 1.757 2.236 1.176 2.301 1.896 3.367 3.073 4.547 2.458 2.466 4.945 2.704 9.26.885.52-.219 1.202-.504 1.515-.632 1.374-.565 3.65-.515 5.067.112 1.06.469 1.696 1.08 2.683 2.579 1.368 2.077 3.611 4.653 5.706 6.551 2.244 2.034 4.121 2.903 5.969 2.764.606-.046 1.476-.227 1.934-.402z"/></svg>