<svg width="192" height="192" fill="none" xmlns="http://www.w3.org/2000/svg"><path d="M52 96c0 24.301 19.7 44 44 44 11.064 0 21.174-4.084 28.906-10.826-31.988-4.809-57.27-30.093-62.08-62.08A43.83 43.83 0 0 0 52 96Z" stroke="#000" stroke-width="12" stroke-linecap="round" stroke-linejoin="round"/><path d="M96 170c40.869 0 74-33.131 74-74 0-.832-.014-1.66-.041-2.486-.112-3.408-4.371-4.77-7.068-2.685a43.782 43.782 0 0 1-23.056 9.006c-1.264.11-2.543.165-3.835.165-24.301 0-44-19.7-44-44 0-1.292.056-2.571.165-3.835a43.779 43.779 0 0 1 9.006-23.056c2.085-2.697.723-6.956-2.685-7.068A75.192 75.192 0 0 0 96 22c-40.87 0-74 33.13-74 74 0 40.869 33.13 74 74 74Z" stroke="#000" stroke-width="12" stroke-linecap="round" stroke-linejoin="round"/></svg>