<svg xmlns="http://www.w3.org/2000/svg" width="192" height="192"><path d="M42.845 50.432C28.018 50.432 15.999 62.454 16 77.28c0 14.827 12.019 26.845 26.845 26.845 14.827 0 26.845-12.019 26.845-26.845a26.84 26.84 0 0 0-26.845-26.848m108.19 2.441a26.1 26.1 0 0 0-8.143 1.256 23.5 23.5 0 0 0-6.89 3.533 25.5 25.5 0 0 0-5.323 5.416 23.7 23.7 0 0 0-3.487 7.07 28 28 0 0 0-1.21 8.23 25 25 0 0 0 7.16 18.166 23.98 23.98 0 0 0 17.899 7.337 24.78 24.78 0 0 0 23.982-17.182h-13.78a10.83 10.83 0 0 1-4.21 4.072 12.2 12.2 0 0 1-5.996 1.477 11.76 11.76 0 0 1-7.92-2.64 12.12 12.12 0 0 1-3.892-7.563h36.51a28 28 0 0 0 .268-3.846 26.7 26.7 0 0 0-3.087-12.706 23.1 23.1 0 0 0-8.86-9.22 25.17 25.17 0 0 0-13.021-3.4m-48.416.19a22.7 22.7 0 0 0-4.787.494c-1.494.319-2.949.8-4.34 1.433a21 21 0 0 0-3.805 2.231 16.3 16.3 0 0 0-3.087 2.997l-2.593-5.997h-8.95v48.325H88.12V77.13a16.1 16.1 0 0 1 1.3-6.713 9.7 9.7 0 0 1 3.757-4.386 10.76 10.76 0 0 1 5.772-1.52q8.413-.001 8.413 10.826v27.2h13.066V73.273q0-9.216-4.787-14.72a16.37 16.37 0 0 0-13.022-5.489zm-54.642 8.152c.256 0 .504.086.706.248.225.22.338.53.307.844l.014 30.57a.98.98 0 0 1-.28.739c-.199.19-.467.292-.741.28h-6.874c-.81 0-1.174-.358-1.174-1.16V73.36c-1.89.944-3.993 1.2-6.067 1.44a1.01 1.01 0 0 1-.812-.234 1 1 0 0 1-.313-.773q.008-3.363 0-6.724a.964.964 0 0 1 .975-1.035c1.224-.1 2.318-.594 3.425-1.082a5.3 5.3 0 0 0 2.35-1.792 2.5 2.5 0 0 0 .398-.948 1.115 1.115 0 0 1 1.202-.992h6.775q.055-.006.11-.005zm103.06 2.754a12.5 12.5 0 0 1 5.236 1.074 11.45 11.45 0 0 1 4.07 3.086 13.8 13.8 0 0 1 2.597 4.967h-23.358a12.07 12.07 0 0 1 4.072-6.71 11.38 11.38 0 0 1 7.383-2.417M137.868 110.1v11.02c-4.721-4.504-12.148-4.504-16.869 0a12.605 12.605 0 0 0 0 17.038 12.13 12.13 0 0 0 17.207-.357l.507 3.25h2.746v-30.95zm-53.508 7.645a11.37 11.37 0 0 0-8.405 3.397c-4.504 4.778-4.504 12.24 0 17.019a11.37 11.37 0 0 0 8.405 3.397c1.737.02 3.456-.332 5.045-1.033a10.9 10.9 0 0 0 3.907-2.928l.379 3.462h2.996v-22.802H93.82l-.466 3.498a11.1 11.1 0 0 0-3.907-2.955 12.1 12.1 0 0 0-5.086-1.055zm-26.096.013A11.62 11.62 0 0 0 46.4 129.666a12.2 12.2 0 0 0 1.539 6.078 11.05 11.05 0 0 0 4.266 4.288 12.1 12.1 0 0 0 6.059 1.534 11.4 11.4 0 0 0 7.02-2.261 11 11 0 0 0 4.073-6.06h-3.626a8.35 8.35 0 0 1-3.018 3.57 7.94 7.94 0 0 1-4.455 1.286 8.06 8.06 0 0 1-4.203-1.115 7.9 7.9 0 0 1-2.929-3.04 8.74 8.74 0 0 1-1.054-4.285 8.33 8.33 0 0 1 2.343-6.018 7.8 7.8 0 0 1 5.849-2.43c1.59-.02 3.15.42 4.495 1.266a7.96 7.96 0 0 1 3.019 3.466h3.55a11 11 0 0 0-4.033-5.956 11.37 11.37 0 0 0-7.031-2.23zm56.042.373a8.29 8.29 0 0 0-7.266 3.588l-.59-3.462h-2.534v22.802h3.587v-12.371a7.53 7.53 0 0 1 1.711-5.258 6.16 6.16 0 0 1 4.795-1.88h2.324v-3.419zm15.411 3.073a8.12 8.12 0 0 1 6.018 2.409 8.78 8.78 0 0 1-.022 12.055 8.13 8.13 0 0 1-6.018 2.427 8.02 8.02 0 0 1-5.974-2.408 8.26 8.26 0 0 1-2.365-6.037 9 9 0 0 1 .635-3.357 7.9 7.9 0 0 1 1.73-2.68 8.2 8.2 0 0 1 2.661-1.755 8.5 8.5 0 0 1 3.335-.654m-45.079.008a8.65 8.65 0 0 1 6.013 2.409 8.893 8.893 0 0 1 0 12.077 8.67 8.67 0 0 1-12.014-.022 8.79 8.79 0 0 1 0-12.036 8.64 8.64 0 0 1 6.001-2.427z"/></svg>