<svg width="192" height="192" fill="none" xmlns="http://www.w3.org/2000/svg"><circle cx="96" cy="38" r="16" stroke="#000" stroke-width="12" stroke-linecap="round" stroke-linejoin="round"/><path d="M112 92a16.002 16.002 0 0 0-16-16 16 16 0 0 0-16 16M22 28a6 6 0 0 1 6-6h20a6 6 0 0 1 6 6v136a6 6 0 0 1-6 6H28a6 6 0 0 1-6-6V28Zm116 128.934c19.332-13.35 32-35.663 32-60.934 0-25.272-12.668-47.584-32-60.934v121.868ZM80 92v72a6 6 0 0 0 6 6h20a6 6 0 0 0 6-6V92" stroke="#000" stroke-width="12" stroke-linecap="round" stroke-linejoin="round"/></svg>