<svg width="192" height="192" fill="none" xmlns="http://www.w3.org/2000/svg"><circle cx="96" cy="63" r="14" stroke="#000" stroke-width="12" stroke-linecap="round" stroke-linejoin="round"/><path d="M96 22v25m0 30h43" stroke="#000" stroke-width="12" stroke-linecap="round" stroke-linejoin="round"/><circle cx="96" cy="129" r="14" stroke="#000" stroke-width="12" stroke-linecap="round" stroke-linejoin="round"/><path d="M96 22c-25.957 0-47 18.356-47 41 0 13.532 7.515 25.533 19.103 33C56.515 103.467 49 115.468 49 129c0 22.644 21.043 41 47 41s47-18.356 47-41c0-13.532-7.515-25.533-19.103-33C135.485 88.533 143 76.532 143 63c0-22.644-21.043-41-47-41Z" stroke="#000" stroke-width="12" stroke-linecap="round" stroke-linejoin="round"/></svg>