<svg xmlns="http://www.w3.org/2000/svg" width="192" height="192" viewBox="0 0 192 192"><path d="M95.998 16a66.35 66.35 0 0 0-46.909 19.426l-.004.002a66.346 66.346 0 0 0 46.911 113.25H99.9v27.319c37.935-18.342 62.443-58.541 62.443-93.664a66.346 66.346 0 0 0-66.344-66.336zm31.225 58.531a7.805 7.805 0 1 1 0 15.61 7.805 7.805 0 0 1 0-15.61m-63.027.076a7.805 7.805 0 0 1 8.385 7.729 7.805 7.805 0 1 1-15.61 0 7.805 7.805 0 0 1 7.225-7.729m31.22 0a7.805 7.805 0 0 1 8.387 7.729 7.806 7.806 0 1 1-15.612 0 7.805 7.805 0 0 1 7.225-7.729"/></svg>