<svg xmlns="http://www.w3.org/2000/svg" width="192" height="192" viewBox="0 0 192 192"><path d="M117.78 55.78c-2.416 6.519-7.76 12.318-15.039 12.878-1.765.102-2.156 10.847.289 10.31h12.015l-.146 36.565-24.805-32.367H79.312v52.971h11.342l.217-32.06 23.966 32.019 14.078.041-.258-74.293c.192-6.455-6.375-5.849-10.878-6.065zM42.54 83.151c-14.583 0-26.536 11.951-26.536 26.534s11.953 26.536 26.536 26.536 26.534-11.953 26.534-26.536S57.123 83.151 42.54 83.151m95.206.008v11.359h38.258v-11.36zM42.54 95.265c8.037 0 14.42 6.383 14.42 14.42s-6.383 14.422-14.42 14.422-14.422-6.386-14.422-14.422 6.385-14.42 14.422-14.42m95.206 8.703v11.359h38.258v-11.359zm0 17.636v11.357h38.258v-11.357z"/></svg>