<svg width="192" height="192" fill="none" xmlns="http://www.w3.org/2000/svg"><path d="M121 25h25a20.998 20.998 0 0 1 21 21v100c0 5.57-2.212 10.911-6.151 14.849A20.995 20.995 0 0 1 146 167H46a20.997 20.997 0 0 1-21-21V46a21 21 0 0 1 21-21h25a6.82 6.82 0 0 1 5.027 2.211L96 49l19.973-21.789A6.826 6.826 0 0 1 121 25Z" stroke="#000" stroke-width="12" stroke-linecap="round" stroke-linejoin="round"/><path d="M74 67v24H53l41 52 45-52h-21V67L96 91 74 67Z" stroke="#000" stroke-width="12" stroke-linecap="round" stroke-linejoin="round"/></svg>