<svg width="192" height="192" fill="none" xmlns="http://www.w3.org/2000/svg"><path d="m77 148-10 22m-16-65h90" stroke="#000" stroke-width="12" stroke-linecap="round" stroke-linejoin="round"/><circle cx="110" cy="84" r="3" stroke="#000" stroke-width="6" stroke-linecap="round" stroke-linejoin="round"/><circle cx="96" cy="105" r="46" stroke="#000" stroke-width="12" stroke-linecap="round" stroke-linejoin="round"/><path d="M106.77 57.142C119.145 52.72 128 40.894 128 27a32.32 32.32 0 0 0-.255-4.056A32.067 32.067 0 0 0 120 22c-10.683 0-20.144 5.235-25.957 13.28m12.727 21.862A31.945 31.945 0 0 1 96 59c-16.367 0-29.865-12.288-31.77-28.142A31.947 31.947 0 0 1 75 29a31.857 31.857 0 0 1 19.043 6.28m12.727 21.862c-1.075-8.944-5.839-16.753-12.727-21.861" stroke="#000" stroke-width="12" stroke-linecap="round" stroke-linejoin="round"/></svg>