<svg xmlns="http://www.w3.org/2000/svg" width="192" height="192" viewBox="0 0 192 192"><path d="M161.98 82.013a38.5 38.5 0 0 0-3.311-31.512 38.8 38.8 0 0 0-41.771-18.61 38.93 38.93 0 0 0-65.942 13.938 38.5 38.5 0 0 0-25.651 18.61 38.8 38.8 0 0 0 4.766 45.536 38.5 38.5 0 0 0 3.277 31.512 38.845 38.845 0 0 0 41.805 18.61A38.5 38.5 0 0 0 104.08 173a38.845 38.845 0 0 0 37.048-26.986 38.5 38.5 0 0 0 25.643-18.61 38.845 38.845 0 0 0-4.792-45.39m-57.89 80.907a28.75 28.75 0 0 1-18.465-6.674l.916-.513 30.657-17.711a5.13 5.13 0 0 0 2.524-4.364V90.425l12.963 7.495a.43.43 0 0 1 .24.343v35.816a28.92 28.92 0 0 1-28.835 28.843m-61.998-26.473a28.66 28.66 0 0 1-3.43-19.337l.915.547 30.69 17.694a4.96 4.96 0 0 0 5.006 0l37.493-21.613v14.973a.51.51 0 0 1-.214.385l-31.059 17.917A28.87 28.87 0 0 1 42.1 136.448zm-8.077-66.79a28.75 28.75 0 0 1 15.18-12.662v36.432a4.88 4.88 0 0 0 2.49 4.346l37.312 21.52-12.963 7.503a.51.51 0 0 1-.453 0l-31-17.882a28.92 28.92 0 0 1-10.566-39.41zm106.5 24.745L103.082 72.67l12.945-7.478a.51.51 0 0 1 .454 0L147.48 83.11a28.834 28.834 0 0 1-4.347 52.004V98.682a5.05 5.05 0 0 0-2.61-4.279zm12.903-19.405-.907-.548-30.63-17.848a4.96 4.96 0 0 0-5.049 0L79.373 78.216V63.251a.43.43 0 0 1 .18-.393l30.999-17.882a28.869 28.869 0 0 1 42.866 29.904zm-81.112 26.533-12.97-7.461a.51.51 0 0 1-.24-.368V57.972a28.869 28.869 0 0 1 47.333-22.16l-.916.513L74.848 54.02a5.13 5.13 0 0 0-2.515 4.372zm7.033-15.18 16.702-9.616 16.727 9.617v19.25L96.1 115.229l-16.727-9.625z"/></svg>