<svg xmlns="http://www.w3.org/2000/svg" width="192" height="192" viewBox="0 0 192 192"><path d="M96.022 19a77.008 77.008 0 0 0-3.64 153.91c1.207.051 2.418.085 3.64.09a76.23 76.23 0 0 0 51.028-19.58l.015-.016a77.27 77.27 0 0 0 0-114.81v.015A76.23 76.23 0 0 0 96.233 19zm.06 7.294h.196a69.3 69.3 0 0 1 17.79 2.406 58.37 58.37 0 0 0-44.83 23.611 68.22 68.22 0 0 0-14.513 41.96v3.548a68.22 68.22 0 0 0 14.453 41.81 58.52 58.52 0 0 0 44.892 23.67 69.3 69.3 0 0 1-21.355 2.331 69.708 69.708 0 0 1 3.368-139.34zm19.325 9.685a48.97 48.97 0 0 1 27.01 8.242 69.916 69.916 0 0 1 0 103.56h-.015a48.97 48.97 0 0 1-27.01 8.24 51.2 51.2 0 0 1-40.515-20.903l-.105-.135A60.68 60.68 0 0 1 61.989 97.73v-3.37a60.83 60.83 0 0 1 12.904-37.476 51.2 51.2 0 0 1 40.515-20.904zm-5.354 11.505v.015h.03zm.03.015a57.52 57.52 0 0 1 23.04 48.606 57.52 57.52 0 0 1-23.07 48.591c17.44-1.447 31.281-22.642 31.281-48.59 0-25.935-13.825-47.13-31.25-48.607z"/></svg>