<svg width="192" height="192" fill="none" xmlns="http://www.w3.org/2000/svg"><path d="M96 139c14.636 0 28.943-3.284 41.112-9.438 12.169-6.153 21.654-14.899 27.255-25.132 5.601-10.232 7.066-21.492 4.211-32.355-2.855-10.863-9.903-20.841-20.252-28.673-10.349-7.832-23.535-13.165-37.889-15.326-14.355-2.16-29.234-1.052-42.756 3.187C54.16 35.5 42.603 42.679 34.471 51.888 26.34 61.098 22 71.924 22 83" stroke="#000" stroke-width="12" stroke-linecap="round" stroke-linejoin="round"/><path d="M170 109c0 11.076-4.34 21.903-12.471 31.112s-19.689 16.387-33.21 20.625c-13.522 4.239-28.401 5.348-42.756 3.187-14.354-2.161-27.54-7.494-37.889-15.326-10.349-7.832-17.397-17.81-20.252-28.673-2.855-10.863-1.39-22.123 4.21-32.355 5.603-10.233 15.088-18.98 27.257-25.132C67.057 56.284 81.364 53 96 53" stroke="#000" stroke-width="12" stroke-linecap="round" stroke-linejoin="round"/><path d="M96 53c8.775 0 17.39 1.539 24.943 4.456 7.553 2.917 13.768 7.106 17.996 12.128 4.228 5.022 6.312 10.693 6.037 16.421-.276 5.728-2.902 11.303-7.604 16.141-4.702 4.839-11.308 8.764-19.126 11.366-7.819 2.602-16.565 3.785-25.323 3.425-8.758-.36-17.207-2.249-24.465-5.47-7.258-3.222-13.058-7.657-16.794-12.842" stroke="#000" stroke-width="12" stroke-linecap="round" stroke-linejoin="round"/><path d="M96 139c-8.775 0-17.39-1.539-24.943-4.456-7.553-2.917-13.769-7.106-17.996-12.128-4.228-5.022-6.313-10.693-6.037-16.421.276-5.728 2.902-11.303 7.604-16.142 4.702-4.838 11.308-8.763 19.126-11.365 7.82-2.602 16.565-3.785 25.323-3.425 8.758.36 17.207 2.25 24.465 5.47 7.258 3.222 13.058 7.657 16.795 12.842M22 83v26m148-26v26" stroke="#000" stroke-width="12" stroke-linecap="round" stroke-linejoin="round"/></svg>