<svg xmlns="http://www.w3.org/2000/svg" width="192" height="192" viewBox="0 0 192 192"><path d="M39.04 136H24.176V88.424H16V77.44h8.176v-4.72q0-9.144 4.48-12.936C31.648 57.24 35.624 56 40.744 56c2.208 0 3.84 0 4.984.08 1.136.064 1.992.064 2.624.136v12.44H44.24a10.4 10.4 0 0 0-2.984.36 2.88 2.88 0 0 0-1.568 1.096 4.8 4.8 0 0 0-.568 2.032c-.072.88-.072 1.816-.072 3.056v2.32h9.672v10.992h-9.68zm14.648 0V56h14.936v80H53.68m57.032-35.056a16 16 0 0 0-1.424-5.6 12 12 0 0 0-2.704-3.632 8.8 8.8 0 0 0-3.408-1.968 12.8 12.8 0 0 0-3.632-.576c-3.408 0-6.04 1.016-7.888 3.12-1.848 2.112-2.92 4.952-3.344 8.656zm14.152 17.168a26.3 26.3 0 0 1-4.056 8.432 24 24 0 0 1-5.904 5.528 23.2 23.2 0 0 1-6.96 2.984q-3.512.84-7.12.872a36.8 36.8 0 0 1-10.736-1.528 20.4 20.4 0 0 1-8.6-5.088 24.8 24.8 0 0 1-5.76-9.456c-1.424-3.928-2.136-8.8-2.136-14.544q.008-2.224.288-4.44a33.6 33.6 0 0 1 3.904-12.288 21.1 21.1 0 0 1 4.696-5.824 22.7 22.7 0 0 1 7.184-4.216 28.8 28.8 0 0 1 10.24-1.6c2.88.04 5.752.456 8.528 1.24a19.8 19.8 0 0 1 8.32 4.656c2.56 2.248 4.624 5.376 6.336 9.376 1.704 4 2.48 9.168 2.48 15.568v2.76H88.024q.152 1.984.504 3.928.464 2.408 1.704 4.512c.944 1.528 2.24 2.8 3.768 3.704q2.56 1.536 6.832 1.528c1.992 0 3.952-.52 5.68-1.52a7.04 7.04 0 0 0 3.56-4.584zM176 136h-18.272l-9.68-17.52-9.656 17.52h-17.848l19.056-29.68-18.344-28.504h17.92l9.456 16.944 9.24-16.944h17.424L156.8 106.328z"/></svg>