<svg xmlns="http://www.w3.org/2000/svg" width="192" height="192" viewBox="0 0 192 192"><path d="M95.886 16c-13.552 0-59.871 11.313-59.871 59.881 0 1.104.383 1.207.383 1.207 14.904-13.264 60.04-36.008 71.6-37.008-12.12-.152-39.823 8.711-50.223 16.359 1.472-28.904 37.11-36.911 67.199-17.871-12.496 3.936-26.567 43.648-64.135 28.352-3.456 1.496-7.281 3.352-23.945 17.641l-.004.004-.004.004c-23.781 27.113-10.837 34.096 10.889 27.896C65.199 144.56 95.879 176 95.879 176s59.881-61.367 59.881-100.12c-7.864 9.952-51.12 31.64-72.16 34.016 19 2.496 42.047-10.161 52.111-16.305-.768 29.04-39.76 37.697-66.752 17.537 22.632-12.84 26.847-41.353 63.191-27.145 2.08-.224 11.496-3.465 23.184-15.89 21.888-23.255 13.016-36.126-10.768-27.63-14.584-19.088-39.368-24.465-48.68-24.465zm60.766 27.793c6.64-.024 7.736 5.882-2.08 16.91-1.232-5.824-3.53-10.543-6.21-14.879 3.247-1.356 6.077-2.023 8.29-2.031M38.222 91.752c1.224 5.816 3.529 10.545 6.209 14.881-12.984 5.424-19.297-.177-6.209-14.881"/></svg>