<svg width="192" height="192" fill="none" xmlns="http://www.w3.org/2000/svg"><circle cx="157" cy="42" r="13" stroke="#000" stroke-width="12" stroke-linecap="round" stroke-linejoin="round"/><path d="m117.069 41.102 49.672 85.592a24.095 24.095 0 0 1 2.43 18.366 24.22 24.22 0 0 1-11.335 14.697 24.436 24.436 0 0 1-18.462 2.418 24.312 24.312 0 0 1-14.772-11.277L96 101.612m21.069-60.51a24.291 24.291 0 0 0-8.905-8.86 24.45 24.45 0 0 0-18.46-2.418 24.38 24.38 0 0 0-8.514 4.178 24.242 24.242 0 0 0-6.26 7.1l-49.67 85.592a24.094 24.094 0 0 0-2.431 18.366 24.218 24.218 0 0 0 11.335 14.697 24.435 24.435 0 0 0 18.462 2.418 24.311 24.311 0 0 0 14.772-11.277L96 101.612m21.069-60.51a24.082 24.082 0 0 1 0 24.204L96 101.612" stroke="#000" stroke-width="12" stroke-linecap="round" stroke-linejoin="round"/></svg>