<svg xmlns="http://www.w3.org/2000/svg" width="192" height="192" viewBox="0 0 192 192"><path d="M145.01 16a8.04 8.04 0 0 0-8.026 8.057v8.042h-8.073a8.016 8.016 0 0 0-8.041 8.041c0 4.454 3.587 8.057 8.041 8.057h8.057v8.042a8.043 8.043 0 0 0 16.083 0v-8.042h8.073a8.03 8.03 0 0 0 8.041-8.057 8.016 8.016 0 0 0-8.041-8.041h-8.073v-8.042A8.04 8.04 0 0 0 145.01 16m-49.856 3.44a72.359 72.359 0 0 0-15.395 143.05l13.301 12.674a3.053 3.053 0 0 0 4.189 0l13.301-12.674a72.33 72.33 0 0 0 56.934-70.694 72 72 0 0 0-9.846-36.432v.871c0 6.904-5.7 12.644-12.613 12.644a12.72 12.72 0 0 1-12.628-12.644v-3.47h-3.486a12.68 12.68 0 0 1-12.613-12.628c0-6.732 5.417-12.308 12.078-12.598a72 72 0 0 0-33.222-8.103zm0 31.02a41.332 41.332 0 1 1-.015 82.665 41.332 41.332 0 0 1 .015-82.665"/></svg>