<svg width="192" height="192" fill="none" xmlns="http://www.w3.org/2000/svg"><path d="M117.543 153.629A65.28 65.28 0 0 1 87.306 161C51.238 161 22 131.899 22 96c0-35.9 29.238-65 65.306-65A65.217 65.217 0 0 1 129 45.972" stroke="#000" stroke-width="12" stroke-miterlimit="32" stroke-linecap="round" stroke-linejoin="round"/><path d="M92.748 94.913a3.825 3.825 0 0 0 2.161-3.902 18.886 18.886 0 0 1-.127-2.215c0-10.374 8.361-18.796 18.667-18.796 6.128 0 11.566 2.976 14.973 7.571a3.788 3.788 0 0 0 3.224 1.533 15.127 15.127 0 0 1 10.197 3.315 15.224 15.224 0 0 1 5.317 8.524 3.805 3.805 0 0 0 1.657 2.371c.842.54 1.862.726 2.839.514a15.24 15.24 0 0 1 3.198-.339 15.15 15.15 0 0 1 10.718 4.482A15.265 15.265 0 0 1 170 108.745a15.267 15.267 0 0 1-4.428 10.774A15.153 15.153 0 0 1 154.854 124H99.146a15.154 15.154 0 0 1-10.718-4.481A15.267 15.267 0 0 1 84 108.745a15.279 15.279 0 0 1 8.744-13.828" stroke="#000" stroke-width="12" stroke-linecap="round" stroke-linejoin="round"/></svg>