<svg xmlns="http://www.w3.org/2000/svg" width="192" height="192" fill="none"><circle cx="46" cy="65" r="24" stroke="#000" stroke-linecap="round" stroke-linejoin="round" stroke-width="12"/><circle cx="146" cy="127" r="24" stroke="#000" stroke-linecap="round" stroke-linejoin="round" stroke-width="12"/><circle cx="146" cy="57" r="24" stroke="#000" stroke-linecap="round" stroke-linejoin="round" stroke-width="12"/><circle cx="46" cy="135" r="24" stroke="#000" stroke-linecap="round" stroke-linejoin="round" stroke-width="12"/><path stroke="#000" stroke-linecap="round" stroke-linejoin="round" stroke-width="12" d="M46 89c17 0 18-15 50-15s38 7 50 7m0 22c-17 0-18 15-50 15s-38-7-50-7M22 65c0-27 42-41 74-41s74 5 74 33m0 70c0 27-42 41-74 41s-74-5-74-33"/></svg>