<svg xmlns="http://www.w3.org/2000/svg" width="192" height="192" viewBox="0 0 192 192"><path d="M51.037 16v34.826h29.529A51.44 51.44 0 0 1 105.049 16zm80.932 0a44.8 44.8 0 0 0-43.435 34.826 46.4 46.4 0 0 0-1.172 10.062v70.214a9.335 9.335 0 1 1-9.265-9.265 8.8 8.8 0 0 1 2.469.375V87.464a48 48 0 0 0-2.469.062 44.237 44.237 0 1 0 44.091 46.044V69.215a18.4 18.4 0 0 1 18.39-18.389h17.67V16zm14.108 50.387a8.687 8.687 0 0 0-8.687 8.687 8.687 8.687 0 0 0 8.687 8.687 8.687 8.687 0 0 0 8.687-8.687 8.687 8.687 0 0 0-8.687-8.687"/></svg>