<svg xmlns="http://www.w3.org/2000/svg" width="192" height="192" viewBox="0 0 192 192"><path d="M46 32.368a30 30 0 0 0-30 30A29.95 29.95 0 0 0 46 92.32a30 30 0 0 0 30-30.064H65.16A19.16 19.16 0 1 1 46 43.224zm16.984 5.48a7.656 7.656 0 1 0-.008 15.312 7.656 7.656 0 0 0 .008-15.312m-16.936 11.24a13.28 13.28 0 0 0-13.296 13.28c0 7.376 5.976 13.352 13.36 13.296 7.32 0 13.28-5.92 13.28-13.296 0-7.328-5.968-13.28-13.344-13.28m87.144 43.232c-4.672.088-4.848.096-9.08.096l-.704.344c-.616 1.232-1.32 2.288-2.376 4.136-.616.88-3.072 4.928-3.6 5.72l.256.624c2.296-.08 2.808-.08 4.92 0l.8-.36c.088 0 4.84-4.928 5.72-5.808.616-.616 3.616-3.52 4.24-4.144zm-91.64 12.856c-13.04 0-18.768 7.84-18.768 15.6 0 3.608 1.584 7.048 4.32 9.344 1.312 1.144 3.168 2.112 5.2 3.168l2.368 1.312c3.968 2.12 4.416 2.376 5.736 3.608.704.704 2.552 2.384 2.552 5.64 0 6.08-5.28 9.616-12.064 9.616-2.64 0-6.264-.624-9.44-2.736a8.8 8.8 0 0 1-2.984-2.904l-.704.184-1.76 6.424.16.624c1.24.968 2.024 1.656 4.056 2.456a31.4 31.4 0 0 0 11.376 2.12c14.184 0 19.728-9.36 19.728-16.576 0-7.928-6.328-11.44-9.856-13.376l-2.128-1.064c-5.28-2.728-8.184-4.496-8.184-8.808 0-4.32 3.704-8.552 10.752-8.552 2.376 0 8.104.704 11.36 4.848l.704-.176 1.936-6.08-.176-.624c-2.024-1.232-6.256-4.048-14.184-4.048m57.28 1.144-12.608.264H76.36l-10.744-.168-.536.432-1.76 5.552.432.528a544 544 0 0 1 22.472-.432l-26.52 34.624c-4.84 6.344-5.464 7.04-8.376 10.744l.36.704 11.016-.168h12.6l12.152.08.528-.44 1.584-5.72-.44-.44-10.832.272H64.64L88.6 120.6c1.672-2.112 9-11.64 10.496-13.576zm37 .016-10.84.176h-17.976l-.528.352c-2.024 9.96-2.552 12.776-5.28 24.848l-2.56 11.528-3.616 14.816.36.512 14.28-.168h15.24l.528-.44 1.936-5.736-.36-.432-12.76.264h-9.264l2.384-11.096 1.488-6.704h10.768l8.624.096.704-.44 1.496-5.12-.264-.536-9.784.192h-10.312l3.624-15.952c4.32-.088 5.104-.08 12.504.088 2.64.088 5.296.08 7.936.176l.608-.536 1.504-5.448zm22.376.064-2.376.016-5.472.096-5.016.08-.624.432c-1.936 10.4-2.728 13.936-6.08 28.56l-1.936 8.192-3.44 14.264.44.528 7.68-.168.512-.536 1.76-9.68 2.112-9.52h3.72c9.072-.176 17.072-.448 22.624-7.408 2.384-2.992 3.888-7.392 3.888-11.36 0-5.552-2.112-9.24-5.64-11.36-2.928-1.84-6.8-2.152-12.16-2.136zm-.56 5.84c2.848 0 4.648.216 6.104.88 3 1.32 4.32 3.872 4.32 7.216 0 2.992-1.408 8-6.696 10.56-3.52 1.68-8.016 1.768-12.16 1.768h-1.856l3.096-13.904 1.504-6.344 2.448-.096q1.816-.072 3.24-.08"/></svg>