<svg xmlns="http://www.w3.org/2000/svg" width="192" height="192" viewBox="0 0 192 192"><path d="M95.914 19c-42.41.043-76.795 34.505-76.795 77 0 42.521 34.419 77 76.88 77s76.88-34.479 76.88-77.171l-27.78-.017a49.143 49.143 0 0 1-49.1 49.374A49.143 49.143 0 0 1 46.89 96a49.143 49.143 0 0 1 49.015-49.17zm43.479 14.151a19.584 19.584 0 0 0 0 39.159 19.56 19.56 0 0 0 19.532-19.575 19.567 19.567 0 0 0-19.532-19.584M96.187 61.838A34.137 34.137 0 0 0 62.076 96a34.137 34.137 0 0 0 34.111 34.145A34.11 34.11 0 0 0 130.289 96a34.137 34.137 0 0 0-34.111-34.162"/></svg>