<svg xmlns="http://www.w3.org/2000/svg" width="192" height="192" viewBox="0 0 192 192"><path d="M57.958 155.55a42.8 42.8 0 0 1-4.74-10.549c9.326 1.9 19.25 2.259 28.037 2.259 15.195 0 33.837-1.061 46.893-9.411 4.364-2.79 7.871-6.289 10.66-10.652 8.35-13.064 9.411-31.698 9.411-46.893 0-7.94-.3-16.812-1.762-25.333 2.926 1.06 5.664 2.36 8.145 3.935 3.679 2.362 6.588 5.27 8.94 8.94 7.35 11.5 8.513 28.525 8.513 43.848 0 15.332-1.163 32.357-8.513 43.856-2.352 3.679-5.27 6.588-8.94 8.94-11.5 7.341-28.524 8.513-43.847 8.513s-32.357-1.172-43.847-8.513a29.1 29.1 0 0 1-8.94-8.94zM81.246 19c15.323 0 32.357 1.164 43.847 8.513 3.679 2.344 6.588 5.261 8.94 8.94 7.358 11.49 8.513 28.516 8.513 43.847 0 15.314-1.163 32.34-8.512 43.847-2.353 3.68-5.262 6.588-8.941 8.932-11.49 7.358-28.524 8.522-43.847 8.522s-32.349-1.164-43.839-8.522a29.1 29.1 0 0 1-8.95-8.932c-7.348-11.499-8.512-28.524-8.512-43.847 0-15.332 1.164-32.357 8.513-43.847 2.353-3.679 5.27-6.587 8.949-8.94C48.897 20.163 65.923 19 81.246 19"/></svg>