<svg xmlns="http://www.w3.org/2000/svg" width="192" height="192" viewBox="0 0 192 192"><path d="M60.746 44.157q-6.648 0-11.041 2.736a16.8 16.8 0 0 0-6.464 7.592q-2.144 4.865-2.144 11.401 0 6.593 2.144 11.506 2.136 4.928 6.464 7.664 4.4 2.728 10.985 2.728 6.4 0 10.737-2.72a17.1 17.1 0 0 0 6.536-7.609q2.248-4.92 2.24-11.513c-.008-6.592-.736-8.216-2.24-11.457a16.8 16.8 0 0 0-6.536-7.6q-4.336-2.728-10.681-2.736zm22.489.64L98.38 87.191h5.336l15.137-42.394h-5.632l-9.505 27.065q-.952 2.672-1.6 4.984a48 48 0 0 0-1.072 4.4 72 72 0 0 0-2.664-9.248l-9.56-27.201zm41.378 0v42.402h5.344V69.198h17.217v-4.696h-17.217V49.5h18.345v-4.704zm-63.867 4.048q7.184 0 10.513 4.56 3.312 4.529 3.312 12.537t-3.312 12.641q-3.328 4.56-10.561 4.56-7.2 0-10.569-4.56-3.392-4.632-3.392-12.64t3.392-12.53q3.44-4.56 10.617-4.56zm8.72 53.3v12.696q0 .88.12 2.432.184 1.488.248 2.256h-.36a12.8 12.8 0 0 0-3.856-3.328q-2.32-1.36-6-1.36-5.936 0-9.553 4.216-3.552 4.153-3.56 12.345c-.008 8.193 1.192 9.577 3.56 12.345q3.56 4.097 9.497 4.105 3.736 0 6.112-1.44a12 12 0 0 0 3.8-3.433h.232l.784 4.272h4.217v-45.106zm17.993 1.36q-1.312 0-2.192.823-.888.784-.896 2.496 0 1.657.896 2.497a3.2 3.2 0 0 0 2.192.84 2.96 2.96 0 0 0 2.08-.84q.953-.84.945-2.497 0-1.72-.944-2.496a2.96 2.96 0 0 0-2.08-.824M16 104.864v42.386h23.68v-4.688H21.335v-15.129h17.273v-4.64h-17.28V109.56H39.68v-4.696zm86.651 3.265-2.08 6.768-4.568 2.08v2.496h4.504v18.521q0 3.856 1.304 5.984a7.36 7.36 0 0 0 3.393 3.033q2.136.832 4.624.84 1.416-.008 2.968-.304 1.552-.24 2.376-.656v-3.969q-.768.232-2.016.464a16 16 0 0 1-2.432.184 5.04 5.04 0 0 1-3.624-1.376q-1.36-1.416-1.36-4.328v-18.393h9.2v-4.04h-9.2v-7.304zm31.866 6.712q-6.824 0-10.8 4.272c-3.977 4.272-3.977 6.913-3.977 12.17q0 5.28 1.896 9.016 1.896 3.688 5.169 5.648 3.328 1.904 7.536 1.904 6.832 0 10.801-4.336 4.032-4.32 4.04-12.233 0-5.28-1.896-8.905a12.8 12.8 0 0 0-5.16-5.584 14.4 14.4 0 0 0-7.6-1.952zm37.746 0q-3.32 0-5.752 1.896a16 16 0 0 0-3.968 4.52h-.24l-.6-5.824h-4.272v31.818h5.232v-16.977q0-3.2 1.24-5.584 1.312-2.432 3.44-3.737 2.144-1.36 4.576-1.36a16 16 0 0 1 3.44.424l.64-4.816a11 11 0 0 0-1.84-.24 16 16 0 0 0-1.896-.12m-87.484.592v31.818h5.217v-31.81zm-24.457 3.736q5.28 0 7.249 3.2 1.952 3.16 1.952 9.089v.96q0 5.576-2.072 8.36-2.016 2.729-7.073 2.737-4.272-.008-6.4-3.16-2.08-3.145-2.08-8.841 0-5.632 2.08-8.952 2.136-3.385 6.344-3.393m74.084.056q4.865 0 7.12 3.2 2.249 3.225 2.249 8.857 0 5.64-2.24 8.96-2.272 3.273-7.08 3.28-4.857-.007-7.113-3.28-2.2-3.32-2.2-8.96t2.2-8.848 7.056-3.2z"/></svg>