<svg xmlns="http://www.w3.org/2000/svg" width="192" height="192" viewBox="0 0 192 192"><path d="M157.72 33.584a26.96 26.96 0 0 0-11.841-10.321 69.6 69.6 0 0 0-23.362-6 288 288 0 0 0-47.045-.56 89.6 89.6 0 0 0-25.123 4.72 29.44 29.44 0 0 0-16.562 13.12 29.6 29.6 0 0 0-3.28 14.723v80.729a24.64 24.64 0 0 0 7.36 18.162 2.4 2.4 0 0 1 .56.8v14.722a10.4 10.4 0 0 1 0-1.68v1.68a12.32 12.32 0 0 0 12.322 12.32 12 12 0 0 0 11.76-9.12 8 8 0 0 0 .72-3.68v-8.001h65.608v8a12.243 12.243 0 0 0 24.483.4.8.8 0 0 0 0-.4v-13.2a2.88 2.88 0 0 1 .72-1.84 24.8 24.8 0 0 0 7.44-18.163V49.266a29.1 29.1 0 0 0-3.76-15.682M46.91 54.866a5.92 5.92 0 0 1 5.92-5.92h86.41a5.92 5.92 0 0 1 5.92 5.92V83.75a5.92 5.92 0 0 1-5.92 5.84H52.83a5.84 5.84 0 0 1-5.92-5.84zm12.241 84.01a12.241 12.241 0 1 1 12.321-12.322 12.4 12.4 0 0 1-12.32 12.321m61.446-12.32a12.24 12.24 0 0 1 12.321-12.162 12.241 12.241 0 1 1-12.32 12.161"/></svg>