<svg xmlns="http://www.w3.org/2000/svg" width="192" height="192" viewBox="0 0 192 192"><path d="M75.511 19.116c7.714 5.592 17.23 17.701 29.398 37.407 10.417 16.868 12.766 21.466 14.796 28.885 2.274 8.303 3.217 22.821 1.853 28.548-2.022 8.472-6.358 14.055-16.127 20.792-1.634 1.12-1.634 1.221-.026 3.284 1.07 1.356 3.327 2.358 6.35 2.78 12.699 1.827 19.697 6.484 21.55 14.323 1.095 4.666.623 10.425-1.053 12.724-.59.809-2.257 1.466-3.705 1.466-3.209 0-8.11-2.762-16.91-9.542-3.638-2.804-7.284-4.951-8.101-4.766-.834.177-1.853 1.928-2.29 3.95-.447 1.995-1.399 4.32-2.123 5.178-.724.86-3.453 2.022-6.063 2.611-4.06.901-4.775 1.415-5.002 3.621a29 29 0 0 1-.674 3.941c-.337 1.095-.682 1.07-1.777-.177-.758-.858-1.364-2.063-1.364-2.669 0-2.299-4.22-.522-7.933 3.343-2.08 2.156-2.947 1.129-.951-1.137.598-.69.673-1.246.176-1.246-.505 0-1.397.556-1.995 1.246-.842.96-1.095.952-1.095-.05 0-1.449 4.354-6.375 5.642-6.375.446 0 .581-.455.278-1.01-.573-1.062-5.305-.354-7.958 1.195-1.01.59-1.583.53-1.583-.151 0-.59.404-1.07.91-1.07.496 0 .9-.488.9-1.078 0-.69-.716-.64-2.038.152-2.03 1.221-2.03 1.212-.311-1.002 2.13-2.737 7.158-4.38 12.69-4.127 2.915.118 4.708-.387 5.98-1.71 1.01-1.035 1.827-2.424 1.827-3.081s-1.137-2.442-2.518-3.95l-2.51-2.745-5.726 2.03c-6.871 2.442-9.355 2.543-12.8.505-1.894-1.112-2.711-1.204-2.964-.337-.69 2.383-2.223-.21-3.385-5.727-1.634-7.814-.657-14.34 2.695-17.962 1.448-1.557 6.838-5.187 11.975-8.059l9.339-5.229-.127-5.432c-.109-4.657-.53-5.87-2.947-8.446-2.13-2.274-2.83-3.916-2.83-6.678 0-2.021.354-3.916.784-4.219s-.388-3.2-1.82-6.425c-3.03-6.872-3.393-11.748-.926-12.49 1.533-.454 1.365-1.574-2.273-14.938-5.685-20.927-7.394-33.836-5.103-38.502.757-1.567 3.646-.708 7.865 2.358"/></svg>