<svg xmlns="http://www.w3.org/2000/svg" width="192" height="192" viewBox="0 0 192 192"><path d="M88.449 52.985c-8.113 0-15.19 4.483-18.864 11.092-.206.37-.4.741-.583 1.122-.189.394-.364.8-.53 1.209a21.2 21.2 0 0 0-1.457 10.117c.04.423.098.84.163 1.254l-.003-.002q.107.645.248 1.279a21 21 0 0 0 .845 2.838c.152.406.322.806.5 1.2a21.6 21.6 0 0 0 2.539 4.262 32.7 32.7 0 0 1 5.016-4.679q.52-.388 1.054-.758.533-.367 1.079-.713a32.5 32.5 0 0 1 17.069-5.072c.14 0 .281-.012.425-.012.41 0 .812.018 1.218.032q.838.031 1.663.104a32.5 32.5 0 0 1 10.638 2.795c.335-1.5.518-3.055.518-4.65a21.3 21.3 0 0 0-.524-4.683q-.136-.597-.3-1.179c-2.57-8.97-10.882-15.556-20.714-15.556m-28.122 9.914c-6.177 0-11.205 5-11.205 11.143 0 1.998.538 3.87 1.469 5.493a25.8 25.8 0 0 1 12.627-3.292l.335.002a26 26 0 0 1 .987.032 24 24 0 0 1-.081-1.877 23.6 23.6 0 0 1 2.054-9.64 11.2 11.2 0 0 0-6.186-1.86zm53.079 7.688c-.431 0-.856.017-1.28.042a24 24 0 0 1 .302 3.77 23.6 23.6 0 0 1-.716 5.775 32.74 32.74 0 0 1 12.845 12.84h.003a25.7 25.7 0 0 1 10.301-2.875c-.955-10.94-10.21-19.552-21.454-19.552zm-17.455 7.964c-.29 0-.575.014-.862.023l-.388.013a30.06 30.06 0 0 0-14.237 4.233 33 33 0 0 0-2.114 1.393 30.3 30.3 0 0 0-6.215 5.966q-.376.481-.732.98a29.7 29.7 0 0 0-4.901 23.787q.165.757.372 1.497a29.7 29.7 0 0 0 4.015 8.74 31 31 0 0 0 2.525 3.24 29 29 0 0 0 2.088 2.116 30.13 30.13 0 0 0 20.451 7.976c7.885 0 14.544-2.816 19.851-7.443a29 29 0 0 0 1.79-1.69c4.414-4.53 7.403-10.43 8.257-16.99a31 31 0 0 0 .238-3.084c.006-.257.016-.513.016-.773l-.002-.319a29.6 29.6 0 0 0-2.569-11.773 31 31 0 0 0-1.08-2.198 30.3 30.3 0 0 0-11.47-11.684 31 31 0 0 0-2.189-1.147h-.005a30 30 0 0 0-4.325-1.638 30.3 30.3 0 0 0-7.818-1.208c-.233-.006-.465-.017-.699-.017zm-32.729.118a23.36 23.36 0 0 0-12.264 3.464 23.4 23.4 0 0 0-9.934 12.478 23 23 0 0 0-1.192 7.31c0 7.547 3.636 14.262 9.254 18.512l.004.005a14.28 14.28 0 0 1 9.637-7.307 14.7 14.7 0 0 1 2.99-.318 14 14 0 0 1 1.947.134c-.2-1.445-.31-2.916-.31-4.415 0-7.198 2.376-13.853 6.384-19.24a24 24 0 0 1-2.413-3.607 22 22 0 0 1-.555-1.093q-.265-.554-.502-1.125a23.7 23.7 0 0 1-1.403-4.734 24 24 0 0 0-1.643-.065zm73.31 13.84-.372.008a23 23 0 0 0-1.223.052 23.3 23.3 0 0 0-9.288 2.62 32 32 0 0 1 2.869 12.061l.016.322a26 26 0 0 1 .024.963c0 .127-.008.248-.008.375l-.007.41a21 21 0 0 1-.056 1.22c-.498 8.064-3.97 15.338-9.341 20.748a23.42 23.42 0 0 0 13.592 7.42q1.857.305 3.8.307a23.37 23.37 0 0 0 15.53-5.887 26 26 0 0 0 .92-.854q.453-.442.876-.91c3.292-3.612 5.462-8.256 5.953-13.379a23 23 0 0 0 .106-2.222q0-.473-.024-.947a23 23 0 0 0-.236-2.508c-1.643-10.917-10.945-19.372-22.277-19.777a21 21 0 0 0-.851-.022zm-98.991 3.058c-11.878 0-21.542 9.61-21.542 21.42s9.664 21.42 21.542 21.42h.225a21.5 21.5 0 0 0 11.977-3.78 14 14 0 0 1-2.266-7.652 14 14 0 0 1 .648-4.228c-6.495-4.67-10.734-12.26-10.734-20.823a25.6 25.6 0 0 1 .798-6.34c-.215-.006-.431-.017-.648-.017m126.66 18.43c-.646 0-1.273.067-1.89.166.031.53.055 1.062.055 1.6 0 6.823-2.694 13.026-7.073 17.63a11.8 11.8 0 0 0 8.908 4.064c6.504 0 11.797-5.26 11.797-11.729 0-6.467-5.292-11.732-11.797-11.732zm-102.48 1.251c-.087 0-.172.011-.26.014a11.6 11.6 0 0 0-2.425.308 11.81 11.81 0 0 0-8.384 7.394c-.141.386-.266.78-.364 1.184-.228.91-.364 1.854-.364 2.832a11.54 11.54 0 0 0 1.767 6.143 11.6 11.6 0 0 0 1.494 1.93 11.8 11.8 0 0 0 8.536 3.656 11.8 11.8 0 0 0 4.416-.855c3-1.213 5.39-3.623 6.57-6.63l-.247-.253a33 33 0 0 1-3.327-4.045 34 34 0 0 1-1.39-2.184 32 32 0 0 1-3.621-9.249 12 12 0 0 0-2.4-.245z"/></svg>