<svg xmlns="http://www.w3.org/2000/svg" width="192" height="192" viewBox="0 0 192 192"><path d="M148.29 123.9c15.28 0 27.713-12.52 27.713-27.9 0-15.393-12.433-27.9-27.713-27.9-15.287 0-27.72 12.507-27.72 27.9 0 15.38 12.433 27.9 27.72 27.9m0-37.847c5.447 0 9.88 4.467 9.88 9.947s-4.44 9.933-9.887 9.933a9.92 9.92 0 0 1-9.88-9.933c0-5.494 4.434-9.954 9.88-9.954zM43.72 123.9c15.287 0 27.72-12.52 27.72-27.9 0-15.393-12.433-27.9-27.72-27.9-15.273 0-27.713 12.507-27.713 27.9 0 15.38 12.44 27.9 27.713 27.9m0-37.847c5.453 0 9.887 4.467 9.887 9.947s-4.434 9.933-9.887 9.933A9.92 9.92 0 0 1 33.853 96c0-5.494 4.427-9.954 9.867-9.954zm52.267-.627-8.5-16.96H67.56l18.607 37.093v17.467h19.653V105.56l18.607-37.093h-19.933l-8.5 16.96z"/></svg>