<svg xmlns="http://www.w3.org/2000/svg" width="192" height="192" viewBox="0 0 192 192"><path d="M113.5 77.896c-13.576 0-24.575 7.791-24.575 17.391S99.932 112.68 113.5 112.68s24.577-7.793 24.577-17.393-11.001-17.391-24.577-17.391m-80.482.012a17 17 0 0 0-.922.045 17.39 17.39 0 0 0-16.092 17.344 17.391 17.391 0 0 0 34.782 0 17.39 17.39 0 0 0-17.768-17.39zm24.37 1.476a3.852 3.852 0 0 0 0 7.704v.007h14.19l-12.975 17.383h-.023l-5.81 7.688h30.105a3.848 3.848 0 0 0 0-7.695H68.507L81.68 87.088l5.809-7.704zm85.826.008v30.094a3.852 3.852 0 0 0 7.703 0V95.302L168.3 108.28v.018l7.704 5.807V84.008a3.848 3.848 0 0 0-7.696 0v14.368l-17.39-13.174zm-29.721 5.465c5.52 0 10.223 1.599 13.368 3.815 3.16 2.224 4.256 4.671 4.256 6.615s-1.104 4.385-4.264 6.617c-3.12 2.224-7.84 3.815-13.36 3.815s-10.214-1.599-13.35-3.815c-3.16-2.224-4.264-4.673-4.264-6.617s1.104-4.383 4.256-6.615c3.144-2.224 7.847-3.815 13.358-3.815m-80.873.033a10.436 10.436 0 0 1 11.215 10.407h-.008a10.432 10.432 0 0 1-20.862 0A10.436 10.436 0 0 1 32.62 84.89"/></svg>