<svg xmlns="http://www.w3.org/2000/svg" width="192" height="192" viewBox="0 0 192 192"><path d="M95.994 23.791v.12l-.009-.009c-39.647 0-64.878 34.745-61.054 68.583a55.36 55.36 0 0 1 40.041-31.699 55.36 55.36 0 0 1 52.943 21.612 35.25 35.25 0 0 1 28.987 10.584v-.085a60 60 0 0 0 .445-7.718A61.43 61.43 0 0 0 95.994 23.8z" opacity=".6"/><path d="M85.308 64.585a50.53 50.53 0 1 0 .017 101.06 50.48 50.48 0 0 0 34.908-14.998 35.233 35.233 0 0 1 3.26-67.522 50.48 50.48 0 0 0-38.184-18.532z" opacity=".7"/><path d="M131.55 86.912v.017c-41.273-.615-41.289 61.47-.017 60.876 40.595.011 40.612-60.882.017-60.893" opacity=".8"/><path d="M95.986 19a66.1 66.1 0 0 0-24.23 4.595 76.677 76.677 0 0 0-21.09 134.57 55.6 55.6 0 0 0 12.62 7.503q1.771.83 3.576 1.574l.719.274a76.4 76.4 0 0 0 57.752-.36 76.685 76.685 0 0 0 41.496-100.18 76.4 76.4 0 0 0-46.09-43.171 65.9 65.9 0 0 0-24.752-4.8m.009 4.791a61.43 61.43 0 0 1 61.353 61.388q0 3.961-.437 7.726l-.009.077a35.25 35.25 0 0 0-28.987-10.584A55.36 55.36 0 0 0 74.973 60.79a55.36 55.36 0 0 0-40.04 31.699c-3.825-33.838 21.406-68.583 61.053-68.583h.009zM85.3 64.59a50.48 50.48 0 0 1 38.184 18.54 35.233 35.233 0 0 0-3.252 67.522 50.48 50.48 0 0 1-34.908 14.998A50.53 50.53 0 1 1 85.3 64.59m46.244 22.331a30.441 30.441 0 0 1-.017 60.883 30.441 30.441 0 1 1 .017-60.874z"/></svg>