<svg xmlns="http://www.w3.org/2000/svg" width="192" height="192" viewBox="0 0 192 192"><path d="M124.98 158.49c.384-.56 1.008-2.096-.16-4.928l-3.544-9.52c-.48-1.224.568-1.96 1.28-1.16 0 0 6.688 7.712 8.424 10.936l3.296 5.48c2.832.184 10.664.4 18.208.4a24 24 0 0 1-2.104-2.432c-12.864-15.944-21.024-24.824-21.104-24.912-2.608-2.84-3.808-3.384-5.8-4.288l-.92-.432v2.424c0 .32-.376.488-.568.16l-18.92-33.24-.064-.112a10.4 10.4 0 0 0-3.384-3.92l-1.84-1.28-9.032 20.816c1.416 0 2.36 1.44 1.792 2.72l-8.328 19.296h7.648c2.96 0 5.888.576 8.632 1.696l2 .832s-6.08 12.52-6.08 19.12c0 1.2.184 2.416.504 3.552h14.024l-.64-3.96s8.44 1.952 16.68 2.752M96.004 32.25c-44.184 0-80 35.816-80 80 0 17.792 5.816 34.216 15.64 47.504 3.36-1.456 5.224-3.616 6.56-5.28l14.88-19.048a3.2 3.2 0 0 1 1.2-.92l2.24-.968 24.488-31.064 3.56-2.776 7.296-10.16a3.2 3.2 0 0 1 .672-.688l3.2-2.32a2.24 2.24 0 0 1 2.64-.016l3.856 2.712a15.06 15.06 0 0 1 4.84 5.6l15.48 27.184a2.4 2.4 0 0 0 1.216 1.152c3.024 1.52 4.88 1.784 8.864 6.088a600 600 0 0 1 21.36 25.224c1.568 2.128 3.584 3.92 6.416 5.216a79.68 79.68 0 0 0 15.592-47.448c0-44.176-35.816-80-80-80M37.58 116.666l-5.192-1.688-3.2 4.416v-5.456l-5.184-1.696 5.184-1.68v-5.456l3.2 4.408 5.192-1.68-3.2 4.408zm-1.232 17.84-1.68 5.184-1.688-5.184h-5.456l4.4-3.208-1.68-5.184 4.424 3.2 4.4-3.2-1.68 5.184 4.408 3.208zm1.04-41.296 1.68 5.184-4.4-3.2-4.424 3.2 1.68-5.184-4.4-3.208h5.456l1.68-5.184 1.68 5.184h5.456zm8.752-11.728-3.2-4.416-5.192 1.68 3.2-4.4-3.2-4.416 5.192 1.68 3.2-4.4v5.448l5.184 1.68-5.184 1.688zm13.64-19.088-1.68 5.184-1.688-5.184h-5.456l4.416-3.2-1.688-5.192 4.408 3.2 4.4-3.2-1.68 5.184 4.416 3.2zm17.176-8.752-3.2 4.408v-5.44l-5.192-1.696 5.192-1.68v-5.448l3.2 4.4 5.2-1.688-3.216 4.416 3.208 4.4zm21.776-5 1.68 5.184-4.408-3.2-4.416 3.2 1.68-5.184-4.4-3.2h5.456l1.68-5.2 1.68 5.184h5.456zm19.52 3.968v5.44l-3.2-4.416-5.184 1.68 3.2-4.4-3.2-4.416 5.184 1.68 3.2-4.4v5.448l5.192 1.68zm36.184 55.232 5.176 1.68 3.208-4.4v5.448l5.184 1.68-5.184 1.688v5.456l-3.2-4.416-5.184 1.68 3.2-4.4zm-20.52-40.264-1.68-5.184h-5.456l4.416-3.2-1.696-5.184 4.416 3.2 4.416-3.2-1.688 5.184 4.408 3.2h-5.448zm11.952 13.904v-5.456l-5.184-1.68 5.184-1.68v-5.464l3.2 4.416 5.184-1.688-3.2 4.416 3.2 4.4-5.176-1.68zm9.792 8.52 1.68-5.184 1.696 5.184h5.44l-4.4 3.2 1.68 5.192-4.416-3.2-4.4 3.2 1.68-5.184-4.408-3.208zm3.376 44.504-1.696 5.184-1.68-5.184h-5.448l4.408-3.2-1.68-5.184 4.4 3.2 4.416-3.2-1.68 5.176 4.4 3.208zm-80.6 1.8c-.8-.336-2.112-1.8.064-5.904l5.056-10.584c.16-.32-.208-.72-.44-.448l-4.432 4.456c-2.088 2.192-5.648 8.336-6.336 9.472l-5.384 8.904a.72.72 0 0 1 .664 1.08l-4.92 8.256c-1.2 2.056.96 3.48 1.256 3.008 7.72-12.456 12.216-11.456 12.216-11.456l2.576-5.976a.59.59 0 0 0-.32-.808"/></svg>