<svg xmlns="http://www.w3.org/2000/svg" width="192" height="192" viewBox="0 0 192 192"><path d="M68.282 16a10.7 10.7 0 0 0-4.355.9c-3.781 1.632-5.301 4.495-5.917 6.817 2.443.661 4.045 1.879 4.045 1.879s57.767 35.655 61.311 37.815c3.528 2.168 6.777 4.833 9.16 9.865 2.12 4.464 1.881 9.4 1.881 9.4v82.215c0 .35.017 1.716-.433 3.381 2.189.574 4.815.722 7.48-.564 6.368-3.072 6.106-9.29 6.106-10.106V75.387s.239-4.937-1.881-9.393c-2.384-5.04-5.624-7.703-9.16-9.871-3.536-2.16-61.311-37.817-61.311-37.817s-2.89-2.284-6.926-2.307zm3.166 47.41v50.274l35.944 21.838v-15.277l-22.793-13.85V71.489z" opacity=".5"/><path d="M44.431 123.08c.04 1.336.2 3.232.704 4.232.88 1.736 1.224 3.16 5.64 5.872l64.84 39.936s6.32 4.952 12.688 1.88c6.36-3.072 6.104-9.288 6.104-10.104V82.68s.24-4.936-1.88-9.4c-2.384-5.032-5.632-7.696-9.16-9.864-3.544-2.16-61.312-37.816-61.312-37.816s-5.136-4.056-11.28-1.408c-6.144 2.656-6.344 8.56-6.344 10.104zm27.016-59.664 35.944 22.08v50.032l-35.944-21.84z"/></svg>