<svg xmlns="http://www.w3.org/2000/svg" width="192" height="192" viewBox="0 0 192 192"><path d="m91.812 22.945.11.61 4.234 22 6.172 21c.696 2.271 2.19 6.465 3.406 10.593.608 2.064 1.148 4.123 1.484 5.891.336 1.776.45 3.276.282 4.156-.432 2.208-1.902 3.473-4.094 5.313s-5.027 4.226-7.875 8.594c-7.368 11.336-6.641 17.342-6.625 29.75-5.152.072-7.328.552-9 1.328-1.728.8-2.866 1.839-6.61 3.047l-6 1.406-7.015 2.765c-4.24 1.36-8.541 2.692-11.47 5.172-2.847 2.416-4.28 6-2.952 11.375-9.664 2.536-10.915 2.289-21.547 6.313-1.28.48-2.68 1.224-4.016 1.656s-2.539.553-3.547-.047l-.75-.453v5.64l11.656-4.734c8.48-3.024 17.868-3.786 26.844-4.594 2.256-.208 3.532-.556 4.828-.796s2.622-.393 5.094-.313c4.368.168 6.028.069 7.5-.203 1.472-.264 2.69-.676 6.266-1.188h11.188c2.08.224 4.02 1.218 6.468 2.25 2.464 1.04 5.428 2.09 9.532 2.282h.03l24.97-1.953c6.6 0 24.86 1.887 30.812 3.687 2.592.784 3.582 1.48 5.094 2.328 1.52.832 3.514 1.777 7.906 2.953l.281.078 1.531-1.547-8.875-9.984-1.094 3.266c-2.216-1.088-3.417-1.95-3.937-2.735-.56-.848-.514-1.686-.266-3.062.504-2.736 1.814-7.178-.25-15.578-1.24-5-5.28-11.708-9.64-18.484s-9.043-13.595-11.531-18.563c-.88-1.744-2.171-4.284-3.203-6.844-1.04-2.56-1.793-5.163-1.657-6.89.336-4.057 3.78-7.111 7.485-10.735 3.704-3.624 7.621-7.826 8.437-14.219.528-4.176-1.28-8.59-4.015-12.39-2.744-3.793-6.435-6.991-9.875-8.72-3.608-1.807-8.153-2.454-10.641-4.718-3.552-3.192-3.959-9.46-4.063-14.203l-.015-.484c-10.35 0-20.698.01-31.047-.016m1.203 1h2.469c1.49 10.816 6.737 33.393 10.125 43.469 1.24 3.656 6.713 17.933 5.969 20.797-.664 2.656-5.88 6.05-8 8.266-3.8 3.944-5.926 7.922-8.078 12.89-1.824 4.24-5.023 17.52-2.063 21.392.928 1.208 1.737 1.161 2.969 1.593 4.944-6.736 12.552-10.4 20.984-8.609l7.984 2.61-20.969 1 1.578 2.984 12.406 5c-4.08 3.744-6.168 5.627-12 4.547-4.504-.4-11.203-5.088-14.89 0-1.257 1.424-1.907 4.39-1.907 6.437.056 9.872 9.925 11.944 17.797 11.984 15.224.064 16.817-4.08 27.97-12.984l-4.985 10.984 22.922 1.235c7.392-2.152 6.436-13.755 4.156-19.203l-17.156-29.97c-2.56-4.111-8.25-14.272-8.547-18.968-.28-4.192 2.953-7.224 5.64-10 4.52-4.68 10.558-9.89 10.814-16.97.344-9.191-9.236-17.487-17.828-17.983-.856 8.128-4.8 13.272-12.984 14.984 2.696-2.384 6.553-3.558 7.953-7.094 1.632-4.12.166-14.105-5.922-13.297-2.816.368-4.831 4.318-7.031 6.406.96-5.76 2.16-8.248 8-9.984l-.953-11.516h2.453c.104 4.72.51 10.958 4.375 14.437 2.848 2.576 7.49 3.17 10.875 4.875 3.248 1.632 6.852 4.734 9.5 8.39 2.648 3.672 4.331 7.887 3.843 11.703-.76 6.04-4.46 10.025-8.14 13.625s-7.421 6.784-7.797 11.36v.015c-.16 2.08.663 4.736 1.719 7.344 1.064 2.616 2.378 5.162 3.25 6.89 2.56 5.096 7.226 11.912 11.578 18.672 4.344 6.76 8.347 13.483 9.515 18.188 2.024 8.224.747 12.292.235 15.156-.264 1.424-.33 2.661.422 3.797.76 1.136 2.203 2.112 4.843 3.36l.516.234.906-2.719 7.094 8-.453.453c-4.128-1.12-5.974-2.012-7.406-2.812-1.472-.808-2.617-1.575-5.297-2.39-6.312-1.913-24.333-3.728-31.11-3.72h-.015l-24.953 1.953a25.6 25.6 0 0 1-9.156-2.203c-2.408-1.024-4.438-2.08-6.766-2.328H78.08c-3.657.52-4.945.955-6.329 1.203-1.384.256-2.937.348-7.28.188a22.4 22.4 0 0 0-5.329.312c-1.344.256-2.55.59-4.734.782-8.976.808-18.438 1.591-27.094 4.671L17 167.553v-2.5c1.168.384 2.425.181 3.61-.203 1.455-.472 2.878-1.224 4.062-1.672 10.8-4.088 11.682-3.678 21.922-6.39l.484-.125-.125-.485c-1.48-5.408-.196-8.571 2.5-10.859 2.696-2.28 6.9-3.608 11.14-4.968h.017l6.984-2.75 5.969-1.422h.031c3.856-1.248 5.15-2.358 6.734-3.094s3.574-1.202 9.094-1.25h.484v-.516c0-12.8-.891-18.352 6.485-29.672 2.76-4.264 5.464-6.535 7.656-8.375s3.934-3.307 4.438-5.875c.224-1.152.062-2.722-.282-4.546a64 64 0 0 0-1.515-5.985c-1.224-4.168-2.718-8.393-3.406-10.609L97.126 45.32zm-17.578 116.37c0 10.128.28 13.688 11.984 13.984v-13.984zm-4 3-9.984 1c.136 10.504 3.6 10.976 12.984 10.984zm-12.984 6.984-9.984 2c1.904 5.448 9.296 6.288 9.984-2"/></svg>