<svg width="192" height="192" fill="none" xmlns="http://www.w3.org/2000/svg"><path d="M136 101c-.626 18-32.385 17-48.055 17-13.776 0-21.989-.631-31.73-7.094C46.472 104.444 43 92.678 43 83.538c0-6.648 2.132-13.16 6.158-19.174M136 101c-.359-10-11.01-16.383-26-17 0 0 7.362-7 19-7 7.197 0 14.267 1.663 20.5 4.823 6.233 3.16 11.409 7.704 15.007 13.177 3.599 5.473 5.493 11.681 5.493 18 0 11.935-7.059 23.381-19.624 31.82C137.811 153.259 120.77 158 103 158c-17.77 0-34.811-4.741-47.376-13.18-4.177-2.806-7.746-5.944-10.65-9.321M136 101c.31 10.352-6.73 20.642-9.606 23.89-6.263 7.071-15.166 12.582-25.581 15.837-10.415 3.254-21.876 4.106-32.933 2.447-8.33-1.25-16.147-3.882-22.905-7.675m4.183-71.135c3.929-5.87 9.663-11.266 16.98-15.855C80.955 39.22 101.049 34 122 34c17.446 0 34.296 6.859 48 13.433-39-12.853-57.748-2.997-69 3.567-11.252 6.564-22 19-22 35 0 31 31 37 50.332 26M49.158 64.364c-.615.285-1.224.58-1.825.883-9.374 4.725-16.68 11.44-20.994 19.298-4.314 7.857-5.443 16.503-3.244 24.844 2.2 8.341 7.628 16.003 15.6 22.017a55.852 55.852 0 0 0 6.28 4.093" stroke="#000" stroke-width="12" stroke-linecap="round" stroke-linejoin="round"/></svg>