<svg width="192" height="192" fill="none" xmlns="http://www.w3.org/2000/svg"><path d="M144 84h-26c11.706-9 26-18.923 26-28.462C144 50.154 140.176 44 131.765 44c-8.177 0-12.236 8.462-12.236 8.462" stroke="#000" stroke-width="12" stroke-linecap="round" stroke-linejoin="round"/><path d="M96 28a6 6 0 0 1 6-6h58a6 6 0 0 1 6 6v72a6 6 0 0 1-6 6h-58a6 6 0 0 1-6-6V28ZM40 170V80m-14 0h44m-44 90h44m-30-38h30" stroke="#000" stroke-width="12" stroke-linecap="round" stroke-linejoin="round"/><path d="M70 80a26 26 0 0 1 0 52" stroke="#000" stroke-width="12" stroke-linecap="round" stroke-linejoin="round"/></svg>