<svg xmlns="http://www.w3.org/2000/svg" width="192" height="192" viewBox="0 0 192 192"><path d="M143.64 28.063C136.232 19.623 122.841 16 105.706 16h-49.71a7.12 7.12 0 0 0-7.04 6L28.261 153.32c-.416 2.584 1.6 4.927 4.216 4.927h30.694l7.712-48.894-.24 1.528a7.12 7.12 0 0 1 7.007-6h14.583c28.655 0 51.093-11.638 57.653-45.31a80 80 0 0 0 .504-2.911q-1.24-.664 0 0c1.952-12.447-.016-20.92-6.743-28.591" opacity=".8"/><path d="M143.53 53.918a48 48 0 0 0-3.096-.8 56 56 0 0 0-3.28-.624q-5.92-.952-12.863-.936H85.317a6.4 6.4 0 0 0-2.687.616 6.24 6.24 0 0 0-3.464 4.64l-8.28 52.54-.24 1.529a7.09 7.09 0 0 1 7-6h14.59c28.656 0 51.094-11.647 57.646-45.318q.296-1.488.512-2.912a35 35 0 0 0-5.392-2.272zm6.352 5.648c-6.56 33.67-28.991 45.31-57.645 45.31H77.646a7.09 7.09 0 0 0-7 6l-9.6 60.804a3.736 3.736 0 0 0 3.688 4.32h25.88a6.24 6.24 0 0 0 6.151-5.256l.248-1.311 4.88-30.91.32-1.712a6.24 6.24 0 0 1 6.143-5.248h3.872c25.063 0 44.694-10.183 50.43-39.638 2.391-12.311 1.151-22.583-5.185-29.807a24.8 24.8 0 0 0-7.08-5.464q-.231 1.432-.511 2.912" opacity=".6"/></svg>