<svg width="192" height="192" fill="none" xmlns="http://www.w3.org/2000/svg"><path d="M105 102a25.003 25.003 0 0 0 25-25 25.001 25.001 0 0 0-25-25" stroke="#000" stroke-width="12" stroke-linecap="round" stroke-linejoin="round"/><path d="M62 170H31L54.919 52H33a6 6 0 0 1-6-6V28a6 6 0 0 1 6-6h72a55 55 0 0 1 36.749 95.921L167 170h-33l-18.88-38.939a54.926 54.926 0 0 1-14.384.773L93 170H62Zm43-118H85.919l-10.135 50L62 170m13.784-68H105" stroke="#000" stroke-width="12" stroke-linecap="round" stroke-linejoin="round"/></svg>