<svg xmlns="http://www.w3.org/2000/svg" width="192" height="192" viewBox="0 0 192 192"><path d="M175.5 85.568c-1.384-4.216-5.152-7.24-9.56-7.24h-.096c-2.88 0-5.464 1.272-7.312 3.32a9.84 9.84 0 0 0-7.304-3.32h-.096c-2.52 0-4.824.984-6.6 2.616v-.832c-.056-.824-.696-1.472-1.48-1.472h-6.784c-.824 0-1.496.712-1.496 1.6v39.312c0 .888.672 1.6 1.496 1.6h6.784a1.52 1.52 0 0 0 1.472-1.384c0-9.501-.004-19.003.008-28.504a2.56 2.56 0 0 1 2.336-2.416h1.248a2.4 2.4 0 0 1 1.44.592c.6.533.933 1.303.912 2.104l.024 28.088c0 .888.672 1.608 1.504 1.608h6.776c.8 0 1.456-.68 1.488-1.52v-28.2a2.72 2.72 0 0 1 1.096-2.264 2.64 2.64 0 0 1 1.248-.448h1.248c1.472.144 2.36 1.328 2.352 2.712l.032 28.04c0 .888.664 1.6 1.496 1.6h6.776c.824 0 1.496-.712 1.496-1.6V89.384c0-2.048-.216-2.928-.504-3.824m-45.888-6.832h-3.888v-6.72c0-.808-.608-1.464-1.36-1.464l-.264.024c-4.296 1.264-3.44 7.624-11.28 8.16h-.76a1.6 1.6 0 0 0-.336.048 1.6 1.6 0 0 0-1.168 1.56v7.232c0 .888.664 1.6 1.504 1.6h4.08v30.696c0 .88.664 1.592 1.48 1.592h6.712c.808 0 1.472-.712 1.472-1.592V89.176h3.8c.824 0 1.504-.728 1.504-1.6v-7.248c0-.88-.68-1.6-1.504-1.6m-27.904-.904h-7.144a1.6 1.6 0 0 0-1.576 1.64v15.344a1.704 1.704 0 0 1-1.672 1.72h-2.992a1.704 1.704 0 0 1-1.68-1.744l-.024-15.32a1.6 1.6 0 0 0-1.576-1.64h-7.152a1.6 1.6 0 0 0-1.576 1.64v16.824c0 6.4 4.384 10.944 10.544 10.944 0 0 4.608 0 4.76.032.854.117 1.488.85 1.48 1.712a1.71 1.71 0 0 1-1.464 1.72l-.12.024-10.448.032a1.6 1.6 0 0 0-1.576 1.648v7.416c0 .904.704 1.64 1.576 1.64h11.68c6.16 0 10.544-4.552 10.544-10.944V79.456a1.6 1.6 0 0 0-1.584-1.632M32.54 96c0 .96-.744 1.744-1.68 1.744h-4.528V88.56h4.544c.92 0 1.672.784 1.672 1.752m.624-12.496H17.556a1.6 1.6 0 0 0-1.552 1.6v40.344c0 .888.648 1.624 1.448 1.64h7.28a1.6 1.6 0 0 0 1.584-1.64l.016-11.28h6.84c5.72 0 9.712-4.12 9.712-10.088v-10.48c0-5.96-3.992-10.096-9.712-10.096m29.016 32.192a1.68 1.68 0 0 1-1.68 1.632h-2.976a1.68 1.68 0 0 1-1.68-1.632v-6.352a1.656 1.656 0 0 1 1.68-1.624h2.976c.936 0 1.68.728 1.68 1.64zm-1.136-32.144h-9.92a1.56 1.56 0 0 0-1.584 1.544v6.96c0 .896.752 1.632 1.68 1.632h9.44a1.68 1.68 0 0 1 1.424 1.568v.96c-.08.84-.672 1.456-1.384 1.528h-4.68c-6.208 0-10.64 4.288-10.64 10.32V111c0 6 3.808 10.256 9.984 10.256h12.952a4.16 4.16 0 0 0 4.216-4.08v-28.16c0-6.84-3.4-11.152-11.488-11.152"/></svg>