<svg xmlns="http://www.w3.org/2000/svg" width="192" height="192" viewBox="0 0 192 192"><path d="M48.35 52.529h1.001v12.577h-1.54v-9.788a8.6 8.6 0 0 1-1.454 1.053 8.6 8.6 0 0 1-1.626.795v-1.48q1.3-.616 2.259-1.471a6 6 0 0 0 1.369-1.677zm12.833 3.44q.274 1.086.274 2.96 0 2.198-.454 3.559a4.3 4.3 0 0 1-1.351 2.087 3.42 3.42 0 0 1-2.276.745 3.42 3.42 0 0 1-2.85-1.3q-1.231-1.558-1.231-5.091 0-2.225.445-3.577a4.3 4.3 0 0 1 1.36-2.087 3.42 3.42 0 0 1 2.276-.736 3.42 3.42 0 0 1 3.02 1.574q.513.77.778 1.865zm-1.3 2.96q0-3.106-.728-4.116-.718-1.01-1.796-1.01a1.97 1.97 0 0 0-1.694.899q-.796 1.146-.796 4.226c0 3.08.24 3.423.719 4.107q.727 1.027 1.796 1.027 1.044 0 1.771-1.027.728-1.027.728-4.107m11.028-2.96q.282 1.087.273 2.96 0 2.2-.445 3.56a4.3 4.3 0 0 1-1.36 2.087 3.42 3.42 0 0 1-2.267.744 3.42 3.42 0 0 1-2.849-1.3q-1.24-1.557-1.24-5.09 0-2.225.453-3.577a4.3 4.3 0 0 1 1.369-2.087 3.42 3.42 0 0 1 2.258-.736 3.42 3.42 0 0 1 3.03 1.574 6 6 0 0 1 .77 1.865zm-1.3 2.96q0-3.105-.728-4.115-.719-1.01-1.797-1.01a1.97 1.97 0 0 0-1.694.899q-.795 1.146-.795 4.226c0 3.08.24 3.423.718 4.107q.728 1.027 1.788 1.027t1.78-1.027q.736-1.027.727-4.107m11.037-2.96q.283 1.087.283 2.96 0 2.2-.454 3.56a4.3 4.3 0 0 1-1.352 2.087 3.42 3.42 0 0 1-2.276.744A3.42 3.42 0 0 1 74 64.02q-1.24-1.557-1.24-5.09 0-2.225.453-3.577a4.3 4.3 0 0 1 1.37-2.087 3.42 3.42 0 0 1 2.258-.736q1.018 0 1.77.402a3.4 3.4 0 0 1 1.259 1.164 6.8 6.8 0 0 1 .778 1.873m-1.3 2.96q0-3.105-.719-4.115-.727-1.01-1.805-1.01a1.97 1.97 0 0 0-1.694.899q-.796 1.146-.796 4.226c0 3.08.24 3.423.719 4.107q.727 1.027 1.788 1.027t1.788-1.027q.719-1.027.719-4.107m5.954-2.566a8.6 8.6 0 0 1-1.625.795v-1.48q1.283-.616 2.259-1.471a6 6 0 0 0 1.368-1.677h.993v12.577h-1.54V55.3a8.6 8.6 0 0 1-1.454 1.06m10.437-3.83h.983v12.577h-1.54v-9.788a8.6 8.6 0 0 1-1.454 1.053q-.898.539-1.617.795v-1.48q1.283-.616 2.259-1.471a6 6 0 0 0 1.369-1.677zm12.808 3.44q.282 1.086.282 2.96 0 2.198-.454 3.559a4.3 4.3 0 0 1-1.368 2.087 3.42 3.42 0 0 1-2.26.745 3.42 3.42 0 0 1-2.857-1.3q-1.232-1.558-1.232-5.091 0-2.225.454-3.577a4.3 4.3 0 0 1 1.369-2.087 3.42 3.42 0 0 1 2.258-.736 3.42 3.42 0 0 1 3.029 1.574 6 6 0 0 1 .779 1.865m-1.284 2.96q-.009-3.105-.727-4.115-.727-1.018-1.797-1.01a1.97 1.97 0 0 0-1.694.899q-.795 1.146-.804 4.226c-.009 3.08.248 3.423.727 4.107q.728 1.027 1.78 1.027 1.06 0 1.788-1.027.727-1.027.727-4.107M48.35 73.532h.993V86.11h-1.54v-9.787a8.6 8.6 0 0 1-1.455 1.052 8.6 8.6 0 0 1-1.625.796v-1.48q1.292-.616 2.258-1.472a6 6 0 0 0 1.37-1.677zm12.816 3.448q.274 1.087.283 2.952 0 2.199-.462 3.56a4.3 4.3 0 0 1-1.352 2.095 3.42 3.42 0 0 1-2.267.745 3.42 3.42 0 0 1-2.858-1.31q-1.232-1.557-1.232-5.09 0-2.216.453-3.568a4.3 4.3 0 0 1 1.36-2.096 3.42 3.42 0 0 1 2.276-.736 3.34 3.34 0 0 1 3.02 1.575q.514.77.77 1.873zm-1.292 2.943q0-3.105-.727-4.115t-1.797-1.01a1.97 1.97 0 0 0-1.694.899q-.795 1.146-.795 4.226 0 3.089.718 4.107.728 1.027 1.797 1.027 1.044 0 1.771-1.027t.727-4.107m8.932 6.186h-1.54v-9.788a8.6 8.6 0 0 1-1.454 1.053 8.6 8.6 0 0 1-1.617.795v-1.48q1.283-.616 2.25-1.471a6 6 0 0 0 1.369-1.677h.992zm5.442-8.735q-.899.522-1.626.796v-1.49q1.3-.615 2.259-1.47a6 6 0 0 0 1.369-1.678h.992V86.11h-1.54v-9.787a8.6 8.6 0 0 1-1.454 1.06zm14.827-.394q.29 1.087.282 2.952 0 2.199-.453 3.56a4.3 4.3 0 0 1-1.352 2.095 3.42 3.42 0 0 1-2.267.745 3.42 3.42 0 0 1-2.858-1.31q-1.232-1.557-1.232-5.09 0-2.216.453-3.568a4.3 4.3 0 0 1 1.37-2.096 3.42 3.42 0 0 1 2.258-.736 3.34 3.34 0 0 1 3.02 1.575q.505.77.779 1.873m-1.3 2.943q0-3.105-.72-4.115-.727-1-1.796-1.01a1.97 1.97 0 0 0-1.694.899q-.796 1.146-.796 4.226 0 3.089.719 4.107.719 1.027 1.788 1.027 1.07 0 1.78-1.027t.718-4.107m7.957-6.39h.984v12.576h-1.54v-9.787a8.6 8.6 0 0 1-1.455 1.052q-.898.539-1.625.796v-1.48a9.4 9.4 0 0 0 2.267-1.472 6 6 0 0 0 1.369-1.677zm12.808 3.447q.282 1.087.282 2.952 0 2.199-.462 3.559a4.3 4.3 0 0 1-1.36 2.096 3.42 3.42 0 0 1-2.267.744 3.42 3.42 0 0 1-2.85-1.309q-1.24-1.557-1.24-5.09 0-2.216.454-3.568a4.53 4.53 0 0 1 1.368-2.096 3.42 3.42 0 0 1 2.268-.736 3.42 3.42 0 0 1 3.028 1.574q.505.77.77 1.874zm-1.283 2.943q-.01-3.105-.728-4.115-.727-1-1.796-1.01a1.97 1.97 0 0 0-1.694.899q-.805 1.146-.805 4.226 0 3.089.728 4.107.727 1.027 1.78 1.027t1.779-1.027q.727-1.027.727-4.107zm7.93-6.39h.984v12.576h-1.54v-9.787a10.3 10.3 0 0 1-3.07 1.856V76.69q1.291-.616 2.266-1.472a6 6 0 0 0 1.36-1.677zm-66.834 21.01h.992v12.577h-1.54v-9.804a10.3 10.3 0 0 1-3.08 1.856v-1.48q1.309-.616 2.267-1.472a6 6 0 0 0 1.37-1.676zm12.816 3.448q.29 1.087.29 2.952 0 2.207-.462 3.568a4.3 4.3 0 0 1-1.351 2.087 3.42 3.42 0 0 1-2.268.744 3.42 3.42 0 0 1-2.857-1.3q-1.232-1.566-1.232-5.09 0-2.225.453-3.585a4.3 4.3 0 0 1 1.36-2.08 3.42 3.42 0 0 1 2.276-.735 3.34 3.34 0 0 1 3.02 1.574 6 6 0 0 1 .77 1.865m-1.283 2.952q0-3.089-.727-4.107-.736-1.026-1.797-1.026a1.97 1.97 0 0 0-1.702.906q-.787 1.147-.787 4.227t.718 4.107q.727 1.026 1.788 1.026t1.78-1.026q.719-1.027.719-4.107zm11.02-2.952q.291 1.087.283 2.952 0 2.199-.445 3.568a4.3 4.3 0 0 1-1.36 2.087 3.42 3.42 0 0 1-2.268.745 3.42 3.42 0 0 1-2.849-1.3q-1.24-1.567-1.24-5.091 0-2.225.453-3.585a4.3 4.3 0 0 1 1.369-2.08 3.42 3.42 0 0 1 2.259-.735 3.42 3.42 0 0 1 3.028 1.574 6 6 0 0 1 .77 1.865m-1.292 2.952q0-3.089-.727-4.107-.736-1.026-1.797-1.026a1.97 1.97 0 0 0-1.694.906q-.795 1.147-.795 4.227t.718 4.107q.728 1.026 1.789 1.026t1.78-1.026q.718-1.027.726-4.107m11.037-2.952q.283 1.087.283 2.952 0 2.199-.454 3.568a4.3 4.3 0 0 1-1.351 2.087 3.42 3.42 0 0 1-2.276.745 3.42 3.42 0 0 1-2.85-1.3q-1.24-1.567-1.24-5.091 0-2.225.454-3.585a4.3 4.3 0 0 1 1.36-2.08 3.42 3.42 0 0 1 2.267-.735q1.01 0 1.771.402a3.4 3.4 0 0 1 1.258 1.172 6.8 6.8 0 0 1 .778 1.865m-1.3 2.952q0-3.089-.727-4.107-.719-1.026-1.797-1.026a1.97 1.97 0 0 0-1.694.906q-.796 1.147-.796 4.227t.719 4.107q.727 1.026 1.788 1.026t1.78-1.026q.718-1.027.727-4.107m7.957-6.4h.983v12.577h-1.54v-9.804a10.3 10.3 0 0 1-3.08 1.856v-1.48q1.292-.616 2.26-1.472a6 6 0 0 0 1.368-1.676zm8.427 0h.992v12.577h-1.54v-9.804a10.3 10.3 0 0 1-3.08 1.856v-1.48q1.292-.616 2.267-1.472a6 6 0 0 0 1.37-1.676zm12.816 3.448q.282 1.087.282 2.952 0 2.199-.462 3.568a4.3 4.3 0 0 1-1.36 2.087 3.42 3.42 0 0 1-2.267.744 3.42 3.42 0 0 1-2.85-1.3q-1.24-1.566-1.24-5.09 0-2.225.453-3.585a4.3 4.3 0 0 1 1.37-2.08 3.42 3.42 0 0 1 2.267-.735 3.42 3.42 0 0 1 3.028 1.574q.497.753.77 1.865zm-1.283 2.952q-.01-3.089-.728-4.107-.727-1.027-1.796-1.027a1.97 1.97 0 0 0-1.694.907q-.805 1.147-.805 4.227 0 3.088.728 4.106.727 1.027 1.78 1.027 1.051 0 1.779-1.027.727-1.026.727-4.106zm-29.577 32.939A57.493 57.493 0 0 1 20.246 76.44a57.493 57.493 0 0 1 57.45-57.442 57.493 57.493 0 0 1 57.434 57.433 57.493 57.493 0 0 1-57.433 57.442zm-41.34-69.197c.436.505.94.813 1.557.813q1.043 0 1.78-1.027.735-1.027.726-4.107 0-3.037-.71-4.072a42.8 42.8 0 0 0-3.353 8.384zm78.857 31.288h-.018zm0 0h.735a42.8 42.8 0 0 0 4.235-13.278q-.06-.633-.068-1.326.009-2.225.462-3.576l.051-.095c.017-.427.069-.838.069-1.266 0-6.844-1.652-13.304-4.518-19.062v7.734h-1.54V55.3a10.3 10.3 0 0 1-3.071 1.856V55.67q1.3-.616 2.259-1.472.213-.188.376-.385A42.95 42.95 0 0 0 77.68 33.424a43.03 43.03 0 0 0-37.285 21.637c.171.171.376.265.513.47a6.8 6.8 0 0 1 .77 1.874q.291 1.095.283 2.952 0 2.207-.445 3.568a4.3 4.3 0 0 1-1.37 2.087 3.42 3.42 0 0 1-2.266.745 3.4 3.4 0 0 1-1.934-.582 42.8 42.8 0 0 0-1.24 9.231 4.3 4.3 0 0 1 .906-1.138 3.42 3.42 0 0 1 2.268-.735 3.34 3.34 0 0 1 3.028 1.574q.496.77.77 1.865.291 1.086.291 2.96 0 2.199-.453 3.56a4.3 4.3 0 0 1-1.37 2.087 3.42 3.42 0 0 1-2.266.744 3.42 3.42 0 0 1-2.25-.821 42.6 42.6 0 0 0 3.952 10.848l.069.034a3.4 3.4 0 0 1 1.266 1.164 6.8 6.8 0 0 1 .77 1.873c.051.197.085.47.12.71a43.03 43.03 0 0 0 35.865 19.318c15.4 0 28.9-8.153 36.498-20.362-.3.248-.574.488-.984.728q-.899.513-1.617.795v-1.488q1.283-.616 2.259-1.472a6 6 0 0 0 1.368-1.677zM36.117 84.03q.727 1.027 1.788 1.027t1.78-1.027.726-4.107q.009-3.08-.727-4.107-.736-1.026-1.796-1.018a1.97 1.97 0 0 0-1.703.899q-.787 1.146-.787 4.226 0 3.089.718 4.107m78.822 44.848 12.696-12.696 44.121 44.12L159.06 173z"/></svg>