<svg width="192" height="192" fill="none" xmlns="http://www.w3.org/2000/svg"><path d="M128 30H42a6 6 0 0 0-6 6v120a6 6 0 0 0 6 6h9m25 0h48a6 6 0 0 0 6-6V83M60 54h50M60 76h32M60 98h20" stroke="#000" stroke-width="12" stroke-linecap="round" stroke-linejoin="round"/><path d="M158.914 21c-40.001 79.925-88.001 164.877-105.002 147.786-17-17.091 84.088-81.433 117.089-130.695" stroke="#000" stroke-width="10" stroke-linecap="round" stroke-linejoin="round"/><path d="M159.001 21s-43.775 67.347-46.888 44.174C109 42 141.5 14 154 24" stroke="#000" stroke-width="10" stroke-linecap="round" stroke-linejoin="round"/></svg>