<svg xmlns="http://www.w3.org/2000/svg" width="192" height="192"><path d="m176 26.236-2.167.38-8.612 1.519-.326.057-.163.284-1.928 3.383a5.6 5.6 0 0 0-.074-1.152c-.209-1.185-.775-2.107-1.765-2.623-.955-.498-2.179-.56-3.58-.312-3.276.579-6.618 1.876-10.027 3.873l-.005.005h-.002q-4.955 2.972-9.31 7.434a54.8 54.8 0 0 0-7.654 9.37q-3.31 4.923-4.865 9.889c-1.144 3.342-1.488 6.424-.993 9.23.362 2.052.978 3.65 1.926 4.682.993 1.077 2.292 1.467 3.783 1.206 1.719-.303 3.806-1.485 6.235-3.405l.007-.005.002-.005q3.802-3.087 8.049-7.987a85 85 0 0 0 2.247-2.701 6340 6340 0 0 0-4.735 8.65L135.58 79.93v.007l-.005.005a1854 1854 0 0 1-5.217 9.954l-.005.002v.005q-.455.878-.91 1.75a394 394 0 0 1-8.234 7.292 320 320 0 0 0-20.073 18.635q-9.708 9.814-17.168 18.922c-5.071 6.089-9.017 11.46-11.823 16.113-1.401 2.328-2.426 4.358-3.05 6.083-.62 1.708-.879 3.191-.67 4.393.189 1.057.728 1.87 1.658 2.31.882.418 2.013.449 3.302.222 6.246-1.101 13.105-5.252 20.578-12.307 7.501-6.967 15.134-16.389 22.896-28.25h.002v-.002q6.254-9.704 15.361-27.34a797 797 0 0 0 5.318-10.523 378 378 0 0 0 7.537-7.452q9.578-9.63 16.53-18.016l.005-.002.002-.005q6.923-8.537 11.784-16.248l.005-.007.002-.005.858-1.422.795-1.314-1.513.268-1.231.218-.303.05-.167.267-1.113 1.781v.002l-.002.005q-4.641 7.586-12.23 16.51h-.003l-.005.002c-4.96 5.932-10.626 12.047-17.007 18.342l-.005.002c-.306.31-.62.62-.93.927a1599 1599 0 0 0 12.498-26.202q2.836-4.434 6.387-9.305a166 166 0 0 1 7.475-9.535q3.921-4.636 7.535-8.268zm-17.301 4.017c.494-.03.835.041 1.06.156.257.136.463.384.55.885.212 1.206-.223 3.13-1.523 5.88-1.303 2.617-3.918 6.798-7.867 12.563v.005l-.002.002c-4.082 6.089-8.077 11.15-11.97 15.187-1.96 1.969-3.688 3.478-5.194 4.538-1.516 1.07-2.757 1.648-3.74 1.823-.634.111-1.007.036-1.22-.09-.188-.111-.366-.333-.45-.814-.24-1.356.043-3.23.96-5.677.92-2.444 2.217-5.12 3.904-8.037a130 130 0 0 1 5.987-8.936 84 84 0 0 1 6.873-8.29l.007-.006.007-.003q3.548-3.924 6.695-6.345c2.213-1.641 3.998-2.528 5.375-2.772q.3-.053.548-.069M49.169 67.797v34.854h13.68c10.4 0 16.301-6.351 16.301-17.672 0-10.909-5.97-17.182-16.301-17.182zm-33.171.023v34.831h7.274V91.835h6.863c7.319 0 12.4-4.802 12.4-11.972 0-7.239-4.888-12.043-12.04-12.043zm69.955 0v34.831h7.274V89.085h14.133v-5.964H93.228v-9.076h15.481V67.82zm-62.682 5.985h5.295c4.193 0 6.576 2.122 6.576 6.081 0 3.91-2.432 6.038-6.597 6.038h-5.274zm33.171.216h5.249c6.308 0 10.04 4.032 10.04 11.08 0 7.36-3.61 11.32-10.04 11.32h-5.249zm69.701 23.808a337 337 0 0 1-11.522 19.537q-8.307 13.017-16.198 22.942l-.002.002c-5.347 6.74-10.234 12.119-14.657 16.152-4.548 4.06-8.241 6.259-11.117 6.764-.457.084-.694.008-.823-.082-.126-.088-.28-.287-.36-.743-.133-.743.025-1.841.582-3.357.55-1.496 1.463-3.322 2.756-5.49q3.91-6.346 11.071-15.04 7.16-8.69 16.831-18.468l.005-.005a415 415 0 0 1 20.323-19.413 550 550 0 0 0 3.112-2.8z"/></svg>