<svg xmlns="http://www.w3.org/2000/svg" width="192" height="192" viewBox="0 0 192 192"><path d="M35.844 32.447a.14.14 0 0 0-.113.018c-1.088.594-.97 16.732-19.73 22.02C28.249 55.57 34.04 68.38 35.489 76.952c3.303-10.673 8.35-18.668 18.674-22.752-18.006-5.753-17.203-21.424-18.318-21.752zm122.49 2.732c-4.126-.151-8.198 4.662-6.518 8.715.656 1.584 13.985 14.44 15.713 15.152 1.489.624 4.097.16 5.737-1 1.776-1.272 2.736-3.249 2.736-5.713.008-2-.12-2.16-7.113-9.056-4-3.936-7.855-7.32-8.8-7.711a5 5 0 0 0-1.755-.387m-14.83 13.523-62.715 65.875c-6.968 8.769-13.233 19.264-14.961 25.08l-.768 2.584 7.297 7.08c1.384-.008 8.04-2.975 11.912-5.359 4.489-2.76 12.96-9.175 17.305-13.096l60.986-63.045zM75.098 53.5a.08.08 0 0 0-.063.008c-.584.32-.522 8.996-10.607 11.84 6.585.583 9.7 7.469 10.48 12.076 1.775-5.738 4.487-10.035 10.036-12.23-9.68-3.092-9.246-11.517-9.845-11.693zM53.381 73.54a.12.12 0 0 0-.092.013c-.865.473-.771 13.313-15.697 17.521 9.745.863 14.354 11.054 15.506 17.873 2.628-8.492 6.642-14.853 14.855-18.102-14.326-4.577-13.685-17.046-14.572-17.307zm7.352 73.95-2.096 2.305c-3.064 3.344-4.265 8.128-2.37 9.424.833.568 3.026.408 4.866-.36 2.096-.872 6.385-4.07 5.84-4.656z"/></svg>