<svg xmlns="http://www.w3.org/2000/svg" width="192" height="192" viewBox="0 0 192 192"><path d="M97.359 16c-9.952 5.872-30.641 20.795-30.641 43.547 0 21.184 9.357 31.15 17.469 39.766l6.64 7.562c13.16 16.024 21.65 35.535 7.97 48.72-16.449 15.84-49.829 8.835-61.517-15.142C45.776 161.878 68.566 176 95.343 176c34.024 0 61.61-25.649 61.61-57.28 0-34.865-23.827-54.907-41.25-69.563-6.737-5.672-12.522-10.533-15.61-15.14a19.6 19.6 0 0 1-3.89-11.657c0-2.24.468-4.35 1.156-6.359zM51.718 87.875a48 48 0 0 0-3.031 2.39c-5.168 4.393-10.67 10.853-12.797 19.5a1030 1030 0 0 1-.844 10.564 48 48 0 0 0 2.844 13.75c5.152 11.304 15.566 18.779 26.766 21.53 11.28 2.76 22.78.643 30.14-6.453 5.84-5.624 5.849-12.28 4-19.953-.671-2.76-2.084-6.019-3.452-8.875-.688 3.888-.975 7.304-3.735 9.688-3.48 3.016-8.164 4.422-13.14 4.422-8.785 0-17.714-6.499-22.954-16.234-4.336-8.08-6.3-18.592-3.797-30.328z"/></svg>