<svg xmlns="http://www.w3.org/2000/svg" width="192" height="192" viewBox="0 0 192 192"><path d="M96.084 16a22.16 22.16 0 0 0-22.159 22.159v19.427l-16.819-9.698a22.07 22.07 0 0 0-11.119-2.982 22.147 22.147 0 0 0-11.15 41.352l16.819 9.713-16.819 9.713a22.157 22.157 0 0 0 22.144 38.385l16.944-9.791v19.489a22.159 22.159 0 1 0 44.319 0V134.34l16.819 9.713a22.157 22.157 0 0 0 22.144-38.369l-16.819-9.713 16.819-9.713a22.161 22.161 0 0 0-22.159-38.385l-16.803 9.713V38.159A22.16 22.16 0 0 0 96.086 16zm0 15.991a6.165 6.165 0 0 1 6.153 6.168v35.855l-12.321-7.136V38.16a6.165 6.165 0 0 1 6.168-6.169M145.9 60.85a6.165 6.165 0 0 1 3.31 11.556l-24.813 14.336-12.321-7.121 30.967-17.881a6.2 6.2 0 0 1 2.857-.89m-21.503 44.35 24.814 14.336a6.165 6.165 0 1 1-6.153 10.666l-30.982-17.881zm-22.144 12.727v35.839a6.169 6.169 0 1 1-12.337 0v-28.718z"/></svg>