<svg width="192" height="192" viewBox="0 0 192 192" fill="none" xmlns="http://www.w3.org/2000/svg">
<path d="M61.8514 96C61.8514 86.3336 60.2319 76.7842 58.4639 69.2394C56.3392 60.172 54 54 54 54C54 54 60.172 56.3392 69.2394 58.4639C76.7842 60.2319 86.3335 61.8514 96 61.8514M58.4639 122.761C56.3392 131.828 54 138 54 138C54 138 60.172 135.661 69.2394 133.536C76.7842 131.768 86.3336 130.149 96 130.149L106.819 106.819L130.149 96C130.149 86.3336 131.768 76.7842 133.536 69.2394C135.661 60.172 138 54 138 54C138 54 131.828 56.3392 122.761 58.4639C115.216 60.2319 105.666 61.8514 96 61.8514M96 61.8514L106.819 85.1813L130.149 96M96 61.8514L85.1813 85.1813L61.8514 96M96 130.149L85.1813 106.819L61.8514 96M61.8514 96C61.8514 105.666 60.2319 115.216 58.4639 122.761M58.4639 69.2394C41.9122 84.1332 22 96 22 96C22 96 41.9122 107.867 58.4639 122.761M69.2394 58.4639C84.1331 41.9121 96 22 96 22C96 22 107.867 41.9122 122.761 58.4639M133.536 69.2394C150.088 84.1331 170 96 170 96C170 96 166.353 98.1733 160.884 101.827C157.021 104.407 152.249 107.727 147.21 111.54C146.478 112.094 145.741 112.658 145 113.232M69.2394 133.536C84.1332 150.088 96 170 96 170C96 170 98.1733 166.353 101.827 160.884C104.408 157.021 107.727 152.249 111.54 147.21C112.094 146.478 112.658 145.741 113.232 145" stroke="black" stroke-width="12" stroke-linecap="round" stroke-linejoin="round"/>
<path d="M132.421 133H140.158M140.158 133H147.895H154.526H162.263M140.158 133L135.737 170M128 170H135.737M135.737 170H143.474H150.105H157.842M162.263 133H170M162.263 133L157.842 170M157.842 170H165.579" stroke="black" stroke-width="12" stroke-linecap="round"/>
</svg>
