<svg width="192" height="192" fill="none" xmlns="http://www.w3.org/2000/svg"><path d="M33.838 157.319c-20.119-5.112-13.799-42.166 12.929-75.797 41.82-52.628 106.764-64.14 120.779-21.41 8.604 26.238-6.541 69.31-27.91 79.376-10.469 4.93-18.62-.078-16.325-10.032.449-1.945.405-1.902-2.545 2.453-16.39 24.208-46.074 23.696-40.275-.697 1.337-4.626.106-2.542-1.428-.213-12.535 19.08-31.132 29.901-45.226 26.321" stroke="#000" stroke-width="12" stroke-linecap="round" stroke-linejoin="round"/><ellipse cx="116" cy="78" rx="4" ry="6" stroke="#000" stroke-width="8" stroke-linecap="round" stroke-linejoin="round"/><ellipse cx="142" cy="78" rx="4" ry="6" stroke="#000" stroke-width="8" stroke-linecap="round" stroke-linejoin="round"/></svg>