<svg xmlns="http://www.w3.org/2000/svg" width="192" height="192" viewBox="0 0 192 192"><path d="M109.62 176a9.35 9.35 0 0 1-8.365-6.02c-1.64-3.881-1.006-7.652 2.084-10.717l14.179-13.814c1.584-1.45 1.766-2.32.134-3.881l-21.838-21.26c-1.64-1.64-2.534-1.315-3.984.134l-14.147 13.814c-6.052 5.513-15.367 2.638-17.006-5.204a8.71 8.71 0 0 1 2.455-8.34l23.605-23.026a9.474 9.474 0 0 1 13.418.055l40.738 39.708c3.77 3.691 3.77 9.212.048 12.99l-23.605 23.018c-1.846 1.798-4.254 2.614-7.707 2.535V176m58.425-106.95c-.127 10.17-2.773 19.644-8.5 28.04-1.584 2.328-1.187 3.461.69 5.07 2.772 2.375 5.275 5.068 7.865 7.659 4.04 4.15 4.175 9.798.452 13.814-3.668 3.825-9.949 4.38-13.91.736l-18.217-17.767c-3.834-3.928-3.327-9.529.95-13.727a33.74 33.74 0 0 0 10.194-19.96c2.456-17.609-11.145-34.877-29.022-36.802-11.588-1.243-21.466 2.06-29.783 10.297L38.84 95.061c-2.51 2.503-5.41 4.008-9.006 3.589-4.04-.5-7.05-2.567-8.452-6.52-1.394-3.96-.451-7.477 2.511-10.352l25.426-24.77 27.248-26.455c29.957-27.961 79.764-13.624 89.903 25.854a53.6 53.6 0 0 1 1.585 12.642"/></svg>