<svg xmlns="http://www.w3.org/2000/svg" width="192" height="192" viewBox="0 0 192 192"><path d="M85.994 16C52.15 16 24.903 32.326 24.903 52.606v52.235c0 .024 1.293 32.581 35.678 49.969L96 176.001l35.419-21.191c34.383-17.387 35.678-49.941 35.678-49.969V52.606c0-20.28-27.247-36.606-61.091-36.606zm14.982 41.149a3.518 6.918 26.177 0 1 2.466 3.185v22.015h17.76a2.814 5.535 26.177 0 1 0 7.68l-23.153 33.746a3.518 6.918 26.177 0 1-6.586 0V101.76h-17.76a2.814 5.535 26.177 0 1 0-7.68l23.153-33.746a3.518 6.918 26.177 0 1 4.12-3.185"/></svg>