<svg xmlns="http://www.w3.org/2000/svg" width="192" height="192" viewBox="0 0 192 192"><path d="M64.336 123.89q0 .616.616.616h8.265q.624 0 .624-.616v-22.116c1.438 0 2.165.103 4.338.103 12.602 0 22.946-6.092 22.946-20.148 0-10.848-6.725-19.216-22.116-19.216-5.476 0-10.643.102-14.151.316-.41 0-.513.308-.513.616zm9.608-52.48c1.027-.103 3.097-.205 5.364-.205 7.443 0 11.986 3.619 11.986 10.643 0 8.778-6.194 11.045-12.808 11.045-2.164 0-3.2 0-4.543-.103zm59.718 17.248c.513.205.821-.103.821-.513v-7.649a1.37 1.37 0 0 0-.513-1.138c-1.865-.83-5.476-1.549-10.224-1.549-9.72 0-15.297 5.99-15.297 13.124 0 6.4 3.31 10.224 11.156 14.048 5.578 2.892 6.93 4.655 6.93 6.725 0 2.481-1.874 4.338-6.203 4.338a22.24 22.24 0 0 1-11.678-3.303c-.41-.316-.624-.102-.624.411v8.162c0 .41.11.719.41.933 2.379 1.334 7.024 2.37 11.884 2.37 9.197 0 16.016-4.749 16.016-13.638 0-5.99-2.797-10.02-11.473-14.254-5.895-2.995-6.921-4.44-6.921-6.409 0-1.856 1.446-4.02 5.895-4.02 3.413-.018 7.34.915 9.813 2.36zm-37.61 84.306c-3.62 0-7.127-1.335-9.925-4.021l-63.02-63.037a13.91 13.91 0 0 1 0-19.738l63.02-63.03c5.476-5.475 14.366-5.475 19.739 0l63.029 63.03c5.475 5.475 5.475 14.365 0 19.738l-63.03 63.029a13.7 13.7 0 0 1-9.813 4.021zm0-150.83a10.87 10.87 0 0 0-7.751 3.2L25.27 88.363a10.91 10.91 0 0 0 0 15.4l63.03 63.02a10.91 10.91 0 0 0 15.4 0l63.029-63.03a10.91 10.91 0 0 0 0-15.4L103.7 25.343a10.44 10.44 0 0 0-7.648-3.208"/></svg>