<svg xmlns="http://www.w3.org/2000/svg" width="192" height="192" viewBox="0 0 192 192"><path d="M54.176 89.208c0-7.392 2.024-14.28 5.472-20.256A40.32 40.32 0 0 0 39.392 104a40.48 40.48 0 0 0 40.504 40.504 40.48 40.48 0 0 0 35.04-20.248 40.4 40.4 0 0 1-20.248 5.464 40.48 40.48 0 0 1-40.512-40.504z" opacity=".2"/><path d="M109.57 114.83a40.48 40.48 0 0 1-40.504-40.504c0-7.392 2.024-14.28 5.464-20.256a40.4 40.4 0 0 0-14.88 14.88 40.4 40.4 0 0 0-5.472 20.256 40.48 40.48 0 0 0 40.504 40.512 40.4 40.4 0 0 0 20.256-5.472 40.4 40.4 0 0 0 14.88-14.88 39.2 39.2 0 0 1-20.248 5.464" opacity=".4"/><path d="M124.45 99.952a40.48 40.48 0 0 1-40.504-40.504c0-7.392 2.024-14.28 5.464-20.256a40.4 40.4 0 0 0-14.88 14.88 40.4 40.4 0 0 0-5.472 20.256 40.48 40.48 0 0 0 40.504 40.512 40.4 40.4 0 0 0 20.256-5.472 40.4 40.4 0 0 0 14.88-14.88 39.7 39.7 0 0 1-20.248 5.464" opacity=".6"/><path d="M95.496 31.192a40 40 0 0 0-6.08 8.096 40.4 40.4 0 0 0-5.464 20.256 40.48 40.48 0 0 0 40.504 40.504 40.4 40.4 0 0 0 20.256-5.464 43.2 43.2 0 0 0 8.104-6.08V31.2z" opacity=".8"/><path d="M124.45 78.88a19.448 19.448 0 1 1 19.44-19.44 19.52 19.52 0 0 1-19.44 19.44m0-30.776a11.323 11.323 0 0 0-11.344 11.336c0 6.28 5.064 11.344 11.344 11.344s11.344-5.064 11.344-11.344-5.168-11.336-11.344-11.336M35.242 16c-6.68 0-12.152 5.472-12.152 12.152v135.7c0 6.68 5.472 12.152 12.152 12.152h121.52c6.68 0 12.152-5.472 12.152-12.152v-135.7c0-6.68-5.472-12.152-12.152-12.152zm4.048 15.192h113.42v114.43H39.29v-1.016z"/></svg>