<svg xmlns="http://www.w3.org/2000/svg" width="192" height="192" viewBox="0 0 192 192"><path d="M95.656 16a47.72 47.72 0 0 0-47.72 47.72v9.56a11.32 11.32 0 0 0-9.248 10.856 16 16 0 0 0-2.208 8.136v61.184a16.08 16.08 0 0 0 11.904 15.52A11.76 11.76 0 0 0 59.152 176H72.52a11.76 11.76 0 0 0 10.52-6.456h24.528a11.76 11.76 0 0 0 10.52 6.456h13.384a11.84 11.84 0 0 0 10.608-6.664 16.05 16.05 0 0 0 13.44-15.872v-61.2a16 16 0 0 0-2.096-7.968v-.056a11.28 11.28 0 0 0-8.208-10.8v-9.728A47.72 47.72 0 0 0 97.496 16zm.2 17.056h1.44a29.88 29.88 0 0 1 29.88 29.88V72.96h-6.72a11.2 11.2 0 0 0-7.832 3.2H79.52a11.2 11.2 0 0 0-7.896-3.2h-5.648V62.936a29.88 29.88 0 0 1 29.88-29.88m13.504 15.96a5.416 5.416 0 1 0 5.416 5.408 5.416 5.416 0 0 0-5.416-5.408m-25.52.136a5.416 5.416 0 1 0-1.2 10.688 5.41 5.41 0 0 0 5.416-5.416 5.44 5.44 0 0 0-4.216-5.28zm20.848 13.856a1.44 1.44 0 0 0-1.16.36 11.24 11.24 0 0 1-15.048 0 1.41 1.41 0 0 0-1.912 2.072 13.76 13.76 0 0 0 18.872 0 1.408 1.408 0 0 0-.752-2.432m-8.712 33.32a13.16 13.16 0 0 1 7.392 24.056 2.08 2.08 0 0 0-.864 1.992l3.24 21.96a2.08 2.08 0 0 1-.488 1.664 2.08 2.08 0 0 1-1.544.704H88.264A2.08 2.08 0 0 1 86.72 146a2.08 2.08 0 0 1-.496-1.664l3.24-21.96a2 2 0 0 0-.864-1.976 13.176 13.176 0 0 1 5.872-23.992 16 16 0 0 1 1.496-.08"/></svg>