<svg width="192" height="192" fill="none" xmlns="http://www.w3.org/2000/svg"><path d="M96 122v48m-55-48h110M61 22h70M61 44h70m20 78a53.153 53.153 0 0 0-4.187-20.665 53.948 53.948 0 0 0-11.922-17.519 55.087 55.087 0 0 0-17.843-11.706A55.888 55.888 0 0 0 96 68a55.886 55.886 0 0 0-21.048 4.11A55.08 55.08 0 0 0 57.11 83.817a53.947 53.947 0 0 0-11.922 17.519A53.152 53.152 0 0 0 41 122M61 22a11 11 0 1 0 0 22m70 0a11.002 11.002 0 0 0 11-11 10.996 10.996 0 0 0-11-11" stroke="#000" stroke-width="12" stroke-linecap="round" stroke-linejoin="round"/><path d="M104.459 22H87.541a12 12 0 0 0-11.9 10.453l-9.88 76C64.828 115.634 70.42 122 77.661 122h36.678c7.242 0 12.833-6.366 11.9-13.547l-9.88-76A12 12 0 0 0 104.459 22Z" stroke="#000" stroke-width="12" stroke-linecap="round" stroke-linejoin="round"/></svg>