<svg xmlns="http://www.w3.org/2000/svg" width="192" height="192" viewBox="0 0 192 192"><path d="M112.14 19.02c-3.225-.154-6.141.592-8.622 1.337-3.311.975-6.043 1.904-8.472 1.938-2.413.034-5.17-.823-8.506-1.72-3.336-.9-7.447-1.81-11.948-.536-4.517 1.267-7.522 4.194-9.909 6.701-2.37 2.507-4.27 4.667-6.35 5.899-2.079 1.24-4.901 1.884-8.238 2.774s-7.342 2.143-10.61 5.497c-3.278 3.363-4.427 7.4-5.231 10.761-.804 3.354-1.367 6.175-2.557 8.288s-3.293 4.08-5.731 6.517c-2.439 2.439-5.295 5.534-6.45 10.076s-.14 8.62.852 11.931c.975 3.311 1.896 6.043 1.922 8.472.034 2.413-.815 5.17-1.705 8.506s-1.826 7.439-.551 11.948c1.266 4.517 4.202 7.514 6.7 9.892 2.499 2.379 4.667 4.28 5.9 6.367 1.24 2.079 1.883 4.901 2.773 8.238s2.16 7.343 5.514 10.61c3.354 3.278 7.383 4.427 10.745 5.231s6.192 1.368 8.305 2.557c2.105 1.18 4.07 3.293 6.5 5.731 2.447 2.447 5.542 5.295 10.076 6.45 4.543 1.155 8.62.14 11.931-.852 3.311-.975 6.051-1.896 8.472-1.921 2.422-.026 5.178.814 8.506 1.704 3.336.898 7.439 1.818 11.948.551 4.509-1.274 7.53-4.194 9.909-6.7s4.279-4.667 6.366-5.9c2.08-1.24 4.885-1.883 8.222-2.773s7.343-2.16 10.61-5.514 4.444-7.391 5.248-10.745c.804-3.363 1.36-6.192 2.54-8.305 1.189-2.105 3.31-4.062 5.748-6.5 2.438-2.439 5.278-5.542 6.433-10.076 1.155-4.543.149-8.62-.835-11.931-.975-3.311-1.904-6.051-1.938-8.472-.035-2.422.814-5.178 1.704-8.506.907-3.336 1.826-7.439.551-11.948s-4.194-7.53-6.7-9.909c-2.507-2.378-4.667-4.279-5.9-6.366-1.24-2.08-1.883-4.885-2.773-8.222s-2.144-7.342-5.498-10.61c-3.353-3.269-7.399-4.443-10.76-5.248-3.354-.804-6.184-1.36-8.305-2.54-2.105-1.189-4.062-3.31-6.5-5.748-2.439-2.438-5.534-5.278-10.077-6.433a17 17 0 0 0-3.308-.502zm-.501 9.024h.016a8.6 8.6 0 0 1 1.571.217c2.054.522 3.726 1.895 5.899 4.077 2.182 2.173 4.664 5.097 8.489 7.236 3.824 2.138 7.616 2.74 10.61 3.459s5.037 1.452 6.551 2.924 2.288 3.498 3.075 6.467c.804 2.977 1.501 6.754 3.743 10.527s5.22 6.183 7.452 8.305c2.233 2.113 3.638 3.754 4.211 5.781.574 2.045.245 4.183-.551 7.152s-2.099 6.59-2.039 10.98c.06 4.388 1.434 7.96 2.306 10.911.873 2.952 1.29 5.082.769 7.135-.522 2.054-1.896 3.743-4.077 5.916s-5.097 4.664-7.236 8.488c-2.139 3.825-2.74 7.617-3.459 10.611s-1.453 5.036-2.924 6.55c-1.472 1.515-3.498 2.28-6.467 3.076-2.969.795-6.754 1.484-10.527 3.726s-6.183 5.228-8.305 7.47c-2.113 2.224-3.754 3.637-5.782 4.21-2.044.573-4.183.236-7.151-.568-2.97-.804-6.59-2.082-10.98-2.022-4.388.06-7.968 1.425-10.927 2.306-2.944.873-5.066 1.274-7.119.752-2.053-.513-3.734-1.879-5.899-4.06-2.181-2.182-4.68-5.105-8.505-7.253-3.824-2.139-7.617-2.74-10.611-3.459s-5.036-1.436-6.55-2.907c-1.515-1.489-2.28-3.506-3.075-6.484-.796-2.969-1.485-6.737-3.727-10.51-2.241-3.765-5.227-6.184-7.469-8.306-2.224-2.113-3.638-3.762-4.21-5.798-.574-2.036-.237-4.175.567-7.152.805-2.977 2.074-6.581 2.022-10.962-.051-4.38-1.433-7.977-2.306-10.928-.872-2.952-1.274-5.082-.752-7.135s1.88-3.726 4.06-5.899c2.183-2.173 5.106-4.664 7.253-8.489 2.139-3.824 2.74-7.616 3.459-10.61.719-2.995 1.436-5.037 2.908-6.55 1.488-1.524 3.506-2.288 6.483-3.076 2.969-.804 6.738-1.501 10.511-3.743 3.765-2.241 6.183-5.22 8.305-7.452s3.762-3.638 5.798-4.211 4.175-.245 7.152.551 6.582 2.099 10.962 2.039c4.39-.06 7.977-1.434 10.928-2.306 2.216-.66 3.948-1.055 5.548-.986m7.152 28.507c-9.796 0-17.846 8.05-17.846 17.845 0 9.797 8.05 17.83 17.846 17.83s17.83-8.042 17.83-17.83c-.038-9.832-7.997-17.803-17.83-17.845m-56.13.066a6.126 6.126 0 0 0-6.032 6.033v23.494c0 3.26 2.773 6.015 6.033 6.015H86.14a6.11 6.11 0 0 0 6.032-6.015V62.65a6.126 6.126 0 0 0-6.032-6.033zm56.13 8.974v.016c4.87-.038 8.823 3.92 8.79 8.79 0 4.91-3.88 8.79-8.79 8.79-4.911 0-8.79-3.88-8.79-8.79-.038-4.873 3.916-8.845 8.79-8.806m-53.138.05h17.479V83.12H65.67zm8.371 35.392c-.317-.01-.636.011-.952.016-11.918.614-19.648 12.834-15.09 23.862a17.285 17.285 0 0 0 15.926 10.661v.017h12.248c2.782-.037 5.026-2.298 5.063-5.08v-12.248c-.022-9.492-7.698-17.18-17.195-17.228m38.851.45c-5.71.039-10.34 4.65-10.377 10.36v11.848c0 5.664 4.714 10.36 10.377 10.36h11.831c5.708-.038 10.335-4.652 10.377-10.36v-11.847c-.037-5.711-4.665-10.323-10.377-10.36zm-38.75 8.423a8.4 8.4 0 0 1 3.04.635c5.032 2.084 5.164 7.205 5.164 7.753v8.406h-8.422a8.4 8.4 0 0 1-7.72-5.197 8.375 8.375 0 0 1 1.821-9.14 8.38 8.38 0 0 1 6.116-2.457zm38.75.468h11.831c.899 0 1.488.572 1.488 1.47v11.847c0 .89-.59 1.487-1.488 1.487h-11.83c-.899 0-1.488-.597-1.488-1.487v-11.847c0-.876.55-1.47 1.487-1.47"/></svg>