<svg xmlns="http://www.w3.org/2000/svg" width="192" height="192" viewBox="0 0 192 192"><path d="M112.13 19.02c-3.217-.154-6.134.599-8.615 1.343-3.311.984-6.04 1.9-8.462 1.934-2.42.034-5.175-.822-8.503-1.711-3.337-.899-7.444-1.814-11.953-.548-4.508 1.275-7.528 4.192-9.907 6.699-2.378 2.507-4.277 4.671-6.365 5.903-2.079 1.24-4.885 1.882-8.222 2.772s-7.349 2.147-10.617 5.51c-3.276 3.353-4.431 7.392-5.235 10.754s-1.37 6.177-2.55 8.298c-1.19 2.105-3.302 4.064-5.74 6.503s-5.288 5.535-6.443 10.078-.137 8.623.847 11.935c.975 3.31 1.9 6.04 1.934 8.46.025 2.422-.822 5.168-1.72 8.505-.898 3.336-1.814 7.443-.539 11.952s4.192 7.529 6.699 9.907 4.671 4.278 5.903 6.357 1.882 4.893 2.772 8.23c.89 3.336 2.147 7.34 5.501 10.609 3.362 3.277 7.4 4.432 10.754 5.236 3.362.813 6.186 1.369 8.299 2.558 2.113 1.19 4.072 3.294 6.51 5.74 2.439 2.447 5.536 5.288 10.078 6.443 4.543 1.155 8.616.137 11.926-.847s6.04-1.9 8.47-1.934c2.413-.034 5.168.821 8.504 1.711 3.337.89 7.443 1.814 11.943.548 4.517-1.275 7.529-4.192 9.907-6.699s4.278-4.671 6.366-5.903c2.079-1.24 4.893-1.882 8.23-2.772 3.336-.89 7.34-2.147 10.609-5.51 3.277-3.353 4.432-7.392 5.236-10.754s1.369-6.185 2.558-8.298c1.18-2.105 3.294-4.064 5.732-6.503s5.296-5.535 6.45-10.078c1.156-4.542.138-8.623-.855-11.935-.975-3.31-1.9-6.04-1.925-8.46-.026-2.422.813-5.168 1.711-8.505.899-3.336 1.814-7.443.54-11.952-1.267-4.509-4.193-7.529-6.7-9.907-2.498-2.378-4.662-4.278-5.903-6.357s-1.882-4.893-2.763-8.23c-.898-3.336-2.156-7.34-5.51-10.609-3.354-3.268-7.4-4.432-10.754-5.236-3.362-.813-6.185-1.369-8.299-2.566-2.113-1.172-4.072-3.286-6.502-5.732-2.446-2.447-5.544-5.288-10.087-6.443a17 17 0 0 0-3.31-.496m-.48 9.026a8.6 8.6 0 0 1 1.566.231c2.053.513 3.739 1.882 5.903 4.064 2.182 2.181 4.671 5.099 8.496 7.238 3.824 2.138 7.614 2.746 10.609 3.465s5.039 1.437 6.553 2.908 2.284 3.508 3.08 6.485c.796 2.969 1.489 6.742 3.73 10.515 2.242 3.765 5.219 6.177 7.46 8.299 2.225 2.113 3.645 3.764 4.218 5.8s.231 4.176-.573 7.153c-.796 2.969-2.08 6.587-2.028 10.968.052 4.38 1.438 7.965 2.31 10.917s1.275 5.082.753 7.135-1.882 3.73-4.064 5.903c-2.181 2.173-5.099 4.663-7.246 8.487s-2.738 7.614-3.456 10.61-1.438 5.038-2.91 6.553c-1.488 1.514-3.507 2.292-6.484 3.08-2.969.795-6.742 1.497-10.515 3.738-3.765 2.233-6.177 5.219-8.299 7.452-2.113 2.233-3.764 3.644-5.8 4.218s-4.184.23-7.153-.565-6.587-2.088-10.968-2.028c-4.389.06-7.965 1.43-10.917 2.31-2.951.873-5.082 1.267-7.135.745-2.053-.514-3.73-1.883-5.903-4.064s-4.671-5.1-8.496-7.238-7.614-2.738-10.609-3.465c-2.994-.71-5.03-1.437-6.545-2.909s-2.292-3.507-3.08-6.476c-.804-2.977-1.497-6.759-3.738-10.523-2.242-3.764-5.219-6.177-7.452-8.299s-3.644-3.764-4.218-5.8-.23-4.175.565-7.144c.796-2.969 2.079-6.588 2.028-10.977s-1.438-7.965-2.31-10.917-1.275-5.082-.753-7.135 1.89-3.73 4.072-5.903c2.173-2.173 5.1-4.663 7.238-8.487s2.738-7.615 3.456-10.61c.72-2.994 1.446-5.038 2.918-6.553 1.471-1.514 3.508-2.292 6.476-3.08 2.978-.795 6.75-1.497 10.523-3.738 3.765-2.233 6.177-5.219 8.299-7.452 2.113-2.233 3.764-3.645 5.792-4.218 2.045-.573 4.184-.23 7.152.565 2.969.804 6.588 2.087 10.977 2.028 4.38-.052 7.957-1.43 10.908-2.31 2.225-.65 3.97-1.044 5.57-.976m7.135 28.515c-9.796 0-17.829 8.042-17.829 17.83s8.042 17.837 17.829 17.837 17.838-8.042 17.838-17.838-8.042-17.829-17.838-17.829m0 9.035a8.727 8.727 0 0 1 8.795 8.795c0 4.91-3.884 8.795-8.795 8.795s-8.795-3.884-8.795-8.795a8.727 8.727 0 0 1 8.795-8.795M62.662 56.62a6.117 6.117 0 0 0-6.032 6.023v23.493c0 3.251 2.764 6.023 6.023 6.023h23.493a6.117 6.117 0 0 0 6.023-6.023V62.635a6.117 6.117 0 0 0-6.023-6.023zm3.003 9.035h17.47v17.47h-17.47zm10.934 38.414a1.7 1.7 0 0 0-.796.256c-.41.24-2.036 2.593-3.602 5.21l-2.857 4.757-3.054-5.022c-2.567-4.235-3.251-5.056-4.346-5.184-1.694-.197-4.535 1.916-4.535 3.362 0 .565 1.9 3.85 4.227 7.272l4.243 6.246v4.192c0 3.182.171 4.371.736 4.936.445.445 1.557.736 2.797.736 2.935 0 3.525-1.01 3.525-6.109v-4.02l3.936-5.887c2.164-3.242 4.08-6.356 4.26-6.93.548-1.728-2.506-4.03-4.534-3.815m19.275.11a12.58 12.58 0 0 0-8.53 3.166c-3.379 2.978-4.654 6.032-4.594 11.054.06 5.04 3.593 10.095 8.333 11.952 8.188 3.2 16.786-2.506 17.513-11.618.3-3.678-.428-6.33-2.498-9.188a12.83 12.83 0 0 0-10.224-5.364m-.137 6.93c3.054.042 5.912 2.669 5.903 6.544 0 2.67-.753 4.15-2.772 5.519-6.22 4.192-12.645-5.15-7.16-10.403a5.65 5.65 0 0 1 4.02-1.66zm18.865-6.64c-3.533 0-3.73.309-3.456 9.84.222 7.999.564 8.358 1.403 10.402 1.386 3.371 4.012 5.1 6.459 5.878 4.303 1.386 9.36.06 12.072-3.149 2.738-3.25 3.234-5.133 3.43-13.209.223-8.897-.076-9.761-3.336-9.753-3.388.01-3.37 0-3.636 8.59-.197 6.34-.385 7.914-1.086 8.983-1.198 1.822-2.79 2.447-4.928 1.916-2.866-.71-3.397-2.37-3.397-10.566 0-8.187-.3-8.931-3.525-8.931"/></svg>