<svg xmlns="http://www.w3.org/2000/svg" width="192" height="192" viewBox="0 0 192 192"><path d="M56.562 16.014c-1.75-.037-3.5 0-4.486.125-11.072 1.425-20.995 9.873-24.494 20.82-.975 3.1-1.35 5.224-1.526 8.748-.3 5.499.051 7.723 4.85 31.117 3.3 16.071 3.523 20.969 1.424 31.441-2.325 11.672-5.623 29.018-5.848 30.918-1.325 10.522 1.95 20.296 9.148 27.369 2.675 2.624 4.723 4.148 7.823 5.723 5.123 2.624 9.797 3.724 15.87 3.724 5.724 0 9.574-.75 15.173-2.949 4.674-1.85 6.147-2.824 47.688-31.592 4.474-3.074 12.122-8.373 16.996-11.723 11.447-7.898 14.097-9.898 17.02-12.797 4.9-4.874 7.75-9.622 9.249-15.37.475-1.9.574-2.875.574-6.249-.025-3.5-.1-4.3-.65-6.424-.9-3.324-2.15-6.073-4.075-8.947-3.624-5.474-7.572-8.8-20.244-17.072l-3.75-2.45-.299 1.626c-.7 3.824-3.123 6.273-7.097 7.148-1.375.3-2.9.175-4.975-.4-.23-.067-.374-.107-.418-.082l-.008.008-.002.006-.002.005c-.01.073.18.296.604.788 2.15 2.474 4.974 7.45 6.049 10.674 1.124 3.499 1.55 5.997 1.7 10.496.226 6.898-.626 11.473-3.05 16.422-2.25 4.598-4.298 7.048-12.971 15.646-4.274 4.224-8.499 8.272-9.398 8.947-1.875 1.424-6.323 3.7-8.823 4.45-4.374 1.324-10.423 1.748-15.047 1.048-8.998-1.375-15.246-4.598-20.77-10.646-4.849-5.324-7.598-10.148-9.248-16.246-.6-2.225-.675-3.05-.775-7.623-.1-3.95-.025-5.649.275-7.399.825-4.848 3-9.822 5.998-13.896 2.575-3.449 10.273-11.474 14.896-15.473 3.5-3.049 7.798-5.497 12.172-6.947 3.3-1.1 5.849-1.55 9.473-1.699l3.275-.15.15-4.774c.15-5.474.374-6.449 1.973-8.273 1.05-1.175 3.025-2.375 3.975-2.375 1 0 .3-.624-3.074-2.748-1.85-1.175-7.074-4.55-11.598-7.524s-9.746-6.348-11.596-7.472c-7.023-4.324-12.623-6.75-17.646-7.625-.987-.175-2.737-.287-4.486-.325zm50.775 29.693c-.15.025-.7.175-1.225.375-.55.175-1.249.599-1.574.898-1.325 1.25-1.35 1.676-1.35 19.746 0 9.173-.075 16.845-.15 17.07-.225.55-.925.5-4.224-.35-7.349-1.899-13.721-.398-18.52 4.376-3.5 3.449-5.274 7.272-5.524 11.87-.325 5.95 2.424 12.024 6.998 15.423 3.424 2.55 7.023 3.648 11.797 3.623 8.948-.05 16.196-5.049 18.545-12.797.375-1.225.45-3.699.574-22.72.125-20.02.152-21.368.577-21.618.325-.225 1.449 0 5.123.949 9.872 2.574 9.673 2.55 10.973 2.2.824-.226 1.5-.625 2.15-1.3l.924-.974v-4.375c0-4.324 0-4.373-.65-5.123-.35-.425-1.05-.876-1.55-1.026-.5-.125-3.8-1.05-7.298-2.025-11.922-3.3-15.321-4.223-15.596-4.223z"/></svg>