<svg xmlns="http://www.w3.org/2000/svg" width="192" height="192" fill="none"><g stroke="#000" stroke-linecap="round" stroke-linejoin="round" clip-path="url(#a)"><path stroke-width="12" d="M121.614 51.636c18.502-3.942 33.234-1.709 38.472 7.364s-.194 22.948-12.858 37m-25.614-44.364C115.776 33.64 106.476 22 96 22S76.224 33.642 70.386 51.636m51.228 0c2.52 7.769 4.395 16.723 5.44 26.435M96 60.14a168 168 0 0 0-16 8.146 168 168 0 0 0-15.054 9.784M96 60.14a168 168 0 0 1 16 8.146 168 168 0 0 1 15.054 9.784M96 60.14c-8.934-3.95-17.625-6.804-25.614-8.505m-5.44 26.435A168 168 0 0 0 64 96c0 6.183.328 12.189.946 17.929m0-35.858C57.057 83.832 50.24 89.933 44.772 96m25.614-44.364C51.884 47.694 37.152 49.926 31.914 59s.194 22.948 12.858 37m25.614 44.365c-18.502 3.941-33.234 1.708-38.472-7.365s.194-22.948 12.858-37m25.614 44.365C76.224 158.359 85.524 170 96 170s19.776-11.642 25.614-29.636m-51.228.001c-2.52-7.77-4.395-16.724-5.44-26.436M96 131.858a168 168 0 0 0 16-8.145 168 168 0 0 0 15.054-9.784M96 131.858a168 168 0 0 1-16-8.145 168 168 0 0 1-15.054-9.784M96 131.858c8.934 3.951 17.625 6.805 25.614 8.506m0 0c18.502 3.942 33.234 1.709 38.472-7.364s-.194-22.948-12.858-37m-20.174 17.929c.618-5.74.946-11.746.946-17.929s-.328-12.189-.946-17.93m0 35.859c7.889-5.761 14.706-11.862 20.174-17.929"/><path stroke-width="10" d="M34 116a5 5 0 1 0 0-10 5 5 0 0 0 0 10m106 31a5 5 0 1 0-.001-10.001A5 5 0 0 0 140 147M114 40a5 5 0 1 0 0-10 5 5 0 0 0 0 10"/></g><defs><clipPath id="a"><path fill="#fff" d="M0 0h192v192H0z"/></clipPath></defs></svg>