<svg xmlns="http://www.w3.org/2000/svg" width="192" height="192"><path d="M79.56 16c-1.41 0-2.822.374-4.098 1.113L34.466 40.748a16.41 16.41 0 0 0-8.196 14.174v74.605c0 2.955 1.546 5.614 4.098 7.091 2.586 1.478 5.636 1.478 8.221 0l6.822-3.93V71.306c0-9.704 5.24-18.766 13.668-23.635L87.78 31.11v-6.914c0-2.955-1.538-5.606-4.09-7.083h-.033A8.2 8.2 0 0 0 79.56 16m30.051 16.392c-1.41 0-2.822.366-4.098 1.105L64.517 57.14a16.4 16.4 0 0 0-8.196 14.166v74.614c0 2.954 1.546 5.605 4.098 7.082 2.586 1.478 5.636 1.478 8.221 0l10.38-5.978a77.2 77.2 0 0 1-2.184-18.23V90.446c0-9.704 5.24-18.766 13.668-23.635l27.328-15.784V40.58c0-2.955-1.537-5.605-4.09-7.083h-.033a8.16 8.16 0 0 0-4.098-1.104zm31.392 19.107c-1.41 0-2.822.366-4.098 1.105L95.91 76.247a16.4 16.4 0 0 0-8.196 14.166v38.348a67.08 67.08 0 0 0 15.818 43.247c3.492 4.164 9.473 5.207 14.208 2.487v.034l42.977-24.815a9.96 9.96 0 0 0 4.865-6.957 9.96 9.96 0 0 0-2.217-8.153 60.12 60.12 0 0 1-14.166-38.72V59.688c0-2.955-1.546-5.606-4.098-7.083a8.17 8.17 0 0 0-4.098-1.105z"/></svg>