<svg width="192" height="192" fill="none" xmlns="http://www.w3.org/2000/svg"><path d="M84.301 22c-1.763 0-3.18 1.38-3.18 3.1v24.955C66.347 57.297 59.124 74.64 59.124 87.08c-1.356 18.983 8.755 28.483 14.467 42.481.945 2.448 1.954 6.035 1.171 9.308-.779 3.273-3.442 5.467-2.024 7.742.731 1.173 2.705.842 4.122.938 2.443.168 5.528-2.263 7.315-.641 4.896 6.407-5.694 20.66-2.86 22.75 16.322 4.561 39.858-37.866 45.145-50.755 5.287-12.889 6.54-22.332 6.54-31.77 0-9.439-2.776-15.554-6.54-21.937-3.764-6.384-15.457-15.09-15.457-15.09V25.154c0-1.718-1.418-3.099-3.18-3.099L84.301 22Z" stroke="#000" stroke-width="12" stroke-linecap="round" stroke-linejoin="round"/><path d="M61 99s11.857-19 25.325-19 12.307 13.204 22.641 13.204c10.333 0 23.034-11.45 23.034-11.45" stroke="#000" stroke-width="12" stroke-linecap="round" stroke-linejoin="round"/></svg>