<svg width="192" height="192" fill="none" xmlns="http://www.w3.org/2000/svg"><path d="M170 84a62.004 62.004 0 0 1-18.159 43.841l-24 24a62.004 62.004 0 0 1-87.682 0 62.003 62.003 0 0 1 0-87.682l24-24A62 62 0 0 1 170 84Z" stroke="#000" stroke-width="12" stroke-linecap="round" stroke-linejoin="round"/><path d="M65 72h22L72.632 98" stroke="#000" stroke-width="10" stroke-linecap="round" stroke-linejoin="round"/><circle cx="142" cy="66" r="4" stroke="#000" stroke-width="8" stroke-linecap="round" stroke-linejoin="round"/><path d="M125 110h-22s18.742-17 21.295-23.125a10.995 10.995 0 0 0-7.797-14.587 11 11 0 0 0-12.024 5.212m-29.8 20.168a4.382 4.382 0 0 1 4.652 0l4.449 2.788c.455.286.96.485 1.489.588l5.132.998a4.365 4.365 0 0 1 3.436 3.361l1.005 4.658c.12.562.352 1.094.68 1.567l2.705 3.89a4.346 4.346 0 0 1 0 4.964l-2.704 3.89a4.357 4.357 0 0 0-.681 1.567l-1.005 4.658a4.365 4.365 0 0 1-3.436 3.361l-5.132.998a4.378 4.378 0 0 0-1.49.588l-4.448 2.788a4.383 4.383 0 0 1-4.652 0l-4.449-2.788a4.378 4.378 0 0 0-1.489-.588l-5.132-.998a4.365 4.365 0 0 1-3.436-3.361l-1.005-4.658a4.357 4.357 0 0 0-.68-1.567l-2.705-3.89a4.346 4.346 0 0 1 0-4.964l2.704-3.89c.329-.473.56-1.005.681-1.567l1.005-4.658a4.365 4.365 0 0 1 3.436-3.361l5.132-.998a4.378 4.378 0 0 0 1.49-.588l4.448-2.788Z" stroke="#000" stroke-width="10" stroke-linecap="round" stroke-linejoin="round"/></svg>