<svg xmlns="http://www.w3.org/2000/svg" width="192" height="192" viewBox="0 0 192 192"><path d="M86.649 18.744a38.16 38.16 0 0 1 21.704-2 38.1 38.1 0 0 1 17.52 8.728 37.92 37.92 0 0 1 11.648 37.376 36.8 36.8 0 0 1-8.512 16.12 37.3 37.3 0 0 1-16.64 10.824c-6.8 2.24-14.224 2.368-21.136.528a37.6 37.6 0 0 1-11.296-5.12v57.648a18.32 18.32 0 0 1 9.384 12.88 18.16 18.16 0 0 1-3.272 13.936c-2.144 2.936-5.2 5.152-8.64 6.336v-14.464a2.64 2.64 0 0 0-1.752-2.44c-.576-.216-1.184-.184-1.8-.184h-5.616a2.84 2.84 0 0 0-2.616 2.8V176a18.16 18.16 0 0 1-11.064-10.696c-2.256-5.864-1.216-12.848 2.768-17.688a18.4 18.4 0 0 1 5.712-4.768V54.112a38.4 38.4 0 0 1 4.112-17.504 38.24 38.24 0 0 1 19.504-17.864m9.664 17.12c-4.28 4.368-8.64 8.64-12.936 13.008 1.672 5.856 3.144 11.792 4.768 17.648q8.824 2.36 17.72 4.72 6.496-6.48 12.968-12.976a2905 2905 0 0 0-4.744-17.728c-5.952-1.52-11.84-3.184-17.776-4.672"/></svg>