<svg width="192" height="192" fill="none" xmlns="http://www.w3.org/2000/svg"><path d="M145.828 145.828 170 170m-24.172-24.172s-31.587-31.587-68.803.84c-2.512 2.189-6.333 2.227-8.69-.129l-37.679-37.68S4.351 82.555 43.453 43.453C82.555 4.351 108.86 30.656 108.86 30.656l37.68 37.68c2.356 2.356 2.318 6.177.129 8.689-32.427 37.216-.84 68.803-.84 68.803Z" stroke="#000" stroke-width="12" stroke-linecap="round" stroke-linejoin="round"/><path d="M84.373 80.302a3 3 0 1 0 0-6 3 3 0 0 0 0 6Zm1.414-24.042a3 3 0 1 0 0-6 3 3 0 0 0 0 6ZM73.06 97.272a3 3 0 1 0-.001-6 3 3 0 0 0 0 6Zm32.526-32.527a3 3 0 1 0 0-6 3 3 0 0 0 0 6Zm2.121 20.506a3 3 0 1 0 0-6 3 3 0 0 0 0 6ZM107 105.757a3 3 0 1 0 0-6 3 3 0 0 0 0 6Zm-23.335 10.607a3 3 0 1 0 0-6 3 3 0 0 0 0 6ZM51.139 90.908a3 3 0 1 0 0-6 3 3 0 0 0 0 6Zm9.899-21.213a3 3 0 1 0 0-6 3 3 0 0 0 0 6Z" stroke="#000" stroke-width="6" stroke-linecap="round" stroke-linejoin="round"/><path d="M82.251 117.251c19.33 0 35-15.67 35-35s-15.67-35-35-35-35 15.67-35 35 15.67 35 35 35Z" stroke="#000" stroke-width="10" stroke-linecap="round" stroke-linejoin="round"/></svg>