<svg width="192" height="192" fill="none" xmlns="http://www.w3.org/2000/svg"><path d="M93 32s-19 80-58 134l71-28.719M165 102a49.076 49.076 0 0 0-5 3.188" stroke="#000" stroke-width="12" stroke-linecap="round" stroke-linejoin="round"/><circle cx="122" cy="90" r="6" stroke="#000" stroke-width="12" stroke-linecap="round" stroke-linejoin="round"/><circle cx="88" cy="78" r="5" stroke="#000" stroke-width="10" stroke-linecap="round" stroke-linejoin="round"/><circle cx="95" cy="132" r="5" stroke="#000" stroke-width="10" stroke-linecap="round" stroke-linejoin="round"/><path d="M85 26c71 26 85 84 85 84m-148-5 28-56h15l7.054 39.5M33 87h38" stroke="#000" stroke-width="12" stroke-linecap="round" stroke-linejoin="round"/><path d="M143 152h-12a6 6 0 0 1-6-6v-12m0 0h18m-18 0v-11.999a6 6 0 0 1 6-6h8M139 134a9 9 0 1 0 0-18m4 36a9 9 0 1 0 0-18" stroke="#000" stroke-width="10" stroke-miterlimit="6" stroke-linecap="round" stroke-linejoin="round"/></svg>