<svg xmlns="http://www.w3.org/2000/svg" width="192" height="192" viewBox="0 0 192 192"><path d="M97.196 31.367c-35.264 0-63.856 28.936-63.856 64.624 0 35.704 28.584 64.64 63.856 64.64s63.864-28.936 63.856-64.64c0-35.688-28.592-64.624-63.856-64.624m-27.904 24.8q1 0 1.904.36c4.816 1.976-2.784 7.552-6.72 17.376-3.928 9.816-2.696 20.176-7.52 18.2-4.816-1.976-5.536-11.536-1.6-21.36 3.44-8.592 9.296-14.552 13.936-14.576M57.276 96.415c2.016.08 3.84 2.4 4.168 5.44.352 3.232-1.12 6.056-3.296 6.296s-4.224-2.192-4.576-5.424 1.12-6.056 3.296-6.296l.4-.016zm86.872 23.8q.12.024.088.344c-.736 3.648-6.704 13.264-24.672 22.544-22.448 11.6-37.808 4.128-41.216 2.144-2.216-1.296-1.16-3.472 4.24-5.28 11.36-2.528 9.44 2.56 25.792.608 16.352-1.968 24.984-8.8 29.328-13.28 3.04-3.152 5.88-7.248 6.44-7.08" opacity=".7"/><path d="M69.292 56.167c-4.64.032-10.504 5.976-13.944 14.568-3.92 9.824-3.2 19.384 1.624 21.36 4.816 1.976 3.576-8.376 7.504-18.2 3.936-9.824 11.544-15.392 6.72-17.368a4.8 4.8 0 0 0-1.904-.36M57.276 96.423a2.4 2.4 0 0 0-.4.016c-2.184.24-3.664 3.056-3.312 6.296.36 3.232 2.4 5.664 4.584 5.416s3.656-3.064 3.304-6.296c-.328-3.032-2.16-5.36-4.176-5.44zm86.88 23.792c-.56-.168-3.408 3.936-6.448 7.08-4.336 4.488-12.96 11.32-29.32 13.28-16.352 1.968-14.432-3.144-25.8-.616-5.392 1.808-6.456 3.984-4.24 5.28 3.408 2 18.768 9.456 41.224-2.136 17.96-9.28 23.936-18.896 24.672-22.544q.032-.32-.096-.344z" opacity=".5"/><path d="M94.868 26.623a68 68 0 0 0-33.136 9.968 69.36 69.36 0 0 0-30.76 41.392 70.16 70.16 0 0 0 4.048 47.28c1.064 2.32 3.888 3.136 6.12 1.888a4.88 4.88 0 0 0 1.96-6.272 60.8 60.8 0 0 1-3.288-40.488 60 60 0 0 1 26.656-35.872 58.8 58.8 0 0 1 43.76-7.208 59.36 59.36 0 0 1 33.832 21.672 4.88 4.88 0 0 0 6.544 1.2 4.36 4.36 0 0 0 1.16-6.248 68.48 68.48 0 0 0-39.52-25.664 68 68 0 0 0-17.376-1.648m65.36 17.536a60 60 0 0 0-8.024.688 2.432 2.432 0 0 0-1.72 3.624 2.56 2.56 0 0 0 2.736 1.224c5.88-1.128 9.76-.776 10.952 1.32 2.648 4.672-8.824 16.864-28.136 31.184-3.856 2.856-9.056 2.712-13.84 2.712-8.96 0-16.216 7.336-16.216 16.4a1.52 1.52 0 0 1-.72 1.32q-1.96 1.176-3.96 2.352c-38.728 22.752-73.368 35.48-77.376 28.424-1.248-2.192.624-6.056 4.976-11.016a2.64 2.64 0 0 0 .336-3.024 2.496 2.496 0 0 0-4.12-.368c-7.8 9.768-10.992 18.104-8.016 23.36 7.272 12.8 48.48 2.432 92.056-23.168 3.456-2.024 7.712-1.856 11.704-1.528q.656.048 1.328.048c8.952 0 16.2-7.344 16.2-16.4a3.2 3.2 0 0 1 1.2-2.56c25.848-19.96 40.704-39.592 35.312-49.104-2.16-3.808-7.328-5.568-14.664-5.488zm.688 45.36c-2.52.256-4.352 2.528-4.288 5.088a60.8 60.8 0 0 1-6.752 29.272 60 60 0 0 1-23.824 24.712 58.9 58.9 0 0 1-33.312 7.384 59.2 59.2 0 0 1-28.12-9.68 4.84 4.84 0 0 0-6.528 1 4.4 4.4 0 0 0 .888 6.344 68 68 0 0 0 33.064 11.584 68 68 0 0 0 38.456-8.528 69.04 69.04 0 0 0 27.48-28.52 70.1 70.1 0 0 0 7.776-34.536 4.32 4.32 0 0 0-4.84-4.12m-38.72 3.584a8.104 8.2 0 0 1 8.088 8.208 8.104 8.2 0 0 1-8.096 8.2 8.104 8.2 0 0 1-8.104-8.2 8.104 8.2 0 0 1 8.104-8.208"/></svg>