<svg width="192" height="192" fill="none" xmlns="http://www.w3.org/2000/svg"><path d="M84 72v20M74 82h20M50 94c0 25.405 20.595 46 46 46 18.815 0 34.992-11.296 42.118-27.476 1.048-2.379.146-5.111-1.949-6.649L120 94l16.169-11.874c2.095-1.54 2.997-4.27 1.949-6.65C130.992 59.296 114.815 48 96 48c-25.405 0-46 20.595-46 46Zm-26 0v63" stroke="#000" stroke-width="12" stroke-linecap="round" stroke-linejoin="round"/><path d="M24 94a72 72 0 1 1 26 55.39V157m0 0a12.999 12.999 0 0 1-22.192 9.192A12.999 12.999 0 0 1 24 157" stroke="#000" stroke-width="12" stroke-linecap="round" stroke-linejoin="round"/></svg>