<svg xmlns="http://www.w3.org/2000/svg" width="192" height="192" viewBox="0 0 192 192"><path d="M103.02 114.83h.104c1.072-.016 1.952-.44 1.952-.96V26.562c0-.536-.904-.96-2.016-.96-1.08 0-1.968.424-1.984.952v87.316c0 .52.864.944 1.936.952m-7.08 6.504h.104c1.08-.016 1.944-.52 1.944-1.136V51.787c0-.64-.896-1.144-2-1.144-1.088 0-1.976.504-2 1.128v68.427c.016.616.88 1.112 1.952 1.12m-7.08-6.488h.103c1.072-.016 1.936-.44 1.936-.96V35.066c0-.544-.888-.968-1.992-.968-1.096 0-1.984.416-2 .952v78.852c.016.504.88.928 1.952.936m-7.088-3.784h.104c1.08-.016 1.944-.496 1.944-1.072V53.587c0-.584-.904-1.072-1.992-1.072-1.096 0-1.984.48-2 1.064v56.395c0 .576.88 1.04 1.944 1.056m-7.089-.752h.104c1.08-.016 1.945-.584 1.945-1.288V49.267c0-.72-.905-1.305-1.993-1.305-1.096 0-1.984.568-2 1.28v59.764c0 .696.88 1.264 1.944 1.264m-7.08-.296h.104c1.08-.008 1.936-.48 1.936-1.048V60.228c0-.576-.896-1.048-1.992-1.048s-1.984.464-2 1.04v48.722c.024.56.88 1.024 1.952 1.032m-7.08 0h.104c1.072-.008 1.936-.48 1.936-1.04V45.427c0-.56-.896-1.024-2-1.024-1.088 0-1.976.448-1.992 1.024v63.523c.016.56.88 1.016 1.944 1.024m-7.097.32h.12c1.072-.024 1.936-.496 1.936-1.08v-44.93c0-.6-.896-1.089-2-1.089-1.088 0-1.984.48-1.992 1.073v44.962c.008.576.88 1.04 1.936 1.064m-7.08-.32h.104c1.08-.008 1.952-.48 1.952-1.048V87.445c0-.576-.904-1.056-2-1.056-1.088 0-1.984.472-1.992 1.04v21.497c0 .568.88 1.032 1.936 1.032m-7.08-.776h.103c1.073 0 1.945-.408 1.945-.896V69.988c0-.496-.896-.904-2-.904-1.089 0-1.977.4-1.993.896v38.314c0 .488.88.88 1.944.88m-9.032 2.04c.016.616.88 1.112 1.944 1.12h.104c1.072 0 1.944-.512 1.944-1.136v-14.93c0-.631-.896-1.151-2-1.151-1.088 0-1.976.52-1.992 1.136m9.72 18.16-14.265 9.937 70.54 24.721 70.532-24.84-13.945-9.833c-14.48 2.448-31.306-1.88-42.866 3.528l-.048.016a18.4 18.4 0 0 0-4.848 3.192c-2.568 2.304-4.696 5.456-6.24 9.76l-2.584 11.866-2.504-11.49c-1.84-5.392-4.576-9.016-7.937-11.44l-.16-.12-.648-.44c-11.417-7.409-29.473-2.249-45.01-4.873m136.05 20.073-2.088-6-69.964 24.457 1.36 3.92c-7.936 4.272-10.273 4.224-18.617 0l1.36-3.92-69.963-24.457-2.088 6 66.803 23.361-1.488 4.129c14.353 5.92 14.353 5.92 29.13-.048l-1.425-4.057m50.7-45.514h.095c1.08 0 1.944-.432 1.944-.96V84.268c0-.528-.904-.96-2-.96-1.08 0-1.968.424-1.984.944v27.13c0 .535.856.96 1.952.96m-7.104-3.153h.104c1.072 0 1.944-.384 1.944-.856V69.94c0-.48-.896-.856-1.992-.856s-1.984.384-2 .848v38.402c.016.472.88.84 1.944.848m-7.089.792h.112c1.08-.008 1.944-.48 1.944-1.048V60.491c0-.592-.896-1.056-2-1.056-1.08 0-1.984.464-2 1.032v48.466c.008.568.88 1.032 1.952 1.032m-7.088.32h.104c1.064 0 1.952-.376 1.952-.84V66.643c0-.456-.904-.84-2-.84-1.072 0-1.984.376-2 .84v42.818c.008.464.88.832 1.944.84m-7.08-.328h.096c1.072-.008 1.952-.4 1.952-.88v-66.53c0-.489-.904-.88-2.016-.88-1.08 0-1.985.391-1.985.863v66.555c0 .48.88.864 1.953.872m-7.08 0h.103c1.064-.008 1.936-.376 1.936-.808V51.466c0-.456-.904-.824-1.992-.824-1.104 0-1.984.368-2 .816v57.707c.008.44.88.792 1.952.8m-7.104.32h.104c1.08-.008 1.96-.472 1.96-1.04V70.14c0-.576-.912-1.056-2.016-1.056-1.072 0-1.968.48-1.984 1.04v39.122c.008.576.872 1.04 1.936 1.04m-7.08.76h.111c1.072-.016 1.936-.4 1.936-.88V40.322c0-.48-.904-.88-1.992-.88s-1.984.4-2 .864v69.891c.016.48.88.848 1.944.856"/></svg>