<svg xmlns="http://www.w3.org/2000/svg" width="192" height="192" viewBox="0 0 192 192"><path d="M25.852 175.53a4.24 4.24 0 0 1-1.296-1.76c-.704-1.688-1.16-8.464-.776-11.552.288-2.304.368-2.424 3.752-5.752 4.128-4.056 6.544-8.105 8.424-14.097 1.784-5.68 1.84-5.776 3.04-6.08 1.337-.337 2.649 1.032 3.409 3.544.856 2.824.608 12.993-.4 16.697-3.305 12.12-11.464 21.729-16.161 19zm136.35-5.976c-4.336-3.08-22.401-23.217-26.177-29.177-1.368-2.152-1.296-3.04.264-3.04 1.712 0 12.72 3.904 16.473 5.84 11 5.68 16.641 13.745 15.441 22.049-.824 5.624-2.488 6.832-6 4.328m-88.747-7.52c-1.984-1.44-5.232-5.736-9.177-12.128-3.4-5.528-3.816-6.48-3.192-7.24 1.032-1.24 6.545-.28 10.984 1.904 3.44 1.696 5.473 3.552 6.769 6.2.952 1.944 1.104 2.744 1.096 5.672-.016 6.248-2.56 8.432-6.48 5.592m38.304-.024c-.928-.464-2.752-1.976-4.056-3.376-3.936-4.208-10.8-14.225-10.8-15.76 0-1.985 6.08-1.705 10.664.487 3.104 1.488 7.137 5.192 8.633 7.936 1.88 3.457 1.84 8.729-.08 10.464-1.2 1.072-2.56 1.152-4.36.248m-41.587-27.177c-2.088-1.408-2.88-3.336-5.528-13.433-3.576-13.633-6.96-25.28-8.288-28.553a36 36 0 0 0-4.68-8.24c-1.84-2.56-1.896-4.328-.16-5.04 1.424-.6 11.04-.328 12.8.352 1.096.424 5.936-.032 18.697-1.76l5.032-.672 4.16-5.04c10.84-13.097 17.441-21.841 17.441-23.065 0-.512-.424-.56-2.88-.272-1.592.184-7.408.352-12.937.384l-10.056.056-3.888 3.392C65.277 65.677 47.406 76.846 43.294 75.83c-.744-.192-.96-.512-.96-1.4 0-.968.424-1.464 2.68-3.072 6.464-4.609 15.185-12.008 21.96-18.665C75.072 44.748 78.952 40.34 82.6 34.9c3.728-5.537 5.2-8.929 5.64-13.025.528-4.88.608-5.169 1.56-5.68 1.728-.92 6.24 1.415 10.808 5.6 4.16 3.816 4.296 5.28.768 8.288-1.768 1.512-10.688 11.736-11.728 13.449-.36.592 6.36-.008 11.248-1.008 5.072-1.032 9.904-2.552 12.88-4.048 3.176-1.6 5.44-1.816 8.36-.792 4.817 1.704 12.216 6.84 12.216 8.488 0 1.064-1.728 2.216-4.704 3.144-3.44 1.072-8.16 4.08-13.617 8.664-3.936 3.304-18.16 17.513-17.857 17.825.208.208 11.904-1.784 19.041-3.24 2.744-.56 6.6-1.576 8.576-2.256 6.145-2.128 7.76-1.784 16.657 3.552 5.617 3.376 7.04 4.728 7.04 6.688 0 1.24-.375 1.857-2.623 4.24-3.216 3.44-4.673 6.417-8.337 17.098-6.384 18.64-11.872 29.48-14.92 29.48-.585 0-1.769-.863-3.297-2.391q-2.384-2.393-3.344-2.385c-1.968 0-40.138 4.497-42.226 4.977-.52.12-.96.624-1.12 1.296-.32 1.288-1.296 2.888-1.76 2.888a6.4 6.4 0 0 1-1.688-.912zm12.608-10.44c4.593-.8 8.569-1.536 8.84-1.616.385-.12.505-2.08.505-8.08v-7.92l-5.28.04c-4.44.04-5.72-.096-8.065-.84-2.968-.944-5.384-2.24-5.384-2.88 0-.496 2.016-1.024 6.976-1.808 4.68-.745 10.512-2.065 11.328-2.577.496-.312.512-1.376.12-7.624-.256-3.992-.64-7.44-.848-7.648-.256-.256-2.296-.088-5.896.48-3.024.472-8.256 1.2-11.616 1.608s-6.16.816-6.224.88c-.064.08 1.288 8.92 3.008 19.657s3.136 19.681 3.144 19.865c0 .184.24.248.536.136s4.272-.856 8.864-1.664zm22.69-3.584c5.776-.696 9.224-.744 11.535-.16 2.352.584 3.104.096 4.545-2.936 3.064-6.456 8.136-31.497 7.352-36.32a5.6 5.6 0 0 0-1.16-2.417c-.8-.864-1.264-1-3.432-1-3.704 0-21.85 2.68-22.49 3.32-.111.112.017.6.273 1.088.512.96.44 1.976-.576 7.945-.352 2.08-.736 4.336-.84 5.008l-.2 1.224 2.896-.784c2-.544 4.256-.8 7.304-.824 4.08-.04 4.512.032 5.856.952 2.784 1.896 2.912 3.664.384 5.072-1.92 1.064-7.12 2.616-12.528 3.736l-4.272.88-.2 1.632c-.104.896-.304 4.448-.44 7.904-.24 5.92-.208 6.273.48 6.265.4 0 2.88-.264 5.512-.584"/></svg>