<svg xmlns="http://www.w3.org/2000/svg" width="192" height="192" viewBox="0 0 192 192"><path d="M96.394 16.009a80 80 0 0 0-30.222 7.138 80 80 0 0 0-24.551 17.146 79.1 79.1 0 0 0-16.267 25.173 79.1 79.1 0 0 0-5.991 30.489q0 16.267 6.355 31.057A80.9 80.9 0 0 0 42.82 152.55a80.9 80.9 0 0 0 25.538 17.084 78.2 78.2 0 0 0 31.057 6.364 78.2 78.2 0 0 0 43.093-12.667 78.76 78.76 0 0 0 29.546-33.822q.836-1.875.472-3.955a6.5 6.5 0 0 0-1.832-3.547q-3.226-3.227-7.493-1.351a56 56 0 0 1-23.769 5.306 55.4 55.4 0 0 1-28.444-7.6 56.53 56.53 0 0 1-20.649-20.64 55.4 55.4 0 0 1-7.609-28.461q0-11.973 4.747-22.773a55.1 55.1 0 0 1 13.707-18.915q3.44-3.227 1.564-7.503-1.777-4.266-6.355-4.062m-16.16 16.053a68.44 68.44 0 0 0-10.844 37.21q0 18.96 9.386 35.128a69.33 69.33 0 0 0 25.538 25.53 68.7 68.7 0 0 0 35.111 9.377q5.858 0 11.467-.933a66.7 66.7 0 0 1-22.969 17.866 65.8 65.8 0 0 1-28.506 6.408 64.9 64.9 0 0 1-25.902-5.306 67.6 67.6 0 0 1-21.27-14.222 67.6 67.6 0 0 1-14.223-21.271 64.9 64.9 0 0 1-5.315-25.893q0-22.41 13.289-40.026 13.289-17.618 34.24-23.866m-14.738 74.639a18.329 18.329 0 0 0 0 36.63c10.098 0 18.31-8.212 18.31-18.31s-8.212-18.311-18.31-18.311m0 3.858c7.973 0 14.453 6.488 14.453 14.462s-6.489 14.453-14.453 14.453c-7.973 0-14.462-6.49-14.462-14.453s6.489-14.462 14.462-14.462m0 2.613a1.636 1.636 0 0 0-1.644 1.644v8.596a3.147 3.147 0 1 0 4.32 4.32h7.155a1.64 1.64 0 1 0 0-3.28h-7.155a3.6 3.6 0 0 0-1.04-1.04v-8.596a1.636 1.636 0 0 0-1.636-1.644"/></svg>