<svg xmlns="http://www.w3.org/2000/svg" width="192" height="192" viewBox="0 0 192 192"><path d="m72.446 16-2.514 9.956 16.113 4.077-.862 3.423-16.113-4.071.862-3.429-2.038 8.06 9.872 2.498-.867 3.423-9.873-2.498-2.038 8.059.873-3.423 16.113 4.076-.868 3.423-16.118-4.076-3.209 12.69 10.766 2.723h28.708l8.942-35.367C91.97 17.888 72.445 16 72.445 16zM61.779 58.187l-.69 2.723h.005zm86.24-23.189a84 84 0 0 0-5.953 4.95v.005q.095.123.21.245c.076.083.157.16.245.24.098.09.214.18.324.267.088.07.167.142.261.21.427.305.917.591 1.422.851l.016-.02.005.005c1.02.49 2.072.945 2.91.972.285-2.435.503-5.08.56-7.725m-13.453 12.543-5.968 13.369h13.655l3.429-7.683c-1.547.444-3.976-.399-6.261-1.495l-.016-.005-.01-.005c-2.266-1.086-4.274-2.673-4.83-4.18zm-70.744 2.592 9.867 2.493-.867 3.424-9.868-2.493zm81.939 2.906v.01l.005-.01z" opacity=".4"/><path d="m69.93 25.955-.862 3.429 16.113 4.07.862-3.423zm-2.038 8.06-.868 3.422 9.873 2.499.867-3.424zm74.173 5.936c-4.394 3.983-7.526 7.505-7.526 7.505.51 1.534 2.547 3.158 4.855 4.265l.01.005.016.006c2.311 1.108 4.77 1.957 6.314 1.479 0 0 1.043-4.6 1.724-10.489-.839-.026-1.89-.483-2.91-.972l-.022.016c-1.008-.52-1.953-1.147-2.461-1.814zm-23.79 1.134-3.612 9.779 9.162 3.381 3.606-9.778zm-52.415.988-.873 3.423 16.118 4.077.867-3.423zm-2.039 8.06-.867 3.423 9.867 2.493.868-3.424zm-2.043 8.053-.862 3.423 16.113 4.077.867-3.423zm34.065 2.723L96 175.999c7.274-.054 52.408-20.886 56.257-25.029 3.852-4.14 8.56-90.061 8.56-90.061zm6.465 5.733h23.68v5.138h-23.68zm36.308 0h15.559l-.146 2.713c-.001 0-.287 5.175-.769 12.84l-5.127-.318c.27-4.32.48-7.847.612-10.097h-10.13zm8.676 28.05 5.127.356c-.623 9.093-1.25 17.209-1.856 24.12l-5.121-.45c.602-6.88 1.225-14.964 1.85-24.026m-3.1 36.778 5.107.575c-1.537 13.657-2.543 14.74-3.277 15.528-.42.45-1.524 1.64-9.037 5.598l-2.398-4.547c5.488-2.889 7.11-4.069 7.541-4.432.242-.6.983-3.11 2.065-12.721zm-21.051 22.84 2.2 4.645c-8.697 4.115-17.102 7.704-22.473 9.59l-1.704-4.844c5.215-1.832 13.43-5.348 21.977-9.392z" opacity=".8"/><path d="M132.53 16.408c-1.278.01-10.371 7.297-13.327 15.308-1.004 2.721-1.866 6.476-.883 9.387l9.015 3.329c2.642-1.576 4.473-4.97 5.477-7.688 3.11-8.42.81-20.11-.224-20.331a.3.3 0 0 0-.058-.006zm-17.958 34.447c-.674.121-2.346 4.02-4.526 10.056h12.214c1.393-3.963 2.033-6.447 1.563-6.664l-9.162-3.381h-.005a.2.2 0 0 0-.068-.01h-.01zM31.18 60.911s5.132 86.49 8.556 91.043c3.422 4.559 48.989 24.097 56.262 24.046L95.84 60.91zm34.823 5.733h23.681v5.138H66.003zm-28.201.005h15.575v5.138H43.269c.137 2.25.366 5.767.653 10.076l-5.127.345c-.514-7.664-.826-12.841-.826-12.841zm6.982 27.705a1556 1556 0 0 0 1.903 24.031l-5.117.45c-.61-6.91-1.25-15.02-1.907-24.11zm3.141 36.794c1.114 10.18 1.804 12.727 2.044 13.348.297.28 1.686 1.432 6.956 4.244l-2.425 4.537c-7.31-3.903-8.286-5.202-8.702-5.755-.586-.78-1.466-1.952-2.979-15.81zM68.35 154.4c8.328 3.894 16.564 7.344 22.04 9.225l-1.667 4.86c-5.637-1.94-14.068-5.46-22.552-9.423z"/></svg>