<svg xmlns="http://www.w3.org/2000/svg" width="192" height="192" viewBox="0 0 192 192"><path d="M172.81 95.807C172.81 53.455 138.355 19 96.003 19S19.187 53.455 19.187 95.807c0 18.866 6.93 36.192 18.096 49.48 2.122 11.166 9.437 21.749 20.218 25.6 2.113.77 4.809 1.54 7.889 1.925l-16.556-58.326c-3.654 2.31-6.734 5.775-8.856 9.814a60.75 60.75 0 0 1-6.93-28.295c.385-34.652 28.492-62.758 62.955-62.758a62.767 62.767 0 0 1 62.758 62.75c0 11.354-3.08 21.946-8.47 31.187a25.4 25.4 0 0 0-10.978-13.091l-16.556 58.71c1.155-.187 2.31-.187 3.277-.384 12.124-1.343 21.364-11.551 24.83-22.716A76.75 76.75 0 0 0 172.81 95.8zm-113.72 12.09c4.081.111 8.368 3.286 9.566 7.735l12.706 45.244C83.869 170.304 77.323 173 70.008 173l-17.326-61.603a7.1 7.1 0 0 1 6.408-3.508zm70.553.034a7.19 7.19 0 0 1 6.391 2.507l-17.71 62.373c-6.931 0-13.092-1.925-10.397-11.747l12.706-45.433a10.95 10.95 0 0 1 9.01-7.7"/></svg>