<svg xmlns="http://www.w3.org/2000/svg" width="192" height="192" viewBox="0 0 192 192"><path d="M96 19c40.194 0 73.15 31.117 76.504 70.772h-47.808c-2.84-13.629-14.818-23.904-29.192-23.904-14.373 0-26.351 10.267-29.192 23.904H19.496C22.884 50.117 55.84 19 96 19m15.973 70.772a18.2 18.2 0 0 1 1.095 6.211h.034c-.05 9.629-7.622 17.721-17.565 17.727-9.754-.028-17.63-7.973-17.573-17.727h-.034c0-9.36 7.412-17.73 17.573-17.727a17.62 17.62 0 0 1 16.478 11.516M94.991 173c-40.195 0-72.142-31.108-75.496-70.772h47.808c2.85 13.63 14.827 23.904 29.2 23.904s26.351-10.267 29.192-23.904h46.808C169.133 141.84 136.201 173 96.007 173"/></svg>