<svg xmlns="http://www.w3.org/2000/svg" width="192" height="192" viewBox="0 0 192 192"><path d="M57.58 175.01c-2.32-1.32-3.536-3.248-4.104-6.536L33.528 36.944c-.526-3.471.621-3.554 1.685-4.642.76-.767 1.855-1.584 2.447-1.807 25.033-4.3 50.165-8.053 75.262-11.968 15.952-2.496 18.463-2.792 20.063-2.36a7.84 7.84 0 0 1 5.136 5.023c.984 3.44 21.023 133.2 20.783 134.56-.4 2.24-2.536 4.784-4.664 5.552l-93.589 14.696a8 8 0 0 1-3.072-.992m93.493-20.943-20.375-130.22L40.917 37.7l20.53 130.22m38.491-32.14c-15.056-1.16-28.375-11.337-34.479-26.336-2.847-7-3.375-17.559-1.272-25.375.864-3.224 3.96-9.943 5.8-12.632 8.713-12.649 24.96-19.727 39.343-17.12 6.76 1.216 13.104 5.008 13.104 7.84 0 1.216-4.016 9.696-4.952 10.432-1.28 1.024-3.087.96-6.207-.192-3.744-1.392-11.904-1.376-15.704.024-7.112 2.624-12.96 8.936-14.848 16.016-1 3.744-.92 9.792.176 13.32 3.08 9.928 12.56 17.015 22.75 17.015 4.577 0 10.993-2.216 14.24-4.912 1.88-1.568 3-2.056 4.697-2.056 1.36 0 1.903.408 4.943 3.728 3.76 4.096 4.344 5.16 3.896 6.96-.416 1.656-4.576 5.92-7.84 8.048-6.16 4-14.816 5.92-23.647 5.24m-1.096-28.567a13.28 13.28 0 0 1-6.471-6.112c-1.544-2.92-1.648-8.104-.224-11.2 2.144-4.664 6.56-7.52 11.72-7.544 11.36-.064 17.175 13.008 9.72 21.823-3.249 3.832-10.097 5.24-14.745 3.032m8.496-5.688c3.408-1.624 4.88-6.744 2.792-9.775-2.32-3.384-5.76-4.384-9.28-2.68-6.584 3.184-4.384 13.12 2.904 13.12 1.2 0 2.8-.296 3.584-.664M43.94 171.203a4.4 4.4 0 0 1-1.648-1.44c-1.077-1.653-11.152-68.12-11.152-68.582 0-1.28 2.368-3.36 3.84-3.36 1.632 0 3.44 1.416 3.768 2.96.688 3.2 10.296 65.518 10.296 66.758 0 2.608-2.8 4.624-5.104 3.672zm-14.104-13.096a4.8 4.8 0 0 1-1.096-1.856c-.56-2.4-5.968-37.831-5.976-39.2-.016-1.68 1.632-3.503 3.176-3.503 1.208 0 3.288 1.136 3.608 1.968.288.76 6.4 39.55 6.4 40.639 0 .368-.488 1.16-1.08 1.744-1.352 1.36-3.784 1.456-5.032.208m125.01-64.446a4.8 4.8 0 0 1-1.408-2.296c-.536-1.912-10.496-65.702-10.496-67.222 0-2.848 4.48-4.304 6.528-2.12 5.08 22.476 8.185 45.73 11.376 68.654.008 2.856-3.6 4.664-6 2.984m8.72-15.936a4.8 4.8 0 0 1-1.2-1.856c-.752-3.088-6.208-39.423-6-40.007.952-2.712 4.096-3.544 6.032-1.6.592.584 1.072 1.28 1.072 1.544 0 1.621 6.477 39.136 5.696 40.59-1.176 2.193-3.96 2.857-5.6 1.329"/></svg>