<svg xmlns="http://www.w3.org/2000/svg" width="192" height="192" viewBox="0 0 192 192"><path d="M125.5 31.333c1.263 0 2.45.753 3.132 2.005.931 1.708.469 3.873-1.24 4.65a2.9 2.9 0 0 1-1.293.302c-1.234 0-2.479-.753-3.049-2.01-.93-1.863-.468-3.88 1.086-4.65a3.3 3.3 0 0 1 1.364-.297M98.981 16c-3.274 0-7.206 2.266-7.723 7.408-.777 6.982 4.805 10.546 6.667 11.17 1.204.343 2.699.925 4.876.925 1.744 0 3.926-.374 6.755-1.549-.153 6.359-.153 21.092-.153 28.536 0 9.77.93 25.28-3.257 33.803-3.879 7.759-8.156 11.388-13.696 11.388q-.675 0-1.346-.07c-6.976-.932-9.46-7.445-6.976-19.539 2.48-12.1 4.496-24.194-5.741-33.186-3.91-3.428-9.057-5.694-15.125-5.694-9.574 0-21.436 5.63-34.35 21.2l13.804 16.75s4.087-6.086 9.976-6.086c1.976 0 4.158.688 6.46 2.52 9.152 7.29 2.793 22.179 1.862 30.708-1.085 11.008 1.708 19.852 6.05 26.828 5.582 8.992 18.607 16.436 32.563 19.076a143 143 0 0 1 3.102.462l1.548 15.35h10.546l1.394-15.042c24.194-1.862 58.306-25.588 43.11-65.287-6.957-18.25-21.786-45.44-21.863-45.589h.154c5.896-1.553 6.982-9.152.155-13.179l4.964-4.656-7.135-2.942 2.64-9.769-15.357 6.05s-3.873-8.06-9.77-8.221c-5.118 0-7.443 3.57-7.443 3.57s-1.24-3.718-4.81-4.65a6 6 0 0 0-1.88-.284z"/></svg>