<svg xmlns="http://www.w3.org/2000/svg" width="192" height="192" viewBox="0 0 192 192"><path d="M51.297 108.88H19V19.466h121.7v63.961h32.297v89.098h-121.7zm115.48-19.25H57.497v77h109.28zm-103.99 63.645 61.549-.325 1.198-6.973c1.523-8.812 1.565-19.293.094-24.058-1.651-5.356-1.737-5.416-5.03-3.482-3.594 2.105-5.776 5.304-6.717 9.847l-.736 3.568h-5.98l.376-2.635c.788-5.595 2.43-9.206 6.04-13.312 1.096-1.25 1.472-2.053.959-2.053-2.267.009-5.732 1.523-8.496 3.696l-3.054 2.42-1.968-2.035-1.968-2.028 2.593-2.344c4.123-3.722 8.752-5.561 14.057-5.561 4.363-.017 4.466-.052 3.661-1.275-1.59-2.43-5.912-5.21-8.769-5.638l-2.798-.42V97.64c0-3.516.291-3.628 5.587-2.053 3.662 1.086 5.219 1.967 9.154 5.124l2.653 2.114 2.558-2.319a20.1 20.1 0 0 1 10.318-4.962l2.643-.428v6.177l-2.746.41c-3.337.497-6.348 2.44-8.307 5.33l-1.455 2.157 4.235.42c6.331.615 10.583 2.412 14.955 6.322l1.403 1.257-1.95 2.02-1.96 2.019-3.482-2.43c-3.388-2.362-8.932-4.364-9.753-3.542-.23.222-.085 1.737.325 3.362 2.19 8.667 1.977 21.243-.496 30.158l-1.155 4.192h29.012v6.212H62.788zM51.305 83.427h83.194v-57.75H25.219v77h26.077zM37.633 62.928h37.875v6.203H37.633zm0-11.781h37.875v6.211H37.633zm65.193-18.018h24.837v24.212h-24.837zm18.625 5.578h-12.414v13.04h12.414z"/></svg>