<svg xmlns="http://www.w3.org/2000/svg" width="192" height="192" viewBox="0 0 192 192"><path fill-rule="evenodd" d="M86.496 25.823A38.4 38.4 0 0 1 96 24.743c3.36 0 6.744.352 9.504 1.08 18.84 4.928 36.817 22.881 55.225 54.929 7.84 13.64 12.4 24.241 14.384 33.553.528 2.464.84 6.352.88 10.16.048 3.824-.184 7.448-.672 9.44a33.1 33.1 0 0 1-7.84 14.12c-8.824 9.384-21.8 14.552-43.48 17.488l-1.657.24h-.04c-5.256.72-10 1.392-23.465 1.504a272 272 0 0 1-22.425-.848c-25.953-2.272-42.08-7.936-51.897-18.392-3.712-3.928-6.632-9.176-7.84-14.112-.48-1.992-.72-5.616-.672-9.44.04-3.808.344-7.696.88-10.16 1.992-9.296 6.768-20.384 14.608-34.001 18.264-31.681 36.273-49.577 55.001-54.481M59.261 80.728v-.016l.208-.664-3.248-1.536-.264.904c-2.144 7.448-2.264 12.608-1.096 16.136 1.184 3.584 3.664 5.392 6.4 6.16 2.688.768 5.6.528 7.8.128a24 24 0 0 0 3.52-.888l.216-.08.056-.016.024-.008.688-.264-.984-3.648-.816.288c-5.256 1.856-8.48 1.632-10.44.52s-2.912-3.232-3.256-5.784a25.6 25.6 0 0 1 .336-7.544 40 40 0 0 1 .784-3.44l.056-.2.016-.056m22.513-37.153c6.336 0 11.656 3.92 14.224 9.488 2.568-5.576 7.888-9.488 14.224-9.488 8.936 0 15.928 7.736 15.928 17.024 0 9.28-6.992 17.024-15.928 17.024-6.336 0-11.656-3.92-14.224-9.489-2.568 5.576-7.888 9.489-14.224 9.489-8.936 0-15.936-7.737-15.936-17.024 0-9.289 7-17.024 15.936-17.024m-9.088 7.104c2.424-2.608 5.696-4.064 9.088-4.064s6.664 1.456 9.088 4.072a14.96 14.96 0 0 1 2.809 15.288 14.4 14.4 0 0 1-2.8 4.536 12.8 12.8 0 0 1-4.185 3.024 12 12 0 0 1-9.824 0 12.8 12.8 0 0 1-4.176-3.024 14.4 14.4 0 0 1-2.816-4.536 15.2 15.2 0 0 1-.984-5.376c0-3.728 1.376-7.297 3.8-9.913m9.088 15.032a5.12 5.12 0 0 0 5.136-5.112 5.12 5.12 0 0 0-5.136-5.112 5.12 5.12 0 0 0-5.136 5.12 5.12 5.12 0 0 0 5.136 5.104m19.36-15.04c2.416-2.608 5.688-4.064 9.088-4.064s6.665 1.456 9.089 4.072 3.8 6.185 3.8 9.92c0 1.84-.344 3.665-1 5.369-.64 1.696-1.6 3.24-2.8 4.536a13 13 0 0 1-4.176 3.024 12 12 0 0 1-9.833 0 12.8 12.8 0 0 1-4.176-3.024 14.4 14.4 0 0 1-2.8-4.536 15.2 15.2 0 0 1-1-5.376c0-3.728 1.376-7.297 3.8-9.913m9.088 15.032a5.12 5.12 0 0 0 5.145-5.112 5.12 5.12 0 0 0-5.145-5.112 5.12 5.12 0 0 0-5.136 5.12 5.12 5.12 0 0 0 5.136 5.104"/></svg>