<svg xmlns="http://www.w3.org/2000/svg" width="192" height="192"><path d="M23.536 33.859v23.307h6.914v-7.888h7.402c7.239 0 9.803-3.278 9.803-7.628 0-4.317-2.5-7.79-9.966-7.79zm6.103 4.999h7.952c1.071 0 3.96 0 3.96 2.759 0 1.655-1.039 2.663-3.798 2.663H29.64zm90.905.843c-6.395 0-10.616 3.214-10.616 9.09 0 5.842 4.415 9.025 11.135 9.025 4.707 0 8.57-1.493 10.161-5.908l-5.776.052c-1.206 1.12-2.34 1.376-4.418 1.376-2.726 0-4.87-1.071-5.26-3.408h15.422v-1.331c0-6.363-4.74-8.896-10.647-8.896zm14.633 0v17.464h5.649v-5.42c0-4.707 2.175-7.272 6.426-7.272v-4.74l-.5-.001a7.9 7.9 0 0 0-3.5.807c-.422.208-.815.47-1.185.76v.002l-2.594 2.03v-3.619zm-73.828.033c-6.395 0-10.939 3.182-10.939 9.025 0 5.876 4.577 9.057 10.94 9.057 6.394 0 10.938-3.181 10.938-9.057 0-5.843-4.512-9.025-10.939-9.025m13.104.65 5.42 16.782h7.954l3.116-11.719h.325l3.117 11.72h7.952l5.422-16.783h-6.168l-3.31 11.62h-.293l-3.311-11.62h-7.142l-3.311 11.62h-.293l-3.31-11.62zm46.447 3.311c2.761 0 4.252 1.694 4.252 3.063h-9.024c.301-1.698 1.699-3.063 4.772-3.063m-59.616.52c3.084 0 5.194 1.72 5.194 4.544s-2.11 4.544-5.194 4.544c-2.987 0-5.064-1.72-5.064-4.544s2.077-4.544 5.064-4.544M23.228 67.001v46.464c0 19.36 14.796 26.805 35.942 26.805 21.145 0 35.938-7.445 35.938-26.805V67.001H76.444v44.08c0 10.127-6.552 13.104-17.274 13.104s-17.274-2.977-17.274-13.104v-44.08zm80.516 17.871v73.27h17.868v-24.92c3.476 4.269 10.225 6.95 17.97 6.95 16.184 0 29.188-9.73 29.188-27.8 0-17.771-13.004-27.5-29.188-27.5h-.95a27.05 27.05 0 0 0-17.23 6.2l-1.279 1.055v-7.254zm31.77 14.495c9.432 0 15.386 5.063 15.386 13.004 0 8.142-5.955 13.305-15.386 13.305-9.434 0-15.39-5.163-15.39-13.305 0-7.942 5.957-13.004 15.39-13.004"/><path d="M168.77 81.461c7.987 0 14.459-6.473 14.459-14.459s-6.473-14.459-14.459-14.459c-7.984 0-14.457 6.473-14.457 14.459s6.473 14.459 14.457 14.459" opacity=".6"/></svg>