<svg xmlns="http://www.w3.org/2000/svg" width="192" height="192" viewBox="0 0 192 192"><path d="M75.795 16c-20.333.008-40.12 5.7-57.304 18.642l5.468 27.414 8.904-6.86c28.92-21.781 71.13-17.852 95.419 8.23 24.469 26.276 28.66 64.438 4.651 95.732-1.76 2.516-3.91 4.977-6.283 7.405L151.438 176l1.31-1.64c31.064-40.49 25.845-93.552-6.19-127.95-18.652-20.03-44.62-30.416-70.764-30.406zm-5.188 60.889a42.22 42.22 0 0 0-42.218 42.218 42.22 42.22 0 0 0 42.218 42.218 42.22 42.22 0 0 0 39.735-27.953 17.8 17.8 0 0 1-7.725 1.76 17.84 17.84 0 0 1-17.838-17.838 17.84 17.84 0 0 1 17.838-17.838 17.8 17.8 0 0 1 5.86.989A42.22 42.22 0 0 0 70.608 76.89z"/></svg>