<svg width="192" height="192" version="1.1" viewBox="0 0 192 192" xmlns="http://www.w3.org/2000/svg"><path d="m144.46 89.208c-3.4975 2.8663-6.4626 4.4637-6.4626 4.4637l0.0405 9.0852c2.5001 2.7216 4.9666 4.9765 6.813 9.0852 3.5042-6.1532 2.8303-15.199-0.39085-22.634m-2.8438 29.741s-0.7143-3.7472-3.7536-7.2445l-6.9343 0.16443s-9.3468 7.8362-15.048 8.0202c0 0 3.1403 5.6996 4.7307 8.6777 3.1336-0.67056 8.6527-3.0832 10.877-5.6076 0 0 1.4691 4.6215 1.1928 10.078 3.1201-1.7618 7.4195-6.5477 8.9357-14.088m-8.9357-16.409-0.013-9.0524s-4.1444-1.2951-8.5651-4.6412c-8.8818 1.3082-19.637 10.025-19.637 10.025s3.6323 6.7252 7.6082 13.983c6.9882 0.95322 17.285-7.6587 20.607-10.315m23.687 37.695-5.7146-6.173c-1.6308 16.685-10.007 30.852-25.392 40.732l-2.3519-8.9998c-13.06 9.2036-35.473 15.173-54.726 4.5492 2.3923-11.899 4.515-23.956-0.04046-38.392-10.661 16.106-20.095 22.417-20.095 22.417-7.2038-11.8-6.5569-35.473-4.4072-42.442l-11.988 3.6223c0-7.9545 5.8696-24.83 14.374-34.31l-7.4869-1.1702h-0.0074c5.0878-10.144 12.683-18.887 21.975-25.454l0.01299-0.0074c-2.7899 4.2994-2.8303 14.91 5.3439 18.946-3.4705-5.9363-3.8883-13.273-0.26281-17.073 3.6255-3.8326 9.7242-2.5178 13.619 0.45361-1.1591-3.3133-4.5555-7.4812-9.6433-7.7639h-0.0074c9.6096-4.8253 20.52-7.5403 32.064-7.5403 2.1564 0 4.3062 0.09203 6.4087 0.27611 3.356 1.3148 8.2821 5.9297 10.58 8.8026 0 0 0.16165-3.3856-1.7656-7.4746 12.501 2.9714 18.465 7.9348 20.965 10.328 0.51216 5.2723 2.1295 8.4344 4.2657 13.444-4.0501-4.4243-14.226-11.564-19.085-13.273 0 0-0.39759 4.5689-2.0688 6.7646-9.677-6.8106-14.428-8.5265-14.428-8.5265-10.62 1.4857-17.454 5.4827-21.167 8.6251l3.2346 2.6887c-6.4019 1.9196-10.56 7.284-10.56 7.284 0.04714 0.09873 5.7213 0.8875 5.7213 0.8875s-0.57955 6.5017 7.7632 10.578c7.15 3.4908 17.427-0.84147 27.104 2.9451-6.3615-7.1656-10.762-10.367-10.762-10.367s-2.5271-0.51276-4.3061-0.49964c-2.2238 0.01299-5.5394 0.44047-9.1716-0.94007-1.7386-0.66397-3.767-1.8341-5.3574-2.8071 0 0 4.4679-4.4769 10.998-5.463 0 0 5.8898 1.6172 10.553 4.9831 3.0999-2.9451 6.3345-2.8531 6.3345-2.8531s-3.2077 2.9188-2.2373 6.4556c4.6566 4.0496 9.7107 9.8478 9.7107 9.8478 5.1485-2.7479 16.342-2.1168 18.64 0.48648-2.9112-3.688-7.1095-6.7646-10.358-9.3942-0.39758-1.3805-3.9422-6.1927-4.542-6.6397 0 0 3.3694 1.0124 6.3817 3.6486 0.86257-1.203 2.4799-2.4258 4.6835-2.9649 2.2642 1.8538 2.6686 4.7004 2.6079 5.1737-1.0176 1.1899-2.0284 1.6764-2.0284 1.6764l5.4585 5.7654 0.54585-4.135c12.575 17.52 19.428 37.794 10.614 63.281m-99.304-110.88c7.251 3.241 11.908 7.33 12.757 7.9545-0.38411-1.8276-1.8128-10.624-2.6349-16.087 4.2253 2.8597 14.03 9.4994 17.258 11.656 1.3141-3.951 5.8696-16.856 5.8696-16.856s8.2349 13.003 9.6433 15.114c1.7184-1.7553 11.557-12.438 14.104-15.14 0.42455 6.1467 1.0041 14.936 1.1524 16.257 0.49193-0.65082 4.259-5.8048 10.573-10.551-2.736 5.2592-4.0433 12.517-4.6229 18.348-6.2132-1.6895-12.77-2.5967-19.523-2.5967-12.972 0-25.156 3.3264-35.689 9.1707-1.9138-5.6339-4.9126-12.642-8.8886-17.27"/></svg>
