<svg xmlns="http://www.w3.org/2000/svg" width="192" height="192" viewBox="0 0 192 192"><path d="M144.46 89.208c-3.497 2.866-6.463 4.464-6.463 4.464l.04 9.085c2.501 2.721 4.968 4.976 6.814 9.085 3.504-6.153 2.83-15.199-.391-22.634m-2.844 29.741s-.714-3.747-3.753-7.244l-6.935.164s-9.346 7.836-15.048 8.02c0 0 3.14 5.7 4.731 8.678 3.134-.67 8.653-3.083 10.877-5.608 0 0 1.47 4.622 1.193 10.078 3.12-1.761 7.42-6.547 8.936-14.088m-8.936-16.409-.013-9.052s-4.145-1.295-8.565-4.641c-8.882 1.308-19.637 10.025-19.637 10.025s3.632 6.725 7.608 13.983c6.988.953 17.285-7.659 20.607-10.315m23.687 37.695-5.715-6.173c-1.63 16.685-10.007 30.852-25.392 40.732l-2.352-9c-13.06 9.204-35.473 15.173-54.726 4.55 2.393-11.9 4.515-23.957-.04-38.393-10.661 16.106-20.095 22.417-20.095 22.417-7.204-11.8-6.557-35.473-4.407-42.442l-11.988 3.622c0-7.954 5.87-24.83 14.374-34.31l-7.487-1.17h-.008c5.088-10.144 12.683-18.887 21.975-25.454l.013-.007c-2.79 4.3-2.83 14.91 5.344 18.946-3.47-5.936-3.888-13.273-.262-17.073 3.625-3.833 9.724-2.518 13.619.453-1.16-3.313-4.556-7.48-9.644-7.763h-.007c9.61-4.826 20.52-7.54 32.064-7.54 2.156 0 4.306.091 6.409.275 3.356 1.315 8.282 5.93 10.58 8.803 0 0 .161-3.386-1.766-7.475 12.501 2.972 18.465 7.935 20.965 10.328.512 5.273 2.13 8.435 4.266 13.444-4.05-4.424-14.226-11.564-19.085-13.273 0 0-.398 4.57-2.07 6.765-9.676-6.81-14.427-8.527-14.427-8.527-10.62 1.486-17.454 5.483-21.167 8.626l3.234 2.688c-6.401 1.92-10.56 7.284-10.56 7.284.048.099 5.722.888 5.722.888s-.58 6.501 7.763 10.578c7.15 3.49 17.427-.842 27.104 2.945-6.362-7.166-10.762-10.367-10.762-10.367s-2.527-.513-4.306-.5c-2.224.013-5.54.44-9.172-.94-1.738-.664-3.767-1.834-5.357-2.807 0 0 4.468-4.477 10.998-5.463 0 0 5.89 1.617 10.553 4.983 3.1-2.945 6.334-2.853 6.334-2.853s-3.207 2.919-2.237 6.456c4.657 4.05 9.71 9.847 9.71 9.847 5.15-2.747 16.343-2.116 18.64.487-2.91-3.688-7.109-6.765-10.357-9.394-.398-1.38-3.942-6.193-4.542-6.64 0 0 3.37 1.012 6.381 3.649.863-1.203 2.48-2.426 4.684-2.965 2.264 1.854 2.669 4.7 2.608 5.173-1.018 1.19-2.029 1.677-2.029 1.677l5.459 5.765.546-4.135c12.575 17.52 19.428 37.794 10.614 63.281M57.063 29.353c7.25 3.241 11.908 7.33 12.757 7.955-.384-1.828-1.813-10.624-2.635-16.087 4.225 2.86 14.03 9.5 17.258 11.656 1.314-3.951 5.87-16.856 5.87-16.856s8.234 13.003 9.643 15.114c1.718-1.756 11.557-12.438 14.104-15.14.424 6.146 1.004 14.936 1.152 16.257.492-.651 4.26-5.805 10.573-10.551-2.736 5.259-4.043 12.517-4.623 18.348a74.4 74.4 0 0 0-19.523-2.597c-12.972 0-25.156 3.326-35.689 9.17-1.913-5.633-4.912-12.641-8.888-17.27"/></svg>