<svg width="192" height="192" fill="none" xmlns="http://www.w3.org/2000/svg"><path d="m80.79 39.522-56.396 92.523a16.372 16.372 0 0 0-.27 16.584 16.471 16.471 0 0 0 6.056 6.125A16.575 16.575 0 0 0 38.513 157h114.974c2.929 0 5.805-.775 8.334-2.246a16.475 16.475 0 0 0 6.055-6.125 16.374 16.374 0 0 0 2.122-8.328 16.377 16.377 0 0 0-2.392-8.256l-56.395-92.523a17.757 17.757 0 0 0-6.483-6.245 17.857 17.857 0 0 0-17.456 0 17.752 17.752 0 0 0-6.483 6.245Z" stroke="#000" stroke-width="12" stroke-linecap="round" stroke-linejoin="round"/><path d="m116 49-19 56-62 13m63.833-12.524L160 121m-66-14-37 49" stroke="#000" stroke-width="12" stroke-linecap="round" stroke-linejoin="round"/></svg>