<svg width="192" height="192" fill="none" xmlns="http://www.w3.org/2000/svg"><path d="M25 31a6 6 0 0 1 6-6h130a6 6 0 0 1 6 6v130a6 6 0 0 1-6 6H31a6 6 0 0 1-6-6V31Z" stroke="#000" stroke-width="12" stroke-linecap="round" stroke-linejoin="round"/><path d="M133 115c0 35-5 52-13 52m13-102V51a6 6 0 0 1 6-6 6 6 0 0 0 6-6V25m-34 20H57m18 96H47" stroke="#000" stroke-width="12" stroke-linecap="round" stroke-linejoin="round"/><circle cx="106" cy="141" r="3" stroke="#000" stroke-width="6" stroke-linecap="round" stroke-linejoin="round"/><path d="M47 71a6 6 0 0 1 6-6h86a6 6 0 0 1 6 6v38a6 6 0 0 1-6 6H53a6 6 0 0 1-6-6V71Zm0 32H25" stroke="#000" stroke-width="12" stroke-linecap="round" stroke-linejoin="round"/></svg>