<svg width="192" height="192" fill="none" xmlns="http://www.w3.org/2000/svg"><path d="M122 118a48 48 0 0 0 0-96" stroke="#000" stroke-width="12" stroke-linecap="round" stroke-linejoin="round"/><path d="M122 84a13.998 13.998 0 0 0 14-14 13.998 13.998 0 0 0-14-14" stroke="#000" stroke-width="12" stroke-linecap="round" stroke-linejoin="round"/><path d="M122 84a51.998 51.998 0 0 0 45.775-27.33M22 170 49.907 40.928C52.297 29.883 62.066 22 73.365 22H122" stroke="#000" stroke-width="12" stroke-linecap="round" stroke-linejoin="round"/><path d="M122 56H86.649M122 22h-8.635c-11.3 0-21.07 7.883-23.457 18.928L86.647 56M22 170h20.635c11.3 0 21.07-7.883 23.458-18.928L80.594 84l6.054-28" stroke="#000" stroke-width="12" stroke-linecap="round" stroke-linejoin="round"/><path d="M122 118H73.243l3.676-17c2.145-9.92 10.92-17 21.069-17H122" stroke="#000" stroke-width="12" stroke-linecap="round" stroke-linejoin="round"/></svg>