<svg xmlns="http://www.w3.org/2000/svg" width="192" height="192" viewBox="0 0 192 192"><path d="M95.061 16.014c-10.982.3-20.163 5.27-26.521 10.057-4.547 3.44-13.568 12.828-18.139 18.924-10.017 13.33-16.458 28.988-18.969 46.054-1.155 7.804-.788 20.448.768 27.225 4.812 20.885 15.717 38.33 29.793 47.697 20.107 13.374 47.912 13.371 68.015 0 14.075-9.368 24.98-26.813 29.793-47.697 1.555-6.777 1.922-19.421.767-27.225-2.51-17.067-8.95-32.725-18.969-46.054-4.571-6.095-13.592-15.483-18.139-18.924-10.225-7.698-19.859-10.29-28.4-10.057zm.94 13.832c4.407 0 8.817 1.513 13.831 4.527 17.436 10.482 31.756 31.923 36.248 54.308 1.332 6.633 1.332 20.731 0 26.473-3.184 13.7-8.248 23.91-15.932 32.113-18.002 19.276-50.295 19.276-68.297 0-7.683-8.204-12.748-18.415-15.932-32.113-1.33-5.742-1.33-19.84 0-26.473 4.492-22.384 18.812-43.825 36.248-54.308 5.018-3.016 9.424-4.528 13.832-4.527zm24.698 88.047a8 8 0 0 0-3.289.62c-3.284 1.361-7.87 14.024-20.613 14.024-5.22 0-8.708 4.139-7.449 8.822 1.324 4.476 4.114 5.326 9.608 4.973 8.22-.393 14.925-3.497 21.293-9.88 6.488-6.497 8.478-11.365 6.224-15.19-1.246-2.106-3.406-3.298-5.773-3.369z"/></svg>