<svg xmlns="http://www.w3.org/2000/svg" width="192" height="192" viewBox="0 0 192 192"><path d="M32.891 34.345a56 56 0 0 0-2.784 3.696c-10.976 15.24-12.984 39.96-4.2 51.519.72.952 2.528 2.512 4 3.472l2.696 1.736-2.456.8c-6.008 1.944-11.136 6.424-13.04 11.392-1.552 4.024-1.464 9.92.216 14.896 2.408 7.12 7.152 13.648 13.176 18.136 7.248 5.408 14.416 7.624 21.208 6.568 5.064-.784 7.56-2.32 13.52-8.304 5.544-5.568 8.48-7.832 11.552-8.912 3.12-1.104 3.136-1.096 2.4 2.624-.84 4.152-.472 6.296 1.384 8.032 2.024 1.888 4.208 1.816 6.24-.216 1.224-1.224 1.704-2.296 2.36-5.224.576-2.592 1.2-4.112 2.128-5.144.72-.8 1.408-1.36 1.536-1.232s2.144 4.144 4.488 8.92c4.96 10.112 7.784 14.184 11.632 16.768 3.136 2.096 4.696 2.784 7.656 3.36 8.984 1.752 20.936-2.032 30.448-9.648 3.832-3.064 8.416-8.528 10.368-12.344 2.744-5.384 3.056-11.92.784-16.56-1.176-2.4-5.152-6.672-7.8-8.376-1.152-.744-1.144-.752 1.792-1.272 8.136-1.432 14.528-7.008 19.072-16.632 4.928-10.432 6.128-23.808 3.04-33.8l-.96-3.136h-5.808c-14.456 0-28.688 4.664-42.776 14.024-5.768 3.84-14.16 10.424-22.704 17.832-2.704 2.344-5.136 4.2-5.392 4.112-.864-.28-.776-3.04.16-4.856.504-.984 1.68-3.04 2.592-4.56 2.008-3.32 2.912-5.832 2.312-6.432-.264-.256-1.672 1.64-3.592 4.856-3.76 6.304-5.552 8.584-6.464 8.232-.36-.144-1.792-3.504-3.176-7.464-2.528-7.272-4.32-11.36-5.2-11.904-.76-.472-.608.112 1.824 6.8 2.28 6.264 3.576 11.36 3.256 12.808-.08.408-2.376-3.096-5.072-7.792-9.04-15.696-14.616-23.416-21.952-30.4a68 68 0 0 0-24.2-14.912c-2.28-.8-4.2-1.464-4.264-1.464"/></svg>