<svg xmlns="http://www.w3.org/2000/svg" width="192" height="192" viewBox="0 0 192 192"><path d="M16 145.65V46.343c0-9.147 7.413-16.551 16.551-16.551h31.04c3.138 0 6.187.996 8.711 2.844l10.382 7.636a14.78 14.78 0 0 0 8.711 2.844h68.053c9.138 0 16.551 7.414 16.551 16.56v85.973a16.533 16.533 0 0 1-16.55 16.551h-126.9a16.533 16.533 0 0 1-16.552-16.55m117.53 16.55h8.445V73.533c0-7.137-5.805-12.907-12.951-12.87l-62.667.355a12.8 12.8 0 0 1-7.538-2.373L44.86 48.707a12.9 12.9 0 0 0-7.467-2.382H15.997v8.444H35.18c2.667 0 5.28.836 7.467 2.382l13.956 9.92a12.82 12.82 0 0 0 7.529 2.382l56.444-.355a12.89 12.89 0 0 1 12.95 12.87z"/></svg>