<svg xmlns="http://www.w3.org/2000/svg" width="192" height="192" viewBox="0 0 192 192"><path d="M116.48 125.94v38.056h-14.712v-14.968a16 16 0 0 1 3.856-10.416zm25.56 22.248q-2.88 0-5.12-.984a8.8 8.8 0 0 1-3.536-2.752 6.88 6.88 0 0 1-1.32-4.056h5.6q.048.96.624 1.696.592.72 1.568 1.12a5.6 5.6 0 0 0 2.192.4q1.28 0 2.248-.456a3.7 3.7 0 0 0 1.528-1.24 3.2 3.2 0 0 0 .552-1.84 3.2 3.2 0 0 0-.592-1.864 3.76 3.76 0 0 0-1.664-1.28 6.4 6.4 0 0 0-2.568-.464h-2.456v-4.08h2.456a5.6 5.6 0 0 0 2.216-.44 3.6 3.6 0 0 0 1.52-1.2 3.2 3.2 0 0 0 .536-1.824 3.12 3.12 0 0 0-1.784-2.92 5.12 5.12 0 0 0-4.016-.016 3.6 3.6 0 0 0-1.504 1.152 3.2 3.2 0 0 0-.608 1.744h-5.328a6.88 6.88 0 0 1 1.304-4q1.256-1.736 3.384-2.72 2.144-.984 4.84-.984 2.72 0 4.768.992 2.04.984 3.168 2.664t1.128 3.752a5.12 5.12 0 0 1-1.376 3.68 6.24 6.24 0 0 1-3.576 1.88v.208q2.896.36 4.416 2.008 1.52 1.632 1.52 4.08a6.4 6.4 0 0 1-1.304 4q-1.296 1.744-3.584 2.744-2.28 1-5.232 1m25.544-26.648v26.296h-5.552v-21.024h-.16l-6.016 3.776v-4.928l6.504-4.12zm-151.58 26.456v-96h112a16 16 0 0 1 16 16v35.56h-11.52c-5.08 0-9.608 2.376-12.544 6.072l-.24.272-20.152 23.504a24 24 0 0 0-5.776 15.624v14.968H32.004a16 16 0 0 1-16-16m16-120a16 16 0 0 0-16 16h112a24 24 0 0 1 24 24v35.56h24v-59.56a16 16 0 0 0-16-16z"/></svg>