<svg xmlns="http://www.w3.org/2000/svg" width="192" height="192" viewBox="0 0 192 192"><path d="M95.957 19.043C53.445 19.019 18.976 53.488 19 96c-.024 42.512 34.445 76.981 76.957 76.957C138.495 172.871 172.914 138.452 173 96a77 77 0 0 0-8.384-34.864 1.77 1.77 0 0 0-2.379-.787 1.77 1.77 0 0 0-.795 2.378A73.9 73.9 0 0 1 169.382 96c.027 40.563-32.862 73.452-73.425 73.424-40.555.01-73.433-32.869-73.424-73.424 0-40.51 32.913-73.424 73.424-73.338a71.9 71.9 0 0 1 33.093 7.854 1.773 1.773 0 0 0 2.387-.795 1.77 1.77 0 0 0-.796-2.379 76.14 76.14 0 0 0-34.684-8.299M71.865 60.794l-19.413.343c-.444.007-.624.273-.624.71v64.252c0 .522.18.787.71.787h12.183c.436 0 .787-.437.702-.881v-20.123c1.232 0 2.121.085 2.737.085.53.094 1.583.094 3.08.094a40.2 40.2 0 0 0 14.125-2.122 20.53 20.53 0 0 0 10.061-7.588c2.473-3.525 3.713-7.94 3.713-13.321 0-2.824-.444-5.561-1.42-8.128a19.7 19.7 0 0 0-4.586-7.059 22.24 22.24 0 0 0-8.384-5.116 37.7 37.7 0 0 0-12.885-1.942zM73.15 72.96c2.156.035 4.312.47 6.39 1.24a9.2 9.2 0 0 1 4.415 3.534c1.061 1.677 1.592 3.62 1.506 5.561 0 2.738-.624 4.937-1.942 6.443-1.326 1.583-3.088 2.738-5.125 3.354a22.2 22.2 0 0 1-7.238 1.146H67.81c-.71 0-1.506 0-2.387-.086v-21.02c.445 0 1.326-.086 2.567-.086 1.232-.086 2.644-.086 4.226-.086q.463-.017.933-.008zm50.863 3.251a24 24 0 0 0-9.608 2.225c-2.652 1.24-4.945 3.268-6.528 5.732a14.55 14.55 0 0 0-.625 13.946c1.155 2.122 2.824 3.893 4.766 5.304 2.738 1.848 5.732 3.44 8.915 4.5 2.207.702 4.235 1.678 6.177 2.91a3.42 3.42 0 0 1 1.506 2.558 2.82 2.82 0 0 1-1.677 2.652c-1.65.678-3.43.979-5.21.881a34.2 34.2 0 0 1-7.324-.975 27.4 27.4 0 0 1-7.769-3.08c-.085-.18-.35-.18-.53-.094s-.257.35-.257.53v10.857c0 .522.257.967.702 1.232 2.028.967 4.15 1.591 6.357 2.028 2.737.53 5.646.795 8.47.795 3.884.086 7.674-.616 11.293-2.027 2.823-1.147 5.21-3.089 6.972-5.561 1.592-2.473 2.473-5.39 2.387-8.3 0-2.207-.53-4.414-1.505-6.442a15.4 15.4 0 0 0-4.937-5.201 42.8 42.8 0 0 0-9.625-4.595 28 28 0 0 1-4.415-2.027 7.7 7.7 0 0 1-2.113-1.677 2.57 2.57 0 0 1-.616-1.592c0-.53.171-1.146.522-1.676a3.25 3.25 0 0 1 1.95-1.232c1.233-.351 2.559-.445 3.79-.445 2.294 0 4.68.265 6.974.795a23 23 0 0 1 5.997 2.122c.265.086.53.086.975 0a.86.86 0 0 0 .257-.616V79.574c0-.257 0-.53-.086-.787-.085-.265-.342-.445-.616-.53a18.8 18.8 0 0 0-5.381-1.506 60 60 0 0 0-7.768-.53 26 26 0 0 0-1.42-.018z"/></svg>