<svg xmlns="http://www.w3.org/2000/svg" width="192" height="192" viewBox="0 0 192 192"><path d="M149.34 16H44.08a97.6 97.6 0 0 0-14.736 19.08l41.336-.024-16.624 134.4A86.8 86.8 0 0 0 77.28 176l3.8-39.864 3.336-3.008h52.816l13.88-13.136 11.56-87.224A96 96 0 0 0 149.336 16zm-20.584 88.12-3.344 3.008H87.756l-2.312-3.008 7.712-58.84 3.088-3.008h37.648l2.568 3.008zM149.34 16H44.08a97.6 97.6 0 0 0-14.736 19.08l41.336-.024-16.624 134.4A86.8 86.8 0 0 0 77.28 176l3.8-39.864 3.336-3.008h52.816l13.88-13.136 11.56-87.224A96 96 0 0 0 149.336 16zm-20.584 88.12-3.344 3.008H87.756l-2.312-3.008 7.712-58.84 3.088-3.008h37.648l2.568 3.008z"/></svg>