<svg xmlns="http://www.w3.org/2000/svg" width="192" height="192" viewBox="0 0 192 192"><path d="m58.928 66.832 5.392 5.328v25.736l-5.392 5.32h-9.192v21.952H39.6v-21.952h-1.16v-9.328h1.16V66.832zm-5.4 27.056V76.312h-4.376v17.576zm39.96-27.056v53.008l-5.328 5.328H73.144l-5.328-5.328V66.832h10.136v48.856h5.4V66.832zm25.152 0 5.32 5.328v19.904l-3.424 3.424 3.424 3.432v20.92l-5.32 5.328H98.592v-24.72H97.2v-9.84h1.392V66.832zm-5.544 9.48H108V90.68h5.104zm-5.104 39.376h5.104v-15.456H108zm40.248-48.856 5.32 5.328v12.608h-10.2V76.32h-5.608v39.376h5.608v-14.512h-3.28v-9.48h13.488v28.144l-5.32 5.328h-15.312l-5.32-5.328V72.16l5.32-5.328zM24.78 49.216a3.096 3.096 0 0 0-3.08 3.088v13.72h-5.696V75.4H21.7v41.92h-5.696v8.656H21.7v13.72a3.09 3.09 0 0 0 3.08 3.088h142.38a3.096 3.096 0 0 0 3.088-3.088V125.44h5.76v-8.664h-5.76v-42.6h5.76v-8.24h-5.76V52.304a3.096 3.096 0 0 0-3.088-3.08H24.78zm6 8.704h130.38v76.2H30.78z"/></svg>