<svg xmlns="http://www.w3.org/2000/svg" width="192" height="192" viewBox="0 0 192 192"><path d="M88.639 172.61a77.09 77.09 0 0 1-57.478-34.976c-6.716-10.353-11.704-25.111-11.858-35.079-.043-3.089.086-3.67 1.232-5.715a8.2 8.2 0 0 1 3.593-3.594l2.31-1.309h17.685c13.16 0 18.215.146 19.764.556 2.653.702 5.45 2.627 6.648 4.56.514.822 2.43 6.332 4.278 12.253 1.84 5.903 3.354 10.558 3.371 10.327.017-.24 3.174-15.29 7.033-33.445 6.999-32.983 7.016-33.017 8.36-34.223 1.137-1.027 1.608-1.181 2.891-.976.864.137 1.934.685 2.438 1.267.6.701 2.636 7.17 6.34 20.252l5.45 19.216h21.16l1.865-1.866c2.344-2.344 4.842-3.02 8.042-2.19a8.128 8.128 0 0 1 4.09 13.244c-3.363 3.833-8.248 4.081-12.012.616l-1.788-1.651-21.69-.265-2.3-1.284c-3.91-2.164-5.716-5.903-9.652-19.96-1.172-4.219-1.737-5.673-1.976-5.109-.18.428-3.388 15.264-7.119 32.94-6.374 30.16-6.861 32.221-7.914 33.128a3.936 3.936 0 0 1-5.099 0c-.924-.795-2.028-4.02-6.828-19.875-3.14-10.404-5.877-19.079-6.074-19.268-.197-.196-8.3-.214-18.02-.042l-17.658.316.077 3.62c.085 4.277 1.822 11.524 4.184 17.521a68.45 68.45 0 0 0 32.803 35.73c10.224 5.099 19.396 7.237 31.032 7.237 7.426 0 12.038-.581 18.583-2.352 20.448-5.519 37.928-21.501 45.799-41.881 5.518-14.288 5.903-31.194 1.026-45.86-3.456-10.386-8.658-18.711-16.769-26.864-9.839-9.89-20.38-15.794-33.453-18.754-33.505-7.58-67.942 11.07-79.629 43.13-1.54 4.21-2.524 5.261-4.936 5.261-1.523 0-2.02-.222-2.935-1.317-1.386-1.634-1.377-2.541 0-6.434 3.987-11.2 12.047-23.024 21.218-31.126 32.161-28.388 81.17-25.188 109.17 7.127 13.15 15.178 19.482 33.222 18.754 53.405-.257 7.076-.89 11.345-2.635 17.728-5.587 20.508-20.397 38.433-39.776 48.144-8.984 4.5-17.42 6.887-27.755 7.854a61.6 61.6 0 0 1-13.843-.026z"/></svg>