<svg width="192" height="192" fill="none" xmlns="http://www.w3.org/2000/svg"><path d="M76 145v25m22 0c7.336-.462 13.759-2.719 20.148-6.431A47.853 47.853 0 0 0 135.609 146 48.228 48.228 0 0 0 142 122a48.228 48.228 0 0 0-6.391-24l-43.3-76-33.546 59c-12.91 22.5-8.567 36.815-5.598 43.264C61.501 145 76.408 145 86.346 145c7.95 0 12.92 0 18.441-3.708 3.106-2.417 5.526-5.853 6.955-9.873 1.429-4.02 1.803-8.443 1.074-12.711-.728-4.268-2.527-8.188-5.167-11.264-2.641-3.077-6.006-5.172-9.668-6.021-3.663-.849-7.46-.413-10.91 1.252s-6.4 4.485-8.475 8.102c-1.513 2.639-2.512 5.616-2.941 8.723" stroke="#000" stroke-width="12" stroke-linecap="round" stroke-linejoin="round"/></svg>