<svg width="192" height="192" fill="none" xmlns="http://www.w3.org/2000/svg"><path d="M112.5 168.154A74.254 74.254 0 0 1 96 170c-40.87 0-74-33.131-74-74 0-40.87 33.13-74 74-74 40.869 0 74 33.13 74 74a74.22 74.22 0 0 1-1.962 17" stroke="#000" stroke-width="12" stroke-linecap="round" stroke-linejoin="round"/><path d="M136.5 66.672C127.414 54.146 112.658 46 96 46c-27.614 0-50 22.386-50 50 0 16.358 7.855 30.882 20 40.004M127 127l9-38 24 71-71-24 38-9Z" stroke="#000" stroke-width="12" stroke-linecap="round" stroke-linejoin="round"/></svg>