<svg xmlns="http://www.w3.org/2000/svg" width="192" height="192" viewBox="0 0 192 192"><path d="M61.942 167.71c-7.024-1.168-14.192-8-15.304-14.576-.256-1.536-.344-1.624-1.32-1.376-5.872 1.504-8.616 1.68-12.024.8-7.136-1.864-10.976-7.992-14.256-22.72-3.976-17.904-4.064-49.055-.184-67.159 2.664-12.416 6.416-19.056 12.384-21.92 3.048-1.464 8.512-1.832 12.424-.824 1.376.352 2.536.592 2.584.536a32 32 0 0 0 .552-2.032c.76-3.12 2.736-6.56 5.144-8.968 3.72-3.728 8.064-5.488 13.536-5.496 3.608 0 6.24.76 16.184 4.696 31.567 12.496 65.31 32.56 85.414 50.76 8.584 7.783 10.92 15.16 7.248 22.88-4.088 8.591-17.504 20.08-38.623 33.062-20.8 12.792-38.847 21.896-58.047 29.295-8.6 3.312-11.12 3.8-15.704 3.04zm8.912-47.583c2.104-.776 8.456-3.68 14.104-6.448 19.2-9.416 27.839-14.96 27.839-17.848 0-1.92-4.664-5.504-14.648-11.256-10.328-5.952-25.631-13-31.263-14.4-4.528-1.136-5.328 1.712-5.696 20.352-.32 15.92.488 27.6 2.088 30.12.824 1.303 3.016 1.151 7.576-.52"/></svg>