<svg xmlns="http://www.w3.org/2000/svg" width="192" height="192" viewBox="0 0 192 192"><path d="M172.37 99.628A76.37 76.37 0 0 1 95.998 176a76.37 76.37 0 0 1-76.372-76.372 76.37 76.37 0 0 1 76.372-76.372 76.37 76.37 0 0 1 76.372 76.372" opacity=".5"/><path d="M67.657 51.006c-1.36-1.824-1.52-3.736-.912-5.816 1.272-4.32 4.296-7.311 7.864-9.783 6.535-4.52 13.919-6.824 21.647-8.192 6.727-1.168 13.39-2.6 19.279-6.303 2.096-1.462 3.971-3.216 5.88-4.912.48 2.376.967 4.36 1.295 6.343.976 5.84.616 11.535-2.016 16.927-3.575 7.28-9.423 11.831-17.095 14.175-4.68 1.488-9.52 1.848-14.43 1.816-.353 0-.713.096-1.329.16l36.982 61.357c3.024 5.2 5.232 10.631 4.808 16.871a28 28 0 0 1-6.431 16.12c-6.208 7.639-14.271 12.054-23.887 13.774-9.072 1.6-17.711.592-25.743-4-9.04-5.127-14.815-14.455-13.455-25.567.88-7.32 4.52-13.359 9.879-18.335 5.72-5.263 12.519-8.48 20.087-9.943a36 36 0 0 1 16.703.456c.16.032.36-.032.848-.032"/></svg>