<svg xmlns="http://www.w3.org/2000/svg" width="192" height="192"><path d="m62.303 122.97-11.111 1.804-3.862-5.67c-2.113.515-4.189.773-6.156.773-3.461 0-6.74-.662-9.727-1.951-3.024-1.289-5.683-3.167-8.051-5.597a26 26 0 0 1-5.465-8.284c-1.275-3.092-1.93-6.406-1.93-9.904s.655-6.811 1.93-9.94c1.275-3.13 3.097-5.855 5.392-8.248 2.295-2.357 5.027-4.197 8.124-5.523 3.133-1.289 6.375-1.951 9.763-1.951s6.703.662 9.763 1.951a24.9 24.9 0 0 1 8.088 5.486 25.4 25.4 0 0 1 5.391 8.284c1.312 3.166 1.931 6.48 1.931 9.941 0 1.436-.109 2.761-.255 4.013-.182 1.252-.51 2.54-.91 3.83a23.5 23.5 0 0 1-3.389 6.921c-1.493 2.099-3.205 3.94-5.21 5.523zm-7.76-28.902c0-2.43-.582-4.713-1.785-6.811-1.202-2.136-2.841-3.793-4.918-5.045-2.076-1.215-4.299-1.84-6.703-1.84s-4.627.589-6.667 1.804a13.35 13.35 0 0 0-4.881 5.007c-1.239 2.135-1.822 4.418-1.822 6.848s.51 4.492 1.567 6.48a13.3 13.3 0 0 0 4.298 4.823c1.822 1.252 3.862 1.988 6.157 2.283l-4.007-5.89 11.148-1.879 3.023 4.492c1.421-1.252 2.514-2.761 3.352-4.565a13.5 13.5 0 0 0 1.275-5.744zm26.12-7.29v18.593c0 1.436.401 2.54 1.166 3.314.802.736 1.822 1.104 3.097 1.104q1.038 0 1.748-.22c.474-.148.911-.442 1.348-.847.765-.774 1.13-1.878 1.13-3.35V86.777h11.875v19.22c0 4.307-1.457 7.694-4.335 10.124-2.878 2.467-6.812 3.682-11.73 3.682-3.242 0-6.047-.552-8.488-1.62s-4.335-2.651-5.647-4.75c-.655-1.03-1.129-2.172-1.493-3.424a15.7 15.7 0 0 1-.51-4.013V86.778h11.803zm43.133-.405c3.352 0 6.23.773 8.561 2.356 2.332 1.547 4.117 3.645 5.32 6.186 1.238 2.54 1.82 5.265 1.82 8.21s-.582 5.56-1.785 8.064c-1.202 2.503-2.95 4.565-5.318 6.148-2.368 1.584-5.246 2.393-8.598 2.393-3.716 0-6.885-.92-9.472-2.687v2.025h-10.492v-51.84h10.492V88.95q1.585-1.161 3.716-1.878a12.5 12.5 0 0 1 2.405-.516c.91-.11 2.04-.184 3.388-.184zm-9.362 16.458c0 1.804.656 3.35 1.967 4.676s2.842 1.988 4.554 1.988 3.242-.662 4.554-1.988c1.275-1.325 1.93-2.872 1.93-4.64a6.6 6.6 0 0 0-.874-3.313c-.583-1.03-1.348-1.84-2.404-2.43a6.1 6.1 0 0 0-3.243-.92c-1.13 0-2.186.294-3.242.883-1.02.59-1.858 1.4-2.44 2.467-.584 1.068-.912 2.173-.912 3.314zm61.566.074c0 2.982-.655 5.78-1.93 8.357-1.276 2.615-3.243 4.676-5.866 6.296s-5.792 2.394-9.435 2.394-6.812-.774-9.435-2.357-4.627-3.682-5.975-6.333c-1.348-2.65-2.04-5.412-2.04-8.394s.692-5.707 2.004-8.321c1.348-2.614 3.315-4.75 5.938-6.37s5.792-2.43 9.472-2.43 6.812.81 9.435 2.393c2.587 1.62 4.554 3.72 5.865 6.333a18.9 18.9 0 0 1 1.931 8.395zm-23.824.073c0 1.804.655 3.35 1.967 4.676 1.311 1.326 2.841 1.988 4.517 1.988 1.822 0 3.352-.662 4.627-1.951s1.894-2.872 1.894-4.713c0-1.84-.62-3.46-1.858-4.75-1.275-1.288-2.805-1.914-4.663-1.914-1.13 0-2.186.295-3.206.884a6.23 6.23 0 0 0-2.404 2.467c-.583 1.067-.91 2.172-.91 3.313z"/></svg>