<svg xmlns="http://www.w3.org/2000/svg" width="192" height="192" viewBox="0 0 192 192"><path d="M17.351 42.175c-.746 0-1.351.605-1.351 1.351v51.882c0 .746.605 1.351 1.351 1.351h98.044l-.18 41.24c-.002.213.048.424.144.614l5.277 10.447.001.002.01.02h.001c.23.454.695.741 1.205.742h52.609c.745 0 1.35-.604 1.351-1.35L176 43.525a1.35 1.35 0 0 0-1.351-1.353zm4.43 2.703h148.3l-11.724 7.608H33.097zm151.51 1.139-.177 99.95-13.19-8.69.184-82.705zm-154.59.046 12.632 8.494v39.5H18.702zm15.334 9.125h123.37l-.181 81.465h-33.978l.145-41.24a1.35 1.35 0 0 0-1.35-1.356H34.035zm84.062 41.571h2.586l-.14 39.894h-2.621zm.664 42.597h1.772l-.013 3.484zm4.474 0h34.931l11.787 7.766h-46.746z"/></svg>