<svg xmlns="http://www.w3.org/2000/svg" width="192" height="192" viewBox="0 0 192 192"><path d="M87.612 19.523c-39.667 4.543-65.058 35.966-68.238 70.34-4.21 38.44 27.442 83.041 76.699 83.041 8.862.307 17.477-1.5 25.854-4.256 1.932-.684 3.991-1.735 4.573-2.36a4.27 4.27 0 0 0 1.06-2.615c0-1.273-1.086-2.564-8.103-9.657-4.461-4.513-8.786-8.487-9.607-8.838-1.282-.555-2.188-.538-6.35.094-3.31.516-6.665.676-10.008.479-25.88-1.602-46.94-22.34-46.99-49.418-.102-27.628 21.21-49.742 49.332-49.785 38.005-.126 47.801 34.686 48.606 37.82 3.145 12.245-.591 22.472.7 25.52.36.821 4.334 5.129 8.847 9.599 7.094 7.025 8.376 8.102 9.65 8.102a4.27 4.27 0 0 0 2.615-1.051c3.17-2.953 8.75-25.464 6.017-41.717-10.001-56.017-58.393-65.736-76.998-65.759M123.57 100.3c-.513.23-6 5.504-12.188 11.709-10.496 10.538-11.265 11.419-11.265 12.991 0 1.496.512 2.188 4.914 6.615 2.692 2.718 5.393 5.06 5.983 5.214.598.154 2.025-.086 3.18-.53a43 43 0 0 0 5.726-3.162 60 60 0 0 0 6.871-5.487 51.3 51.3 0 0 0 5.932-7.163c1.496-2.23 3.077-5.025 3.538-6.213.445-1.197.693-2.65.539-3.231-.146-.598-2.445-3.23-5.094-5.872-2.692-2.666-5.368-4.897-6.017-5.042a4.3 4.3 0 0 0-2.12.17m17.478 17.539-2.914 4.812q-2.274 3.76-7.248 8.692c-3.658 3.632-6.154 5.64-9.436 7.572-2.82 1.658-4.495 2.966-4.59 3.521-.093.633 2.539 3.556 8.718 9.71 8.103 8.05 9 8.811 10.504 8.811 1.257 0 2.539-.658 5.616-2.905a94 94 0 0 0 8.717-7.641c2.599-2.599 6.043-6.513 7.633-8.692 2.248-3.077 2.889-4.325 2.889-5.616 0-1.504-.718-2.384-8.787-10.487-4.846-4.863-9.17-8.846-9.623-8.846-.462 0-1.128.487-1.479 1.06m21.71 27.025c-1.625 2.256-5.394 6.547-8.377 9.538-2.991 2.983-7.265 6.752-9.538 8.376-2.71 1.94-4.103 3.257-4.103 3.846 0 .547.402 1 1.052 1.137.581.128 7.512 1.402 15.393 2.82 13.52 2.428 14.384 2.522 15.136 1.761.769-.76.666-1.615-1.77-15.145a1464 1464 0 0 0-2.82-15.384c-.128-.65-.572-1.06-1.12-1.06-.598 0-1.914 1.402-3.854 4.103"/></svg>