<svg width="192" height="192" fill="none" xmlns="http://www.w3.org/2000/svg"><path d="M134 170.003 96 96l74.003 38L144 144l-10 26.003Z" stroke="#000" stroke-width="12" stroke-linecap="round" stroke-linejoin="round"/><path d="M118.023 82.174C113.422 74.86 105.278 70 96 70c-14.36 0-26 11.64-26 26 0 9.278 4.86 17.422 12.174 22.023m26.164 50.953A74.548 74.548 0 0 1 96 170c-40.87 0-74-33.131-74-74 0-40.87 33.13-74 74-74 40.869 0 74 33.13 74 74 0 4.204-.351 8.325-1.024 12.338m-22.979-11.8c.002-.179.003-.358.003-.538 0-27.614-22.386-50-50-50S46 68.386 46 96s22.386 50 50 50c.18 0 .359-.001.538-.003" stroke="#000" stroke-width="12" stroke-linecap="round" stroke-linejoin="round"/></svg>