<svg xmlns="http://www.w3.org/2000/svg" width="192" height="192" viewBox="0 0 192 192"><path d="M101.64 155.39a17.6 17.6 0 0 1-7.04-4.208c-.896-1-1.816-1.2-5.344-1.2-2.56 0-4.672-.32-5.312-.784-1.264-.92-1.088-3.608.24-3.784a370 370 0 0 1 4.312-.496l3.416-.376v-4.272c.008-3.288.352-4.992 1.496-7.448.808-1.752 1.48-3.287 1.48-3.415s-4.768-.24-10.592-.24c-11.52 0-12.88-.328-12.504-3.008.2-1.424.336-1.456 7.336-1.816 3.92-.2 10.344-.4 14.272-.456 6.656-.08 7.368-.208 10.64-1.864 2.976-1.512 4.176-1.776 8.032-1.776 6.88 0 11.264 2.72 13.76 8.52 1.664 3.863 1.392 9.4-.664 13.775-3.984 8.48-15.68 14.864-23.528 12.848m-48.943-6.271c-1.136-1.368-.528-3.568 1.04-3.792 2.752-.392 4.28 2.784 1.944 4.032-1.544.832-2.136.784-2.984-.24m12.8-.072c-1.128-1.128-1.152-1.512-.176-2.848.616-.848 1.512-1 4.904-.856 3.816.16 4.16.288 4.344 1.552.32 2.288-.888 3.088-4.688 3.088-2.344 0-3.752-.304-4.384-.936m-7.12-39.2c-1.24-1.327-1.848-1.487-5.808-1.487-5.032 0-6.664-.776-6.344-3.008.192-1.376.512-1.488 5.816-2.048 6.4-.68 5.672.176 7.128-8.32.4-2.296.856-4.904 1.024-5.8.24-1.328.08-1.632-.864-1.632-1.544 0-2.64-1.4-2.4-3.096.16-1.056.736-1.48 2.576-1.872 1.312-.28 3.096-.88 3.96-1.344 1.32-.688 10.48-.824 55.487-.824 36.863 0 54.279.2 55.087.624 2.104 1.128 2.424 3.232 1.4 9.12-.52 2.976-1.36 7.824-1.856 10.768-1.016 5.984-1.792 7.56-4.552 9.24-1.84 1.12-3.424 1.16-55.591 1.16H59.745zm-24.992-2.423c-1.8-1.8-.472-4.088 2.16-3.72 1.576.224 2.184 2.424 1.04 3.8-.92 1.112-2.032 1.088-3.2-.08m-15.92-20.28c-1.456-.384-1.968-2.512-.88-3.608.72-.72 3.008-.968 10.64-1.2 8.64-.264 9.856-.184 10.752.72 1.264 1.256 1.288 2.352.08 3.56-.776.776-2.504.92-10.256.864-5.12-.04-9.776-.192-10.336-.336M117.28 71.4c-2.848-.416-7.52-2.944-7.52-4.08 0-.36-3.744-.6-9.664-.64-5.311-.024-11-.224-12.64-.44-2.528-.336-3-.6-3.167-1.8-.112-.776.096-1.704.456-2.064.4-.4 4.743-.776 11.2-.968l10.544-.32.096-4.088c.096-3.76 1.36-8.568 2.704-10.288.536-.688-1.072-1.072-6.368-1.52-1.384-.128-1.824-.48-1.984-1.608-.344-2.4 1.256-3.008 7.808-3.008 4.96 0 6.16-.192 7.575-1.2 4.784-3.408 12.8-4.176 17.648-1.68 9.736 5.008 10.424 18.432 1.4 27.216-5.255 5.12-11.68 7.424-18.08 6.488zm-64.247-5.44c-1.528-1.12-1.032-3.528.832-4.048 2.4-.664 18.4-.592 19.664.088.648.352 1.152 1.24 1.152 2.064s-.504 1.704-1.152 2.056c-1.76.944-19.176.8-20.496-.16m34.52-21.12c-1.273-1.408-1.24-2.064.16-3.328.903-.824 1.383-.896 2.375-.368 1.584.84 1.632 3.336.088 4.16-1.488.8-1.472.8-2.624-.464"/></svg>