<svg xmlns="http://www.w3.org/2000/svg" width="192" height="192" viewBox="0 0 192 192"><path d="M61.778 19a8.556 8.556 0 0 0-8.556 8.556v136.89A8.556 8.556 0 0 0 61.778 173h68.444a8.556 8.556 0 0 0 8.556-8.555V27.556A8.556 8.556 0 0 0 130.222 19zm-34.222 8.556c-4.663 0-8.556 3.892-8.556 8.555v119.78c0 4.663 3.893 8.556 8.556 8.556s8.556-3.893 8.556-8.556V36.111c0-4.663-3.893-8.555-8.556-8.555m136.89 0c-4.663 0-8.556 3.892-8.556 8.555v119.78c0 4.663 3.893 8.556 8.556 8.556s8.556-3.893 8.556-8.556V36.111c0-4.663-3.893-8.555-8.556-8.555M70.335 36.11h51.333v119.78H70.335z"/></svg>