<svg width="192" height="192" fill="none" xmlns="http://www.w3.org/2000/svg"><path d="m125.5 92-30.094 34.406a42.996 42.996 0 0 1-46.861 9.321A43.005 43.005 0 0 1 22 96a43 43 0 0 1 73.406-30.406l.594.595" stroke="#000" stroke-width="12" stroke-linecap="round" stroke-linejoin="round"/><path d="m66.5 100 30.094-34.406a43.002 43.002 0 0 1 66.158 6.517 43 43 0 0 1-66.158 54.295l-.594-.595" stroke="#000" stroke-width="12" stroke-linecap="round" stroke-linejoin="round"/><path d="M130 90a6 6 0 1 1 0 12 6 6 0 0 1 0-12Zm-68 0a6 6 0 1 1 0 12 6 6 0 0 1 0-12Z" stroke="#000" stroke-width="12" stroke-linecap="round" stroke-linejoin="round"/></svg>