<svg xmlns="http://www.w3.org/2000/svg" width="192" height="192" viewBox="0 0 192 192"><path d="M82.639 172.67a12 12 0 0 1-4.808-2.763c-2.567-2.396-3.577-4.715-4.586-10.533-.137-.812-.146-.82-.916-.684-4.278.727-11.439 1.01-14.254.556-7.23-1.163-11.747-5.612-13.433-13.262a47 47 0 0 1-.855-8.23c0-.848-.086-1.54-.171-1.54-.257 0-1.096.633-2.9 2.19-2.234 1.942-3.355 2.455-5.305 2.455-3.697.01-6.802-2.002-9.224-5.963a12.8 12.8 0 0 1-1.77-5.98c-.249-3.8.598-7.401 3.379-14.332l.924-2.31-1.523-.667c-1.754-.77-2.447-1.215-4.26-2.78-2.807-2.43-3.937-5.185-3.937-9.669-.017-2.678.257-4.286 1.267-7.392.641-2.002 2.798-6.588 4.072-8.65l.907-1.471-.385-1.173c-.539-1.676-.65-5.073-.214-7.015.66-2.944 2.499-6.46 5.596-10.695 3.012-4.09 2.738-3.534 2.515-5.194-.23-1.72.052-4.312.71-6.562.856-2.892.873-2.926 2.884-4.073 17.608-10.07 37.97-17.899 62.14-23.896 4.843-1.197 6.272-1.317 8.069-.65 1.12.428 2.19 1.335 2.695 2.31.402.796.29 3.294-.222 4.98-.522 1.702-2.216 5.03-3.637 7.187-1.66 2.49-4.14 5.475-8.65 10.387-.77.847-2.25 2.54-3.268 3.764-1.027 1.232-1.882 2.14-1.925 2.036-.145-.427 1.292-3.679 2.319-5.253 1.608-2.464 2.678-3.764 6.194-7.563 4.09-4.398 5.92-6.588 6.246-7.444a3.77 3.77 0 0 0-.941-3.893c-.839-.701-1.797-.813-5.117-.599-5.005.325-8.727 1.198-17.394 4.124a248 248 0 0 1-6.434 2.096c-.94.274-3.32 1.13-5.304 1.908a355 355 0 0 1-6.118 2.37c-1.394.522-2.823 1.07-3.165 1.224-.351.154-1.78.719-3.166 1.266a187 187 0 0 0-12.782 5.493c-3.927 1.848-9.078 4.62-10.267 5.501l-.548.411 1.24.856L51.275 63.96a982 982 0 0 1 5.92 4.107c.925.658 2.738 1.908 4.013 2.797l6.605 4.603c1.626 1.155 1.78 1.215 2.216.941.822-.539 3.885-1.634 6.118-2.19 1.625-.41 2.943-.573 5.279-.659q3.114-.12 3.114-.35c0-.471-.864-3.825-2.088-8.111-2.087-7.333-2.738-10.566-2.909-14.622-.11-2.353-.068-3.08.24-4.116.42-1.454 1.335-3.482 1.566-3.482.085 0 1.283 2.302 2.652 5.116l2.695 5.502c.18.36.154.36-.616.034a17 17 0 0 0-1.874-.727c-.188 0-.077 2.087.231 4.115.779 5.202 2.541 10.335 4.62 13.475 1.506 2.259 4.586 5.22 7.033 6.76.787.496.907.684 1.13 1.77.29 1.37.17 4.672-.206 5.63l-.23.599-.856-.77a21.4 21.4 0 0 0-8.804-4.483c-2.918-.719-7.52-.394-10.01.701l-.77.343 2.883 2.335C83.36 86.624 91.864 93.682 93.002 94.7c.522.48 1.566 1.386 2.319 2.028 1.617 1.369 5.073 4.449 6.117 5.441 1.882 1.789 6.562 4.903 7.358 4.903.325 0 .342.23-.616-8.975a719 719 0 0 0-2.224-18.481 804 804 0 0 1-2.944-25.146c-.137-1.532-.11-1.677.6-3.217a8.6 8.6 0 0 1 .863-1.626c.154 0 2.704 4.32 3.62 6.135 1.129 2.258 2.113 4.791 2.609 6.759.248.975.445 1.848.445 1.95s-.71-.41-1.583-1.129-1.626-1.283-1.668-1.232c-.094.103.71 7.238 1.565 13.92 1.712 13.356 3.38 26.771 3.602 29.098.291 2.943.3 2.952 2.174 3.149 2.224.23 6.314-1.37 8.401-3.286l1.113-1.018-.6-5.364c-.59-5.408-.975-8.385-4.662-35.883l-2.225-16.684a255 255 0 0 0-1.6-10.926c-1.12-6.845-1.172-7.461-.701-9.24a17 17 0 0 1 .787-2.38l.385-.863 1.814 3.2c2.045 3.602 3.054 5.578 3.824 7.469.565 1.403 1.284 4.064 1.138 4.21a8.6 8.6 0 0 1-1.6-1.079 17 17 0 0 0-1.642-1.163c-.086 0-.086 1.403-.01 3.114.12 2.823.6 6.733 2.679 21.81 3.867 28.028 5.279 38.842 5.279 40.365 0 3.32-1.284 7.016-3.123 8.967-1.746 1.873-4.227 3.38-7.572 4.603l-2.114.778.01 6.7c.008 7.272-.24 9.693-1.43 13.765-1.112 3.79-1.112 3.79-1.249-1.933-.17-7.315-1.266-18.481-1.84-18.771l-2.215-1.044c-3.49-1.609-5.826-3.337-10.353-7.632-7.828-7.426-11.867-11.037-15.092-13.518-4.654-3.568-5.878-4.021-3.422-1.283 4.868 5.475 7.016 10.087 7.016 15.075-.017 5.441-1.805 7.726-8.838 11.242a77 77 0 0 1-8.556 3.277c-7.735 2.618-9.027 3.097-11.756 4.406a43 43 0 0 0-6.802 4.2 43 43 0 0 0-4.056 4.142l-.599.795.112 2.687c.24 5.493 1.574 9.018 4.534 12.004 1.583 1.583 4.578 3.166 7.444 3.936 1.6.427 2.284.47 6.229.47 3.85-.009 4.68-.068 6.28-.47 2.857-.728 3.225-.924 3.61-1.985 1.78-4.886 2.652-7.119 3.414-8.727l.898-1.908-1.873-1.925c-1.027-1.061-1.874-2.037-1.874-2.165 0-.565.941-2.165 1.882-3.217l1.027-1.138 1.574.753.907-.744c1.395-1.147 4.552-4.304 5.715-5.716 1.096-1.334 2.524-3.465 2.388-3.55l-.66-.308c-.89-.385-1.428-1.43-1.428-2.807 0-1.762.539-3.32 1.48-4.26 1.343-1.344 2.584-.993 3.508.975.556 1.206.633 2.413.274 4.492-.231 1.317-.231 1.334.428 2.122q.641.787.65 1.471c0 1.592-.6 1.754-1.711.462l-.762-.881-3.251 3.337c-1.797 1.83-3.996 3.953-4.894 4.705l-1.634 1.386 1.48 1.532c.813.838 1.48 1.694 1.48 1.9 0 .504-.855 1.916-2.353 3.918a21.4 21.4 0 0 0-3.961 8.95 8.6 8.6 0 0 0-.145 1.326c.145.145 5.972-2.482 9.41-4.244 5.383-2.747 11.012-6.614 14.537-9.96l1.916-1.83-.616-1.66c-.958-2.601-2.139-5.296-4.457-10.173a376 376 0 0 1-3.072-6.605l-.924-2.096.342-1.729c.343-1.71 1.027-3.25 1.498-3.413.29-.094 7.914 8.384 7.76 8.641-.205.317-1.318.171-2.07-.265a2.6 2.6 0 0 0-1.164-.377c-.42.069-.41.103.111 1.66.29.864 1.232 3.003 2.08 4.749 1.873 3.816 2.395 5.304 2.677 7.64.77 6.357-3.474 12.38-12.954 18.352a103 103 0 0 1-14.57 7.101q-1.207.462-1.318.89c-.24.907-.112 3.072.29 4.62.779 3.063 2.088 5.108 3.987 6.22.822.488 1.224.582 2.465.574a5.13 5.13 0 0 0 2.909-.728c1.685-.855 4.508-2.934 6.1-4.491 1.506-1.472 3.302-3.534 6.845-7.872 3.516-4.295 5.313-6.211 7.34-7.854a94 94 0 0 0 1.626-1.335c.231-.248 2.284-1.642 3.474-2.353 2.224-1.334 5.792-3.054 10.25-4.928 5.321-2.241 5.219-2.199 8.402-3.739 2.036-.984 2.566-1.334 2.48-1.608a77 77 0 0 1-1.394-7.632c-.89-7.811 2.08-13.946 6.768-13.946 1.882 0 2.61.308 3.747 1.591 1.831 2.045 3.175 5.39 3.542 8.77.257 2.456-.573 5.895-2.156 8.907a23.1 23.1 0 0 1-4.072 5.09c-.822.685-.753.959.582 2.465 3.79 4.252 11.439 3.867 16.812-.856l.684-.599-.257-2.704a847 847 0 0 0-2.19-20.765l-2.105-16.684-5.732-45.406c-.59-4.585-1.027-8.7-.967-9.137.06-.436.445-1.54.872-2.421.6-1.258.813-1.558.976-1.318 2.592 3.876 5.416 10.361 6.211 14.288.12.599.086.659-.308.556a6 6 0 0 1-1.514-1.3l-1.061-1.198.128 2.113c.069 1.164.317 4.252.54 6.87l.632 7.393c.12 1.454.308 3.302.411 4.106.111.822.342 2.721.522 4.236l.856 7.067 5.279 43.934c.342 2.84.145 7.443-.428 10.07-.77 3.593-2.91 6.887-5.459 8.384-2.181 1.284-5.142 2.054-7.88 2.054-4.329.009-6.759-1.592-9.565-6.297-1.172-1.951-1.335-2.14-1.754-1.977-4.107 1.575-8.043 3.2-11.336 4.672-3.38 1.514-10.883 5.321-12.047 6.117-3.054 2.07-5.698 4.646-10.181 9.925-6.417 7.512-9.454 10.532-11.764 11.67a6 6 0 0 1-2.96.719 10.3 10.3 0 0 1-2.541-.231m-46.347-36.867c1.249-.625 2.087-1.352 5.587-4.877 7.64-7.675 10.695-9.472 25.873-15.272 7.563-2.884 10.917-4.484 14.75-7.033 2.412-1.609 2.36-1.343.88-4.45-2.609-5.45-7.152-10.403-16.375-17.838l-.958-.77-1.883 1.266c-2.618 1.78-6.502 4.963-9.617 7.906-2.772 2.61-5.227 4.92-7.186 6.733-5.545 5.16-10.661 8.71-15.178 10.524l-1.36.54-1.002 2.18a42.8 42.8 0 0 0-2.96 8.702c-.351 1.711-.428 2.627-.342 4.569.11 2.695.53 4.124 1.745 6.015 1.369 2.121 2.438 2.678 4.962 2.592a6 6 0 0 0 3.063-.787m-.88-7.623c-.788-.231-1.241-.856-1.575-2.19-.317-1.241 0-3.457.881-6.1.556-1.678 1.617-3.85 1.797-3.68.025.026-.171.881-.454 1.882a34 34 0 0 0-.701 3.166c-.3 2.096.222 4.406.984 4.406.308 0 1.514-1.24 1.54-1.582.008-.12.102.068.214.419.376 1.266-.377 3.191-1.455 3.679a2.6 2.6 0 0 1-.53.205zm13.8-8.436c-.188-.728-1.89-3.525-2.755-4.51-.599-.684-.77-.778-1.112-.598-.633.342-1.472.068-2.293-.753-.668-.676-.745-.873-.745-1.865 0-1.395.66-2.344 1.498-2.13.787.196 2.139 1.454 3.799 3.542 1.522 1.899 1.882 2.19 1.882 1.514 0-1.198.462-5.347.659-5.963.376-1.198 1.078-2.114 1.625-2.114.719 0 1.626.54 2.165 1.284.41.573.445.787.282 1.642-.256 1.267-.718 1.37-1.642.36-.377-.411-.839-.753-1.01-.753-.428 0-.744 1.488-1.018 4.757-.24 2.883-.496 4.389-.907 5.407-.291.702-.291.71-.428.18m18.67-13.193a26 26 0 0 0-2.516-2.01c-.154 0-1.438 1.565-2.9 3.533-.369.496-1.883-.47-3.962-2.499l-1.848-1.822.881-1.557c1.172-2.07 1.848-3.149 1.994-3.149.24 0 2.019 1.318 3.713 2.747 2.027 1.72 1.84 1.77 3.602-.873.864-1.283 1.223-1.66 1.608-1.66.351 0 1.232.727 3.012 2.481l2.515 2.482-.958 1.582c-.992 1.652-2.002 2.747-2.515 2.747-.171 0-1.352-.899-2.627-2.002m69.756 24.666a17 17 0 0 0 3.131-2.208c.967-.966 1.001-1.052 1.001-2.224 0-4.347-3.542-9.104-6.245-8.42-.882.215-2.533 1.969-2.807 2.97-.359 1.283-.282 3.388.197 5.373.41 1.72 2.122 5.707 2.447 5.707.086 0 1.112-.54 2.276-1.198m-48.186-11.311c.257-.727-.556-2.14-1.335-2.336-1.146-.3-.701 1.634.54 2.344.547.317.684.308.795 0zM31.46 106.538c4.09-2.25 7.384-4.62 12.432-8.95 2.541-2.181 3.277-2.866 9.497-8.804 2.327-2.216 5.03-4.765 6.023-5.664.993-.898 1.814-1.702 1.84-1.78.025-.076-6.1-4.816-13.621-10.54L33.967 60.405l-.377.47a69 69 0 0 0-4.278 6.606c-1.351 2.866-1.72 5.578-1.052 7.785.402 1.335.65 1.609 1.429 1.609.505 0 .873-.257 1.711-1.147 1.198-1.257 2.036-1.805 2.036-1.326 0 .556-.718 2.387-1.394 3.525a19.7 19.7 0 0 1-4.518 4.928q-1.591 1.25-1.985 2.122c-2.909 6.314-3.739 8.556-4.295 11.68a9.4 9.4 0 0 0-.085 3.806c.701 4.894 3.071 7.162 7.238 6.948a5.5 5.5 0 0 0 3.063-.873m2.344-13.989c5.664-5.63 8.162-8.393 9.583-10.626.342-.53.342-.556-.368-1.12-2.08-1.66-2.55-4.45-1.095-6.52q.718-1.018 2.335-1.318c.685-.137.856-.068 1.438.513l.659.66-.146 2.592-.154 2.6.676.728q1.48 1.591 1.489 3.251c0 1.24-.283 1.224-1.54-.103-.565-.581-1.138-1.052-1.3-1.052s-.788.779-1.412 1.737c-2.918 4.475-6.99 8.359-14.168 13.518a26 26 0 0 1-2.396 1.634c-.069 0 2.806-2.917 6.4-6.494m11.2-15.298c-.052-.719-.18-.958-.65-1.215-.676-.376-1.284-.128-1.387.565-.077.513 1.053 1.54 1.677 1.54.36 0 .411-.12.36-.89m62.902 92.745c-1.36-1.07-1.318-5.082.102-9.865.249-.847.53-1.54.634-1.54.256 0 .24.103-.368 3.217-.334 1.711-.488 3.063-.411 3.508.18.941.958 2.533 1.309 2.67.334.12.992-.54 1.6-1.626.248-.428.53-.796.633-.796.308 0-.077 1.95-.59 2.96-.959 1.883-1.823 2.328-2.91 1.472m-41.623-1.163c-.557-.6-.967-1.968-.967-3.235 0-1.728.95-5.518 1.386-5.518.085 0 .085 1.027 0 2.293-.171 2.55.017 3.311 1.018 4.235l.556.513.693-.667a3.4 3.4 0 0 1 .873-.676c.316 0-.103 1.78-.642 2.695-.496.847-.582.899-1.472.899-.752 0-1.06-.12-1.454-.54zm57.683-3.705c-1.232-2.593-2.336-3.79-3.85-4.193l-1.412-.367c-.53-.137-1.207-1.352-1.352-2.422-.145-1.044.334-2.507.813-2.507.684 0 2.558 1.181 3.414 2.165.513.582 1.48 1.993 2.156 3.131s1.266 2.045 1.3 2.002c.034-.042.197-1.445.36-3.131s.444-3.422.633-3.876c.479-1.138 1.334-1.976 2.019-1.976.813 0 1.933.83 2.395 1.762.377.779.377.822 0 1.523-.213.402-.453.727-.539.727a6 6 0 0 1-1.112-.744c-1.052-.804-1.9-.941-2.199-.368a26 26 0 0 0-.308 3.748c-.12 3.234-.59 5.912-1.129 6.46-.111.102-.616-.72-1.198-1.934zm12.526-4.809c-.745-.735-.959-1.933-.788-4.449.112-1.642 1.164-6.382 1.49-6.707.384-.385.341.376-.172 3.028-.342 1.789-.513 3.183-.428 3.628.171.941.95 2.524 1.3 2.652.334.137.993-.53 1.6-1.617.249-.427.54-.787.642-.787.325 0-.06 1.908-.59 2.943-1.018 1.994-1.968 2.396-3.054 1.31m-96.715-9.9c-1.3-.47-1.9-2.31-1.498-4.594.334-1.917.796-3.243 1.43-4.081.29-.385.564-.668.615-.616a8.6 8.6 0 0 1-.445 1.625c-.65 1.908-.684 3.44-.111 4.39.47.76.796.83 1.685.376.574-.3.6-.291.728.205.17.685-.317 1.823-1.036 2.396-.598.462-.812.513-1.368.308zm25.35-2.378c-1.762-3.055-3.002-4.227-4.474-4.227-.685 0-.856-.094-1.13-.624-.376-.728-.402-1.3-.102-2.387.188-.685.308-.788.83-.788.907 0 2.241 1.138 3.91 3.329 1.163 1.523 1.514 1.865 1.625 1.574.077-.197.154-1.412.171-2.687.026-3.867.685-6.023 1.831-6.023.702 0 1.84.702 2.387 1.463.334.47.377.727.231 1.24-.393 1.37-.444 1.387-1.71.471a6 6 0 0 0-1.404-.838c-.436-.01-.513.736-.29 3.37.23 2.91.016 5.477-.6 6.854l-.36.856zm-10.78-8.778c-1.009-.942-1.06-1.053-1.06-2.088 0-1.343.804-3.08 1.762-3.807a34 34 0 0 1 4.261-2.01 847 847 0 0 0 9.925-4.228c6.263-2.78 7.751-3.405 7.854-3.302.223.222-.376 1.326-1.163 2.139-.822.855-2.43 1.668-7.119 3.593-6.22 2.567-13.321 5.93-13.835 6.554-.154.18 0 .582.539 1.369.582.864.736 1.3.684 1.882-.085 1.095-.598 1.061-1.848-.102m34.266-1.891-.735-.745.145-1.625c.145-1.634.556-3.765.975-5.074.274-.838.72-.881 2.422-.24 1.454.54 2.566 1.49 3.08 2.619.855 1.873.188 3.585-2.02 5.202-.667.487-1.035.599-1.967.599-1.036 0-1.232-.069-1.9-.736m3.893-2.13a4.3 4.3 0 0 0 1.027-.736c.248-.403-2.053-2.422-3.037-2.67-1.053-.274-1.232-.085-1.318 1.42-.111 1.831-.017 2.32.488 2.533.667.274 1.796.06 2.84-.548m56.186-.735c-.77-.445-1.086-1.472-1.078-3.465.017-2.653.933-6.828 1.857-8.496l.334-.59-.129.632a33 33 0 0 1-.428 1.797c-.17.642-.359 1.942-.427 2.892-.163 2.053.128 3.303.984 4.32.496.582.667.668.975.48.205-.129.453-.53.547-.899.24-.924.582-.838.582.154 0 2.225-1.796 3.996-3.217 3.166zm-29.62-4.167c1.575-2.062 1.523-1.848.77-2.85-1.035-1.377-1.343-2.044-1.197-2.6.248-1.001 2.156-2.738 3.422-3.123.684-.214 1.13.376 1.13 1.472 0 .787-.07.94-.411.94-.231 0-.548-.196-.71-.427l-.3-.428-.881.462c-1.001.54-1.087.958-.385 1.78.693.804 2.173.915 4.124.325 1.796-.548 1.728-.54 1.728-.043 0 .727-1.078 1.711-2.824 2.584a17 17 0 0 0-2.566 1.54c-1.061.855-1.24.95-2.02 1.18l-.641.172zm47.562-3.56a359 359 0 0 1-.89-11.584c-.684-9.745-.932-11.978-2.737-24.915a6280 6280 0 0 1-3.063-22.074c-.488-3.542-1.019-6.691-1.181-6.999-.53-.992-.377-2.558.453-4.569.428-1.01.787-1.865.822-1.9.077-.076 4.355 7.154 5.03 8.505.993 1.994 2.31 6.238 1.951 6.238-.068 0-.813-.574-1.651-1.267-1.326-1.095-1.532-1.198-1.591-.83-.137.856.855 9.138 2.079 17.3 2.72 18.198 3.268 23.931 3.123 32.735-.086 5.39-.086 5.356-1.652 9.044l-.573 1.343zm-24.923-22.646-2.395-2.096-1.352 1.796a26 26 0 0 1-1.609 2.002c-.368.308-1.985-.701-3.662-2.284-2.156-2.036-2.139-1.9-.616-4.56l1.31-2.268.77.428c.41.24 1.642 1.18 2.737 2.096 1.113.941 2.097 1.626 2.26 1.557.162-.06.82-.915 1.462-1.899.65-.975 1.31-1.83 1.463-1.89s.565.025.89.196c.599.317 4.825 4.466 4.825 4.749 0 .085-.402.82-.89 1.66-.898 1.514-1.95 2.6-2.498 2.6-.17 0-1.369-.94-2.695-2.087m-28.43-3.226c.033-.941.624-1.497 3.362-3.148 3.422-2.054 6.091-3.465 6.245-3.311.06.06-.034.479-.222.932-.308.77-.599.976-4.706 3.234l-4.534 2.481q-.146.06-.146-.188m25.034-6.203a163 163 0 0 0-1.095-11.816c-.316-1.822-.941-4.534-1.044-4.534-.034 0-1.138.77-2.455 1.71s-3.055 2.037-3.876 2.44l-1.48.744 3.739-3.67 3.739-3.663-.3-2.43-1.172-9.497a436 436 0 0 0-3.919-26.823c-.547-2.994-.718-4.423-.624-5.219.137-1.198.684-2.755 1.352-3.85l.41-.684 1.669 3.028c2.772 5.048 4.603 9.412 5.03 12.004l.154.95-.598-.522a60 60 0 0 1-1.609-1.463c-.548-.522-1.044-.898-1.104-.838-.102.102 1.13 8.94 3.166 22.673.53 3.602 1.027 7.05 1.095 7.666.077.676.214 1.086.36 1.035.256-.086 1.625-1.822 2.027-2.567.214-.41.112-.684-.77-2.121-.89-1.43-1.026-1.806-1.026-2.764 0-.915.11-1.24.641-1.916.813-1.01 2.268-1.797 2.91-1.566.598.214 1.351 1.326 1.642 2.421.3 1.078.12 3.037-.394 4.569a5.1 5.1 0 0 0-.308 2.028q.154 1.454-.787.932c-.479-.256-.316-.41-2.635 2.49l-1.412 1.762.325 2.678c.924 7.718.488 14.391-1.214 18.395-.3.71-.308.685-.428-1.582zm5.356-29.175c.01-.753-.453-1.54-.967-1.668-1.172-.3-1.283.873-.17 1.976.804.804 1.137.719 1.137-.308m-43.643 30.775c-1.146-.693-1.437-1.506-1.412-3.91.018-1.617.163-2.558.582-3.961.514-1.737 1.378-3.842 1.515-3.705.034.034-.171 1.155-.445 2.481-.274 1.344-.496 2.91-.505 3.491 0 1.172.53 2.524 1.232 3.157.453.402.462.402 1.146-.265.813-.796.993-.83.993-.222a4.02 4.02 0 0 1-1.206 2.729c-.839.736-1.01.753-1.9.205m70.278-2.378c-1.591-1.626-1.677-5.442-.24-10.934l.42-1.583-.103 2.01a172 172 0 0 1-.222 3.714c-.154 1.967.214 3.593 1.044 4.62l.513.624 1.07-1.249.145.59c.085.326.094.933.026 1.344-.257 1.625-1.506 2.036-2.653.864m-26.078-.65c-.813-.813-1.035-2.037-.907-5.005.112-2.687.796-6.032 1.498-7.316.427-.804.419-.376-.086 2.208-.761 3.927-.48 6.331.89 7.589l.513.479.48-.847c.256-.462.573-.847.7-.847.369 0 0 2.31-.53 3.26-.402.735-.581.872-1.257.924-.6.05-.899-.052-1.3-.445m-28.552-9.326c-2.567-1.104-3.337-7.564-1.463-12.064.18-.428.377-.736.428-.685a17 17 0 0 1-.23 2.73c-.403 3.157-.3 4.543.418 5.766.462.796 1.523 1.771 1.703 1.575.034-.035.257-.522.496-1.078.24-.548.54-1.001.667-1.001.6 0 .822 1.985.394 3.405-.402 1.343-1.283 1.848-2.413 1.36zm-18.6-14.468c-2.139-2.96-3.508-4.021-5.193-4.021a2.6 2.6 0 0 1-1.147-.317c-.59-.41-.984-1.617-.804-2.447.137-.616.188-.642.916-.513q2.224.419 4.731 2.9c1.84 1.823 1.711 1.857 1.95-.676.24-2.558 1.181-4.894 2.225-5.544.514-.317 1.857.342 2.13 1.044.206.539.137 1.882-.102 2.113-.051.051-.513-.145-1.027-.445-2.027-1.19-2.139-.95-2.267 4.928l-.111 4.766zm-26.882.42c-2.267-4.441-3.208-5.494-4.91-5.494a2.05 2.05 0 0 1-1.472-.599c-.6-.547-.685-.761-.77-1.967-.103-1.66.214-2.14 1.292-1.943 1.642.291 3.054 1.626 5.373 5.048.427.633.71.899.77.71.051-.162.188-1.582.308-3.148.256-3.32.599-4.492 1.71-5.681.874-.958 1.507-1.087 2.55-.548 1.096.565 1.344 1.6.702 2.943l-.35.736-.822-.744c-.65-.582-.975-.727-1.497-.685-1.027.103-1.224.976-1.395 6.092-.128 3.67-.222 4.475-.582 5.28l-.428.949zm56.468-10.96c-1.497-.916-2.087-3.714-1.488-7.102.18-1.044.513-2.422.752-3.055l.428-1.163-.154 1.48c-.085.813-.154 2.378-.145 3.482.009 2.156.24 2.85 1.232 3.782.53.496.564.496.975.128.231-.214.428-.505.428-.641s.128-.377.3-.514c.256-.205.325-.128.444.505a3.42 3.42 0 0 1-.667 2.858c-.625.735-1.19.804-2.113.24zm-75.428-.54c-1.12-.941-1.403-3.2-.795-6.383.359-1.856 1.514-5.492 1.813-5.672.325-.205.206 1.591-.23 3.49-.548 2.388-.54 4.056.008 5.194.65 1.335.915 1.497 1.797 1.07.94-.445.94-.445.94.188 0 2.13-2.053 3.362-3.533 2.113m14.117-3.44c-1.283-.667-1.548-1.47-1.429-4.388a16.3 16.3 0 0 1 .77-4.715c.351-1.197.83-2.532 1.053-2.96l.41-.77v.95c.01.522-.188 1.762-.427 2.746-.6 2.439-.616 4.492-.035 5.613.702 1.343.967 1.48 1.823.95.855-.531 1-.343.719.94-.343 1.583-1.609 2.302-2.892 1.635zm43.695-7.896a2.4 2.4 0 0 1-1.591-1.968c-.154-1.027.214-4.038.667-5.45.377-1.155.514-1.198 2.481-.65a4.54 4.54 0 0 1 3.089 2.712c.599 1.797-.548 4.055-2.55 5.073-1.12.574-1.317.6-2.096.283m2.113-2.43c1.386-.548 1.66-1.54.685-2.439-.83-.77-1.386-1.018-2.336-1.018h-.838l-.103 1.532c-.086 1.335-.051 1.574.317 1.9.522.461 1.172.47 2.275.025m-21.715.607c-.71-1-1.095-2.507-1.095-4.295 0-1.745.454-4.192.984-5.347.283-.599.291-.513.137 1.146a51 51 0 0 0-.171 3.534c0 1.686.017 1.754.702 2.43l.693.684.641-.787c.719-.89 1.027-.864 1.027.069a3.42 3.42 0 0 1-1.258 2.566c-.855.728-1.146.728-1.66 0M52.237 32.59c1.026-1.822 1.514-2.139 7.058-4.577 4.415-1.95 23.503-9.129 23.708-8.924.154.154-.599 1.155-1.548 2.07-.65.608-1.772 1.147-5.46 2.593-2.557 1.001-5.184 2.054-5.834 2.345a676 676 0 0 0-18.275 7.272c-.051 0 .103-.35.35-.787z"/></svg>