<svg xmlns="http://www.w3.org/2000/svg" width="192" height="192" viewBox="0 0 192 192"><path d="M123.94 19.662a1 1 0 0 0-1.015 1v6.716a1 1 0 0 0 1.015 1c3.938-.05 7.852.59 11.575 1.874h.031a38.17 38.17 0 0 1 26.57 34.912c-.06.843.93 1.03 1 .968h6.717a1 1 0 0 0 1-1.03c-.69-19.629-13.54-36.763-32.194-42.91a48.2 48.2 0 0 0-14.699-2.53m-.422 15.995a1 1 0 0 0-.984 1v6.56a1 1 0 0 0 1 1c12.226-.005 22.177 9.383 22.509 21.587a1 1 0 0 0 1 .968h6.388a1 1 0 0 0 1-1.015c-.184-12.996-8.615-24.439-20.978-28.445h-.016c-3.223-1.12-6.5-1.656-9.919-1.656zM74.455 39c-5.825-.142-11.316 3.507-13.215 9.34l-7.779 23.338c-6.128.035-12.387.368-14.01.53q-.105.014-.204.048a121 121 0 0 0-22.18 9.684 1 1 0 0 0-.376 1.36l3.28 5.826a1 1 0 0 0 1.36.39 191 191 0 0 1 18.79-9.247c1.914 0 6.565-.003 11.435-.39H66.27c.191 0 .2.015.265.03l-.015.063c-.922 1.728-3.076 2.978-7.186 3.67h-3.467a1 1 0 0 0-.203.017c-1.407.281-3.819.788-5.936 1.25-1.059.23-2.049.443-2.796.624-.374.09-.675.18-.922.25-1.237.154-1.403 1.625-2.077 2.406a84 84 0 0 1-2.328 3.858c-1.84 2.847-4.274 5.86-5.982 6.701a35 35 0 0 1-14.23 1.937 1 1 0 0 0-1.078.89l-.625 6.56a1 1 0 0 0 .922 1.094 45.75 45.75 0 0 0 18.635-2.608 1 1 0 0 0 .093-.048c.591-.281 1.084-.72 1.64-1.062l-8.747 26.023c-.816.085-1.685.208-2.983.516-1.633.387-3.564.91-5.42 1.421a371 371 0 0 0-7.123 2.046 1 1 0 0 0-.688 1.172l1.531 6.482a1 1 0 0 0 1.25.734s7.255-2.05 10.98-2.89c-1.885 6.912 1.67 14.233 8.576 16.48l41.347 13.996c7.132 2.333 14.848-1.517 17.26-8.623l.64-1.843a1 1 0 0 0-.64-1.28l-5.998-2a1 1 0 0 0-1.156.421l-1.203 1.922a1 1 0 0 0-.093.218 5.226 5.226 0 0 1-6.717 3.296l-.016-.016-41.597-13.996a5.3 5.3 0 0 1-3.358-6.732l5.03-14.402 45.689 15.277a1 1 0 0 0 1.265-.625l2-5.92a1 1 0 0 0-.626-1.265l-45.049-15.667 9.654-27.773c1.74-.406 3.778-.787 5.451-1.078a18.06 18.06 0 0 0 13.98-8.044 1 1 0 0 0 .047-.094 7.88 7.88 0 0 0 0-7.42l-.047-.062a11.22 11.22 0 0 0-6.842-4.827 1 1 0 0 0-.234-.03h-5.155l6.967-20.245a5.38 5.38 0 0 1 6.748-3.233v-.016l41.425 13.996.016.016a5.224 5.224 0 0 1 3.358 6.716L111.63 93.92a1 1 0 0 0 .625 1.266l5.904 2a1 1 0 0 0 1.265-.626l8.888-25.664c2.549-7.158-1.398-15.02-8.653-17.276h.03L78.5 39.702v.016a13.5 13.5 0 0 0-4.046-.719zm48.392 64.418c-14.688 7.058-21.329 21.35-20.369 35.068s9.543 26.938 25.071 31.88c19.044 6.49 39.795-3.55 46.502-22.523v-.016c6.53-19.142-3.914-39.936-23.165-46.127a36.87 36.87 0 0 0-28.038 1.718zm25.54 6.404c23.813 8.243 24.353 40.93 3.014 51.094a28.2 28.2 0 0 1-21.384 1.312H130c-14.445-5.012-22.118-20.714-17.198-35.192 5.482-15.197 21.822-21.83 35.583-17.214zm-7.264 5.373a21.6 21.6 0 0 0-5.124.641 20.95 20.95 0 0 0-14.76 13.87h-3.874a.68.68 0 0 0-.672.688v3.515a.68.68 0 0 0 .672.687h2.89a21 21 0 0 0 .062 3.593h-2.953a.68.68 0 0 0-.671.671v3.53a.68.68 0 0 0 .671.672h4.015a20.95 20.95 0 0 0 14.62 13.402c1.677.418 3.397.633 5.124.64a19.5 19.5 0 0 0 8.638-1.92l-2.483-7.998a11.7 11.7 0 0 1-6.155 2.155 12 12 0 0 1-4.155-.718 12.88 12.88 0 0 1-6.966-5.561h9.2a.68.68 0 0 0 .687-.672v-3.53a.68.68 0 0 0-.687-.671h-10.934a13 13 0 0 1 0-3.593h10.934a.68.68 0 0 0 .687-.687v-3.515a.68.68 0 0 0-.687-.687h-9.2a12.88 12.88 0 0 1 6.966-5.561 12 12 0 0 1 4.155-.719c2.169-.02 4.3.564 6.155 1.687l2.483-7.997a19.5 19.5 0 0 0-8.638-1.922m-76.211 25.899c-2.126.035-4.278 1.175-5.327 3.623l-.015.032v.03c-1.081 3.077.566 6.469 3.655 7.514 3.09 1.073 6.493-.567 7.496-3.868s-1.093-6.101-3.732-7.003a6.1 6.1 0 0 0-2.077-.328"/></svg>