<svg width="192" height="192" fill="none" xmlns="http://www.w3.org/2000/svg"><path d="M67 109c0 14.912 12.984 27 29 27 2.414 0 4.758-.275 7-.792v34.442c-2.3.231-4.635.35-7 .35-35.898 0-65-27.311-65-61 0-3.756.362-7.432 1.054-11h37.454A25.338 25.338 0 0 0 67 109Zm58 0c0-14.912-12.984-27-29-27-2.413 0-4.758.275-7 .792V28a6 6 0 0 1 6-6h24a6 6 0 0 1 6 6v26.393C146.342 64.394 161 85.09 161 109a57.72 57.72 0 0 1-1.054 11h-37.454A25.336 25.336 0 0 0 125 109Z" stroke="#000" stroke-width="12" stroke-linecap="round" stroke-linejoin="round"/></svg>