<svg width="192" height="192" fill="none" xmlns="http://www.w3.org/2000/svg"><circle cx="96" cy="96" r="74" stroke="#000" stroke-width="12" stroke-linecap="round" stroke-linejoin="round"/><path d="M68 64v64m73-30v13m-40-13s4 31 24 31m-24-31a17.006 17.006 0 0 0 12.021-4.98 17.003 17.003 0 0 0 0-24.04A17.01 17.01 0 0 0 101 64" stroke="#000" stroke-width="12" stroke-linecap="round" stroke-linejoin="round"/><path d="M124 129a17.012 17.012 0 0 0 12.021-4.979A17.013 17.013 0 0 0 141 112M68 98h33M58 64h43" stroke="#000" stroke-width="12" stroke-linecap="round" stroke-linejoin="round"/></svg>