<svg width="192" height="192" fill="none" xmlns="http://www.w3.org/2000/svg"><path d="M22 31a6 6 0 0 1 6-6h10a6 6 0 0 1 6 6v10a6 6 0 0 1-6 6H28a6 6 0 0 1-6-6V31Zm0 120a6 6 0 0 1 6-6h10a6 6 0 0 1 6 6v10a6 6 0 0 1-6 6H28a6 6 0 0 1-6-6v-10Zm0-71a6 6 0 0 1 6-6h10a6 6 0 0 1 6 6v32a6 6 0 0 1-6 6H28a6 6 0 0 1-6-6V80Zm42 0a6 6 0 0 1 6-6h10a6 6 0 0 1 6 6v10a6 6 0 0 1-6 6H70a6 6 0 0 1-6-6V80Zm21 71a6 6 0 0 1 6-6h10a6 6 0 0 1 6 6v10a6 6 0 0 1-6 6H91a6 6 0 0 1-6-6v-10Zm21-71a6 6 0 0 1 6-6h10a6 6 0 0 1 6 6v10a6 6 0 0 1-6 6h-10a6 6 0 0 1-6-6V80Zm0-49a6 6 0 0 1 6-6h10a6 6 0 0 1 6 6v10a6 6 0 0 1-6 6h-10a6 6 0 0 1-6-6V31Zm42 32a6 6 0 0 1 6-6h10a6 6 0 0 1 6 6v10a6 6 0 0 1-6 6h-10a6 6 0 0 1-6-6V63Zm0 46a6 6 0 0 1 6-6h10a6 6 0 0 1 6 6v10a6 6 0 0 1-6 6h-10a6 6 0 0 1-6-6v-10Zm0 42a6 6 0 0 1 6-6h10a6 6 0 0 1 6 6v10a6 6 0 0 1-6 6h-10a6 6 0 0 1-6-6v-10Z" stroke="#000" stroke-width="12" stroke-linecap="round" stroke-linejoin="round"/></svg>