<svg xmlns="http://www.w3.org/2000/svg" width="192" height="192"><path d="M92.719 69.172c16.151-2.354 33.649-6.222 53.838 9.922C166.747 95.238 176 106.674 176 113.905s-7.907 11.1-24.732 11.1-94.385-8.41-113.06-11.605l37.182-1.682c.617 0 1.85-.403 1.85-2.018s-1.57-1.906-2.354-1.85l-51.483-4.54 54.51-3.868c.561-.056 1.683-.504 1.683-1.85 0-1.345-1.122-1.794-1.682-1.85L21.72 93.22l64.942-6.558c4.879-.336 6.191 5.28 25.573 16.312s28.6 13.341 30.789 13.117c.56-.056 1.38-.37.168-1.177-1.514-1.009-17.92-10.252-30.116-20.517C100.29 83.633 97.43 78.252 89.859 78.252c-3.904 0-50.361 3.868-73.86 5.718 20.19-4.148 63.799-12.915 76.72-14.799zm29.947 5.045c-8.917 0-14.806 2.018-13.628 4.036s8.917 12.108 23.386 14.126c11.195 1.562 21.367 1.514 22.376 0 1.01-1.513-.673-3.7-10.263-10.426-8.62-6.046-14.805-7.735-21.872-7.735z"/></svg>