<svg width="192" height="192" fill="none" xmlns="http://www.w3.org/2000/svg"><path d="M96 117a37.001 37.001 0 1 0-37 37m37-37v37" stroke="#000" stroke-width="12" stroke-linecap="round" stroke-linejoin="round"/><path d="M46 86c0 25 50 68 50 68m50-68c0 25-50 68-50 68" stroke="#000" stroke-width="12" stroke-linecap="round" stroke-linejoin="round"/><path d="M133 154a36.998 36.998 0 0 0 34.184-22.841 36.999 36.999 0 0 0-48.343-48.342A36.996 36.996 0 0 0 96 117" stroke="#000" stroke-width="12" stroke-linecap="round" stroke-linejoin="round"/><path d="M146 86a50 50 0 0 0-100 0m13 68h74" stroke="#000" stroke-width="12" stroke-linecap="round" stroke-linejoin="round"/></svg>