<svg xmlns="http://www.w3.org/2000/svg" width="192" height="192"><path d="M114.73 25.207a42.65 42.65 0 0 0-28.409 10.84A31.86 31.86 0 0 0 47.89 53.274c-17.816.723-31.886 15.377-31.886 33.207 0 18.356 14.88 33.236 33.235 33.236h93.53c18.355 0 33.235-14.88 33.235-33.235a33.235 33.235 0 0 0-20.353-30.639c-5.33-18.162-21.994-30.637-40.922-30.637zm-75.044 103.47a4.98 4.98 0 0 0-4.98 4.98v18.772a4.979 4.979 0 1 0 9.96 0v-18.773c0-2.75-2.23-4.98-4.98-4.979m37.607 0a4.98 4.98 0 0 0-4.98 4.98v18.772a4.979 4.979 0 1 0 9.96 0v-18.773c0-2.75-2.23-4.98-4.98-4.979m37.607 0a4.98 4.98 0 0 0-4.98 4.98v18.772a4.979 4.979 0 1 0 9.96 0v-18.773c0-2.75-2.23-4.98-4.98-4.979m37.608 0a4.98 4.98 0 0 0-4.98 4.98v18.772a4.979 4.979 0 1 0 9.96 0v-18.773c0-2.75-2.23-4.98-4.98-4.979m-94.019 9.387a4.98 4.98 0 0 0-4.98 4.979v18.773a4.979 4.979 0 1 0 9.96 0v-18.773a4.98 4.98 0 0 0-4.98-4.98m37.607 0a4.98 4.98 0 0 0-4.98 4.979v18.773a4.979 4.979 0 1 0 9.96 0v-18.773a4.98 4.98 0 0 0-4.98-4.98m37.608 0a4.98 4.98 0 0 0-4.98 4.979v18.773a4.979 4.979 0 1 0 9.96 0v-18.773a4.98 4.98 0 0 0-4.98-4.98"/></svg>