<svg xmlns="http://www.w3.org/2000/svg" width="192" height="192" viewBox="0 0 192 192"><path d="M50.58 16c-5.592 0-10.12 4.176-10.12 9.328s4.528 9.328 10.12 9.328c2.048 0 3.944-.568 5.536-1.528l15 13.52h-19.92a5.04 5.04 0 0 0-5.064 5.056c0 2.8 2.256 5.064 5.064 5.064h22.84a5.048 5.048 0 0 0 3.328-8.864L58.564 31a8.8 8.8 0 0 0 2.144-5.672c0-5.152-4.536-9.328-10.128-9.328m90.84 0c-5.592 0-10.12 4.176-10.12 9.328 0 2.056.76 4.048 2.12 5.672l-18.808 16.888c.048.032-1.704 1.288-1.704 3.816 0 2.8 2.256 5.064 5.064 5.064h22.832a5.06 5.06 0 0 0 5.064-5.064 5.04 5.04 0 0 0-5.064-5.064h-19.92l14.984-13.496c1.648.992 3.576 1.512 5.544 1.512 5.6 0 10.128-4.176 10.128-9.328S147.004 16 141.412 16zM96.004 28.16c-7.904 0-14.32 5.904-14.32 13.2s6.416 13.2 14.32 13.2c7.896 0 14.296-5.904 14.296-13.2s-6.4-13.2-14.296-13.2m-14.64 33.904a16.136 16.136 0 0 0-16.176 16.168V126c0 8.096 5.896 14.744 13.64 15.952v-18.736c0-8.536 7.664-15.4 17.176-15.4s17.168 6.864 17.168 15.4v18.736A16.11 16.11 0 0 0 126.812 126V78.24c0-8.96-7.208-16.176-16.168-16.176zm14.64 53.64a9.76 9.76 0 0 0-9.8 9.784v40.72a9.773 9.773 0 0 0 9.8 9.792 9.773 9.773 0 0 0 9.792-9.8v-40.72a9.76 9.76 0 0 0-9.792-9.768z"/></svg>