<svg xmlns="http://www.w3.org/2000/svg" width="192" height="192" viewBox="0 0 192 192"><path d="M50.312 53.4q-8.12 0-15.912 1.872c-7.792 1.872-10.184 3.12-14.968 5.616a5.36 5.36 0 0 0-2.576 2.328 6.7 6.7 0 0 0-.856 3.28v75.16q0 3.592 3.04 5.456c3.04 1.864 4.128 1.304 6.32.16a56 56 0 0 1 12.08-4.832 48 48 0 0 1 12.864-1.72A51.3 51.3 0 0 1 68.4 144a60 60 0 0 1 16.216 9.2 60 60 0 0 1 16.216-9.2 51.2 51.2 0 0 1 18.088-3.28q6.552 0 12.872 1.72a56 56 0 0 1 12.08 4.832 6 6 0 0 0 6.32-.16 6 6 0 0 0 3.04-5.456v-53.44h-43.104l-8.912-32.472a67.2 67.2 0 0 0-16.6 7.008 67.2 67.2 0 0 0-34.312-9.36zm0 21.824a54.4 54.4 0 0 1 21.832 4.368V90.2a50.4 50.4 0 0 0-10.456-4.128c-3.712-1-7.54-1.5-11.384-1.488q-4.208 0-8.024.704a45 45 0 0 0-7.568 2.112v-9.984a90 90 0 0 1 7.648-1.56 49.5 49.5 0 0 1 7.944-.632zm0 17.16a54.4 54.4 0 0 1 21.832 4.368v10.6a50.4 50.4 0 0 0-10.456-4.128c-3.712-1-7.54-1.5-11.384-1.488q-4.208 0-8.024.712a45 45 0 0 0-7.568 2.104V94.56A90 90 0 0 1 42.36 93a51.5 51.5 0 0 1 7.944-.624zm0 17.152a54.4 54.4 0 0 1 21.832 4.368v10.6a43.2 43.2 0 0 0-10.456-4.208 45.6 45.6 0 0 0-11.384-1.408 44.8 44.8 0 0 0-15.6 2.816v-9.984a93 93 0 0 1 7.656-1.552 49.5 49.5 0 0 1 7.944-.632z" opacity=".7"/><path d="M159.54 88.208h-49.4v-8.24h49.4zm0-12.352h-49.4v-8.24h49.4zm0-12.352h-49.4V55.28h49.4zm8.24 41.168q3.392 0 5.808-2.416t2.416-5.816v-49.4q0-3.4-2.416-5.816-2.416-2.424-5.816-2.424H101.9q-3.392 0-5.816 2.424-2.416 2.416-2.416 5.816v74.104l16.464-16.472z"/></svg>