<svg xmlns="http://www.w3.org/2000/svg" width="192" height="192" viewBox="0 0 192 192"><path d="M63.686 16a2.88 2.88 0 0 0-2.727 2.01L44.97 69.949c-8.586 16.767-7.783 36.469.143 52.006 10.87 21.306 35.926 36.339 63.787 29.717l-6.84 20.566c-.587 1.772.809 3.748 2.678 3.762h23.629a2.88 2.88 0 0 0 2.74-2.008l16.166-52.516.018-.05c5.246-10.78 6.977-22.947 5.18-34.354-3.936-24.972-25.118-48.21-56.437-48.211-4.353 0-8.671.499-12.867 1.467l6.84-20.55c.6-1.775-.803-3.765-2.678-3.779zm32.318 47.023A32.977 32.977 0 0 1 128.981 96a32.977 32.977 0 0 1-32.977 32.977A32.977 32.977 0 0 1 63.025 96a32.977 32.977 0 0 1 32.979-32.977"/></svg>