<svg width="192" height="192" fill="none" xmlns="http://www.w3.org/2000/svg"><path d="M61 88V30a6 6 0 0 0-6-6H41a6 6 0 0 0-6 6v58" stroke="#000" stroke-width="12" stroke-linecap="round" stroke-linejoin="round"/><path d="m26 84 22 12 22-12v48l-22-12-22 12V84Z" stroke="#000" stroke-width="12" stroke-linecap="round" stroke-linejoin="round"/><path d="M35 68h26" stroke="#000" stroke-width="10" stroke-linecap="round" stroke-linejoin="round"/><path d="M131 100v60m-61-52h16a6 6 0 0 1 6 6v26a6 6 0 0 0 6 6h33m-83-26v50" stroke="#000" stroke-width="12" stroke-linecap="round" stroke-linejoin="round"/><circle cx="131" cy="61" r="39" stroke="#000" stroke-width="12" stroke-linecap="round" stroke-linejoin="round"/></svg>