<svg width="192" height="192" fill="none" xmlns="http://www.w3.org/2000/svg"><path d="M152 87c-2 36-38 49-38 49" stroke="#000" stroke-width="12" stroke-linecap="round" stroke-linejoin="round"/><path d="M121 55c-13 3-28 11-28 11m0 0s-18.5-6-34-6m34 6c0 8-1 30-21 29S56 70 61 61" stroke="#000" stroke-width="10" stroke-linecap="round" stroke-linejoin="round"/><path d="M118 56c15 9 14 34.5 0 38S93 81 93 66" stroke="#000" stroke-width="10" stroke-linecap="round" stroke-linejoin="round"/><path d="M166.378 118.867a73.995 73.995 0 0 1-106.789 41.555A74.002 74.002 0 0 1 48.607 39.167a74.001 74.001 0 0 1 98.05 2.889" stroke="#000" stroke-width="12" stroke-linecap="round" stroke-linejoin="round"/><path d="M160.318 60.908a18.499 18.499 0 0 0 9.392 35.052" stroke="#000" stroke-width="12" stroke-linecap="round" stroke-linejoin="round"/><path d="M74.981 73.735c.534.143 1.43-1.471 2.002-3.605.571-2.134.602-3.98.069-4.123-.533-.143-1.43 1.471-2.001 3.605-.572 2.134-.603 3.98-.07 4.123Zm33.314-6.165c.799 2.072 1.762 3.497 2.152 3.183.389-.315.057-2.25-.742-4.323-.799-2.072-1.762-3.497-2.152-3.183-.389.315-.057 2.25.742 4.323Z" stroke="#000" stroke-width="8" stroke-linecap="round" stroke-linejoin="round"/></svg>