<svg xmlns="http://www.w3.org/2000/svg" width="192" height="192" viewBox="0 0 192 192"><path d="M167.49 56.987c-4-7.328-9.144-11.52-14.664-12.08-51.807-4.864-117.89 6.656-131.41 19.136-5.904 5.424-6.96 18.184-3.24 39.039 2.568 14.576 6.568 27.615 6.664 28.191l.856 2.856 16.48-1.808c3.311 22.86 37.066 20.339 36.943-2.76 0-.48 0-.864-.088-1.336l39.039-4.48c0 9.469 7.123 18.937 18.568 18.952 10.249-.009 18.558-8.31 18.576-18.56 0-1.528-.192-3.056-.576-4.48l16.664-1.904.864-1.816c6.664-13.712 4.376-42.375-4.672-58.943zM60.55 140.801c-6.192 0-11.24-5.048-11.24-11.24s5.048-11.24 11.24-11.24 11.24 5.048 11.24 11.24-5.048 11.24-11.24 11.24m75.999-5.336c-6.192 0-11.24-5.04-11.24-11.232s5.04-11.24 11.232-11.24 11.24 5.04 11.24 11.24-5.048 11.232-11.24 11.232m29.703-24.472-15.136 1.712a17.6 17.6 0 0 0-4.096-3.808 18 18 0 0 0-10.48-3.24c-5.712 0-10.952 2.672-14.28 6.768a32 32 0 0 0-2.96 3.904l-42.279 4.76c-.39-.896-1.015-1.657-1.52-2.48a18.72 18.72 0 0 0-14.952-7.616c-4.76 0-9.04 1.808-12.288 4.664a19.76 19.76 0 0 0-6.088 9.24l-11.24 1.24c-6-20.856-11.144-50.663-4.568-56.76 9.04-8.375 55.423-18.375 100.75-18.375 8.472 0 16.856.376 24.944 1.136 3.048.384 6.288 3.336 9.048 8.384 7.432 13.616 9.808 38.183 5.144 50.47M43.023 83.467a7.2 7.2 0 0 0-4.28-1.24 9.1 9.1 0 0 0-2.96.48 7.2 7.2 0 0 0-2 1.328v15.048h-6.28V76.794l6.288-.376v2.192l2-1.24c.664-.384 1.328-.664 2.184-.96a7.2 7.2 0 0 1 2.288-.376c.76 0 1.336 0 1.712.096.48.096.768.192 1.048.288zm17.904 2.48a6.4 6.4 0 0 0-1.904-3.816 4.96 4.96 0 0 0-3.52-1.24q-2.431 0-3.72 1.432a6.56 6.56 0 0 0-1.52 3.712h10.664zm5.904 2.943h-16.48c.384 1.808 1.056 3.144 2.104 3.904 1.04.768 2.376 1.24 3.904 1.24 1.232 0 2.568-.192 4.096-.568a11.2 11.2 0 0 0 3.52-1.432v5.616c-.856.576-2 1.048-3.712 1.336-1.624.288-2.96.48-3.904.48-3.904 0-7.048-1.048-9.24-3.24s-3.336-5.048-3.336-8.663 1.144-6.576 3.432-8.768c2.288-2.184 5.04-3.328 8.48-3.328s6.088 1.24 8.088 3.616 3.048 5.712 3.048 9.808m18 3.335v-9.807a4 4 0 0 0-1.712-1.144 7.2 7.2 0 0 0-2.576-.48c-1.712 0-3.04.48-3.808 1.52-.856 1.056-1.24 2.672-1.24 4.864 0 2.288.48 3.904 1.336 5.04.856 1.152 2.096 1.624 3.616 1.624a7.2 7.2 0 0 0 2.576-.48 4.8 4.8 0 0 0 1.808-1.136m6.191 6.855h-4.76l-1.335-2.096-3.336 1.808c-.38.21-.8.341-1.232.384-.576.096-.96.096-1.336.096-3.24 0-5.712-1.048-7.432-3.335q-2.568-3.288-2.568-8.28c0-3.624 1.04-6.48 3.04-8.576 2.104-2.096 4.768-3.144 8.103-3.144.952 0 1.808.096 2.568.192a5.6 5.6 0 0 1 2.096.856v-9.808h6.192zm21.328-10.096c0-1.616-.48-2.855-1.328-3.615a5.2 5.2 0 0 0-3.52-1.144h-4.383v9.52h4.952c1.424 0 2.568-.377 3.231-1.233.672-.768 1.048-2 1.048-3.52zm-1.144-12.096a4.16 4.16 0 0 0-1.136-3.04 4.24 4.24 0 0 0-3.143-1.143h-3.808v8.56h4.184q1.856 0 2.856-1.137c.768-.856 1.048-1.904 1.048-3.24m8.191 12.96c0 2.76-.856 5.04-2.664 6.664-1.808 1.712-4.096 2.48-6.856 2.48H96.262V67.266h13.328c2.48 0 4.568.664 6.096 2.096 1.616 1.424 2.376 3.336 2.376 5.808 0 2-.48 3.52-1.424 4.76-.96 1.24-2.384 1.904-4.288 2.192 1.904.288 3.52 1.144 4.96 2.48 1.424 1.328 2.088 3.04 2.088 5.232zm24.76 9.232h-6.288v-2.48l-2.664 1.528c-.76.384-1.52.76-2.288.952-.835.227-1.694.356-2.56.384-2.2 0-3.911-.672-5.247-2-1.232-1.336-1.904-3.144-1.904-5.432V76.89h6.287v13.72c0 .856.288 1.52.856 2.184s1.52.96 2.664.96a5.3 5.3 0 0 0 2.856-.672 5.6 5.6 0 0 0 1.816-1.336V76.801h6.28v22.28zm21.904-7.616a7.6 7.6 0 0 1-2.568 5.904 9.84 9.84 0 0 1-6.48 2.192c-1.24 0-2.664-.096-4.287-.384a16 16 0 0 1-4.472-1.432V92.13c1.04.568 2.192 1.048 3.52 1.52 1.336.384 2.767.672 4.575.672 1.24 0 2.192-.192 2.952-.48.76-.376 1.144-.952 1.144-1.904a1.76 1.76 0 0 0-.96-1.52c-.664-.384-1.712-.672-3.327-.76-2.856-.192-4.76-.96-5.904-2.096q-1.713-1.72-1.712-4.576c0-2.192.856-3.903 2.568-5.327s3.904-2.096 6.384-2.096c1.144 0 2.28.096 3.52.28s2.287.384 3.24.768v5.711a16 16 0 0 0-3.24-1.048 20 20 0 0 0-3.52-.384 5.3 5.3 0 0 0-2.384.48q-.856.56-.856 1.144c0 .856.384 1.424 1.24 1.616a7.2 7.2 0 0 0 2.568.48c2.664.184 4.76.856 6.095 2a6.64 6.64 0 0 1 1.904 4.856"/></svg>