<svg xmlns="http://www.w3.org/2000/svg" width="192" height="192" viewBox="0 0 192 192"><path d="M132.58 26.057a16.64 16.64 0 0 0-16.311 13.279 26.88 26.88 0 0 0-23.982 26.71v.08c-14.639.616-28.022 4.784-38.637 11.359a23.2 23.2 0 0 0-14.239-4.88 23.31 23.31 0 0 0-9.903 44.461c.768 27.086 30.278 48.877 66.588 48.877 36.294 0 65.852-21.815 66.588-48.925a23.326 23.326 0 1 0-24.214-39.573c-10.703-6.631-24.238-10.775-39.03-11.335v-.064a19.72 19.72 0 0 1 16.936-19.495 16.639 16.639 0 1 0 16.207-20.495M65.267 95.78c6.527 0 11.519 6.872 11.135 15.335s-5.264 11.535-11.807 11.535-12.263-3.44-11.871-11.903c.4-8.471 6.007-14.959 12.535-14.959zm61.66 0c6.535 0 12.15 6.496 12.535 14.96.384 8.463-5.336 11.91-11.871 11.91-6.528 0-11.415-3.064-11.807-11.535s4.591-15.327 11.135-15.327zm-30.83 33.422a232 232 0 0 1 23.054 1.12 1.84 1.84 0 0 1 1.527 2.536 26.64 26.64 0 0 1-24.582 16.359 26.64 26.64 0 0 1-24.59-16.359 1.84 1.84 0 0 1 1.528-2.536c7.184-.72 14.951-1.12 23.062-1.12"/></svg>