<svg xmlns="http://www.w3.org/2000/svg" width="192" height="192" viewBox="0 0 192 192"><path d="M23.67 16v8.797h8.86c2.743.04 5.696.513 7.984 2.265 2.28 1.76 3.995 4.807 4.203 10.391l.14 108.79c.016 5.856.313 10.76-2.015 14.504-1.168 1.872-2.986 3.128-5.922 4.232-3.516 1.334-8.287 1.624-13.25 1.624v9.392h65.097l-.035-9.39c-4.412 0-9.815-.195-13.996-1.625-3.008-1.04-4.71-2.475-5.75-4.235-2.056-3.544-1.355-8.692-1.531-14.5v-40.062h9c6.64.184 11.518 3.087 15.078 8.031l19 31.812v.016c13.2 19.344 18.998 22.503 26.078 26.36h.016l.031.016c7.419 3.358 18.375 4.03 29.97 3.328l1.703-6.735c-5.694-.935-9.66-4.293-13.891-7.828v-.016c-18.456-17.248-28.766-41.109-41.566-62.109 7.88-4.52 15.116-9.047 20.484-15.359 5.488-6.464 9.001-14.813 9.265-26.797v-.031c.936-21.4-17.734-40.859-43.406-40.875zm59.218 8.234a56 56 0 0 1 19.359 3.875l.031.016.016.015c9.296 4.808 15.07 15.533 15.453 27.125l.031 9.891v.016c-.584 12.592-6.045 20.873-12.766 25.953a35.76 35.76 0 0 1-20.28 7.078H67.45V32.61c.096-3.056 2.013-5.25 4.813-6.563 2.808-1.312 6.545-1.852 10.625-1.812z"/></svg>