<svg width="192" height="192" fill="none" xmlns="http://www.w3.org/2000/svg"><path d="M107 22H60c-11.046 0-20 8.954-20 20v109" stroke="#000" stroke-width="12" stroke-linecap="round" stroke-linejoin="round"/><path d="M103 57H84a6 6 0 0 0-6 6v12a6 6 0 0 0 6 6h19m0-24a12 12 0 0 1 0 24m-25 70a19 19 0 1 1-38 0" stroke="#000" stroke-width="12" stroke-linecap="round" stroke-linejoin="round"/><path d="M78 151v-29a6 6 0 0 1 6-6h3.18l32.179 45.892a19.06 19.06 0 0 0 26.521 4.669 18.994 18.994 0 0 0 4.676-26.483l-21.229-30.275a47.005 47.005 0 0 0 20.095-58.79 47.005 47.005 0 0 0-25.436-25.435A46.998 46.998 0 0 0 106 22" stroke="#000" stroke-width="12" stroke-linecap="round" stroke-linejoin="round"/></svg>