<svg xmlns="http://www.w3.org/2000/svg" width="192" height="192" viewBox="0 0 192 192"><path d="m53.638 128.44.2 7.965h9.478v6.284H47.835v-14.25zm22.301 2.257-.776 6.344 58.842 8.593 2.106-12.56 5.579 1.065-2.577 18.835-70.194-10.486 1.416-12.864zm51.207-44.362-2.642-5.811-5.811-2.642 5.811-2.641 2.642-5.812 2.642 5.812 5.803 2.641-5.811 2.642zm43.626-3.674c6.97.278 6.97-10.324 0-10.046-6.435.257-6.435 9.79 0 10.046m-106.01 7.845c5.267 1.753 8.325 6.203 8.661 12.632l.184 3.282H53.38c-.112.296.184 1.377.48 1.977l.137.24c1.24 2.546 4.426 3.906 7.764 3.338 2.21-.384 3.122-.832 4.539-2.241l1.057-1.04 2.113 1.664c1.153.929 2.425 1.921 2.802 2.218.688.536.632.624-1.457 2.721-3.146 3.13-4.74 3.947-10.134 3.979-4.067.008-4.683-.137-6.884-1.273a14.9 14.9 0 0 1-6.564-6.692c-.905-1.961-1.281-2.466-1.281-6.588 0-3.826.416-4.651 1.097-6.228 3.081-7.004 10.534-10.366 17.715-7.98m-7.99 6.611c-1.448.705-3.097 3.058-3.097 3.947h12.087a6.4 6.4 0 0 0-.68-1.945c-1.441-2.49-5.316-3.418-8.31-2.002m20.253 22.301h7.716l.08-9.39c.104-7.804.2-9.14.753-10.197 1.657-3.21 6.123-3.626 7.716-.705.304.56.489 3.643.617 10.246l.136 10.03h7.66v-9.19c.12-9.797.369-10.95 2.546-12.358 1.337-.849 3.642-.897 4.73-.088 1.69 1.232 1.922 2.61 2.082 12.255v9.39h7.34l.12-9.967c0-10.342-.272-12.463-1.92-15.209-3.187-5.323-10.67-6.067-15.01-1.497l-1.657 1.745-1.129-1.472a9.6 9.6 0 0 0-2.93-2.354 8 8 0 0 0-3.906-.864c-2.841.04-3.978.44-5.731 2.025l-1.481 1.329v-2.642h-7.733zm46.34 0h7.652l.168-28.913h-7.748l-.08 28.913m13.096 0h7.364l.08-9.03c.112-8.132.16-8.692.92-10.181 1.073-2.13 2.57-3.042 4.94-3.042 1.593 0 2.025.152 2.865 1.04 1.545 1.618 1.761 3.195 1.761 12.384v8.829h7.605l.064-8.189c.12-9.061-.272-13.112-1.521-15.8a10.1 10.1 0 0 0-5.363-5.092c-1.673-.608-5.235-.72-6.772-.232a8.8 8.8 0 0 0-3.586 2.177l-.96.945v-2.73h-7.397zm30.594 0h7.388V90.514h-7.388zM32.668 78.683c4.138.705 7.308 3.138 8.901 6.828.624 1.441.8 2.53.8 5.003 0 2.778-.112 3.362-1.008 5.083-1.097 2.098-2.257 3.186-4.86 4.58l-1.672.896 13.856 18.347h-9.438l-6.884-8.926c-5.62-7.332-6.636-8.5-7.468-8.5l-.96-.009v17.434h-7.926l-.008-40.656c.209-.6 13.328-.648 16.666-.08m-8.74 7.3v8.662h6.803a3.28 3.28 0 0 0 2.722-1.457c1.697-2.001 1.2-5.267-.969-6.38-.576-.288-2.61-.56-4.779-.664zm128.9-36.101-70.42-10.854-4.954 37.222 6.06.88 4.21-30.578c.16-.16 57.875 8.413 58.171 8.645l-2.345 21.061 5.74.865zm-78.799.104.209-6.484h-26.4V76.81h6.027l-.048-26.824z"/></svg>