<svg xmlns="http://www.w3.org/2000/svg" width="192" height="192"><path d="M35.211 152.74V39.27v36.271-3.85zm16.211-48.632h44.782q.405-4.458 2.026-8.51t4.053-7.7H51.422zm0 32.421h31.813q3.445-4.053 7.903-6.585 4.457-2.533 9.32-4.154-.81-1.216-1.418-2.635t-1.013-2.836H51.422zm0-64.842h81.053V55.476H51.422zM35.211 168.95q-6.687 0-11.449-4.762T19 152.74V39.27q0-6.687 4.762-11.449t11.449-4.762h113.47q6.687 0 11.449 4.762t4.762 11.45v52.278q-2.837-5.268-6.89-9.32-4.052-4.054-9.32-6.688V39.27H35.211v113.47h40.931q-.202 1.215-.304 2.43-.101 1.217-.101 2.432v11.347zm82.876-46.403q-5.876-5.876-5.876-14.387t5.876-14.387 14.387-5.876 14.387 5.876 5.876 14.387-5.876 14.387-14.387 5.876q-8.51 0-14.387-5.876M91.948 168.95v-11.347q0-4.863 2.533-9.017t7.193-5.978q7.295-3.04 15.096-4.559t15.704-1.52 15.704 1.52 15.096 4.56q4.66 1.823 7.194 5.977t2.533 9.017v11.347z"/></svg>