<svg xmlns="http://www.w3.org/2000/svg" width="192" height="192" viewBox="0 0 192 192"><path d="M105.53 16.075a12.64 12.64 0 0 0-7.52 3.608l-9.777 9.761-.048-.024a1.576 1.576 0 0 0-2.24 0l-7.185 7.2a1.56 1.56 0 0 0 0 2.225l25.954 25.962a1.576 1.576 0 0 0 2.24 0l2.657-2.657a48 48 0 0 1 6.136 1.969 48 48 0 0 1 4.112 1.864l.969.55a48 48 0 0 1 2.904 1.703l.88.576a48 48 0 0 1 6.728 5.553 80 80 0 0 1 6.209 7.072l.752.934.119.166.224.282.32.486q.64.959 1.271 1.991a48 48 0 0 1 2.28 4.128 57 57 0 0 1 1.857 4.297 48 48 0 0 1 1.472 4.448 52.4 52.4 0 0 1 .064 27.89l-.344 1.164a56 56 0 0 1-.592 1.856 48 48 0 0 1-1.304 3.425l-.087.217a51.92 51.92 0 0 1-34.922 29.642 52 52 0 0 1-16.065 1.424 56 56 0 0 1-2-.167 56 56 0 0 1-6.61-1.138l-1.816-.435a56 56 0 0 1-6.017-2.08 56 56 0 0 1-1.936-.819 56 56 0 0 1-5.872-3.232l-1.472-.934a56 56 0 0 1-4.48-3.44 56 56 0 0 1-2.337-2.055 56 56 0 0 1-2.56-2.625 56 56 0 0 1-3.376-4.16 56 56 0 0 1-1.576-2.28 56 56 0 0 1-2.849-4.92 56 56 0 0 1-1.12-2.377 56 56 0 0 1-2.16-5.705c-.24-.768-.424-1.544-.624-2.32a56 56 0 0 1-1.264-6.353l-.128-1.344a52 52 0 0 1-.264-7.249l.048-.755a52 52 0 0 1 1-7.809l.2-.882a56 56 0 0 1 .472-1.945q.184-.703.392-1.416a56 56 0 0 1 1.424-4.176q.263-.665.543-1.312a48 48 0 0 1 1.456-3.152l.512-.96a48 48 0 0 1 1.856-3.215l.328-.512a51.924 51.916 0 0 1 2.376-3.392l.295-.396a51.924 51.916 0 0 1 2.912-3.417 48 48 0 0 1 3.345-3.313q1.28-1.126 2.496-2.264l1-.92 13.69-12.577 7.736 7.736a776 776 0 0 0-19.05 18.697c-16.584 17.097-14.272 43.771 2.48 58.252l.065.05.144.165 2.065 1.612a40 40 0 0 0 11.105 6.177 40 40 0 0 0 13.28 2.28q.952.017 1.84-.048a40.051 40.043 0 0 0 14.874-3.656 40.56 40.56 0 0 0 20.577-21.889 40 40 0 0 0 2.12-7.384q.352-1.88.52-3.8a32 32 0 0 0 .128-3.84 40 40 0 0 0-.504-3.992v-.016a40 40 0 0 0-.248-1.953 40 40 0 0 0-.423-2.344 40 40 0 0 0-13.41-22.354 39.2 39.2 0 0 0-9.312-6.081 36 36 0 0 0-7.297-2.377l-.92-.112a40 40 0 0 0-4.751-.717l5.016-5.007a1.55 1.55 0 0 0 0-2.208l-26-26.031a1.52 1.52 0 0 0-2.185 0l-7.24 7.224a1.55 1.55 0 0 0 0 2.2l.208.205c-6.064 5.52-12.393 12.113-18.689 18.457a63.956 63.956 0 1 0 66.981-15.145l6.28-6.288a12.64 12.64 0 0 0 0-17.857l-8.016-8.017a12.64 12.64 0 0 0-10.33-3.6zM69.776 49.013l8.225 8.217L61.904 72a52 52 0 0 0-11.89 14.592v.016a56 56 0 0 0-2.688 5.609l-.048.112-.048.119a56 56 0 0 0-1.544 4.36l-.032.14a56 56 0 0 0-1.144 4.482l-.248 1.344a53 53 0 0 0-.831 8.048v.065l.016.37q-.032 2.08.096 4.16l.112 1.296a56 56 0 0 0 .32 2.953l.08.716.256 1.062c.312 1.712.664 3.44 1.152 5.12a56 56 0 0 0 1 3.088q.497 1.416 1.08 2.807a53.2 53.2 0 0 0 14.85 20.505 52 52 0 0 0 33.497 12.264q.944.008 1.92-.078a51.155 51.147 0 0 0 18.553-4.248 53.6 53.6 0 0 0 8.345-4.56 56 56 0 0 0 7.376-5.954 56 56 0 0 0 5.36-6.08q.56-.743 1.104-1.505a56 56 0 0 0 2.865-4.424q.631-1.075 1.216-2.169l.64-1.138.624-1.497q.44-.984.848-1.983a52 52 0 0 0 3.056-10.816q.128-.717.224-1.44a56 56 0 0 0 .391-2.528 56 56 0 0 0 .016-9.545 53.348 53.34 0 0 0-1.704-9.329 58.4 58.4 0 0 0-3.424-8.945 48 48 0 0 0-3.56-6.2l-.345-.499-.24-.332-.135-.166-.752-.934-.112-.12a53 53 0 0 0-5.481-6.288l-.672-.755a46.859 46.851 0 0 0-7.392-6.065 46.4 46.4 0 0 0-8.504-4.376 72 72 0 0 0-4.545-1.52l-1.216-.32 3.808-3.815a1.576 1.576 0 0 0 0-2.24l-.064-.04 2.96-2.96a63.268 63.268 0 0 1-26.72 122.71A63.284 63.284 0 0 1 51.077 67.45c6.313-6.352 12.657-12.937 18.697-18.433m17.113 17.17.216.166 7.985 7.969a1.52 1.52 0 0 0 2.192 0l1.408-1.392a36 36 0 0 1 5.809.64 39.2 39.2 0 0 1 16.8 8.296 38.131 38.123 0 0 1 3.033 2.896 42.4 42.4 0 0 1 8.136 12.64 40 40 0 0 1 2 6.232q.905 4.088.913 8.432v1.01c-.704 27.578-28.714 45.86-54.18 35.57a40 40 0 0 1-3.625-1.703q-.752-.384-1.472-.78l-.088-.065a40 40 0 0 1-5.632-4.064 40.411 40.403 0 0 1-9.2-11.84 39.44 39.44 0 0 1 4.44-42.66 40 40 0 0 1 2.496-2.88c.84-.857 1.704-1.753 2.656-2.712a750 750 0 0 1 5.408-5.36 821 821 0 0 1 10.705-10.394m8.28 18.553a27.362 27.362 0 0 0-24.17 38.42 27.36 27.36 0 0 0 24.987 16.24 27.32 27.32 0 0 0 27.362-26.29v-1.023a27.33 27.33 0 0 0-28.178-27.35m.016.679a26.64 26.64 0 0 1 27.482 26.674v1.01a26.64 26.64 0 0 1-26.682 25.626A26.642 26.642 0 0 1 76.2 94.195v-.025q.712-.78 1.504-1.48v-.016a26.64 26.64 0 0 1 17.481-7.264m-6.64 13.121-6.033 6.016 7.44 7.44-7.44 7.441 6.033 6.025 7.424-7.441 7.44 7.44 6.01-6.032-7.417-7.44 7.416-7.433-6.008-6.016-7.44 7.44z"/></svg>