<svg xmlns="http://www.w3.org/2000/svg" width="192" height="192" viewBox="0 0 192 192"><path d="M25.02 28.528c1.504-6.488 7.072-11.439 13.855-12.463 1.096-.112 3.768-.08 4.832.112 1.616.32 3.304.88 4.624 1.536.88.44 111.19 64.14 111.89 64.653 3.56 2.344 6.047 6.08 6.895 10.263.728 3.592.288 7.215-1.248 10.479a16.8 16.8 0 0 1-5.68 6.56c-.767.512-59.596 34.454-59.78 34.526l-12.495-21.551c6.043-4.235 18.212-15.17 17.655-34.27a38.4 38.4 0 0 0-2.04-11.8A40.8 40.8 0 0 0 92.857 60.08a40.8 40.8 0 0 0-20.343-10.151c-.468-.049-.928-.144-1.392-.216-1.976-.336-3.992-.336-20.56-.368H24.54V40.32c0-9.527 0-9.967.44-11.807zm-.48 84.18V66.126h11.223l26.903 46.582zm30.638-46.542c0 .072 24.191 41.854 24.231 41.854.144.08 1.648-1.208 2.712-2.272a23.52 23.52 0 0 0 6.56-13.487 32 32 0 0 0-.08-6.048 23.2 23.2 0 0 0-7.912-14.479 24 24 0 0 0-9.887-5.015c-2.384-.52-2.488-.56-9.272-.592h-6.344zm-9.16 63.333c21.624 0 22.72 0 24.816-.368l1.063-.08 13.775 23.647c-.184.216-36.942 21.367-37.71 21.735a16 16 0 0 1-6.375 1.536 13.6 13.6 0 0 1-4.48-.44 16.64 16.64 0 0 1-10.327-7.656 16.4 16.4 0 0 1-2.16-6.527l-.08-31.846h21.519z"/></svg>