<svg width="192" height="192" fill="none" xmlns="http://www.w3.org/2000/svg"><path d="M148 50a6 6 0 1 0 0-12 6 6 0 0 0 0 12ZM44 154a6 6 0 1 0 0-12 6 6 0 0 0 0 12Z" stroke="#000" stroke-width="12" stroke-linecap="round" stroke-linejoin="round"/><path d="M122 33a5 5 0 1 0 0-10 5 5 0 0 0 0 10Zm-94 94a5 5 0 1 0 0-10 5 5 0 0 0 0 10Zm136-52a5 5 0 1 0 0-10 5 5 0 0 0 0 10Zm-94 94a5 5 0 1 0 0-10 5 5 0 0 0 0 10Z" stroke="#000" stroke-width="10" stroke-linecap="round" stroke-linejoin="round"/><path d="M96 28a4 4 0 1 0 0-8 4 4 0 0 0 0 8ZM67 71a4 4 0 1 0 0-8 4 4 0 0 0 0 8Zm58 58a4 4 0 1 0 0-8 4 4 0 0 0 0 8ZM24 100a4 4 0 1 0 0-8 4 4 0 0 0 0 8Zm144 0a4 4 0 1 0 0-8 4 4 0 0 0 0 8Zm-72 72a4 4 0 1 0 0-8 4 4 0 0 0 0 8Z" stroke="#000" stroke-width="8" stroke-linecap="round" stroke-linejoin="round"/><path d="M163 127a3 3 0 1 0 0-6 3 3 0 0 0 0 6ZM68 32a3 3 0 1 0 0-6 3 3 0 0 0 0 6Zm56 134a3 3 0 1 0 0-6 3 3 0 0 0 0 6ZM29 71a3 3 0 1 0 0-6 3 3 0 0 0 0 6Zm119 80a3 3 0 1 0 0-6 3 3 0 0 0 0 6ZM55 89a3 3 0 1 0 0-6 3 3 0 0 0 0 6Zm51 51a3 3 0 1 0 0-6 3 3 0 0 0 0 6Zm-49-30a3 3 0 1 0 0-6 3 3 0 0 0 0 6Zm28 28a3 3 0 1 0 0-6 3 3 0 0 0 0 6Zm-18-10a3 3 0 1 0 0-6 3 3 0 0 0 0 6Zm19-70a3 3 0 1 0 0-6 3 3 0 0 0 0 6Zm51 51a3 3 0 1 0 0-6 3 3 0 0 0 0 6Zm-30-49a3 3 0 1 0 0-6 3 3 0 0 0 0 6Zm28 28a3 3 0 1 0 0-6 3 3 0 0 0 0 6Zm-10-18a3 3 0 1 0 0-6 3 3 0 0 0 0 6ZM44 47a3 3 0 1 0 0-6 3 3 0 0 0 0 6Z" stroke="#000" stroke-width="6" stroke-linecap="round" stroke-linejoin="round"/></svg>