<svg xmlns="http://www.w3.org/2000/svg" width="192" height="192" viewBox="0 0 192 192"><path d="M44.824 16v25.736h73.184c11.584 0 21.176 9.096 21.392 20.28.104 5.6-1.984 10.896-5.912 14.888-3.92 4-9.168 6.208-14.76 6.208h-28.52a1.84 1.84 0 0 0-1.84 1.84v22.864c0 .384.12.76.344 1.072L137.088 176h35.416l-48.48-67.296c24.416-1.224 44.064-21.744 44.064-46.328-.044-25.613-20.811-46.358-46.424-46.376zm0 39.488V120h29.792V55.48zM84.344 136c-8.442 0-14.572 3.72-14.472 10.376 0 6.233 4.973 8.224 6.792 8.744-1.682.333-7.912 2.087-7.912 9.832q0 5.04 4.04 8.08c4.04 3.04 6.512 2.96 11.56 2.96 4.936 0 8.8-1.008 11.496-3.024 2.696-2.024 4.096-4.656 4.096-8.016 0-7.686-6.234-9.525-7.904-9.88 3.612-1.084 6.877-4.313 6.776-8.704 0-7.257-7.292-10.506-14.464-10.376zm-29.944.384v3.376a5.04 5.04 0 0 1-.848 3.016 2.56 2.56 0 0 1-2.312 1.232h-5.544v8.032h8.528v23.616h9.88v-39.272zm29.952 6.28c2.408-.04 4.844 1.68 4.768 4.272.093 2.592-2.274 4.48-4.768 4.376-2.533.138-4.898-1.754-4.768-4.376-.081-2.584 2.348-4.33 4.768-4.272M42.168 146.2l-22.672 9.04v8.976l22.672 9.032v-9.312l-11.896-4.208 11.896-4.216zm42.184 12.736c3.135 0 5.712 2.25 5.712 5.28 0 3.221-2.923 5.253-5.712 5.152-2.563.107-5.72-1.622-5.72-5.152 0-3.576 3.158-5.352 5.72-5.28"/></svg>