<svg width="192" height="192" fill="none" xmlns="http://www.w3.org/2000/svg"><path d="M109 82a15.001 15.001 0 0 0 10.607-25.607A15.001 15.001 0 0 0 109 52" stroke="#000" stroke-width="12" stroke-linecap="round" stroke-linejoin="round"/><path d="M109 22a45 45 0 0 1 6.396 89.543L158 170h-33.948a5.998 5.998 0 0 1-4.849-2.466L93.669 132.5M72 52v47m-30-1V28a6 6 0 0 1 6-6h61M42 52h67M72 82h37m-29 36-30 26 30 26m-38-52v52" stroke="#000" stroke-width="12" stroke-linecap="round" stroke-linejoin="round"/></svg>