<svg xmlns="http://www.w3.org/2000/svg" width="192" height="192" viewBox="0 0 192 192"><path d="M20.432 59.512c-5.91 0-5.91 8.864 0 8.864l34.592.056c7.096 0 12.832 5.944 12.48 13.12-.328 6.712-6.12 11.864-12.84 11.864h-11.44L60.36 112.8h11.88l-10.368-11.488a18.8 18.8 0 0 0 14.8-18.384v-4.6c0-10.4-8.424-18.832-18.824-18.832zm6.008 17.064c-3.76 0-7.056 2.144-8.616 5.592-1.576 3.48-.984 7.416 1.544 10.28l18.048 20.424h11.56l-16.56-18.736-7.872-8.88h1.728l.168-.016h29.328c5.533-.238 5.533-8.426 0-8.664zm130.26-.248c-9.88 0-17.92 7.12-17.92 19.288 0 10.64 8.04 19.296 17.92 19.296 3.984 0 7.664-1.408 10.64-3.784v5.512c0 3.968-4.144 7.2-9.248 7.2-3.784 0-7.256-1.864-8.64-4.64l-7.76 3.856c2.864 5.744 9.296 9.448 16.4 9.448 9.8 0 17.784-7.008 17.904-15.664h.008V76.392h-8.664v3.72a16.96 16.96 0 0 0-10.64-3.792m0 8.656c5.096 0 9.248 4.768 9.248 10.64 0 5.856-4.152 10.632-9.248 10.632-5.104 0-9.248-4.776-9.248-10.64s4.144-10.632 9.248-10.632M118.556 76.2c-4.976 0-9.04 2.464-11.856 6.464v-6.272h-8.664v36.24h8.664V95.504c0-5.872 5.056-11.2 9.256-11.504 4.296-.416 9.248 1.744 9.248 10.64v18h8.664V94.512c-.04-10.576-5.472-18.312-15.312-18.312m-36.112.192h8.664v36.24h-8.664zm4.304-4.408c-3.132.027-5.715-2.558-5.688-5.688-.054-3.376 2.79-5.7 5.688-5.688 3.109-.04 5.796 2.551 5.752 5.688 0 3.392-2.85 5.725-5.752 5.688"/></svg>