<svg width="192" height="192" fill="none" xmlns="http://www.w3.org/2000/svg"><path d="M46 22h-8c-8.837 0-16 7.163-16 16v8m24 124h-8c-8.837 0-16-7.163-16-16v-8M146 22h8c8.837 0 16 7.163 16 16v8m-24 124h8c8.837 0 16-7.163 16-16v-8M61 66l32-21 43 35 7 36-40 29-31-5.5L49 116l12-50Z" stroke="#000" stroke-width="12" stroke-linecap="round" stroke-linejoin="round"/><path d="M50 114s24-6 27-8 14-22 14-22l18 5-2 24-34 26" stroke="#000" stroke-width="12" stroke-linecap="round" stroke-linejoin="round"/></svg>