<svg xmlns="http://www.w3.org/2000/svg" width="192" height="192" viewBox="0 0 192 192"><path d="M16 71.164v48.875h13.047v-16.266h3.938l11.75 16.297H59.53l-13.78-19.156c5.127-3.008 8.484-7.91 8.484-13.406 0-9.016-8.779-16.344-19.547-16.344zm13.047 8.125h4.031a8.16 8.16 0 0 1 8.125 8.219 8.16 8.16 0 0 1-8.125 8.125h-4.031zm45.188 1.688a19.92 19.92 0 0 0-20 19.937 19.92 19.92 0 0 0 20 19.923 19.976 19.976 0 0 0 20.078-19.923 19.976 19.976 0 0 0-20.078-19.937m22.609.75v38.313h13.047v-15.548l15.672 15.548h16.422l-19.922-19.938 16.5-16.5v22.72c0 7.552 4.537 14.516 15.969 14.516 5.424 0 10.404-3.076 12.828-5.86l5.86 5.063H176V81.79h-13.046v24.766c-1.464 2.56-3.512 4.172-6.672 4.172-3.208 0-4.672-1.897-4.672-7.985V81.791h-26.703L109.89 96.807V81.73zM74.235 90.43c3.52 0 6.453 4.692 6.453 10.484s-2.933 10.469-6.453 10.469c-3.448 0-6.375-4.67-6.375-10.47s2.935-10.483 6.375-10.483"/></svg>