<svg width="192" height="192" fill="none" xmlns="http://www.w3.org/2000/svg"><path d="M64.544 72.812c-1.15 6.612-4.118 11.608-6.627 11.16-2.51-.448-3.611-6.172-2.461-12.784 1.15-6.612 4.118-11.608 6.627-11.16 2.51.448 3.612 6.172 2.461 12.784ZM137 90s-19 59-44 59-44-41-44-41c49 13 88-18 88-18Z" stroke="#000" stroke-width="10" stroke-linecap="round" stroke-linejoin="round"/><path d="M119 127s-32-5-42.5 16M118 80s2-20-32 3m41-25.938S121 36 98 52m-22-9c-6-12-15-12.5-15-12.5" stroke="#000" stroke-width="10" stroke-linecap="round" stroke-linejoin="round"/><circle cx="96" cy="96" r="74" stroke="#000" stroke-width="12" stroke-linecap="round" stroke-linejoin="round"/></svg>