<svg xmlns="http://www.w3.org/2000/svg" width="192" height="192" viewBox="0 0 192 192"><path d="m88.759 172.79-4.278-.607c-17.094-2.422-34.779-12.106-46.252-25.325-23.015-26.522-25.47-64.586-6.057-93.684a75.7 75.7 0 0 1 30.253-26.326c30.236-14.716 65.92-8.35 89.32 15.93 10.268 10.653 16.753 23.067 19.953 38.168 1.035 4.876 1.155 6.33 1.172 14.63.017 5.903-.171 10.352-.548 12.406-2.849 15.965-8.085 26.822-19.48 40.4l-1.027 1.214-3.371-2.908a282 282 0 0 0-3.517-2.995c-.085-.051 1.053-1.506 2.516-3.234a70.16 70.16 0 0 0 15.486-32.255c1.223-6.22 1.3-17.214.162-23.502-5.193-28.687-27.258-50.718-55.663-55.569-6.819-1.164-19.242-.933-25.299.47-29.004 6.708-49.69 29.364-53.327 58.419-.693 5.57-.29 15.828.856 21.44 2.738 13.449 8.641 24.349 18.608 34.29 6.39 6.375 11.157 9.814 18.352 13.262 9.796 4.705 18.369 6.673 29.209 6.682 7.101.009 10.669-.403 17.265-1.985a68 68 0 0 1 4.936-1.061c.685 0 2.918 8.247 2.336 8.615-.967.6-9.95 2.584-14.314 3.166-4.166.556-14.502.77-17.282.36zm-23.785-36.07a10.27 10.27 0 0 1-4.757-5.065c-.453-1.095-.573-5.87-.565-23.34.009-24.495-.068-23.802 3.046-26.745 2.105-1.993 3.251-2.276 9.394-2.276h5.536v-5.056c0-8.581 1.232-12.637 5.142-16.914 6.801-7.444 18.395-7.777 25.838-.744 4.423 4.192 5.843 8.316 5.843 17.026v5.69h5.8c6.118 0 7.342.299 9.549 2.3 1.198 1.087 2.413 3.371 2.823 5.305l.308 1.386H68.636v49.238h-.966a8.6 8.6 0 0 1-2.687-.804zm40.057-63.217c0-7.691-.873-9.78-4.928-11.867-3.936-2.028-9.154-.59-11.678 3.2-1.112 1.694-1.172 2.027-1.3 8.11l-.137 6.349h18.044zM79.766 133.05v-4.517h43.659l.231-28.901h8.983v31.262l-1.146 1.95a12 12 0 0 1-2.96 3.217l-1.814 1.25-46.953.239zm13.698-13.047c-2.413-.736-4.15-2.02-8.701-6.46l-4.783-4.654 6.63-6.673 4.399 4.38c2.42 2.413 4.696 4.39 5.047 4.39s3.628-2.995 7.255-6.648l6.597-6.648 3.131 3.106c1.72 1.71 3.08 3.242 3.02 3.405s-3.336 3.576-7.272 7.589c-6.468 6.587-7.383 7.357-9.394 7.956-2.378.702-4.192.779-5.929.257"/></svg>