<svg xmlns="http://www.w3.org/2000/svg" width="192" height="192" viewBox="0 0 192 192"><path d="M76.641 16 52.485 39.062c-9.952 12-13.187 18.66-13.187 31.844 0 25.504 18.008 39.159 34.656 44.047l-.031-35a8.8 8.8 0 0 1 .593-3.187c-4.632-4.8-2.306-11.589 5.422-18.485l42.281-42.28zm2.063 65.234.03 29.312c.011 5.014 5.468 8.117 9.782 5.562l25.734-15.313c4.307-2.565 4.194-8.84-.203-11.25L88.281 75.53c-4.157-2.252-9.582.646-9.578 5.704zm28.187-.531c-.793.032-1.49.023-2.25.047l13.452 7.312c5.737 3.12 5.898 11.305.282 14.641l-15.22 9.063h6.907c10.528 2.112 16.308 13.158 6.828 21.062L73.718 176h44.22l24.233-24.22c7.904-7.903 9.475-14.205 10.531-28.421 0-28.96-22.117-42.121-45.813-42.641z"/></svg>