<svg xmlns="http://www.w3.org/2000/svg" width="192" height="192"><path d="M96 18.583c-44.183 0-80 37.184-80 83.052 0 23.219 9.362 45.36 25.786 61.073.399.381.685.242.646-.308-.06-.855-.983-2.51-2.038-3.738-12.502-14.56-19.464-33.542-19.463-53.27 0-43.794 33.61-79.296 75.068-79.296 41.46 0 75.068 35.502 75.068 79.295 0 21.72-8.431 42.462-23.285 57.41-.636.641-1.235 1.878-1.354 2.774l.002.025.002.002.002.006.006.006h.002l.002.002c.205.101 2.208-1.365 4.51-3.624C166.875 146.37 176 124.562 176 101.635c0-45.868-35.817-83.052-80-83.052M67.995 45.54c-2.228.072-3.466-.016-5.779.511a23.57 23.57 0 0 0-14.532 10.343c-.66 1.063-2.577 4.65-2.5 5.85l.092.15c.887.113 2.006-.803 2.797-1.203 4.124-2.083 8.712-3.982 13.214-5.058 2.336-.559 7.436-.56 9.787-.115C78.734 57.49 85.594 64 87.259 71.65c.319 1.466.31 5.803.088 7.369-1.304 9.164-9.929 16.212-17.816 20.01-1.21.582-2.635.898-3.814 1.514-.405-2.208-1.023-4.797-1.616-6.992-1.123-3.916-3.052-7.339-5.345-10.673-2.796-4.066-7.324-7.938-12.592-6.915-10.65 2.069-14.159 10.055-12.6 20.105 1.375 5.072 2.278 7.963 6.438 11.616 2.822 2.478 5.672 4.187 9.487 4.852 4.122.718 9.02.444 13.08-.474.516-.13 2.147-.726 2.442-.672.566.718.97 2.411 1.372 3.295 2.694 5.945 5.054 12.01 8.82 17.397.83 1.185 1.527 2.546 2.448 3.682 2.827 3.39 6.413 7.288 11.003 7.916 2.65.362 6.24-.906 8.257-2.527 1.622-1.303 3.67-3.972 4.711-5.836.007-.032.604-1.389.678-1.565a14.3 14.3 0 0 0 1.014-3.745c.36-2.7.22-7.504-.181-10.21-.377-2.543-2.358-5.13-5.057-5.487.03.333.072.678.11 1.011.7 2.624.576 7.29-.886 9.674-1.513 2.466-3.972 4.853-6.845 5.527-2.697.633-6.498.43-8.909-1.009-4.028-2.405-8.51-8.63-10.523-12.789a39.6 39.6 0 0 1-2.662-7.375c.302-.074.712-.17 1.003-.295 6.577-2.802 12.814-6.815 16.998-12.73.81-1.144 1.549-2.074 2.13-3.308 9.148-.244 18.366.608 27.494-.14 1.503-.24 1.501-3.019 1.2-4.14-8.59-.42-17.244-.188-25.834-.078-.096-1.09.638-2.72 1.009-3.905q.684-2.326 1.087-4.719c.724-4.548-.163-12.169-1.741-16.569-.93-2.591-2.994-5.602-4.592-7.802 8.578.024 17.194-.466 25.768-.153.027-1.762.017-3.515-.162-5.269l-29.326.037c-1.382-.854-1.956-1.622-3.2-2.238-4.098-2.03-7.655-2.647-12.2-2.5m73.144 18.911c-2.679.001-18.699.03-19.228.529-.326.829-.138 3.718-.064 4.727 2.575-.072 12.792.265 15.19.06-2.321 1.675-5.14 2.387-7.763 3.447-.238.26-.395.446-.414.808.408 20.218-.783 40.502-.095 60.713l.008.203c-29.205 4.72-55.662 16.6-62.78 21.396-1.177.792-1.415 1.412-1.144 2.822.307 1.638 1.342 3.97 2.691 4.924 18.864-11.49 41.156-20.554 63.431-22.861 3.852 2.124 2.395 3.475 9.339 5.628-6.138-47.794 1.291-54.87-.016-76.998 7.248.036 13.828-.329 15.753-.1.043-1.385.076-2.679.055-4.063-.05-.4-.026-.677-.254-.962-1.19-.241-12.25-.217-14.71-.273zM49.49 88.048c2.08-.087 4.01.719 5.732 1.819 3.51 2.243 5.98 7.18 7.002 11.114-1.661.931-4.314 1.674-6.173 1.97-5.539.236-10.58 1.707-12.27-5.793-.364-1.617-.76-3.845.309-5.297 1.447-1.967 2.947-3.313 5.4-3.813m44.867 76.632c-26.529-.405-63.035 6.216-62.929 6.971v.004c-.015.145-1.099.574-1.294 1.762 23.296-2.904 44.066-4.043 64.223-3.934 20.157-.11 40.928 1.03 64.223 3.934-.194-1.189-1.278-1.617-1.294-1.762v-.004c.106-.755-36.66-7.513-62.929-6.971"/></svg>