<svg xmlns="http://www.w3.org/2000/svg" width="192" height="192" viewBox="0 0 192 192"><path d="M52.286 19.058C33.848 19.058 19 33.89 19 52.328v87.327c0 18.438 14.849 33.286 33.286 33.286h87.444c18.438 0 33.27-14.849 33.27-33.286V52.328a33.19 33.19 0 0 0-33.27-33.27zm-.518 16.476c9.003-.006 16.306 7.29 16.309 16.292-.003 9.003-7.306 16.298-16.309 16.292-8.997-.003-16.289-7.296-16.292-16.292.003-8.997 7.296-16.289 16.292-16.292m43.58 0c8.997.003 16.289 7.296 16.292 16.292-.003 8.997-7.296 16.289-16.292 16.292-8.997-.003-16.289-7.296-16.292-16.292.003-8.997 7.296-16.289 16.292-16.292m36.244 1.688c4.987-.06 8.221 4.043 8.221 4.043-.007.028 6.334-7.347 13.686-2.105 3.174 2.259 4.669 8.528 2.975 12.549-.95 2.259-4.763 6.465-10.46 11.53-6.246 5.553-6.454 5.534-13.77-1.02-3.113-2.78-6.346-5.94-7.185-7.034-7.41-9.739.282-17.89 6.534-17.963zM51.768 79.097c9.01-.006 16.315 7.3 16.309 16.309-.003 9.003-7.306 16.298-16.309 16.292-8.997-.003-16.289-7.296-16.292-16.292-.006-9.003 7.29-16.306 16.292-16.31m43.58 0c9.003.003 16.298 7.306 16.292 16.309-.003 8.996-7.296 16.289-16.292 16.292-8.997-.003-16.289-7.296-16.292-16.292-.006-9.003 7.29-16.306 16.292-16.31m43.58.601c9.003-.006 16.306 7.29 16.309 16.292-.003 9.003-7.306 16.298-16.309 16.292-8.997-.003-16.289-7.295-16.292-16.292.003-8.996 7.296-16.289 16.292-16.292m-87.176 43.58h88.012c8.98-.002 16.261 7.279 16.259 16.26.002 8.98-7.279 16.26-16.259 16.258H51.752c-8.974.002-16.252-7.268-16.259-16.242-.011-8.987 7.272-16.277 16.259-16.276"/></svg>