<svg width="192" height="192" fill="none" xmlns="http://www.w3.org/2000/svg"><path d="m68 96 22 22 40-40M22 96l16 12" stroke="#000" stroke-width="12" stroke-linecap="round" stroke-linejoin="round"/><path d="M96 22a73.999 73.999 0 0 1 14.437 146.578 73.994 73.994 0 0 1-75.966-31.466A73.998 73.998 0 0 1 22 96" stroke="#000" stroke-width="12" stroke-linecap="round" stroke-linejoin="round"/><path d="M43.674 46.674a3 3 0 1 0 0-6 3 3 0 0 0 0 6Zm24.007-16.041a3 3 0 1 0 0-6 3 3 0 0 0 0 6ZM27.633 64.682a3 3 0 1 1 0 6 3 3 0 0 1 0-6Z" stroke="#000" stroke-width="6" stroke-linecap="round" stroke-linejoin="round"/></svg>