<svg xmlns="http://www.w3.org/2000/svg" width="192" height="192" viewBox="0 0 192 192"><path d="M34.416 111.87c-3.335 0-6.725-.486-9.785-1.864-1.469-.667-2.828-1.55-4.135-2.49A27.4 27.4 0 0 1 16 103.399l8.016-6.32c1.183 2.032 2.81 3.857 4.873 5.019 2.068 1.152 4.513 1.58 6.855 1.28a7.7 7.7 0 0 0 3.233-1.244c1.056-.732 1.888-1.804 2.25-3.045.338-1.118.453-2.366.035-3.48-.372-.973-1.17-1.71-2.012-2.287-1.315-.847-2.769-1.455-4.258-1.92-2.093-.69-4.208-1.314-6.278-2.071-1.506-.54-3.028-1.075-4.407-1.9-1.01-.588-1.97-1.274-2.77-2.13-.866-.908-1.628-1.929-2.19-3.053-.85-1.84-1.07-3.904-1.007-5.91a12.2 12.2 0 0 1 1.81-5.946c1.613-2.652 4.193-4.637 7.063-5.77 2.397-.97 5.012-1.3 7.585-1.212 2.039.048 4.073.359 6.02.974 2.17.681 4.243 1.732 5.992 3.197a25 25 0 0 1 2.99 2.682l-7.24 5.488c-1.121-1.69-2.705-3.108-4.614-3.837-1.734-.67-3.642-.824-5.477-.588-1.356.183-2.715.715-3.65 1.746a5 5 0 0 0-1.38 3.519c-.014.984.33 1.983 1.032 2.688a7.8 7.8 0 0 0 1.98 1.536c1.566.801 3.256 1.3 4.915 1.864 1.76.593 3.533 1.152 5.252 1.86 1.081.457 2.186.87 3.211 1.448a17 17 0 0 1 3.427 2.531c1.152 1.141 2.088 2.515 2.678 4.029.66 1.754.84 3.657.743 5.519-.215 3.397-1.704 6.688-4.077 9.122-1.542 1.551-3.447 2.709-5.463 3.535-2.136.827-4.44 1.15-6.721 1.148zm20.288-48.464h8.72v14.536c2.008-2.552 4.936-4.377 8.13-4.993 2.044-.404 4.157-.38 6.213-.084 2.42.358 4.788 1.28 6.685 2.845 1.87 1.527 3.288 3.58 4.114 5.845.92 2.479 1.196 5.148 1.162 7.779v21.888h-8.912q.002-10.833-.001-21.664c-.023-2.089-.412-4.25-1.576-6.022-.716-1.1-1.721-2.024-2.928-2.558-1.49-.671-3.163-.845-4.78-.743-1.501.119-2.98.63-4.209 1.502-1.436 1.025-2.463 2.538-3.087 4.173-.626 1.627-.763 3.39-.739 5.12v20.191h-8.792zm58.352 48.592c-2.803 0-5.622-.544-8.176-1.712-2.81-1.302-5.333-3.247-7.224-5.707a20.4 20.4 0 0 1-2.868-4.988c-1.35-3.516-1.632-7.408-.959-11.105a18.9 18.9 0 0 1 2.366-6.247c1.92-3.275 4.835-5.944 8.243-7.61 3.56-1.782 7.677-2.346 11.603-1.765 3.204.469 6.248 1.83 8.827 3.772 1.907 1.463 3.592 3.24 4.844 5.298.826 1.354 1.469 2.814 1.98 4.313.982 2.996 1.182 6.23.692 9.339-.415 2.57-1.377 5.04-2.738 7.255-2.19 3.532-5.549 6.31-9.405 7.85-2.283.89-4.737 1.31-7.185 1.307m0-8.208a10.5 10.5 0 0 0 5.42-1.464c2.324-1.345 4.102-3.572 4.946-6.116.813-2.418.838-5.097.072-7.53-.64-1.994-1.786-3.842-3.39-5.202-1.74-1.495-3.955-2.462-6.255-2.597-2.237-.16-4.532.35-6.442 1.54-1.347.817-2.522 1.926-3.365 3.261-1.162 1.813-1.878 3.925-1.957 6.083-.121 2.419.49 4.873 1.778 6.928a10.4 10.4 0 0 0 2.875 3.088 10.67 10.67 0 0 0 5.748 1.995q.289.014.578.014m44.392 8.216c-3.183.01-6.417-.723-9.144-2.404a12.4 12.4 0 0 1-3.2-2.828v21.84h-8.664V73.422h8.664v5.04c1.425-1.904 3.37-3.382 5.524-4.372 2.991-1.41 6.42-1.731 9.665-1.21 1.96.314 3.856.973 5.635 1.847 3.028 1.52 5.576 3.96 7.26 6.898a23 23 0 0 1 1.758 3.852c.973 2.886 1.197 5.984.958 9.007-.217 2.619-.913 5.212-2.17 7.528a18.9 18.9 0 0 1-4.072 5.243 18.03 18.03 0 0 1-8.245 4.3 18 18 0 0 1-3.969.443zm-1.424-8.016c1.9.013 3.8-.465 5.457-1.396 1.568-.86 2.95-2.079 3.922-3.587a12.5 12.5 0 0 0 1.88-5.045c.3-2.196.035-4.482-.867-6.515a10.65 10.65 0 0 0-3.343-4.385c-1.646-1.295-3.637-2.18-5.73-2.392-2.341-.255-4.784.149-6.838 1.332-1.618.91-2.975 2.262-3.953 3.836-1.44 2.34-2.009 5.174-1.693 7.896.303 2.726 1.551 5.352 3.515 7.273 1.874 1.816 4.44 2.87 7.042 2.97q.305.014.608.013"/></svg>