<svg xmlns="http://www.w3.org/2000/svg" width="192" height="192" viewBox="0 0 192 192"><path d="M48.839 119.19c-1.648-6.032-1.976-9.088-1.712-16.008.312-8.096 1.392-12.68 4.576-19.392 6.368-13.44 18.096-22.928 33.168-26.84 6.096-1.576 16.472-1.608 22.672-.072 20.96 5.216 35.808 22.184 37.976 43.392.448 4.376.352 8.784-.256 11.736-.224 1.08-.464.88-2.312-1.952a46.13 46.13 0 0 0-63.721-13.76c-3.776 2.416-9.688 8.12-12.536 12.088a56 56 0 0 0-4.208 7.36c-2.688 5.728-3.52 6.32-8.736 6.32h-4.12zm-29.984-8.088c-1.392-1.248-1.632-1.8-1.632-3.744 0-1.824.272-2.56 1.384-3.672 1.328-1.328 1.632-1.392 7.072-1.552 7.68-.224 9.904.936 9.904 5.168 0 4.112-2.08 5.256-9.576 5.256-5.392 0-5.552-.032-7.152-1.456m140.62-2.824c-1.76-.96-2.392-2.184-2.392-4.616 0-2.24 1.6-4.368 3.68-4.888.696-.176 3.64-.24 6.544-.144 4.984.16 5.344.24 6.656 1.56 1.112 1.104 1.384 1.84 1.384 3.664 0 1.944-.24 2.496-1.632 3.744-1.6 1.432-1.736 1.456-7.256 1.44-3.976-.016-6.016-.24-6.984-.76M32.325 76.742c-5.36-3.08-6.72-4.816-6.072-7.76.448-2.04 2.92-3.96 5.104-3.96 2.04 0 10.16 4.376 11.4 6.152 2.04 2.912-.128 7.624-3.752 8.144-1.464.216-2.56-.208-6.68-2.576m117.93-.92c-3.2-1.44-4.008-5.856-1.504-8.208 2.36-2.216 9.008-5.6 11.008-5.6 4.016 0 6.376 4.936 3.88 8.112-1.176 1.488-8.528 5.84-10.432 6.168a6.4 6.4 0 0 1-2.952-.48zM58.87 53.502c-1.6-1.264-6.352-9.36-6.352-10.84 0-4.48 5.4-7.216 8.576-4.344.52.472 2.072 2.792 3.44 5.152 3.04 5.24 3.264 7.344 1.032 9.584a5.09 5.09 0 0 1-6.696.448m66.897-.96c-1.624-.688-3.2-3-3.2-4.696 0-2.192 4.832-10.728 6.584-11.632 3.976-2.064 8.616 1.016 7.776 5.168-.336 1.704-4.56 9.208-5.808 10.344-1.12 1.008-3.904 1.44-5.352.816m-33.84-8.32c-2.096-1.136-2.384-2.184-2.384-8.728 0-6.048.008-6.08 1.464-7.536 2.032-2.04 4.88-2.048 7.144-.024 1.576 1.408 1.616 1.544 1.816 6.448.24 6.032-.368 8.304-2.592 9.656-1.872 1.144-3.576 1.2-5.44.184z" opacity=".5"/><path d="M32.983 164.8c-4.176-1.12-6.8-2.56-9.944-5.48-9.08-8.4-9.416-21.672-.768-30.392 5.776-5.824 9.488-6.856 24.512-6.856 13.16 0 12.64.208 15.704-6.336a47.2 47.2 0 0 1 22.992-22.824c11.64-5.28 26.008-5.264 37.68.032 9.688 4.4 17.944 12.544 22.68 22.4 2.896 6.016 3.36 6.384 8.464 6.776 5.2.408 8.472 1.48 12.352 4.08 13.84 9.24 11.952 30.32-3.32 37.152-5.04 2.264-4.84 2.256-67.705 2.224-51.088-.032-60.297-.144-62.641-.776z"/></svg>