<svg xmlns="http://www.w3.org/2000/svg" width="192" height="192" viewBox="0 0 192 192"><path d="M97.721 42.538a52.74 52.74 0 0 0-51.94 43.668 31.656 31.656 0 0 0 1.706 63.256h100.4a28.11 28.11 0 0 0 28.116-28.14 28.11 28.11 0 0 0-25.554-28.012 52.75 52.75 0 0 0-52.725-50.771M67.71 67.572l24.745 4.54v25.146L83.91 86.992h-.016a19.34 19.34 0 0 0 9.01 33.874l-1.17 12.829a32.03 32.03 0 0 1-20.196-11.227 32.19 32.19 0 0 1 4.124-45.366l-7.944-9.546zm32.753 3.836a32.192 32.192 0 0 1 18.363 57.586l7.607 9.81-24.56-5.382.84-25.137 8.193 10.547a19.324 19.324 0 0 0-12.052-34.57l1.601-12.854z"/><path d="M83.891 86.999a19.324 19.324 0 0 0 8.993 33.858l-1.161 12.837a32.03 32.03 0 0 1-20.196-11.227 32.19 32.19 0 0 1 4.116-45.366l-7.944-9.53 24.745 4.525v25.161z" opacity=".5"/></svg>