<svg xmlns="http://www.w3.org/2000/svg" width="192" height="192" viewBox="0 0 192 192"><path d="M48.78 46.436c-21.993 1.38-29.122 11.221-31.424 17.267-2.19 5.742-3.366 16.942 9.876 31.487-.347 30.037 19.427 57.808 49.707 66.239 26.095 7.264 52.923-1.803 69.583-21.017 19.468-2.105 25.992-11.257 28.127-16.986 2.292-6.013 3.46-18.01-11.86-33.565-2.504-27.289-21.491-51.525-49.425-59.301-22.778-6.338-47.164-.37-64.583 15.876zm62.442-8.172c31.926 8.886 50.542 41.86 41.659 73.787a61 61 0 0 1-2.5 7.156c-2.855.81-6.892 1.454-12.438 1.454-13.553 0-31.188-3.747-48.285-10.252-17.097-6.464-32.725-15.392-42.878-24.377-4.127-3.665-6.715-6.803-8.329-9.313 10.638-31.395 43.498-46.6 72.771-38.456zm-75.599 64.832c11.958 9.975 28.385 19.22 46.8 26.205 18.443 6.978 36.925 11.036 52.504 11.501-14.698 13.032-35.479 18.577-55.848 12.907-24.144-6.722-40.673-27.214-43.456-50.613"/></svg>