<svg width="192" height="192" fill="none" xmlns="http://www.w3.org/2000/svg"><path d="M96 22c-58 0-74 20-74 74s16 74 74 74 74-20 74-74-16-74-74-74Z" stroke="#000" stroke-width="12" stroke-linecap="round" stroke-linejoin="round"/><circle cx="96" cy="96" r="43" stroke="#000" stroke-width="12" stroke-linecap="round" stroke-linejoin="round"/><path d="M104.265 99.412c-2.373 9.196-9.789 15.123-16.563 13.239-6.774-1.885-10.34-10.867-7.967-20.063 2.373-9.196 9.789-15.123 16.563-13.239 6.774 1.885 10.341 10.867 7.967 20.063ZM28 135l30.5-17.493M164 57l-30.5 17.493M164 135l-30.5-17.493M28 57l30.5 17.493" stroke="#000" stroke-width="12" stroke-linecap="round" stroke-linejoin="round"/><path d="M109 80s-11 29 7 34c0 0 23 8 23-18" stroke="#000" stroke-width="12" stroke-linecap="round" stroke-linejoin="round"/></svg>