<svg xmlns="http://www.w3.org/2000/svg" width="192" height="192" viewBox="0 0 192 192"><path d="M108.82 16.943c6.8 1.904 13.728 7.28 16.376 12.696 1.488 3.072 1.496 3.08 1.72 11.072.216 7.68.264 8.056 1.28 9.16 1.024 1.12 1.056 1.344.784 5.584-.472 7.328-2.296 12.656-4.8 13.984-.744.4-2.576.64-4.88.64h-3.68l-1.832 9.617-1.824 9.624 1.848 1.552c1.016.848 3.736 3.504 6.04 5.896 5.064 5.248 7.304 9.28 7.992 14.4.288 2.136.304 9.224.032 20.592a664 664 0 0 0-.28 17.48c.072.08 4.6-3.28 10.072-7.472 6.112-4.68 10.136-8.08 10.44-8.8.392-.936.304-2.232-.416-6.113a64 64 0 0 1-.912-6c0-2.216 1.424-4.224 4.384-6.184 5.24-3.48 8.6-3.752 11.36-.912l1.472 1.504v18.08l-1.256 1.76c-.688.968-7.44 8.32-15 16.32-17.536 18.536-20.832 20.992-30.697 22.816-11.512 2.128-29.36 2.368-35.817.48-9.248-2.696-14.4-5.792-34.193-20.56-15.552-11.616-16.616-12.504-17.768-14.76-1.608-3.16-1.704-7.44-.224-10.344.552-1.072 9.72-11.432 20.656-23.328 16.904-18.4 20.04-21.6 22.336-22.864 3.808-2.08 7.528-2.952 11.768-2.76l3.536.16.4-1.36c.728-2.4.536-9.736-.32-12.232-.96-2.8-4.136-8.48-4.648-8.288-.208.08-4.2 4.52-8.856 9.88-9.264 10.64-11.616 12.76-15.312 13.864-3.584 1.064-8.856.688-12.024-.864-2.744-1.352-9.168-7.552-6.92-6.688.68.264 1.76.344 2.4.184.648-.16 4.024-3.136 7.6-6.688 9.968-9.856 14.416-12.024 25.456-12.384l6.24-.208-1.312-2.88c-1.872-4.104-2.56-7.12-2.56-11.304-.024-16.84 15.392-28.825 31.337-24.352m-49.441 107.79c-4.24 3.608-7.72 6.736-7.72 6.944 0 .36 24.616 21.712 25.04 21.712.176 0-9.272-34.93-9.504-35.145-.048-.04-3.568 2.88-7.816 6.48"/></svg>