<svg xmlns="http://www.w3.org/2000/svg" width="192" height="192" viewBox="0 0 192 192"><path d="M16 73.747h8.513l8.288 30.642 9.169-30.642h8.033l9.12 30.522q4.11-15.257 8.217-30.514h8.216l-12.352 43.763h-8.097l-9.185-30.882-9.168 30.882h-8.281zm74.886 44.499c-6.321.175-12.756-3.023-15.962-8.56-2.348-3.853-3.039-8.572-2.29-12.99.489-2.848 1.671-5.574 3.457-7.854 2.836-3.724 7.16-6.3 11.801-6.933 3.328-.455 6.786-.103 9.899 1.19 4.457 1.721 8.04 5.455 9.66 9.94.875 2.272 1.228 4.72 1.189 7.148v2.65H80.086c.447 2.018 1.45 3.928 2.95 5.36a9.93 9.93 0 0 0 4.763 2.578c1.35.316 2.75.38 4.13.308 2.841-.186 5.553-1.634 7.303-3.868a10.8 10.8 0 0 0 1.375-2.283l6.657 3.84a18.4 18.4 0 0 1-6.224 6.757c-2.465 1.628-5.391 2.44-8.318 2.65q-.916.068-1.836.066zm-.296-29.394c-2.065-.012-4.158.512-5.89 1.658-1.847 1.203-3.266 3.027-4.024 5.093-.02.16-.306.52.007.45h19.747c-.461-1.831-1.381-3.59-2.833-4.828-1.301-1.12-2.914-1.856-4.602-2.155a13 13 0 0 0-2.405-.21m37.81 29.386c-2.15.004-4.292-.426-6.296-1.2-5.7-2.3-9.962-7.76-10.764-13.862-.311-2.376-.29-4.807.126-7.17a16.7 16.7 0 0 1 1.726-5.032c1.27-2.422 3.043-4.613 5.334-6.142 1.66-1.13 3.517-1.962 5.446-2.513 2.462-.684 5.08-.783 7.593-.333 3.018.557 5.894 2.047 7.96 4.333.113.092.325.476.277.15v-4.034h8.08v35.083h-8.08v-4.56c-1.82 2.352-4.464 4.028-7.338 4.769a16 16 0 0 1-4.063.51zm1.32-7.44c4.197.11 8.259-2.683 9.657-6.641 1.108-2.67 1.155-5.802 0-8.465-1.514-4.11-5.853-6.912-10.22-6.587-2.819.106-5.556 1.43-7.415 3.552-1.994 2.167-2.826 5.182-2.61 8.08.09 1.296.359 2.592.884 3.783 1.108 2.44 3.096 4.497 5.61 5.498 1.293.535 2.695.805 4.095.787m23.074-28.37h8.049v5.217c.715-1.582 1.869-2.99 3.378-3.871 1.684-1.002 3.677-1.348 5.614-1.346 2.129-.022 4.359.477 6.164 1.527l-3.044 7.65c-1.633-1.077-3.623-1.5-5.56-1.363-1.523.085-3.082.54-4.24 1.57-.996.849-1.573 2.082-1.874 3.335-.367 1.47-.394 2.991-.382 4.498v17.874h-8.09z"/></svg>