<svg xmlns="http://www.w3.org/2000/svg" width="192" height="192" viewBox="0 0 192 192"><path d="M158.73 123.01c-3.289-.002-6.631-.443-9.671-1.752-3.883-1.674-7.098-4.829-8.905-8.648l8.944-4.152c.907 1.741 2.259 3.262 3.945 4.28 1.848 1.15 4.057 1.605 6.216 1.575 1.206-.024 2.444-.03 3.6-.418.829-.29 1.514-.872 2.142-1.47.824-.812 1.347-1.944 1.33-3.111a2.4 2.4 0 0 0-.817-1.832c-1.683-1.375-3.865-1.828-5.95-2.247-2.806-.563-5.612-1.15-8.354-1.977-3.866-1.104-7.78-3.671-8.912-7.742a11.4 11.4 0 0 1-.252-5.198c.442-2.29 1.659-4.391 3.32-6.015 1.336-1.34 2.95-2.391 4.697-3.117 2.784-1.167 5.83-1.664 8.843-1.57 3.14.057 6.329.583 9.159 2a17.6 17.6 0 0 1 6.566 5.677q.425.61.803 1.253l-8.208 4.024c-1.823-3.23-5.67-4.86-9.278-4.667-1.453.044-2.962.251-4.224 1.024-1.017.653-1.885 1.68-2.036 2.915-.12.818.078 1.706.659 2.316.716.787 1.76 1.115 2.746 1.42 2.591.807 5.252 1.362 7.906 1.914 2.406.584 4.858 1.215 7.042 2.425 1.83.991 3.517 2.351 4.577 4.169 1.03 1.605 1.389 3.545 1.384 5.428-.086 4.25-2.572 8.207-6.124 10.458-2.27 1.534-4.91 2.467-7.621 2.797a26 26 0 0 1-3.447.201m-37.76 0c-3.3-.002-6.653-.448-9.7-1.769-3.87-1.676-7.068-4.83-8.868-8.639q4.472-2.07 8.944-4.144c.917 1.753 2.281 3.285 3.984 4.304 1.841 1.134 4.033 1.581 6.177 1.552 1.206-.024 2.444-.03 3.6-.418.851-.29 1.531-.913 2.193-1.496.96-1.012 1.601-2.6 1.114-3.976-.267-.71-.892-1.202-1.51-1.6-.72-.422-1.551-.607-2.316-.927-1.65-.498-3.357-.751-5.036-1.125-3.701-.835-7.566-1.512-10.766-3.674-3.167-1.964-4.975-5.727-4.658-9.422.137-2.65 1.365-5.174 3.191-7.073a14.4 14.4 0 0 1 4.51-3.21c2.936-1.34 6.202-1.893 9.421-1.782 3.158.075 6.362.623 9.199 2.068a17.7 17.7 0 0 1 7.001 6.482c.108.187.356.42.035.482l-8.011 3.927c-1.837-3.244-5.712-4.871-9.337-4.665-1.456.049-2.969.263-4.224 1.053-.596.416-1.164.897-1.594 1.488-.369.493-.429 1.127-.413 1.723-.044.781.237 1.583.815 2.12.812.79 1.94 1.072 2.988 1.402 2.475.747 5.009 1.275 7.538 1.801 2.378.581 4.804 1.198 6.967 2.387 1.787.962 3.446 2.262 4.528 4.005.707 1.062 1.153 2.284 1.349 3.543.244 1.52.212 3.086-.179 4.583-1.063 4.745-5.095 8.275-9.543 9.851-2.336.843-4.84 1.116-7.311 1.11m-46 0c-5.196 0-10.34-2.131-14.104-5.688-3.337-3.173-5.552-7.48-6.217-12.03-.345-2.245-.335-4.526-.21-6.788.096-1.607.374-3.214.978-4.712.762-1.92 1.647-3.807 2.842-5.5a19.9 19.9 0 0 1 4.97-4.96c2.493-1.702 5.37-2.828 8.34-3.345 3.17-.534 6.48-.366 9.546.629 2.808.922 5.432 2.526 7.347 4.8.072.077.02-.187.035-.263v-5.392h9.632v43.16h-9.632v-6.136c-2.849 3.603-7.267 5.73-11.796 6.134q-.888.08-1.78.082m1.584-9.144c1.89.008 3.79-.37 5.496-1.195 1.682-.774 3.139-1.99 4.269-3.45 2.099-2.654 3.068-6.15 2.669-9.507-.312-2.73-1.608-5.32-3.49-7.304-4.345-4.596-12.165-4.833-16.994-.863-2.646 2.042-4.27 5.244-4.533 8.553-.37 4.088 1.312 8.352 4.536 10.936a12.8 12.8 0 0 0 8.055 2.83m-60.68-44.776h17.88c5.53-.112 11.02 2.473 14.492 6.767a19.5 19.5 0 0 1 4.145 9.675c.519 3.933-.08 8.028-1.84 11.595-2.992 6.384-9.913 10.582-16.945 10.403h-8.02v15.44H16v-53.88zm9.712 9.304v19.872c2.612-.003 5.223.005 7.835-.004 2.688-.052 5.355-1.28 7.04-3.402 1.7-2.082 2.514-4.84 2.272-7.513-.253-2.965-1.857-5.846-4.416-7.424-1.652-1.07-3.632-1.536-5.586-1.481h-7.145z"/></svg>