<svg xmlns="http://www.w3.org/2000/svg" width="192" height="192" viewBox="0 0 192 192"><path d="M34.168 119.88h9.312l15.24 21.176 15.864-21.176h8.896v50.344h-9.376v-35.312l-15.448 20.832-15.104-20.48v34.96H34.16zm55.104 10h9.384v40.344h-9.384zm-1.168-9.864c-.045-3.378 2.287-5.743 5.45-5.854 6.248-.338 7.444 6.17 5.303 9.316a5.1 5.1 0 0 1-3.07 2.125c-2.463.562-5.893.13-7.171-2.9-.367-.845-.51-1.771-.512-2.687m16.208 9.864h9.24v4.96a14.83 14.83 0 0 1 6.486-4.836c2.738-1.025 5.737-1.128 8.61-.745 2.687.365 5.324 1.373 7.413 3.128a14.56 14.56 0 0 1 4.301 6.126c1.008 2.68 1.302 5.57 1.262 8.416v23.295h-9.448c-.001-7.75.003-15.501-.002-23.252-.031-2.296-.506-4.677-1.87-6.57-.83-1.184-2-2.127-3.357-2.635-1.596-.606-3.344-.745-5.035-.585a8.98 8.98 0 0 0-5.294 2.468c-1.614 1.501-2.487 3.642-2.804 5.791-.266 1.67-.172 3.364-.19 5.047v19.735h-9.312zm42.96 0h9.384v40.344h-9.376zm-1.168-9.864c-.045-3.377 2.303-5.743 5.45-5.854 6.268-.337 7.447 6.178 5.311 9.316a5.1 5.1 0 0 1-3.073 2.125c-2.646.602-6.04.015-7.233-3.028-.328-.81-.455-1.689-.455-2.559m-130.1-98.232c7.52.002 15.041-.004 22.562.003 3.152.036 6.306.673 9.183 1.973 3.582 1.525 6.78 3.969 9.114 7.093a23.7 23.7 0 0 1 3.812 7.766c.959 3.512 1.06 7.245.389 10.819a23.16 23.16 0 0 1-5.058 10.554c-2.585 3.033-6.014 5.307-9.754 6.657-2.802.997-5.792 1.384-8.757 1.335h-9.427V86.52H16.004zm12.064 11.184v23.84c3.182-.002 6.365.004 9.547-.003 2.015-.045 4.063-.472 5.81-1.512 1.495-.845 2.813-2.012 3.777-3.438 1.346-1.908 2.062-4.225 2.13-6.552.08-1.998-.32-4.014-1.196-5.814a10.9 10.9 0 0 0-5.361-5.291c-1.271-.594-2.627-1.024-4.028-1.16-1.211-.125-2.43-.062-3.646-.076zM89.58 87.592c-3.33 0-6.659-.68-9.734-1.954a26.3 26.3 0 0 1-9.87-7.45 27 27 0 0 1-4.325-7.646c-1.48-4.119-1.829-8.571-1.486-12.912.81-9.988 6.664-18.8 16.658-22.435 10.604-3.979 20.717-.138 25.605 5.66v-6.207h11.968V86.52h-11.968v-6.736c-2.809 3.612-6.924 6.13-11.363 7.178-1.794.43-3.64.63-5.485.63m1.952-11a15.2 15.2 0 0 0 6.564-1.44 14.14 14.14 0 0 0 5.337-4.223c1.354-1.72 2.321-3.724 2.96-5.811a16.74 16.74 0 0 0 .27-8.192c-.334-1.5-.907-2.937-1.6-4.304-3.033-5.845-9.779-9.39-17.205-7.723-7.338 1.704-13.597 9.036-11.687 19.086.287 1.454.737 2.884 1.447 4.189 1.063 2.02 2.521 3.855 4.359 5.224 2.232 1.686 4.907 2.812 7.699 3.096a17 17 0 0 0 1.856.099zm52.288 7.36-21.28-49.304h12.768l14.456 34.936 13.648-34.936h12.592l-30.944 75.816h-12.144z"/></svg>