<svg xmlns="http://www.w3.org/2000/svg" width="192" height="192" viewBox="0 0 192 192"><path d="M66.717 45.759a50.08 50.08 0 0 0-46.681 30.305 50.08 50.08 0 0 0 10.224 54.697 50.08 50.08 0 0 0 54.473 11.4 50.08 50.08 0 0 0 31.297-46.017L95.998 96a29.92 29.92 0 0 1 18.768-27.584c11.288-4.56 24.136-1.872 32.657 6.832s10.928 21.6 6.128 32.801a29.92 29.92 0 0 1-27.984 18.16l-.288 20.032c20.24.28 38.705-11.704 46.681-30.305s3.928-40.24-10.224-54.697a50.08 50.08 0 0 0-54.457-11.4 50.08 50.08 0 0 0-31.305 46.017L95.998 96a29.92 29.92 0 0 1-18.76 27.584 29.92 29.92 0 0 1-32.665-6.832 29.92 29.92 0 0 1-6.128-32.801 29.92 29.92 0 0 1 27.984-18.16z"/></svg>