<svg xmlns="http://www.w3.org/2000/svg" width="192" height="192" viewBox="0 0 192 192"><path d="M94.525 25.995a67.76 67.76 0 0 0-45.796 18.484c-21.816 1.44-29.079 11.108-31.375 17.14-2.192 5.752-3.367 16.994 9.953 31.578-.31 30.732 20.033 57.852 49.624 66.155q1.41.391 2.828.719a12.8 12.8 0 0 1-.312-2.813v-5.515c-6.924-1.325-39.241-13.285-43.75-50.671a166.4 166.4 0 0 0 46.157 25.953 12.72 12.72 0 0 1 10.312-5.281h61.452a12.72 12.72 0 0 1 12.469 10.156 22.4 22.4 0 0 0 8.562-10.547c2.296-6.024 3.463-18.056-11.937-33.656h.016c-3.158-35.21-32.854-62.075-68.203-61.702m.125 7.922c39.909-.389 69.021 37.636 58.234 76.062h-.016a64 64 0 0 1-2.547 7.172 46.4 46.4 0 0 1-12.39 1.437 144.8 144.8 0 0 1-48.265-10.234 144.8 144.8 0 0 1-42.874-24.39 46.4 46.4 0 0 1-8.312-9.281c8.137-24.16 30.679-40.52 56.17-40.765zm-2.484 91.796c-4.826.004-8.735 3.908-8.735 8.734v22.812c0 4.826 3.909 8.746 8.735 8.75h61.468c4.829 0 8.75-3.92 8.75-8.75v-22.812c0-4.829-3.921-8.734-8.75-8.734zm-.813 10.78h7.453c1.896-.026 6.074.694 6.078 4.75.082 2.5-2.115 3.864-2.89 4.266 3.594 1.149 4.446 4.377 3.296 6.797-1.283 2.502-4.25 2.957-5.78 2.922h-8.157zm17.11 0h12.577l.016 3.016h-8.812v4.829h7.203v3.03h-7.203v4.844h8.812v3.016h-12.594zm14.577 0h15.25v3.016h-5.703v15.72h-3.86v-15.72h-5.687zm20.468 0h3.953l7.016 18.735h-4.078l-1.594-4.594h-6.781l-1.578 4.594h-3.953zm-48.39 3.016v4.766h3.234a2.87 2.87 0 0 0 1.954-.64 2.26 2.26 0 0 0 .75-1.766c.092-1.508-1.273-2.443-2.704-2.36zm50.296 1.141-2.422 6.969h4.828zm-50.296 6.64v4.907h4.11c1.419.053 2.796-.904 2.703-2.406a2.24 2.24 0 0 0-.766-1.844 2.9 2.9 0 0 0-1.938-.656z"/></svg>