<svg xmlns="http://www.w3.org/2000/svg" width="192" height="192" viewBox="0 0 192 192"><path d="M88.789 171.75c-27.334-2.481-50.954-18.873-62.504-43.357a73.6 73.6 0 0 1-7.28-32.723c.042-23.355 10.163-44.606 28.078-58.988a68.4 68.4 0 0 1 15.605-9.719c10.856-5.116 19.617-7.015 32.355-6.972 9.915.026 16.323 1.018 24.22 3.739 6.16 2.121 14.929 6.484 16.828 8.384 2.746 2.737 3.13 6.673.958 9.864-1.745 2.566-3.217 3.37-6.211 3.379-2.37.009-3.217-.265-7.118-2.378a59.97 59.97 0 0 0-55.78-.881C41.48 55.444 28.563 86.242 37.7 114.192c10.608 32.484 44.949 49.5 77.475 38.387 5.518-1.883 7.896-1.669 10.48.915 3.336 3.336 3.336 7.905.017 11.207-1.335 1.326-2.755 2.019-6.784 3.336-9.984 3.251-20.686 4.569-30.097 3.713m57.405-14.963a7.27 7.27 0 0 1-4.757-3.422c-.599-1.078-.847-3.02-1.026-7.913l-.223-6.485-6.801-.231c-5.895-.205-6.964-.36-8.06-1.172-4.157-3.114-3.763-9.667.737-12.2 1.54-.864 2.48-.984 8.016-.984h6.27l.146-6.63c.146-6.16.231-6.759 1.292-8.299 2.849-4.045 8.81-4.149 11.798-.205.83 1.138.984 2.173 1.19 8.102l.23 6.801 6.733.231c7.23.248 8.401.599 9.975 3.003a7.4 7.4 0 0 1-.94 9.462l-1.66 1.66-6.126.12c-9.051.188-8.127-.65-8.298 7.485-.137 6.63-.197 6.955-1.31 8.145-2.001 2.138-4.645 3.07-7.186 2.532M70.73 108.639c-9.95-8.863-11.413-10.3-12.097-11.91-2.652-6.244 3.08-12.986 9.582-11.24 2.088.565 7.974 5.475 20.926 17.478 1.215 1.12 2.396 1.968 2.61 1.882.222-.085 8.084-7.665 17.477-16.854 28.66-28.061 32.16-31.423 33.52-32.287 1.71-1.086 5.39-1.112 7.613-.068 3.345 1.59 4.86 4.902 4.21 9.23-.36 2.396.838 1.087-16.973 18.53-29.43 28.832-45 44.009-45.325 44.128z"/></svg>