<svg xmlns="http://www.w3.org/2000/svg" width="192" height="192" viewBox="0 0 192 192"><path d="M137.45 100.77a10.09 10.09 0 0 0-9.362 9.663 10.091 10.091 0 1 0 20.165.017 10.09 10.09 0 0 0-10.803-9.68m-26.15 28.233a7.682 7.682 0 1 0 0 15.355h53.757a7.682 7.682 0 1 0 0-15.355zm26.887 23.835a10.091 10.091 0 0 0-.035 20.148h.017a10.091 10.091 0 1 0 .018-20.148" opacity=".5"/><path d="M53.304 19.009a7.673 7.673 0 0 0-7.682 7.665v19.17H26.426a7.682 7.682 0 0 0 0 15.356h19.179v19.179a7.686 7.686 0 0 0 15.373 0V61.19h19.205a7.673 7.673 0 1 0 0-15.338H60.978v-19.18A7.673 7.673 0 0 0 53.305 19zm57.992 25.095a7.666 7.666 0 0 0-7.673 7.673 7.673 7.673 0 0 0 7.673 7.665h53.765a7.673 7.673 0 1 0 0-15.338zm-81.312 64.568a7.72 7.72 0 0 0-5.401 2.332 7.665 7.665 0 0 0 .205 10.863l17.92 17.284-17.063 17.687a7.682 7.682 0 0 0 11.034 10.648l17.08-17.687 17.403 16.804a7.682 7.682 0 0 0 10.657-11.06l-17.396-16.779 16.547-17.096a7.682 7.682 0 0 0-11.06-10.666l-16.52 17.113-17.937-17.302a7.72 7.72 0 0 0-5.478-2.143z"/></svg>