<svg xmlns="http://www.w3.org/2000/svg" width="192" height="192" viewBox="0 0 192 192"><path d="M88.872 173.14a184 184 0 0 1-22.951-13.039c-20.183-13.335-31.294-26.111-35.086-40.334-1.096-4.136-1.104-4.184-1.104-43.998V35.907l6.208-.32a120 120 0 0 0 55.469-16.839L96 16.004l4.591 2.744a120 120 0 0 0 55.47 16.839l6.207.32v39.862c0 39.814 0 39.862-1.104 43.998-3.688 13.855-14.455 26.439-33.862 39.598-9.983 6.768-28.719 16.695-31.406 16.639m23.711-44.278c2.824-.96 6.432-4.088 7.792-6.744 1.464-2.88 1.76-7.96.624-10.935-1.2-3.12-4.576-6.623-7.688-7.96-3.44-1.48-8.568-1.215-11.687.6l-2.128 1.249-12.223-6.528c-6.72-3.592-12.279-6.704-12.35-6.92-.073-.216 6.263-4.215 14.07-8.895l14.191-8.504 2.072.68c4.984 1.656 10.663.368 14.271-3.24 2.76-2.76 3.92-5.663 3.88-9.76 0-4.047-.856-6.199-3.448-9.079-5.296-5.871-15.15-5.92-20.263-.096-2.008 2.288-3.36 5.288-3.368 7.504-.008 1.056-.352 2.056-.872 2.496-2.208 1.904-28.255 17.063-28.943 16.839a96 96 0 0 1-2.96-1.056c-2.823-1.04-7.36-.744-10.142.68-4.8 2.448-7.616 6.992-7.616 12.295 0 4.072 1.28 7.064 4.264 9.96 3.776 3.663 9.367 4.735 14.527 2.775l2.512-.96 27.207 14.391.824 2.552c2.295 7.12 10.303 11.095 17.455 8.656"/></svg>