<svg xmlns="http://www.w3.org/2000/svg" width="192" height="192" viewBox="0 0 192 192"><path d="M96 16c-21.691 9.818-43.644 19.105-65.131 29.362-.528.76-.435 42.376.11 49.848 2.368 32.267 21.856 61.766 49.722 75.351 5.68 2.76 13.178 5.478 15.298 5.438 2.12.04 9.618-2.678 15.298-5.438 27.867-13.585 47.355-43.084 49.723-75.351.544-7.473.638-49.088.11-49.848C139.643 35.104 117.69 25.818 95.999 16zm12.548 46.036c0 .64-8.621 27.696-9.813 30.8-.264.672 1.05.766 10.939.766 13.009 0 13.469.135 11.173 3.375-13.453 17.013-35.103 43.293-35.535 43.395-.896.208-1.75-.372-1.75-1.172 0-.6 8.692-27.965 9.828-30.925.225-.568-1.625-.688-10.954-.688-9.512 0-11.332-.117-11.876-.765-.528-.64-.437-1.04.547-2.375 2.257-3.065 34.393-42.67 35.097-43.254.886-.736 2.344-.242 2.344.843"/></svg>