<svg xmlns="http://www.w3.org/2000/svg" width="192" height="192" viewBox="0 0 192 192"><path d="M96.003 16c-5.44 0-8.32.704-11.472 2.816l-.104.056c-5.04 2.848-8.624 7.696-10.064 13.952-1.12 4.832-.352 8.752 6.24 31.912l2.664 9.36-13.68-13.36c-7.536-7.344-15.312-13.952-17.28-14.672L52.131 46c-9.864-3.52-19.632.344-25.224 7.424-4.616 5.84-6.392 13.84-3.04 21.704l.008.056.096.208c3.264 7.464 8.52 10.752 24.424 14.824q4.4 1.2 9.92 2.48c6.176 1.6 10.616 2.928 10.92 3.304-.304.376-4.736 1.696-10.904 3.296q-5.52 1.288-9.936 2.48c-15.896 4.072-21.144 7.368-24.408 14.832l-.112.2-.016.064c-3.344 7.856-1.568 15.872 3.048 21.704 5.624 7.12 15.48 10.992 25.392 7.36 1.976-.72 9.76-7.328 17.28-14.672l13.688-13.36-2.656 9.36c-6.592 23.16-7.36 27.064-6.24 31.904 1.44 6.264 5.024 11.112 10.056 13.96l.104.056c3.152 2.112 6.032 2.816 11.472 2.816q1.032 0 2.032-.08a21.9 21.9 0 0 0 11.968-4.4 20 20 0 0 0 3.656-3.712 23.2 23.2 0 0 0 4.048-8.776c.608-2.56.6-4.976-.424-9.784-1.016-5.208-3.12-12.872-6.752-25.12l-.232-.768a136 136 0 0 0-1.04-3.608c-.36-1.04 5.552 4.144 13.12 11.496 7.112 6.92 14.424 13.192 16.904 14.504q.24.12.424.184c10.544 3.864 21-.736 26.392-8.72 3.856-5.68 5.128-13.088 2.04-20.344l-.352-.808c-3.52-7.584-9.472-10.784-27.704-15.176a456 456 0 0 1-8.408-2.104c-5.136-1.384-8.696-2.48-8.92-2.784.224-.304 3.784-1.4 8.92-2.784 2.496-.656 5.36-1.368 8.4-2.104 18.24-4.4 24.184-7.592 27.712-15.176l.28-.64.048-.096.032-.08a21.04 21.04 0 0 0-2.048-20.344c-5.392-7.984-15.848-12.576-26.4-8.72l-.304.144c-2.384 1.2-9.808 7.536-17.016 14.552-7.568 7.36-13.48 12.528-13.12 11.496.12-.368.488-1.68 1.04-3.608l.24-.768c3.616-12.256 5.728-19.92 6.744-25.12 1.024-4.808 1.032-7.224.424-9.784a23.2 23.2 0 0 0-4.048-8.784C109.683 18.968 103.499 16 96.003 16m0 62.504c9.848 0 17.832 7.832 17.832 17.496s-7.992 17.504-17.832 17.504S78.179 105.664 78.179 96s7.984-17.496 17.824-17.496"/></svg>