<svg xmlns="http://www.w3.org/2000/svg" width="192" height="192" viewBox="0 0 192 192"><path d="M80.484 40.17c-23.225 4.656-42.407 16.956-55.456 35.533-6.72 9.576-9.731 17.323-8.891 22.923.504 3.344 3.343 9.263 7.39 15.391 14.274 21.625 36.822 35.289 63.863 38.689 4.792.6 20.35-.2 25.767-1.328 17.585-3.68 31.495-11.197 44.11-23.814 9.793-9.777 17.867-22.232 18.627-28.72 1.048-9.009-5.753-21.644-18.626-34.548-12.617-12.641-26.28-19.988-44.377-23.876-7.72-1.654-24.687-1.8-32.408-.25zm16.423 16.579c21.647.007 39.191 17.558 39.189 39.205.002 21.647-17.542 39.198-39.189 39.205-21.653.002-39.207-17.552-39.205-39.205-.002-21.653 17.552-39.207 39.205-39.205m-.203 31.361a7.84 7.84 0 0 0-7.844 7.844 7.84 7.84 0 0 0 7.844 7.844 7.84 7.84 0 0 0 7.844-7.844 7.84 7.84 0 0 0-7.844-7.844"/></svg>