<svg xmlns="http://www.w3.org/2000/svg" width="192" height="192" viewBox="0 0 192 192"><path d="M96.361 16c-5.936-.024-11.016 2.184-16.304 5.032q-1.88 1.015-3.936 2.2l68.008 39.464c2.416 1.6 3.544 2.864 3.936 3.56.4.688 1.045 2.303 1.016 7.152l-.2 33.984 19.992-11.536c.056-9.904.36-16.976.24-22.872-.128-6-.704-11.52-3.648-16.672s-7.408-8.448-12.512-11.6c-5.104-3.16-11.44-6.512-20.24-11.648s-14.824-8.992-20.088-11.888-10.32-5.152-16.264-5.176M59.433 32.96c-8.6 4.904-14.88 8.176-19.92 11.232-5.136 3.112-9.624 6.368-12.616 11.496-2.992 5.12-3.616 10.64-3.8 16.64s.08 13.152.04 23.344c-.048 10.184-.376 17.336-.248 23.344.128 6 .704 11.52 3.648 16.672s7.4 8.448 12.512 11.6q1.92 1.2 4.12 2.464l-.04-76.824c.144-4.848.672-6.464 1.072-7.144.4-.688 1.48-2.054 5.696-4.456l29.536-16.824zm22.048 37.272c-10.496 0-18.616 10.936-16.576 22.328 1.44 8.08 8.536 17.664 19.84 26.824 3.92 3.168 11.264 8.32 12.24 8.584.984-.272 8.328-5.416 12.24-8.584 11.312-9.16 18.4-18.744 19.84-26.824 2.04-11.392-6.08-22.328-16.576-22.328-5.256 0-11.392 3.416-14.04 7.824l-1.464 2.448-1.464-2.448c-2.64-4.4-8.776-7.824-14.04-7.824m87.48 44.936c-22.67 13.15-45.431 26.14-68.176 39.16-2.592 1.296-4.256 1.64-5.048 1.64-.8 0-2.456-.368-6.704-2.704L59.945 136.24v23.088c8.4 4.912 14.328 8.688 19.44 11.496 5.264 2.888 10.32 5.144 16.256 5.176 5.944.024 11.024-2.184 16.312-5.032 5.28-2.84 11.36-6.64 20.2-11.704s15.2-8.344 20.336-11.456c5.136-3.12 9.624-6.368 12.616-11.496 2.992-5.12 3.616-10.64 3.8-16.64q.056-2.136.064-4.504z"/></svg>