<svg width="192" height="192" fill="none" xmlns="http://www.w3.org/2000/svg"><path d="M96 66v60M66 96h60m-30 74a74 74 0 1 0 0-148" stroke="#000" stroke-width="12" stroke-linecap="round" stroke-linejoin="round"/><path d="M22 99a3 3 0 1 0 0-6 3 3 0 0 0 0 6Zm21.674-52.326a3 3 0 1 0 0-6 3 3 0 0 0 0 6Zm0 104.652a3 3 0 1 0 0-6 3 3 0 0 0 0 6ZM67.681 30.633a3 3 0 1 0 0-6 3 3 0 0 0 0 6Zm-40.048 96.686a3 3 0 1 0 0-6 3 3 0 0 0 0 6Zm0-62.638a3 3 0 1 1 0 6 3 3 0 0 1 0-6Zm40.048 96.686a3 3 0 1 1 0 6 3 3 0 0 1 0-6Z" stroke="#000" stroke-width="6" stroke-linecap="round" stroke-linejoin="round"/></svg>