<svg xmlns="http://www.w3.org/2000/svg" width="192" height="192" viewBox="0 0 192 192"><path d="m104.63 19 20.773 20.773 16.675-16.658c1.516-1.522.437-4.117-1.711-4.115zm-53.002.009c-2.15-.013-3.234 2.588-1.711 4.106l72.945 72.936-72.851 72.842c-1.523 1.518-.44 4.12 1.711 4.107h44.292a2.4 2.4 0 0 0 1.711-.702l74.527-74.545a2.396 2.396 0 0 0 0-3.405l-74.63-74.63a2.4 2.4 0 0 0-1.626-.684L95.92 19zm14.964 28.49L19.75 94.349a2.396 2.396 0 0 0 0 3.405l46.842 46.85 25.547-25.555-23.006-23.006 23.006-22.98zm58.819 104.81-20.679 20.687h35.548c2.138-.006 3.212-2.585 1.711-4.107z"/></svg>