<svg xmlns="http://www.w3.org/2000/svg" width="192" height="192" viewBox="0 0 192 192"><path d="M48.475 82.678c-3.254 0-5.966 1.22-8.203 3.661-2.17 2.441-3.255 5.424-3.255 9.085 0 3.73 1.085 6.847 3.255 9.288q3.355 3.66 8.34 3.661c2.644 0 5.152-1.085 7.457-3.255v2.577h5.694V83.423h-5.694v2.78c-2.237-2.372-4.747-3.525-7.594-3.525m55.797 0c-3.322 0-6.034 1.22-8.203 3.661-2.17 2.441-3.255 5.424-3.255 9.085 0 3.73 1.085 6.847 3.255 9.288q3.355 3.66 8.338 3.661c2.644 0 5.153-1.085 7.458-3.255v2.577h5.627V83.423h-5.627v2.78c-2.238-2.372-4.813-3.525-7.593-3.525m58.508 0c-3.322 0-6.034 1.22-8.203 3.661-2.17 2.441-3.254 5.424-3.254 9.085 0 3.73 1.084 6.847 3.254 9.288q3.355 3.66 8.34 3.661c2.643 0 5.152-1.085 7.457-3.255v2.577H176V83.423h-5.626v2.78c-2.237-2.372-4.814-3.525-7.594-3.525m-26.033.068c-2.44 0-4.611 1.017-6.577 2.915v-2.238h-5.695v24.272h5.627v-11.66c0-3.05.407-5.152 1.152-6.373.746-1.22 2.035-1.831 3.933-1.831 1.695 0 2.915.407 3.525 1.356.678.881 1.017 2.577 1.017 4.95v13.492h5.628V92.78c0-3.39-.678-5.831-2.034-7.39-1.56-1.763-3.796-2.645-6.576-2.645zm-111.86.068c-2.102 0-3.865.746-5.356 2.102-1.492 1.356-2.17 3.05-2.17 5.152 0 1.56.474 2.847 1.288 3.864.678.814 1.83 1.56 3.457 2.373.543.271 1.153.543 1.695.814.543.271 1.153.542 1.695.813 1.424.882 2.17 1.763 2.17 2.78q0 2.644-2.848 2.644c-.949 0-1.762-.34-2.44-.95-.407-.338-.949-1.083-1.559-2.236l-4.814 2.237c1.627 3.932 4.543 5.966 8.61 5.899 2.306 0 4.34-.747 6.035-2.238q2.644-2.44 2.643-5.898c0-1.83-.542-3.254-1.559-4.34-1.084-1.084-3.05-2.236-6.034-3.524-2.17-.881-3.255-1.832-3.255-2.78 0-.543.204-1.018.543-1.357a2.07 2.07 0 0 1 1.356-.474c1.085 0 1.966.747 2.712 2.238l4.61-2.442c-1.559-3.186-3.796-4.744-6.779-4.676zm41.084.61 12.542 25.898 12.542-25.899h-6.306l-6.236 13.628-6.238-13.628zM49.632 87.83c1.966 0 3.66.747 4.948 2.17 1.289 1.492 1.9 3.322 1.9 5.627s-.611 4.136-1.9 5.627c-1.288 1.424-2.915 2.102-5.017 2.102-1.898 0-3.525-.745-4.813-2.237-1.288-1.423-1.898-3.39-1.898-5.695 0-2.17.61-3.932 1.965-5.424 1.289-1.423 2.917-2.17 4.815-2.17m55.728 0c1.966 0 3.662.747 4.95 2.17 1.288 1.492 1.897 3.322 1.897 5.627s-.61 4.136-1.897 5.627c-1.288 1.424-2.916 2.102-5.017 2.102-1.899 0-3.526-.745-4.814-2.237-1.288-1.423-1.899-3.39-1.899-5.695 0-2.17.61-3.932 1.967-5.424 1.288-1.423 2.915-2.17 4.813-2.17m58.509 0c1.966 0 3.66.747 4.948 2.17 1.289 1.492 1.9 3.322 1.9 5.627s-.611 4.136-1.9 5.627c-1.288 1.424-2.915 2.102-5.017 2.102-1.898 0-3.525-.745-4.813-2.237-1.288-1.423-1.898-3.39-1.898-5.695 0-2.17.61-3.932 1.965-5.424 1.289-1.423 2.917-2.17 4.815-2.17"/></svg>