<svg xmlns="http://www.w3.org/2000/svg" width="192" height="192" viewBox="0 0 192 192"><path d="M96 34.443c-23.792.009-43.064 19.32-43.024 43.112-.042 22.07 16.638 40.585 38.592 42.84V89.123a12.4 12.4 0 0 1-7.952-11.568c0-6.872 5.52-12.384 12.384-12.384 6.776 0 12.384 5.52 12.384 12.384 0 5.24-3.344 9.76-7.952 11.568v31.28c21.957-2.255 38.638-20.775 38.592-42.848-.088-23.864-19.344-43.12-43.024-43.12zm74.848 85.952c.032.52.16 3.456.16 8.24a40 40 0 0 0-3.544-.52 19.2 19.2 0 0 0-7.304.624 12 12 0 0 0-5.576 3.456c-2.768 3.064-3.584 7.624-3.36 11.632.2 3.2 1.144 6.848 3.2 9.36s5.12 3.808 8.28 4.136c.16 0 1.072.096 1.36.096q1.184.08 2.352.064a24 24 0 0 0 4.336-.52 11.2 11.2 0 0 0 2.088-.752 6.4 6.4 0 0 0 2.376-1.824 4 4 0 0 0 .784-2.32v-31.68zm-143.8 6.096c-2.8 0-5.408.912-7.264 2.536a8.4 8.4 0 0 0-2.968 6.424c0 2.448.944 4.4 2.872 6 1.624 1.36 3.648 2.216 5.6 3.064 2.672 1.136 4.992 2.152 4.992 3.912 0 1.336-.912 2.8-3.488 2.8-3.68 0-6.616-2.8-6.648-2.832l-.56-.56L16 152.803l.36.384c.032.032.976 1.08 2.704 2.088 1.6.944 4.208 2.056 7.664 2.056 2.992 0 5.568-.912 7.392-2.672 1.728-1.632 2.68-3.92 2.68-6.392a7.36 7.36 0 0 0-2.84-6.128c-1.664-1.36-3.784-2.24-5.672-3.032-2.608-1.072-4.856-1.984-4.856-3.712a2.56 2.56 0 0 1 .976-1.96 4.4 4.4 0 0 1 2.64-.808c3.264 0 5.84 2.312 5.872 2.312l.616.584 2.872-5.408-.328-.36c-.128-.128-3.16-3.256-9.032-3.256zm12.616.424v29.984h11.048c2.936 0 5.48-.752 7.336-2.152 2.12-1.6 3.224-3.976 3.224-6.848 0-1.6-.424-3.16-1.24-4.432a6.64 6.64 0 0 0-2.672-2.44c1.76-1.4 2.736-3.552 2.736-6.032s-.944-4.56-2.736-6c-1.696-1.36-4.04-2.08-6.776-2.08zm24.576.032v29.984h6.72v-29.984zm30.216 1.008c-1.787-.042-3.57.2-5.28.72a11.76 11.76 0 0 0-5.416 3.456c-2.704 3.064-3.488 7.624-3.256 11.632.16 3.2 1.104 6.848 3.096 9.36 1.984 2.504 4.96 3.808 8.016 4.136 3.096.352 6.128 0 9.16-.784a31 31 0 0 0 3.456-1.112l.128-.032-.064-.096a11.2 11.2 0 0 1-1.792-4.824l-.032-.128-.784.392a24 24 0 0 1-4.104 1.528c-2.12.56-4.432.784-6.552.16a7.2 7.2 0 0 1-3.488-2.408c-1.696-2.248-2.056-5.44-1.888-8.216.128-2.152.584-4.432 1.888-6.192a7.2 7.2 0 0 1 3.488-2.408c3-.88 6.128-.16 8.96.816q1.425.48 3.232 1.264l1.008-5.568a37.6 37.6 0 0 0-9.776-1.696m24.928.032c-5.12.032-9.936 1.792-9.936 1.792l-.688 5.44 1.112-.48c1.475-.638 3-1.152 4.56-1.536a17.6 17.6 0 0 1 4.168-.52c1.864 0 3.136.224 3.944.752q1.072.625 1.112 2.08a2.32 2.32 0 0 1-.88 1.96c-.456.424-1.568 1.104-4.24 2.08l-6.024 2.184q-3.472 1.28-4.992 3.168-1.56 1.96-1.464 4.952.111 3.496 2.768 5.576c.688.52 1.536.976 2.32 1.304 1.168.456 2.536.68 3.776.776a11.52 11.52 0 0 0 8.28-2.48l-.2 1.896h6.264v-5.408l.128-13.6c.064-.192.032-2.176.032-2.176q-.096-4.176-2.544-6.032c-1.56-1.176-4.04-1.728-7.496-1.728m26.04.032h-1.336c-3.584.064-6.12.688-7.76 1.856-1.656 1.24-2.536 3.264-2.64 6l-.024 2.184v18.872h6.32l-.096-.976c-.096-.848-.232-3.2-.232-3.2a18 18 0 0 1-.032-1.336l-.384-11.696c-.032-1.2-.032-2.48.096-3.584a4 4 0 0 1 1.272-2.248c3.224-2.712 8.864-.104 8.864-.104a4 4 0 0 1 .32-.816 13.6 13.6 0 0 1 3.488-3.872 32 32 0 0 0-4.168-.816 32 32 0 0 0-3.68-.264zm-99.44 4.536h4.496c2.024 0 3.2 1.136 3.2 3.096q0 2.985-3.096 2.992h-1.568v5.512h2.08a3.68 3.68 0 0 1 2.744 1.04c.688.72.976 1.408.976 2.416 0 2.28-1.432 3.712-3.712 3.712h-5.12zm118.9.2c2.016.04 4 .64 5.976 1.264l.032 16.136c0 .944-1.112 1.528-1.824 1.824-.948.325-1.936.522-2.936.584a9.2 9.2 0 0 1-4.008-.224 8 8 0 0 1-2.056-.984 6.4 6.4 0 0 1-1.528-1.432c-1.76-2.248-2.12-5.44-1.96-8.216.128-2.152.584-4.432 1.96-6.192a8 8 0 0 1 1.528-1.432 8 8 0 0 1 4.816-1.328m-41.224 9.672-.224 8.344c0 .128-1.008.584-1.176.648a16 16 0 0 1-4.104 1.144q-.861.094-1.728.096-2.16.016-3.224-.816a2.72 2.72 0 0 1-1.08-2.216 3.04 3.04 0 0 1 .72-2.24c.48-.624 1.496-1.208 2.96-1.76l5.776-2.192a16 16 0 0 0 1.92-.912.7.7 0 0 0 .16-.096"/></svg>