<svg width="192" height="192" fill="none" xmlns="http://www.w3.org/2000/svg"><path d="M70 116a24.001 24.001 0 0 0-40.97-16.97A24 24 0 0 0 46 140m88 0a35.995 35.995 0 0 0 27.066-12.264 35.996 35.996 0 0 0 3.505-42.746 36.006 36.006 0 0 0-13.42-12.642M46 88a44 44 0 0 1 88 0m-4.655-19.698a35.996 35.996 0 0 1 21.806 4.046m0 0c.554-2.022.849-4.15.849-6.348 0-13.255-10.745-24-24-24s-24 10.745-24 24 10.745 24 24 24c2.072 0 4.082-.263 6-.756M46 88v68m24-40v24m64-52v52m-64 0h64m-88 16 24-16" stroke="#000" stroke-width="12" stroke-linecap="round" stroke-linejoin="round"/></svg>