<svg xmlns="http://www.w3.org/2000/svg" width="192" height="192" viewBox="0 0 192 192"><path d="M96.004 177.89a51.2 51.2 0 0 1-26.888-7.336 55.2 55.2 0 0 1-19.336-19.328H24.9V133.45h18.656a88 88 0 0 1-.768-8.784 296 296 0 0 1-.12-9H24.892V97.89h17.776q0-6 .12-9.896.104-3.88.776-7.88h-18.68V62.338h24.888q3.12-5.335 7.008-9.68a44.8 44.8 0 0 1 8.992-7.655L51.556 30.339 64.004 17.89l19.112 19.12q5.104-1.784 12.664-1.784c7.56 0 9.264.592 12.664 1.776l19.56-19.112 12.44 12.448-14.664 14.664a51.2 51.2 0 0 1 16.448 17.336h24.88v17.776h-18.664q.68 5.112.784 8.44.104 3.336.104 9.335h17.784v17.776h-17.784q0 5.336-.104 9-.12 3.664-.784 8.776h18.672v17.784h-24.888a54.9 54.9 0 0 1-19.336 19.328 51.2 51.2 0 0 1-26.888 7.336M78.228 97.891h35.552V80.115H78.228zm0 35.552h35.552v-17.776H78.228z"/></svg>