<svg width="192" height="192" fill="none" xmlns="http://www.w3.org/2000/svg"><path d="M109.954 91a5.014 5.014 0 0 0-3.539 1.468 5.007 5.007 0 0 0-1.461 3.54 5 5 0 1 0 8.539-3.54A5.013 5.013 0 0 0 109.954 91Z" stroke="#000" stroke-width="10" stroke-linecap="round" stroke-linejoin="round"/><path d="M149.703 53.836A57.973 57.973 0 0 1 167.917 96a57.976 57.976 0 0 1-18.289 42.089M129.702 75.05A28.8 28.8 0 0 1 138.754 96a28.795 28.795 0 0 1-9.086 20.912M110 125v39a6 6 0 0 1-6 6H35a6 6 0 0 1-6-6V28a6 6 0 0 1 6-6h69a6 6 0 0 1 6 6v39" stroke="#000" stroke-width="12" stroke-linecap="round" stroke-linejoin="round"/></svg>