<svg xmlns="http://www.w3.org/2000/svg" width="192" height="192" viewBox="0 0 192 192"><path d="M170.4 74.4h-35.928l-.272-3.824c-.264-1.328-.528-2.4-1.328-3.464-1.864-3.728-4.528-6.92-8.256-8.784a41.6 41.6 0 0 0-13.576-4.792c-1.864-.264-4.256-.8-7.456-1.064a80 80 0 0 0-7.984-.528c-2.4.264-4.792 1.064-6.92 2.656-1.864 1.6-2.928 3.728-2.664 6.128 0 2.4 1.064 4.792 4 6.656 2.92 2.128 6.384 3.728 9.576 5.056 3.728 1.328 7.72 2.664 11.448 3.728 3.2.8 6.392 1.864 9.32 2.928 3.2 1.328 6.392 2.664 9.048 3.992 2.664 1.328 5.064 2.928 7.456 4.256 2.128 1.336 4.528 2.936 6.656 4.264s4.256 2.928 6.656 4.256c4.256 2.928 7.984 7.456 11.184 13.84 3.192 6.664 4.792 14.112 4.792 21.84 0 5.056-.8 9.84-2.4 14.64-1.6 4-3.728 7.456-6.392 10.912a48 48 0 0 1-8.784 7.72c-3.2 2.136-6.656 3.728-10.112 5.328a92 92 0 0 1-27.96 5.856c-5.856 0-11.712-.8-17.304-2.4a56 56 0 0 1-13.04-5.584c-3.2-1.864-6.128-4-8.784-6.656-1.6-1.6-3.2-3.2-4.528-5.328l-4.528 13.576H21.6V116.8h35.928c.264 1.864.536 3.296.536 4.096.264 1.328.8 2.392 1.064 3.72a20.24 20.24 0 0 0 8.248 8.792 61.6 61.6 0 0 0 13.84 5.056c1.872.264 4.264.8 7.464 1.064 2.656.264 5.32.536 7.984.536s5.056-1.072 7.184-2.664c1.864-1.6 2.928-3.728 2.664-6.128 0-2.4-1.328-4.792-4.256-6.656a49.6 49.6 0 0 0-9.856-5.056c-3.852-1.4-7.76-2.644-11.712-3.728-2.928-.8-6.12-1.864-9.048-2.928a104 104 0 0 1-9.056-3.992 184 184 0 0 1-7.448-4 136 136 0 0 1-6.392-4.256c-1.864-1.328-4.256-2.928-6.656-4.792-2.4-1.6-4.256-3.456-6.12-5.856-2.136-2.4-3.728-5.32-5.064-8.248-1.6-3.2-2.656-6.656-3.456-10.12-.8-3.728-1.336-7.456-1.064-11.44 0-7.2 1.328-13.32 4.256-18.64a43.2 43.2 0 0 1 10.384-12.52c4-3.2 8.52-5.6 13.312-7.456a112 112 0 0 1 13.312-4A72 72 0 0 1 78.024 16h4.264c8.256 0 14.912 1.064 20.232 2.664 4.528 1.328 8.784 2.928 12.776 5.32 2.664 1.6 5.064 3.728 6.928 6.392 1.6 2.128 2.656 4 3.456 5.328l4.792-14.904H170.4z"/></svg>