<svg width="192" height="192" fill="none" xmlns="http://www.w3.org/2000/svg"><path d="M121 75a4 4 0 1 1 0-8 4 4 0 0 1 0 8Zm-50 0a4 4 0 1 1 0-8 4 4 0 0 1 0 8Z" stroke="#000" stroke-width="8" stroke-linecap="round" stroke-linejoin="round"/><path d="M96 140a3 3 0 1 1 0-6 3 3 0 0 1 0 6Zm0 20a3 3 0 1 1 0-6 3 3 0 0 1 0 6Z" stroke="#000" stroke-width="6" stroke-linecap="round" stroke-linejoin="round"/><path d="M138 46.038 146.816 62 156 46.262l-18-.224Zm0 0-18-.225L129.257 30 138 46.038Z" stroke="#000" stroke-width="10" stroke-linejoin="round"/><path d="M30 101.053c0-1.408.043-2.813.129-4.213M30 101.053l39.966 18.877c6.53 2.572 14.097.578 18.815-4.959l7.506-18.131 7.507 18.131c4.718 5.537 12.284 7.531 18.814 4.959L162 101.053m-132 0V171m.129-74.16c.725-11.852 4.506-23.325 10.992-33.24 7.252-11.087 17.561-19.727 29.622-24.828A64.801 64.801 0 0 1 96 33.64c8.667 0 17.25 1.744 25.257 5.132l4.649 2.241M30.129 96.84H161.87m.129 4.213a68.76 68.76 0 0 0-.129-4.213m.129 4.213V171m-19.33-117.615a67.526 67.526 0 0 1 14.307 21.87 68.599 68.599 0 0 1 4.895 21.585M151.688 21 137.25 42.067M40.312 21 54.75 42.067" stroke="#000" stroke-width="10" stroke-linecap="round" stroke-linejoin="round"/><path d="M50 146h20" stroke="#000" stroke-width="10" stroke-linecap="round"/></svg>