<svg xmlns="http://www.w3.org/2000/svg" width="192" height="192" viewBox="0 0 192 192"><path d="M164.97 160.67v-12.159h-15.335a15.327 15.327 0 0 1-15.327 15.327 15.28 15.28 0 0 1-5.983 12.159h21.31a15.327 15.327 0 0 0 15.327-15.327m.008-38.317v10.839H27.02v-10.839a108.8 108.8 0 0 0 64.818-13.023l4.16-2.304 4.15 2.304a108.8 108.8 0 0 0 64.81 13.023m-122.6 26.158H27.025v12.159c0 8.463 6.863 15.327 15.327 15.327H63.67a15.28 15.28 0 0 1-6-12.159 15.327 15.327 0 0 1-15.319-15.327m53.651-110.45a72 72 0 0 0-6.08.272 9.2 9.2 0 0 1-6.895 10.535L64.02 53.46 51.573 68.53a9.2 9.2 0 0 1-13.375.864 68.8 68.8 0 0 0-11.167 37.637h137.93a68.95 68.95 0 0 0-32.629-58.635l15.92-21.838a3.832 3.832 0 1 0-6.272-4.391l-16.4 22.542A68.8 68.8 0 0 0 96 38.053M73.01 76.386a7.663 7.663 0 1 1-15.327 0 7.663 7.663 0 0 1 15.327 0m61.306 0a7.663 7.663 0 1 1-15.327 0 7.663 7.663 0 0 1 15.327 0M29.186 41.093a1.52 1.52 0 0 1 .936-2.295l21.486-5.192 14.079-17.038a1.52 1.52 0 0 1 2.48.16l13.999 22.39a1.52 1.52 0 0 1-.944 2.304l-21.486 5.183-14.08 17.038a1.6 1.6 0 0 1-1.12.56 1.52 1.52 0 0 1-1.36-.72L29.179 41.085m18.158-14.319-4.16 1.008-.824-1.2a3.84 3.84 0 0 1 6.28-4.4l1.12 1.649-2.416 2.935"/></svg>