<svg xmlns="http://www.w3.org/2000/svg" width="192" height="192" viewBox="0 0 192 192"><path d="M100.14 16.021c-4.132-.099-8.387.144-11.25.772-10.521 2.282-19.885 8.66-25.751 17.506-3.957 5.913-6.099 11.868-6.983 19.456-.28 2.142-.693 3.119-1.95 4.609-3.166 3.817-4.007 7.127-2.703 10.62 1.722 4.515 1.632 4.981-2.092 9.358-10.475 12.337-16.904 27.14-18.021 41.48l-.277 3.63h-1.956c-3.166 0-6.424 1.206-8.798 3.301-4.19 3.725-5.027 6.985-3.817 15.318 2.002 13.92 6.47 23.698 11.778 25.886.838.373 1.532.886 1.532 1.165 0 .233.98 1.491 2.143 2.748 1.49 1.583 2.934 2.605 4.75 3.257 2.607.977 7.075 1.025 35.939.56.372-.047 9.172.093 19.508.186 20.298.28 23.745.046 30.636-1.956l4.048-1.165 3.025 1.538 3.025 1.532 16.019.142c18.436.14 19.179.044 22.996-3.54 5.4-5.028 5.355-12.85-.045-17.924-2.235-2.095-5.683-3.579-8.29-3.579-1.862 0-3.817-1.307-4.795-3.263-1.629-3.212-2.326-8.192-2.838-19.784-1.024-25.698-4.89-44.97-12.106-60.287-2.328-5.028-2.791-6.428-3.256-10.246-2.375-19.926-13.545-34.825-29.98-40.039-2.35-.745-6.358-1.182-10.49-1.28zm-.315 5.104c4.155.064 8.172.46 10.105 1.158 14.432 5.261 23.415 17.741 25.789 35.99.605 4.61.935 5.723 3.45 11.076 6.843 14.525 10.94 34.268 11.59 55.73.326 10.894-.185 14.663-2.606 20.994-3.678 9.451-12.244 17.6-22.72 21.696-7.308 2.84-10.148 3.167-29.096 3.167H79.249l1.68-2.465c4.003-5.913 6.516-14.715 7.401-26.027l.277-4.1h-5.072l-.328 4.241c-1.07 14.06-5.399 24.626-11.218 27.373-2.002.932-2.752.979-17.603.979-15.41 0-15.543.002-17.126-1.069-4.749-3.212-4.94-9.174-.425-12.48.652-.465 2.8-1.164 4.801-1.583 9.265-1.723 18.572-9.406 19.038-15.691l.142-1.532-2.375-.141-2.42-.142-.328 1.725c-.42 2.467-5.071 7.03-9.075 8.94-3.585 1.722-3.307 1.953-6.333-4.332-3.212-6.61-4.1-10.85-4.1-18.858 0-16.294 5.773-31.234 16.946-43.99 4.702-5.4 5.632-9.077 3.444-13.406-1.071-2.002-.559-4.056 1.583-6.803 2.141-2.7 2.702-4.188 3.121-8.425.14-1.676.884-4.795 1.629-6.983C66.91 34.063 76.553 25.08 88.89 21.961c2.49-.628 6.78-.9 10.935-.836m-7.138 10.613c-.177.044-.99.771-1.847 1.628l-1.583 1.628 5.033 5.124 1.763-1.725 1.77-1.719-2.42-2.471c-1.35-1.35-2.557-2.465-2.697-2.465zm16.496 0-2.42 2.465-2.42 2.471 1.77 1.719 1.77 1.725 2.42-2.472 2.42-2.465-1.77-1.725zm-21.87 9.339c-.905.019-1.907.304-2.896.9-3.073 1.863-4.329 6.008-2.42 7.917 2.747 2.747 8.843-1.027 8.843-5.496 0-2.113-1.535-3.364-3.527-3.321m26.484.012c-.9-.006-1.248.282-1.911 1.12-1.723 2.142-1.071 4.47 2.001 7.17 2.235 1.909 4.84 2.047 6.237.232 1.164-1.443 1.213-2.558.328-4.28-1.21-2.328-3.307-3.912-5.541-4.145a10 10 0 0 0-1.114-.097m-12.621 7.408c-2.235 0-4.47.28-4.981.56-1.676.885-2.562 2.421-2.562 4.377 0 1.49.423 2.42 1.866 4.421 1.071 1.397 2.091 2.559 2.324 2.652.28.093.47 1.07.47 2.188 0 2.002-.097 2.095-2.89 4.004-1.63 1.07-3.022 2.051-3.115 2.098h-.007v.006h-.006v.013c-.001.003-.006.016-.006.02-.028.463 2.2 3.76 2.613 3.867h.019c.222-.025 1.647-.85 3.205-1.905l2.928-1.911 2.794 1.911c1.512 1.054 2.944 1.88 3.166 1.905.42 0 2.472-3.023 2.472-3.675 0-.232-1.35-1.349-3.025-2.42-2.747-1.769-3.032-2.096-3.032-3.54 0-1.163.56-2.189 2.143-4.144 1.164-1.443 2.33-3.164 2.562-3.862.698-1.816.09-4.051-1.493-5.355-1.304-1.117-1.814-1.21-5.445-1.21m-2.465 5.123h2.092c1.073 0 1.994.126 2.13.29l.012.013v.019c-.046.462-1.658 2.44-2.002 2.471l-.006-.006h-.006c-.16-.039-.7-.669-1.242-1.39zm-67.598 74.948.277 3.122c.419 4.609 1.957 10.008 4.331 14.99 1.118 2.374 2.047 4.425 2.047 4.518v.006l-.006.006v.006c-.09.124-.84.513-1.712.862-3.213 1.35-6.008 4.703-7.312 8.753-.372 1.21-1.072.605-2.561-2.375-1.863-3.677-3.21-8.237-4.28-14.43-1.444-8.473-1.169-10.944 1.531-13.458 1.49-1.396 3.028-1.95 5.542-1.95zm121.9 19.38c.123-.02.242.132.4.411.278.466 1.166 1.77 1.91 2.98 1.77 2.654 3.394 3.627 7.724 4.512 5.54 1.117 7.64 3.217 7.64 7.64 0 2.932-.745 4.42-3.212 6.236-1.21.931-1.96.974-16.998 1.113-8.613.047-16.201-.044-16.76-.276-.978-.326-.74-.604 2.658-2.839 6.657-4.376 13.547-12.292 15.781-18.11.436-1.135.651-1.635.856-1.668z"/></svg>