<svg xmlns="http://www.w3.org/2000/svg" width="192" height="192" viewBox="0 0 192 192"><path d="M100.24 18.604c-4.444-.067-9.041.207-11.708.844-13.185 3.23-23.461 12.508-27.757 25.04-.8 2.253-1.6 5.477-1.749 7.195-.444 4.386-1.038 5.933-3.32 8.718-2.31 2.844-2.842 4.942-1.687 7.016 2.34 4.475 1.333 8.269-3.704 13.868-11.94 13.156-18.107 28.623-18.107 45.453 0 8.267.946 12.65 4.383 19.465l.33.686c1.629 3.29 2.282 4.621 3.23 4.829.652.178 1.421-.18 2.695-.803.178-.059.323-.144.501-.233 4.296-1.955 9.275-6.67 9.719-9.218l.33-1.804 5.123.295-.144 1.598c-.474 6.49-10.431 14.43-20.357 16.207-2.134.445-4.42 1.159-5.13 1.633-4.83 3.407-4.622 9.569.445 12.888 1.719 1.126 1.866 1.124 18.34 1.124 15.882 0 16.651-.057 18.814-1.035 6.222-2.815 10.85-13.746 11.975-28.265l.357-4.39h5.418l-.295 4.239c-.948 11.674-3.612 20.769-7.908 26.873l-1.783 2.579H96.5c20.268 0 23.29-.36 31.112-3.292 11.2-4.237 20.36-12.646 24.3-22.394 2.578-6.549 3.14-10.462 2.784-21.722-.71-22.163-5.068-42.55-12.387-57.572-2.696-5.541-3.051-6.693-3.703-11.434-2.519-18.874-12.114-31.766-27.552-37.188-2.074-.726-6.372-1.134-10.816-1.2zm-7.613 10.947 5.48 5.096-3.793 3.587-5.363-5.302zm17.627 0 3.793 3.56-5.185 5.123-3.793-3.587zM86.86 39.208c2.13-.037 3.78 1.264 3.78 3.443 0 4.622-6.519 8.503-9.452 5.659-2.044-1.956-.71-6.25 2.579-8.176 1.055-.611 2.125-.909 3.093-.926m28.313.028c.32.001.705.036 1.187.096 2.4.237 4.652 1.866 5.926 4.266.948 1.777.915 2.933-.33 4.444-1.51 1.867-4.296 1.723-6.666-.233-3.29-2.815-3.998-5.215-2.16-7.407.71-.867 1.086-1.17 2.043-1.166m-13.484 7.654c3.882 0 4.417.086 5.81 1.241 1.718 1.334 2.338 3.646 1.598 5.542-.237.711-1.479 2.49-2.723 3.971-1.69 2.045-2.284 3.08-2.284 4.294 0 1.482.297 1.841 3.23 3.649 1.75 1.108 3.186 2.249 3.23 2.51v.007c0 .637-2.107 3.653-2.62 3.793h-.033c-.281-.052-1.783-.898-3.361-1.99l-2.99-1.954-3.142 1.955c-1.663 1.108-3.191 1.963-3.436 1.989h-.007l-.007-.007h-.007c-.004 0-.017-.006-.02-.007-.481-.212-2.738-3.46-2.758-3.97v-.035h.007v-.007l.007-.007c.03-.03.292-.206.706-.473.623-.385 1.574-1.036 2.641-1.687 2.963-1.986 3.08-2.076 3.08-4.15 0-1.155-.205-2.16-.501-2.25-.237-.118-1.334-1.305-2.49-2.757-1.54-2.074-1.989-3.02-1.989-4.56 0-2.016.952-3.616 2.73-4.534.563-.297 2.93-.563 5.33-.563zm-2.634 5.274 1.036 1.448c.574.746 1.168 1.413 1.365 1.454h.014c.364-.063 2.06-2.085 2.12-2.552v-.007l-.008-.006-.007-.02-.013-.021c-.174-.177-1.156-.295-2.284-.295zm-72.27 77.45-2.305.061c-2.667 0-4.328.558-5.899 2.01-2.903 2.607-3.2 5.162-1.66 13.903 1.156 6.4 2.581 11.105 4.596 14.897 1.57 3.081 2.338 3.706 2.723 2.462 1.392-4.178 4.382-7.647 7.819-9.04.916-.361 1.733-.775 1.831-.898l.007-.007v-.007c0-.09-1.003-2.228-2.188-4.657-2.548-5.156-4.178-10.724-4.623-15.494zm130.34 20.02-.028.007c-.215.06-.45.584-.92 1.722-2.37 6.015-9.747 14.19-16.858 18.724-3.645 2.281-3.884 2.58-2.847 2.935.593.237 8.714.327 17.93.268 16.088-.148 16.857-.181 18.161-1.16 2.637-1.866 3.436-3.404 3.436-6.426 0-4.563-2.251-6.755-8.148-7.88-4.652-.92-6.398-1.93-8.265-4.685-.474-.711-.977-1.479-1.392-2.071-.296-.445-.533-.801-.651-1.009-.147-.253-.268-.407-.385-.425z"/></svg>