<svg xmlns="http://www.w3.org/2000/svg" width="192" height="192"><path d="M96 16 30.545 45.091v43.636c0 40.364 27.927 78.109 65.455 87.273 16.727-4.073 31.49-13.818 42.763-26.982l-22.692-22.692c-14.109 9.382-33.309 7.784-45.746-4.652-14.182-14.182-14.182-37.239 0-51.42s37.239-14.182 51.42 0c12.436 12.436 13.961 31.637 4.652 45.746l21.094 21.094c8.8-14.255 13.963-31.057 13.963-48.366V45.092zm-1.491 58.232A21.82 21.82 0 0 0 74.18 96a21.818 21.818 0 0 0 43.637 0 21.82 21.82 0 0 0-23.31-21.768z"/></svg>