<svg xmlns="http://www.w3.org/2000/svg" width="192" height="192" viewBox="0 0 192 192"><path d="M94.952 33.724a38.1 38.1 0 0 0-17.04 3.496c-17.04 7.792-24.504 24.96-22.96 52.688.24 4.432.36 8.144.248 8.248-.376.376-6.696-3.376-12.104-7.168-7.336-5.152-12.592-9.328-21.864-17.392L16 69.268v62.464c.072.064 1.544-.048 3.112-.24 14.368-1.84 37.104-2.272 42.728-.8q8.952 2.328 14.8 8.184c1.92 1.92 3.48 3.8 3.48 4.184s-1.216-.544-2.72-2.04c-2.984-2.992-8.64-6.08-13.648-7.472-5.824-1.624-24.104-1.32-44.64.736l-3.112.28v23.728h62.32l-.32-2.704c-.32-2.52-1.28-6.536-1.904-8.064-.192-.456-.136-.84.12-.84.72 0 2.48 4.64 3.08 8.184l.544 3.424h90.536c.544 0-2.992-8.096-4.32-10.72-.8-1.584-1.352-2.976-1.232-3.096.336-.328 3.816 6.264 5.36 10.16l1.376 3.656H176l-.424-1.656c-1.152-4.016-6.72-14.88-10.576-20.624-5.64-8.408-9.144-12.288-24.832-27.344-7.104-6.824-9.912-12.936-9.92-21.584 0-7.32.624-8.64 7.832-16.136 9.272-9.648 15.536-16.656 15.904-17.816.688-2.176-1.72-2.808-10.688-2.856-3.52-.024-7.92-.216-9.752-.424-3.224-.376-3.52-.52-8.672-4.392-10-7.52-20.152-11.464-29.92-11.736m2.64 11.384c2.656-.12 5.36.704 7.408 2.608 2.792 2.592 3.36 6.512 1.04 7.096-1.416.36-2.92-.408-4.84-2.464-1.672-1.8-3.552-2.096-5.84-.912-1.632.848-1.936 1.56-1.936 4.552 0 1.84-.208 2.456-1.048 3.04-1.44 1.008-2.896.936-3.92-.2-1.072-1.184-1.152-5.24-.144-7.608 1.6-3.744 5.4-5.936 9.28-6.112"/></svg>