<svg xmlns="http://www.w3.org/2000/svg" width="192" height="192"><path d="M73.918 17.026c-19.325-3.993-38.098 8.35-42.091 27.675L16.75 117.663c-3.993 19.325 8.35 38.098 27.675 42.091l73.657 15.22c19.325 3.993 38.098-8.35 42.091-27.675l15.077-72.962c3.993-19.325-8.35-38.098-27.675-42.091zm2.814 9.56L126.25 36.82c-12.54 2.756-22.556 13.388-25.35 26.91a31.221 31.221 0 0 1-61.15-12.635l.1-.362-.13.19c3.512-16.993 20.02-27.847 37.012-24.335m64.47 13.323c16.993 3.511 27.847 20.019 24.335 37.012l-10.232 49.518c-2.756-12.541-13.388-22.556-26.91-25.351a31.221 31.221 0 0 1 12.635-61.149l.362.1zM36.692 65.562c2.756 12.54 13.388 22.556 26.91 25.35a31.221 31.221 0 0 1-12.635 61.15l-.362-.1.19.13c-16.993-3.512-27.847-20.02-24.335-37.012zm91.298 38.452a31.22 31.22 0 0 1 24.257 36.892l-.1.362.13-.19c-3.511 16.993-20.019 27.847-37.012 24.335L65.747 155.18c12.541-2.756 22.556-13.388 25.351-26.91a31.22 31.22 0 0 1 36.892-24.257" opacity=".6"/><path d="M76.732 26.587c-16.993-3.511-33.5 7.342-37.012 24.335l.13-.19-.1.362a31.22 31.22 0 1 0 61.15 12.635c2.794-13.522 12.81-24.155 25.351-26.91zm64.47 13.322.19.13-.362-.1a31.22 31.22 0 1 0-12.635 61.149c13.522 2.794 24.155 12.81 26.91 25.351l10.232-49.518c3.511-16.993-7.342-33.5-24.335-37.012m-10.19 14.095a3 3 0 0 1 1.486.714l18.67 16.62a2.99 2.99 0 0 1-1.048 5.073l-23.728 7.859a2.99 2.99 0 0 1-3.87-3.444l5.059-24.478a2.99 2.99 0 0 1 3.431-2.343zM36.695 65.562 26.463 115.08c-3.511 16.993 7.342 33.5 24.335 37.012l-.19-.13.362.1a31.22 31.22 0 1 0 12.635-61.149c-13.522-2.794-24.155-12.81-26.91-25.351m91.298 38.452a31.22 31.22 0 0 0-36.892 24.257c-2.794 13.522-12.81 24.155-25.351 26.91l49.518 10.232c16.993 3.511 33.5-7.342 37.012-24.335l-.13.19.1-.362a31.22 31.22 0 0 0-24.257-36.892"/></svg>