<svg width="191" height="192" fill="none" xmlns="http://www.w3.org/2000/svg"><path d="M21.885 96c0 32.585 26.278 59 58.693 59 28.676 0 52.548-20.672 57.675-48h-28.834c-4.415 11.691-15.663 20-28.84 20-17.033 0-30.84-13.879-30.84-31 0-17.12 13.807-31 30.84-31 1.006 0 2.001.049 2.984.143V37.075A59.435 59.435 0 0 0 80.578 37c-32.415 0-58.693 26.415-58.693 59ZM145 37l24 25-24 25" stroke="#000" stroke-width="12" stroke-linecap="round" stroke-linejoin="round"/><path d="m107 37 24 25-24 25" stroke="#000" stroke-width="12" stroke-linecap="round" stroke-linejoin="round"/></svg>