<svg width="192" height="192" fill="none" xmlns="http://www.w3.org/2000/svg"><path d="M22 96c0 32.585 26.415 59 59 59 28.826 0 52.823-20.672 57.976-48h-28.984c-4.438 11.691-15.745 20-28.992 20-17.12 0-31-13.879-31-31 0-17.12 13.88-31 31-31 1.012 0 2.013.049 3 .143V37.075A60.054 60.054 0 0 0 81 37c-32.585 0-59 26.415-59 59Zm124-59 24 25-24 25" stroke="#000" stroke-width="12" stroke-linecap="round" stroke-linejoin="round"/><path d="m108 37 24 25-24 25" stroke="#000" stroke-width="12" stroke-linecap="round" stroke-linejoin="round"/></svg>