<svg xmlns="http://www.w3.org/2000/svg" width="192" height="192" viewBox="0 0 192 192"><path d="m74.93 172.62-3.065-24.517q-2.49-.958-4.692-2.298t-4.31-2.874l-22.794 9.578-21.07-36.393 19.729-14.94q-.192-1.341-.192-2.586v-5.172q0-1.245.192-2.586l-19.73-14.94L40.069 39.5l22.795 9.577q2.107-1.532 4.405-2.873 2.299-1.34 4.597-2.298l3.065-24.517h42.139l3.065 24.517q2.49.958 4.692 2.298t4.31 2.873L151.93 39.5 173 75.892l-19.729 14.94q.192 1.341.192 2.586v5.172q0 1.245-.383 2.586l19.729 14.94-21.07 36.393-22.602-9.578q-2.107 1.533-4.406 2.874-2.298 1.34-4.597 2.298l-3.065 24.517zm21.453-49.801q11.109 0 18.963-7.853 7.853-7.853 7.853-18.963t-7.853-18.963-18.963-7.853q-11.301 0-19.058 7.853t-7.757 18.963q0 11.109 7.757 18.963 7.758 7.853 19.058 7.853"/></svg>