<svg width="192" height="192" fill="none" xmlns="http://www.w3.org/2000/svg"><circle cx="96" cy="96" r="15" stroke="#000" stroke-width="12" stroke-linecap="round" stroke-linejoin="round"/><circle cx="96" cy="96" r="64" stroke="#000" stroke-width="12" stroke-linecap="round" stroke-linejoin="round"/><path d="M96 32v49m0-59v10M22 96h10m64 64v10m64-74h10m-21.674-52.326-7.071 7.071m-97.58-7.07 7.07 7.07m0 90.51-7.07 7.071m97.58-7.071 7.071 7.071M67.681 27.633l3.827 9.239m-43.875 87.447 9.239-3.827m83.62 34.636 3.827 9.239m30.809-92.859 9.239-3.827m-40.048-40.048-3.827 9.239m-92.86 30.81 9.24 3.826m34.636 83.62-3.827 9.239m87.447-43.875 9.239 3.827m-12.934 3.677-42.435-24.5m-25.986 0-42.435 24.5" stroke="#000" stroke-width="12" stroke-linecap="round" stroke-linejoin="round"/></svg>