<svg xmlns="http://www.w3.org/2000/svg" width="192" height="192" viewBox="0 0 192 192"><path d="M170.22 101.46a55.5 55.5 0 0 0-19.524-38.448 54.206 54.206 0 0 0-69.397.8c-7.116 6.1-14.791 14.582-15.191 14.982a13.4 13.4 0 0 0 19.724 18.134s7.292-7.884 13.208-13.209a27.54 27.54 0 0 1 34.115-.4 28.62 28.62 0 0 1 10.25 19.925 26.06 26.06 0 0 1-6.908 19.324c-10.25 11.433-29.965 30.165-30.165 30.365a13.39 13.39 0 0 0-.4 18.916 13.1 13.1 0 0 0 9.667 4.15 13.83 13.83 0 0 0 9.274-3.759c.8-.783 20.507-19.708 31.548-31.74a51.73 51.73 0 0 0 13.799-39.04m-44.364 12.032a13.4 13.4 0 0 0-19.716-18.14s-7.292 7.89-13.208 13.207a27.26 27.26 0 0 1-34.107.4 28.62 28.62 0 0 1-10.266-19.908 26.06 26.06 0 0 1 6.907-19.332c10.25-11.433 29.965-30.18 30.157-30.365a13.392 13.392 0 1 0-18.532-19.316c-.99.776-20.507 19.708-31.548 31.74a53 53 0 0 0-13.807 39.04 55.5 55.5 0 0 0 19.524 38.44 53.4 53.4 0 0 0 34.315 12.232 51.97 51.97 0 0 0 35.09-13.016c7.108-6.108 14.791-14.59 15.191-14.983"/></svg>