<svg xmlns="http://www.w3.org/2000/svg" width="192" height="192" viewBox="0 0 192 192"><path d="M157.28 133.11q0 9.192-4.085 16.34c-2.724 5.447-6.809 9.532-11.574 13.617-4.766 4.085-10.894 7.49-17.703 9.532-6.808 2.043-14.298 3.404-22.468 3.404-7.49 0-14.298-.68-19.745-1.361-6.128-.681-11.574-2.043-17.021-3.405s-10.213-4.085-14.98-6.127c-4.765-2.723-9.531-6.128-14.978-9.532l23.83-21.107c6.808 5.447 13.617 8.851 20.426 10.894s13.617 3.404 21.106 3.404c3.404 0 6.128-.68 8.851-1.362 2.723-.68 5.447-2.042 7.49-3.404 2.042-1.362 3.403-3.404 4.765-4.766q2.043-3.064 2.043-6.127c0-2.724-.681-4.767-1.362-6.81-.68-2.042-2.723-4.084-5.447-5.446-2.723-2.043-6.127-3.404-10.894-5.447-4.766-2.042-10.213-4.085-17.702-6.127-6.127-2.043-12.255-4.085-18.383-6.809s-10.894-6.128-14.979-9.532-8.17-8.17-10.213-12.936c-3.404-6.127-4.766-12.255-4.766-19.064q0-10.212 4.085-18.383 4.086-8.17 12.255-14.298c4.766-3.404 10.894-6.808 17.702-8.85s14.298-3.405 21.787-3.405c12.936 0 24.51 1.362 33.362 4.766s17.022 7.49 23.83 13.617l-23.148 21.106c-4.085-3.404-8.85-6.809-14.298-8.851-5.447-2.043-11.575-2.724-18.383-2.724-3.404 0-6.127.681-8.85 1.362-3.405.681-5.447 2.043-7.49 3.404-2.043 1.362-3.404 3.405-4.766 5.447q-2.043 3.064-2.043 6.128c0 2.723.681 4.766 2.043 6.808.681 2.043 2.723 3.405 5.447 5.447 2.723 2.043 6.128 3.405 10.894 5.447s10.213 4.085 17.02 6.128c8.852 2.723 15.66 5.446 21.788 8.851 6.128 3.404 10.894 6.808 14.979 10.893s6.808 8.17 8.85 12.936c2.043 4.766 2.724 10.213 2.724 16.34z"/></svg>