<svg width="192" height="192" fill="none" xmlns="http://www.w3.org/2000/svg"><path d="M41 106c0 42 55 64 55 64s55-22 55-64V87a6 6 0 0 0-6-6H47a6 6 0 0 0-6 6v19Zm70-2-15 15m0 0-15-15m15 15 15 15m-15-15-15 15M68 22l7 11m42 0 7-11M48 80v-4c0-12.2 5.057-23.9 14.059-32.527C71.06 34.846 83.269 30 96 30c12.73 0 24.939 4.846 33.941 13.473C138.943 52.1 144 63.8 144 76v4" stroke="#000" stroke-width="12" stroke-linecap="round" stroke-linejoin="round"/><circle cx="79" cy="59" r="4" stroke="#000" stroke-width="8" stroke-linecap="round" stroke-linejoin="round"/><circle cx="113" cy="59" r="4" stroke="#000" stroke-width="8" stroke-linecap="round" stroke-linejoin="round"/></svg>