<svg xmlns="http://www.w3.org/2000/svg" width="192" height="192"><path d="M146.51 19.954H87.52L58.025 71.036l29.495 51.082h6.003a4.329 4.329 0 1 1 5.137 0h47.85l29.495-51.082z" opacity=".45"/><path d="M40.531 32.075a59.3 59.3 0 0 0-18.759 30.303A75 75 0 0 0 16 64.858v89.872a17.28 17.28 0 0 0 17.316 17.316h88.987c2.916-5.001 4.74-10.122 6.251-14.43a79.86 79.86 0 0 0 2.886-40.404 87 87 0 0 0 11.544-23.088 107 107 0 0 0 2.886-12.987 76.5 76.5 0 0 0-11.544-2.886 73.5 73.5 0 0 0-25.974 1.443 73.5 73.5 0 0 0-25.974-14.43 72 72 0 0 0-14.43-2.886 71.57 71.57 0 0 0-27.417-30.303m2.362 57.004a4.33 4.33 0 0 1 4.132 4.323 4.33 4.33 0 0 1-4.33 4.33 4.329 4.329 0 1 1 .198-8.653m53.39 25.253a4.33 4.33 0 0 1 4.132 4.323 4.33 4.33 0 0 1-4.329 4.33 4.329 4.329 0 1 1 .198-8.653"/></svg>