<svg xmlns="http://www.w3.org/2000/svg" width="192" height="192" viewBox="0 0 192 192"><path d="M163.84 54.592h-32.912C130.096 33.152 114.752 16 95.984 16 77.2 16 61.904 33.144 61.08 54.592H28.144a3.04 3.04 0 0 0-2.96 3.08c1.507 35.011 3.06 70.021 4.736 105.02a13.97 13.97 0 0 0 13.04 13.248v.056h104.98v-.056a14.32 14.32 0 0 0 13.704-13.32c1.801-34.978 3.495-69.961 5.184-104.94a3.04 3.04 0 0 0-2.984-3.08M95.988 25.368c14.897 1.421 26.061 14.275 25.384 29.224H70.636c-.72-14.952 10.448-27.826 25.352-29.224m25.944 110.36a20.64 20.64 0 0 1-12.728 16.936 32.8 32.8 0 0 1-13.728 2.352 45.6 45.6 0 0 1-18.688-4.856 56 56 0 0 1-7.472-5.12c-.584-.552-.688-.824-.264-1.4.591-1.035 2.594-3.738 3.032-4.512a1.104 1.104 0 0 1 1.704-.176c.697.658 8.827 8.08 21.728 8.72 10.16-.136 17.456-4.704 18.8-11.76 1.384-7.68-4.672-14.392-16.504-18.128a128 128 0 0 1-14.848-5.896A19.44 19.44 0 0 1 71.596 93.16c1.664-11.385 11.836-19.554 23.312-18.72a42.4 42.4 0 0 1 16.512 3.4 40 40 0 0 1 6.496 3.568q1.04.751.4 1.68c-.215.595-1.77 2.85-2.528 4.144q-.552.864-1.6.216a34.4 34.4 0 0 0-19.144-5.952c-7.713-.693-14.615 4.786-15.688 12.456-.088 6.4 4.688 11.056 15.032 14.56 21.04 6.784 29.064 14.696 27.536 27.208z"/></svg>