<svg width="192" height="192" fill="none" xmlns="http://www.w3.org/2000/svg"><path d="M25 37c0-6.627 5.373-12 12-12h118c6.627 0 12 5.373 12 12v118c0 6.627-5.373 12-12 12H37c-6.627 0-12-5.373-12-12V37Z" stroke="#000" stroke-width="12" stroke-linecap="round" stroke-linejoin="round"/><path d="M76 101h10v10H76v-10Zm-15 30h10v10H61v-10Zm0-60h10v10H61V71Zm75 30h10v10h-10v-10Zm-15 30h10v10h-10v-10Zm0-60h10v10h-10V71Zm-75 30h10v10H46v-10Zm60 0h10v10h-10v-10Zm-15 30h10v10H91v-10Zm0-60h10v10H91V71ZM25 81h16m110 0h16" stroke="#000" stroke-width="10" stroke-linecap="round" stroke-linejoin="round"/></svg>