<svg xmlns="http://www.w3.org/2000/svg" width="192" height="192"><path d="M103.01 16.001c12.935-.07 27.494 2.767 43.667 8.522l-6.797 25.87c-15.02-5.315-27.235-7.972-36.658-7.972-7.612 0-13.617 1.505-18 4.523-4.39 3.019-6.577 7.119-6.577 12.293 0 5.606 2.015 10.066 6.036 13.367 4.1 3.309 11.532 6.366 22.32 9.165q23.821 6.148 33.85 17.035 10.029 10.781 10.027 29.759 0 22.965-15.522 35.255Q119.94 176 91.258 176c-15.6 0-32.307-3.52-50.134-10.568l7.98-25.118c9.848 3.52 17.899 5.997 24.147 7.44q9.382 2.046 17.788 2.046 12.185 0 18.76-5.175 6.689-5.28 6.687-14.558c0-3.95-.933-7.259-2.806-9.917-1.866-2.657-5.026-5.033-9.486-7.118-4.453-2.156-10.89-4.273-19.293-6.358-14.017-3.379-24.264-8.624-30.731-15.742-6.468-7.11-9.706-16.495-9.706-28.136q0-22.32 15.311-34.502c10.278-8.192 24.695-12.293 43.235-12.293"/></svg>