<svg xmlns="http://www.w3.org/2000/svg" width="192" height="192" viewBox="0 0 192 192"><path d="m77.52 21.246 1.728 7.007a70.2 70.2 0 0 0-19.344 7.99l-3.696-6.193a76.2 76.2 0 0 1 21.303-8.813m36.96 0-1.72 7.007a70.2 70.2 0 0 1 19.337 8l3.747-6.194a77 77 0 0 0-21.355-8.812zm-84.4 34.942a77 77 0 0 0-8.822 21.338l7.007 1.736A70.2 70.2 0 0 1 36.247 59.9zm-3.85 39.817q0-5.27.778-10.454l-7.127-1.096a77 77 0 0 0 0 23.083l7.127-1.069a68.4 68.4 0 0 1-.787-10.463m109.58 65.921-3.696-6.16a69.3 69.3 0 0 1-19.318 8l1.728 7.007a77 77 0 0 0 21.286-8.847m29.996-65.921q0 5.262-.787 10.463l7.127 1.078a77 77 0 0 0 0-23.091L165 85.542a68.4 68.4 0 0 1 .787 10.455m4.962 18.471-7.007-1.737a70.2 70.2 0 0 1-8 19.37l6.195 3.713a77 77 0 0 0 8.812-21.346m-64.295 50.53a70.2 70.2 0 0 1-20.91 0l-1.078 7.135a77 77 0 0 0 23.057 0zm45.72-27.61a69.3 69.3 0 0 1-14.783 14.767l4.278 5.818a77 77 0 0 0 16.333-16.256zM137.393 39.82a70.2 70.2 0 0 1 14.793 14.784l5.818-4.329a77 77 0 0 0-16.281-16.273zM39.807 54.604A70.2 70.2 0 0 1 54.6 39.82l-4.33-5.817a77 77 0 0 0-16.28 16.273zm122.12 1.583-6.194 3.713a69.3 69.3 0 0 1 8.008 19.318l7.007-1.728a77 77 0 0 0-8.821-21.303M85.526 26.995a70.2 70.2 0 0 1 20.91 0l1.078-7.127a77 77 0 0 0-23.066 0zM43.51 159.905l-14.904 3.465 3.482-14.904-7.016-1.643-3.482 14.904a7.212 7.212 0 0 0 8.659 8.684l14.904-3.43zm-16.957-19.507 7.05 1.617 2.404-10.327a68.4 68.4 0 0 1-7.769-18.942l-7.007 1.72a77.5 77.5 0 0 0 7.101 18.309zm33.7 15.614-10.327 2.413 1.634 7.041 7.597-1.771a77 77 0 0 0 18.31 7.084l1.728-7.007a69.3 69.3 0 0 1-18.882-7.803zm35.745-122.58a62.584 62.584 0 0 0-62.55 62.593 62.7 62.7 0 0 0 9.608 33.255l-6.023 25.684L62.7 148.95a62.584 62.584 0 0 0 86.283-19.601 62.584 62.584 0 0 0-19.584-86.283 62.7 62.7 0 0 0-33.401-9.626z"/></svg>