<svg width="192" height="192" fill="none" xmlns="http://www.w3.org/2000/svg"><path d="M141.186 57.905c-6.762-8.097-18.007-11.848-31.262-10.429-13.256 1.42-27.435 7.893-39.419 17.996-11.984 10.104-20.791 23.01-24.484 35.879-3.693 12.869-1.969 24.648 4.793 32.744 4.55 5.448 11.02 9.187 19.04 11.002 8.022 1.815 17.436 1.671 27.707-.423s21.197-6.098 32.154-11.783c10.957-5.685 28.155-13.605 34.288-26.891m-22.817-48.095c6.138 7.349 4.835 18.6-2.91 25.13-7.745 6.529-18.999 5.864-25.136-1.485-6.138-7.35-4.835-18.6 2.91-25.13 7.744-6.53 18.998-5.865 25.136 1.485Zm0 0c-22.352-25.175-67.977 2.09-66.624 50.167C75.915 156.149 155 130 164.003 106m0 0c9.315-22.493 8.043-46.116-5.677-62.545-22.024-26.371-67.781-24.223-102.203 4.797-34.421 29.02-44.472 73.922-22.449 100.293 22.024 26.371 67.781 24.223 102.203-4.796 12.976-10.941 22.489-24.138 28.126-37.749Z" stroke="#000" stroke-width="12" stroke-linecap="round" stroke-linejoin="round"/></svg>