<svg xmlns="http://www.w3.org/2000/svg" width="192" height="192" viewBox="0 0 192 192"><path d="M96.02 111.79a23.84 23.84 0 0 0 23.88-23.936l.088-47.92a23.92 23.92 0 0 0-23.936-23.936 23.92 23.92 0 0 0-23.936 23.944v47.912a23.92 23.92 0 0 0 23.936 23.936zm42.312-23.936c0 23.936-20.28 40.72-42.312 40.72S53.652 112.838 53.652 88.87c0 0 0-8.152-6.624-8.08-6.624.024-6.912 7.064-6.912 7.064 0 27.216 21.712 49.76 47.92 53.672v25.656s-.832 8.688 8.008 8.816c8.72.096 7.92-8.816 7.92-8.816v-25.656c26.208-3.824 47.92-26.36 47.92-53.68 0 0 .032-7.096-6.528-7-6.72.096-7.04 7.008-7.04 7.008z"/></svg>