<svg xmlns="http://www.w3.org/2000/svg" width="192" height="192" viewBox="0 0 192 192"><path d="M132.68 19.23c-.482.12-1.004.361-1.165.522-.16.16-.361.281-.481.281-.282 0-1.767 1.647-2.21 2.45-.32.602-.36 1.807-.44 14.015-.041 12.168-.041 13.453.32 14.296.201.522.482 1.084.603 1.204.12.12.482.523.803.844 1.405 1.526 2.209 1.807 5.421 1.807 2.29 0 2.771-.08 3.534-.442 1.205-.642 2.249-1.686 3.052-3.092.361-.602.361-1.687.361-14.135 0-15.139.08-14.256-1.606-15.983-1.004-1.044-1.566-1.365-2.891-1.727-1.165-.321-4.056-.321-5.26 0zm-77.183.04c-1.687.321-3.534 1.767-4.377 3.373-.402.804-.442 1.245-.442 14.296 0 15.1-.08 14.176 1.566 15.983 1.727 1.848 4.658 2.53 7.75 1.727 1.888-.482 3.133-1.446 4.137-3.172l.602-1.085V36.86c0-10.642-.04-13.573-.281-13.654-.16-.04-.281-.28-.281-.482 0-.481-1.928-2.49-2.972-3.052-.562-.32-1.285-.401-2.971-.481-1.245-.04-2.53 0-2.811.04zM26.343 32c-3.373 1.084-6.104 3.775-6.987 6.867-.362 1.285-.522 124.81-.12 126.22.4 1.486 1.244 3.414 1.766 3.976.12.12.442.482.683.763 1.164 1.325 2.81 2.329 4.698 2.85 1.125.322 7.229.322 69.914.282 58.108-.04 68.83-.12 69.633-.361.522-.161 1.004-.362 1.084-.442.04-.08.482-.321.964-.562 1.325-.683 3.173-2.61 3.855-4.056 1.245-2.73 1.165 1.245 1.165-65.176 0-63.088 0-63.007-.803-64.533-.12-.241-.362-.723-.522-1.085-.763-1.686-4.498-4.578-5.904-4.578-.24 0-.522-.08-.562-.2-.08-.12-3.253-.201-8.875-.201h-8.714l-.08 10.4c-.04 7.19-.16 10.562-.321 10.844-.12.24-.442.924-.723 1.486-.522 1.124-2.771 3.534-3.293 3.534-.16 0-.321.08-.321.2s-.12.201-.281.201-.563.16-.924.321c-.321.161-.803.322-1.044.322s-.562.12-.723.28c-.402.402-7.55.362-8.594-.04-1.325-.521-3.413-1.606-3.413-1.766 0-.08-.12-.16-.281-.16-.241 0-.763-.563-2.29-2.33-.24-.281-.44-.643-.44-.803s-.081-.281-.202-.281c-.12 0-.2-.12-.2-.281s-.161-.563-.322-.924c-.16-.321-.321-.803-.321-1.084 0-.241-.08-.522-.2-.603s-.202-3.574-.202-9.718v-9.638h-53.65v9.116c0 9.92-.04 10.401-1.245 12.891-1.045 2.129-2.892 4.016-5.06 5.02-.482.2-1.004.482-1.205.562-.2.08-1.285.281-2.41.402-2.73.32-5.943 0-7.509-.763-.602-.281-1.165-.522-1.245-.522s-.24-.12-.442-.281c-.16-.161-.682-.563-1.124-.924-.803-.643-2.29-2.49-2.771-3.534-1.084-2.289-1.004-1.566-1.084-12.128l-.08-9.879-9.317.04c-5.422 0-9.598.12-9.96.241zm136.58 39.555c.16.2.241 12.328.2 45.78l-.04 45.5-66.942.04c-53.41.04-66.983 0-67.103-.201-.201-.322-.241-90.555-.04-91.078.12-.322 6.224-.322 66.942-.322 55.94 0 66.862.04 67.063.281zm-62.405 12.57-.602.2v8.594c0 6.385.08 8.674.24 8.834.201.201 2.651.241 9.679.241 9.156 0 9.437 0 9.798-.441.321-.402.361-1.165.361-8.594 0-6.947-.04-8.232-.32-8.594-.322-.401-.603-.442-9.438-.482-5.823-.04-9.316.04-9.718.16zm29.034-.121c-.321.04-.602.24-.602.401 0 .16-.08.322-.201.322s-.2 2.85-.2 8.111c0 7.108.04 8.193.36 8.634l.362.522h19.115l.24-.562c.161-.402.242-2.931.242-8.594 0-6.626-.04-8.152-.321-8.473-.282-.402-.643-.402-9.357-.442-4.98 0-9.317 0-9.638.08zm-86.941 25.82-.562.523v8.232c0 7.951 0 8.232.442 8.674.401.402.722.442 9.678.442 8.714 0 9.276-.04 9.597-.402.321-.361.362-1.285.362-8.875v-8.473l-.643-.321c-.522-.281-1.968-.321-9.477-.321h-8.835zm28.793 0-.522.523v8.192c0 7.71.04 8.232.402 8.674.401.442.441.442 9.678.442 7.91 0 9.316-.04 9.678-.322.401-.32.441-.602.481-7.95.04-4.177 0-8.032-.08-8.554-.24-1.567-.08-1.567-10.24-1.567l-8.875.04zm29.114-.2-.602.321v8.554c0 7.91.04 8.593.361 8.834.281.241 2.249.282 9.558.282h9.196l.482-.482c.441-.482.481-.563.481-8.755v-8.232l-.602-.442c-.602-.441-.843-.441-9.437-.441-7.43 0-8.915.04-9.437.32zm28.994-.08c-.964.562-.964.562-.964 8.955 0 7.83 0 8.072.442 8.594l.442.562h9.236c8.995 0 9.236 0 9.718-.442s.482-.482.482-8.513c0-4.458-.04-8.233-.12-8.434-.362-.923-.884-.963-10.04-.963-6.144 0-8.834.08-9.155.24zM42.49 135.406c-.442.441-.442.722-.442 8.754v8.273l.603.441c.602.442.883.442 9.397.442 8.754 0 9.437-.04 9.878-.723.08-.12.161-3.975.161-8.594 0-7.83-.04-8.393-.402-8.714-.361-.321-1.325-.361-9.597-.361-9.196 0-9.196 0-9.638.482zm28.873-.04-.482.401v16.706l.562.442c.563.441.763.441 9.397.441 9.879 0 9.96 0 10.2-1.325.08-.401.08-4.176.08-8.433-.04-7.228-.08-7.75-.481-8.192-.402-.442-.522-.442-9.598-.442-8.674 0-9.236.04-9.678.402m28.914-.04c-.321.36-.361 1.284-.361 8.874v8.473l.642.322c.522.28 1.968.32 9.437.32 8.554 0 8.795 0 9.397-.44l.602-.443v-16.706l-.482-.401c-.441-.362-1.003-.402-9.678-.402-8.633 0-9.236 0-9.557.402zm28.713.16c-.442.562-.442.803-.442 8.634v8.071l1.125 1.125h18.07l1.125-1.044v-8.032c0-7.991-.04-8.674-.723-9.116-.12-.08-4.377-.16-9.477-.16h-9.236z"/></svg>