<svg width="192" height="192" fill="none" xmlns="http://www.w3.org/2000/svg"><g clip-path="url(#simply_you_icons__a)"><path d="M61.308 115.607a37.997 37.997 0 0 0 53.707-1.875 12.004 12.004 0 0 1 8.358-3.809 12 12 0 0 1 9.195 20.177A62.002 62.002 0 0 1 25.261 89.98 62 62 0 0 1 41.88 45.532c-27.873 29.89-26.238 76.716 3.652 104.588 29.89 27.873 76.715 26.238 104.588-3.652 27.873-29.89 26.238-76.715-3.652-104.588-10.474-9.768-24.543-14.82-39.112-14.046-14.569.774-28.444 7.312-38.573 18.174-5.016 5.378-9.169 11.462-12.222 17.905-3.053 6.443-4.947 13.118-5.573 19.644-.626 6.526.027 12.776 1.924 18.392 1.896 5.617 4.997 10.489 9.127 14.34" stroke="#000" stroke-width="12" stroke-linecap="round" stroke-linejoin="round"/></g><defs><clipPath id="simply_you_icons__a"><path fill="#fff" d="M0 0h192v192H0z"/></clipPath></defs></svg>