<svg xmlns="http://www.w3.org/2000/svg" width="192" height="192" viewBox="0 0 192 192"><path d="M59.686 150.4h71.961c3.636 0 6.57 1.857 6.57 4.167v14.27c0 2.31-2.934 4.159-6.57 4.159H59.695c-3.285 0-5.92-1.857-5.92-4.158v-14.271c0-2.31 2.635-4.167 5.911-4.167m91.015-30.92h14.278a4.146 4.146 0 0 1 4.158 4.158v14.279a4.153 4.153 0 0 1-4.158 4.167H150.7a4.15 4.15 0 0 1-4.158-4.167v-14.271a4.146 4.146 0 0 1 4.158-4.158zm-30.92 0h14.27a4.153 4.153 0 0 1 4.167 4.158v14.279a4.155 4.155 0 0 1-4.167 4.167h-14.27a4.15 4.15 0 0 1-4.167-4.167v-14.271a4.15 4.15 0 0 1 4.166-4.158zm-30.92 0h14.27a4.146 4.146 0 0 1 4.158 4.158v14.279a4.153 4.153 0 0 1-4.158 4.167h-14.27a4.16 4.16 0 0 1-4.167-4.167v-14.271a4.15 4.15 0 0 1 4.166-4.158m-30.928 0h14.28a4.153 4.153 0 0 1 4.166 4.158v14.271a4.155 4.155 0 0 1-4.167 4.167H57.932a4.16 4.16 0 0 1-4.158-4.167v-14.271a4.146 4.146 0 0 1 4.158-4.158m-30.92 0h14.271a4.146 4.146 0 0 1 4.158 4.158v14.271a4.153 4.153 0 0 1-4.158 4.167h-14.27a4.15 4.15 0 0 1-4.167-4.167v-14.271a4.15 4.15 0 0 1 4.166-4.158m123.7-30.928h14.271a4.15 4.15 0 0 1 4.158 4.167v14.27a4.153 4.153 0 0 1-4.158 4.167h-14.27a4.16 4.16 0 0 1-4.167-4.166V92.727a4.155 4.155 0 0 1 4.166-4.167m-30.928 0h14.28a4.153 4.153 0 0 1 4.157 4.167v14.27a4.153 4.153 0 0 1-4.158 4.167h-14.279a4.15 4.15 0 0 1-4.158-4.166V92.727a4.153 4.153 0 0 1 4.158-4.167m-30.92 0h14.271a4.155 4.155 0 0 1 4.167 4.167v14.27a4.155 4.155 0 0 1-4.167 4.167h-14.27a4.15 4.15 0 0 1-4.167-4.166V92.727a4.155 4.155 0 0 1 4.166-4.167m-30.92 0h14.271a4.15 4.15 0 0 1 4.158 4.167v14.27a4.153 4.153 0 0 1-4.158 4.167h-14.27a4.15 4.15 0 0 1-4.167-4.166V92.727a4.155 4.155 0 0 1 4.166-4.167m-30.928 0h14.271a4.155 4.155 0 0 1 4.167 4.167v14.27a4.155 4.155 0 0 1-4.167 4.167h-14.27a4.16 4.16 0 0 1-4.159-4.166V92.727a4.153 4.153 0 0 1 4.158-4.167m1.823-69.565h134.32c4.637 0 8.367 3.824 8.367 8.581v44.035a8.47 8.47 0 0 1-8.367 8.573H28.839a8.47 8.47 0 0 1-8.359-8.573V27.576a8.47 8.47 0 0 1 8.359-8.581"/></svg>