<svg width="192" height="192" fill="none" xmlns="http://www.w3.org/2000/svg"><path d="M31.001 167a6 6 0 0 1-6-6V43a6 6 0 0 1 6-6H48v-6a6 6 0 0 1 6-6h14a6 6 0 0 1 6 6v6h42v-6a6 6 0 0 1 6-6h14a6.002 6.002 0 0 1 6 6v6h19a6.002 6.002 0 0 1 6 6l-.001 118a6.003 6.003 0 0 1-1.757 4.243 6.003 6.003 0 0 1-4.243 1.757H31.001Z" stroke="#000" stroke-width="12" stroke-linecap="round" stroke-linejoin="round"/><path d="M25 61h142M60 91h-6a5 5 0 0 0 0 10h6a5 5 0 0 0 0-10Zm0 36h-6a5 5 0 0 0 0 10h6a5 5 0 0 0 0-10Zm39-36h-6a5 5 0 0 0 0 10h6a5 5 0 0 0 0-10Zm0 36h-6a5 5 0 0 0 0 10h6a5 5 0 0 0 0-10Zm39-36h-6a5 5 0 0 0 0 10h6a5 5 0 0 0 0-10Zm0 36h-6a5 5 0 0 0 0 10h6a5 5 0 0 0 0-10Z" stroke="#000" stroke-width="10" stroke-linecap="round" stroke-linejoin="round"/></svg>