<svg width="192" height="192" fill="none" xmlns="http://www.w3.org/2000/svg"><circle cx="52" cy="52" r="30" stroke="#000" stroke-width="12" stroke-linecap="round" stroke-linejoin="round"/><circle cx="52" cy="140" r="30" stroke="#000" stroke-width="12" stroke-linecap="round" stroke-linejoin="round"/><path d="M61 140c0-1.755-.462-3.48-1.34-5M23 140a18.999 18.999 0 0 0 36.554 7.271A18.999 18.999 0 0 0 61 140" stroke="#000" stroke-width="10" stroke-linecap="round" stroke-linejoin="round"/><path d="M111 29a6 6 0 0 1 6-6h46a6 6 0 0 1 6 6v46a6 6 0 0 1-6 6h-46a6 6 0 0 1-6-6V29Zm-2.803 105.769a6.074 6.074 0 0 1 2.29-6.441l25.028-18.193a5.919 5.919 0 0 1 6.97 0l25.028 18.193a6.074 6.074 0 0 1 2.29 6.441l-7.736 29.729c-.69 2.653-3.062 4.502-5.775 4.502h-34.584c-2.713 0-5.085-1.849-5.775-4.502l-7.736-29.729Z" stroke="#000" stroke-width="12" stroke-linecap="round" stroke-linejoin="round"/></svg>