<svg xmlns="http://www.w3.org/2000/svg" width="192" height="192" viewBox="0 0 192 192"><path d="M93.601 175.89c-2.208-.224-4.776-1.168-14.272-5.224-17.592-7.52-26.048-12.816-35.424-22.192-10.04-10.04-15.6-19.888-18.104-32.112-.392-1.92-.456-6.44-.56-36.304-.072-20.928-.016-34.976.16-36.344.488-4.12 3.04-7.872 6.48-9.552 1.44-.704 54.544-16.8 58.504-17.736 2.408-.56 8.448-.568 11.056 0 3.448.744 57.048 16.96 58.648 17.736 3.304 1.616 5.968 5.416 6.456 9.224.336 2.616.32 63.92-.016 68.864a48 48 0 0 1-5.192 18.32c-1.08 2.152-4.184 7.28-5.4 8.936-7.056 9.56-17.712 18.664-28.32 24.184-6.592 3.432-23.376 10.744-26.92 11.736-1.928.536-4.632.72-7.096.464m8.264-29.52c3.32-.88 6.792-2.792 9.176-5.04 3.864-3.64 5.488-7.312 5.488-12.456.008-4.808-1.392-8.352-4.56-11.496-2.368-2.36-4.608-3.656-10.616-6.104-8.512-3.48-10.408-5.136-10.408-9.088 0-7.328 12.096-9.12 21.12-3.12.864.56 1.68.992 2.024.936s.16-8.68-.048-11.024l-1.68-.904c-7.4-4-17.496-4.16-24.64-.4-2.896 1.52-6.456 5.144-7.8 7.944-3.856 8.016-1.464 16.68 5.976 21.632 1.056.696 4.48 2.416 7.6 3.808 8.416 3.76 9.904 4.952 10.24 8.16.4 3.848-2.048 6.36-7.024 7.232-4.8.832-10.456-.88-16.296-4.92-1.456-1.008-2.776-1.76-2.92-1.672-.16.096-.272 2.44-.272 5.584v5.416l1.336.976c2.72 1.984 7.256 3.92 11.264 4.816 2.504.56 9.544.392 12.04-.28m58.16-90.078c-.072-12.176-.096-12.704-.656-13.784-.76-1.48-2.656-2.72-5.2-3.424a4848 4848 0 0 1-27.808-8.32c-17.296-5.2-26.52-7.84-28.072-8.048-3.872-.504-5.416-.152-24.28 5.52-9.552 2.88-22.136 6.648-27.968 8.4-11.448 3.416-12.368 3.816-13.44 5.872-.56 1.08-.592 1.56-.664 13.784l-.08 12.672h128.25z"/></svg>