<svg width="192" height="192" fill="none" xmlns="http://www.w3.org/2000/svg"><path d="M134 59c0-4.859-.983-9.67-2.893-14.16a36.934 36.934 0 0 0-8.237-12.003 38.093 38.093 0 0 0-12.328-8.02A38.891 38.891 0 0 0 96 22c-4.99 0-9.932.957-14.542 2.817a38.085 38.085 0 0 0-12.328 8.02 36.95 36.95 0 0 0-8.237 12.004A36.156 36.156 0 0 0 58 59c0 27 30 33.856 38 37 8 3.144 38 10 38 37 0 4.859-.983 9.67-2.893 14.159a36.938 36.938 0 0 1-8.237 12.004 38.099 38.099 0 0 1-12.328 8.021A38.9 38.9 0 0 1 96 170a38.9 38.9 0 0 1-14.542-2.816 38.093 38.093 0 0 1-12.328-8.021 36.956 36.956 0 0 1-8.237-12.004A36.154 36.154 0 0 1 58 133" stroke="#000" stroke-width="12" stroke-linecap="round" stroke-linejoin="round"/><path d="m49 137 10-10 10 10m54-82 10 10 10-10" stroke="#000" stroke-width="12" stroke-linecap="round" stroke-linejoin="round"/></svg>