<svg xmlns="http://www.w3.org/2000/svg" width="192" height="192" viewBox="0 0 192 192"><path d="m90.801 30.292-46.328.037c-6.833-.037-12.344.808-13.226 9.258 1.286-.147 2.645-.184 4.078-.147l46.328-.037L95.798 54.21l57.975.037c7.826 0 12.86 6.282 13.08 13.226v79.173c4.298-.44 9.147-3.013 9.147-9.81V58.362c-.257-6.944-5.29-13.226-13.079-13.226l-57.975-.037zm-65.396 131.38c-6.43 0-9.405-1.763-9.405-10.434V56.524c.22-10.287 6.025-11.242 13.336-11.206l46.328-.037 14.145 14.806 57.975.037c7.825 0 12.859 6.282 13.079 13.226v78.475c0 7.495-5.915 9.883-10.471 9.883 0 0-83.362-.037-125.02 0z"/></svg>