<svg width="192" height="192" fill="none" xmlns="http://www.w3.org/2000/svg"><path d="M64 95c16 27 44 32 44 32" stroke="#000" stroke-width="10" stroke-linecap="round"/><path d="M22 56c6 6 16 6 16 6m-1 79c4-6 10-10 10-10m36 39c5-4.5 7-10 7-10m58-18c2 6 9 13 9 13" stroke="#000" stroke-width="12" stroke-linecap="round"/><path d="M122 54a10 10 0 1 0 0 20" stroke="#000" stroke-width="10" stroke-linecap="round"/><path d="M102 158c37.555 0 68-30.445 68-68s-30.445-68-68-68-68 30.445-68 68 30.445 68 68 68Z" stroke="#000" stroke-width="12" stroke-linecap="round"/><path d="M122 52a3 3 0 1 1 0 6 3 3 0 0 1 0-6Z" stroke="#000" stroke-width="6" stroke-linecap="round"/><path d="M72.588 73.412c1.073 1.072 3.245.637 4.853-.97 1.608-1.609 2.043-3.781.97-4.854-1.072-1.072-3.244-.637-4.852.97-1.608 1.609-2.043 3.781-.97 4.854Zm55 39c1.072 1.072 3.245.638 4.853-.971 1.609-1.608 2.043-3.781.971-4.853-1.072-1.072-3.245-.638-4.853.971-1.609 1.608-2.043 3.781-.971 4.853Z" stroke="#000" stroke-width="8" stroke-linecap="round"/></svg>