<svg xmlns="http://www.w3.org/2000/svg" width="192" height="192" viewBox="0 0 192 192"><path d="M74.569 153.36c-26.424-1.968-38.432-9.08-41.656-24.664-1.808-8.76.016-20.504 4.592-29.6 16.624-33.008 64.465-43.68 97.417-21.744 13.424 8.936 22.576 22.96 24.528 37.56.592 4.456.256 12.28-.68 15.752-3.568 13.216-14.384 19.8-36.672 22.328-5.232.592-40.8.872-47.529.368m30.432-31.648a33.6 33.6 0 0 0 11.352-5.272c2.4-1.712 2.616-1.976 2.08-2.6l-8.632-9.752 1.32-1.496c1.496-1.712.944-1.68 9.296-.48 2.976.432 5.504.688 5.632.56.12-.12.2-2.224.184-4.664-.048-5.224-.832-7.76-3.832-12.304-3.424-5.208-10.064-9.632-17.392-11.6-4.872-1.304-13.232-1.304-18.136 0-11.568 3.088-19.88 11.208-21.376 20.888-1.136 7.336 2.36 15.52 8.768 20.552a34.4 34.4 0 0 0 15.96 6.944c3.92.608 10.88.24 14.784-.776zm-13.16-16.4c-10.496-2.96-12.904-14.296-4.208-19.824 7.48-4.768 17.952-2.512 21.52 4.624 3.632 7.304-2.512 15.256-12.072 15.616a20.8 20.8 0 0 1-5.24-.416M26.96 89.632a29 29 0 0 1-4.296-1.488C19.12 86.304 16 81.92 16 78.76c0-.8.256-2.432.576-3.616 4.12-15.48 23.824-28.872 50.169-34.096 8.816-1.752 14.424-2.336 24.76-2.6 26.936-.688 49.313 4.712 66.449 16.032 5.312 3.512 11.824 9.976 14.288 14.192 2.408 4.112 4 8.904 3.728 11.264-.56 5.04-7.296 9.6-15.24 10.336-4.344.4-5.472-.128-8.256-3.944-3.656-4.984-10.168-11.152-15.616-14.784-24.817-16.394-57.024-16.394-81.841 0-4.736 3.16-11.648 9.632-15.12 14.16-1.32 1.72-2.96 3.416-3.648 3.776-1.96 1.008-5.864 1.072-9.28.144z"/></svg>