<svg xmlns="http://www.w3.org/2000/svg" width="192" height="192" viewBox="0 0 192 192"><path d="M110.84 175.67c-.896-.904-.384-2.344 1.168-3.256 5.72-3.376 25.911-22.585 32.319-30.745 4.2-5.352 4.616-6.16 3.12-6.16-2.2 0-4.2-1.84-6.672-6.129-6-10.384-8.824-20.585-7.656-27.617 1.544-9.256 7.736-16.88 15.472-17.176 1.424-.056 2.64.425 4.192 1.968 2.512 2.48 2.568 4.417.464 13.968a79.998 80.002 0 0 0-1.824 15.072c-.456 12.648.736 13.48 7.76 5.409 4.912-5.649 7.32-7.68 8.776-7.385.96.2-14.4 20.985-27.727 37.505-7.616 9.44-17.744 20.088-21.584 22.721-2.496 1.696-6.912 2.728-7.808 1.824m-28.135-39.537c-.36-.584 1.016-6.056 7.072-28.113 8.928-32.52 11.824-40.137 17.376-45.64 3.136-3.113 6.896-5.977 11.184-6.48a4.48 4.48 0 0 1 3.424 1.04 5.76 5.76 0 0 1 1.624 4.36c-.528 9.8-1.472 6.991-13.184 26.392-5.344 8.864-9.72 16.264-9.72 16.432 0 .176.456-.08 1.016-.56 3.776-3.256 14.64-10.128 23.152-11.456 1.328-.2 3.04-.336 4 .608 1.096 1.088 1.056 1.904.72 4.584-.48 3.856-2.72 9.553-4.52 11.48-2.064 2.216-5.776 3.48-13.152 4.504-3.76.52-7.44 1.32-8.184 1.784-1.76 1.08-2.4 2.929-1.8 5.097.992 3.576 9.392 9.68 17.576 12.784 3.84 1.456 5.08 2.56 2.88 2.56-1.056 0-8.048-2.4-12.64-4.352-3.808-1.6-10.032-5.96-11.944-8.353a26.399 26.401 0 0 1-2.848-4.6l-1.072-2.368-3.568 7.376a359.99 360.01 0 0 0-4.72 10.056q-1.808 4.233-2.672 2.865m-57.679-5.657c-.56-.144-1.024-.576-1.024-1.384s.448-1.112 4.24-1.12c7.76 0 20.8-4.08 26.64-8.336 8.415-6.12 10.127-11.976 5.28-18.024-2.025-2.52-4.625-4.768-13.697-11.816-3.48-2.704-8-6.56-10.056-8.56-15.84-15.44-7.44-39.641 19.2-55.353a79.998 80.002 0 0 1 20.056-8.456c7.336-1.88 17.32-1.896 23.92-.04 11.416 3.224 19.864 10.576 21.04 18.32.736 4.912-2.032 7.56-16.128 15.408-18.4 10.24-25.43 15.056-28.983 19.824-1.728 2.312-2.16 3.456-2.368 6.2-.288 3.936.384 5.312 5.696 11.728 5.552 6.712 6.856 10.152 5.632 14.84-1.92 7.304-10.32 14.056-24.856 19.952-13.032 5.28-28.631 8.36-34.591 6.816"/></svg>