<svg width="192" height="192" fill="none" xmlns="http://www.w3.org/2000/svg"><path d="M96 69.904c13.228 0 23.952-10.724 23.952-23.952C119.952 32.724 109.228 22 96 22c-13.228 0-23.952 10.724-23.952 23.952 0 13.228 10.724 23.952 23.952 23.952ZM96 170c13.228 0 23.952-10.724 23.952-23.952 0-13.228-10.724-23.952-23.952-23.952-13.228 0-23.952 10.724-23.952 23.952C72.048 159.276 82.772 170 96 170Zm50.048-50.048C159.276 119.952 170 109.228 170 96c0-13.228-10.724-23.952-23.952-23.952-13.228 0-23.952 10.724-23.952 23.952 0 13.228 10.724 23.952 23.952 23.952Zm-100.096 0c13.228 0 23.952-10.724 23.952-23.952 0-13.228-10.724-23.952-23.952-23.952C32.724 72.048 22 82.772 22 96c0 13.228 10.724 23.952 23.952 23.952Z" stroke="#000" stroke-width="12"/><path d="M105.764 66.998A23.948 23.948 0 0 1 94.18 45.214a23.953 23.953 0 0 1 13.797-20.455M125.93 78.75a85.198 85.198 0 0 1 30.206 43.14m-92.64-10.052a77.339 77.339 0 0 1-25.06-34.492m46.924 47.366a23.955 23.955 0 0 1 10.6 32.865 23.952 23.952 0 0 1-8.763 9.194" stroke="#000" stroke-width="12"/></svg>