<svg xmlns="http://www.w3.org/2000/svg" width="192" height="192" viewBox="0 0 192 192"><path d="M147.33 44.667c17.71 17.453 24.383 41.837 20.191 64.594 3.508 6.16 5.476 13.347 5.476 20.961A42.78 42.78 0 0 1 130.219 173c-7.615 0-14.801-1.968-20.961-5.476-22.758 4.193-47.141-2.48-64.594-20.19-17.71-17.454-24.383-41.838-20.191-64.595-3.508-6.16-5.476-13.347-5.476-20.96A42.78 42.78 0 0 1 61.775 19c7.614 0 14.801 1.968 20.961 5.476 22.758-4.192 47.141 2.481 64.594 20.191m-50.991 95.48c24.554 0 36.789-11.807 36.789-27.72 0-10.181-4.791-21.047-23.357-25.239l-17.026-3.764c-6.502-1.455-13.86-3.423-13.86-9.497 0-6.16 5.133-10.438 14.544-10.438 19.079 0 17.282 13.09 26.779 13.09 4.962 0 9.24-2.909 9.24-7.957 0-11.72-18.737-20.533-34.65-20.533-17.197 0-35.591 7.358-35.591 26.864 0 9.411 3.337 19.421 21.817 24.041l23.014 5.818c6.93 1.711 8.641 5.561 8.641 9.154 0 5.818-5.818 11.55-16.34 11.55-20.62 0-17.797-15.828-28.833-15.828-4.962 0-8.555 3.423-8.555 8.3 0 9.496 11.379 22.158 37.388 22.158"/></svg>