<svg width="192" height="192" fill="none" xmlns="http://www.w3.org/2000/svg"><path d="M86 70a16 16 0 0 1-16 16H38a16 16 0 1 1 0-32h32m16 16a16 16 0 0 0-16-16m16 16V38a16 16 0 1 0-16 16m52 32a16.002 16.002 0 0 1-16-16V38a16.002 16.002 0 0 1 16-16 16.002 16.002 0 0 1 16 16v32m-16 16a16.002 16.002 0 0 0 16-16m-16 16h32a16 16 0 1 0-16-16m-32 52c0-4.243 1.686-8.313 4.686-11.314 3.001-3 7.071-4.686 11.314-4.686h32c4.243 0 8.313 1.686 11.314 4.686a16.004 16.004 0 0 1 0 22.628A16.004 16.004 0 0 1 154 138h-32m-16-16c0 4.243 1.686 8.313 4.686 11.314 3.001 3 7.071 4.686 11.314 4.686m-16-16v32a15.998 15.998 0 0 0 19.121 15.693 16.012 16.012 0 0 0 8.193-4.379A16.003 16.003 0 0 0 122 138m-52-32a16.002 16.002 0 0 1 16 16v32a16.002 16.002 0 0 1-16 16 16.002 16.002 0 0 1-16-16v-32m16-16a16.002 16.002 0 0 0-16 16m16-16H38a16 16 0 1 0 16 16" stroke="#000" stroke-width="12" stroke-linecap="round" stroke-linejoin="round"/></svg>