<svg xmlns="http://www.w3.org/2000/svg" width="192" height="192" viewBox="0 0 192 192"><path d="M51.353 116.31a16.22 16.22 0 0 1-16.17 16.189A16.22 16.22 0 0 1 19 116.31a16.215 16.215 0 0 1 16.183-16.17h16.17zm8.156 0a16.215 16.215 0 0 1 16.176-16.17 16.215 16.215 0 0 1 16.176 16.17v40.508a16.22 16.22 0 0 1-16.176 16.183 16.22 16.22 0 0 1-16.176-16.183zm16.176-64.956a16.22 16.22 0 0 1-16.176-16.17 16.22 16.22 0 0 1 16.176-16.183A16.22 16.22 0 0 1 91.86 35.184v16.17zm0 8.156A16.22 16.22 0 0 1 91.86 75.686a16.22 16.22 0 0 1-16.176 16.176H35.183A16.22 16.22 0 0 1 19 75.686 16.22 16.22 0 0 1 35.183 59.51zm64.949 16.176a16.22 16.22 0 0 1 16.183-16.176A16.22 16.22 0 0 1 173 75.686a16.22 16.22 0 0 1-16.183 16.176h-16.183zm-8.137 0a16.22 16.22 0 0 1-16.189 16.176 16.215 16.215 0 0 1-16.17-16.176V35.184A16.215 16.215 0 0 1 116.308 19a16.22 16.22 0 0 1 16.19 16.183zm-16.189 64.949a16.22 16.22 0 0 1 16.19 16.183A16.22 16.22 0 0 1 116.307 173a16.215 16.215 0 0 1-16.17-16.183v-16.183zm0-8.137a16.215 16.215 0 0 1-16.17-16.189 16.21 16.21 0 0 1 16.17-16.17h40.508A16.215 16.215 0 0 1 173 116.31a16.22 16.22 0 0 1-16.183 16.19z"/></svg>