<svg xmlns="http://www.w3.org/2000/svg" width="192" height="192" viewBox="0 0 192 192"><path d="M146.92 16c-1.63.013-3.265.81-4.347 2.711L129.099 42.29c-9.945-5.032-21.192-7.868-33.1-7.868s-23.153 2.836-33.098 7.868L49.426 18.711a5.243 5.243 0 0 0-9.104 5.203l13.583 23.768C34.969 60.96 22.589 82.95 22.589 107.833V176h146.82v-68.167c0-24.88-12.38-46.874-31.313-60.15l13.58-23.769c2.394-4.176-1.17-7.943-4.757-7.914zM95.999 44.909c34.752 0 62.924 28.171 62.924 62.924H33.073c0-34.752 28.171-62.924 62.924-62.924zM49.121 77.026a17 17 0 0 0-.315 3.277c0 9.413 7.63 17.042 17.042 17.042s17.042-7.63 17.042-17.042c.001-1.1-.104-2.197-.315-3.277-1.528 7.843-8.435 13.765-16.727 13.765S50.65 84.87 49.121 77.026m60.302 0a17 17 0 0 0-.315 3.277c0 9.413 7.63 17.042 17.042 17.042s17.042-7.63 17.042-17.042c.001-1.1-.104-2.197-.315-3.277-1.528 7.843-8.435 13.765-16.727 13.765s-15.198-5.921-16.727-13.765M95.999 118.32l13.109 23.596 49.814-19.495v43.091h-15.731v-26.446l-10.487 4.102v22.344h-17.042v-15.675c-3.5 1.37-7.003 2.728-10.487 4.137v11.537H86.822v-11.537c-3.492-1.389-6.98-2.787-10.487-4.137v15.675H59.293v-22.344l-10.487-4.102v26.446H33.075v-43.091l49.814 19.495z"/></svg>