<svg width="192" height="192" fill="none" xmlns="http://www.w3.org/2000/svg"><path d="m53 101 16 41-35-17 19-24Zm70.691 27.928c6.242 3.605 15.199-.221 20.004-8.545 4.806-8.324 3.641-17.993-2.601-21.597-6.243-3.605-15.2.221-20.005 8.545-4.806 8.324-3.641 17.993 2.602 21.597Z" stroke="#000" stroke-width="10" stroke-linecap="round" stroke-linejoin="round"/><path d="M168 57 96 22 24 57l72 35" stroke="#000" stroke-width="12" stroke-linecap="round" stroke-linejoin="round"/><path d="m72 57 24 12 24-12-24-12-24 12Z" stroke="#000" stroke-width="10" stroke-linecap="round" stroke-linejoin="round"/><path d="m96 170 72-35V57L96 92v78Z" stroke="#000" stroke-width="12" stroke-linecap="round" stroke-linejoin="round"/></svg>