<svg xmlns="http://www.w3.org/2000/svg" width="192" height="192" viewBox="0 0 192 192"><path d="M79.2 32.8C44.4 32.8 16 61.192 16 96s28.4 63.2 63.2 63.2c28.051-.112 56.107-.02 84.16 0 16.853 0 16.853-25.28 0-25.28 16.853 0 16.853-25.28 0-25.28 16.853 0 16.853-25.28 0-25.28 16.853 0 16.853-25.28 0-25.28 16.429-.413 16.429-24.859 0-25.272H79.2zm0 15.736c26.242-.071 47.532 21.222 47.456 47.464.066 26.235-21.221 47.519-47.456 47.448-26.234.058-47.517-21.222-47.464-47.456-.053-26.234 21.23-47.514 47.464-47.456m0 15.28a4.59 4.59 0 0 0-4.608 4.6V91.4H63.12c-6.123 0-6.123 9.184 0 9.184 5.517.007 11.036-.002 16.552-.016a4.59 4.59 0 0 0 4.128-4.576V68.416a4.584 4.584 0 0 0-4.6-4.592z"/></svg>