<svg width="192" height="192" fill="none" xmlns="http://www.w3.org/2000/svg"><circle cx="96" cy="96" r="6" stroke="#000" stroke-width="12" stroke-linecap="round" stroke-linejoin="round"/><path d="M25 31a6 6 0 0 1 6-6h130a6 6 0 0 1 6 6v130a6 6 0 0 1-6 6H31a6 6 0 0 1-6-6V31Z" stroke="#000" stroke-width="12" stroke-linecap="round" stroke-linejoin="round"/><path d="M74 55H61a6 6 0 0 0-6 6v70a6 6 0 0 0 6 6h70a6 6 0 0 0 6-6V61a6 6 0 0 0-6-6h-29a6 6 0 0 0-6 6v35" stroke="#000" stroke-width="12" stroke-linecap="round" stroke-linejoin="round"/></svg>