<svg width="192" height="192" fill="none" xmlns="http://www.w3.org/2000/svg"><path d="M163 164V72L96 22 29 72v92a6 6 0 0 0 6 6h32a6 6 0 0 0 6-6v-34a6 6 0 0 1 6-6h34a6 6 0 0 1 6 6v34a6 6 0 0 0 6 6h32a6 6 0 0 0 6-6Z" stroke="#000" stroke-width="12" stroke-linecap="round" stroke-linejoin="round"/><path d="M132.731 87.298a61.001 61.001 0 0 0-73.462 0m15.274 16.135a39 39 0 0 1 42.914 0" stroke="#000" stroke-width="12" stroke-linecap="round" stroke-linejoin="round"/><circle cx="96" cy="147" r="4" stroke="#000" stroke-width="8" stroke-linecap="round" stroke-linejoin="round"/></svg>