<svg xmlns="http://www.w3.org/2000/svg" width="192" height="192" viewBox="0 0 192 192"><path d="M96.031 16c-4.393-.007-8.825.866-12.77 2.835-1.796 1.006-3.58 2.033-5.372 3.047l-35.867 20.39c-7.151 4.104-12.958 10.48-16.403 17.968-3.667 7.882-4.714 16.982-2.759 25.465 1.51 6.705 4.917 12.918 9.528 17.991a38.6 38.6 0 0 0 9.934 7.854c2.034 1.166 4.062 2.34 6.092 3.513-4.278 2.45-8.56 4.892-12.835 7.347-2.935 1.754-5.14 4.68-6.003 7.99a13.14 13.14 0 0 0 .192 7.45c.993 3.085 3.016 5.898 5.827 7.561l47.67 27.342c3.098 1.743 6.58 2.756 10.112 3.096 4.6.434 9.338-.044 13.646-1.769 1.396-.547 2.718-1.257 4.005-2.021 10.587-6.11 21.122-12.307 31.69-18.45 2.862-1.674 5.737-3.325 8.592-5.011 6.203-3.786 11.286-9.358 14.525-15.86 6.508-12.983 5.26-27.855-1.57-38.828-3.512-5.69-8.534-10.413-14.372-13.66a6827 6827 0 0 0-6.923-3.916c4.327-2.493 8.662-4.971 12.984-7.472 2.823-1.792 5.094-4.502 6.21-7.667a12.2 12.2 0 0 0-.114-8.426c-1.237-3.233-3.714-5.898-6.656-7.672l-45.863-25.826c-4.16-2.13-8.824-3.277-13.5-3.272zm0 13.243a15.9 15.9 0 0 1 7.152 1.663l46.451 26.119-55.267 31.782c-5.157 3.006-9.696 7.208-12.68 12.41-2.695 4.66-4.093 10.1-3.75 15.488L47.88 99.479c-4.387-2.635-7.88-6.641-10.16-11.201-2.531-5.091-3.254-11.033-2.093-16.594 1.264-6.237 4.848-11.958 9.884-15.844L89.25 30.647c2.096-1.037 4.458-1.41 6.78-1.404zm33.361 54.855 13.549 7.648a24.7 24.7 0 0 1 7.466 5.844c-3.444.447-6.708 1.846-9.604 3.73l-38.556 22.11c-1.957 1.134-5.007 1.534-6.15.98-1.354-.564-2.42-1.655-3.252-2.837-1.231-1.772-1.86-3.912-1.967-6.056a13.24 13.24 0 0 1 1.743-7.49c1.725-3.003 4.438-5.304 7.335-7.134 1.867-1.149 3.806-2.175 5.703-3.27zm26.868 28.924c.336.749.529 1.566.58 2.384-.176 6.473-2.73 12.88-7.177 17.604-1.875 2.01-4.088 3.692-6.493 5.017l-40.038 23.289c-2.423 1.262-5.23 1.563-7.923 1.398-2.022-.127-4.052-.63-5.791-1.695L42.37 133.767l19.335-11.057c7.15 4.11 14.29 8.24 21.45 12.334 3.434 1.886 7.347 2.768 11.239 2.964 3.868.178 7.797-.31 11.433-1.674 1.258-.466 2.453-1.08 3.604-1.764 12.81-7.347 25.62-14.69 38.426-22.04 1.346-.885 2.821-1.71 4.46-1.835 1.721-.108 3.29.83 3.942 2.327z"/></svg>