<svg xmlns="http://www.w3.org/2000/svg" width="192" height="192" data-name="Layer 1" viewBox="0 0 192 192"><path d="M99.182 54.359v7.8H88.243c.34.417 2.115.717 2.798.997s.737 1.154.648 1.679c-.09.525-5.614 13.867-5.614 13.867s-5.454-12.484-5.98-13.446-.614-1.821-.142-2.277 2.257-.421 2.257-.421v-.403H71.736l-.002.007-.006.009c2.642.497 3.05 2.1 3.602 3.255s8.343 19.145 8.343 19.145c-.68 2.547-1.81 4.385-3.306 6.854-1.496 2.465-3.568 3.045-3.568 3.045.42-1.444.58-2.283.42-3.466s-1.417-1.841-2.73-1.945c-1.312-.107-2.018.709-2.44 1.418-.42.71-.84 2.84 1.364 4.309s4.17.234 5.43-.605c1.262-.839 2.44-2.678 3.359-4.412.919-1.73 2.124-4.83 2.965-6.853s7.293-17.491 8.081-18.806 1.338-1.079 1.338-1.079l4.59-.053s.025 13.446.183 15.705.892 5.042 3.804 5.725 5.795-.292 7.03-2.311c1.234-2.02 1.338-3.965 1.338-3.965l-.369.025c-.392 2.834-2.15 3.702-2.15 3.702-2.939 1.022-3.805-.369-4.538-1.315-.736-.944-.683-3.466-.683-3.466V63h12.199s.029 14.076.132 16.284c.105 2.208.97 3.466 2.23 4.492s4.014.975 5.43.632c1.418-.343 2.308-1.365 3.332-2.916s1.127-3.337 1.127-3.337h-.42c-.497 2.073-1.285 4.178-3.907 4.07s-3.198-2.496-3.277-2.89c-.076-.394-.05-16.337-.05-16.337l6.69-.025V61.74h-6.716v-7.382h-4.8v7.382h-12.146v-7.382zm40.887 6.942c-4.328-.02-8.079 3.593-9.097 6.252-1.085 2.837-1.17 4.01-1.067 6.48.103 2.469.54 5.497 4.46 8.929 3.917 3.431 9.656 1.33 10.32 1.05.665-.279 3.149-1.54 5.177-4.83l-.42-.632h-.005s-1.609 2.538-3.025 3.362-3.762 1.68-5.683 1.07c-1.922-.614-4.2-1.242-5.524-6.146 0 0-.455-2.032-.386-5.848h14.516s.07-3.922-1.26-5.64c-1.329-1.717-2.449-3.43-7.133-3.993a8 8 0 0 0-.873-.054m-116.37.013c-3.324.07-6.33 1.998-7.064 4.904-.734 2.907.733 5.709 2.587 6.725s4.933 2.173 6.68 2.872c1.746.701 3.67 1.47 3.289 4.517-.385 3.045-2.66 3.784-3.673 3.888-1.013.103-4.2.103-6.434-2.731-2.239-2.838-3.08-4.693-3.08-4.693v7.629h.49l.909-1.61s3.04 1.82 4.791 1.962c1.75.142 4.898.456 7.417-1.645 2.518-2.1 2.449-3.607 2.552-4.482.104-.876.142-2.873-1.051-4.66-1.191-1.786-3.217-2.487-5.597-3.254-2.38-.77-5.808-1.366-5.946-4.763-.142-3.397 3.393-4.203 4.268-4.132.875.073 4.234.314 6.961 6.198 0 0 .142.245.245-.141l-.28-6.583h-.35l-.944 1.33s-2.45-1.4-5.77-1.33m25.732.019c-4.203.166-7.41 4.114-7.41 4.114s.026-2.312.026-2.628.05-1.129-1.496-1.103c-1.549.025-3.31.441-6.532.472l.003.004.006-.002s3.462.868 3.516 3.466c.055 2.598.026 15.839.026 15.839s.252 2.302-3.403 2.345v.387H45.28v-.403s-3.2.22-3.2-2.487-.133-14.497-.133-14.497 1.102-2.969 5.062-3.573 4.826 3.491 4.826 3.491l.157 14.603s-.078 2.627-3.333 2.495l.026.368h11.019v-.368s-3.332.132-3.332-2.706V66.493s1.313-2.837 5.036-3.151c3.724-.314 4.615 2.598 4.851 4.255v14.34s.133 1.92-3.331 1.915v.368h11.28v-.368s-3.359-.104-3.359-2.048c0-1.945-.104-13.764-.158-14.628s-.446-5.2-5.955-5.777c-5.508-.58-8.471 4.23-8.471 4.23s-1.364-3.878-5.98-4.276a7 7 0 0 0-.854-.02zm116.63.047q-.604-.021-1.283.023c-3.62.246-6.803 4.046-6.803 4.046s.018-2.452 0-2.784c-.018-.33-.28-.927-1.609-.84-1.327.087-1.329.244-6.491.54.265.07 3.48.969 3.48 2.833 0 1.945.077 15.468.025 16.075-.051.605.314 2.495-3.332 2.705v.323h11.456v-.332s-1.677.07-2.694-.91c-1.015-.98-.84-1.733-.84-2.116l-.019-12.94s-.069-1.433.403-1.944.944-1.262 2.956-2.1c2.011-.84 4.005-.456 4.86.227.855.682 1.382 1.242 1.696 2.872s.176 4.815.176 4.815.044 9.439.03 9.787c-.01.349-.117 1.173-1.043 1.629s-.857.506-2.553.632l.016.386h11.51v-.386s-1.524-.088-2.57-.86c0 0-.806-.524-.786-1.575s.016-12.992-.018-13.691c-.035-.7-.227-2.68-1.224-4.01-.87-1.165-2.52-2.303-5.343-2.404zm-16.186.985-.017-.005-.002.002.004.004zm-9.816-.357c2.548-.015 3.114 1.716 3.816 3.095.807 1.576.63 4.973.63 4.973h-9.617s.345-7.313 3.951-7.948q.675-.119 1.22-.12m-72.147 59.848c-4.352 0-7.882 3.533-7.882 7.892s3.53 7.893 7.882 7.893c4.354 0 7.881-3.534 7.881-7.893s-3.53-7.892-7.881-7.892m27.039 0c-4.352 0-7.882 3.533-7.882 7.892s3.53 7.893 7.882 7.893c4.354 0 7.881-3.534 7.881-7.893s-3.53-7.892-7.881-7.892m26.954 0c-4.352 0-7.882 3.533-7.882 7.892s3.53 7.893 7.882 7.893c4.354 0 7.88-3.534 7.88-7.893s-3.528-7.892-7.88-7.892"/></svg>