<svg xmlns="http://www.w3.org/2000/svg" width="192" height="192" viewBox="0 0 192 192"><path d="M67.617 16a104 104 0 0 0-18.578 14.234v20.062L67.617 68.89zm6.125.016V68.89l28.094-28.094a104 104 0 0 0-28.094-24.781zm31.719 29.78L73.742 77.532v49.219l45.531-45.547a84.8 84.8 0 0 0-13.812-35.406zm-74.812 8.829a84.8 84.8 0 0 0-8.578 26.578l45.547 45.547V77.53L44.712 54.626zm95.281 30.719c.283 3.061.438 6.135.438 9.25a97.6 97.6 0 0 1-8.5 40.734 93.6 93.6 0 0 1-18.703 26.984A101.7 101.7 0 0 1 82.43 176h79.953a8.565 8.565 0 0 0 8.53-8.532V93.875c-.012-4.706-3.825-8.514-8.53-8.532zM21.26 89.03c-1.025 17.727 1.976 45.51 25.094 68.828a94.4 94.4 0 0 0 21.266 16.234V135.39zm98.828 0-46.344 46.36v38.702a94.4 94.4 0 0 0 21.25-16.234c23.118-23.318 26.118-51.1 25.094-68.828"/></svg>