<svg xmlns="http://www.w3.org/2000/svg" width="192" height="192" viewBox="0 0 192 192"><path d="M96 19a76.935 76.996 0 0 0-76.935 77.004A76.935 76.996 0 0 0 96 173a76.935 76.996 0 0 0 76.935-76.996A76.935 76.996 0 0 0 96 19m-1.271 11.85a64.96 64.96 0 0 1 38.42 11.689 65.5 65.5 0 0 1 23.477 29.85 65.87 65.87 0 0 1 3.05 37.916c-2.743 12.677-9.147 23.669-19.166 33.251a3.34 3.34 0 0 1-4.726-.107 3.34 3.34 0 0 1 .1-4.726c9.214-8.81 14.79-18.46 17.25-29.827a59.2 59.2 0 0 0-2.727-34.078 59 59 0 0 0-21.087-26.794 58.21 58.21 0 0 0-64.963-1.15v-.015a58.75 58.75 0 0 0-22.014 26.028 59.2 59.2 0 0 0-3.93 33.963c2.015 11.245 9.07 24.052 17.618 31.82a3.34 3.34 0 0 1 .23 4.718 3.34 3.34 0 0 1-4.726.222c-9.843-8.947-17.38-22.62-19.71-35.587a65.87 65.87 0 0 1 4.382-37.786 65.4 65.4 0 0 1 24.511-28.985A64.9 64.9 0 0 1 94.72 30.85zm.382 20.176a44.96 44.96 0 0 1 26.625 8.096 45.2 45.2 0 0 1 16.24 20.651 45.6 45.6 0 0 1 2.106 26.242 43.66 43.66 0 0 1-12.501 22.481 3.34 3.34 0 0 1-4.734-.076 3.34 3.34 0 0 1 .077-4.726 36.77 36.77 0 0 0 10.616-19.088 39.07 39.07 0 0 0-1.793-22.397A38.7 38.7 0 0 0 117.89 64.59v.015a38.22 38.22 0 0 0-42.688-.766A38.6 38.6 0 0 0 60.74 80.937a39.07 39.07 0 0 0-2.581 22.321c1.317 7.353 5.668 14.975 10.999 20.528a3.34 3.34 0 0 1-.1 4.718 3.34 3.34 0 0 1-4.726-.1c-6.158-6.41-11.137-14.936-12.76-23.96a45.6 45.6 0 0 1 3.033-26.157 45.2 45.2 0 0 1 16.966-20.07 44.96 44.96 0 0 1 23.53-7.2zM96 77.621a18.383 18.383 0 1 1-12.999 31.39h-.008a18.38 18.38 0 0 1-5.384-13.006v-.015a18.383 18.383 0 0 1 18.39-18.368m0 6.679a11.712 11.712 0 0 0 0 23.408 11.704 11.704 0 0 0 0-23.408"/></svg>