<svg xmlns="http://www.w3.org/2000/svg" width="192" height="192" viewBox="0 0 192 192"><path d="M86.53 19.183c-19.512-1.55-39.464 6.828-52.019 21.844-9.9 11.575-15.221 26.923-14.762 42.108q-.002 34.223.001 68.446a21.92 21.92 0 0 0 5.13 13.853c1.09 1.315 2.36 2.468 3.712 3.51.796.625 1.577 1.271 2.385 1.882 2.696 1.911 6.187 2.526 9.416 1.966 1.954-.335 3.834-1.137 5.383-2.382 1.343-1.013 2.68-2.036 4.027-3.043 1.141-.744 2.574-.914 3.904-.752.917.114 1.821.445 2.533 1.047 1.43 1.076 2.848 2.168 4.286 3.234 2.8 1.938 6.423 2.512 9.733 1.826 1.806-.371 3.528-1.155 4.966-2.312l3.872-2.931c1.856-1.299 4.53-1.16 6.263.274 1.373 1.034 2.735 2.083 4.115 3.106 2.81 1.95 6.446 2.531 9.769 1.846 1.817-.371 3.55-1.158 4.998-2.321 1.331-1.005 2.656-2.019 3.992-3.017 1.154-.752 2.604-.92 3.947-.745.897.12 1.777.452 2.473 1.04 1.413 1.064 2.816 2.141 4.235 3.197 2.698 1.886 6.175 2.484 9.39 1.916 1.996-.35 3.919-1.186 5.475-2.493 1.674-1.341 3.426-2.596 4.854-4.216 3.754-4.095 5.803-9.657 5.687-15.202V124.73c4.806-.002 9.611.004 14.417-.003 3.233-.05 6.386-1.425 8.72-3.645 3.028-2.838 4.736-6.949 4.838-11.077.135-4.106-1.303-8.283-4.108-11.31-2.225-2.436-5.35-4.076-8.655-4.336-.393-.042-.827-.022-1.172-.078h-14.04V83.048c-.077-.057-.006-.256-.025-.368.227-8.567-1.409-17.172-4.665-25.095-5.07-12.397-14.278-23.043-25.813-29.85a62.3 62.3 0 0 0-27.263-8.551zm-4.516 8.583c17.176-.052 34.058 8.738 43.866 22.84a54 54 0 0 1 4.582 7.81c-5.571-.809-11.263-.353-16.745.84-2.039.426-4.039 1.013-6.057 1.521-2.917.778-5.915.215-8.742-.629-5.735-1.557-11.708-2.471-17.659-2.028-1.464.095-2.913.321-4.362.54-1.084.14-2.185.227-3.235.549-.725.304-.99 1.129-1.121 1.842-.256 1.594-.098 3.216.072 4.81.243 1.994.834 3.922 1.198 5.893.418 1.977 1.027 3.984 2.3 5.59a6.9 6.9 0 0 0 3.336 2.27c4.108 1.362 8.717 1.423 12.797-.078 2.376-.881 4.486-2.501 5.862-4.638.842-1.333 1.489-2.775 2.15-4.202.571-1.278 1.154-2.552 1.716-3.834.314-.764.662-1.626 1.454-2.01a2.76 2.76 0 0 1 2.082-.04c.818.35 1.183 1.22 1.512 1.983.751 1.661 1.479 3.334 2.249 4.987.778 1.608 1.542 3.264 2.764 4.593 1.564 1.754 3.692 2.944 5.947 3.556 4.108 1.126 8.613.942 12.56-.697 1.952-.893 3.204-2.754 3.906-4.713a19 19 0 0 0 .667-2.34c.628 3.597.98 7.263.833 10.916.077.058.012.257.033.369q.002 34.95 0 69.903c-.035 3.472-1.702 6.877-4.41 9.046q-1.29.998-2.594 1.974c-1.155.748-2.604.913-3.947.74-.896-.119-1.776-.448-2.474-1.033-1.429-1.07-2.847-2.155-4.283-3.217-2.727-1.887-6.238-2.467-9.471-1.864-1.893.35-3.708 1.143-5.214 2.348-1.343 1.008-2.68 2.025-4.027 3.026-1.151.747-2.596.914-3.935.74-.895-.119-1.772-.449-2.469-1.033l-3.94-2.968c-4.127-3.126-10.246-3.09-14.351.057-1.43 1.077-2.852 2.166-4.287 3.237-1.155.748-2.604.914-3.946.74-.897-.12-1.777-.447-2.474-1.034-1.413-1.064-2.816-2.142-4.236-3.197-2.745-1.912-6.287-2.507-9.55-1.9-1.907.353-3.737 1.155-5.25 2.376-1.326 1.004-2.644 2.02-3.976 3.015-1.143.74-2.574.908-3.904.748-.911-.114-1.811-.44-2.515-1.043-1.362-1.067-2.819-2.03-3.928-3.382-1.878-2.22-2.806-5.138-2.731-8.027v-69.62c.02-.275-.011-.613-.002-.914-.15-13.284 4.837-26.54 13.725-36.416C51.845 34.41 66.845 27.697 82.014 27.766M51.882 94.281c-2.854-.115-5.046 3.169-3.846 5.76.638 1.634 2.378 2.666 4.106 2.573 4.122.002 8.245-.003 12.368.002 2.01.039 3.891 1.22 4.958 2.898 1.674 2.546 1.53 6.14-.37 8.527-1.152 1.492-3.003 2.452-4.902 2.389H51.881c-2.853-.115-5.045 3.169-3.845 5.76.64 1.643 2.393 2.67 4.127 2.573 4.15-.002 8.302.004 12.452-.003 3.234-.05 6.387-1.427 8.72-3.648 3.051-2.86 4.762-7.012 4.84-11.173.113-4.134-1.369-8.33-4.225-11.348-2.234-2.392-5.347-3.988-8.627-4.223-.37-.037-.785-.01-1.084-.088H51.88zm92.414 8.317c4.77.002 9.54-.003 14.31.002 2.014.039 3.893 1.232 4.959 2.912 1.64 2.5 1.54 6.009-.273 8.392-1.12 1.516-2.946 2.527-4.847 2.51-.096.04-.266.006-.39.017h-13.76z"/></svg>