<svg xmlns="http://www.w3.org/2000/svg" width="192" height="192" fill="none" viewBox="0 0 192 192"><path stroke="#000" stroke-linecap="round" stroke-linejoin="round" stroke-width="11.594" d="M96 21.797c15.362 5.507 46.377 32.686 46.377 72.02 0 45.266-31.015 65.218-46.377 76.387z"/><path stroke="#000" stroke-linecap="round" stroke-linejoin="round" stroke-width="11.594" d="M96 21.797c14.493 5.208 42.947 29.71 46.087 65.517L96 134.561z"/><path stroke="#000" stroke-linecap="round" stroke-linejoin="round" stroke-width="11.594" d="M96 21.797c8.329 2.995 21.256 12.338 31.343 26.541L96 78.773zm0 0c-7.092 2.55-17.527 9.71-26.696 20.56l4.86 15.188-13.131-3.7c-6.677 11.092-11.411 24.599-11.411 39.97 0 45.267 31.015 65.219 46.377 76.388z"/><path stroke="#000" stroke-linecap="round" stroke-linejoin="round" stroke-width="11.594" d="M96 21.797c-7.092 2.55-17.527 9.71-26.696 20.56l4.86 15.188-13.131-3.7a78.26 78.26 0 0 0-11.121 33.469l46.087 47.247z"/><path stroke="#000" stroke-linecap="round" stroke-linejoin="round" stroke-width="11.594" d="M96 21.797c-7.092 2.55-17.527 9.71-26.696 20.56l4.86 15.188-.058-.01L96 78.781z"/></svg>