<svg xmlns="http://www.w3.org/2000/svg" width="192" height="192" viewBox="0 0 192 192"><path d="M95.915 19.873c-12.281-.092-24.793 4.666-32.878 14.114-7.184 7.615-9.902 18.41-9.54 28.666-.03 5.267.039 10.533.054 15.8-5.028-1.255-10.133-4.758-15.461-3.026-4.543 1.355-6.437 7.292-3.696 11.103 2.957 3.873 7.546 6.083 11.38 8.963 1.879 1.54 4.427 2.648 5.829 4.627 0 4.75-2.487 9.155-4.851 13.16-5.744 9.054-14.722 15.976-24.331 20.758-2.464 1.063-4.72 4.266-2.541 6.684 3.965 3.726 9.57 4.92 14.576 6.675 2.094.655 5.213 1.378 5.012 4.204.347 3.003 2.264 6.237 5.637 6.253 8.084.931 16.724.538 23.969 4.874 7.099 4.119 14.414 8.716 22.845 9.216 8.408.793 17.07-.908 24.277-5.405 5.366-2.964 10.603-6.66 16.893-7.261 5.29-1.24 10.988-.154 16.1-2.133 3.28-1.409 2.833-5.39 4.211-8.03 2.603-1.802 5.93-2.003 8.824-3.196 3.78-1.51 8.547-2.672 10.541-6.599 1.178-3.126-2.379-4.835-4.573-6.044-11.688-6.044-22.206-15.353-26.818-27.973-.509-2.002-2.341-4.974.084-6.437 5.082-4.297 11.72-6.768 15.931-12.058 3.188-3.996.963-10.857-4.25-11.642-5.059-.8-9.779 1.948-14.529 3.21-.416-8.777.516-17.724-.8-26.486-2.495-14.206-13.876-25.88-27.528-29.96a47 47 0 0 0-14.368-2.056"/></svg>