<svg xmlns="http://www.w3.org/2000/svg" width="192" height="192" viewBox="0 0 192 192"><path d="M136.85 90.453a20 20 0 0 1-6.048-1.016l-6.64 5.424v71.115h18.272v-76.46a20 20 0 0 1-5.584.929zm-37.838 24.814v50.701h18.287v-65.596zm-73.515 27.542a8 8 0 0 1-1.624.92v22.239H42.16V129.25zm94.41-66.988L71.91 114.938c-4.577-5.67-9.238-11.306-13.895-16.895a3.84 3.84 0 0 0-2.456-.888 3.76 3.76 0 0 0-2.44.872c-11.858 9.738-23.78 19.409-35.678 29.102-2.842 2.295-1.196 6.887 2.456 6.856a3.84 3.84 0 0 0 2.432-.864l32.694-26.67 13.407 16.447a3.84 3.84 0 0 0 2.984 1.416h.376a4 4 0 0 0 2.128-.864l51.677-42.117a20.8 20.8 0 0 1-5.68-5.512zm35.918-27.11 10.559-6.56a2.9 2.9 0 0 1 1.52-.44c2.837.07 3.907 3.745 1.552 5.328l-10.56 6.544a2.88 2.88 0 1 1-3.071-4.872m20.135 21.12a2.91 2.91 0 0 1-2.88 2.487l-12.71-1.776c-3.774-.344-3.368-5.976.415-5.776l12.703 1.776a2.88 2.88 0 0 1 2.48 3.288zM154.929 80.5a2.88 2.88 0 0 0-2.16-.984c-2.514.007-3.838 2.984-2.16 4.856l8.288 9.263c2.597 2.66 6.692-1.004 4.335-3.88zm-42.021-8.591-12.767 2.56c-3.577.1-4.12-5.103-.6-5.744l12.783-2.56c3.564-.077 4.09 5.102.584 5.744m-11.607-26.734a2.91 2.91 0 0 1 3.92-1.2l10.975 5.871c2.677 1.432 1.651 5.492-1.384 5.48a2.7 2.7 0 0 1-1.376-.36l-10.951-5.864a2.91 2.91 0 0 1-1.184-3.927m27.11-1.264a2.91 2.91 0 0 1-3.792-1.6l-4.623-11.551a2.936 2.936 0 0 1 1.623-3.776 2.88 2.88 0 0 1 3.784 1.624l4.624 11.535a2.88 2.88 0 0 1-1.616 3.768m20.527-17.743a2.4 2.4 0 0 0-.904-.16 2.96 2.96 0 0 0-2.776 2.008l-3.871 11.807a2.88 2.88 0 0 0 1.775 3.664 2.4 2.4 0 0 0 .904.16 2.88 2.88 0 0 0 2.76-2.008l3.872-11.807a2.91 2.91 0 0 0-1.76-3.664M136.86 49.063c-13.606-.007-20.426 16.438-10.81 26.063 9.614 9.625 26.066 2.822 26.073-10.784 0-8.435-6.836-15.275-15.27-15.28zm-72.49 82.81-10.16-12.438-5.327 4.32v42.237H67.16V134.17a9.6 9.6 0 0 1-2.8-2.296zm12.71 1.28a9.6 9.6 0 0 1-3.12 1.569v31.254h18.28v-45.197z"/></svg>