<svg xmlns="http://www.w3.org/2000/svg" width="192" height="192" viewBox="0 0 192 192"><path d="M45.849 28.552a16.095 16.095 0 0 0-16.094 16.094v.37h51.233l14.702 16.64h62.393c.9 0 1.453.553 1.453 1.453v82.353c0 .9-.553 1.452-1.453 1.452h-52.069a53.3 53.3 0 0 1-10.256 16.465h62.325c9.798 0 17.917-8.119 17.917-17.917V63.11c0-9.798-8.12-17.917-17.917-17.917h-54.97l-14.702-16.64zm10.468 28.2c-19.258.01-35.821 13.635-39.55 32.528s6.418 37.785 24.228 45.111l48.8-59.798a40.34 40.34 0 0 0-33.478-17.842zm.25 17.721c2.54.027 5.056.48 7.445 1.343l-26.99 33.043c-8.653-14.2.467-32.572 17.01-34.265a23 23 0 0 1 2.534-.121zM82.796 92.72l-39.331 47.915c-11.596-1.516-14.367-9.032-18.387-18.05l-7.843 10.525c4.567 17.853 20.653 30.339 39.081 30.338 37.283.004 54.596-46.247 26.48-70.728"/></svg>