<svg xmlns="http://www.w3.org/2000/svg" width="192" height="192"><path d="M166.94 45.662a25.322 30.766 0 0 0-21.93 15.384l-25.443 53.543-2.978-6.266a25.323 30.767 0 0 0-21.93-15.384h-6.464a2.597 3.156 0 0 0-2.25 4.734l17.876 37.62a18.18 22.089 0 0 0 31.49 0l40.342-84.898a2.597 3.156 0 0 0-2.25-4.733zM19.7 51.573a3.7 3.7 0 0 0-3.701 3.701v86.785a3.7 3.7 0 0 0 3.701 3.702h16.356a3.7 3.7 0 0 0 3.701-3.702V55.274a3.7 3.7 0 0 0-3.701-3.701zm34.702 17.675a3.7 3.7 0 0 0-3.701 3.701v4.408a3.7 3.7 0 0 0 3.701 3.701h16.357a3.7 3.7 0 0 0 3.701-3.701v-4.408a3.7 3.7 0 0 0-3.701-3.701zm0 17.676a3.7 3.7 0 0 0-3.701 3.701v51.433a3.7 3.7 0 0 0 3.701 3.702h16.357a3.7 3.7 0 0 0 3.701-3.702V90.625a3.7 3.7 0 0 0-3.701-3.701z"/></svg>