<svg xmlns="http://www.w3.org/2000/svg" width="192" height="192" viewBox="0 0 192 192"><path d="M113.02 60.723a37.7 37.7 0 0 0-15.383 3.267c-1.271.567-2.258 2.229-2.258 3.622v61.135a2.52 2.52 0 0 0 2.514 2.528h41.576s9.545-.018 15.113 0c11.829 0 21.42-9.591 21.42-21.42s-9.592-21.42-21.42-21.42a21.4 21.4 0 0 0-4.972.64c-4.305-16.69-19.356-28.35-36.59-28.352M87.182 70.794c-.7 0-1.39.67-1.605 2.003-.791 4.912-1.36 13.329-1.506 23.196-.04 2.783-.04 7.3 0 10.085.146 9.867.715 18.282 1.506 23.196.43 2.663 2.795 2.664 3.224 0 .791-4.912 1.361-13.33 1.506-23.196.04-2.784.04-7.302 0-10.085-.146-9.867-.714-18.282-1.506-23.196-.215-1.333-.92-2.003-1.619-2.003m-22.67 6.307c-.731 0-1.467.66-1.69 1.988-.741 4.403-1.267 11.623-1.42 20.057-.051 2.783-.051 7.29 0 10.071.153 8.435.679 15.653 1.42 20.056.447 2.656 2.933 2.656 3.38 0 .741-4.403 1.267-11.623 1.42-20.056.051-2.783.051-7.289 0-10.07-.153-8.435-.679-15.654-1.42-20.058-.223-1.328-.959-1.988-1.69-1.988m11.335 2.514c-.745 0-1.492.662-1.719 1.989-.718 4.189-1.236 10.94-1.392 18.807a306 306 0 0 0 0 10.07c.157 7.866.674 14.617 1.392 18.808.455 2.653 2.984 2.653 3.438 0 .718-4.19 1.235-10.941 1.392-18.807a305 305 0 0 0 0-10.072c-.157-7.865-.674-14.615-1.392-18.806-.228-1.327-.974-1.99-1.719-1.99zm-22.67 1.264c-.752 0-1.504.663-1.733 1.989-.705 4.083-1.219 10.586-1.378 18.167a292 292 0 0 0 0 10.085c.159 7.581.673 14.085 1.378 18.167.459 2.65 3.007 2.65 3.466 0 .706-4.083 1.205-10.586 1.364-18.167.058-2.783.058-7.302 0-10.085-.16-7.582-.659-14.085-1.364-18.167-.23-1.326-.98-1.989-1.733-1.989M30.493 90.95c-.84 0-1.68.66-1.932 1.975-.56 2.922-.965 7.09-1.136 11.889-.1 2.781-.1 7.303 0 10.085.171 4.797.576 8.952 1.136 11.875.504 2.629 3.36 2.629 3.864 0 .56-2.925.98-7.078 1.15-11.875.1-2.782.1-7.305 0-10.085-.17-4.8-.59-8.967-1.15-11.89-.252-1.314-1.092-1.974-1.932-1.974m11.335 0c-.82 0-1.628.672-1.875 1.989-.595 3.168-1.039 7.792-1.207 13.139a190 190 0 0 0 0 10.07c.168 5.347.612 9.985 1.207 13.154.494 2.633 3.269 2.633 3.764 0 .592-3.169 1.037-7.808 1.207-13.153h-.014c.088-2.782.088-7.29 0-10.071-.169-5.347-.598-9.97-1.193-13.14-.247-1.316-1.07-1.988-1.89-1.988zm-22.67 6.307c-.97 0-1.948.648-2.23 1.946-.339 1.56-.603 3.469-.767 5.61-.212 2.775-.212 7.297 0 10.072.162 2.141.428 4.062.767 5.624.563 2.596 3.883 2.596 4.446 0 .34-1.56.603-3.483.767-5.625.212-2.774.212-7.296 0-10.07-.163-2.141-.428-4.049-.767-5.611-.282-1.298-1.245-1.946-2.216-1.946"/></svg>