<svg width="192" height="192" fill="none" xmlns="http://www.w3.org/2000/svg"><path d="M43 86a6 6 0 0 1 6-6h94a6 6 0 0 1 6 6v20a6 6 0 0 1-6 6H49a6 6 0 0 1-6-6V86Zm25.756-19.266a5.997 5.997 0 0 1 0-8.481l34.497-34.497a5.997 5.997 0 0 1 8.481 0l9.51 9.51a5.998 5.998 0 0 1 0 8.481L86.747 76.244a5.997 5.997 0 0 1-8.48 0l-9.51-9.51Zm2 92a5.997 5.997 0 0 1 0-8.481l34.497-34.497a5.999 5.999 0 0 1 8.481 0l9.51 9.51a5.999 5.999 0 0 1 0 8.481l-34.497 34.497a5.998 5.998 0 0 1-8.48 0l-9.51-9.51Z" stroke="#000" stroke-width="12" stroke-linecap="round" stroke-linejoin="round"/></svg>