<svg xmlns="http://www.w3.org/2000/svg" width="192" height="192" viewBox="0 0 192 192"><path d="M52.56 16.84c.34.36 1.3 1.82 2.13 3.23l1.52 2.56.17-1.33c.2-1.6 1.44-2.86 2.48-2.53q1.48.48 2.69 2.3c1 1.51 2.75 3.73 3.56 4.53.39.38 1.36 1.14 2.16 1.68.8.55 2.32 1.68 3.39 2.52 2.22 1.76 6 3.82 7.57 4.12.66.12 2.24-.04 4.08-.44 1.66-.35 3.84-.72 4.86-.83s3.5-.4 5.53-.65c2.88-.36 4.1-.39 5.53-.12 1.02.18 3.72.54 6 .8 2.27.25 5.04.62 6.15.82 3.41.62 4.48.48 7.26-1 1.38-.71 3.58-2.2 4.91-3.28 1.32-1.09 2.62-1.98 2.88-1.98.48 0 4.43-4.58 5.52-6.4a4.8 4.8 0 0 1 1.52-1.47c.72-.37 1.09-.4 1.66-.14.92.42 1.76 1.81 1.76 2.93 0 .7.27.39 1.54-1.74 2.12-3.55 2.59-4 4.11-4a4 4 0 0 1 1.62.24c1.05.67 1.58 5.09 1.06 8.8a27.2 27.2 0 0 1-2.7 8.35c-.55 1.15-1.03 2.2-1.03 2.34s.48.2 1.05.13c.76-.1 1.22.05 1.7.52.83.85.84 2.84.02 6.06-.33 1.32-.53 2.71-.44 3.09.13.52-.35 1.33-2 3.44-1.2 1.52-2.26 3.05-2.36 3.41-.1.43.33 1.67 1.27 3.52 4.3 8.62 6.91 16.67 6.91 21.27 0 .74.16 1.98.35 2.76.28 1.1.24 2.28-.18 5.74-.69 5.62-1.9 9.75-3.72 12.64a5.6 5.6 0 0 0-.75 1.6c0 .22.56 1.36 1.28 2.56 3.54 6.06 5.52 10.96 7.97 19.94.26.92.4 3.9.4 8.82.03 6.9-.02 7.6-.7 9.97-.78 2.76-1.73 4.1-2.9 4.1-.65 0-.8.22-1.12 1.45a56.5 56.5 0 0 1-3.8 9.5 24 24 0 0 1-2.49 3.82c-1.04 1.18-1.33 1.36-2.08 1.2-.77-.16-.93-.03-1.52 1.13-1 2-4 6.4-4.8 7.03-.37.31-2.32 1.07-4.3 1.7s-4.03 1.27-4.54 1.45a24 24 0 0 1-2.3.6c-.76.16-2 .42-2.77.6a124 124 0 0 1-20.81 1.8c-12.21.11-23.4-1.1-29.75-3.2l-4.92-1.6q-3.36-1.1-4.2-1.91c-.88-.88-4.45-6.33-4.76-7.26-.14-.43-.38-.51-1.04-.37-.68.16-1.01 0-1.77-.81-2.02-2.18-5.56-9.55-6.6-13.72-.34-1.39-.47-1.55-1.4-1.75-.57-.12-1.17-.4-1.31-.64-1.33-2.08-2.12-7.01-2.1-13.16 0-4.9.4-7.52 1.71-11.96 2.08-6.93 3.48-10.23 6.91-16.3.83-1.48 1.5-2.84 1.5-3.05 0-.19-.54-1.36-1.2-2.59-1.8-3.38-2.51-5.93-3.43-12.48a14.4 14.4 0 0 1-.02-4.64c.18-1.17.42-3.02.53-4.13.3-3.02 1.68-8.13 3.42-12.68.42-1.1 1.68-3.84 2.77-6.08 1.44-2.95 1.95-4.28 1.82-4.8a8 8 0 0 0-1.44-2.12A40 40 0 0 1 50.33 48a4.4 4.4 0 0 1-1-2.78 16 16 0 0 0-.54-3.12 14.4 14.4 0 0 1-.5-3.31c0-1.28.14-1.76.69-2.28s.93-.62 1.84-.48l1.17.19-1.2-2.4a48 48 0 0 1-2.06-4.88c-.7-2-.9-3.15-1-6q-.13-3.53.26-4.8a8 8 0 0 1 .63-1.53c.3-.35 2.14-.73 2.8-.57a3.2 3.2 0 0 1 1.13.8m7.3 44.82a24 24 0 0 1 2.54 2.93c.2.39.44 1.84.53 3.25.24 3.43 1.08 6.7 2.43 9.5a18.1 18.1 0 0 0 7.88 7.87c3.05 1.48 7 2.34 10.7 2.35 2.71 0 2.95.06 3.75.83.48.46.92.77 1 .7.07-.08-.19-1.12-.58-2.3a56 56 0 0 1-2-6.99 8 8 0 0 0-.77-2.32c-.4-.57-.45-.56-1.17.12a5.6 5.6 0 0 1-1.79 1c-1.5.44-4.47.37-6.38-.14a8 8 0 0 1-4.88-3.35c-.76-1.18-.86-1.66-1-4.83l-.16-3.52-2.15-1.52c-2.3-1.6-9.46-5.82-9.88-5.82-.13 0 .74 1 1.94 2.24m71.56.12c-4.07 2.38-7.82 4.92-7.86 5.3-.02.13-.05 1.6-.08 3.32-.05 2.54-.18 3.33-.74 4.4-.87 1.62-2.26 2.7-4.54 3.49-2.94 1.01-7.44.68-8.64-.66-.28-.32-.64-.58-.77-.58-.39 0-1.08 1.56-1.32 2.94-.12.68-.76 2.96-1.44 5.07a33 33 0 0 0-1.1 3.94c.06.06.57-.24 1.14-.66.9-.68 1.36-.77 3.56-.77 3.46 0 8.06-1 10.78-2.36a19.3 19.3 0 0 0 7.14-6.43c.56-.96 1.44-2.95 1.94-4.44.66-1.99.97-3.63 1.15-6.22l.24-3.52 2.57-2.59c1.41-1.42 2.43-2.6 2.26-2.58-.16 0-2.1 1.06-4.3 2.35M92.1 98.68c-.14.4.46 1.65 2 4.1 1.2 1.92 2.3 3.64 2.46 3.79.17.17.5.08.85-.24.91-.83 4.4-7 4.3-7.57-.08-.46-.68-.53-4.76-.6-4.39-.09-4.67-.06-4.85.51m-5.96 12.98c-.36.7-.67 2.02-.96 4.07-.3 2.04.44 6.77 1.14 7.33a1.12 1.12 0 0 0 .96.19c.28-.1 2.2-1 4.27-2a31.7 31.7 0 0 1 5-2c1.02-.17 1.44-.06 2.5.64 1.63 1.09 7.72 3.6 8.03 3.3.42-.41 1.18-3.9 1.2-5.44 0-2.14-.93-6.04-1.48-6.26-.24-.1-1.63.22-3.06.7a12 12 0 0 0-3.89 1.97c-1.18 1.03-1.41 1.1-3.09 1.04-1.42-.06-2-.24-2.73-.88-1.3-1.09-2.16-1.5-5.09-2.4-2.32-.72-2.56-.74-2.8-.27"/></svg>