<svg xmlns="http://www.w3.org/2000/svg" width="192" height="192" viewBox="0 0 192 192"><path d="M79.583 173.41a5640 5640 0 0 0-20.727-3.232c-3.793-.568-4.674-.832-5.618-1.68-1-.88-1.144-1.296-1.32-3.743l-.192-2.752 47.864 6.703-.024 2.776c-.024 2.536-.112 2.848-1.057 3.664-.568.488-1.408.872-1.864.856s-8.131-1.184-17.062-2.592m-54.106-16.815a2.8 2.8 0 0 1-1.977-1.44V79.911c.224-2.008 1.769-2.064 3.289-2.024 1 .016 26.369-1.44 56.379-3.152 59.364-3.407 56.187-3.343 57.643-1.12.656 1 .688 3.16.688 48.094 0 39.518-.08 47.197-.528 48.02-.48.905-2.537 2.216-3.305 2.104zm59.196-2.36-6.218-20.039 11.02.52-28.297-41.71-.665 39.574 9.636.856 6.354 20.247zm50.97-28.662-2.593-.24c-3.674-.336-8.723-1.856-12.764-3.84-13.805-6.751-22.984-21.03-24.168-37.566l-.24-3.408-4.602.224.12 2.832a52.4 52.4 0 0 0 5.322 20.943c4.873 10.063 12.06 17.56 21.423 22.343 5.233 2.672 10.019 4.056 17.222 4.984m.28-17.887v-3.208h-1.64c-.897 0-2.922-.328-4.49-.728-11.732-3-20.327-13.783-21.64-27.15l-.271-2.697H102.8v1.488c0 2.64.784 7.28 1.769 10.391 4.081 12.927 14.189 22.295 26.44 24.511 4.986.904 4.634 1.104 4.634-2.608m0-17.47-2.24-.4a20 20 0 0 1-4.346-1.417c-2.385-1.167-5.754-4.48-6.962-6.855-.977-1.912-1.929-5.456-1.929-7.152 0-1.152-.096-1.24-1.232-1.24a24 24 0 0 0-2.641.24c-1.28.216-1.417.344-1.409 1.416.016 2.424 1.16 6.56 2.681 9.632 3.265 6.623 10.34 11.535 16.854 11.703l1.225.032zm12.268 36.181-3.017-.216-.192-29.438c-.08-10.943.696-24.847-1.024-31.014-.72-2.576-2.825-3.295-5.762-3.455-1.36-.08-12.276.495-24.264 1.263-11.996.768-22.063 1.296-22.375 1.176-.48-.184-.56-1.632-.544-9.951.024-10.527.24-12.055 1.864-12.791.52-.24 14.277-1.904 30.57-3.704 29.314-3.24 29.618-3.264 30.57-2.56.52.4 1.065 1.12 1.209 1.624s.272 20.063.288 43.478c.048 46.374.12 44.742-2.04 45.566-.52.194-1.07.297-1.625.304-.352-.04-2.001-.16-3.658-.288zm-25.456-75.54a4 4 0 0 0 1.297-1.488c1.584-3.063-.593-6.28-3.546-5.255-3.433 1.2-3.12 7.127.384 7.127a4.8 4.8 0 0 0 1.865-.384m36.132 34.902c-.16-.16-.28-11.439-.28-25.047 0-22.815-.056-24.855-.664-26.07-.88-1.737-2.85-3.024-4.65-3.024-.784 0-7.818.767-15.62 1.695-7.811.936-14.366 1.704-14.566 1.704-.232 0-.368-3.071-.368-8.135 0-9.328.176-10.063 2.545-10.72 1.344-.375 40.141-6.439 41.174-6.431.272 0 .904.416 1.416.928l.929.92v72.012l-.929 1a2.88 2.88 0 0 1-2.016 1c-.608 0-2.353.104-3.89.232s-2.92.096-3.08-.064m-11.893-63.197c1.36-1.504 1.409-3.44.112-4.736-.512-.512-1.264-.928-1.68-.928-3.201 0-5.042 4.088-2.841 6.288 1.24 1.24 2.921 1 4.401-.632z"/></svg>