<svg width="192" height="192" fill="none" xmlns="http://www.w3.org/2000/svg"><path d="M113.584 96.449a5.999 5.999 0 0 0 5.983 5.551h16.866c3.14 0 5.749-2.42 5.983-5.551l5.1-68a5.99 5.99 0 0 0-1.585-4.53A5.993 5.993 0 0 0 141.533 22h-27.066a5.994 5.994 0 0 0-4.398 1.92 5.99 5.99 0 0 0-1.585 4.53l5.1 67.999ZM128 126c8.837 0 16 7.163 16 16s-7.163 16-16 16-16-7.163-16-16 7.163-16 16-16ZM49.584 95.551A6 6 0 0 1 55.567 90h16.866a6 6 0 0 1 5.983 5.551l5.1 68A6 6 0 0 1 77.533 170H50.467a6.004 6.004 0 0 1-5.663-4.019 5.998 5.998 0 0 1-.32-2.43l5.1-68ZM64 66c8.837 0 16-7.163 16-16s-7.163-16-16-16-16 7.163-16 16 7.163 16 16 16Z" stroke="#000" stroke-width="12" stroke-linecap="round" stroke-linejoin="round"/></svg>