<svg xmlns="http://www.w3.org/2000/svg" width="192" height="192"><path d="M16.308 108.88a37.5 37.5 0 0 0-.308 4.801v16.835c0 20.387 16.413 36.8 36.8 36.8h86.4c20.387 0 36.8-16.413 36.8-36.8v-16.835c0-1.627-.104-3.23-.307-4.8-2.491 21.412-19.826 38.167-41.506 39.765q.065-.51.065-1.039c0-4.496-3.62-8.116-8.116-8.116s-8.116 3.62-8.116 8.116q0 .594.082 1.165H61.218c-23.248 0-42.29-17.37-44.91-39.892m56.508 14.381a8.1 8.1 0 0 0-8.116 8.116c0 4.496 3.62 8.116 8.116 8.116s8.116-3.62 8.116-8.116-3.62-8.116-8.116-8.116" opacity=".6"/><path d="M95.677 58.333a21.79 21.79 89.341 0 1-7.255 21.946 21.79 21.79 89.341 0 1-30.686-2.857 21.8 21.8 89.341 0 1-4.558-18.382C31.989 62.812 16 81.246 16 103.55v.001c0 25.05 20.167 45.217 45.217 45.217h56.884a8 8 0 0 1-.082-1.164c0-4.496 3.62-8.116 8.116-8.116s8.116 3.62 8.116 8.116q0 .528-.066 1.04c23.45-1.73 41.814-21.188 41.814-45.093 0-25.05-20.167-45.217-45.218-45.217zm22.45 1.374a20.38 20.38 8.315 0 1 16.463 7.354 20.384 20.384 8.315 0 1-2.673 28.702 20.384 20.384 8.315 0 1-28.702-2.672 20.384 20.384 8.315 0 1 2.673-28.703 20.4 20.4 8.315 0 1 12.239-4.681m-45.311 63.551c4.496 0 8.116 3.62 8.116 8.116s-3.62 8.116-8.116 8.116-8.116-3.62-8.116-8.116a8.1 8.1 0 0 1 8.116-8.116" opacity=".8"/><circle cx="74.508" cy="63.507" r="21.792"/><circle cx="110.12" cy="38.841" r="14.154"/><circle cx="118.9" cy="80.076" r="20.384"/></svg>