<svg xmlns="http://www.w3.org/2000/svg" width="192" height="192" viewBox="0 0 192 192"><path d="M96 19c-42.35 0-77 34.65-77 77s34.65 77 77 77 77-34.65 77-77-34.265-77-77-77m35.426 111.26c-1.54 2.304-4.235 3.08-6.551 1.54-18.095-11.165-40.81-13.481-67.766-7.321-2.683.782-4.999-1.149-5.769-3.459-.77-2.701 1.155-5.005 3.465-5.775 29.26-6.551 54.67-3.85 74.69 8.47 2.695 1.155 3.074 4.229 1.931 6.545m9.24-21.175c-1.931 2.695-5.396 3.85-8.098 1.925-20.784-12.705-52.354-16.555-76.609-8.855-3.073.77-6.545-.77-7.315-3.85s.77-6.551 3.85-7.321c28.105-8.464 62.755-4.223 86.625 10.4 2.317 1.162 3.465 5.006 1.547 7.7zm.77-21.56c-24.646-14.63-65.841-16.17-89.326-8.849-3.85 1.149-7.7-1.161-8.855-4.626-1.155-3.856 1.155-7.7 4.62-8.861 27.335-8.085 72.38-6.545 100.88 10.4 3.459 1.926 4.614 6.546 2.689 10.01-1.919 2.702-6.545 3.844-10.004 1.926z"/></svg>