<svg width="192" height="192" fill="none" xmlns="http://www.w3.org/2000/svg"><path d="M49.813 73.963A18.212 18.212 0 0 1 58.28 62.9l66.457-38.46a18.136 18.136 0 0 1 13.791-1.82 18.18 18.18 0 0 1 11.036 8.488 18.26 18.26 0 0 1 1.816 13.824 18.216 18.216 0 0 1-8.468 11.062l-66.457 38.46a18.137 18.137 0 0 1-13.792 1.82 18.18 18.18 0 0 1-11.035-8.488 18.256 18.256 0 0 1-1.816-13.824Zm-9.193 73.104a18.213 18.213 0 0 1 8.467-11.062l66.457-38.46a18.138 18.138 0 0 1 13.792-1.82 18.18 18.18 0 0 1 11.035 8.488 18.25 18.25 0 0 1 1.816 13.824 18.209 18.209 0 0 1-8.468 11.062l-66.457 38.46a18.134 18.134 0 0 1-13.791 1.82 18.18 18.18 0 0 1-11.036-8.488 18.256 18.256 0 0 1-1.816-13.824Z" stroke="#000" stroke-width="12" stroke-linecap="round" stroke-linejoin="round"/></svg>