<svg width="192" height="192" fill="none" xmlns="http://www.w3.org/2000/svg"><path d="M161.478 86.244a20.099 20.099 0 0 1 1.877 14.799 19.973 19.973 0 0 1-8.829 11.985l-88.981 54.217a19.464 19.464 0 0 1-19.688.161 19.632 19.632 0 0 1-7.228-7.236A19.786 19.786 0 0 1 36 150.256V41.671a20.084 20.084 0 0 1 2.715-9.869 19.926 19.926 0 0 1 7.216-7.22A19.764 19.764 0 0 1 55.744 22c3.438.009 6.815.916 9.8 2.631l.1.1L154.427 78.9c2.9 1.792 5.343 4.304 7.001 7.295l.05.05Z" stroke="#000" stroke-width="12"/><path d="M97.607 70.752s-11.974-5.958-25.073-2.858a14.24 14.24 0 0 0-5.158 2.194 14.104 14.104 0 0 0-3.894 4.008 13.972 13.972 0 0 0-2.02 5.19 13.923 13.923 0 0 0 .173 5.561c2.395 9.833 17.449 10.124 17.449 10.124s18.963.436 21.602 11.383c2.102 8.815-6.745 15.887-14.565 17.728C73.023 127.23 61 121.272 61 121.272" stroke="#000" stroke-width="12" stroke-linecap="round" stroke-linejoin="round"/></svg>