<svg width="192" height="192" fill="none" xmlns="http://www.w3.org/2000/svg"><path d="M162 145c0 3.283-1.707 6.534-5.024 9.567-3.317 3.033-8.178 5.789-14.307 8.111-6.129 2.321-13.404 4.163-21.412 5.419C113.25 169.353 104.667 170 96 170c-8.667 0-17.25-.647-25.257-1.903-8.008-1.256-15.283-3.098-21.412-5.419-6.129-2.322-10.99-5.078-14.307-8.111C31.707 151.534 30 148.283 30 145" stroke="#000" stroke-width="12" stroke-linecap="round" stroke-linejoin="round"/><ellipse cx="96" cy="47" rx="66" ry="25" stroke="#000" stroke-width="12" stroke-linecap="round" stroke-linejoin="round"/><path d="M162 80c0 3.283-1.707 6.534-5.024 9.567-3.317 3.033-8.178 5.79-14.307 8.11-6.129 2.322-13.404 4.164-21.412 5.42C113.25 104.353 104.667 105 96 105c-8.667 0-17.25-.647-25.257-1.903-8.008-1.256-15.283-3.098-21.412-5.42-6.129-2.32-10.99-5.077-14.307-8.11C31.707 86.534 30 83.283 30 80m132 32c0 3.283-1.707 6.534-5.024 9.567-3.317 3.033-8.178 5.789-14.307 8.111-6.129 2.321-13.404 4.163-21.412 5.419C113.25 136.353 104.667 137 96 137c-8.667 0-17.25-.647-25.257-1.903-8.008-1.256-15.283-3.098-21.412-5.419-6.129-2.322-10.99-5.078-14.307-8.111C31.707 118.534 30 115.283 30 112m0-65v98m132-98v98" stroke="#000" stroke-width="12" stroke-linecap="round" stroke-linejoin="round"/></svg>