<svg xmlns="http://www.w3.org/2000/svg" width="192" height="192" viewBox="0 0 192 192"><path d="M95.449 39.221a56.2 56.2 0 0 0-29.199 7.53l.1.099c3.76 4.21 1.95 12.6-4.05 18.64-7.4 7.488-15.163 6.577-17.86 3.071a68 68 0 0 0-8.34 21.94c-2.27 11.73-1.78 25.198 2.88 39.868 3.44 10.77 11.77 23.672 24.12 33.852l-.06-.07a79.8 79.8 0 0 0 13.933 9.152l.217.088c6.12 1.786 12.471 2.518 18.83 2.61 41.3 0 74.85-35.89 74.85-80a83.6 83.6 0 0 0-7.898-35.67c5.3 15.83 7.699 33.91 1.299 51.93-4.75 13.4-12.96 23.55-23.2 29.9-10.78 6.67-23.71 9.25-36.82 7.4a46.2 46.2 0 0 1-22.368-9.85c-7.22-5.75-12.461-12.902-14.531-19.102-2.97-8.95-3.61-17.178-2.3-24.398 1.48-8.22 5.3-15.05 10.34-19.75a28.9 28.9 0 0 1 11.18-6.611c4.46-1.38 8.8-1.62 12.38-.9 5.88 1.17 10.92 3.741 14.21 7.691a16.25 16.25 0 0 1 3.52 13.17c-.5 3.17-1.86 5.71-3.84 7.33a8.45 8.45 0 0 1-4 1.94 13.59 13.59 0 0 0-12.039-9.631c-7.46-.48-13.9 5.351-14.33 13.02 0 0-.8 9 5.88 16.49 2.62 2.93 6.519 5.8 12.52 7.3 9.38 2.34 20.27-.03 28.95-6.95 6.87-5.47 12.32-13.82 14.2-24.75a44.8 44.8 0 0 0-9.401-36.57c-6.99-8.62-17.439-15.06-30.109-17.75-2.8-.6-5.85-.95-9.06-1.02z"/><path d="M95.98 16c-41.33 0-74.85 35.85-74.85 79.97 0 37.18 23.909 68.471 56.059 77.421-4.985-2.572-9.803-5.683-14.139-9.24l.05.07c-12.35-10.18-20.68-23.08-24.12-33.85-4.66-14.67-5.15-28.14-2.88-39.87a68 68 0 0 1 8.33-21.94c-3.46-4.3-1.6-12.47 4.27-18.4 5.96-6.02 13.77-7.54 17.56-3.4 4-2.32 8.1-4.06 12.18-5.26 9.38-2.75 18.59-2.84 26.07-1.26 12.67 2.7 23.12 9.13 30.11 17.75a44.82 44.82 0 0 1 9.4 36.58c-1.88 10.92-7.33 19.27-14.2 24.75-8.68 6.91-19.58 9.28-28.95 6.94-6-1.5-9.9-4.37-12.52-7.3-6.67-7.49-5.88-16.5-5.88-16.5.44-7.65 6.87-13.49 14.33-13a13.59 13.59 0 0 1 12.05 9.62 8.45 8.45 0 0 0 3.99-1.94c1.98-1.62 3.35-4.16 3.84-7.33a16.2 16.2 0 0 0-3.52-13.17c-3.29-3.95-8.33-6.52-14.21-7.69-3.59-.72-7.92-.48-12.38.9a28.9 28.9 0 0 0-11.18 6.6c-5.04 4.7-8.86 11.54-10.34 19.77-1.31 7.21-.67 15.44 2.3 24.39 2.07 6.2 7.31 13.35 14.53 19.1a46.2 46.2 0 0 0 22.37 9.84c13.1 1.86 26.04-.72 36.81-7.4 10.25-6.34 18.46-16.48 23.21-29.9 6.4-18 4-36.09-1.3-51.92C150.67 34.08 125.3 16 95.97 16z" opacity=".5"/></svg>