<svg xmlns="http://www.w3.org/2000/svg" width="192" height="192" viewBox="0 0 192 192"><path d="M44.735 19A25.75 25.75 0 0 0 19 44.735v102.53A25.75 25.75 0 0 0 44.735 173h102.53A25.75 25.75 0 0 0 173 147.265V44.735A25.75 25.75 0 0 0 147.265 19zm10.386 27.994h81.757a8.13 8.13 0 0 1 8.128 8.128v81.757a8.13 8.13 0 0 1-8.128 8.128H55.121a8.13 8.13 0 0 1-8.128-8.128V55.122a8.13 8.13 0 0 1 8.128-8.128m24.546 27.9a4.67 4.67 0 0 0-4.663 4.697v32.639a4.654 4.654 0 0 0 4.663 4.671v-.017h32.682a4.67 4.67 0 0 0 4.663-4.671V79.59a4.67 4.67 0 0 0-4.663-4.697z"/></svg>