<svg width="192" height="192" fill="none" xmlns="http://www.w3.org/2000/svg"><path d="M25 45c0-11.046 8.954-20 20-20h102c11.046 0 20 8.954 20 20v102c0 11.046-8.954 20-20 20H45c-11.046 0-20-8.954-20-20V45Z" stroke="#000" stroke-width="12" stroke-linecap="round" stroke-linejoin="round"/><path d="M53 59a6 6 0 0 1 6-6h74a6 6 0 0 1 6 6v74a6 6 0 0 1-6 6H59a6 6 0 0 1-6-6V59Z" stroke="#000" stroke-width="12" stroke-linecap="round" stroke-linejoin="round"/><path d="M96 75v24l16 10" stroke="#000" stroke-width="12" stroke-linecap="round" stroke-linejoin="round"/></svg>