<svg width="192" height="192" fill="none" xmlns="http://www.w3.org/2000/svg"><path d="m26 110 59-44 41-18 40 11" stroke="#000" stroke-width="10" stroke-linecap="round" stroke-linejoin="round"/><path d="m26 110 27 32 44-30-12-46" stroke="#000" stroke-width="10" stroke-linecap="round" stroke-linejoin="round"/><path d="M26 115a5 5 0 1 0 0-10 5 5 0 0 0 0 10Zm27 32a5 5 0 1 0 0-10 5 5 0 0 0 0 10Z" stroke="#000" stroke-width="10" stroke-linecap="round" stroke-linejoin="round"/><path d="M97 116a4 4 0 1 0 0-8 4 4 0 0 0 0 8Zm29-64a4 4 0 1 0 0-8 4 4 0 0 0 0 8Z" stroke="#000" stroke-width="8" stroke-linecap="round" stroke-linejoin="round"/><path d="M166 64a5 5 0 1 0 0-10 5 5 0 0 0 0 10Z" stroke="#000" stroke-width="10" stroke-linecap="round" stroke-linejoin="round"/><path d="M85 72a6 6 0 1 0 0-12 6 6 0 0 0 0 12Z" stroke="#000" stroke-width="12" stroke-linecap="round" stroke-linejoin="round"/></svg>