<svg xmlns="http://www.w3.org/2000/svg" width="192" height="192" viewBox="0 0 192 192"><path d="M48.43 171.75a9.36 9.36 0 0 1-5.376-8.264c0-1.016 1.608-11.264 3.584-22.776 1.968-11.512 3.584-21.4 3.584-21.976 0-1.08.032-1.04-24.448-25.112-5.312-5.216-8.576-8.744-9.048-9.76-.856-1.84-.96-4.4-.288-6.648.648-2.184 3.168-4.912 5.216-5.656.92-.344 11.272-1.984 22.992-3.648s21.816-3.224 22.44-3.464c.92-.352 1.576-1.36 3.64-5.64 5.28-10.96 17.376-35.024 18.136-36.096.44-.616 1.728-1.584 2.864-2.144 3.84-1.92 8.296-1.144 10.96 1.888.72.816 5.648 10.296 11.2 21.52 5.44 11.024 10.12 20.184 10.4 20.352.264.16 10.376 1.728 22.464 3.472 24.48 3.536 25.12 3.696 27.32 6.728 2.24 3.08 2.536 6.576.856 9.872-.48.928-7.12 7.696-16.84 17.152-8.824 8.592-16.176 15.944-16.32 16.344s1.416 10.56 3.48 22.584 3.76 22.48 3.76 23.248c-.008 1.992-1.64 5.232-3.36 6.64a9.6 9.6 0 0 1-6.264 2.12c-2.152 0-3.36-.576-22.168-10.496-7.744-4.08-14.152-7.424-14.24-7.424s-.176.32-.176.72c0 1.344-2.8 3.28-5.488 3.792-3.08.584-8.056-1.736-8.056-3.76 0-.416-.136-.752-.32-.752s-7.84 3.976-17.024 8.84c-16.224 8.592-16.784 8.848-19.296 8.976-1.936.096-2.992-.064-4.184-.632m21.04-14.696c11.808-6.24 16.768-8.664 17.72-8.664h1.32l-.24-1.792c-.608-4.6-4.16-41.2-4-41.344.08-.096.664.168 1.28.592 5.504 3.744 14.2 3.88 20.4.32.96-.56 1.784-.96 1.832-.904s-.872 9.424-2.04 20.816a2232 2232 0 0 0-2.136 21.36q.008.64 1.28.864c.72.12 8.648 4.08 17.632 8.816 9.6 5.04 16.776 8.592 17.416 8.592q1.088.008 1.76-1.016c.64-.984.52-1.92-3.184-23.6-4.12-24.184-4.128-24.216-2.376-27.176.352-.6 7.872-8.112 16.72-16.712s16.176-16.032 16.304-16.536c.344-1.376-.472-2.504-2.136-2.96-.816-.232-10.984-1.776-22.6-3.44-11.608-1.664-21.648-3.256-22.304-3.528-3.136-1.312-3.504-1.928-13.856-22.928-5.456-11.064-10.2-20.432-10.544-20.816-.8-.896-2.72-.896-3.496.008-.32.384-4.904 9.392-10.16 20.016-5.272 10.624-10 19.968-10.536 20.768-1.92 2.928-2.848 3.152-27.248 6.688-16.736 2.424-22.248 3.36-22.8 3.864-.848.76-.968 2.496-.24 3.384.272.328 7.648 7.576 16.4 16.104 11.08 10.816 16.104 15.992 16.616 17.104.4.88.72 2.416.728 3.424s-1.6 11.224-3.568 22.704c-1.976 11.48-3.584 21.392-3.584 22.032 0 1.456 1.008 2.624 2.28 2.624.536 0 8.344-3.904 17.36-8.664m22.776-51.928c-5.032-1.024-10.536-5.056-12.872-9.432-4.072-7.648-3.024-15.992 2.784-22.2 7.496-8.016 19.472-8.208 27.24-.44 4.52 4.536 6.464 10.68 5.248 16.64-1.464 7.152-5.696 12.16-12.384 14.632a21.6 21.6 0 0 1-10.016.8m5.6 24.96c.936-.944.968-1.192.968-6.192s-.032-5.256-.976-6.192c-1.2-1.208-2.464-1.248-3.68-.112-.88.824-.92 1.128-.92 6.368 0 4.976.08 5.584.8 6.304 1.08 1.08 2.616 1.008 3.8-.176z"/></svg>