<svg xmlns="http://www.w3.org/2000/svg" width="192" height="192" viewBox="0 0 192 192"><path d="M103.75 52.88a47 47 0 0 0-7.743-.667c-3.816 0-7.075.547-7.743.667-.385.068-.539-.308-.248-.53.274-.197 7.991-6.075 7.991-6.075l7.982 6.075c.3.222.154.598-.24.53M90.42 91.029s-.41.145-.512.513c1.617 1.232 2.72 4.064 6.1 4.064s4.491-2.823 6.1-4.08c-.103-.36-.514-.497-.514-.497s-2.113.496-5.586.496-5.587-.496-5.587-.496m5.587-4.765c-.941 0-1.147-.343-1.788-.343-.6 0-1.789.48-2.045.933a1.03 1.03 0 0 0 .274.599c1.36.205 1.976.967 3.559.967 1.582 0 2.198-.762 3.567-.959a1.03 1.03 0 0 0 .257-.607c-.257-.453-1.429-.941-2.045-.941-.641 0-.847.35-1.78.35m76.915 14.57a77 77 0 0 1-.488 5.476c-8.727 1.438-11.841-6.33-20.773-5.937q.796 2.84 1.3 5.792c7.367 0 10.335 6.887 18.531 5.869q-.641 3.165-1.548 6.228c-6.485.642-8.761-5.8-16.256-5.62q.085 1.59.085 3.233l-.025 1.797 14.562 5.561a77 77 0 0 1-2.541 6.074c-4.38-.24-5.887-5.852-12.551-5.407a60 60 0 0 1-.753 4.27c5.783-.411 7.024 4.919 11.165 5.347a77 77 0 0 1-3.405 5.63c-2.447-1.318-4.578-5.28-9.24-5.528a60 60 0 0 0 1.257-4.491 19.25 19.25 0 0 1-12.808-5.21c1.284-7.316-10.06-14.75-10.06-20.107 0-5.817 2.942-9.026 2.942-16.854 0-5.817-2.823-12.132-7.084-16.444a14.5 14.5 0 0 0-2.635-2.113c3.91 4.834 6.913 10.575 6.913 17.222 0 7.384-3.43 11.276-3.43 18.095 0 6.802 9.967 12.696 9.967 19.721 0 2.755-.89 5.45-3.799 10.763 4.466 4.466 10.292 6.905 14.048 6.905 1.215 0 1.882-.377 2.31-1.335a60 60 0 0 0 1.078-2.507c4.038.154 5.903 3.833 8.145 5.304q-1.848 2.482-3.876 4.792c-1.506-1.669-3.525-4.466-6.485-5.245a60 60 0 0 1-1.668 3.037c2.54.685 4.278 3.251 5.63 4.945a77 77 0 0 1-4.535 4.338c-.984-1.54-2.515-3.474-4.235-4.517a51 51 0 0 1-1.968 2.506c1.455.993 2.738 2.772 3.585 4.218q-2.73 2.19-5.647 4.141c-.967-7.828-11.636-13.184-8.76-22.27-.942 1.609-2.071 3.602-2.071 6.015 0 6.57 6.99 11.78 7.555 18.309a77 77 0 0 1-4.45 2.464c-.256-7.187-7.657-15.032-7.657-20.918 0-6.58 8.616-13.184 8.616-20.944 0-7.769-9.942-13.15-9.942-19.96s4.227-10.737 4.227-19.472c0-6.4-3.038-12.876-7.735-17.008a12.8 12.8 0 0 0-2.635-1.831c4.432 5.304 6.999 10.138 6.999 17.445 0 8.213-4.851 12.765-4.851 20.816s9.753 12.508 9.753 20.02c0 7.495-9.069 13.809-9.069 21.509 0 7.016 7.991 14.005 8.12 22.313a77 77 0 0 1-5.348 2.088c1.027-8.393-7.99-17.06-7.99-23.913 0-7.487 9.41-13.928 9.41-22.005s-9.565-11.841-9.565-20.14c0-8.29 5.87-12.876 5.87-22.04a22.33 22.33 0 0 0-8.676-17.538l-.325-.249c-.488-.359-.881.077-.54.505 3.646 4.552 5.596 9.155 5.596 15.973 0 8.376-6.75 15.186-6.75 23.305 0 9.582 9.069 12.32 9.069 20.183s-9.72 14.151-9.72 22.493c0 7.734 9.19 16.324 7.615 25.256a77 77 0 0 1-5.612 1.232c1.728-11.122-7.29-19.105-7.29-26.385 0-7.87 10.061-14.895 10.061-22.595 0-7.255-7.22-9.633-8.17-17.06-.128-1.018-.941-1.77-2.07-1.583-1.464.274-3.346 1.232-6.297 1.232s-4.834-.958-6.297-1.232c-1.121-.188-1.934.565-2.062 1.583-.95 7.426-8.18 9.796-8.18 17.06 0 7.7 10.062 14.716 10.062 22.587 0 7.29-9.01 15.272-7.29 26.394a77 77 0 0 1-5.612-1.232c-1.574-8.932 7.614-17.513 7.614-25.265 0-8.342-9.71-14.63-9.71-22.484s9.06-10.609 9.06-20.183c0-8.128-6.742-14.92-6.742-23.305 0-6.819 1.942-11.422 5.596-15.982.342-.428-.06-.855-.548-.496l-.325.248a22.24 22.24 0 0 0-8.667 17.53c0 9.154 5.87 13.75 5.87 22.048 0 8.29-9.575 12.046-9.575 20.131 0 8.076 9.412 14.51 9.412 22.005 0 6.853-9 15.52-7.974 23.921a77 77 0 0 1-5.347-2.096c.12-8.316 8.119-15.314 8.119-22.313 0-7.7-9.07-14.023-9.07-21.517 0-7.495 9.737-11.978 9.737-20.02s-4.834-12.602-4.834-20.816c0-7.315 2.567-12.123 6.99-17.436a12.8 12.8 0 0 0-2.627 1.83 23.36 23.36 0 0 0-7.742 17c0 8.745 4.235 12.663 4.235 19.473 0 6.819-9.942 12.192-9.942 19.96s8.607 14.373 8.607 20.944c0 5.895-7.41 13.749-7.657 20.918a77 77 0 0 1-4.45-2.456c.557-6.527 7.564-11.738 7.564-18.309 0-2.412-1.13-4.414-2.079-6.006 2.875 9.07-7.803 14.433-8.76 22.253a77 77 0 0 1-5.648-4.14c.839-1.438 2.13-3.226 3.594-4.21a51 51 0 0 1-1.977-2.515c-1.72 1.052-3.25 2.994-4.235 4.517a77 77 0 0 1-4.534-4.329c1.343-1.694 3.089-4.26 5.63-4.954a60 60 0 0 1-1.677-3.028c-2.952.778-4.98 3.576-6.477 5.236a77 77 0 0 1-3.867-4.791c2.242-1.472 4.09-5.142 8.136-5.305q.514 1.275 1.078 2.507c.428.967 1.087 1.335 2.31 1.335 3.765 0 9.582-2.439 14.048-6.905-2.909-5.304-3.781-7.99-3.781-10.763 0-7.015 9.958-12.91 9.958-19.72s-3.439-10.695-3.439-18.079c0-6.656 3.003-12.397 6.921-17.239a14.5 14.5 0 0 0-2.652 2.122c-4.243 4.32-7.075 10.626-7.075 16.444 0 7.837 2.943 11.054 2.943 16.872 0 5.347-11.345 12.782-10.061 20.088-3.961 3.61-8.684 5.22-12.816 5.22a60 60 0 0 0 1.258 4.49c-4.655.249-6.776 4.21-9.24 5.52a77 77 0 0 1-3.405-5.622c4.149-.428 5.39-5.758 11.182-5.347a60 60 0 0 1-.762-4.278c-6.656-.445-8.17 5.176-12.55 5.416a77 77 0 0 1-2.542-6.075l14.562-5.57-.034-1.796q0-1.643.085-3.243c-7.486-.17-9.77 6.263-16.256 5.63a77 77 0 0 1-1.54-6.22c8.18 1.001 11.156-5.878 18.523-5.878a60 60 0 0 1 1.3-5.8c-8.931-.385-12.045 7.383-20.763 5.937a77 77 0 0 1-.488-5.467c10.138 1.13 13.928-7.195 23.16-6.177a51 51 0 0 1 3.02-6.4c-11.567-2.036-15.494 7.64-26.266 6.16a77.034 77.034 0 0 1 77-74.826 77.026 77.026 0 0 1 77 74.835c-10.77 1.488-14.69-8.188-26.266-6.16q1.711 3.08 3.02 6.4c9.232-1.027 13.03 7.314 23.168 6.176M62.888 68.528c-5.672-2.318-12.542-1.788-18.403 1.985-.915-5.458-3.875-10.309-8.085-13.227-.59-.402-1.189-.025-1.137.65.89 11.525-5.852 21.535-14.134 30.339 8.538 2.566 15.81-8.428 26.882-4.595a58.2 58.2 0 0 1 14.887-15.143m33.1-6.981c-7.152 0-13.15 4.038-14.715 9.266-.129.402.042.667.504.453q1.942-.864 4.346-.856c2.91 0 5.476 1.07 7.007 2.935.668 2.224.72 5.433-.034 7.264-1.198-.274-1.634-1.198-2.815-1.198-1.163 0-2.079.821-4.063.821-1.994 0-2.225-.94-3.534-.94-1.54 0-1.822 1.59-1.822 3.379 0 7.965 7.332 18.925 15.118 18.925 7.785 0 15.109-10.96 15.109-18.925 0-1.797-.368-3.32-1.968-3.534a4.88 4.88 0 0 1-3.38 1.095c-1.984 0-2.532-.821-3.704-.821-1.412 0-1.275 2.986-2.952 3.148-1.129-2.686-1.18-6.143-.248-9.214 1.523-1.865 4.09-2.935 7.007-2.935 1.592 0 3.063.283 4.338.856.462.214.625-.051.513-.453-1.574-5.22-7.563-9.266-14.716-9.266m11.38 11.43c-1.712 0-3.714.522-4.98 1.933a1.97 1.97 0 0 0 .051 1.335c3.114-1.07 5.852-1.112 7.187.368.702-.642.924-1.215.924-1.882 0-1.035-1.052-1.754-3.174-1.754M82.36 76.622c1.506-1.497 4.671-1.437 7.948-.222.145-1.626-2.78-3.423-5.698-3.423-2.122 0-3.174.72-3.174 1.763 0 .667.222 1.249.924 1.882m49.28-26.967a25.67 25.67 0 0 0-14.51 5.57 57.3 57.3 0 0 1 6.536-13.004c-7.186.77-13.2 3.396-17.582 7.888l-3.439-9 7.623-6.725-10.198-.727-4.072-9.488-4.073 9.496-10.198.719 7.615 6.733-3.423 9c-4.397-4.491-10.395-7.126-17.582-7.888a57.3 57.3 0 0 1 6.52 13.004 25.67 25.67 0 0 0-14.51-5.578c3.388 4.363 6.39 9 8.607 13.988.256.565.795.753 1.368.454A57.3 57.3 0 0 1 95.99 58.09a57.6 57.6 0 0 1 25.675 6.006c.59.299 1.13.11 1.37-.445a68.4 68.4 0 0 1 8.623-13.988zm12.337 34.034c11.07-3.841 18.343 7.152 26.882 4.594-8.282-8.812-15.024-18.814-14.125-30.347.051-.667-.565-1.052-1.138-.65-4.218 2.926-7.187 7.777-8.085 13.227-5.87-3.764-12.731-4.295-18.403-1.985a58.2 58.2 0 0 1 14.87 15.16"/></svg>