<svg xmlns="http://www.w3.org/2000/svg" width="192" height="192" viewBox="0 0 192 192"><path d="M95.939 16 26.687 56.053l.06 80L96.06 176l69.252-40.053-.061-80zm.014 16.941 46.97 27.072-16.243 10.113-30.713-17.701-37.721 21.814.025 34.428-16.865 10.496-.039-54.652zm.027 36.426 23.074 13.299.02 26.633-23.055 13.334-23.074-13.299-.02-26.633zm54.611 3.156.041 54.965-54.586 31.57-47.23-27.223 16.244-10.11 30.973 17.85 37.721-21.815-.025-34.738 16.863-10.498zM95.999 85.156c-2.943 0-5.365 2.422-5.365 5.365.18 2.23 1.206 3.781 3.144 4.846l-2.506 11.441 9.454.035-2.498-11.477c1.76-1.191 3.164-2.498 3.136-4.845 0-2.943-2.422-5.366-5.365-5.366z"/></svg>