<svg xmlns="http://www.w3.org/2000/svg" width="192" height="192" viewBox="0 0 192 192"><path d="M95.865 19c-40.431 0-73.586 31.185-76.724 70.821l41.272 17.056a21.74 21.74 0 0 1 12.269-3.786c.404 0 .802.026 1.206.039l18.358-26.578v-.379c0-16.01 13.013-29.029 29.03-29.029 16.002 0 29.028 13.032 29.028 29.048s-13.026 29.035-29.029 29.035h-.673l-26.154 18.68c0 .333.025.673.025 1.02 0 12.03-9.721 21.79-21.752 21.79-10.49 0-19.353-7.526-21.374-17.498l-29.549-12.237C30.948 149.303 60.62 173 95.866 173c42.523 0 76.994-34.477 76.994-77s-34.477-77-76.994-77zM67.381 135.85l-9.452-3.914c1.681 3.484 4.582 6.41 8.432 8.02 8.322 3.46 17.922-.487 21.38-8.822a16.2 16.2 0 0 0 .032-12.506 16.28 16.28 0 0 0-8.836-8.874c-4.004-1.669-8.278-1.598-12.05-.193l9.773 4.043c6.134 2.566 9.04 9.625 6.474 15.753-2.547 6.14-9.606 9.047-15.746 6.493zm73.246-59.694c0-10.664-8.682-19.346-19.346-19.346-10.684 0-19.346 8.682-19.346 19.346 0 10.684 8.663 19.346 19.346 19.346 10.671 0 19.346-8.662 19.346-19.346m-33.835-.032c0-8.034 6.5-14.54 14.534-14.54 8.014 0 14.54 6.506 14.54 14.54 0 8.027-6.526 14.534-14.54 14.534-8.04 0-14.534-6.507-14.534-14.534"/></svg>