<svg width="192" height="192" version="1.1" viewBox="0 0 192 192" xmlns="http://www.w3.org/2000/svg"><path d="m149.18 45.83a27.909 27.909 0 0 1 10.998 22.202 27.909 27.909 0 0 1-27.909 27.909 27.909 27.909 0 0 1-5.273-0.50269 27.909 27.909 0 0 0 16.911 5.7068 27.909 27.909 0 0 0 27.909-27.909 27.909 27.909 0 0 0-22.636-27.406z"/><circle cx="68" cy="39.834" r="1"/><circle cx="53" cy="48" r="2"/><circle cx="78" cy="47" r="1.5"/><circle cx="76" cy="69" r="1"/><circle cx="73" cy="73" r="1"/><circle cx="70" cy="76" r="1"/><circle cx="69" cy="101" r="1.5"/><circle cx="94" cy="92" r="2"/><path d="m96 127.83c-32.002-1e-5 -61.941 9.4798-80 25.331h160c-18.059-15.852-47.998-25.331-80-25.331z"/></svg>
