<svg xmlns="http://www.w3.org/2000/svg" width="192" height="192" viewBox="0 0 192 192"><path d="M54.526 121.6a11.674 11.674 0 0 0-11.834 12.074 8.88 8.88 0 0 0 6.197 8.596 8.96 8.96 0 0 0 9.435-3.519c.688-.863.84-2.854 2.127-2.454 1.496.455 1.44 2.39 1.6 3.83a8 8 0 0 1-.136 2.199c-1.16 6.317-3.63 8.58-10.82 9.97a17.75 17.75 0 0 1-20.23-11.194 33.6 33.6 0 0 1 0-21.062 38.4 38.4 0 0 1 12.93-19.542 6.629 6.629 0 1 0-8.091-10.491 50.22 50.22 0 0 0-19.694 40.037 40 40 0 0 0 .591 7.732 30.07 30.07 0 0 0 17.416 24.34 35.02 35.02 0 0 0 24.868.976 20.07 20.07 0 0 0 14.537-15.512 23.83 23.83 0 0 0-.927-16.072 19.59 19.59 0 0 0-17.967-9.908m84.879 10.427q-15.097-8.555-30.057-17.36a7.9 7.9 0 0 0-12.378 6.685c.096 5.917-.032 33.008.024 36.062a7.708 7.708 0 0 0 11.53 6.893c2.846-1.48 23.46-13.537 31.057-17.831a7.92 7.92 0 0 0 4.486-7.437 8.16 8.16 0 0 0-4.662-7.012M55.56 86.985a13.43 13.43 0 0 0 13.72-5.805c1.28-2.023 2.216-4.254 3.32-6.39a10.24 10.24 0 0 1 6.884-5.533 22.4 22.4 0 0 1 9.06-.175 144 144 0 0 0 14.353 2.774c5.98.352 9.291-1.887 8.587-7.404a8.8 8.8 0 0 0-2.558-4.814 32.8 32.8 0 0 0-15.41-8.812 27.5 27.5 0 0 0-13.153-.463c-1.584.32-3.679.703-3.607 2.774.064 2.191 2.143 2.775 3.942 3.31.432.137.928.057 1.376.153a45 45 0 0 1 7.284 1.559c.616.24 1.392.432 1.304 1.191-.104.88-.968.648-1.576.656q-2.918.016-5.82 0a51.6 51.6 0 0 0-24.909 5.197 15.75 15.75 0 0 0-8.787 10.475 8.61 8.61 0 0 0 5.989 11.307m61.994-32a7.2 7.2 0 0 0 5.9-3.15c4.463-5.246 9.084-4.83 15.034-1.312a12.07 12.07 0 0 1 5.829 8.652c1.247 6.43 4.294 9.452 9.387 9.476a14.95 14.95 0 0 0 9.14-3.495c4.046-3.062 4.006-6.58.016-9.787a53.6 53.6 0 0 0-11.26-6.34 44.8 44.8 0 0 1-11.266-7.9 160 160 0 0 1-11.067-12.323c-2.615-2.983-4.966-2.855-7.077.496a17.6 17.6 0 0 0-1.735 3.462 128 128 0 0 1-5.965 14.873 8 8 0 0 0-.792 3.478c0 2.735 1.08 3.855 3.854 3.87m56.23 16.56c-.952-.895-2.024-1.839-3.407-1.439-1.52.456-1.551 1.935-1.591 3.223a9.91 9.91 0 0 1-4.382 7.948 29.2 29.2 0 0 1-21.534 5.037 22.4 22.4 0 0 1-9.22-3.542 2.8 2.8 0 0 0-3.79.376c-1.063 1.12-.288 2.255.232 3.318a11 11 0 0 0 1.04 1.631 19.75 19.75 0 0 0 17.096 7.373 39.4 39.4 0 0 0 21.653-7.405 13.6 13.6 0 0 0 5.653-8.284 8 8 0 0 0-1.76-8.236M88.878 102.93a16 16 0 0 0-2.959.64 17.43 17.43 0 0 1-17.607-1.015 1.6 1.6 0 0 0-.512-.2 6.4 6.4 0 0 0-6.7 2.279 5.24 5.24 0 0 0-1.088 6.117c1.256 2.67 3.518 1.759 5.294 1.839 6.428-.304 8.387 1.023 10.219 6.772.983 3.063 2.95 4.638 5.277 4.206 2.639-.48 4.078-2.694 3.95-6.077-.16-3.974.56-4.853 4.462-5.453a16 16 0 0 0 1.623-.32 4.16 4.16 0 0 0 3.31-4.957 4.774 4.774 0 0 0-5.269-3.83m14.049-21.054c-.672 1.759.544 2.934 1.575 4.126a8.252 8.252 0 0 1-.04 12.514c-2.239 2.63-2.383 4.861-.448 6.876 1.944 2 4.182 1.943 6.861-.24a4.8 4.8 0 0 1 3.183-1.463c2.095.056 3.206 1.623 4.501 2.91 2.455 2.463 4.566 2.64 6.709.544a4.83 4.83 0 0 0-.4-6.9 29 29 0 0 0-4.022-3.79 13.67 13.67 0 0 1-6.077-12.01 6.557 6.557 0 0 0-7.484-6.005 5.36 5.36 0 0 0-4.358 3.438"/></svg>