<svg xmlns="http://www.w3.org/2000/svg" width="192" height="192" viewBox="0 0 192 192"><path d="M149.18 31.321a27.91 27.91 0 0 1 10.998 22.202 27.91 27.91 0 0 1-27.909 27.909 28 28 0 0 1-5.273-.503 27.9 27.9 0 0 0 16.911 5.707 27.91 27.91 0 0 0 27.909-27.909 27.91 27.91 0 0 0-22.636-27.406"/><circle cx="68" cy="25.325" r="1"/><circle cx="53" cy="33.491" r="2"/><circle cx="78" cy="32.491" r="1.5"/><circle cx="76" cy="54.491" r="1"/><circle cx="73" cy="58.491" r="1"/><circle cx="70" cy="61.491" r="1"/><circle cx="69" cy="86.491" r="1.5"/><circle cx="94" cy="77.491" r="2"/><path d="M96 113.32c-32.002 0-61.941 9.48-80 25.331h160c-18.059-15.852-47.998-25.331-80-25.331m-33.785 54.29q-.904 0-1.567-.663-.648-.663-.648-1.583v-17.21q0-.98.678-1.674.693-.693 1.643-.693h6.33q3.436 0 5.485 1.96 2.065 1.944 2.065 5.395t-2.05 5.35q-2.034 1.9-5.516 1.9h-6.058v-3.648h5.682q1.718 0 2.667-.844.965-.844.965-2.698 0-1.793-1.055-2.622-1.04-.844-2.788-.844H64.43v15.629q0 .92-.663 1.582-.648.664-1.552.664zm18.869-.241q-1.01 0-1.733-.708-.709-.724-.709-1.734v-17.15q0-.905.649-1.568.663-.663 1.567-.663t1.552.663q.663.663.663 1.567v15.584h7.852q.83 0 1.417.603.603.588.603 1.402t-.603 1.416q-.588.588-1.417.588zm22.893.301q-4.235 0-6.782-2.35t-2.547-6.36v-11.184q0-.904.648-1.567.663-.663 1.567-.663.92 0 1.568.663t.648 1.567v10.64q0 2.442 1.311 3.813 1.311 1.372 3.587 1.372 2.411 0 3.647-1.296 1.251-1.312 1.251-3.874v-10.67q0-.919.648-1.567t1.568-.648q.889 0 1.537.648t.648 1.567v11.228q0 3.934-2.577 6.315-2.577 2.366-6.722 2.366m19.869 0q-2.381 0-4.054-.587-1.658-.588-2.713-1.568-1.04-.995-1.341-2.065-.302-1.085.045-1.703.362-.618 1.01-.844.633-.24 1.205-.03.573.211.92.784.362.558.995 1.175.648.618 1.642 1.025.995.407 2.336.407 1.824 0 2.804-.753.98-.769.98-2.17 0-1.342-.92-2.035t-3.994-1.598q-3.527-1.04-5.019-2.577t-1.492-3.707q0-2.623 2.08-4.28t5.667-1.658q2.034 0 3.451.437 1.432.437 2.366 1.326.95.874 1.19 1.763t-.03 1.507q-.255.603-.828.844-.588.241-1.145.09-.543-.15-.92-.662-.362-.528-.889-1.01-.528-.498-1.266-.724-.739-.226-1.824-.226-1.612 0-2.592.648-.98.633-.98 1.764 0 .934.8 1.627.813.694 4.144 1.688 3.662 1.085 5.094 2.668 1.432 1.582 1.432 3.979 0 2.984-2.246 4.732-2.245 1.733-5.908 1.733"/></svg>