<svg xmlns="http://www.w3.org/2000/svg" width="192" height="192" viewBox="0 0 192 192"><path d="M149.18 45.83a27.91 27.91 0 0 1 10.998 22.202 27.91 27.91 0 0 1-27.909 27.909 28 28 0 0 1-5.273-.503 27.9 27.9 0 0 0 16.911 5.707 27.91 27.91 0 0 0 27.909-27.909A27.91 27.91 0 0 0 149.18 45.83"/><circle cx="68" cy="39.834" r="1"/><circle cx="53" cy="48" r="2"/><circle cx="78" cy="47" r="1.5"/><circle cx="76" cy="69" r="1"/><circle cx="73" cy="73" r="1"/><circle cx="70" cy="76" r="1"/><circle cx="69" cy="101" r="1.5"/><circle cx="94" cy="92" r="2"/><path d="M96 127.83c-32.002 0-61.941 9.48-80 25.331h160c-18.059-15.852-47.998-25.331-80-25.331"/></svg>