<svg width="192" height="192" version="1.1" viewBox="0 0 192 192" xmlns="http://www.w3.org/2000/svg"><path d="m149.18 31.321a27.909 27.909 0 0 1 10.998 22.202 27.909 27.909 0 0 1-27.909 27.909 27.909 27.909 0 0 1-5.273-0.50269 27.909 27.909 0 0 0 16.911 5.7068 27.909 27.909 0 0 0 27.909-27.909 27.909 27.909 0 0 0-22.636-27.406z"/><circle cx="68" cy="25.325" r="1"/><circle cx="53" cy="33.491" r="2"/><circle cx="78" cy="32.491" r="1.5"/><circle cx="76" cy="54.491" r="1"/><circle cx="73" cy="58.491" r="1"/><circle cx="70" cy="61.491" r="1"/><circle cx="69" cy="86.491" r="1.5"/><circle cx="94" cy="77.491" r="2"/><path d="m96 113.32c-32.002-1e-5 -61.941 9.4798-80 25.331h160c-18.059-15.852-47.998-25.331-80-25.331z"/><path d="m62.215 167.61q-0.90427 0-1.5674-0.66312-0.64806-0.66313-0.64806-1.5825v-17.211q0-0.97963 0.6782-1.6729 0.69327-0.69327 1.6428-0.69327h6.3299q3.4362 0 5.4859 1.9592 2.0648 1.9442 2.0648 5.3955t-2.0497 5.3503q-2.0346 1.899-5.516 1.899h-6.0586v-3.6472h5.6818q1.7181 0 2.6676-0.84399 0.96455-0.84398 0.96455-2.6977 0-1.7935-1.055-2.6224-1.0399-0.84399-2.7882-0.84399h-3.6171v15.629q0 0.91934-0.66313 1.5825-0.64806 0.66312-1.5523 0.66312zm18.869-0.24113q-1.0098 0-1.7332-0.70835-0.70834-0.72341-0.70834-1.7332v-17.151q0-0.90427 0.64806-1.5674 0.66313-0.66313 1.5674-0.66313t1.5523 0.66313q0.66313 0.66314 0.66313 1.5674v15.584h7.8521q0.82891 0 1.4167 0.60284 0.60285 0.58778 0.60285 1.4016 0 0.81383-0.60285 1.4167-0.58778 0.58778-1.4167 0.58778zm22.893 0.30142q-4.235 0-6.782-2.3511t-2.547-6.36v-11.183q0-0.90427 0.64806-1.5674 0.66313-0.66313 1.5674-0.66313 0.91934 0 1.5674 0.66313 0.64806 0.66314 0.64806 1.5674v10.64q0 2.4415 1.3112 3.813 1.3112 1.3715 3.5869 1.3715 2.4114 0 3.6472-1.2961 1.2509-1.3112 1.2509-3.8733v-10.67q0-0.91934 0.64807-1.5674 0.64806-0.64807 1.5674-0.64807 0.8892 0 1.5373 0.64807 0.64806 0.64806 0.64806 1.5674v11.228q0 3.9336-2.5772 6.3148-2.5772 2.3662-6.7217 2.3662zm19.869 0q-2.3812 0-4.0541-0.58777-1.6578-0.58778-2.7128-1.5674-1.0399-0.9947-1.3413-2.0648-0.30142-1.0851 0.0452-1.703 0.3617-0.61792 1.0098-0.84399 0.633-0.24114 1.2057-0.0301 0.5727 0.211 0.91934 0.78371 0.36171 0.55762 0.99469 1.1755 0.64807 0.61792 1.6428 1.0248 0.99469 0.40692 2.336 0.40692 1.8236 0 2.8032-0.75356 0.97963-0.76863 0.97963-2.1702 0-1.3413-0.91934-2.0346-0.91934-0.69327-3.9939-1.5975-3.5266-1.0399-5.0187-2.5772-1.492-1.5373-1.492-3.7075 0-2.6224 2.0798-4.2802 2.0798-1.6578 5.6668-1.6578 2.0346 0 3.4513 0.43707 1.4318 0.43705 2.3662 1.3262 0.94949 0.87413 1.1906 1.7633t-0.0301 1.5071q-0.25621 0.60285-0.82891 0.84398-0.58778 0.24114-1.1454 0.0904-0.54256-0.15071-0.91934-0.66313-0.3617-0.52749-0.8892-1.0098-0.52749-0.49735-1.266-0.72342-0.73849-0.22606-1.8236-0.22606-1.6126 0-2.5922 0.64806-0.97963 0.63299-0.97963 1.7633 0 0.93441 0.79878 1.6277 0.81384 0.69327 4.1446 1.688 3.6623 1.0851 5.0941 2.6676 1.4318 1.5825 1.4318 3.9788 0 2.9841-2.2456 4.7324-2.2456 1.7332-5.9079 1.7332z"/></svg>
