<svg width="192" height="192" fill="none" xmlns="http://www.w3.org/2000/svg"><path d="M117.674 30.978a30.646 30.646 0 0 0-33.404-6.645 30.651 30.651 0 0 0-9.944 6.645L30.978 74.326a30.651 30.651 0 1 0 43.348 43.348l43.348-43.348a30.646 30.646 0 0 1 33.404-6.645 30.646 30.646 0 0 1 16.589 16.59 30.658 30.658 0 0 1 0 23.459 30.646 30.646 0 0 1-6.645 9.944l-43.348 43.348a30.646 30.646 0 0 1-33.404 6.645 30.651 30.651 0 0 1-9.944-6.645" stroke="#000" stroke-width="12" stroke-linecap="round" stroke-linejoin="round"/></svg>