<svg xmlns="http://www.w3.org/2000/svg" width="192" height="192" viewBox="0 0 192 192"><path d="M95.994 21.723c-27.462 0-51.452 15.014-64.267 37.247l7.503 4.328a65.54 65.54 0 0 1 56.764-33.02q2.359.009 4.712.185V21.89a75 75 0 0 0-4.712-.167" opacity=".5"/><path d="M102.53 19.15c-3.602-.308-6.534 2.656-6.534 6.266s2.94 6.5 6.534 6.885a63.91 63.91 0 1 1-61.811 31.482c1.814-3.123 1.196-7.194-1.721-9.324s-7.041-1.485-8.907 1.604A77 77 0 1 0 102.53 19.15m-3.158 28.24a8.52 8.52 0 0 0-8.522 8.522 8.52 8.52 0 0 0 8.522 8.522 8.52 8.52 0 0 0 8.522-8.522 8.52 8.52 0 0 0-8.522-8.522m-3.325 19.551a8.52 8.52 0 0 0-6.267 1.821l-11.747 9.391a12.83 12.83 0 0 0-4.662 8.172l-1.654 11.58a4.26 4.26 0 0 0 8.438 1.186l1.655-11.547a4.28 4.28 0 0 1 1.554-2.74l3.643-2.908-1.454 16.743a12.83 12.83 0 0 0 3.71 10.143l11.947 11.931a12 12 0 0 1 2.925 4.679l5.096 15.256a5.33 5.33 0 1 0 10.11-3.376l-5.614-16.643a17.1 17.1 0 0 0-3.493-5.965l-10.126-11.246a4697 4697 0 0 1 3.342-26.502c.368-2.644-.481-5.304-1.688-6.818a8.52 8.52 0 0 0-5.714-3.158zm9.775 19.166-1.203 8.89 9.875 5.18a4.263 4.263 0 1 0 3.827-7.62zm-21.088 23.461-.953 8.472a3.17 3.17 0 0 1-1.069 2.055l-14.554 12.716a5.329 5.329 0 0 0 7.018 8.021l14.554-12.716a13.86 13.86 0 0 0 4.646-8.906l.017-.2z"/></svg>