<svg xmlns="http://www.w3.org/2000/svg" width="192" height="192"><path d="M96 16c-44.183 0-80 35.817-80 80s35.817 80 80 80c3.89 0 7.772-.284 11.617-.848 2.802-.411 6.67-2.53 8.673-4.533l54.33-54.328c2.002-2.003 4.121-5.872 4.533-8.674A80 80 0 0 0 176.001 96c0-44.183-35.817-80-80-80zM71.789 70.618a9.07 11.241 0 0 1 9.07 11.241 9.07 11.241 0 0 1-9.07 11.241 9.07 11.241 0 0 1-9.07-11.241 9.07 11.241 0 0 1 9.07-11.241m48.388 0a9.07 11.241 0 0 1 9.07 11.241 9.07 11.241 0 0 1-9.07 11.241 9.07 11.241 0 0 1-9.07-11.241 9.07 11.241 0 0 1 9.07-11.241m-50.968 38.437a5.47 5.47 0 0 1 4.26 2.295c11.485 16.142 33.085 16.831 45.063 0a5.47 5.47 0 1 1 8.913 6.343c-16.467 23.14-47.254 21.973-62.89 0a5.47 5.47 0 0 1 4.654-8.638"/></svg>