<svg xmlns="http://www.w3.org/2000/svg" width="192" height="192" viewBox="0 0 192 192"><path d="M86.377 32.833c-7.358 0-12.971 6.965-12.971 15.118s5.621 15.118 12.971 15.118c7.358 0 12.971-6.964 12.971-15.118s-5.621-15.118-12.971-15.118m0 3.979c4.783 0 8.992 4.79 8.992 11.14 0 6.348-4.21 11.14-8.992 11.14s-8.992-4.792-8.992-11.14c0-6.358 4.21-11.14 8.992-11.14m47.784 52.704c-3.56-.086-6.896 2.908-5.732 7.614.65 2.653 2.48 5.202 7.512 10.447l4.449 4.638 4.329-4.441c2.395-2.438 4.706-4.894 5.142-5.459 4.791-6.109 3.268-12.774-2.926-12.774-2.67 0-4.535 1.215-5.87 3.825l-.598 1.172-.6-1.172c-1.368-2.601-3.576-3.782-5.706-3.85M32.631 20.453a.394.394 0 0 0-.402.402v77.208H19.395a.394.394 0 0 0-.394.402v2.986c0 .214.171.394.394.394h12.834v25.77a.4.4 0 0 0 .402.393h2.986a.393.393 0 0 0 .394-.393v-25.77h12.834a.394.394 0 0 0 .402-.394v-2.986a.4.4 0 0 0-.402-.402H36.01V20.855a.4.4 0 0 0-.394-.402zm68.472 48.169a.394.394 0 0 0-.394.393v2.986c0 .223.172.394.394.394h54.039a.393.393 0 0 0 .394-.394v-2.986a.394.394 0 0 0-.394-.393zm-32.837 9.89a1.88 1.88 0 0 0-1.728 1.173L50.71 118.57a1.894 1.894 0 1 0 3.508 1.428l15.828-38.886a1.882 1.882 0 0 0-1.78-2.6m16.479 0a.17.17 0 0 0-.171.153v42.574c0 .086.085.172.171.172h3.457c.085 0 .162-.086.162-.172V78.666a.17.17 0 0 0-.162-.154zm23.469.47c-.625-.026-1.19.548-1.13 1.027.112.812 1.404 1.925 4.364 5.304 1.711 1.951 4.68 7.127 5.134 11.482a35.6 35.6 0 0 1 0 6.614c-.454 4.355-3.423 9.531-5.134 11.482-2.96 3.38-4.252 4.492-4.363 5.305-.069.547.684 1.214 1.403.983.736-.24 2.113-1.249 3.165-2.139 4.022-3.336 6.212-6.947 7.77-11.722a24.8 24.8 0 0 0 0-14.434c-1.558-4.774-3.757-8.384-7.761-11.722-.368-.308-2.601-2.156-3.448-2.181m52.516 0c-.625-.026-1.198.547-1.13 1.026.103.813 1.395 1.926 4.364 5.305 1.703 1.95 4.672 7.127 5.125 11.482a34 34 0 0 1 0 6.614c-.453 4.355-3.422 9.531-5.133 11.482-2.952 3.38-4.253 4.492-4.355 5.304-.069.548.684 1.215 1.403.984.736-.24 2.113-1.249 3.166-2.139 4.012-3.336 6.211-6.947 7.76-11.722a24.8 24.8 0 0 0 0-14.434c-1.54-4.774-3.748-8.384-7.76-11.722-.36-.308-2.601-2.156-3.44-2.181m-37.466 46.244a.4.4 0 0 0-.393.393v2.986c0 .223.17.394.393.394h31.041a.387.387 0 0 0 .394-.394v-2.986a.4.4 0 0 0-.394-.393zm-54.97 3.662a1.88 1.88 0 0 0-1.755 1.172l-15.828 38.878a1.894 1.894 0 1 0 3.508 1.429l15.828-38.878a1.882 1.882 0 0 0-1.754-2.601m36.26 0a1.882 1.882 0 0 0-1.754 2.6l15.828 38.879a1.894 1.894 0 1 0 3.508-1.43l-15.828-38.877a1.88 1.88 0 0 0-1.762-1.172z"/></svg>