<svg width="192" height="192" fill="none" xmlns="http://www.w3.org/2000/svg"><path d="M24 80a4 4 0 1 0 0-8 4 4 0 0 0 0 8Zm144-8a4 4 0 1 1 0 8 4 4 0 0 1 0-8ZM74 58a4 4 0 1 0 0-8 4 4 0 0 0 0 8Zm44-8a4 4 0 1 1 0 8 4 4 0 0 1 0-8ZM54 78a4 4 0 1 0 0-8 4 4 0 0 0 0 8Zm84-8a4 4 0 1 1 0 8 4 4 0 0 1 0-8ZM66 32a4 4 0 1 0 0-8 4 4 0 0 0 0 8Zm60-8a4 4 0 1 1 0 8 4 4 0 0 1 0-8ZM96 172a4 4 0 1 0 0-8 4 4 0 0 0 0 8Zm0-49a4 4 0 1 0 0-8 4 4 0 0 0 0 8Zm0-49a4 4 0 1 0 0-8 4 4 0 0 0 0 8Z" stroke="#000" stroke-width="8" stroke-linecap="round" stroke-linejoin="round"/><path d="M96 31a5 5 0 1 0 0-10 5 5 0 0 0 0 10Zm-53 82a5 5 0 1 0 0-10 5 5 0 0 0 0 10Zm106-10a5 5 0 1 1-.001 10.001A5 5 0 0 1 149 103Z" stroke="#000" stroke-width="10" stroke-linecap="round" stroke-linejoin="round"/><path d="M38 48a6 6 0 1 0 0-12 6 6 0 0 0 0 12Zm116-12a6 6 0 1 1 0 12 6 6 0 0 1 0-12ZM72 146a6 6 0 1 0 0-12 6 6 0 0 0 0 12Zm48-12a6 6 0 1 1 0 12 6 6 0 0 1 0-12Zm-44-32a6 6 0 1 0 0-12 6 6 0 0 0 0 12Zm40-12a6 6 0 1 1 0 12 6 6 0 0 1 0-12Z" stroke="#000" stroke-width="12" stroke-linecap="round" stroke-linejoin="round"/></svg>