<svg xmlns="http://www.w3.org/2000/svg" width="192" height="192" viewBox="0 0 192 192"><path d="M82.07 32.773a8.936 8.936 0 0 1-7.76 9.976c-2.712.336-4.88.792-6.8 1.384a49.2 49.2 0 0 0-32.313 32.321c-.592 1.92-1.056 4.08-1.392 6.784a8.937 8.937 0 0 1-17.736-2.208c.44-3.52 1.08-6.76 2.064-9.896A67.04 67.04 0 0 1 62.19 27.07a56 56 0 0 1 9.904-2.064 8.936 8.936 0 0 1 9.976 7.768m18.84 27.017c-17.52 0-26.281 0-32.977 3.408a31.2 31.2 0 0 0-13.68 13.68c-3.408 6.689-3.4 15.44-3.4 32.961v28.61c0 10.015 0 15.023 1.952 18.847a17.83 17.83 0 0 0 7.808 7.809c3.824 1.952 8.832 1.96 18.848 1.96h46.481c17.52 0 26.281 0 32.97-3.416a31.2 31.2 0 0 0 13.68-13.68c3.407-6.689 3.407-15.44 3.407-32.961v-7.16c0-17.52 0-26.282-3.408-32.978a31.2 31.2 0 0 0-13.68-13.68c-6.688-3.4-15.448-3.392-32.969-3.392zm3.576 44.697c4.944 0 8.944 4 8.944 8.936v17.88a8.94 8.94 0 1 1-17.88 0v-17.88c0-4.936 4-8.936 8.936-8.936m35.761 0c4.937 0 8.937 4 8.937 8.936v17.88a8.936 8.936 0 1 1-17.872 0v-17.88c0-4.936 4-8.936 8.936-8.936"/></svg>