<svg xmlns="http://www.w3.org/2000/svg" width="192" height="192" viewBox="0 0 192 192"><path d="M26.304 47.924c-5.712 0-10.304 4.6-10.304 10.312v75.536a10.28 10.28 0 0 0 10.304 10.304h139.4A10.28 10.28 0 0 0 176 133.772V58.236a10.28 10.28 0 0 0-10.296-10.304zm7.44 11.904h81.024a4.8 4.8 0 0 1 4.808 4.808v6.184a4.8 4.8 0 0 1-4.8 4.8H33.728a4.8 4.8 0 0 1-4.8-4.8v-6.184a4.8 4.8 0 0 1 4.8-4.8m102.77 20.376h21.976a4.8 4.8 0 0 1 4.808 4.8v21.976a4.8 4.8 0 0 1-4.8 4.808h-21.984a4.8 4.8 0 0 1-4.8-4.8V85.02a4.8 4.8 0 0 1 4.8-4.808m-106.19 36.064h76.224c.76 0 1.376.616 1.376 1.376v2.744a1.36 1.36 0 0 1-1.376 1.376H30.308a1.36 1.36 0 0 1-1.368-1.376v-2.744c0-.76.608-1.376 1.368-1.376m-.68 12.224H67.74c.376 0 .68.304.68.688v4.12a.69.69 0 0 1-.68.688H29.628a.69.69 0 0 1-.688-.688v-4.12c0-.384.304-.688.688-.688"/><path d="M29.616 128.5h38.112c.384 0 .688.304.688.688v4.12a.69.69 0 0 1-.688.688H29.616a.69.69 0 0 1-.68-.688v-4.12c0-.384.304-.688.68-.688" opacity=".8"/><path d="M30.304 116.28h76.224c.76 0 1.376.616 1.376 1.376v2.744a1.36 1.36 0 0 1-1.376 1.376H30.304a1.36 1.36 0 0 1-1.368-1.376v-2.744c0-.76.608-1.376 1.368-1.376" opacity=".6"/><path d="M33.736 59.836h81.04a4.8 4.8 0 0 1 4.8 4.8v6.184a4.8 4.8 0 0 1-4.8 4.8H33.728a4.8 4.8 0 0 1-4.8-4.8v-6.184a4.8 4.8 0 0 1 4.8-4.8" opacity=".4"/><path d="M136.51 80.204h21.976a4.8 4.8 0 0 1 4.8 4.8v21.984a4.8 4.8 0 0 1-4.8 4.8H136.51a4.8 4.8 0 0 1-4.8-4.8V85.012a4.8 4.8 0 0 1 4.8-4.808" opacity=".2"/></svg>