<svg xmlns="http://www.w3.org/2000/svg" width="192" height="192" viewBox="0 0 192 192"><path d="M79.771 30.546A11.546 11.546 0 0 0 68.225 19H30.744a11.546 11.546 0 0 0-11.546 11.546v111.66a30.295 30.295 0 1 0 60.574-.384zm-30.295 126.17a14.508 14.508 0 1 1 14.516-14.508 14.51 14.51 0 0 1-14.508 14.508zm38.548-20.498 43.6-75.516a11.546 11.546 0 0 0-4.233-15.771l-32.463-18.74a11.52 11.52 0 0 0-7.757-1.374 19.6 19.6 0 0 1 .853 5.735zm77.565-39.307-18.74-32.463a11.44 11.44 0 0 0-5.948-5.035 19.6 19.6 0 0 1-2.134 5.41L86.02 156.18l75.346-43.497a11.546 11.546 0 0 0 4.225-15.771m4.574 19.167a19.6 19.6 0 0 1-4.677 3.746L74.302 172.47h86.96a11.546 11.546 0 0 0 11.546-11.546v-37.49a11.52 11.52 0 0 0-2.645-7.355"/></svg>