<svg xmlns="http://www.w3.org/2000/svg" width="192" height="192" viewBox="0 0 192 192"><path d="M103.68 20.592c-2.525-.034-4.93.806-7.203 1.818-.505.251-1.05.468-1.462.865-.037.44-.48.439-.804.524-.31.277-.256.818-.669 1.06-.354.294-.821.608-.85 1.114-.084.422-.572.244-.812.468-.254.224-.058.64-.335.856-.423.24-.604.734-.822 1.143a20 20 0 0 0-1.46 4.816c-.11.554-.085 1.12-.133 1.679-.018.488-.538.267-.805.141-1.216-.445-2.457-.854-3.74-1.047-.376-.111-.67.307-1.038.039a1.84 1.84 0 0 0-1.178-.308c-1.133.079-2.227.408-3.343.599-.629.144-1.318.129-1.852.537-.333.154-.722.063-1.044.252-1.067.453-1.85 1.38-2.936 1.795-.468.122-.815.5-1.176.8-1.1 1.029-2.115 2.161-2.953 3.416-.779 1.287-1.45 2.638-2.127 3.982-.636 1.392-.813 2.935-.956 4.443a27.4 27.4 0 0 0 .095 4.536c.147.388.1.825-.36.953-.836.441-1.604 1.034-2.53 1.268-.179.371-.498.663-.946.727-.896.196-1.248 1.059-1.856 1.622-.29.238-.722.232-.945.58-.37.508-1.033.648-1.623.7-.45.072-.882.336-1.086.752-.434.963-1.513 1.382-2.003 2.294-.043.43-.367.758-.79.857-.626.184-1.112.66-1.581 1.092-.73.749-1.363 1.585-2.079 2.347-.334.329-.636.752-1.1.897-.28-.011-.622.108-.65.431-.04.415-.422.69-.726.928-.405.271-.856.492-1.19.853-.184.455-.573.792-.88 1.165-.566.604-1.128 1.221-1.785 1.726-.43.145-.695.548-.96.894-.273.39-.533.813-.927 1.093-.439.109-.249.712-.51 1.007-.602 1.248-1.428 2.368-2.133 3.556-.31.765-1.19.599-1.766.988-.878.626-1.355 1.658-1.655 2.664-.23.203.065.723-.272.751l-.024-.047c-.493 1.472-1.89 2.61-2.056 4.174.127.485-.428.312-.38.816l-.302.406-.385.328c.26.201-.329.155-.455.238-.366.142-.69.462-.692.877-.127.15.07.674-.205.588-.395.567-.859 1.092-1.151 1.726-.815 1.633-1.367 3.39-1.71 5.18-.149.585-.224 1.214-.554 1.731-.25.277-.826.123-.834.65-.077.401-.018.823-.176 1.21-.113.378-.335.71-.62.98-.463.525-.599 1.244-.599 1.924-.184.557-.737.864-1.212 1.148-.397.206-.558.654-.567 1.078-.082 1.578.191 3.214-.35 4.738-.41 1.089-.996 2.13-1.041 3.324-.026.376-.045.817-.325 1.098-.3.28-.297.742-.31 1.127.021.347.021.767.304 1.011.368.183.08.66-.004.948-.388.973-.926 1.876-1.372 2.82-.367 1.05-.458 2.188-.363 3.292-.002.383.21.716.269 1.077-.023.876-.493 1.66-.561 2.53-.072.397-.005.794.052 1.187.037.414-.057.822-.214 1.202-.355 1.295-.405 2.654-.364 3.99.009.661.142 1.312.192 1.97.087.46-.29.72-.653.881-.237.368.316.685.27 1.09.277 1.413.34 2.861.326 4.298-.028.515-.013 1.054-.207 1.541-.616 1.428-.286 3.137.607 4.355.092.556.374 1.129.193 1.698-.283.394-.48.86-.495 1.352-.02.426.066.94.469 1.172.44.445.554 1.1.671 1.692.109.7.18 1.461.632 2.037.357.187.626.553.476.972-.177.186-.317.626-.372.961-.038.526.657.723.613 1.255.009.548-.44 1.028-.313 1.58.235.564.85.823 1.23 1.272.67.7.83 1.724.798 2.656.045.38-.247.609-.404.897-.048.515.313.954.598 1.348.444.536.924 1.064 1.37 1.576.176.386-.208.721-.516.89-.023.298.572.197.822.253 1.46.057 2.927.09 4.38-.076.241-.015.815-.107.458-.43-.49-.588-1.252-.868-1.71-1.49-.695-.865-1.083-1.957-1.173-3.058.023-.957-1.169-1.272-1.181-2.208-.09-.678-.617-1.22-.6-1.935-.175-1.308.036-2.65-.282-3.94-.198-.302-.345-.64-.349-1.017-.093-.777.133-1.602-.188-2.344-.274-.275-.565-.6-.444-1.034.122-.622.31-1.298.03-1.907-.17-.453-.681-.383-1.051-.292-.435-.042-.384-.602-.269-.9.228-.797.98-1.31 1.188-2.112.18-.533-.669-.308-.58-.823.155-1.144-.582-2.15-.59-3.273.264-.487-.386-.838-.383-1.326-.058-.179.04-.384.147-.359.065-.503.328-.954.442-1.447.14-.556.331-1.203.017-1.736-.244-.243-.49-.515-.498-.885-.099-1.08.09-2.158.146-3.235.037-.823.162-1.678-.099-2.477-.123-.382-.472-.696-.376-1.13-.025-.233.151-.606-.03-.66.129-.363.267-.714.348-1.094.148-.55.386-1.068.618-1.586.506-1.578.64-3.242 1.012-4.852.04-.36.442-.613.327-.992-.337-.245-.281-.674-.058-.99.143-.312.497-.593.44-.959-.335-.235-.832-.402-.811-.918-.022-.464-.064-.92.306-1.177.352-.377.79-.817.727-1.382-.274-.72.362-1.296.366-1.97-.176-.234-.482-.492-.17-.79.22-.301.654-.658.427-1.061-.007-.874.496-1.65.561-2.515.107-.346-.1-.777.141-1.065.324-.126.917.17.947-.39.05-.353.016-.714.12-1.06-.226.44-.535-.293-.059-.517.478-.688.864-1.5.73-2.358-.027-.358.013-.939.499-.932.518.078.556-.459.647-.823.207-.678.565-1.317.575-2.041.18-.674.73-1.186.831-1.893.151-.405-.079-1.263.545-1.366.723.005 1.258-.628 1.517-1.243.21-.478.239-1.015.13-1.522-.094-.37.058-.814.478-.872.366-.08.815-.218.902-.64.101-.445.011-.92.205-1.348.333-1.003 1.333-1.597 1.667-2.602.417-1.01 1.243-1.81 1.633-2.851.182-.327.388-.64.6-.948-.076.067-.232.226-.26.239.382-.519.71-1.086 1.21-1.505.65-.77 1.34-1.506 1.762-2.437 1.24-1.875 3.118-3.255 4.137-5.287.267-.59.667-1.233 1.356-1.355.383-.05.83-.009 1.089-.36.613-.674.847-1.588 1.402-2.303.245-.353.537-.678.913-.892.432-.286.454-.804.55-1.254.344-.833 1.126-1.444 1.977-1.698.667-.172 1.394-.472 1.731-1.111.083-.218.122-.41.109-.64-.009-.4.192-.004.226-.043.746-.962 1.644-1.793 2.534-2.618.475-.413.937-.858 1.488-1.17.467-.078.718-.524 1.014-.848.235-.337.527-.715.95-.805.463-.115.822-.47 1.19-.759.811-.795 1.771-1.506 2.937-1.633l1.117-.183c.503 1.532.936 3.09 1.553 4.581.297.531.74.974 1.036 1.514.885 1.386 1.908 2.709 3.213 3.728 1.477 1.401 3.19 2.51 4.78 3.76 1.104.262 2.127.796 3.249.997.306.124.55.364.872.458 1.211.462 2.468.79 3.72 1.125.45-.036.71.251 1.157.292a69 69 0 0 0 1.615.376c.288-.11.386.11.617.134 1.345.301 2.706.535 4.04.887.814.257 1.68.301 2.52.44.763.132 1.552.206 2.275.502.401.19.865.173 1.298.235 2.886.25 5.781.367 8.674.499 1.298.03 2.625.091 3.89-.25a2.74 2.74 0 0 0 1.76-1.408c.31-.566.44-1.204.698-1.792.04-.43.305-.777.46-1.167.394-.941.801-1.878 1.25-2.795.487-.65.297-1.498.633-2.187.312-.45.458-.992.668-1.495a153 153 0 0 0 2.892-8.637c.189-.683.436-1.362.478-2.074.097-.545.692-.175.897.086.45.269 1.006.12 1.492.053.566-.071 1.136-.259 1.71-.175.533.163.833.771 1.46.726.355.128.639.393.903.654.327.017.63.468.494.61.262.356.466.767.464 1.217.04.455.628.384.753.81.232.36.281.901.74 1.063.823.268 1.747-.042 2.543.343.282.259.478.646.905.721.363.161.956-.017 1.075.323.559.486.522 1.303.872 1.914.285.6.918.873 1.486 1.134.962.529 1.88 1.163 2.659 1.939.238.282.35.642.642.89.911.995 1.838 1.985 2.878 2.846.312.226.633.527 1.037.54.236-.165.601-.053.393.265-.189.88.989 1.332.916 2.207.066.556.57.928 1.025 1.182.35.216.754.492.836.923-.015.418.315.749.539 1.072.535.67 1.232 1.2 1.694 1.932.291.305.192.79.54 1.05.321.297.818.51 1.154.604.297.227.637.442.824.774-.007.274-.372-.156-.128.138.356.464.459 1.122.983 1.45.25.124.548-.097.793.101.36.199.35.734.04.976-.356.461-.157 1.097.03 1.587.56 1.325 1.567 2.405 2.654 3.323.423.415.819.952.796 1.573.03.498.43.88.876 1.047.346.157.779.447.694.888-.052.412-.469.718-.354 1.16.154.913.753 1.676 1.423 2.285.301.322.58.715.597 1.17.166.584.627 1.005 1.027 1.433.33.413.595.916.578 1.458.117 1.087.86 1.957 1.458 2.822.037.647.45 1.136.969 1.47.111.207.07.465.104.695.053.798-.254 1.618.032 2.394.2.323.52.589.542 1.002.182.898-.146 1.887.327 2.724.271.533.913.866.973 1.5.031.587-.422 1.103-.318 1.69.225.244.507.461.587.823.203.55.342 1.116.592 1.637.023.452.1.887.23 1.328.126.583.314 1.15.435 1.734.1.368-.04.707-.166 1.035-.166 1.375.417 2.748.088 4.115-.102.357-.393.707-.234 1.095.29.654.861 1.122 1.287 1.684.215.296.566.641.42 1.037-.185.316-.614.599-.371 1.018.48.851.876 1.759.743 2.778.017.707.412 1.49.122 2.193-.31.227-.341.634-.318.99.044.718.274 1.464.025 2.169-.437.605-.512 1.388-.483 2.114-.001.377.16.715.303 1.052.242 1.025.22 2.09.206 3.137-.042.814-.054 1.648-.31 2.428a2 2 0 0 0-.422 1.02c-.087.505-.16 1.018-.109 1.53-.006.635-.105 1.285.163 1.891.044.61-.11 1.216-.205 1.816-.2.983-.39 1.977-.755 2.915-.626.91-1.005 1.956-1.484 2.948-.174.47.247.848.529 1.162.273.265.468.651.347 1.037-.14.57-.355 1.128-.691 1.613.337-.208-.111.292-.196.405-.35.482-.978.569-1.15 1.225-.241.452-.19 1.163-.73 1.414-.288 0-.788.09-.38.412.34.286.082.736-.133 1.01-.44.602-1.028 1.535-.618 2.28.333.245.784.175 1.175.206.735-.013 1.496.067 2.21-.148.527-.163.699-.744.776-1.23.139-1.019.303-2.089.905-2.953.194-.368.7-.394.846-.799.135-.34.047-.79.396-1.028.408-.123.506-.592.424-.966.017-.31-.094-.689.053-.982l.05.067c.243-1.176 1.246-2.1 1.31-3.328.011-.786-.266-1.542-.277-2.328-.027-.705.017-1.538.61-2.019.406-.345.407-.933.471-1.42.148-1.748-.026-3.52.303-5.251.033-.366.288-.63.435-.944.36-.989-.18-2.057.143-3.055-.324.287.117-.471.185-.628.142-.426.405-.838.35-1.307-.195-.324-.008-.698.205-.96.213-.494-.065-1.022-.235-1.486-.141-.387-.37-.767-.359-1.189.19-.39.75-.525.792-1.036.108-.358.154-1.19-.408-1.02-.455-.764.166-1.836-.225-2.6-.173-.824-.094-1.754-.21-2.584-.191-.414.12-.923.576-.635.455-.006.357-.661.23-.948-.112-.377-.663-.397-.64-.847-.072-.394.17-.787.056-1.172-.247-.24-.83.403-.88-.106.01-.417.296-.844.099-1.25-.255-.344-.814-.195-1.054-.543-.01-.37.308-.65.486-.951.212-.333.525-.643.562-1.052-.016-.407-.549-.532-.566-.931-.307-.568-.192-1.226-.317-1.84-.223-1.397-.53-2.788-1.016-4.119-.133-.353-.428-.853-.615-1.026-.317.104-.086-.529-.242-.711-.098-.383-.245-.811-.085-1.195.226-.31.174-.73.186-1.094-.004-.427-.127-.897.094-1.29.102-.168.694-.074.322-.324-1.021-1.07-1.427-2.615-2.53-3.587-.256-.271-.22-.661-.363-.987-.263-.747-.597-1.486-.805-2.232-.217-.48-.126-1.024-.201-1.532-.103-.904-.117-1.879-.626-2.668-.21-.359-.603-.597-.736-1 .014-.404.787-.448.548-.942-.254-.675-.71-1.365-1.427-1.596-.358-.034-.825-.25-.801-.672-.028-.428-.645-.35-.608-.831a2.56 2.56 0 0 0-.28-1.126c-.396-.781-.886-1.543-1.562-2.11-.347-.131-.687-.305-.66-.748-.09-.732.132-1.541-.297-2.202-.592-.8-1.46-1.442-1.684-2.462-.191-.586-.502-1.234-1.1-1.493-.37-.01-.619-.315-.835-.583-.222-.318-.482-.632-.585-1.011-.032-.458.47-.68.616-1.073.317-.694-.071-1.493-.621-1.945-.746-.655-1.872-.704-2.465-1.573-.202-.344-.527-.643-.935-.683-.484-.42-.846-1.1-1.06-1.721-.226-.098-.457-.545-.335-.711.177.085.347.402.016-.384-.053-.453.214-.965-.07-1.385-.578-.73-1.327-1.317-2.02-1.937-.59-.398-1.377-.413-1.852-1.017-.6-.654-1.496-.727-2.244-1.077-.187-.135-.145-.375-.313-.152-.273-.376.084-.759.003-1.142-.044-.525.006-1.119-.33-1.561-.402-.408-1.063-.4-1.436-.868-.316.141-.593-.397-.788-.63.016-.308-.485-.645-.659-1-.273-.32-.54-.687-.935-.862-.57-.012-.441-.771-.937-.972-.685-.682-1.787-.61-2.368-1.443-.403-.407-.78-.839-1.193-1.237-.324.15-.36-.526-.665-.637-.207-.138-.504.026-.742-.193-.341-.175-.712-.461-.735-.876-.272-.59-.778-1.034-1.25-1.464-.34-.274-.697-.597-1.154-.62-.756-.244-1.461-.637-2.108-1.093-.253-.284-.537-.556-.953-.513-.422-.066-.274-.768-.815-.64-.783-.192-1.506-.567-2.248-.874-.893-.409-1.815-.757-2.68-1.224-.3-.159-.634-.446-.548-.826.203-1.126.305-2.269.45-3.404.293-2.668.171-5.356.14-8.034-.101-2.468-.244-4.99-1.135-7.32-.63-1.696-1.757-3.146-2.576-4.744-.747-1.297-1.903-2.293-2.708-3.536-.924-.78-1.978-1.387-3.013-2.005-1.715-1.017-3.546-1.885-5.534-2.207l-1.426-.189-1.437-.047zm.48 19.183c1.028.018 1.855.837 2.252 1.73.178.452.349.913.377 1.4.205.87-.607 1.5-1.198 1.987-.398.345-1.224.624-1.663.647-.065.26-.632.026-.786-.187a5.3 5.3 0 0 1-.873-1.02l-.317-.45c.23.183.676.654.016-.355-.165-.596-.23-1.25-.135-1.865.268-.473.497-1.132 1.043-1.442.268-.415.867-.368 1.283-.445zm-2.91 9.617c.414.092.705.456.742.877.05.417.115.853-.082 1.246-.394.947-1.172 1.63-1.858 2.36l.282-.358c-.21.256-.606.414-.687.703-.407.43-.943.352-1.448.544-.845.22-1.824.4-2.609-.104-.153-.109-.188-.186-.323-.112a1.1 1.1 0 0 1-.165-1.055c.122-.39.444.19.666-.19.516.059 1.048.04 1.536-.155 1.069-.39 2.003-1.09 2.778-1.91.244-.294.392-.673.379-1.053.028-.25.218-.463.395-.604.137-.048.277-.175.394-.189m-13.844 1.42c.962.11 1.77.711 2.346 1.46.13.201-.12.188.06.37.206.391.376.808.435 1.251.38-.242.051.52-.058.684-.178.273-.27.601-.515.83.062.195-.363.546-.547.756-.212.258-.313-.097-.558.124-.435.063-.274.723-.748.658-.491-.02-.895-.328-1.36-.4-.32-.197-.636-.5-.773-.836l.075.032c-.332-.54-.496-1.17-.591-1.791a2.8 2.8 0 0 1 .078-1.152c-.15.242-.403.15-.215-.112.284-.529.765-.915 1.192-1.321.348-.244.74-.412 1.138-.549zm38.162 68.469c-.657.025-1.212.454-1.703.85-.62.554-1.205 1.205-1.49 1.999-.24.868-.24 1.822.05 2.678.082.447.533.459.84.64.115.352.216.75.527 1.004.449.359 1.056.33 1.585.218.884-.153 1.796-.23 2.637-.558.47-.185.746-.647.84-1.123.244-1.005.286-2.052.235-3.082-.02-.661-.416-1.226-.883-1.663-.364-.319-.76-.67-1.252-.75l-.7-.065zm-56.139 3.867c-.712.023-1.453.033-2.114.327-.198.061-.553.429-.552.42.248-.365-.312.117-.427.21-.167.08-.633.629-.2.478.247-.163.75-.877.029.106-.223.472-.312.995-.57 1.454-.207.487-.62.926-.595 1.483.253.768.815 1.407 1.097 2.173.424.727 1.221 1.13 2.006 1.35-.084.046-.41.008-.428.186.191.08.85.155.724-.13-.32-.067.292-.023.408-.113a10 10 0 0 0 2.922-1.465c.795-.569 1.055-1.594 1.113-2.52.048-1.09-.13-2.244-.758-3.16-.552-.887-1.74-.782-2.655-.799m31.316 9.61c-.037.085-.49-.02-.496.186.169.086.472.069.109.063-1.26-.063-2.522.043-3.781.098-1.12.078-2.25.125-3.352.353-.435.043-.427.566-.489.895-.133.878.09 1.785.576 2.524.709 1.1 1.88 1.998 3.221 2.08 1.239.088 2.497-.14 3.646-.6a5.63 5.63 0 0 0 2.117-1.92c.195-.199.113-.609.314-.631.245-.393-.32-.738.052-1.09a1 1 0 0 0-.065-1.174c-.327-.465-.966-.467-1.475-.511-.169-.018-.754-.007-.306-.03.34.007.205-.274-.07-.244z"/></svg>