<svg xmlns="http://www.w3.org/2000/svg" width="192" height="192" viewBox="0 0 192 192"><path d="M78.202 28.307a5.2 5.2 0 0 0-3.696 1.536L23.94 80.314a27.04 27.04 0 0 0 0 38.279l17.344 17.312a27.16 27.16 0 0 0 38.351 0l55.007-54.903a5.2 5.2 0 0 0 0-7.376 5.23 5.23 0 0 0-7.4 0l-54.999 54.895a16.69 16.69 0 0 1-23.567 0l-17.344-17.304a16.616 16.616 0 0 1 0-23.527l50.56-50.479a5.208 5.208 0 0 0-3.689-8.904m16.912 16.616a5.2 5.2 0 0 0-3.68 1.52L40.907 96.946a5.2 5.2 0 0 0-.008 7.368 5.2 5.2 0 0 0 7.352.016l50.527-50.503a5.2 5.2 0 0 0 .008-7.368 5.2 5.2 0 0 0-3.68-1.536zm36.391 3.08a27.04 27.04 0 0 0-19.192 7.944l-56.015 55.96a5.23 5.23 0 1 0 7.4 7.39l56.015-55.966a16.69 16.69 0 0 1 23.583 0l17.352 17.336a16.64 16.64 0 0 1 0 23.559l-50.599 50.543a5.23 5.23 0 1 0 7.4 7.392l50.599-50.543a27.087 27.087 0 0 0 0-38.343l-17.36-17.336a27.04 27.04 0 0 0-19.176-7.936zm14.672 40a5.2 5.2 0 0 0-3.68 1.52L93.834 138.16a5.23 5.23 0 0 0-.016 7.384 5.2 5.2 0 0 0 7.368.008l48.663-48.63a5.232 5.232 0 0 0-3.68-8.92z"/></svg>