<svg width="192" height="192" fill="none" xmlns="http://www.w3.org/2000/svg"><path d="M41.645 75.917c-6.355 6.663-5.208 17.114-2.35 28.422C47.32 141.072 57.199 170 96 170c38.797 0 48.676-28.928 56.705-65.657 2.858-11.313 4.005-21.763-2.347-28.422-2.861-71.894-105.855-71.894-108.713-.004ZM96 23v73" stroke="#000" stroke-width="12" stroke-linecap="round" stroke-linejoin="round"/><path d="M60 92s22 8 36 8 36-8 36-8c0 19-7 20-7 24s-6 20-9 23-9 5-20 5-17-2-20-5-9-19-9-23-7-5-7-24Z" stroke="#000" stroke-width="12" stroke-linecap="round" stroke-linejoin="round"/></svg>