<svg xmlns="http://www.w3.org/2000/svg" width="192" height="192" viewBox="0 0 192 192"><path d="M99.237 30.773a65.84 65.84 0 0 0-46.663 19.36l6.144 6.144c10.368-10.368 24.696-16.784 40.519-16.784 15.824 0 30.152 6.416 40.519 16.784l6.136-6.144a65.84 65.84 0 0 0-46.655-19.36m0 17.44c-13.392 0-25.536 5.44-34.344 14.24l6.16 6.16a39.76 39.76 0 0 1 28.184-11.688 39.76 39.76 0 0 1 28.184 11.688l6.16-6.16a48.48 48.48 0 0 0-34.344-14.24m0 17.44a31.04 31.04 0 0 0-22.032 9.128l6.16 6.16a22.43 22.43 0 0 1 31.728 0h.015l6.16-6.16a31.2 31.2 0 0 0-22.032-9.12zm11.016 25.72c-9.88.08-19.072.456-24.336 1.352-4.464.76-6.976 1.84-11.36 4.472-4.368 2.64-19.544 15.52-19.544 15.52-6.76.512-15.656 1.384-20.976 2.68-9.456 2.296-14.96 6.52-15.984 7.984-1.64 2.28-2.176 8.64-2.032 12.456.16 4.512.76 11 2.544 13.12 1.28 1.504 2.392 1.984 4.311 1.984h2.84c-.136-.912-.304-1.92-.304-2.864a18.096 18.096 0 1 1 36.192 0c0 .944-.137 1.848-.28 2.76l72.67-.072c-.127-.88-.263-1.776-.263-2.688a18.08 18.08 0 0 1 18.096-18.096c10 0 17.392 7.52 17.976 16.968.207-.008.375-.024.375 0l2.664-.288s2.696-6.312 3.12-10.8c.368-4.008-2.096-17.576-7.28-26.048v-.008c-4-6.536-8.207-11.488-11.463-14.256-1.992-1.688-3.184-2.664-6.816-3.04-5.32-.536-23.696-1.256-40.16-1.136zm-3.76 5.12c14.12-.112 29.88.568 34.448 1.088 3.112.352 4.368 1.12 6.496 3.232 2.992 2.976 8.36 13.048 8.36 13.048l-92 .784v.016-.016c.033-.032 7.984-9.416 12.08-12.568 3.784-2.904 5.928-3.56 9.744-4.28 4.52-.864 12.4-1.224 20.872-1.296zm-71.175 23.464s-3.488 6.784-7.12 9.28c-4.008 2.768-7.992 3.624-7.992 3.624s.28-5.68 1.456-7.528c1.12-1.776 3.44-3.136 6.72-4.176 2.488-.784 6.936-1.2 6.936-1.2m8.192 14.64a13.312 13.312 0 1 0 0 26.624 13.308 13.308 0 0 0 0-26.616m108.16 0a13.312 13.312 0 1 0 0 26.624 13.308 13.308 0 0 0 0-26.616"/></svg>