<svg width="192" height="192" fill="none" xmlns="http://www.w3.org/2000/svg"><path d="M103 96a37 37 0 0 1 0-74" stroke="#000" stroke-width="12" stroke-linecap="round" stroke-linejoin="round"/><path d="M67 96a37 37 0 0 1 0-74m58 74a36.997 36.997 0 0 1 34.184 22.841 37.006 37.006 0 0 1-8.021 40.322A37.011 37.011 0 0 1 125 170" stroke="#000" stroke-width="12" stroke-linecap="round" stroke-linejoin="round"/><path d="M89 96a36.996 36.996 0 0 1 34.184 22.841 37.006 37.006 0 0 1-8.021 40.322A37.011 37.011 0 0 1 89 170M67 96h58M67 22h87a6 6 0 0 1 6 6v56l-60-62" stroke="#000" stroke-width="12" stroke-linecap="round" stroke-linejoin="round"/><path d="M125 170H92m0 0H38a6 6 0 0 1-6-6v-56l60 62Z" stroke="#000" stroke-width="12" stroke-linecap="round" stroke-linejoin="round"/></svg>