<svg width="192" height="192" fill="none" xmlns="http://www.w3.org/2000/svg"><path d="m92 60 20-36m20 84 20 36M40 48l20 36m40 48-20 36m44-96h38M30 120h38" stroke="#000" stroke-width="10" stroke-linecap="round"/><path d="M96 170c40.869 0 74-33.131 74-74 0-40.87-33.131-74-74-74-40.87 0-74 33.13-74 74 0 40.869 33.13 74 74 74Z" stroke="#000" stroke-width="12" stroke-linecap="round"/><path d="M96 132c19.882 0 36-16.118 36-36s-16.118-36-36-36-36 16.118-36 36 16.118 36 36 36Z" stroke="#000" stroke-width="10" stroke-linecap="round"/><path d="M87.464 85.464c1.913-1.105 3.016-2.775 2.464-3.732-.552-.957-2.55-.837-4.464.268-1.913 1.105-3.016 2.775-2.464 3.732.552.957 2.55.837 4.464-.268Z" stroke="#000" stroke-width="8" stroke-linecap="round"/></svg>