<svg width="192" height="192" fill="none" xmlns="http://www.w3.org/2000/svg"><ellipse cx="77" cy="105.5" rx="4" ry="3.5" stroke="#000" stroke-width="8" stroke-linecap="round" stroke-linejoin="round"/><ellipse cx="115" cy="105.5" rx="4" ry="3.5" stroke="#000" stroke-width="8" stroke-linecap="round" stroke-linejoin="round"/><path d="M100 123.5c0 .928-.421 1.818-1.172 2.475-.75.656-1.767 1.025-2.828 1.025-1.06 0-2.078-.369-2.828-1.025-.75-.657-1.172-1.547-1.172-2.475h8Z" stroke="#000" stroke-width="8" stroke-linecap="round" stroke-linejoin="round"/><path d="M96 34c-34.242 0-62 27.758-62 62 0 11.461 2.579 21.79 8 31l-20 14 33.903 2.291C66.713 152.466 80.71 158 96 158c15.29 0 29.286-5.534 40.097-14.709L170 141l-20-14c5.421-9.21 8-19.539 8-31 0-34.242-27.758-62-62-62Z" stroke="#000" stroke-width="12" stroke-linecap="round" stroke-linejoin="round"/><path d="M150 127c0-14.587-5.689-28.576-15.816-38.89C124.057 77.794 110.322 72 96 72s-28.057 5.795-38.184 16.11C47.69 98.423 42 112.412 42 127" stroke="#000" stroke-width="12" stroke-linecap="round" stroke-linejoin="round"/></svg>