<svg width="192" height="192" fill="none" xmlns="http://www.w3.org/2000/svg"><path d="M143 22H45s-6 16-6 45 6 45 6 45h44m-40 58h98s6-16 6-45-6-45-6-45h-44" stroke="#000" stroke-width="12" stroke-linecap="round" stroke-linejoin="round"/><path d="M143 52c6.627 0 12-6.716 12-15 0-8.284-5.373-15-12-15s-12 6.716-12 15c0 8.284 5.373 15 12 15ZM49 170c6.627 0 12-6.716 12-15 0-8.284-5.373-15-12-15s-12 6.716-12 15c0 8.284 5.373 15 12 15Zm40-28c6.627 0 12-6.716 12-15 0-8.284-5.373-15-12-15s-12 6.716-12 15c0 8.284 5.373 15 12 15Zm14-62c6.627 0 12-6.716 12-15 0-8.284-5.373-15-12-15s-12 6.716-12 15c0 8.284 5.373 15 12 15Z" stroke="#000" stroke-width="12" stroke-linejoin="round"/></svg>