<svg xmlns="http://www.w3.org/2000/svg" width="192" height="192" viewBox="0 0 192 192"><path d="M110.36 21.408a8.21 8.21 0 0 0-8.208 8.192v114.88a8.21 8.21 0 0 0 8.208 8.2 8.21 8.21 0 0 0 8.208-8.208V29.612a8.21 8.21 0 0 0-8.208-8.2M81.64 39.316a8.21 8.21 0 0 0-8.2 8.208v114.87a8.21 8.21 0 0 0 8.208 8.2 8.21 8.21 0 0 0 8.208-8.208V47.526a8.21 8.21 0 0 0-8.208-8.208m57.44 11.632a8.21 8.21 0 0 0-8.208 8.208v73.848a8.21 8.21 0 0 0 8.208 8.2 8.21 8.21 0 0 0 8.2-8.2V59.158a8.21 8.21 0 0 0-8.2-8.208m-86.16 4.104a8.21 8.21 0 0 0-8.208 8.208v65.64a8.21 8.21 0 0 0 8.208 8.208 8.21 8.21 0 0 0 8.2-8.208v-65.64a8.21 8.21 0 0 0-8.208-8.216zm-28.72 20.512A8.21 8.21 0 0 0 16 83.774v24.616a8.21 8.21 0 0 0 8.208 8.2 8.21 8.21 0 0 0 8.208-8.2V83.766a8.21 8.21 0 0 0-8.208-8.208zm143.59 8.208a8.21 8.21 0 0 0-8.2 8.208v8.2a8.21 8.21 0 0 0 8.2 8.208 8.21 8.21 0 0 0 8.2-8.208v-8.2a8.21 8.21 0 0 0-8.208-8.208"/></svg>