<svg width="192" height="192" fill="none" xmlns="http://www.w3.org/2000/svg"><path d="M170 82c-2.123-5.338-5.401-9.51-9.325-11.869-3.923-2.358-8.274-2.772-12.376-1.177-4.102 1.595-7.727 5.11-10.312 10C135.401 83.845 134 89.837 134 96s1.401 12.155 3.987 17.045c2.585 4.89 6.21 8.406 10.312 10.001 4.102 1.595 8.453 1.181 12.376-1.177 3.924-2.359 7.202-6.531 9.325-11.869m-77-4a19 19 0 0 0 0-38m-71 0v50a6 6 0 0 0 6 6h27m38-56h-9a6 6 0 0 0-6 6v50m15-18H78m21 0 10 18" stroke="#000" stroke-width="12" stroke-linecap="round" stroke-linejoin="round"/></svg>