<svg xmlns="http://www.w3.org/2000/svg" width="192" height="192" viewBox="0 0 192 192"><path d="M175.22 69.645a14.52 14.52 0 0 0-16.301-18.981 75.47 75.47 0 0 0-135.83 45.331q.008 2.333.151 4.628a14.35 14.35 0 0 0-5.164 5.074 14.42 14.42 0 0 0 11.959 21.88 75.403 75.403 0 0 0 105.44 34.262 14.519 14.519 0 0 0 21.48-18.007 75.27 75.27 0 0 0 14.338-68.162 14.35 14.35 0 0 0 3.926-6.025m-76.633-39.45a65.69 65.69 0 0 1 51.839 25.347 14.5 14.5 0 0 0-2.537 14.549l-27.686 22.998a14.35 14.35 0 0 0-15.153.317 14.04 14.04 0 0 0-6.229 8.547l-55.22 5.103a14.8 14.8 0 0 0-5.64-6.372 15.1 15.1 0 0 0-5.105-1.812 68 68 0 0 1-.075-2.869 65.874 65.874 0 0 1 65.806-65.806m-59.245 94.414a14.12 14.12 0 0 0 5.21-7.912l55.145-5.089a15 15 0 0 0 .99 1.842 14.53 14.53 0 0 0 16.006 6.191l15.07 21.714a14.35 14.35 0 0 0-2.62 7.173 14.4 14.4 0 0 0 .581 5.413 65.76 65.76 0 0 1-90.374-29.332zm125.04-28.615a65.46 65.46 0 0 1-14.232 40.793 15.1 15.1 0 0 0-5.172-1.51 15.1 15.1 0 0 0-5.277.529l-15.055-21.706a14.5 14.5 0 0 0 1.834-13.62L154.16 77.5a14.35 14.35 0 0 0 8.123 1.948 65.7 65.7 0 0 1 2.114 16.55"/></svg>