<svg width="192" height="192" fill="none" xmlns="http://www.w3.org/2000/svg"><path d="M97.095 22C75.924 32.647 54.75 39.512 33.577 44.865 30.894 45.544 29 47.948 29 50.716V110c0 34 61.198 60 68.099 60C104 170 163 144 163 110V51.104c0-2.942-2.138-5.437-5.023-6.016-21.235-4.26-39.483-13.067-60.882-23.088Z" stroke="#000" stroke-width="12" stroke-miterlimit="32" stroke-linecap="round" stroke-linejoin="round"/><circle cx="96" cy="74" r="18" stroke="#000" stroke-width="12" stroke-linecap="round" stroke-linejoin="round"/><path d="M128 124a31.997 31.997 0 0 0-54.627-22.627A31.998 31.998 0 0 0 64 124" stroke="#000" stroke-width="12" stroke-linecap="round" stroke-linejoin="round"/></svg>