<svg xmlns="http://www.w3.org/2000/svg" width="192" height="192" viewBox="0 0 192 192"><path d="m33.055 16 25.922 41.484c9.088 18.712 31.287 19.953 57.047 26.969l5.719-8.578c-4.656-2.712-5.276-20.392-13.86-24l-11.89 18.047-28.391-44.688zm125.89 0-34.109 9.234-3.313 5.078c4.032 2.384 8.235 4.917 11.562 8.157 1.872 1.792 3.713 3.066 6.297 4.562.976.544 1.177.508 1.953 1.156zM89.617 27c-5.576.048-9.808 1.37-14.984 2.61 2.84 5.351 6.928 10.077 9.688 15.405 10.975-1.792 18.693-1.26 29.094 6.5a10.4 10.4 0 0 1 3.39 4.438 264 264 0 0 0 4.844 11.594c1.912 6.88 4.697 8.165 10.64 3.437-1.64.624-5.213 1.9-2.733-1.156-3.16 2.44-4.153-9.313-3.657-11.609 2.112.176 4.017 4.065 5.953 7.281 1.72 3.576 2.087 7.6 5.72 8.344-1.473-1.24-2.889-1.878 0-1.75-5.32-1.616-2.688-9.866-11.72-15.89l.047-.188c3.808-.256 8.712 1.739 11.672 3.53.048 1.873-2.206 3.21-3.078 3.313 3.96.648 3.634-2.539 7.266-1.547v.22h.219c-1.12 1.615-2.647 1.95-4.407 3.093 4.328-.176 14.552-5.503 7.016-10.03-.992-.617-1.735-.988-2.36-1.86-2.111-3.088-1.139-5.093-6.515-7.157-10.2-6.592-17.406-18.93-46.094-18.578zM49.555 50.344c-6.672 12.64-3.832 28.444 8.656 37.844 11.472 8.216 30.583 11.819 47.703 15.547 14.384 3.216 20.778 19.885 9.235 31.109v21.125c28.344-11.168 34.684-47.229 7.484-64.125-31.128-14.952-52.702-2.108-73.078-41.5m30.609 51.25.453 61.844L96.211 176l15.406-12.547.219-52.828s-1.123-2.84-21.203-6.344c-4.256-.752-7.382-1.781-7.406-1.781zm-34.141 8.36c-9.4 22.271 7.591 41.583 31.031 47.983.704-5.944.243-13.039.219-19.359-16.296-1.992-29.106-10.102-31.25-25.078z"/></svg>