<svg xmlns="http://www.w3.org/2000/svg" width="192" height="192" viewBox="0 0 192 192"><path d="M38.785 19.064A21.39 21.39 0 0 0 19 40.386a21.389 21.389 0 0 0 42.778 0 21.39 21.39 0 0 0-22.993-21.322m55.611 0a21.39 21.39 0 0 0-19.785 21.322 21.389 21.389 0 0 0 42.778 0 21.39 21.39 0 0 0-22.993-21.322m55.611 0a21.39 21.39 0 0 0-19.785 21.322 21.389 21.389 0 0 0 42.778 0 21.39 21.39 0 0 0-22.993-21.322M40.387 74.608a21.389 21.389 0 0 0 0 42.778 21.389 21.389 0 0 0 0-42.778m54.007.067a21.39 21.39 0 0 0-19.785 21.322 21.389 21.389 0 0 0 42.778 0 21.39 21.39 0 0 0-22.993-21.322m55.611 0a21.39 21.39 0 0 0-19.785 21.322 21.389 21.389 0 0 0 42.778 0 21.39 21.39 0 0 0-22.993-21.322m-109.68 8.489a12.833 12.833 0 0 1 12.9 12.833 12.833 12.833 0 0 1-25.667 0 12.833 12.833 0 0 1 11.881-12.8 13 13 0 0 1 .886-.034zm55.611 0a12.833 12.833 0 0 1 12.9 12.833 12.833 12.833 0 0 1-25.667 0 12.833 12.833 0 0 1 11.881-12.8 13 13 0 0 1 .886-.034zm55.611 0a12.833 12.833 0 0 1 12.9 12.833 12.833 12.833 0 0 1-25.667 0 12.833 12.833 0 0 1 11.881-12.8 13 13 0 0 1 .886-.034zM96.003 130.22a21.389 21.389 0 0 0 0 42.778 21.389 21.389 0 0 0 0-42.778m-57.215.066a21.39 21.39 0 0 0-19.785 21.322 21.389 21.389 0 0 0 42.778 0 21.39 21.39 0 0 0-22.993-21.322m111.22 0a21.39 21.39 0 0 0-19.785 21.322 21.389 21.389 0 0 0 42.778 0 21.39 21.39 0 0 0-22.993-21.322m-54.074 8.489a12.833 12.833 0 0 1 12.9 12.833 12.833 12.833 0 0 1-25.667 0 12.833 12.833 0 0 1 11.881-12.8 13 13 0 0 1 .886-.033"/></svg>