<svg xmlns="http://www.w3.org/2000/svg" width="192" height="192" viewBox="0 0 192 192"><path d="M95.382 16a76.8 76.8 0 0 0-53.129 21.244c-2.498-1.867-4.373-3.742-5.627-6.24l-1.253-1.884-1.244 1.884s-5.636 7.493-5.005 14.364c.622 3.129 2.498 5.636 5.005 7.511 7.493 4.996 15.618 5.004 23.11 5.627 16.193-.675 30.898 8.658 32.517 25.618-.083 14.466-11.792 26.17-26.258 26.249-14.463-.083-26.166-11.786-26.25-26.25 0-10.621 6.25-20 15.628-23.75-7.503 1.244-15.004 2.506-23.751-1.245-.623 0-1.245-.63-1.867-1.262a77.3 77.3 0 0 0-8.133 34.382c0 36.25 25.618 66.871 60 74.996V176h14.373v-6.871h5.013v6.87h14.364v-8.755c34.373-7.502 60-38.124 60-74.996-.622-11.876-3.742-23.11-8.747-33.742-.622.622-1.244.622-1.875.622-8.125 3.752-16.258 2.49-23.76 1.245 9.378 4.373 15.627 13.129 15.627 23.75 0 14.383-11.867 26.25-26.24 26.25s-26.25-11.867-26.25-26.25c0-.481.146-26.257 31.254-26.257 7.502 0 15.618.018 23.11-5.61 3.13-1.875 4.392-4.381 5.014-7.51 1.244-6.871-4.382-13.742-5.004-14.364l-1.245-1.885-1.262 1.885c-1.245 2.498-3.751 4.373-6.249 6.249C134.75 24.133 116.004 16 95.381 16m0 15.627c14.373 0 26.88 4.995 37.502 13.12-3.751 1.244-13.129.622-18.756 3.129-6.871 3.12-18.124 14.373-18.747 16.249-1.244-2.507-13.751-13.751-18.756-15.627-4.996-2.498-14.996-3.751-18.747-4.374C68.499 36 81.006 31.626 95.379 31.626M62.25 64.124c-11.353.092-20.534 9.27-20.631 20.622.622 11.253 9.378 20.631 20.622 20.631 11.356-.087 20.543-9.266 20.64-20.622-.092-11.356-9.275-20.539-20.631-20.63m45.627 20.621c0 11.253 9.369 20.631 20.622 20.631S149.121 96 149.121 84.755c-.092-11.353-9.27-20.534-20.622-20.63-11.349.096-20.526 9.272-20.622 20.621M62.25 75.377c4.996 0 9.378 4.374 9.378 9.37s-4.382 9.377-9.378 9.377a9.6 9.6 0 0 1-9.378-9.378c0-4.995 4.374-9.369 9.378-9.369m74.996 9.37c0 4.995-4.373 9.377-9.369 9.377s-9.378-4.373-9.378-9.378c0-5.004 4.374-9.369 9.378-9.369 5.627 0 9.369 4.374 9.369 9.37m-48.124 29.377 6.258 5.627 6.249-5.627c6.88 6.25 16.249 10.631 26.249 10.631A37.5 37.5 0 0 0 152.25 116c-9.118 23.437-31.723 38.842-56.871 38.756-26.25 0-48.756-16.25-57.511-39.378a39.3 39.3 0 0 0 25.004 8.755c10 0 19.378-3.76 26.258-10.009z"/></svg>