<svg xmlns="http://www.w3.org/2000/svg" width="192" height="192" viewBox="0 0 192 192"><path d="M88 56a8 8 0 0 0-5.656 2.344A8 8 0 0 0 80 64v80l-25.592-13.784h-1.784a8 8 0 0 0-5.904 2.6l-5.904 6.12L80 172.56c2.096 2.256 4.968 3.44 8 3.44h52a12.43 12.43 0 0 0 12-12v-34.872c0-4.624-2.56-8.912-6.816-10.816l-39.496-17.496L96 99.784V64a8 8 0 0 0-2.344-5.656A8 8 0 0 0 88 56m0-24a32.024 32.024 0 0 1 32 32c0 12-6.408 22.16-16 27.688v-9.784A24.05 24.05 0 0 0 108.784 52 23.76 23.76 0 0 0 100 43.216a23.96 23.96 0 0 0-28.968 3.816A24 24 0 0 0 64 64c0 7.128 3.128 13.528 8 17.904v9.784A31.68 31.68 0 0 1 56 64a32.024 32.024 0 0 1 32-32m0-16a48 48 0 0 1 48 48 48.32 48.32 0 0 1-14.72 34.656l-8-3.624A40.08 40.08 0 0 0 128 64a40 40 0 0 0-11.72-28.28 39.944 39.944 0 0 0-56.56 0A40 40 0 0 0 48 64a39.84 39.84 0 0 0 24 36.624v8.656A48.12 48.12 0 0 1 40 64a48 48 0 0 1 48-48"/></svg>