<svg xmlns="http://www.w3.org/2000/svg" width="192" height="192" viewBox="0 0 192 192"><path d="M94.543 19.004a74.849 74.849 0 0 0-59.589 119.04l-11.205 29.719a3.881 3.881 0 0 0 5.806 4.572l24.109-16.319a74.818 74.818 0 0 0 111-89.895 74 74 0 0 0-5.069-10.333h-45.617a2.503 2.503 0 0 1-2.497-2.496V24.43a2.503 2.503 0 0 1 2.497-2.482h2.166A74.9 74.9 0 0 0 94.546 19zm76.945 5.986-56.957.015v27.734h46.805l.887 1.489a80 80 0 0 1 3.28 6.182l5.835-6.904a.76.76 0 0 0 .15-.376zm-11.415 4.136c1.445 0 2.889.376 4.181 1.128a7.7 7.7 0 0 1 2.828 3.249c.685 1.535 1.023 3.196 1.022 5.294s-.331 3.76-1.007 5.294a7.4 7.4 0 0 1-2.813 3.234 8.3 8.3 0 0 1-8.362.015 7.5 7.5 0 0 1-2.858-3.22c-.704-1.501-1.041-3.144-1.038-5.278.004-2.134.336-3.8 1.023-5.34a7.5 7.5 0 0 1 2.843-3.248 8.3 8.3 0 0 1 4.181-1.128m-16.664.24a7.9 7.9 0 0 1 4.452 1.505 5.17 5.17 0 0 1 1.82 4.196 5.9 5.9 0 0 1-.843 3.218 5.7 5.7 0 0 1-2.526 2.046l4.076 7.685v.18h-4.151l-3.535-6.887h-3.098v6.888h-3.865V29.382h6.978c.23-.015.464-.02.692-.015zm-24.756.016h7.355a8.5 8.5 0 0 1 3.73.767 5.8 5.8 0 0 1 2.466 2.21c.588.984.891 2.104.873 3.25a5.4 5.4 0 0 1-1.895 4.36 7.85 7.85 0 0 1-5.234 1.595h-3.415v6.633h-3.88zm40.969 2.948a3.46 3.46 0 0 0-2.557 1.519c-.802 1.34-1.179 2.9-1.173 4.918s.376 3.565 1.158 4.918c1.458 2.099 4.546 2.129 6.046.06.78-1.354 1.153-2.91 1.158-4.933s-.368-3.587-1.158-4.948a3.46 3.46 0 0 0-3.023-1.534c-.15-.006-.304-.014-.451 0m-37.089.195v5.896h3.474a3.36 3.36 0 0 0 2.331-.707 2.63 2.63 0 0 0 .813-2.076 3.1 3.1 0 0 0-.813-2.24 3.07 3.07 0 0 0-2.24-.873zm17.071 0v5.64h3.128a3.23 3.23 0 0 0 2.271-.737 2.7 2.7 0 0 0 .798-2.045 2.85 2.85 0 0 0-.753-2.091 3.08 3.08 0 0 0-2.33-.767zM93.16 45.67a1.87 1.87 0 0 1 2.406 1.79v20.635h17.131c2.21 0 2.21 16.394 0 16.394H67.998a2.695 2.695 0 0 1-2.12-4.362l26.335-33.81a1.87 1.87 0 0 1 .947-.646zm2.391 42.76v27.868s-.316 8.538 5.475 10.98a30 30 0 0 0 13.341-.377 33.1 33.1 0 0 1 2.06 16.68 53.44 53.44 0 0 1-29.524-1.43 22.8 22.8 0 0 1-11.55-19.657v-29.93z"/></svg>