<svg xmlns="http://www.w3.org/2000/svg" width="192" height="192" viewBox="0 0 192 192"><path d="M96.83 18.897c-17.24-.08-32.913 3.28-37.233 3.88h-.008c-3.416.88-8.896 2.64-8.96 2.88-9.624 3.328-15.616 7.488-22.8 13.616-4.304 4.224-8.424 9.48-9.624 15.384-3 14.84-3.28 22 1.312 39.81 1.464 4 3.928 8.32 6.688 11.783 5.792 7.064 11.96 10.344 19.792 13.672 7.864 2.64 15.872 2.912 24.096 2.576 4.88-.4 27.512-9.976 50.385-17.344 30.184-8.536 28.584-5.456 33.433-22a60 60 0 0 0 1.248-14.2c-.2-8.768-1.488-15.04-4.528-21.976-1.736-3.976-4.768-8.776-7.12-11.344-10.592-13.144-29.416-16.656-46.673-16.736zm22.448 25.168 1.096.24 2.296.952a7.2 7.2 0 0 1 2.856 4.064 4.88 4.88 0 0 1-1.496 4.72c-1.168 1.056-1.416 1.104-8.84 2.024-13.92 1.744-19.36 2.336-20.216 2.24-2.528-.32-4.288-2.84-3.52-5.04.184-.72.24-.824.264-.904.04-.08.056-.152.44-.688a1.76 1.76 0 0 1 .984-.624l.112-.048 25.008-6.824a8 8 0 0 1 1.016-.112m-72.753 13.2v.024c10.512 2.48 15.384 3.424 25.592 6 .576.264 1.296.392 1.416.808.384.36.56.808.832 1.264.312.584.344.8.344 1.952 0 1.168-.032 1.392-.36 2.064a4.64 4.64 0 0 1-2.752 2.328s-.6.256-.92.296a16 16 0 0 1-2.856-.24 32 32 0 0 0-2.928-.16c-.024.016 0 2.432.08 5.336.128 5.888.104 6.136-.656 7.248a4.8 4.8 0 0 1-2.48 1.768c-2.44.776-5-.192-6.064-2.296-.368-.736-1.52-6.424-2.4-11.888l-.24-1.44-.8-.088c-8.08-1-8.208-1.008-9.032-1.392a5.1 5.1 0 0 1-2.296-2.048 5.44 5.44 0 0 1-.92-3.264 5.92 5.92 0 0 1 1.52-4.016 5.92 5.92 0 0 1 4.92-2.248zm62.257 1.816c1.28 0 1.44.04 2.264.44a5.84 5.84 0 0 1 3.216 4.344c.336 2.144.96 8.104 1.144 11.104a5.6 5.6 0 0 1-.128 2.112 5.68 5.68 0 0 1-3.544 3.52 7.2 7.2 0 0 1-3.184.256 5.36 5.36 0 0 1-3.52-2.56c-.28-.536-.376-.984-.528-2.736a456 456 0 0 0-.576-5.888c-.576-5.384-.6-5.968-.256-7a5.6 5.6 0 0 1 1.504-2.32c.24-.224.424-.432.392-.488l.016-.016a3.2 3.2 0 0 0 .952-.36c.8-.384.96-.4 2.248-.4zm33.745 41.761q-3.76.784-7.52 1.688c-19.04 4.888-37.785 12.36-56.321 18.808a4.8 4.8 0 0 0-2.024 1.424c-1.6 1.76-1.16 3.656-1.936 7.968v.624c.072 1.904.36 4.112.904 6.84.888 4.48 2.24 8.544 3.952 11.952l-.512-.904c-2.08-4.36-3.776-10.56-4.344-15.952-.112-.76-.312-1.648 0-1.936v-.624c0-8.216-.4-6.336-10.56-6.64-9.944.224-23.16-5.376-34.705 10.784a22.4 22.4 0 0 0-1.832 5.624c-.336 1.888-.4 5.072-.136 7.2.744 6.08 2.72 10.656 6.056 14.032 4.08 4.112 10.24 6.4 19.264 7.2 1.016.08 6.04-.04 7.192-.176.616-.08 2.232-.224 3.592-.384 3.024-.32 5.232-.768 7.92-1.536 5.984-1.744 11.864-4.936 13.984-7.624l.384-.496-.952-.984a1.6 1.6 0 0 0 .472.36q.08.016.216.088l.032.064q-.16-.184-.064.08.08.2.16.16v-.096c.376.544 2.704 2.432 4.592 3.704 4.784 3.216 11.2 6.008 17.872 7.824 6.168 1.496 8.208 1.584 14.4 2.48 5.12.72 6.176.768 10.48.672 6.8-.144 13.744-1.224 19.088-3.024 11.544-3.896 15.328-9.92 19.624-17.08a53.6 53.6 0 0 0 3.624-12.296 38.4 38.4 0 0 0-.816-16.808 32.32 32.32 0 0 0-16.576-20.392 26.4 26.4 0 0 0-7.712-2.576 33.6 33.6 0 0 0-7.8-.048m-29.496 20.64a5.6 5.6 0 0 1 1.56.136c2.92 1.04 3.48 2.904 5.424 4.817l3.488 3.824c1.008 1.12 3.04 3.272 4.528 4.784 2.544 2.592 2.712 2.8 2.8 3.36a2.4 2.4 0 0 1-.672 1.952 40 40 0 0 1-2.472 1.48 281 281 0 0 0-5.464 3.28q-1.824 1.2-3.76 2.208a5.04 5.04 0 0 1-6.056-2.344 3.2 3.2 0 0 1-.4-1.824 3.44 3.44 0 0 1 1.104-2.832c.776-.776 1.488-1.04 4.904-1.888 1.656-.416 3.04-.8 3.112-.864.192-.16-.12-.448-1.488-1.384a200 200 0 0 1-6.92-4.928 48 48 0 0 1-2.952-2.32c-2.448-2.32-1.568-6.112 1.688-7.272a5.6 5.6 0 0 1 1.576-.184m50.385 7.344c2.128 0 3.688 3.008 3 5.712-.64 2.48-1.704 3.368-7.736 6.4-1.88.936-3.152 1.648-3.184 1.776-.024.12.448.624 1.248 1.312 2.4 2.024 2.768 2.432 3 3.232.616 2.128-.712 4.848-2.92 5.92a3.68 3.68 0 0 1-2.656.176c-.752-.336-1.04-.712-1.968-2.56a48 48 0 0 0-4.296-7.12c-.48-.664-.528-.848-.528-1.496 0-.608.064-.856.368-1.328a3.2 3.2 0 0 1 .832-.824c4.08-2.344 7.52-5.04 11.6-9.064 1.832-1.784 2.368-2.128 3.24-2.12zm-95.658 8.264c1.184.128 2.16 1.208 2.176 2.64 0 .84-.24 1.408-1.144 2.496-.424.504-.8.992-.856 1.08s.424.624 1.248 1.36c1.504 1.36 1.664 1.544 1.672 2.248 0 .384-.096.608-.44.984-.416.456-.504.504-1.152.504s-.8-.088-2.256-1.016a32 32 0 0 0-1.792-1.08c-.16-.072-.616.288-1.6 1.216a12 12 0 0 1-1.728 1.44c-.88.344-1.936 0-2.328-.752-.368-.704-.28-.96.984-2.624a16 16 0 0 0 1.152-1.624c-2.648-1.88-3.048-2.328-3.056-3.608a2.4 2.4 0 0 1 2.264-2.472c.952-.064 1.336.136 2.56 1.24l.904.824.584-.88c.752-1.136 1.168-1.592 1.704-1.808a2.4 2.4 0 0 1 .592-.16 2.4 2.4 0 0 1 .512-.008m-23.416 2.496c.56-.04.76 0 1.12.248.752.52.992.944 1.048 1.92.064 1.168-.184 1.728-1.344 3.08a8 8 0 0 0-.824 1.048c.376.272 2.688 2.424 2.808 2.624.456.784-.048 1.904-1 2.192-.624.192-.96.04-2.8-1.176l-1.416-.936-.496.576a40 40 0 0 0-1.128 1.376 4.8 4.8 0 0 1-.84.92c-.752.408-1.808-.08-2.096-1-.216-.656-.112-1.024.72-2.48.392-.72.72-1.376.72-1.472a5.6 5.6 0 0 0-.96-1.184c-1.104-1.152-1.36-1.76-1.232-2.968.136-1.28 1.056-2.264 2.096-2.264.76 0 1.136.272 1.856 1.28a8 8 0 0 0 .72.92c.032 0 .424-.48.856-1.064.976-1.32 1.312-1.576 2.192-1.64"/></svg>