<svg xmlns="http://www.w3.org/2000/svg" width="192" height="192" viewBox="0 0 192 192"><path d="M126.79 42.664a12.18 12.18 0 0 0 2.703-16.895l-1.257-1.745a11.89 11.89 0 0 0-16.741-2.72L84.18 41.21a24.12 24.12 0 0 0-9.633 15.765 24.38 24.38 0 0 0 4.235 18.016l1.257 1.754zm23.867 69.455a11.917 11.917 0 0 0 16.759-2.626l1.258-1.745a12.15 12.15 0 0 0-2.61-16.905l-27.204-20.05a23.825 23.825 0 0 0-33.517 5.252l-1.266 1.745zm-57.615 44.33a12.23 12.23 0 0 0 .693 9.239 12.05 12.05 0 0 0 6.963 6.031l2.036.676a11.89 11.89 0 0 0 12.832-3.619 12 12 0 0 0 2.302-4.106l10.488-32.302a24.38 24.38 0 0 0-7.16-25.895 24 24 0 0 0-8.153-4.637l-2.028-.675zm-60.011-41.182a11.98 11.98 0 0 0-8.503 3.525 12.15 12.15 0 0 0-3.525 8.554v2.164a12.23 12.23 0 0 0 3.49 8.564 11.98 11.98 0 0 0 8.47 3.567l33.697.085a23.95 23.95 0 0 0 16.972-7.04 24.28 24.28 0 0 0 7.057-17.092v-2.164zm19.915-70.054a12.15 12.15 0 0 0-5.937-7.058 11.98 11.98 0 0 0-9.153-.752l-2.036.658a11.98 11.98 0 0 0-6.998 5.989 12.25 12.25 0 0 0-.744 9.239l10.325 32.354a24.3 24.3 0 0 0 11.89 14.115 23.95 23.95 0 0 0 18.29 1.505l2.037-.659z"/></svg>