<svg xmlns="http://www.w3.org/2000/svg" width="192" height="192" viewBox="0 0 192 192"><path d="m74.928 172.62-2.806-22.467 20.25-16.11c21.2 2.522 40.375-12.763 42.642-33.991 0 0 .23-1.9.188-2.772-.017-.727.017-1.9.017-1.9a38.24 38.24 0 0 0-15.314-30.03l9.411-16.34 22.612-9.497L173 75.9l-19.729 14.938q.188 1.343.188 2.584v5.167q0 1.25-.376 2.593l19.729 14.938-21.072 36.395-22.604-9.582a51 51 0 0 1-4.406 2.883 38 38 0 0 1-4.594 2.293l-3.063 24.52H74.928m44.942-130.77.256 2.053a28 28 0 0 1 4.697 2.301 59 59 0 0 1 4.304 2.866l.17-.077 6.529-11.328 5.843-10.412zM99.816 57.807a38 38 0 0 1 20.07 7.554L108.79 84.628l24.897 9.959q.924.368 1.54.804a43 43 0 0 1-.214 4.671 8.6 8.6 0 0 1-.958.856l-41.683 33.136a38.15 38.15 0 0 1-19.703-8.384l10.523-18.275-24.554-9.822c-.018-.514 0 .385 0-.137l.41-7.212zM59.04 90.215c3.036-19.79 20.793-33.91 40.759-32.408l20.07-15.948-2.805-22.475H74.919l-3.063 24.52a38 38 0 0 0-4.595 2.301 51 51 0 0 0-4.406 2.866l-22.783-9.574L19 75.901 38.73 90.84c-.129.856-.192 1.72-.189 2.584v5.168q0 1.25.188 2.592L19 116.113l21.072 36.394 22.621-9.496-6.528 11.328-5.219 10.617 21.175-14.801-.256-2.054a29 29 0 0 1-4.697-2.293 60 60 0 0 1-4.312-2.874l-.171.077 9.984-17.351a38.24 38.24 0 0 1-14.023-28.096h-.009c-.025-1.113.411-7.358.411-7.358"/></svg>