<svg width="192" height="192" fill="none" xmlns="http://www.w3.org/2000/svg"><path d="M59.569 127.135c0 4.874-1.98 9.548-5.502 12.995-3.523 3.447-8.3 5.383-13.282 5.383a19.14 19.14 0 0 1-7.189-1.399 18.818 18.818 0 0 1-6.094-3.984C23.979 136.683 22 132.009 22 127.135c0-4.875 1.98-9.549 5.502-12.996 3.523-3.446 8.3-5.382 13.283-5.382 4.981 0 9.76 1.936 13.282 5.382 3.523 3.447 5.502 8.121 5.502 12.996Zm9.628-82.193a1.898 1.898 0 0 0-1.213-.89 1.939 1.939 0 0 0-1.49.256 23.624 23.624 0 0 0-9.326 11.33c-.093.242-.18.483-.264.722a22.374 22.374 0 0 0-1.04 9.515 22.449 22.449 0 0 0 3.034 9.09l40.316 68.913a1.9 1.9 0 0 0 1.166.88 1.938 1.938 0 0 0 1.454-.195 21.587 21.587 0 0 0 7.413-6.916c2.906-4.47 3.508-9.248 3.246-13.253a26.903 26.903 0 0 0-3.702-11.801l-39.594-67.65Zm57.45 1.179a1.902 1.902 0 0 0-1.213-.891 1.94 1.94 0 0 0-1.49.256 23.622 23.622 0 0 0-9.327 11.331c-.093.242-.181.482-.263.721a22.361 22.361 0 0 0-1.04 9.516 22.444 22.444 0 0 0 3.034 9.089l40.317 68.915a1.896 1.896 0 0 0 1.166.879 1.94 1.94 0 0 0 1.454-.195 21.606 21.606 0 0 0 7.414-6.915c2.906-4.47 3.508-9.249 3.246-13.254a26.896 26.896 0 0 0-3.703-11.801l-39.595-67.651Z" stroke="#000" stroke-width="12" stroke-linecap="round" stroke-linejoin="round"/></svg>