<svg xmlns="http://www.w3.org/2000/svg" width="192" height="192"><path d="M140.64 16c-4.966-.03-9.902 1.554-13.982 4.372-4.938 3.377-8.633 8.424-10.651 14.033l-21.359 55.18-12.811-45.174c-.1-.431-.25-.852-.352-1.284-.43-1.476-1.049-2.902-1.89-4.191-1.873-3.03-4.935-5.348-8.424-6.14a12.5 12.5 0 0 0-4.267-.221c-3.16.359-6.113 1.987-8.231 4.34-1.463 1.602-2.54 3.533-3.23 5.585l-29.904 81.87c-.713 1.746-.895 3.712-.447 5.55.539 2.321 2.095 4.443 4.28 5.456 1.99.95 4.445.836 6.334-.306 1.328-.777 2.353-1.995 3.039-3.36l22.407-41.16 10.739 67.318c.886 5.3 3.618 10.33 7.796 13.748 3.197 2.643 7.26 4.25 11.416 4.369a19 19 0 0 0 3.389-.18 17.7 17.7 0 0 0 3.986-1.098 20.3 20.3 0 0 0 6.437-4.135c1.99-1.881 3.594-4.153 4.78-6.617l54.008-104c-.011-.226.327-.673.433-.984 2.432-5.133 3.408-10.93 2.86-16.58-.656-7.323-3.964-14.43-9.353-19.464-3.87-3.643-8.865-6.149-14.166-6.763a25 25 0 0 0-2.838-.168z"/></svg>