<svg width="192" height="192" fill="none" xmlns="http://www.w3.org/2000/svg"><path d="M137.955 35a30.81 30.81 0 0 0-12.99 2.888 31.076 31.076 0 0 0-10.6 8.112l-.063-.064-35.308 35.643-.037-.038s-2.249-2.268-3.263-3.286c-5.552-5.57-13.21-9.032-21.65-9.032C36.899 69.223 23 83.14 23 100.31a30.999 30.999 0 0 0 8.187 21.035l-.234.17 27.469 27.859c.132.137.264.272.398.405l.089.09c5.488 5.227 12.655 8.127 20.091 8.13a28.76 28.76 0 0 0 11.548-2.438 29.777 29.777 0 0 0 9.737-6.91l57.814-58.496a31.31 31.31 0 0 0 8.038-10.702A31.584 31.584 0 0 0 169 66.34c0-8.311-3.271-16.282-9.092-22.159a30.899 30.899 0 0 0-21.951-9.179l-.002-.001Z" stroke="#000" stroke-width="14" stroke-linecap="round" stroke-linejoin="round"/></svg>