<svg width="192" height="192" fill="none" xmlns="http://www.w3.org/2000/svg"><path d="M56.109 104.975 68.416 94.46a6.186 6.186 0 0 0 2.166-4.695V78.183c0-1.64-.654-3.213-1.817-4.372A6.213 6.213 0 0 0 64.379 72H54.04c-3.426 0-6.221 2.77-6.032 6.18 1.678 30.323 16.129 64.826 59.771 67.806 3.417.234 6.22-2.559 6.22-5.974v-10.305c0-1.64-.653-3.213-1.817-4.372a6.21 6.21 0 0 0-4.386-1.811h-11.62a6.21 6.21 0 0 0-4.71 2.159L80.92 137.951" stroke="#000" stroke-width="10" stroke-linecap="round" stroke-linejoin="round"/><path d="M96 170a74 74 0 1 0-74-74" stroke="#000" stroke-width="12" stroke-linecap="round" stroke-linejoin="round"/><path d="M146 96a49.995 49.995 0 0 0-30.866-46.194A50 50 0 0 0 96 46m30 50a29.994 29.994 0 0 0-8.787-21.213A30.008 30.008 0 0 0 96 66m10 30a10.01 10.01 0 0 0-2.929-7.071A10.005 10.005 0 0 0 96 86" stroke="#000" stroke-width="10" stroke-linecap="round" stroke-linejoin="round"/><path d="M22 96v68a6 6 0 0 0 6 6h68" stroke="#000" stroke-width="12" stroke-linecap="round" stroke-linejoin="round"/></svg>