<svg xmlns="http://www.w3.org/2000/svg" width="192" height="192" viewBox="0 0 192 192"><path d="M157.39 65.94c-.812.02-1.63.082-2.437.203a1.6 1.6 0 0 0 0 .64v13.048h.812a5.6 5.6 0 0 1 2 0 4.08 4.08 0 0 1 2.719 3.281 6.8 6.8 0 0 1 0 3.11 13.6 13.6 0 0 1-1.61 3.921A19.2 19.2 0 0 1 156 93.91c-3.44 3.92-7.115 7.447-10.875 11.047l-6.484 6.031 18 .047c.368.048.728-.11.953-.406l4.89-5.031a67 67 0 0 0 6.47-8 40 40 0 0 0 3.203-5.687 29.6 29.6 0 0 0 2.328-8 16 16 0 0 0 0-5.204 14.87 14.87 0 0 0-9.922-11.594 19.6 19.6 0 0 0-7.172-1.171zm-4.984.547c-.135 0-.277.02-.407.062a16 16 0 0 0-3.203.563 18.4 18.4 0 0 0-7.593 5.203 20 20 0 0 0-3.844 6.875 32 32 0 0 0-1.36 11.438l12.406-.64v-3.844c.08-1.235.347-2.443.797-3.594a6.06 6.06 0 0 1 2.719-2.953h.875V66.55a1.2 1.2 0 0 0-.39-.063m-20.97 4.297-17.124 2.328v11.75l17.125-1.828zM112 73.909l-11.844 1.765v50.391H112v-.078zm-32 4.156-10.234 1.437v46.562H80zm-13.766 2L54 81.909v9.36l12.234-1.36zm-14.797 1.844-8.875 1.36-.079 42.64h8.954zm-12.234 1.844L16 87.112v8.562l23.203-2.562zm85.844 9.03-11.281 1.157v11.094h11.28zM32 95.346l-8.72.875.079 29.844h8.64zm29.766 2.969-8.485.719v9.922l8.485-.485zm114.23 14.156-.641.797-39.359.875v11.844h40zm-44.562 1.437-17.125.485v11.672h17.125zm-34.562.954-.954.734H81.995v10.469H96.87zm-43.594 1.453v9.75h13.438v-9.75z"/></svg>