<svg xmlns="http://www.w3.org/2000/svg" width="192" height="192" viewBox="0 0 192 192"><path d="M25.806 87.464s70.769-29.04 95.313-39.264c9.4-4.088 41.312-17.184 41.312-17.184s14.72-5.72 13.496 8.184c-.408 5.728-3.68 25.768-6.96 47.448-4.904 30.68-10.224 64.225-10.224 64.225s-.816 9.408-7.768 11.04c-6.96 1.64-18.4-5.728-20.456-7.36-1.632-1.232-30.672-19.632-41.312-28.64-2.864-2.448-6.136-7.36.408-13.088a1560 1560 0 0 0 42.96-40.904c4.904-4.904 9.808-16.36-10.64-2.448-29.04 20.04-57.681 38.856-57.681 38.856s-6.544 4.088-18.816.408-26.584-8.592-26.584-8.592-9.816-6.136 6.96-12.68z"/></svg>