<svg width="192" height="192" fill="none" xmlns="http://www.w3.org/2000/svg"><circle cx="96" cy="96" r="74" stroke="#000" stroke-width="12" stroke-linecap="round" stroke-linejoin="round"/><path d="m76 25 13.491 47.893M116 167l-13.491-47.893M25 76l47.893 13.491M167 116l-47.893-13.491M89.491 72.893A24.019 24.019 0 0 1 96 72c13.255 0 24 10.745 24 24 0 2.256-.311 4.439-.893 6.509a24.049 24.049 0 0 1-16.598 16.598c-2.07.582-4.253.893-6.509.893-13.255 0-24-10.745-24-24 0-2.256.311-4.44.893-6.509a24.048 24.048 0 0 1 16.598-16.598Z" stroke="#000" stroke-width="12" stroke-linecap="round" stroke-linejoin="round"/><circle cx="96" cy="96" r="3" stroke="#000" stroke-width="6" stroke-linecap="round" stroke-linejoin="round"/></svg>