<svg xmlns="http://www.w3.org/2000/svg" width="192" height="192" viewBox="0 0 192 192"><path d="M40.659 53.368c-3.434.216-5.783 1.701-7.109 3.706-1.541-2.308-4.433-3.93-8.786-3.69-1.074 1.61-2.095 5.327.567 8.45.615.664 2.141 2.525 1.518 4.913l-8.834 14.305a2.556 2.556 0 0 0 .695 3.458c2.292 1.598 6.885 3.81 14.856 3.81 10.133 0 14.625-3.636 15.128-4.073a2.556 2.556 0 0 0 .4-3.195L40.218 66.61c-.556-2.504 1.148-4.382 1.542-4.776 2.835-3.326 1.464-6.865.583-8.451-.561-.053-1.124-.01-1.685-.016zm22.349.551a3.2 3.2 0 0 0-1.805.655c-1.502 1.198-4.976 5.959-5.216 6.278-3.834 5.44-3.61 6.765 1.31 9.856 2.764 1.742 4.992-.503 5.959-1.166-.464 2.876-1.87 7.38-3.978 10.551a40 40 0 0 1-2.508-1.997 1.677 1.677 0 0 0-2.308.056c-.293.308-.45.719-.44 1.143.015.422.196.82.503 1.11 5.112 4.672 11.837 7.324 19.002 7.348 7.19 0 13.946-2.66 19.066-7.348a1.573 1.573 0 0 0 .08-2.253 1.677 1.677 0 0 0-2.316-.064q-.59.535-1.222 1.039l-2.244-5.008a48 48 0 0 1-1.199-3.25 6.4 6.4 0 0 1 1.342-1.75q.72-.72 1.182-1.422c1.486-2.348.64-3.73.176-4.656-1.062-2.165-2.724-1.462-3.93-.184-1.485 1.565-2.93 2.252-5.255 2.771-1.95.44-3.45.224-4.697-.559-1.725-1.062-4.377-5.016-4.377-5.016-2.268-4.52-5.048-6.222-7.125-6.134m62.772.008c-6.421 6.102-.263 19.37-11.94 25-1.279.631-2.349-1.422-4.074-1.422-4.872.04-14.185 4.337-14.545 6.502-.304 1.79 3.674 3.211 15.392 3.235 10.192 0 13.483-15.511 17.053-15.535 3.57 0 1.909 14.066 1.518 15.535h3.738c-.32-1.47-.56-5.879-.543-12.125 0-6.238 1.126-7.62 2.028-12.34.783-4.09-5.271-7.644-8.626-8.85m26.142.503c-6.757 0-12.38 5.24-12.844 11.981l-.759 10.815c-.35 5.13 3.708 9.49 8.85 9.505h19.944c5.16 0 9.21-4.345 8.866-9.505l-.759-10.815c-.473-6.745-6.081-11.977-12.844-11.98zm.487 8.978c0 3.33 2.422 5.048 4.729 5.048 2.262 0 4.76-1.652 4.76-5.056 0-1.166 4.21-1.166 4.21 0 0 11.928-17.917 11.9-17.917 0 0-.583 1.047-.879 2.101-.875 1.046.004 2.1.292 2.117.883M73.567 79.311c3.147 0 5.56 1.55 6.438 4.417a24 24 0 0 1-6.478.823 20.8 20.8 0 0 1-6.565-.863c.846-2.532 3.634-4.377 6.605-4.377M20.675 99.383c-6.232-.376-6.232 9.178 0 8.802h8.467v25.751c-.261 6.129 9.07 6.129 8.81 0v-25.751h8.466a4.417 4.417 0 0 0 4.417-4.409 4.393 4.393 0 0 0-4.417-4.393zm39.992 0a4.393 4.393 0 0 0-4.417 4.393v30.16a4.41 4.41 0 0 0 4.417 4.409h23.858c5.884 0 5.884-8.826 0-8.826H65.06v-6.262h16.933c6.13.261 6.13-9.071 0-8.81H65.06v-6.262h19.465a4.393 4.393 0 0 0 4.393-4.41 4.393 4.393 0 0 0-4.393-4.392zm38.547 0a4.393 4.393 0 0 0-4.393 4.393v30.192c-.375 6.232 9.178 6.232 8.802 0v-19.825l7.428 10.479c1.549 2.168 4.77 2.168 6.318 0l7.429-10.479v19.833a4.41 4.41 0 0 0 4.409 4.409 4.393 4.393 0 0 0 4.393-4.409v-30.2a4.393 4.393 0 0 0-4.393-4.393h-2.724a3.2 3.2 0 0 0-2.652 1.358l-9.609 14.457-9.632-14.457a3.2 3.2 0 0 0-2.652-1.358zm44.89 0a4.393 4.393 0 0 0-4.394 4.393v18.371c0 10.759 6.574 16.238 17.332 16.238s17.572-5.415 17.556-16.494v-18.115c-.24-5.628-8.57-5.628-8.81 0v18.435c0 5.799-3.275 8.77-8.642 8.754-5.384 0-8.65-3.075-8.626-9.01v-18.179a4.393 4.393 0 0 0-4.417-4.393"/></svg>