<svg xmlns="http://www.w3.org/2000/svg" width="192" height="192" viewBox="0 0 192 192"><path d="M43.126 23.56c-2.99 0-5.686 1.8-6.834 4.56l-19.13 45.974a15.16 15.16 0 0 0-.742 9.361l17.644 73.463c1.528 6.365 8.074 11.523 14.62 11.521h94.633c6.546.002 13.092-5.157 14.62-11.52l17.643-73.464c.75-3.12.49-6.398-.742-9.361l-19.13-45.974a7.4 7.4 0 0 0-6.834-4.56zm97.819 11.02a7.41 7.41 0 0 1 6.82 4.583v.002l14.404 34.927c.896 2.175-.703 4.564-3.056 4.564h-35.822l-3.755 48.8c-.513 6.667-6.073 11.816-12.76 11.817h-21.55a12.8 12.8 0 0 1-12.76-11.817l-3.756-48.8H32.888c-2.352 0-3.951-2.389-3.055-4.564l14.403-34.927v-.002a7.41 7.41 0 0 1 6.82-4.583z"/></svg>