<svg xmlns="http://www.w3.org/2000/svg" xml:space="preserve" width="192" height="192" viewBox="0 0 192 192"><path d="M44.679 19C30.473 19 19 30.473 19 44.679L25.43 96 19 147.321l.04 1.348c.692 13.59 11.856 24.33 25.64 24.33h102.64a25.61 25.61 0 0 0 25.64-24.33l.039-1.348L166.569 96 173 44.679C172.999 30.473 161.526 19 147.32 19zm0 15.4h102.64c5.467 0 9.893 4.197 10.24 9.587l-6.275 50.088-.231 1.925.231 1.925 6.275 50.088a10.217 10.217 0 0 1-10.24 9.588H44.679a10.217 10.217 0 0 1-10.24-9.588l6.275-50.088.231-1.925-.231-1.925-6.275-50.088a10.217 10.217 0 0 1 10.24-9.587m25.057 30.43q-4.997 0-8.64 1.483c-3.643 1.483-4.53 2.4-6.309 4.236q-2.668 2.752-4.066 5.547l-1.355 2.795 8.555 3.516.974-1.737a18.6 18.6 0 0 1 2.286-3.134 9.8 9.8 0 0 1 3.133-2.288q1.822-.846 4.364-.846 4.234 0 6.52 2.202 2.288 2.202 2.289 6.013-.001 3.472-2.585 5.717-2.54 2.245-7.029 2.245h-6.057v8.852h6.48q5.295 0 7.92 2.33 2.668 2.285 2.667 6.605 0 4.447-2.71 6.862-2.71 2.37-7.708 2.37-3.345.001-5.463-1.1-2.074-1.101-3.387-2.838t-2.076-3.43l-.72-1.736-9.19 3.388 1.23 3.133q1.226 3.092 3.81 5.93 2.625 2.794 6.733 4.53 4.11 1.695 10.08 1.696 9.614 0 15.203-5.083 5.633-5.126 5.634-13.467 0-5.718-3.346-9.868-3.303-4.15-8.724-5.21 4.573-1.48 7.072-5.165c2.499-3.685 2.498-5.237 2.498-8.343q0-6.945-4.912-11.054-4.87-4.15-13.17-4.15zm50.496 0q-10.588 0-17.364 8.683Q96.134 82.195 96.134 96q0 13.722 6.734 22.446 6.735 8.724 17.364 8.725 10.672-.001 17.406-8.768 6.734-8.809 6.734-22.403 0-13.679-6.777-22.403-6.734-8.767-17.363-8.768zm0 10.631q5.674 0 9.104 5.335c3.43 5.335 3.431 8.641 3.431 15.248q0 9.825-3.387 15.161-3.39 5.336-9.107 5.335c-5.717 0-6.86-1.808-9.147-5.421q-3.388-5.463-3.388-15.118 0-9.783 3.431-15.161 3.472-5.379 9.063-5.379"/></svg>