<svg xmlns="http://www.w3.org/2000/svg" width="192" height="192" viewBox="0 0 192 192"><path d="M31.151 19C24.437 19 19 24.436 19 31.151v129.7c0 6.714 5.436 12.151 12.151 12.151h105.38l36.467-36.467V31.155c0-6.714-5.436-12.151-12.151-12.151zm64.695 51.267q3.888 0 7.053 1.448 3.234 1.362 5.467 3.726 2.287 2.31 3.52 5.398 1.216 3.018 1.216 6.237 0 4.682-1.94 8.64-1.864 3.873-4.667 7.969l-12.358 18.18-6.33-4.374 11.143-15.523-.285-.285q-1.94 1.155-4.813 1.148-2.81 0-5.536-1.148a17 17 0 0 1-4.813-3.31 18.5 18.5 0 0 1-3.465-5.036 16.2 16.2 0 0 1-1.285-6.468q0-3.442 1.37-6.468 1.432-3.088 3.727-5.313a18.5 18.5 0 0 1 5.467-3.527 16.9 16.9 0 0 1 6.53-1.294m.077 7.47a8.5 8.5 0 0 0-3.52.731q-1.647.64-2.948 1.863a9.2 9.2 0 0 0-2.01 2.872 9.2 9.2 0 0 0-.709 3.596q0 1.94.709 3.666.793 1.655 2.01 2.872 1.293 1.224 2.949 1.94 1.647.647 3.519.647 1.801 0 3.465-.647a10 10 0 0 0 3.003-1.94q1.293-1.217 2.017-2.872a8.7 8.7 0 0 0 0-7.262 7.7 7.7 0 0 0-2.017-2.872 8.5 8.5 0 0 0-2.95-1.863 8.5 8.5 0 0 0-3.518-.724z"/></svg>