<svg xmlns="http://www.w3.org/2000/svg" width="192" height="192" viewBox="0 0 192 192"><path d="M31.151 19C24.437 19 19 24.436 19 31.151v129.7c0 6.714 5.436 12.151 12.151 12.151h105.38l36.467-36.467V31.155c0-6.714-5.436-12.151-12.151-12.151zm79.51 51.267q4.605 0 8.331 2.017 3.743 1.94 6.337 5.46 2.657 3.457 4.082 8.192 1.447 4.674 1.447 10.064t-1.44 10.133a26.2 26.2 0 0 1-4.088 8.201 19.25 19.25 0 0 1-6.338 5.46 17.7 17.7 0 0 1-8.331 1.94 17.7 17.7 0 0 1-8.4-1.94 20 20 0 0 1-6.338-5.468 26.2 26.2 0 0 1-4.089-8.193A36.2 36.2 0 0 1 90.464 96q0-5.39 1.37-10.064 1.433-4.735 4.09-8.192a19.25 19.25 0 0 1 6.329-5.467 17.7 17.7 0 0 1 8.408-2.002zm-35.066 1.155h5.667v49.149h-7.977V81.062l-9.132 3.95-3.019-6.822 14.453-6.753zm35.066 6.391a9.47 9.47 0 0 0-5.097 1.448 12.3 12.3 0 0 0-3.82 3.803q-1.501 2.449-2.363 5.745A30.8 30.8 0 0 0 98.587 96q0 3.812.794 7.192.862 3.296 2.363 5.744 1.587 2.441 3.82 3.881 2.31 1.363 5.097 1.363 2.803 0 5.028-1.363 2.302-1.44 3.82-3.88 1.578-2.45 2.355-5.745.87-3.388.878-7.192a28.5 28.5 0 0 0-.878-7.191 18.5 18.5 0 0 0-2.356-5.745 11.2 11.2 0 0 0-3.819-3.803 9.24 9.24 0 0 0-5.028-1.44z"/></svg>