<svg xmlns="http://www.w3.org/2000/svg" xml:space="preserve" width="192" height="192" viewBox="0 0 192 192"><path d="M44.679 19C30.473 19 19 30.473 19 44.679L25.43 96 19 147.321l.04 1.348c.692 13.59 11.856 24.33 25.64 24.33h102.64a25.61 25.61 0 0 0 25.64-24.33l.039-1.348L166.569 96 173 44.679C172.999 30.473 161.526 19 147.32 19zm0 15.4h102.64c5.467 0 9.893 4.197 10.24 9.587l-6.275 50.088-.231 1.925.231 1.925 6.275 50.088a10.217 10.217 0 0 1-10.24 9.588H44.679a10.217 10.217 0 0 1-10.24-9.588l6.275-50.088.231-1.925-.231-1.925-6.275-50.088a10.217 10.217 0 0 1 10.24-9.587m81.072 30.176-15.584 19.312q-5.082 6.31-7.538 11.392-2.457 5.04-2.457 11.223 0 9.02 6.226 14.864 6.225 5.802 16.135 5.803 9.74 0 15.923-5.803 6.183-5.845 6.183-14.907.001-8.935-5.59-14.313-5.59-5.379-13.341-5.378-2.43 0-4.782.488l13.804-16.37zm-51.836.254q-5.04 0-8.894 1.568-3.854 1.525-6.607 4.36-2.71 2.796-4.193 5.676l-1.48 2.88 8.722 4.617 1.145-1.99q1.142-2.034 2.54-3.6 1.44-1.568 3.304-2.288 1.862-.763 4.403-.762 4.193 0 6.438 2.202 2.287 2.16 2.286 5.844 0 3.388-2.286 6.565-2.245 3.175-7.878 8.935l-18.506 19.058v8.427h42.096v-10.037H67.688l13.934-14.357q6.183-6.394 8.85-10.757 2.668-4.362 2.668-9.485 0-7.455-5.081-12.155-5.04-4.701-14.144-4.702zm48.533 30.535q5.123 0 8.469 3.134 3.39 3.133 3.39 8.004 0 4.828-3.39 7.961-3.388 3.092-8.554 3.093-5.124 0-8.47-3.093-3.304-3.133-3.303-7.96 0-4.872 3.387-8.005 3.389-3.135 8.471-3.134"/></svg>