<svg xmlns="http://www.w3.org/2000/svg" xml:space="preserve" width="192" height="192" viewBox="0 0 192 192"><path d="M44.679 19C30.473 19 19 30.473 19 44.679L25.43 96 19 147.321l.04 1.348c.692 13.59 11.856 24.33 25.64 24.33h102.64a25.61 25.61 0 0 0 25.64-24.33l.039-1.348L166.569 96 173 44.679C172.999 30.473 161.526 19 147.32 19zm0 15.4h102.64c5.467 0 9.893 4.197 10.24 9.587l-6.275 50.088-.231 1.925.231 1.925 6.275 50.088a10.217 10.217 0 0 1-10.24 9.588H44.679a10.217 10.217 0 0 1-10.24-9.588l6.275-50.088.231-1.925-.231-1.925-6.275-50.088a10.217 10.217 0 0 1 10.24-9.587m29.305 30.43q-5.04 0-8.894 1.568-3.853 1.524-6.606 4.361-2.71 2.796-4.192 5.676l-1.483 2.88 8.725 4.616 1.143-1.99a20.4 20.4 0 0 1 2.541-3.6q1.44-1.568 3.303-2.288 1.863-.761 4.405-.761 4.192 0 6.437 2.2 2.287 2.161 2.287 5.845 0 3.39-2.287 6.565-2.245 3.176-7.877 8.935l-18.507 19.058v8.428h42.096v-10.037H67.76l13.932-14.357q6.184-6.395 8.852-10.757c2.668-4.362 2.668-6.07 2.668-9.486q0-7.455-5.081-12.155-5.04-4.701-14.146-4.702zm52.755.848-28.206 40.995v7.666h29.052v11.984h10.165v-11.984h7.37v-9.403h-7.37V65.678zm.634 14.229h.212v25.029h-17.829z"/></svg>