<svg width="192" height="192" fill="none" xmlns="http://www.w3.org/2000/svg"><path d="M131 123V61l-19 14M67 91h6m0 0c3.173 0 6.283-.784 8.977-2.262 2.695-1.478 4.867-3.593 6.27-6.104 1.403-2.51 1.982-5.318 1.671-8.104-.31-2.787-1.5-5.44-3.431-7.661-1.932-2.222-4.53-3.921-7.499-4.908a19.143 19.143 0 0 0-9.305-.673c-3.112.546-5.988 1.85-8.304 3.764-2.316 1.914-3.978 4.361-4.8 7.066M73 91c3.36 0 6.652.836 9.505 2.413 2.853 1.577 5.153 3.832 6.639 6.51 1.486 2.679 2.099 5.673 1.77 8.645-.33 2.972-1.588 5.803-3.634 8.172-2.045 2.369-4.795 4.183-7.94 5.234a20.133 20.133 0 0 1-9.852.719c-3.295-.583-6.34-1.974-8.793-4.015-2.452-2.042-4.212-4.652-5.082-7.537" stroke="#000" stroke-width="12" stroke-linecap="round" stroke-linejoin="round"/><path d="M22 41c0-8.837 7.163-16 16-16h116c8.837 0 16 7.163 16 16v87.373a16 16 0 0 1-4.686 11.313l-22.628 22.628A16 16 0 0 1 131.373 167H38c-8.837 0-16-7.163-16-16V41Z" stroke="#000" stroke-width="12" stroke-linecap="round" stroke-linejoin="round"/></svg>