<svg xmlns="http://www.w3.org/2000/svg" xml:space="preserve" width="192" height="192" viewBox="0 0 192 192"><path d="M44.679 19C30.473 19 19 30.473 19 44.679L25.43 96 19 147.321l.04 1.348c.692 13.59 11.856 24.33 25.64 24.33h102.64a25.61 25.61 0 0 0 25.64-24.33l.039-1.348L166.569 96 173 44.679C172.999 30.473 161.526 19 147.32 19zm0 15.4h102.64c5.467 0 9.893 4.197 10.24 9.587l-6.275 50.088-.231 1.925.231 1.925 6.275 50.088a10.217 10.217 0 0 1-10.24 9.588H44.679a10.217 10.217 0 0 1-10.24-9.588l6.275-50.088.231-1.925-.231-1.925-6.275-50.088a10.217 10.217 0 0 1 10.24-9.587m27.54 30.43q-5.04 0-8.892 1.568-3.854 1.524-6.608 4.361-2.71 2.796-4.192 5.676l-1.483 2.88 8.725 4.616 1.144-1.99q1.143-2.033 2.54-3.6 1.44-1.568 3.303-2.288 1.863-.761 4.405-.761 4.193 0 6.438 2.2 2.287 2.161 2.286 5.845 0 3.39-2.286 6.565-2.245 3.176-7.878 8.935l-18.506 19.058v8.428h42.094v-10.037H65.994l13.934-14.357q6.182-6.395 8.85-10.757c2.668-4.362 2.668-6.07 2.668-9.486q0-7.455-5.082-12.155-5.04-4.701-14.146-4.702zm50.059 0q-10.588 0-17.364 8.683Q98.18 82.195 98.18 96q0 13.722 6.734 22.446 6.735 8.724 17.364 8.725 10.672-.001 17.406-8.768 6.735-8.809 6.734-22.403 0-13.679-6.777-22.403-6.734-8.767-17.363-8.768zm0 10.631q5.674 0 9.104 5.335c3.43 5.335 3.431 8.641 3.431 15.248q0 9.825-3.387 15.161-3.39 5.336-9.107 5.335c-5.717 0-6.86-1.808-9.147-5.421q-3.388-5.463-3.388-15.118 0-9.783 3.431-15.161 3.473-5.379 9.063-5.379"/></svg>