<svg xmlns="http://www.w3.org/2000/svg" width="192" height="192" viewBox="0 0 192 192"><path d="M31.151 19C24.437 19 19 24.436 19 31.151v129.7c0 6.714 5.436 12.151 12.151 12.151h105.38l36.467-36.467V31.155c0-6.714-5.436-12.151-12.151-12.151zm64.41 51.836q3.673 0 6.622 1.155 2.941 1.155 5.02 3.088 2.087 1.94 3.173 4.527a14.1 14.1 0 0 1 .423 10.002 20 20 0 0 1-1.794 4.158 23 23 0 0 1-2.51 3.673q-1.363 1.725-2.81 3.157l-1.07 1.086-1.726 1.717q-.939.924-2.094 2.017l-2.302 2.295-5.814 5.821.077.285h21.33v7.346H80.121v-7.546q4.174-4.112 7.692-7.7 1.502-1.517 3.019-3.088l2.949-2.949a131 131 0 0 0 4.312-4.528q1.37-1.578 2.364-2.795 1-1.232 1.655-2.379.647-1.155.932-2.302.362-1.155.362-2.587a6.2 6.2 0 0 0-.57-2.51 7.08 7.08 0 0 0-4.027-3.743 8.5 8.5 0 0 0-3.372-.647 8 8 0 0 0-5.69 2.226q-1.002.931-1.649 2.086a7.7 7.7 0 0 0-.931 2.156l-7.254-2.949a15.86 15.86 0 0 1 4.89-7.245q1.925-1.664 4.589-2.742 2.726-1.078 6.175-1.078z"/></svg>