<svg xmlns="http://www.w3.org/2000/svg" xml:space="preserve" width="192" height="192" viewBox="0 0 192 192"><path d="M44.679 19C30.473 19 19 30.473 19 44.679l6.43 51.32-6.43 51.32.04 1.348c.692 13.59 11.856 24.33 25.64 24.33h102.64a25.61 25.61 0 0 0 25.64-24.33l.039-1.348-6.43-51.32 6.43-51.32C172.999 30.473 161.526 19 147.32 19zm0 15.4h102.64c5.467 0 9.894 4.198 10.24 9.587l-6.275 50.088-.231 1.925.231 1.925 6.275 50.088a10.217 10.217 0 0 1-10.24 9.588H44.679a10.217 10.217 0 0 1-10.24-9.588l6.275-50.088.231-1.925-.231-1.925-6.275-50.088a10.217 10.217 0 0 1 10.24-9.587m53.904 30.429q-4.996 0-8.638 1.483-3.642 1.482-6.31 4.236-2.67 2.752-4.067 5.547l-1.355 2.796 8.555 3.515.974-1.737a18.6 18.6 0 0 1 2.288-3.134 9.8 9.8 0 0 1 3.134-2.288q1.82-.846 4.36-.846 4.236 0 6.522 2.202 2.288 2.202 2.288 6.013 0 3.472-2.583 5.717-2.541 2.245-7.03 2.245h-6.058v8.852h6.48q5.295 0 7.92 2.33 2.668 2.285 2.668 6.605 0 4.447-2.711 6.862-2.71 2.37-7.708 2.37-3.344 0-5.463-1.1-2.075-1.101-3.387-2.838-1.313-1.737-2.075-3.431l-.72-1.735-9.19 3.387 1.228 3.134q1.229 3.092 3.81 5.93 2.627 2.794 6.734 4.53 4.11 1.695 10.08 1.695 9.615 0 15.205-5.083 5.633-5.124 5.633-13.467 0-5.716-3.347-9.867-3.303-4.15-8.724-5.21 4.575-1.481 7.074-5.165t2.498-8.343q0-6.945-4.914-11.053-4.87-4.15-13.17-4.151z"/></svg>