<svg xmlns="http://www.w3.org/2000/svg" width="192" height="192" viewBox="0 0 192 192"><path d="M31.151 19C24.437 19 19 24.436 19 31.151v129.7c0 6.714 5.436 12.151 12.151 12.151h105.38l36.467-36.467V31.155c0-6.714-5.436-12.151-12.151-12.151zm44.29 51.267q3.665 0 6.622 1.155 2.941 1.155 5.02 3.088 2.087 1.94 3.173 4.527 1.147 2.587 1.14 5.537 0 2.294-.717 4.45a20 20 0 0 1-1.794 4.181 23 23 0 0 1-2.51 3.65q-1.363 1.74-2.81 3.172l-1.07 1.078-1.733 1.725q-.924.924-2.087 2.01l-2.302 2.31-5.822 5.813.077.285h21.344v7.323H59.995v-7.53q4.165-4.105 7.684-7.7 1.51-1.502 3.026-3.08l2.95-2.95q1.362-1.44 2.51-2.587 1.154-1.224 1.801-1.94 1.363-1.594 2.364-2.81a15.4 15.4 0 0 0 1.656-2.365q.646-1.155.924-2.302.37-1.155.37-2.587a6.2 6.2 0 0 0-.578-2.526 7.08 7.08 0 0 0-4.027-3.727 8.5 8.5 0 0 0-3.373-.646 8 8 0 0 0-5.683 2.225q-1 .932-1.655 2.087a7.7 7.7 0 0 0-.924 2.156l-7.253-2.95q.492-1.732 1.717-3.672a16.63 16.63 0 0 1 7.761-6.314q2.726-1.078 6.176-1.078zm27.027 1.155h26.811v7.253h-20.136l-1.786 12.797.43.154q1.572-1.232 3.658-2.094t5.113-.855q3.088 0 5.898 1.217 2.865 1.155 5.02 3.31 2.157 2.15 3.443 5.175 1.293 3.003 1.293 6.676 0 3.588-1.293 6.692a16.2 16.2 0 0 1-3.596 5.236 16.9 16.9 0 0 1-5.46 3.534 18.5 18.5 0 0 1-6.822 1.216q-2.58 0-5.236-.8a18.5 18.5 0 0 1-5.036-2.357 17.7 17.7 0 0 1-4.096-4.18 17.7 17.7 0 0 1-2.656-5.96l7.184-2.873q.924 3.812 3.372 6.237 2.526 2.387 6.407 2.387 1.932 0 3.65-.654a9.2 9.2 0 0 0 2.949-1.863 9.1 9.1 0 0 0 2.664-6.545q0-2.01-.724-3.666a8.5 8.5 0 0 0-1.863-2.949 8.5 8.5 0 0 0-2.95-1.863 9.63 9.63 0 0 0-8.046.362 10 10 0 0 0-3.234 2.664l-7.908-3.519z"/></svg>