<svg xmlns="http://www.w3.org/2000/svg" xml:space="preserve" width="192" height="192" viewBox="0 0 192 192"><path d="M44.679 19C30.473 19 19 30.473 19 44.679l6.43 51.32-6.43 51.32.04 1.348c.692 13.59 11.856 24.33 25.64 24.33h102.64a25.61 25.61 0 0 0 25.64-24.33l.039-1.348-6.43-51.32 6.43-51.32C172.999 30.473 161.526 19 147.32 19zm0 15.4h102.64c5.467 0 9.894 4.198 10.24 9.587l-6.275 50.088-.231 1.925.231 1.925 6.275 50.088a10.217 10.217 0 0 1-10.24 9.588H44.679a10.217 10.217 0 0 1-10.24-9.588l6.275-50.088.231-1.925-.231-1.925-6.275-50.088a10.217 10.217 0 0 1 10.24-9.587m58.9 31.277-28.204 40.995v7.666h29.052v11.984h10.165v-11.984h7.37v-9.403h-7.37V65.678zm.635 14.229h.213v25.029H86.599l17.617-25.029z"/></svg>