<svg xmlns="http://www.w3.org/2000/svg" xml:space="preserve" width="192" height="192" viewBox="0 0 192 192"><path d="M44.679 19C30.473 19 19 30.473 19 44.679l6.43 51.32-6.43 51.32.04 1.348c.692 13.59 11.856 24.33 25.64 24.33h102.64a25.61 25.61 0 0 0 25.64-24.33l.039-1.348-6.43-51.32 6.43-51.32C172.999 30.473 161.526 19 147.32 19zm0 15.4h102.64c5.467 0 9.894 4.198 10.24 9.587l-6.275 50.088-.231 1.925.231 1.925 6.275 50.088a10.217 10.217 0 0 1-10.24 9.588H44.679a10.217 10.217 0 0 1-10.24-9.588l6.275-50.088.231-1.925-.231-1.925-6.275-50.088a10.217 10.217 0 0 1 10.24-9.587m53.947 30.429q-5.04 0-8.894 1.568-3.854 1.524-6.607 4.361-2.71 2.796-4.193 5.676l-1.481 2.88 8.723 4.616 1.145-1.99q1.142-2.033 2.54-3.6 1.44-1.568 3.304-2.288 1.863-.761 4.405-.761 4.192 0 6.436 2.2 2.287 2.161 2.286 5.845 0 3.389-2.286 6.565-2.244 3.175-7.876 8.935L77.62 117.894v8.428h42.096v-10.037H92.399l13.934-14.357q6.182-6.396 8.85-10.757c2.668-4.361 2.668-6.07 2.668-9.486q0-7.455-5.082-12.155-5.04-4.701-14.144-4.702z"/></svg>