<svg xmlns="http://www.w3.org/2000/svg" width="192" height="192" viewBox="0 0 192 192"><path d="M31.151 19C24.437 19 19 24.436 19 31.151v129.7c0 6.714 5.436 12.151 12.151 12.151h105.38l36.467-36.467V31.155c0-6.714-5.436-12.151-12.151-12.151zm45.091 51.267q3.665 0 6.614 1.155 2.942 1.155 5.02 3.088 2.08 1.94 3.158 4.527a14 14 0 0 1 .439 9.987 23.9 23.9 0 0 1-4.312 7.839q-1.371 1.725-2.803 3.164l-1.078 1.078-1.733 1.725q-.924.924-2.079 2.01l-2.294 2.31-5.822 5.813.077.285h21.337v7.323H60.78v-7.53a585 585 0 0 0 10.703-10.78l2.95-2.95q1.37-1.44 2.525-2.587 1.155-1.224 1.794-1.94 1.363-1.586 2.372-2.81t1.655-2.365q.647-1.155.932-2.302.362-1.155.362-2.587a6.2 6.2 0 0 0-.57-2.526 6.2 6.2 0 0 0-1.517-2.156 6.9 6.9 0 0 0-2.51-1.57 8.5 8.5 0 0 0-3.388-.647 8 8 0 0 0-5.667 2.225q-1.009.932-1.656 2.087a7.7 7.7 0 0 0-.931 2.156l-7.27-2.95a15.7 15.7 0 0 1 4.89-7.245 17 17 0 0 1 4.605-2.741q2.726-1.078 6.183-1.078zm22.707 1.155h32.486v7.977l-23.508 42.335-6.891-3.673 21.629-38.8-.154-.3H98.795l.154-7.53z"/></svg>