<svg xmlns="http://www.w3.org/2000/svg" xml:space="preserve" width="192" height="192" viewBox="0 0 192 192"><path d="M44.679 19C30.473 19 19 30.473 19 44.679L25.43 96 19 147.321l.04 1.348c.692 13.59 11.856 24.33 25.64 24.33h102.64a25.61 25.61 0 0 0 25.64-24.33l.039-1.348L166.569 96 173 44.679C172.999 30.473 161.526 19 147.32 19zm0 15.4h102.64c5.467 0 9.893 4.197 10.24 9.587l-6.275 50.088-.231 1.925.231 1.925 6.275 50.088a10.217 10.217 0 0 1-10.24 9.588H44.679a10.217 10.217 0 0 1-10.24-9.588l6.275-50.088.231-1.925-.231-1.925-6.275-50.088a10.217 10.217 0 0 1 10.24-9.587m29.554 30.43q-5.04 0-8.894 1.568-3.854 1.524-6.607 4.361-2.71 2.796-4.193 5.676l-1.48 2.88 8.722 4.616 1.145-1.99q1.142-2.033 2.54-3.6 1.44-1.568 3.302-2.288 1.863-.761 4.405-.761 4.193 0 6.439 2.2 2.285 2.161 2.285 5.845.001 3.39-2.286 6.565-2.245 3.176-7.878 8.935l-18.506 19.058v8.428h42.096v-10.037H68.006l13.934-14.357q6.183-6.395 8.85-10.757c2.667-4.362 2.668-6.07 2.668-9.486q0-7.455-5.081-12.155-5.04-4.701-14.144-4.702zm48.067 0q-8.555 0-13.721 4.448-5.167 4.404-5.168 11.689 0 4.912 2.457 8.215 2.457 3.261 6.142 4.743-4.448 1.355-7.836 5.675-3.387 4.278-3.387 9.952 0 7.836 5.97 12.747 6.014 4.87 15.543 4.871c9.53.001 11.52-1.652 15.5-4.955q6.015-4.956 6.014-12.663 0-5.675-3.387-9.952-3.39-4.32-7.836-5.676 3.685-1.482 6.142-4.743 2.455-3.303 2.455-8.47 0-7.2-5.166-11.518-5.166-4.363-13.721-4.364zm0 8.937q4.15 0 6.65 2.286 2.54 2.245 2.539 5.844t-2.455 5.93q-2.415 2.329-6.734 2.329c-4.319 0-5.14-.776-6.777-2.33q-2.414-2.329-2.414-5.929t2.499-5.844q2.541-2.287 6.692-2.286m0 24.816q4.955 0 8.046 2.754 3.091 2.752 3.092 7.072c.001 4.32-1.031 5.209-3.092 6.988q-3.091 2.667-8.046 2.667c-4.955 0-5.985-.889-8.046-2.667q-3.091-2.669-3.092-6.988c-.001-4.319 1.031-5.237 3.092-7.072q3.091-2.753 8.046-2.754"/></svg>