<svg xmlns="http://www.w3.org/2000/svg" width="192" height="192" viewBox="0 0 192 192"><path d="M31.151 19C24.437 19 19 24.436 19 31.151v129.7c0 6.714 5.436 12.151 12.151 12.151h105.38l36.467-36.467V31.155c0-6.714-5.436-12.151-12.151-12.151zm79.302 51.836q3.658 0 6.599 1.155 2.949 1.155 5.043 3.088 2.08 1.94 3.157 4.527 1.148 2.588 1.14 5.537 0 2.302-.708 4.466a23.9 23.9 0 0 1-4.312 7.838q-1.363 1.717-2.81 3.157l-1.071 1.078-1.733 1.717q-.924.924-2.079 2.018l-8.116 8.115.062.285h21.352v7.346H95v-7.546q4.166-4.112 7.685-7.7 1.509-1.517 3.026-3.088l2.949-2.949q1.363-1.44 2.51-2.587 1.155-1.224 1.802-1.94 1.363-1.579 2.364-2.795 1-1.232 1.655-2.38.647-1.155.924-2.302.37-1.155.37-2.587a6.2 6.2 0 0 0-.578-2.51 6.93 6.93 0 0 0-4.011-3.743 8.5 8.5 0 0 0-3.388-.646 8 8 0 0 0-5.683 2.225q-1 .932-1.64 2.087a8.5 8.5 0 0 0-.947 2.156l-7.246-2.95a15.4 15.4 0 0 1 1.71-3.657 16.5 16.5 0 0 1 7.777-6.33q2.733-1.077 6.183-1.077zm-30.977 1.155h5.667v49.172h-7.97v-39.54l-9.132 3.95-3.018-6.822 14.453-6.753z"/></svg>