<svg xmlns="http://www.w3.org/2000/svg" xml:space="preserve" width="192" height="192" viewBox="0 0 192 192"><path d="M44.679 19C30.473 19 19 30.473 19 44.679L25.43 96 19 147.321l.04 1.348c.692 13.59 11.856 24.33 25.64 24.33h102.64a25.61 25.61 0 0 0 25.64-24.33l.039-1.348L166.569 96 173 44.679C172.999 30.473 161.526 19 147.32 19zm0 15.4h102.64c5.467 0 9.893 4.197 10.24 9.587l-6.275 50.088-.231 1.925.231 1.925 6.275 50.088a10.217 10.217 0 0 1-10.24 9.588H44.679a10.217 10.217 0 0 1-10.24-9.588l6.275-50.088.231-1.925-.231-1.925-6.275-50.088a10.217 10.217 0 0 1 10.24-9.587m35.629 31.15-20.37 14.697 5.21 8.003 11.306-8.215v46.288h11.351V65.55zm16.094.128v10.206h27.909L99.367 123.02l9.995 4.786 27.018-53.024.382-.805v-8.3z"/></svg>