<svg xmlns="http://www.w3.org/2000/svg" xml:space="preserve" width="192" height="192" viewBox="0 0 192 192"><path d="M44.679 19C30.473 19 19 30.473 19 44.679L25.43 96 19 147.321l.04 1.348c.692 13.59 11.856 24.33 25.64 24.33h102.64a25.61 25.61 0 0 0 25.64-24.33l.039-1.348L166.569 96 173 44.679C172.999 30.473 161.526 19 147.32 19zm0 15.4h102.64c5.467 0 9.893 4.197 10.24 9.587l-6.275 50.088-.231 1.925.231 1.925 6.275 50.088a10.217 10.217 0 0 1-10.24 9.588H44.679a10.217 10.217 0 0 1-10.24-9.588l6.275-50.088.231-1.925-.231-1.925-6.275-50.088a10.217 10.217 0 0 1 10.24-9.587m29.787 30.43q-5.04 0-8.894 1.568-3.854 1.524-6.607 4.361-2.71 2.796-4.193 5.676l-1.48 2.88 8.722 4.616 1.145-1.99q1.142-2.033 2.54-3.6 1.44-1.568 3.302-2.288 1.863-.761 4.405-.761 4.193 0 6.439 2.2 2.285 2.161 2.285 5.845.001 3.39-2.285 6.565-2.246 3.176-7.88 8.935L53.46 117.895v8.428h42.094v-10.037H68.239l13.934-14.357q6.183-6.395 8.85-10.757c2.667-4.362 2.668-6.07 2.668-9.486q0-7.455-5.081-12.155-5.04-4.701-14.144-4.702zm47.601 0q-4.997 0-8.64 1.483-3.641 1.482-6.309 4.236-2.667 2.752-4.066 5.547l-1.355 2.795 8.555 3.516.974-1.737a18.6 18.6 0 0 1 2.286-3.134 9.8 9.8 0 0 1 3.133-2.288q1.822-.846 4.364-.846 4.234 0 6.52 2.202 2.288 2.202 2.289 6.013-.001 3.472-2.585 5.717-2.54 2.245-7.029 2.245h-6.057v8.852h6.48q5.295 0 7.92 2.33 2.668 2.285 2.667 6.605 0 4.447-2.71 6.862-2.71 2.37-7.708 2.37-3.345.001-5.463-1.1-2.074-1.101-3.387-2.838t-2.076-3.43l-.72-1.736-9.19 3.388 1.229 3.133q1.228 3.092 3.81 5.93 2.627 2.794 6.734 4.53 4.11 1.695 10.08 1.696 9.614 0 15.203-5.083 5.633-5.126 5.634-13.467 0-5.718-3.346-9.868-3.303-4.15-8.725-5.21 4.575-1.48 7.073-5.165t2.498-8.343q0-6.945-4.912-11.054-4.87-4.15-13.17-4.15z"/></svg>