<svg xmlns="http://www.w3.org/2000/svg" width="192" height="192" viewBox="0 0 192 192"><path d="M31.151 19C24.437 19 19 24.436 19 31.151v129.7c0 6.714 5.436 12.151 12.151 12.151h105.38l36.467-36.467V31.155c0-6.714-5.436-12.151-12.151-12.151zm41.133 51.267q3.45 0 6.33 1.009 2.872 1.016 4.95 2.81a12.32 12.32 0 0 1 4.39 9.548q0 2.08-.57 3.812a10.8 10.8 0 0 1-1.448 3.095q-.932 1.294-2.087 2.233-1.147.924-2.363 1.57v.44q1.655.716 3.157 1.863 1.516 1.078 2.587 2.587a12.47 12.47 0 0 1 2.433 7.546q0 3.227-1.286 6.037a14.6 14.6 0 0 1-3.58 4.751 16.2 16.2 0 0 1-5.321 3.003q-3.096 1.155-6.753 1.155a19.3 19.3 0 0 1-5.174-.716 17.7 17.7 0 0 1-4.89-2.225 18.5 18.5 0 0 1-4.035-3.958 16.9 16.9 0 0 1-2.718-5.683l7.461-3.08q1.001 3.889 3.458 5.968 2.44 2.079 5.898 2.079 1.717 0 3.31-.578a9.2 9.2 0 0 0 2.865-1.578q1.225-1.078 1.94-2.449a6.9 6.9 0 0 0 .71-3.157 6.5 6.5 0 0 0-.786-3.157 6.9 6.9 0 0 0-2.01-2.456 10 10 0 0 0-3.08-1.579 11.6 11.6 0 0 0-3.75-.57h-4.235v-7.4h3.796q1.733 0 3.18-.438a9.2 9.2 0 0 0 2.657-1.363 6.16 6.16 0 0 0 1.794-2.156 6.9 6.9 0 0 0 .647-3.08 5.47 5.47 0 0 0-2.156-4.604q-2.08-1.725-5.321-1.725-1.794-.008-3.157.493a6.9 6.9 0 0 0-2.233 1.37 9.2 9.2 0 0 0-1.57 1.94q-.586 1.01-.948 2.087l-7.33-3.095q.577-1.733 1.794-3.52 1.224-1.863 3.095-3.372a16.4 16.4 0 0 1 10.35-3.465zm43.628 0q4.597 0 8.331 2.017 3.743 1.94 6.33 5.46 2.656 3.457 4.088 8.192 1.44 4.674 1.433 10.064 0 5.39-1.433 10.133-1.432 4.674-4.08 8.201a19.25 19.25 0 0 1-6.338 5.46 17.7 17.7 0 0 1-8.331 1.94q-4.674 0-8.408-1.94a20 20 0 0 1-6.33-5.468 26.2 26.2 0 0 1-4.089-8.193A36.2 36.2 0 0 1 95.715 96q0-5.39 1.37-10.064 1.433-4.735 4.081-8.192 2.672-3.52 6.338-5.467a17.7 17.7 0 0 1 8.408-2.002zm0 7.546a9.47 9.47 0 0 0-5.113 1.448 12 12 0 0 0-3.804 3.803q-1.509 2.441-2.379 5.745a30.8 30.8 0 0 0-.778 7.191q0 3.812.778 7.192.863 3.296 2.38 5.744 1.578 2.441 3.803 3.881 2.303 1.363 5.113 1.363 2.803 0 5.02-1.363 2.31-1.44 3.804-3.88 1.586-2.45 2.38-5.745.87-3.388.87-7.192a28.5 28.5 0 0 0-.87-7.191 18.5 18.5 0 0 0-2.38-5.745 11.1 11.1 0 0 0-3.804-3.803 9.24 9.24 0 0 0-5.02-1.44z"/></svg>