<svg xmlns="http://www.w3.org/2000/svg" xml:space="preserve" width="192" height="192" viewBox="0 0 192 192"><path d="M44.679 19C30.473 19 19 30.473 19 44.679L25.43 96 19 147.321l.04 1.348c.692 13.59 11.856 24.33 25.64 24.33h102.64a25.61 25.61 0 0 0 25.64-24.33l.039-1.348L166.569 96 173 44.679C172.999 30.473 161.526 19 147.32 19zm0 15.4h102.64c5.467 0 9.893 4.197 10.24 9.587l-6.275 50.088-.231 1.925.231 1.925 6.275 50.088a10.217 10.217 0 0 1-10.24 9.588H44.679a10.217 10.217 0 0 1-10.24-9.588l6.275-50.088.231-1.925-.231-1.925-6.275-50.088a10.217 10.217 0 0 1 10.24-9.587m33.295 30.43q-5.04 0-8.894 1.568-3.854 1.524-6.607 4.361-2.71 2.796-4.193 5.676l-1.48 2.88 8.722 4.616 1.145-1.99q1.142-2.033 2.54-3.6 1.44-1.568 3.302-2.288 1.864-.761 4.405-.761 4.193 0 6.439 2.2 2.285 2.161 2.285 5.845.002 3.39-2.286 6.565-2.245 3.176-7.878 8.935l-18.506 19.058v8.428h42.096v-10.037H71.747l13.934-14.357q6.183-6.395 8.85-10.757c2.667-4.362 2.668-6.07 2.668-9.486q0-7.455-5.081-12.155-5.04-4.701-14.144-4.702zm23.687.848v10.206h27.909l-24.944 47.136 9.995 4.786 27.02-53.024.38-.805v-8.3z"/></svg>