<svg xmlns="http://www.w3.org/2000/svg" xml:space="preserve" width="192" height="192" viewBox="0 0 192 192"><path d="M44.679 19C30.473 19 19 30.473 19 44.679l6.43 51.32-6.43 51.32.04 1.348c.692 13.59 11.856 24.33 25.64 24.33h102.64a25.61 25.61 0 0 0 25.64-24.33l.039-1.348-6.43-51.32 6.43-51.32C172.999 30.473 161.526 19 147.32 19zm0 15.4h102.64c5.467 0 9.894 4.198 10.24 9.587l-6.275 50.088-.231 1.925.231 1.925 6.275 50.088a10.217 10.217 0 0 1-10.24 9.588H44.679a10.217 10.217 0 0 1-10.24-9.588l6.275-50.088.231-1.925-.231-1.925-6.275-50.088a10.217 10.217 0 0 1 10.24-9.587m57.588 30.176L86.683 83.888q-5.082 6.31-7.538 11.392-2.457 5.04-2.457 11.223 0 9.02 6.226 14.864 6.225 5.802 16.135 5.803 9.74 0 15.925-5.803 6.183-5.845 6.183-14.907 0-8.935-5.591-14.313-5.59-5.379-13.339-5.378-2.43 0-4.784.488l13.804-16.37-8.979-6.31zm-3.303 30.788q5.125 0 8.47 3.134 3.389 3.134 3.388 8.004 0 4.828-3.387 7.962-3.388 3.091-8.556 3.092-5.124 0-8.47-3.092-3.304-3.134-3.303-7.962 0-4.87 3.387-8.004 3.389-3.134 8.471-3.134"/></svg>