<svg xmlns="http://www.w3.org/2000/svg" width="192" height="192" viewBox="0 0 192 192"><path d="M31.151 19C24.437 19 19 24.436 19 31.151v129.7c0 6.714 5.436 12.151 12.151 12.151h105.38l36.467-36.467V31.155c0-6.714-5.436-12.151-12.151-12.151zm44.652 51.267q3.665 0 6.622 1.155 2.926 1.155 5.02 3.088 2.08 1.94 3.173 4.527 1.147 2.587 1.14 5.537 0 2.294-.724 4.45a20 20 0 0 1-1.787 4.181 23 23 0 0 1-2.51 3.65q-1.363 1.74-2.81 3.172l-1.07 1.078-1.733 1.725q-.932.924-2.087 2.01l-2.302 2.31-5.822 5.813.077.285h21.337v7.323h-31.97v-7.53q4.166-4.105 7.685-7.7 1.51-1.502 3.026-3.08l2.95-2.95q1.362-1.44 2.51-2.587 1.147-1.224 1.786-1.94 1.37-1.586 2.38-2.81a15.4 15.4 0 0 0 1.655-2.365q.646-1.155.924-2.302.37-1.155.37-2.587a6.2 6.2 0 0 0-.578-2.526 6.2 6.2 0 0 0-1.517-2.156 6.9 6.9 0 0 0-2.51-1.57 8.5 8.5 0 0 0-3.373-.647 8 8 0 0 0-5.683 2.225q-1 .932-1.655 2.087a7.7 7.7 0 0 0-.924 2.156l-7.269-2.95a15.7 15.7 0 0 1 4.89-7.245q1.94-1.663 4.597-2.741a16.9 16.9 0 0 1 6.183-1.078zm38.662 0q3.465 0 6.337 1.009t4.944 2.81a12.32 12.32 0 0 1 4.389 9.548q0 2.08-.57 3.812a10.8 10.8 0 0 1-1.44 3.095 11.6 11.6 0 0 1-2.095 2.233q-1.147.924-2.356 1.57v.44q1.656.708 3.157 1.863 1.51 1.078 2.587 2.587a12.47 12.47 0 0 1 2.449 7.546q0 3.227-1.294 6.037a14.6 14.6 0 0 1-3.595 4.751 16.2 16.2 0 0 1-5.321 3.003q-3.096 1.155-6.753 1.155a19.3 19.3 0 0 1-5.174-.716 17.7 17.7 0 0 1-4.89-2.225 18.5 18.5 0 0 1-4.027-3.958 16.9 16.9 0 0 1-2.726-5.683l7.477-3.08q1 3.889 3.442 5.968 2.448 2.079 5.898 2.079 1.732 0 3.31-.578a9.2 9.2 0 0 0 2.873-1.578q1.224-1.078 1.94-2.449a6.93 6.93 0 0 0-.077-6.314 6.9 6.9 0 0 0-2.017-2.456 10 10 0 0 0-3.08-1.579 11.6 11.6 0 0 0-3.742-.57h-4.25v-7.4h3.819q1.732 0 3.157-.438a9.2 9.2 0 0 0 2.664-1.363 6.16 6.16 0 0 0 1.786-2.156 6.9 6.9 0 0 0 .647-3.08 5.47 5.47 0 0 0-2.156-4.604q-2.079-1.725-5.313-1.725-1.802-.008-3.157.493a6.9 6.9 0 0 0-2.233 1.37q-.924.863-1.579 1.94-.585 1.01-.947 2.087l-7.322-3.095q.585-1.733 1.801-3.52 1.225-1.863 3.08-3.372a16.4 16.4 0 0 1 10.35-3.465z"/></svg>