<svg xmlns="http://www.w3.org/2000/svg" width="192" height="192" viewBox="0 0 192 192"><path d="M31.151 19C24.437 19 19 24.436 19 31.151v129.7c0 6.714 5.436 12.151 12.151 12.151h105.38l36.467-36.467V31.155c0-6.714-5.436-12.151-12.151-12.151zm52.206 51.836h26.796v7.269h-20.12l-1.794 12.797.439.13a15.4 15.4 0 0 1 3.65-2.078q2.086-.855 5.12-.863 3.08 0 5.875 1.232c1.925.77 3.604 1.848 5.036 3.296q2.156 2.156 3.45 5.167 1.293 3.026 1.293 6.699 0 3.588-1.293 6.676a16.2 16.2 0 0 1-3.596 5.243q-2.303 2.233-5.46 3.52a18.5 18.5 0 0 1-6.83 1.231 18.5 18.5 0 0 1-10.272-3.172 17.7 17.7 0 0 1-4.104-4.158 17.7 17.7 0 0 1-2.648-5.975l7.191-2.873q.924 3.812 3.365 6.26 2.51 2.372 6.391 2.372 1.948 0 3.673-.647 1.733-.716 2.95-1.863a9.1 9.1 0 0 0 2.664-6.545q0-2.01-.724-3.665a8.5 8.5 0 0 0-1.864-2.95 8.5 8.5 0 0 0-2.949-1.863 10 10 0 0 0-3.75-.724q-2.364 0-4.296 1.078a10 10 0 0 0-3.234 2.65l-7.908-3.52z"/></svg>