<svg xmlns="http://www.w3.org/2000/svg" xml:space="preserve" width="192" height="192" viewBox="0 0 192 192"><path d="M44.679 19C30.473 19 19 30.473 19 44.679L25.43 96 19 147.321l.04 1.348c.692 13.59 11.856 24.33 25.64 24.33h102.64a25.61 25.61 0 0 0 25.64-24.33l.039-1.348L166.569 96 173 44.679C172.999 30.473 161.526 19 147.32 19zm0 15.4h102.64c5.467 0 9.893 4.197 10.24 9.587l-6.275 50.088-.231 1.925.231 1.925 6.275 50.088a10.217 10.217 0 0 1-10.24 9.588H44.679a10.217 10.217 0 0 1-10.24-9.588l6.275-50.088.231-1.925-.231-1.925-6.275-50.088a10.217 10.217 0 0 1 10.24-9.587M74.33 64.83q-5.04 0-8.894 1.568-3.853 1.524-6.606 4.361-2.71 2.796-4.192 5.676l-1.483 2.88 8.725 4.616 1.143-1.99a20.4 20.4 0 0 1 2.541-3.6q1.44-1.568 3.303-2.288 1.863-.761 4.405-.761 4.192 0 6.436 2.2 2.288 2.161 2.288 5.845 0 3.389-2.287 6.565-2.245 3.176-7.877 8.935l-18.507 19.058v8.428H95.42v-10.037H68.106l13.932-14.357q6.183-6.395 8.852-10.757c2.67-4.362 2.668-6.07 2.668-9.486q0-7.455-5.083-12.155-5.04-4.701-14.144-4.702zm32.328.848-4.025 30.915 9.063 3.897q3.345-3.177 5.294-3.982 1.948-.804 4.617-.804 4.828 0 8.005 3.133 3.175 3.092 3.175 7.794 0 4.658-3.219 7.75-3.175 3.091-8.046 3.092-3.133-.001-5.463-1.06a12 12 0 0 1-3.981-3.006 14.6 14.6 0 0 1-2.457-4.236l-.805-2.286-9.104 3.77 1.44 3.556q1.44 3.516 4.277 6.565 2.88 3.049 6.987 4.743 4.15 1.651 9.53 1.652 9.358 0 15.583-5.76 6.226-5.802 6.226-15.035 0-8.64-5.675-14.06-5.632-5.463-13.847-5.463-4.108 0-7.2 1.271-3.092 1.228-5.04 3.09l2.117-15.455h25.664v-10.08z"/></svg>