<svg xmlns="http://www.w3.org/2000/svg" width="192" height="192" viewBox="0 0 192 192"><path d="M31.151 19C24.437 19 19 24.436 19 31.151v129.7c0 6.714 5.436 12.151 12.151 12.151h105.38l36.467-36.467V31.155c0-6.714-5.436-12.151-12.151-12.151zm85.77 51.19 6.314 4.32-11.142 15.592.3.215q.924-.5 2.08-.785a12.94 12.94 0 0 1 8.192.932 15.7 15.7 0 0 1 8.254 8.27q1.363 2.949 1.371 6.39 0 3.465-1.432 6.545a17.25 17.25 0 0 1-9.125 8.848 16.9 16.9 0 0 1-6.468 1.293q-3.95 0-7.191-1.37a18.5 18.5 0 0 1-5.46-3.742 17.1 17.1 0 0 1-4.674-11.712q0-4.674 1.864-8.547a65.5 65.5 0 0 1 4.75-8.062zm-41.542.154q3.665 0 6.607 1.14 2.949 1.155 5.035 3.103 2.08 1.94 3.157 4.527 1.155 2.587 1.148 5.529 0 2.31-.709 4.458a23.9 23.9 0 0 1-4.312 7.839q-1.37 1.71-2.803 3.157l-1.078 1.078-1.732 1.725q-.924.939-2.079 2.017l-2.302 2.287-5.814 5.836.054.285h21.36v7.323H59.917v-7.546a578 578 0 0 0 10.711-10.772l2.95-2.949q1.362-1.432 2.51-2.58 1.154-1.224 1.801-1.94 1.37-1.586 2.364-2.818 1.001-1.224 1.656-2.372.654-1.155.947-2.287.354-1.155.346-2.587a6.2 6.2 0 0 0-.57-2.525 6.2 6.2 0 0 0-1.509-2.156 6.9 6.9 0 0 0-2.51-1.579 8.5 8.5 0 0 0-3.388-.647 8 8 0 0 0-5.683 2.233 8.5 8.5 0 0 0-1.632 2.072 8.5 8.5 0 0 0-.947 2.163l-7.254-2.949q.501-1.725 1.718-3.665 1.232-1.94 3.172-3.596 1.94-1.648 4.605-2.718 2.733-1.086 6.175-1.086m39.732 25.81q-1.856 0-3.519.701a9.1 9.1 0 0 0-4.959 4.759 9.2 9.2 0 0 0-.724 3.588q0 2.017.724 3.657.793 1.663 2.018 2.888 1.293 1.224 2.941 1.94 1.663.647 3.519.647a8.93 8.93 0 0 0 6.468-2.587q1.294-1.232 2.017-2.888.793-1.648.801-3.657-.008-1.94-.8-3.588a8.93 8.93 0 0 0-5.036-4.751 8.5 8.5 0 0 0-3.45-.709"/></svg>