<svg xmlns="http://www.w3.org/2000/svg" width="192" height="192" viewBox="0 0 192 192"><path d="M31.151 19C24.437 19 19 24.436 19 31.151v129.7c0 6.714 5.436 12.151 12.151 12.151h105.38l36.467-36.467V31.155c0-6.714-5.436-12.151-12.151-12.151zm79.302 51.19q3.88 0 7.038 1.448 3.234 1.362 5.46 3.742 2.301 2.302 3.518 5.39 1.217 3.01 1.217 6.252 0 4.666-1.94 8.624a61.6 61.6 0 0 1-4.66 7.977l-12.365 18.187-6.33-4.389 11.142-15.523-.285-.285q-1.94 1.148-4.812 1.14-2.795 0-5.536-1.14a17 17 0 0 1-4.813-3.31 18.5 18.5 0 0 1-3.457-5.036 16.2 16.2 0 0 1-1.294-6.468q0-3.45 1.37-6.468 1.433-3.088 3.728-5.313 2.387-2.233 5.474-3.535 3.096-1.293 6.545-1.293m-31.7 1.155h5.682v49.172H76.45v-39.54l-9.132 3.958-3.003-6.83zm31.761 6.321q-1.87 0-3.519.724a9.2 9.2 0 0 0-2.949 1.864 9.2 9.2 0 0 0-2.017 2.887 9.2 9.2 0 0 0-.709 3.596q0 1.933.709 3.65.793 1.663 2.017 2.88 1.294 1.224 2.95 1.932 1.647.647 3.518.647 1.794 0 3.458-.647 1.724-.716 3.003-1.932 1.309-1.225 2.017-2.88a8.62 8.62 0 0 0 0-7.238 7.7 7.7 0 0 0-2.01-2.895 8.5 8.5 0 0 0-2.949-1.864 8.5 8.5 0 0 0-3.519-.724"/></svg>