<svg xmlns="http://www.w3.org/2000/svg" width="192" height="192" viewBox="0 0 192 192"><path d="M31.151 19C24.437 19 19 24.436 19 31.151v129.7c0 6.714 5.436 12.151 12.151 12.151h105.38l36.467-36.467V31.155c0-6.714-5.436-12.151-12.151-12.151zm41.056 51.267q3.665 0 6.622 1.155 2.941 1.155 5.02 3.088 2.087 1.94 3.173 4.527 1.147 2.587 1.14 5.537 0 2.294-.717 4.45a20 20 0 0 1-1.794 4.181 23 23 0 0 1-2.51 3.65q-1.363 1.74-2.81 3.172l-1.07 1.078-1.726 1.725q-.939.924-2.094 2.01l-2.302 2.31-5.822 5.813.077.285h21.344v7.323H56.76v-7.53q4.166-4.105 7.685-7.7 1.51-1.502 3.026-3.08l2.95-2.95q1.362-1.44 2.51-2.587 1.154-1.224 1.801-1.94 1.37-1.594 2.364-2.81a15.4 15.4 0 0 0 1.656-2.365q.646-1.155.924-2.302.37-1.155.37-2.587a6.2 6.2 0 0 0-.57-2.526 7.08 7.08 0 0 0-4.028-3.727 8.5 8.5 0 0 0-3.372-.646 8 8 0 0 0-5.69 2.225q-1.002.932-1.656 2.087a7.7 7.7 0 0 0-.924 2.156l-7.253-2.95a15.7 15.7 0 0 1 4.874-7.245q1.94-1.663 4.597-2.741a16.9 16.9 0 0 1 6.183-1.078zm43.058 0q4.59 0 8.331 2.017 3.743 1.94 6.33 5.46 2.656 3.457 4.096 8.192 1.425 4.674 1.425 10.064t-1.433 10.133q-1.432 4.674-4.08 8.201a19.25 19.25 0 0 1-6.338 5.46 17.7 17.7 0 0 1-8.331 1.94q-4.666 0-8.408-1.94a20 20 0 0 1-6.33-5.468 26.2 26.2 0 0 1-4.089-8.193A36.2 36.2 0 0 1 95.068 96q0-5.39 1.37-10.064 1.433-4.735 4.081-8.192 2.672-3.52 6.338-5.467a17.7 17.7 0 0 1 8.408-2.002zm0 7.546a9.47 9.47 0 0 0-5.113 1.448 12 12 0 0 0-3.804 3.803q-1.509 2.441-2.379 5.745a30.8 30.8 0 0 0-.778 7.191q0 3.812.778 7.192.87 3.296 2.38 5.744 1.578 2.441 3.803 3.881 2.302 1.363 5.113 1.363 2.803 0 5.02-1.363 2.31-1.44 3.804-3.88 1.586-2.45 2.38-5.745.862-3.388.854-7.192 0-3.88-.855-7.191a18.5 18.5 0 0 0-2.379-5.745 11.1 11.1 0 0 0-3.804-3.803 9.24 9.24 0 0 0-5.02-1.44z"/></svg>