<svg xmlns="http://www.w3.org/2000/svg" width="192" height="192" viewBox="0 0 192 192"><path d="M31.151 19C24.437 19 19 24.436 19 31.151v129.7c0 6.714 5.436 12.151 12.151 12.151h105.38l36.467-36.467V31.155c0-6.714-5.436-12.151-12.151-12.151zm47.316 51.836h5.683V120h-7.985V80.476l-9.133 3.958-3.018-6.83zm19.758 0h26.811v7.269h-20.12l-1.802 12.797.431.13q1.579-1.208 3.658-2.078 2.087-.855 5.113-.863 3.095 0 5.898 1.232c1.917.77 3.58 1.848 5.02 3.296q2.156 2.156 3.442 5.167 1.301 3.026 1.31 6.699-.009 3.588-1.31 6.676a16.2 16.2 0 0 1-3.573 5.243q-2.31 2.233-5.474 3.52-3.096 1.231-6.83 1.231a18.5 18.5 0 0 1-10.272-3.172 17.48 17.48 0 0 1-6.753-10.133l7.192-2.872q.924 3.811 3.365 6.26 2.518 2.371 6.406 2.371 1.933 0 3.658-.646 1.724-.717 2.94-1.864a9.1 9.1 0 0 0 2.665-6.545q0-2.01-.724-3.665a8.5 8.5 0 0 0-1.863-2.95 8.5 8.5 0 0 0-2.95-1.863 9.63 9.63 0 0 0-8.038.362 10 10 0 0 0-3.234 2.641l-7.916-3.518z"/></svg>