<svg xmlns="http://www.w3.org/2000/svg" xml:space="preserve" width="192" height="192" viewBox="0 0 192 192"><path d="M44.679 19C30.473 19 19 30.473 19 44.679L25.43 96 19 147.321l.04 1.348c.692 13.59 11.856 24.33 25.64 24.33h102.64a25.61 25.61 0 0 0 25.64-24.33l.039-1.348L166.569 96 173 44.679C172.999 30.473 161.526 19 147.32 19zm0 15.4h102.64c5.467 0 9.893 4.197 10.24 9.587l-6.275 50.088-.231 1.925.231 1.925 6.275 50.088a10.217 10.217 0 0 1-10.24 9.588H44.679a10.217 10.217 0 0 1-10.24-9.588l6.275-50.088.231-1.925-.231-1.925-6.275-50.088a10.217 10.217 0 0 1 10.24-9.587m29.659 30.43q-5.04 0-8.894 1.568-3.853 1.524-6.606 4.361-2.711 2.796-4.194 5.676l-1.48 2.88 8.724 4.616 1.143-1.99a20.4 20.4 0 0 1 2.541-3.6q1.44-1.568 3.303-2.288 1.863-.761 4.405-.761 4.192 0 6.436 2.2 2.287 2.161 2.286 5.845.001 3.39-2.286 6.565-2.244 3.176-7.876 8.935l-18.507 19.058v8.428h42.096v-10.037H68.112l13.934-14.357q6.183-6.395 8.85-10.757c2.667-4.362 2.67-6.07 2.67-9.486q-.001-7.455-5.084-12.155-5.04-4.701-14.144-4.702zm47.305 0q-9.783 0-15.966 5.845-6.142 5.802-6.142 14.866 0 8.936 5.591 14.313 5.59 5.378 13.34 5.378a23.7 23.7 0 0 0 4.728-.472l-13.79 16.353 9.02 6.31 15.542-19.311q5.124-6.31 7.538-11.351 2.457-5.081 2.457-11.264 0-9.021-6.226-14.823-6.182-5.844-16.092-5.845zm.17 9.614q5.123 0 8.427 3.133 3.303 3.092 3.303 7.92 0 4.871-3.388 8.005-3.346 3.134-8.47 3.134-5.082 0-8.47-3.134-3.346-3.135-3.346-8.005 0-4.828 3.346-7.92 3.389-3.133 8.597-3.133z"/></svg>