<svg xmlns="http://www.w3.org/2000/svg" xml:space="preserve" width="192" height="192" viewBox="0 0 192 192"><path d="M44.679 19C30.473 19 19 30.473 19 44.679L25.43 96 19 147.321l.04 1.348c.692 13.59 11.856 24.33 25.64 24.33h102.64a25.61 25.61 0 0 0 25.64-24.33l.039-1.348L166.569 96 173 44.679C172.999 30.473 161.526 19 147.32 19zm0 15.4h102.64c5.467 0 9.893 4.197 10.24 9.587l-6.275 50.088-.231 1.925.231 1.925 6.275 50.088a10.217 10.217 0 0 1-10.24 9.588H44.679a10.217 10.217 0 0 1-10.24-9.588l6.275-50.088.231-1.925-.231-1.925-6.275-50.088a10.217 10.217 0 0 1 10.24-9.587m36.498 30.43q-4.997 0-8.638 1.483-3.642 1.482-6.31 4.236-2.67 2.752-4.067 5.547l-1.356 2.795 8.556 3.516.974-1.737a18.6 18.6 0 0 1 2.287-3.134 9.8 9.8 0 0 1 3.134-2.288q1.82-.846 4.361-.846 4.235 0 6.522 2.202t2.288 6.013q0 3.472-2.583 5.717-2.541 2.245-7.031 2.245h-6.057v8.852h6.48q5.294 0 7.92 2.33 2.667 2.285 2.667 6.605 0 4.447-2.71 6.862-2.711 2.37-7.708 2.37-3.345.001-5.463-1.1-2.075-1.101-3.387-2.838-1.314-1.737-2.076-3.43l-.72-1.736-9.189 3.388 1.228 3.133q1.228 3.092 3.81 5.93 2.625 2.794 6.734 4.53 4.11 1.695 10.08 1.696 9.615 0 15.204-5.083 5.632-5.126 5.632-13.467 0-5.718-3.346-9.868-3.303-4.15-8.725-5.21 4.576-1.48 7.074-5.165t2.499-8.343q0-6.945-4.914-11.054-4.87-4.15-13.17-4.15zm44.256.72-20.37 14.697 5.21 8.003 11.306-8.215v46.288h11.35V65.55z"/></svg>