<svg xmlns="http://www.w3.org/2000/svg" width="192" height="192" viewBox="0 0 192 192"><path d="M31.151 19C24.437 19 19 24.436 19 31.151v129.7c0 6.714 5.436 12.151 12.151 12.151h105.38l36.467-36.467V31.155c0-6.714-5.436-12.151-12.151-12.151zM73.94 70.836q3.665 0 6.622 1.155 2.934 1.155 5.013 3.088 2.079 1.94 3.157 4.527a14.1 14.1 0 0 1 .439 10.002 20 20 0 0 1-1.787 4.158 23 23 0 0 1-2.525 3.673 39 39 0 0 1-2.803 3.157l-1.078 1.086-1.717 1.717q-.932.924-2.087 2.017l-2.31 2.295-5.814 5.821.077.285h21.337v7.346H58.501v-7.546q4.158-4.112 7.685-7.7 1.51-1.517 3.026-3.088l2.926-2.949q1.378-1.44 2.533-2.587 1.148-1.224 1.787-1.94 1.363-1.579 2.38-2.796a15.4 15.4 0 0 0 1.647-2.379q.647-1.155.932-2.302.362-1.155.362-2.587a6.2 6.2 0 0 0-.57-2.51 6.2 6.2 0 0 0-1.517-2.164 6.9 6.9 0 0 0-2.51-1.579 8.5 8.5 0 0 0-3.388-.647 7.93 7.93 0 0 0-5.668 2.226q-1 .931-1.655 2.086a7.7 7.7 0 0 0-.932 2.156l-7.269-2.949a15.8 15.8 0 0 1 4.89-7.245 16.2 16.2 0 0 1 4.597-2.742q2.726-1.078 6.183-1.078zm44.922 1.155h8.693v31.978h6.176v7.469h-6.176v9.725h-8.046v-9.717H96.494v-6.314zm.208 11.858-13.583 20.12H119.5v-20.12z"/></svg>