<svg xmlns="http://www.w3.org/2000/svg" width="192" height="192" viewBox="0 0 192 192"><path d="M31.151 19C24.437 19 19 24.436 19 31.151v129.7c0 6.714 5.436 12.151 12.151 12.151h105.38l36.467-36.467V31.155c0-6.714-5.436-12.151-12.151-12.151zm81.35 51.19 6.314 4.32-11.126 15.592.285.215q.924-.5 2.079-.785a12.94 12.94 0 0 1 8.193.932 15.86 15.86 0 0 1 8.27 8.27q1.355 2.949 1.355 6.39 0 3.465-1.433 6.545a17.25 17.25 0 0 1-9.124 8.848 16.9 16.9 0 0 1-6.468 1.293q-3.958 0-7.192-1.37a18.5 18.5 0 0 1-5.46-3.742 17.1 17.1 0 0 1-4.673-11.712q0-4.674 1.863-8.547a65.5 65.5 0 0 1 4.751-8.062zm-33.934 1.294h5.69v49.164h-7.985V81.124L67.14 85.08l-3.003-6.83zm32.124 24.67q-1.871 0-3.519.701a9.1 9.1 0 0 0-4.959 4.759 9.2 9.2 0 0 0-.708 3.588q0 2.01.708 3.658.793 1.663 2.01 2.887 1.294 1.224 2.95 1.94 1.647.647 3.518.647a8.93 8.93 0 0 0 6.468-2.587q1.294-1.232 2.017-2.887.786-1.648.793-3.658a8.5 8.5 0 0 0-.793-3.588 7.7 7.7 0 0 0-2.017-2.88 9.2 9.2 0 0 0-3.003-1.879 8.5 8.5 0 0 0-3.465-.7"/></svg>