<svg xmlns="http://www.w3.org/2000/svg" xml:space="preserve" width="192" height="192" viewBox="0 0 192 192"><path d="M44.679 19C30.473 19 19 30.473 19 44.679L25.43 96 19 147.321l.04 1.348c.692 13.59 11.856 24.33 25.64 24.33h102.64a25.61 25.61 0 0 0 25.64-24.33l.039-1.348L166.569 96 173 44.679C172.999 30.473 161.526 19 147.32 19zm0 15.4h102.64c5.467 0 9.893 4.197 10.24 9.587l-6.275 50.088-.231 1.925.231 1.925 6.275 50.088a10.217 10.217 0 0 1-10.24 9.588H44.679a10.217 10.217 0 0 1-10.24-9.588l6.275-50.088.231-1.925-.231-1.925-6.275-50.088a10.217 10.217 0 0 1 10.24-9.587m71.607 30.43q-5.04 0-8.894 1.568-3.853 1.524-6.606 4.361-2.71 2.796-4.194 5.676l-1.48 2.88 8.724 4.616 1.143-1.99a20.4 20.4 0 0 1 2.541-3.6q1.44-1.568 3.303-2.288 1.864-.761 4.405-.761 4.192 0 6.437 2.2 2.286 2.161 2.285 5.845.001 3.39-2.286 6.565-2.244 3.176-7.876 8.935L95.28 117.895v8.428h42.096v-10.037H110.06l13.934-14.357q6.183-6.395 8.85-10.757c2.667-4.362 2.67-6.07 2.67-9.486q-.001-7.455-5.084-12.155-5.04-4.701-14.144-4.702zm-38.242.72-20.37 14.697 5.21 8.003 11.306-8.215v46.288h11.351V65.55z"/></svg>