<svg xmlns="http://www.w3.org/2000/svg" width="192" height="192" viewBox="0 0 192 192"><path d="M31.151 19C24.437 19 19 24.436 19 31.151v129.7c0 6.714 5.436 12.151 12.151 12.151h105.38l36.467-36.467V31.155c0-6.714-5.436-12.151-12.151-12.151zm79.364 51.267q3.373 0 6.252 1.078 2.88 1.009 4.967 2.88 2.079 1.863 3.234 4.45 1.147 2.526 1.14 5.467 0 3.388-1.787 6.037-1.802 2.664-4.312 4.312v.424q1.57.793 2.941 2.017 1.433 1.155 2.51 2.664t1.656 3.388q.647 1.787.647 3.935a13.63 13.63 0 0 1-4.89 10.572q-2.294 1.933-5.459 3.08t-6.899 1.155q-3.735.008-6.892-1.155a17.7 17.7 0 0 1-5.467-3.08 13.63 13.63 0 0 1-4.889-10.572q0-2.156.585-3.942.64-1.872 1.71-3.388a15.1 15.1 0 0 1 5.467-4.674l.008-.416a15.4 15.4 0 0 1-4.312-4.312 10.55 10.55 0 0 1-1.81-6.037q0-2.949 1.155-5.475 1.155-2.58 3.234-4.45 2.087-1.871 4.967-2.872 2.88-1.078 6.237-1.078zm-31.84 1.155h5.683v49.149h-7.985V81.062l-9.11 3.95-3.026-6.822 14.439-6.753zm31.84 6.245q-3.234 0-5.467 1.81-2.148 1.786-2.148 5.02 0 3.164 2.156 5.035 2.233 1.794 5.459 1.794 3.234 0 5.39-1.794a6.24 6.24 0 0 0 2.233-5.035q0-3.234-2.233-5.02a8.16 8.16 0 0 0-5.39-1.81m0 20.844q-1.94 0-3.596.57-1.648.585-2.872 1.593a6.9 6.9 0 0 0-1.94 2.518 6.9 6.9 0 0 0-.724 3.157q0 1.725.647 3.234a7.7 7.7 0 0 0 1.94 2.449q1.294 1 2.95 1.578t3.595.57q1.94-.008 3.596-.57a9.2 9.2 0 0 0 2.872-1.578 6.16 6.16 0 0 0 1.94-2.449 7.42 7.42 0 0 0-1.94-8.909 9.2 9.2 0 0 0-2.872-1.594 10.8 10.8 0 0 0-3.596-.57"/></svg>