<svg xmlns="http://www.w3.org/2000/svg" width="192" height="192" viewBox="0 0 192 192"><path d="M31.151 19C24.437 19 19 24.436 19 31.151v129.7c0 6.714 5.436 12.151 12.151 12.151h105.38l36.467-36.467V31.155c0-6.714-5.436-12.151-12.151-12.151zm64.357 51.267q3.442 0 6.314 1.009 2.88 1.008 4.959 2.81a12.32 12.32 0 0 1 4.373 9.548q0 2.08-.562 3.812a10.8 10.8 0 0 1-1.447 3.095 11.6 11.6 0 0 1-2.08 2.233q-1.154.924-2.37 1.57v.44q1.655.708 3.156 1.863 1.517 1.078 2.603 2.587a12.47 12.47 0 0 1 2.433 7.546q0 3.227-1.294 6.037a14.6 14.6 0 0 1-3.588 4.751 16.2 16.2 0 0 1-5.328 3.003q-3.088 1.155-6.753 1.155a19.3 19.3 0 0 1-5.175-.716 17.7 17.7 0 0 1-4.881-2.225 18.5 18.5 0 0 1-4.02-3.958 16.9 16.9 0 0 1-2.733-5.683l7.469-3.08q1 3.889 3.45 5.968 2.44 2.079 5.89 2.079 1.732 0 3.31-.578a9.2 9.2 0 0 0 2.873-1.578q1.224-1.078 1.94-2.449a6.93 6.93 0 0 0-.077-6.314 6.9 6.9 0 0 0-2.002-2.456 10 10 0 0 0-3.095-1.579 11.6 11.6 0 0 0-3.727-.57h-4.243v-7.4h3.804q1.725 0 3.157-.438a9.2 9.2 0 0 0 2.664-1.363 6.16 6.16 0 0 0 1.802-2.156 6.9 6.9 0 0 0 .647-3.08 5.47 5.47 0 0 0-2.164-4.604Q98.734 77.82 95.5 77.82q-1.794-.008-3.172.493a6.9 6.9 0 0 0-2.225 1.37A8.93 8.93 0 0 0 87.6 83.71l-7.346-3.095q.585-1.733 1.802-3.52a15.4 15.4 0 0 1 3.08-3.372A16.4 16.4 0 0 1 95.5 70.26z"/></svg>