<svg xmlns="http://www.w3.org/2000/svg" xml:space="preserve" width="192" height="192" viewBox="0 0 192 192"><path d="M44.679 19C30.473 19 19 30.473 19 44.679L25.43 96 19 147.321l.04 1.348c.692 13.59 11.856 24.33 25.64 24.33h102.64a25.61 25.61 0 0 0 25.64-24.33l.039-1.348L166.569 96 173 44.679C172.999 30.473 161.526 19 147.32 19zm0 15.4h102.64c5.467 0 9.893 4.197 10.24 9.587l-6.275 50.088-.231 1.925.231 1.925 6.275 50.088a10.217 10.217 0 0 1-10.24 9.588H44.679a10.217 10.217 0 0 1-10.24-9.588l6.275-50.088.231-1.925-.231-1.925-6.275-50.088a10.217 10.217 0 0 1 10.24-9.587m71.776 30.43q-10.586 0-17.363 8.683Q92.358 82.195 92.358 96q0 13.722 6.734 22.446t17.363 8.725q10.673-.001 17.406-8.768 6.734-8.809 6.734-22.403 0-13.679-6.777-22.403-6.734-8.767-17.363-8.768zm-41.333.72-20.37 14.697 5.21 8.003 11.306-8.215v46.288h11.35V65.55zm41.333 9.91q5.676 0 9.106 5.336c3.43 5.336 3.43 8.64 3.43 15.248q0 9.826-3.388 15.16-3.389 5.337-9.105 5.336t-9.15-5.422q-3.387-5.462-3.387-15.118 0-9.784 3.431-15.16 3.472-5.379 9.063-5.379z"/></svg>