<svg xmlns="http://www.w3.org/2000/svg" xml:space="preserve" width="192" height="192" viewBox="0 0 192 192"><path d="M44.679 19C30.473 19 19 30.473 19 44.679L25.43 96 19 147.321l.04 1.348c.692 13.59 11.856 24.33 25.64 24.33h102.64a25.61 25.61 0 0 0 25.64-24.33l.039-1.348L166.569 96 173 44.679C172.999 30.473 161.526 19 147.32 19zm0 15.4h102.64c5.467 0 9.893 4.197 10.24 9.587l-6.275 50.088-.231 1.925.231 1.925 6.275 50.088a10.217 10.217 0 0 1-10.24 9.588H44.679a10.217 10.217 0 0 1-10.24-9.588l6.275-50.088.231-1.925-.231-1.925-6.275-50.088a10.217 10.217 0 0 1 10.24-9.587M76.88 65.55 56.51 80.247l5.21 8.003 11.306-8.215v46.288h11.35V65.55zm24.309.128-4.025 30.915 9.063 3.897q3.345-3.177 5.294-3.982 1.948-.804 4.617-.804 4.828 0 8.004 3.133 3.177 3.092 3.176 7.794 0 4.658-3.219 7.75-3.176 3.091-8.046 3.092-3.134-.001-5.463-1.06a12 12 0 0 1-3.981-3.006 14.6 14.6 0 0 1-2.455-4.236l-.805-2.286-9.106 3.77 1.44 3.556q1.44 3.516 4.277 6.565 2.88 3.049 6.987 4.743 4.15 1.651 9.53 1.652 9.36 0 15.585-5.76 6.224-5.802 6.224-15.035 0-8.64-5.675-14.06-5.632-5.463-13.847-5.463-4.109 0-7.2 1.271-3.091 1.228-5.04 3.09l2.119-15.455h25.664v-10.08z"/></svg>