<svg width="192" height="192" fill="none" xmlns="http://www.w3.org/2000/svg"><path d="M74 123V61L55 75" stroke="#000" stroke-width="12" stroke-linecap="round" stroke-linejoin="round"/><path d="M22 41c0-8.837 7.163-16 16-16h116c8.837 0 16 7.163 16 16v87.373a16 16 0 0 1-4.686 11.313l-22.628 22.628A16 16 0 0 1 131.373 167H38c-8.837 0-16-7.163-16-16V41Z" stroke="#000" stroke-width="12" stroke-linecap="round" stroke-linejoin="round"/><path d="M99.27 92.27 103 61h27M99.272 92.272a17.998 17.998 0 0 1 28.603 4.243 18.005 18.005 0 0 1-2.737 20.79 18.004 18.004 0 0 1-20.567 4.091 18.01 18.01 0 0 1-8.16-7.396" stroke="#000" stroke-width="12" stroke-linecap="round" stroke-linejoin="round"/></svg>