<svg xmlns="http://www.w3.org/2000/svg" xml:space="preserve" width="192" height="192" viewBox="0 0 192 192"><path d="M44.679 19C30.473 19 19 30.473 19 44.679L25.43 96 19 147.321l.04 1.348c.692 13.59 11.856 24.33 25.64 24.33h102.64a25.61 25.61 0 0 0 25.64-24.33l.039-1.348L166.569 96 173 44.679C172.999 30.473 161.526 19 147.32 19zm0 15.4h102.64c5.467 0 9.893 4.197 10.24 9.587l-6.275 50.088-.231 1.925.231 1.925 6.275 50.088a10.217 10.217 0 0 1-10.24 9.588H44.679a10.217 10.217 0 0 1-10.24-9.588l6.275-50.088.231-1.925-.231-1.925-6.275-50.088a10.217 10.217 0 0 1 10.24-9.587m71.796 30.43q-8.555 0-13.721 4.448-5.166 4.404-5.166 11.689 0 4.912 2.455 8.215 2.458 3.261 6.142 4.743-4.448 1.355-7.835 5.675-3.389 4.278-3.388 9.952 0 7.836 5.97 12.747 6.014 4.87 15.544 4.871c9.53.001 11.52-1.652 15.502-4.955q6.012-4.956 6.011-12.663 0-5.675-3.387-9.952-3.388-4.32-7.834-5.676 3.685-1.482 6.14-4.743 2.457-3.303 2.457-8.47 0-7.2-5.168-11.518-5.167-4.363-13.72-4.364zm-39.342.72-20.37 14.697 5.21 8.003 11.306-8.215v46.288h11.35V65.55zm39.342 8.217q4.15 0 6.65 2.286 2.54 2.245 2.54 5.844t-2.456 5.93q-2.415 2.329-6.734 2.329c-4.319 0-5.138-.776-6.775-2.33q-2.415-2.329-2.414-5.929t2.499-5.844q2.54-2.287 6.69-2.286m0 24.816q4.955 0 8.048 2.754 3.09 2.752 3.09 7.072c0 4.32-1.03 5.209-3.09 6.988q-3.093 2.667-8.048 2.667c-4.955 0-5.985-.889-8.046-2.667q-3.091-2.669-3.092-6.988c-.001-4.319 1.031-5.237 3.092-7.072q3.092-2.753 8.046-2.754"/></svg>