<svg xmlns="http://www.w3.org/2000/svg" width="192" height="192" viewBox="0 0 192 192"><path d="M95.978 152.58a11.71 11.71 0 1 1 0 23.419 11.71 11.71 0 1 1 0-23.419m-42.235 0a11.71 11.71 0 0 1 .007 23.419 11.71 11.71 0 0 1-.007-23.419m84.484 0a11.71 11.71 0 1 1 0 23.419 11.71 11.71 0 1 1 0-23.419M95.992 16c38.002 0 68.825 27.107 68.825 60.548s-30.823 60.555-68.825 60.555a76.4 76.4 0 0 1-30.154-6.117l-34.474 8.626 7.368-29.47c-7.295-9.607-11.55-21.172-11.55-33.594C27.174 43.106 57.982 16 95.992 16m-.008 28.234a19.49 19.49 0 0 0-19.514 19.5v7.796h-.77a3.127 3.127 0 0 0-3.135 3.135v27.507a3.127 3.127 0 0 0 3.134 3.134h40.576a3.127 3.127 0 0 0 3.142-3.127v-27.53a3.127 3.127 0 0 0-3.142-3.134h-.763v-7.79a19.49 19.49 0 0 0-19.528-19.491m0 7.797A11.71 11.71 0 0 1 107.7 63.726v7.796H84.28v-7.79a11.71 11.71 0 0 1 11.703-11.701"/></svg>