<svg xmlns="http://www.w3.org/2000/svg" width="192" height="192" viewBox="0 0 192 192"><path d="M97.237 176h-.047c-23.873-.16-42.227-8.033-54.56-23.393-10.967-13.673-16.633-32.7-16.82-56.54v-.113c.2-23.86 5.86-42.867 16.833-56.547C54.963 24.034 73.33 16.16 97.196 16h.094c18.307.133 33.62 4.833 45.507 13.987 11.18 8.6 19.053 20.867 23.393 36.447l-13.6 3.793c-7.36-26.4-25.987-39.893-55.36-40.1-19.4.147-34.067 6.24-43.6 18.113C44.71 59.36 40.103 75.427 39.923 96c.18 20.573 4.786 36.64 13.713 47.76 9.533 11.887 24.207 17.987 43.6 18.113 17.487-.133 29.053-4.207 38.667-13.633 10.98-10.753 10.787-23.953 7.266-31.987-2.066-4.733-5.82-8.667-10.893-11.667-1.28 9.013-4.146 16.307-8.56 21.813-5.906 7.347-14.267 11.36-24.867 11.933-8.013.433-15.74-1.453-21.727-5.34-7.086-4.593-11.233-11.6-11.68-19.76-.433-7.933 2.72-15.233 8.867-20.547 5.867-5.067 14.127-8.047 23.887-8.607a92.4 92.4 0 0 1 20.133.947c-.84-4.947-2.5-8.88-5-11.713-4.146-4.736-10.528-5.933-15.92-5.933-5.627 0-13.28 1.546-18.14 8.8l-11.713-7.867c8.663-12.853 22.041-15.04 30.147-15.04 21.293.133 33.98 13.167 35.247 35.92.72.307 1.44.627 2.14.947 9.933 4.666 17.2 11.74 21.027 20.467 5.313 12.133 5.807 31.933-10.32 47.72-12.333 12.067-27.293 17.52-48.513 17.667zm6.687-77.933a88 88 0 0 0-4.927.14c-12.24.687-19.867 6.307-19.44 14.287.447 8.373 9.68 12.26 18.56 11.78 8.16-.433 18.787-3.62 20.573-24.733a70 70 0 0 0-14.767-1.473z"/></svg>