<svg xmlns="http://www.w3.org/2000/svg" width="192" height="192" viewBox="0 0 192 192"><path d="M96.008 19v17.565c-14.2 0-29.092 5.814-40.312 15.971C43.537 63.54 36.584 78.64 36.584 96.189c0 17.518 6.961 32.511 19.151 43.43 11.219 10.049 26.12 15.801 40.288 15.801 14.269 0 29.138-5.637 40.288-15.555 12.167-10.834 19.112-25.842 19.112-43.677h17.572c0 22.924-9.133 42.683-25.003 56.806C133.623 165.777 114.595 173 96.014 173c-18.512 0-37.578-7.37-52.008-20.291-15.84-14.184-25.003-33.905-25.003-56.513S28.12 53.79 43.898 39.513c14.431-13.06 33.52-20.514 52.093-20.514m47.411 17.18 15.586 12.49-54.249 67.648a9.987 9.987 0 0 1-14.092 1.494L60.315 93.13l12.606-15.493 22.531 18.327z"/></svg>