<svg xmlns="http://www.w3.org/2000/svg" width="192" height="192" viewBox="0 0 192 192"><path d="M30.547 63.284c-6.357.048-11.498 5.19-11.547 11.547v73.14c0 6.314 5.233 11.563 11.547 11.563h8.89l9.825 11.446c2.305 2.692 6.468 2.692 8.773 0l9.826-11.446h64.718c6.314 0 11.547-5.25 11.547-11.563v-22.876l-1.387 1.62a5.77 5.77 0 0 1-8.773 0l-9.826-11.462h-10.81c0 4.21-3.478 7.703-7.687 7.703s-7.704-3.494-7.704-7.703H86.378c0 4.21-3.503 7.703-7.704 7.703a7.786 7.786 0 0 1-7.703-7.703H59.423c0 4.21-3.494 7.703-7.703 7.703s-7.687-3.494-7.687-7.703c0-3.175 1.984-5.934 4.762-7.102a11.3 11.3 0 0 1-.919-4.445V63.284z" opacity=".7"/><path d="M59.425 19.002c-6.36.047-11.503 5.19-11.55 11.55v73.15c0 6.314 5.236 11.55 11.55 11.55h64.714l9.822 11.464c2.305 2.696 6.473 2.696 8.778 0l9.822-11.464h8.897c6.356-.051 11.495-5.194 11.541-11.55v-73.15c-.046-6.36-5.19-11.503-11.55-11.55zm63.739 18.283c1.6 0 2.883 1.3 2.883 2.892v3.473h12.294c3.856 0 3.856 5.784 0 5.784h-12.294v14.972h10.592c1.6 0 2.892 1.283 2.892 2.892v18.437c.236 3.989-2.955 7.173-6.844 7.366h-15.4a2.91 2.91 0 0 1-2.892-2.892V67.28c0-1.591 1.3-2.892 2.892-2.883h2.994v-24.22c0-1.6 1.292-2.901 2.892-2.893zm-31.613.967c5.012.04 10.027.017 15.041.017 1.591 0 2.875 1.3 2.875 2.892v37.413c.32 4.152-6.087 4.152-5.767 0V44.052H91.953c-2.37.013-2.703 2.115-2.584 2.857v31.767c0 3.856-5.783 3.856-5.783 0V46.91c-.332-4.676 3.228-8.64 7.965-8.658m4.877 9.154a2.91 2.91 0 0 1 2.883 2.875v30.013q.838 1.146 1.788 2.207c2.25 2.276 4.928 3.987 7.982 4.98 3.911 1.061 1.999 6.937-1.788 5.492-5.621-1.848-9.118-5.089-10.78-6.972-3.392 4.558-9.1 6.293-11.387 6.827-3.741.895-5.085-4.717-1.343-5.612q4.526-1.096 7.803-4.15a17 17 0 0 0 1.959-2.84V50.28c0-1.592 1.3-2.875 2.892-2.875zm23.733 22.758v17.18h12.286c1.355-.251 1.291-1.603 1.3-1.6v-15.58z"/></svg>