<svg width="192" height="192" fill="none" xmlns="http://www.w3.org/2000/svg"><path d="M70 48a26 26 0 0 1 52 0M42.735 63.574A12 12 0 0 1 54.65 53h82.7a12 12 0 0 1 11.915 10.574l10.058 84.05c1.424 11.903-7.871 22.376-19.859 22.376H52.536c-11.988 0-21.283-10.473-19.858-22.376l10.057-84.05Z" stroke="#000" stroke-width="12" stroke-linecap="round" stroke-linejoin="round"/><path d="M86 104a21.004 21.004 0 0 0-19.401 12.964A20.999 20.999 0 1 0 107 125V77a21.001 21.001 0 0 0 21 21" stroke="#000" stroke-width="12" stroke-linecap="round" stroke-linejoin="round"/></svg>