<svg xmlns="http://www.w3.org/2000/svg" width="192" height="192" viewBox="0 0 192 192"><path d="M34.64 95.002c-.48.072-.896.368-1.216 1a480 480 0 0 0-10.264 23.673c-2.24.088-4.44.16-4.896.2-1.2.088-1.256.72-1.008 1.416.192.536.36.976.632 1.68.2.504.576.624 1.232.6l2.6-.088c-2.48 6.608-4.856 13.008-5.408 14.592-.56 1.6-.376 1.904.64 2.688.648.512 1.152.872 1.864 1.36 1.128.752 2.192.96 2.68-.288 2.344-5.92 4.696-11.976 6.824-17.024 5.504 1.792 8.152 7.728 8.128 14.256 0 .8.048 1.168.8 1.76.96.736 1.352 1.024 2.016 1.44 1.368.872 2.08-.032 2.36-.744 3.84-9.648 8.04-19.08 8.04-19.08l7.825-.288a20 20 0 0 0-5.144 5.728c-3.776 6.344-2.44 12.704 3.032 14.176 6.288 1.696 13.24-2.48 16.76-8.768q1.568-2.768 1.976-5.624c3.304-1.416 6.856-3.88 8.392-5.776a2.56 2.56 0 0 0 1.36 1.632c-5.312 5.848-7.8 10.2-8.032 13.584-.208 2.976 1.08 4.656 3.336 5.072 1.752.32 3.552-.056 4.88-.56 2.48-.96 5.56-3.24 8.76-7.104q-.32 1.104-.432 1.84c-.32 2.152-.12 4.832 3.072 5.536.504.112 2.537.416 4.88-.664 1.889-.872 3.809-2.096 6.089-5.04.296 3.072 2.096 5.392 5.28 6.08 6.408 1.392 12.952-2.656 16.64-9.072.96-1.648 1.552-3.28 1.808-4.825 2.256-.504 4.08-1.296 6.088-2.704a92 92 0 0 0-4.6 12.576c-.368 1.416-.176 1.712.656 2.288.712.488 1 .68 1.76 1.16.632.392 1.704.824 2.64-.32.96-1.2 6.352-7.96 11.984-13.256-1.84 3.929-2.856 7-3.104 9.057-.2 1.72-.032 4.424 2.968 5.24a7.6 7.6 0 0 0 4.592-.4c3.336-1.312 5.384-4.304 9.736-9.96a93 93 0 0 1 3.424-4.2c-.08 1.8.48 3.672 1.728 5.904.968 1.728 1.304 3.152.944 4.328-.488 1.624-2.12 1.752-2.576 1.76-1.336.024-2.296-.936-2.552-2.512-.208-1.28-.376-1.624-1.008-1.656q-.352-.025-.848.352-.615.496-1.12 1.104c-.864 1.104-.72 2.224-.176 3.152 1.104 1.896 3.4 2.592 6.136 2.544 4.872-.08 7.696-2.528 8.272-6.8a8 8 0 0 0-.456-3.825c-.52-1.536-1.648-3.584-2.032-4.408-1.173-2.5.434-4.001 2.4-5.648.728-.576 1.04-.76.992-1.392-.024-.384-.296-.6-.816-1.088l-.696-.664c-.464-.44-.704-.528-1.104-.504-.56.04-1.28.48-1.92.984a48 48 0 0 0-2.952 2.576c-3.168 3-5.808 6.08-8.776 9.897-3.4 4.368-4.944 5.984-6.12 6.336-.864.256-2 .024-1-3.264 1.248-4.096 3.56-8.345 4.24-9.705.704-1.424.352-1.968-.632-2.688a24 24 0 0 0-1.896-1.256c-1.16-.712-1.824-.344-2.184-.096-1.368.928-7.76 6.977-12.944 13.216 2.32-5.808 3.872-8.72 4.4-9.68.96-1.712.496-2.08-.48-2.848-.72-.552-1.208-.872-1.984-1.4-1.224-.84-1.88-.48-2.496.112-2.88 2.824-5.448 4.272-8.4 5.064a9.6 9.6 0 0 0-.44-2.176 5.6 5.6 0 0 0-.76-1.496c-.984-1.528-2.288-2.296-4.176-2.752-5.048-1.232-10.944 1.448-14.96 7.32-3.52 5.12-6.472 10.104-9.416 11.04-.224.072-2.449.624-.984-3.264 2.752-7.28 5.152-12.456 8.36-19.272q11.02-.54 22.048-.808c.832-.024 1.08-.592.784-1.288a48 48 0 0 0-.76-1.68c-.272-.6-.512-.768-1.824-.76q-9.291.252-18.56.936l1.832-3.904c.712-1.544.288-1.92-.64-2.52-.992-.624-1.2-.76-2.4-1.448-1.288-.744-2.12-.432-2.776.928-.48.992-1.824 3.84-3.489 7.464-3.312.248-5.64.44-5.968.472-1.128.104-1.128.656-.952 1.176.184.52.328.912.496 1.288.16.384.336.832 1.224.768.264-.016 1.536-.104 3.624-.224-1.488 3.312-3.088 6.936-4.464 10.28-3.848 6.6-9.272 11.792-11.688 12.36-.88.208-2.696.368-1.08-3.76 1.336-3.416 3.76-6.336 7.665-10.664.744-.824.664-1.184.512-1.656s-.472-.744-1.152-.824c-2.977-.344-3.505-1.024-3.92-1.728-.457-.752-.433-1.88-.097-2.952.136-.464.288-1.088-.416-1.36-.88-.344-1.36-.272-1.784.472-2.12 3.672-5.92 7-9.872 8.992a16 16 0 0 0-.44-1.64 6.32 6.32 0 0 0-4.504-4.176c-1.48-.392-4.552-.272-5.312-.24l-12.776.304c3.872-8.8 7.64-16.6 7.944-17.232.624-1.28.288-1.752-.72-2.344-1.08-.64-1.448-.792-3.16-1.672-1.536-.784-1.92-.064-2.336.816-.632 1.384-4.896 10.72-8.976 20.592-2.312.032-10.976.32-13.336.4 4.24-9.52 8.96-19.2 9.12-19.504.8-1.704.376-2.224-.728-2.928a64 64 0 0 0-2.872-1.712 2.4 2.4 0 0 0-1.472-.368zm30.841 26.849a4.24 4.24 0 0 0-1.4 2.36c-.56 2.296.776 5.2 4.112 5.072-.24.672-.848 2.224-1.2 2.96-2.16 4.464-5.448 7.144-8.04 7.016-3.064-.16-3.44-5.32-.976-10.328 1.576-3.216 3.976-6.728 7.352-7.072zm55.785.448a5.1 5.1 0 0 0-1.04 2.152c-.624 3.464 1.52 4.768 4.096 4.912-.24.928-.544 1.8-1.032 2.88-2.024 4.504-5.456 7.28-8.072 7.168-3.28-.136-3.696-5.384-1.056-10.264 3.52-6.52 7.08-6.848 7.104-6.848m-78.746.384a760 760 0 0 0-3.84 9.952c-1.024-5.968-5.12-8.72-7.592-9.648 3.6-.112 9.768-.256 11.432-.304m64.225-73.506c-17.712.328-40.705 2.32-45.561 2.824-2.224.224-1.84 1.4-1.432 2.56.224.64.104.232.512 1.248.512 1.264.712 2.032 2.912 1.72 1.736-.24 9.808-.992 15.976-1.624l-15.68 33.897c-.408.88-.864 1.968.52 2.833a45 45 0 0 0 3.304 1.92c1.432.776 2.232.288 2.736-.84 1.2-2.625 13.808-31.618 16.856-38.37 7.16-.512 14.48-1.024 22.032-1.328 1.048-.048 1.84-.6 1.36-1.712-.464-1.12-.528-1.096-.984-2.072-.496-1.048-1.064-1.088-2.552-1.056m-11.92 10.024a4.48 4.48 0 0 0-4.376 4.705 3.64 3.64 0 0 0 4.36 3.384 4.48 4.48 0 0 0 3.72-4.648 3.64 3.64 0 0 0-3.704-3.44m-6.08 10.4c-.64.015-1.128.52-1.6 1.48-1.696 3.504-6.016 12.367-6.8 17.215-.6 3.665 1 5.28 3.12 5.753 1.503.26 3.05.062 4.44-.568 2.256-1.056 5.4-3.705 9.632-9.6-.816 2.095-1.68 4.487-2.152 6-.52 1.72-.216 2.16.824 2.824.472.296.696.448 1.36.856.696.424 1.76.864 2.688-.24 1.24-1.464 7.937-9.553 13.216-14.488-1.208 3.168-3.016 7.976-3.864 11.04-.376 1.36-.056 1.816 1.088 2.56l1.712 1.072c.4.24 1.52.768 2.52-.4.96-1.12 6.529-8.129 11.04-12.528-1.696 3.856-2.664 6.832-2.992 9.08-.112.76-.6 4.64 3.488 5.256a6.4 6.4 0 0 0 2.528-.128 6.16 6.16 0 0 0 2.84-1.504c.457-.424.657-.936.6-1.232-.071-.384-.383-.416-.84-.448-.413-.01-.82-.1-1.2-.264-1.512-.768-.784-2.616-.432-3.736a51.2 51.2 0 0 1 4.233-9.696c.944-1.736.536-2.208-.536-2.944-.912-.624-1.096-.776-1.712-1.176-1.224-.792-2.08-.48-3.025.376a152 152 0 0 0-11.776 12.168c2.144-5.729 3.313-8.225 4.097-9.985.68-1.52.504-1.944-.352-2.52a91 91 0 0 0-2.256-1.456c-.912-.568-1.648-.368-2.272.2a224 224 0 0 0-13.064 13.24c2.144-5 4.016-9.28 4.68-10.688.632-1.344.744-1.984-.344-2.76a32 32 0 0 0-2.32-1.504c-1.416-.848-1.952-.28-2.504.592l-.936 1.504c-6.137 10.216-11.12 15.864-13.112 16.52-.848.28-1.256.08-1.456-.104-.72-.68-.08-2.632.216-3.416 1.04-2.824 3.088-7.32 5.192-11.632.8-1.64.552-2.112-.584-2.92-.72-.504-1.376-.896-2.232-1.408a2.4 2.4 0 0 0-.864-.368z"/></svg>