<svg width="192" height="192" fill="none" xmlns="http://www.w3.org/2000/svg"><path d="M125.901 99.551A29.885 29.885 0 0 0 106 92c-16.569 0-30 13.431-30 30 0 .824.033 1.641.099 2.449M125.9 99.551C124.655 84.128 111.744 72 96 72c-16.569 0-30 13.431-30 30 0 8.932 3.904 16.953 10.099 22.449M125.9 99.551c.066.808.099 1.625.099 2.449 0 16.569-13.431 30-30 30a29.888 29.888 0 0 1-19.901-7.551" stroke="#000" stroke-width="12" stroke-linecap="round" stroke-linejoin="round"/><circle cx="146" cy="70" r="4" stroke="#000" stroke-width="8" stroke-linecap="round" stroke-linejoin="round"/><path d="M22 62c0-8.837 7.163-16 16-16h22.789a6 6 0 0 0 4.992-2.672l4.438-6.656A6 6 0 0 1 75.21 34h41.578a6 6 0 0 1 4.992 2.672l4.438 6.656A6 6 0 0 0 131.211 46H154c8.837 0 16 7.163 16 16v80c0 8.837-7.163 16-16 16H38c-8.837 0-16-7.163-16-16V62Z" stroke="#000" stroke-width="12" stroke-linecap="round" stroke-linejoin="round"/></svg>