<svg xmlns="http://www.w3.org/2000/svg" width="192" height="192" viewBox="0 0 192 192"><path d="M159.77 16H31.47l-1.496 56.6 8.296 1.496c1.496-16.6 6.04-29.432 12.832-36.976a45.6 45.6 0 0 1 31.68-13.576v118.48q0 15.848-4.528 20.376a18.4 18.4 0 0 1-12.816 4.544h-9.056V176h79.24v-9.056h-9.056a22.9 22.9 0 0 1-12.824-4.528q-4.528-4.528-4.528-20.376V23.54c13.584.752 23.392 4.528 31.688 13.584 6.8 8.296 11.32 20.376 12.832 36.976l8.296-1.496zm-30.936 73.96h32.448v32.44h-32.448zm-98.864 0h32.448v32.44H29.97z"/></svg>