<svg width="192" height="192" fill="none" xmlns="http://www.w3.org/2000/svg"><circle cx="96" cy="96" r="74" stroke="#000" stroke-width="12" stroke-linecap="round" stroke-linejoin="round"/><path d="M108.761 126.188a7 7 0 1 1-13.522 3.624" stroke="#000" stroke-width="8" stroke-linecap="round" stroke-linejoin="round"/><path d="M101.919 102c.118.447.107.924-.033 1.404-.14.48-.405.954-.782 1.395-.377.44-.857.839-1.414 1.173a7.272 7.272 0 0 1-1.829.773 7.197 7.197 0 0 1-1.966.254 5.683 5.683 0 0 1-1.805-.301c-.544-.191-1.009-.467-1.367-.813a2.575 2.575 0 0 1-.723-1.199l9.919-2.686Zm43.47-15.18c2.082 8.095-1.329 16.08-7.619 17.836-6.29 1.756-13.077-3.383-15.159-11.477-2.082-8.094 1.329-16.08 7.619-17.835 6.29-1.756 13.077 3.383 15.159 11.477ZM111 58c1.528-1.769 3.533-3.065 5.902-3.656 2.377-.593 4.818-.4 7.098.428M50 81a12.62 12.62 0 0 1 5.3-5.382c2.377-1.275 5.037-1.771 7.7-1.578" stroke="#000" stroke-width="10" stroke-linecap="round" stroke-linejoin="round"/><path d="M53 106.041S61 104 71 105c0 0-6 5-15 8" stroke="#000" stroke-width="8" stroke-linecap="round" stroke-linejoin="round"/><path d="M87 129s15-1 29-8" stroke="#000" stroke-width="10" stroke-linecap="round" stroke-linejoin="round"/></svg>