<svg xmlns="http://www.w3.org/2000/svg" width="192" height="192" viewBox="0 0 192 192"><path d="M38.25 19h115.5c10.618.033 19.217 8.632 19.25 19.25v115.5c-.032 10.618-8.632 19.217-19.25 19.25H38.25c-10.62-.028-19.222-8.63-19.25-19.25v-26.608c6.331 3.73 22.09 12.996 25.906 15.169a6.25 6.25 0 0 0 6.665-.009l61.677-35.873c1.309-.77 1.386-3.114-.103-3.97l-5.321-3.08a4.79 4.79 0 0 0-4.757.052c-.728.427-50.016 29.063-51.667 30.004a6.33 6.33 0 0 1-6.374 0L19 114.155v-13.09c6.33 3.721 22.09 12.987 25.906 15.16a6.25 6.25 0 0 0 6.665 0l61.677-35.873c1.309-.77 1.386-3.123-.103-3.979l-5.322-3.071a4.79 4.79 0 0 0-4.757.051c-.727.428-50.016 29.063-51.667 29.996a6.33 6.33 0 0 1-6.374 0L19 88.07V76.52c6.332 3.722 22.09 12.98 25.906 15.16 2.036 1.285 4.584 1.21 6.665 0l61.677-35.873c1.31-.77 1.386-3.123-.102-3.978l-5.322-3.072a4.79 4.79 0 0 0-4.757.052c-.727.428-50.016 29.055-51.667 29.987a6.33 6.33 0 0 1-6.374 0L19 63.532V38.25c.028-10.62 8.63-19.222 19.25-19.25"/></svg>