<svg width="192" height="192" fill="none" xmlns="http://www.w3.org/2000/svg"><path d="M148 134c-10.033 8.516-21.415 13-33 13s-22.967-4.484-33-13" stroke="#000" stroke-width="12" stroke-linecap="round" stroke-linejoin="round"/><circle cx="83" cy="87" r="22" stroke="#000" stroke-width="12" stroke-linecap="round" stroke-linejoin="round"/><path d="M22 87a22 22 0 0 0 22 22m126-22a21.992 21.992 0 0 0-6.444-15.556 22.001 22.001 0 0 0-31.112 0A21.987 21.987 0 0 0 126 87m0 0v22M22 45v42m148 0v22M22 65h22" stroke="#000" stroke-width="12" stroke-linecap="round" stroke-linejoin="round"/></svg>