<svg width="192" height="192" fill="none" xmlns="http://www.w3.org/2000/svg"><path d="M167 155c0-7.879-1.836-15.681-5.405-22.961-3.568-7.28-8.797-13.894-15.39-19.465-6.593-5.572-14.42-9.991-23.034-13.007C114.556 96.552 105.324 95 96 95c-9.324 0-18.556 1.552-27.17 4.567-8.615 3.016-16.442 7.435-23.035 13.007-6.593 5.571-11.822 12.185-15.39 19.465C26.836 139.319 25 147.121 25 155" stroke="#000" stroke-width="12" stroke-linecap="round" stroke-linejoin="round"/><circle cx="51" cy="145" r="4" stroke="#000" stroke-width="8" stroke-linecap="round" stroke-linejoin="round"/><circle cx="68" cy="125" r="4" stroke="#000" stroke-width="8" stroke-linecap="round" stroke-linejoin="round"/><circle cx="82" cy="145" r="4" stroke="#000" stroke-width="8" stroke-linecap="round" stroke-linejoin="round"/><circle cx="96" cy="120" r="4" stroke="#000" stroke-width="8" stroke-linecap="round" stroke-linejoin="round"/><circle cx="110" cy="145" r="4" stroke="#000" stroke-width="8" stroke-linecap="round" stroke-linejoin="round"/><circle cx="124" cy="125" r="4" stroke="#000" stroke-width="8" stroke-linecap="round" stroke-linejoin="round"/><circle cx="141" cy="145" r="4" stroke="#000" stroke-width="8" stroke-linecap="round" stroke-linejoin="round"/><path d="M131.59 76.46c11.283 4.925 21.535 12.143 30.171 21.244a96.356 96.356 0 0 1 5.239 6M60.41 66.46c-11.283 4.925-21.535 12.143-30.17 21.244a96.271 96.271 0 0 0-5.24 6" stroke="#000" stroke-width="12" stroke-linecap="round" stroke-linejoin="round"/><path d="M25 31a6 6 0 0 1 6-6h130a6 6 0 0 1 6 6v130a6 6 0 0 1-6 6H31a6 6 0 0 1-6-6V31Z" stroke="#000" stroke-width="12" stroke-linecap="round" stroke-linejoin="round"/></svg>