<svg xmlns="http://www.w3.org/2000/svg" width="192" height="192"><path d="M90.956 21.026C49.619 21.026 16 54.645 16 95.982s33.619 74.956 74.956 74.956l.04.037c29.511 0 56.38-17.412 68.438-44.36l-7.327-3.258c-10.783 24.081-34.782 39.63-61.15 39.63-36.917 0-66.966-30.056-66.966-66.972S54.041 29.05 90.956 29.05c10.083 0 19.735 2.177 28.771 6.482l3.456-7.253c-10.122-4.808-20.941-7.253-32.226-7.253zm67.166 10.95-76.633 76.64-33.3-33.3-5.676 5.68 55.632 55.632 5.673-5.677-16.657-16.663 76.254-76.258a93 93 0 0 0-5.294-6.055zm7.612 9.081-73.265 73.265 14.04 13.996 5.656-5.66-8.336-8.336L170.28 47.84a93 93 0 0 0-4.546-6.783m6.518 10.192-63.08 63.083 5.673 5.673L176 58.857a92 92 0 0 0-3.747-7.608zM64.842 58.66l-5.673 5.673L89.8 94.96l5.672-5.673zm-8.306 8.367L50.863 72.7l30.626 30.626 5.676-5.676z"/></svg>