<svg xmlns="http://www.w3.org/2000/svg" width="192" height="192" viewBox="0 0 192 192"><path d="M96 19c-42.436 0-77 34.564-77 77s34.564 77 77 77 77-34.564 77-77-34.564-77-77-77m0 7.768c38.183 0 69.232 31.057 69.232 69.232S134.175 165.232 96 165.232 26.768 134.175 26.768 96 57.825 26.768 96 26.768m0 7.23c-34.243 0-62.002 27.759-62.002 62.002 0 13.928 4.569 26.805 12.44 37.217l32.451-32.426 48.707 48.596a21.5 21.5 0 0 0 2.652-1.703L78.89 96.316l-31.176 31.168-4.363-4.363 35.54-35.514 56.467 56.26c.855-.64 1.6-1.385 2.344-2.018L79.207 83.355l-.53.102-32.545 32.434-4.364-4.363L76.016 77.29l39.99-39.989a62.5 62.5 0 0 0-20.004-3.302m26.266 5.843L83.238 78.77l58.811 58.708A61.77 61.77 0 0 0 158.005 96a62.03 62.03 0 0 0-35.737-56.15zm.745 3.62 4.363 4.362-35.42 35.42-4.363-4.363zm1.6 11.49 4.363 4.362-30.74 30.732-4.363-4.363zm-45.73 54.447-28.506 28.507A61.6 61.6 0 0 0 96.004 157.9c9.248 0 17.967-2.019 25.838-5.638z"/></svg>