<svg width="192" height="192" fill="none" xmlns="http://www.w3.org/2000/svg"><path d="M78 105s-4 39-29 39a27.002 27.002 0 0 1-27-27c0-42 34.402-77.598 34.402-77.598a56 56 0 0 1 91.09 17.584 6.803 6.803 0 0 0 2.217 2.798 50.004 50.004 0 0 1 4.471 76.709A49.999 49.999 0 0 1 95 143.301l-22.5-12.99" stroke="#000" stroke-width="12" stroke-linecap="round" stroke-linejoin="round"/><path d="M40 170c2-13 16-27 16-27m92 27c-1-10-8-23-8-23" stroke="#000" stroke-width="12" stroke-linecap="round" stroke-linejoin="round"/><path d="M113 121c12 19 26 0 26 0M79 74c4-6 9-3 9-3" stroke="#000" stroke-width="10" stroke-linecap="round" stroke-linejoin="round"/><path d="m86 51.75-6 3L85 49l1 2.75Zm25-5 6 3-5-5.75-1 2.75ZM118 64a3 3 0 1 1 0 6 3 3 0 0 1 0-6Z" stroke="#000" stroke-width="6" stroke-linecap="round" stroke-linejoin="round"/><path d="M135.609 88.038c6.578.808 11.638 3.684 11.301 6.425-.336 2.741-5.942 4.308-12.52 3.5-6.578-.807-11.637-3.684-11.301-6.425.337-2.74 5.942-4.307 12.52-3.5Z" stroke="#000" stroke-width="10" stroke-linecap="round" stroke-linejoin="round"/></svg>