<svg xmlns="http://www.w3.org/2000/svg" width="192" height="192" viewBox="0 0 192 192"><path d="M136.92 16.001c-.544-.032-.544 1.232-.544 4.616v4.632l-74.156.464c-2.272.608-3.08 1.055-4.592 2.543q-2.167 2.136-2.8 4.608l-.28 79.932h4.504l.128-65.876h77.196v4.752c0 5.568-.024 5.536 2.32 3.4l21.183-18.863-21.27-18.935c-.84-.768-1.36-1.256-1.689-1.272m-27.047 17.83c.76.217 1.664 1.553 1.664 2.457 0 .36-.32 1-.752 1.496l-.76.856H85.53l-.76-.856c-.424-.496-.752-1.136-.752-1.496 0-.904.904-2.24 1.664-2.456M98.497 70.79c-4.296 0-10.423 1.928-14.215 4.48-1.304.88-5.384 4.823-5.384 5.2-1.848 2.195-2.869 4.998-4.08 7.607-.767 2.16-1.28 5.312-1.28 7.84 0 2.415.673 6.535 1.313 8.031.192.448.472 1.12.616 1.504.192.48.416.664.744.608l33.55-30.878c1.088-.856.688-1.432-1.624-2.36-2.888-1.16-7-2.032-9.648-2.032zm38.086 2.568-.2 71.468-80.996-.112-.064-4.688c-.056-3.936-.128-4.688-.424-4.688-.2 0-.936.52-1.648 1.152l-20.559 18.167c-1.04.816-.752 1.4 1.784 3.568L52.82 174.36c1.021.898 1.976 1.64 2.136 1.64.224 0 .32-1.168.368-4.68l.064-4.688 78.908-.704a8 8 0 0 0 1.6-.8c.216-.176.496-.32.624-.32.4 0 2.44-2.256 3.2-3.536 1.464-2.455 1.4-.12 1.4-45.91V73.357zm-40.806 17.4-1.2 1.176c-.648.64-3.376 3.24-6.047 5.783-4.56 4.32-7.704 7.32-10.303 9.816l-1.104 1.056.448.768c1.216 2.088 3.711 4.8 6.16 6.695a8 8 0 0 0 1.551.928c.28.137.802-.062 1.056-.224a8 8 0 0 0 1.016-.864c.64-.64 3.144-3.023 5.552-5.295l20.023-19.135c.037-.076.06-.157.01-.339-.05-.181-.298-.253-1.138-.301zm20.48 12.903h-12.488l-4.336 4.208c-10.127 9.815-10.559 10.263-10.495 10.735.04.28.416.584.928.768 2.28.815 3.928 1.215 5.6 1.36 8.432.751 15.359-1.68 20.919-7.312 2.12-2.16 4.304-5.424 5.2-7.776.72-1.888 1.408-1.984-5.336-1.984zm-44.815 7.487h4.6v5.36l-5.176-.016c-3.744 0-5.335-.096-5.743-.32-.768-.424-1.504-1.6-1.504-2.4 0-.856 1.376-2.256 2.44-2.472.432-.08 2.855-.16 5.383-.16zm7.28 0h25.287c4.016 0 5.047.072 5.727.392.976.464 1.8 1.52 1.8 2.296 0 .856-.912 2.112-1.744 2.4-.455.16-2.775.264-5.72.264h-4.959v-2.68z"/></svg>