<svg xmlns="http://www.w3.org/2000/svg" width="192" height="192" viewBox="0 0 192 192"><path d="M109.42 38.762a432 432 0 0 0-1.16 28.272l-.008 8.32 1.48-.88c5.168-3.024 21.68-10.016 30.672-12.976 8.512-2.816 24.592-6.424 33.008-7.408l2.592-.304-1.136 1.408c-.624.768-3.384 3.824-6.128 6.8-17.816 19.28-34.176 40.992-41.64 55.263-1.535 3.323-1.817 4.495-1.88 7.92.272 5.8 1.88 8.768 8.112 15.016 5.16 5.184 10.424 8.96 18.72 13.424l4.8 2.592-5.936-.568 1.36 1.16c.968.808-.456.296-4.784-1.744-11.976-5.616-23.992-10-33.912-12.384a481 481 0 0 0-15.6-3.2c-15.144-2.888-22.832-4.904-27.336-7.168-2.96-1.488-6.144-4.88-8.856-9.456-3.12-5.264-5.824-8.016-9.704-9.928-3.704-1.816-14-4.88-25.736-7.648-14.592-3.44-14.144-3.52 3.872-.656 7.656 1.216 14.768 2.224 15.792 2.224 1.16.016 3.08-.528 5.024-1.408 5.656-2.576 9.84-2.272 17.464 1.24 3.64 1.68 4.608 1.824 6.84 1.04 1.752-.6 3.76-4.2 4.592-8.24.672-3.264.32-5.264-2.672-15.36-5.008-16.88-4.76-21.504 1.6-30.48 4.768-6.72 13.88-12.984 25.128-17.288 5.968-2.28 5.776-2.36 5.432 2.416"/></svg>