<svg width="192" height="192" fill="none" xmlns="http://www.w3.org/2000/svg"><path d="M54 91a5 5 0 1 1 0 10 5 5 0 0 1 0-10Zm84 0a5 5 0 1 1 0 10 5 5 0 0 1 0-10Z" stroke="#000" stroke-width="10" stroke-linecap="round" stroke-linejoin="round"/><path d="M66 118a4 4 0 1 1 0 8 4 4 0 0 1 0-8Zm60 0a4 4 0 1 1 0 8 4 4 0 0 1 0-8Z" stroke="#000" stroke-width="8" stroke-linecap="round" stroke-linejoin="round"/><path d="M144 170H48m72-122H72m-43.665-6.795c.4-6.725 4.976-12.444 11.577-13.79C51.378 25.079 71.188 22 96 22s44.622 3.078 56.088 5.416c6.601 1.345 11.178 7.064 11.577 13.789l5.958 100.44a6.012 6.012 0 0 1-1.623 4.47 6.002 6.002 0 0 1-4.366 1.885H28.367a6.003 6.003 0 0 1-5.64-3.952 6.001 6.001 0 0 1-.35-2.403l5.958-100.44Z" stroke="#000" stroke-width="12" stroke-linecap="round" stroke-linejoin="round"/></svg>