<svg xmlns="http://www.w3.org/2000/svg" width="192" height="192"><path d="m43.859 22.96 14.604 25.294h42.356l-17.353 29.55a8.77 8.77 0 0 0 .127 9.087L90.5 97.937a6.52 6.52 0 0 0 11.184-.212l28.388-49.471h45.908c.034 0 .028-.39-.03-.867a27.6 27.6 0 0 0-3.685-10.81l-.126-.214a28 28 0 0 0-1.574-2.34l-.168-.217a28 28 0 0 0-1.84-2.176q-.02-.018-.04-.04a27.6 27.6 0 0 0-4.552-3.912l-.017.029a27.5 27.5 0 0 0-15.42-4.747zm-15.682 4.718c-12.025 8.108-15.727 24.138-8.475 36.698l52.457 90.858a27.61 27.61 0 0 0 47.822 0l52.457-90.858.104-.18h-29.661l-38.84 67.273c-3.542 6.136-12.398 6.136-15.941 0z"/></svg>