<svg width="192" height="192" fill="none" xmlns="http://www.w3.org/2000/svg"><path d="M114.777 43.023c1.91 3.317 1.543 7.116-.82 8.484-2.362 1.369-5.825-.212-7.734-3.53-1.91-3.317-1.543-7.116.82-8.484 2.362-1.369 5.825.212 7.734 3.53Z" stroke="#000" stroke-width="10" stroke-linecap="round" stroke-linejoin="round"/><path d="M22 88s42-14 85-14 63 13 63 13l-45 10-18 68-5-68-80-9Zm132-51-26 37m-75 73 48-46M53 27l41 45m59 65-28-36" stroke="#000" stroke-width="12" stroke-linecap="round" stroke-linejoin="round"/></svg>