<svg width="192" height="192" fill="none" xmlns="http://www.w3.org/2000/svg"><path d="M138.426 67.574a59.993 59.993 0 0 1 13.007 65.387A59.997 59.997 0 0 1 96 170 59.999 59.999 0 0 1 53.574 67.574" stroke="#000" stroke-width="12" stroke-linecap="round" stroke-linejoin="round"/><path d="M115.799 91.201a27.997 27.997 0 0 1 6.07 30.514A28.006 28.006 0 0 1 96 139a27.998 27.998 0 0 1-27.462-33.463 28 28 0 0 1 7.663-14.336M53.57 67.57l15.065-15.06a6 6 0 0 1 8.48-.004l3 2.994m58.315 12.07-15.06-15.054a6 6 0 0 0-8.484 0L96.027 71.374 76.2 91.2m39.6-.1-3.8-3.79M96 22l8 8-8 8-8-8 8-8Z" stroke="#000" stroke-width="12" stroke-linecap="round" stroke-linejoin="round"/></svg>