<svg xmlns="http://www.w3.org/2000/svg" width="192" height="192" viewBox="0 0 192 192"><path d="M91.957 175.52c-4.664-1.296-5.544-2.064-21.153-18.401a5081 5081 0 0 0-16.673-17.313c-13.025-13.481-13.361-13.857-14.825-16.641-1.608-3.064-1.488-7.48.288-10.753 2.784-5.12 6.504-7.44 11.889-7.408 6.016.032 5-.833 32.266 27.458 11.561 12 12.281 12.545 14.801 11.233l65.7-65.924c.384-.386.6 1.288.392 8.2-.376 12.297-2.424 20.641-7.4 30.114-4.16 7.92-6.68 10.961-22.05 26.642-28.77 29.362-29.841 30.402-32.681 31.73a15.44 15.44 0 0 1-10.553 1.064m-17.497-63.02C63.844 101.444 61.57 99.621 56.7 98.212c-4.16-1.2-9.553-.784-13.361 1.048-3.76 1.8-7.177 4.848-9.057 8.065-.8 1.368-1.656 2.512-1.904 2.536-.592.064-2.8-6.553-3.888-11.641-1.12-5.24-1.585-18.137-.873-24.05.88-7.273 2.96-13.841 6.673-21.121 4.024-7.889 7.2-12.425 12.249-17.545 9.208-9.337 20.033-15.025 34.394-18.097 5.712-1.216 7.12-1.344 15.28-1.4 9.617-.056 12.626.328 20.802 2.68 5.496 1.584 16.56 7.168 21.457 10.841 5.152 3.856 11.025 9.777 14.08 14.201 4.761 6.912 10.738 20.481 10.338 23.474l-65.988 67.661m3.96-28.106a28.16 28.16 0 0 0 20.017-17.361c5.12-12.977-1.024-28.17-13.873-34.306-4.232-2.016-7.272-2.656-12.36-2.608-7.801.08-14.178 2.96-19.738 8.904a27.36 27.36 0 0 0-6.584 24.698c3.424 14.425 18.48 23.986 32.538 20.673"/></svg>