<svg width="192" height="192" fill="none" xmlns="http://www.w3.org/2000/svg"><path d="M22 79.64c1.096-1.105 3.325-2.377 6.687-3.816 3.365-1.44 7.514-2.934 12.448-4.481a350.014 350.014 0 0 1 55.051-12.34 208.384 208.384 0 0 1 18.532-1.827c5.812-.295 11.075-.22 15.788.226 4.718.443 8.502 1.366 11.351 2.768m-70.4 74.826c-.367-.593-.695-4.066-.986-6.241-.292-2.175-.553-6.921-.77-10.057-.22-3.136-.402-8.681-.551-12.442a408.551 408.551 0 0 1-.213-13.49c0-3.836.031-9.634.106-13.213.075-3.58.22-13.011.438-15.74m70.145 61.667c1.427-1.803 2.622-7.573 3.675-11.441.808-2.966 1.052-6.09 2.03-9.009.631-1.898 1.664-5.023 2.464-5.47m-8.169 25.92c.95 1.772 2.003 3.536 3.619 4.651 3.277 2.266 7.429 3.477 11.407 3.52a13.532 13.532 0 0 0 7.046-2.001c2.019-1.234 3.525-3.231 4.858-5.193a21.032 21.032 0 0 0 2.441-5.133c.524-1.558 1.064-3.765.997-4.841m-30.368 8.997c-1.901 2.441-3.502 4.604-5.899 6.103-3.103 1.938-6.782 3.243-10.433 3.405-3.02.134-6.048-.87-8.84-2.033-2.035-.85-4.034-1.977-5.595-3.543-1.672-1.681-2.863-3.841-3.781-6.032a22.579 22.579 0 0 1-1.534-6.426c-.182-1.78 0-3.587.165-5.371.169-1.837.442-3.662.821-5.473.347-1.646.733-3.295 1.317-4.869.473-1.265 1.096-2.689 1.754-3.654" stroke="#000" stroke-width="12" stroke-linecap="round" stroke-linejoin="round"/></svg>