<svg xmlns="http://www.w3.org/2000/svg" width="192" height="192" viewBox="0 0 192 192"><path d="M122.96 16a4.855 4.855 0 0 0 0 9.71c18.776 0 33.993 15.217 33.993 33.993a4.85 4.85 0 0 0 9.694 0A43.674 43.674 0 0 0 122.96 16m-64.112 6.33c-8.05 0-14.557 6.508-14.557 14.557v18.447h-4.369a14.565 14.565 0 0 0 0 29.13h4.369v33.26A58.287 58.287 0 0 0 102.312 176h14.812a14.565 14.565 0 0 0 0-29.13h-14.557a29.143 29.143 0 0 1-29.146-29.146V84.48h34.471c8.05 0 12.628-6.508 12.628-14.557s-6.524-14.573-14.557-14.573H73.421V36.903c0-8.066-6.524-14.573-14.573-14.573m64.096 13.106a4.857 4.857 0 1 0 .016 9.71c8.05 0 14.557 6.54 14.557 14.573a4.85 4.85 0 0 0 9.694 0 24.286 24.286 0 0 0-24.267-24.283"/></svg>