<svg width="192" height="192" fill="none" xmlns="http://www.w3.org/2000/svg"><path d="M24 28a6 6 0 0 1 6-6h132a6 6 0 0 1 6 6v110a6 6 0 0 1-6 6H30a6 6 0 0 1-6-6V28Zm94 142H74m22-26v26" stroke="#000" stroke-width="12" stroke-linecap="round" stroke-linejoin="round"/><path d="M24 66a78 78 0 0 1 78 78" stroke="#000" stroke-width="12" stroke-linecap="round" stroke-linejoin="round"/><path d="M24 90a54.001 54.001 0 0 1 54 54m-54-30a29.994 29.994 0 0 1 21.213 8.787A30.002 30.002 0 0 1 54 144" stroke="#000" stroke-width="12" stroke-linecap="round" stroke-linejoin="round"/></svg>