<svg xmlns="http://www.w3.org/2000/svg" width="192" height="192" viewBox="0 0 192 192"><path d="M131.36 66.12a29.6 29.6 0 0 0-16.02 5.08l1.76 2.1a24.54 24.54 0 0 0-9.6 6.41h3.64c-.78 2.54-4.42 5.3-6.52 6.63a15.13 15.13 0 0 1-8.95 2.32c4.42 1.77 9.06-.1 13.15-1.87 3.98-1.77 7.62-4.43 11.05-7.08 3.42-2.65 6.52-5.08 10.83-6.18 4.42-1.1 8.5-1.22 12.81.44l2.77-2.77a15 15 0 0 0-6.86-4.08 24.3 24.3 0 0 0-7.03-1.02zm16.02 6.19-3.31 3.98c-7.52-2-13.82.55-18.68 4.2-5.2 3.86-9.83 8.4-15.91 11.05-5.53 2.43-13.26 2.87-18.78.1-5.86-3.09-12.6-5.52-19-2.64-4.32 1.98-6.2 7.29-8.96 10.82-2.54 3.32-6.3 7.74-10.83 7.96-6.3 7.96-15.25 15.47-25.97 15.47v-2.21L16 123.58c14.8 5.08 30.6-.55 42.2-10.17 4.87.45 9.84.78 14.6.22 4.97-.55 9.94-1.21 14.25-4.2a43.4 43.4 0 0 0 34.58 2.88l3.54 2.98c6.91-4.98 15.6-3.88 23.43-2.1 3.75.89 7.4 1.88 10.83 3.76 1.76 1 3.3 1.99 4.86 3.2 1.21 1 3.42 2.44 1.54 3.76L176 125.9c-3.31-4.31-7.74-7.85-12.04-11.27-4.65-3.65-9.4-7.07-14.37-10.17-2.43-1.54-4.86-2.98-7.18-4.53-1.66-1.21-4.97-3.31-5.3-5.63-.45-3.43 2.65-4.75 5.52-5.08 2.76-.34 5.08.77 7.3 2.32v1.87h7.5l2.33-2.76-11.72-11.82zM37.66 78.94c-3.1 0-5.64 1-7.96 2.98 2.76 0 5.53 0 8.29.56 1.21.22 2.76.66 3.42 1.65.78 1.22-2.1 1.33-2.65 1.33 1.22.77 2.43 1.32 3.65 2.1 1.1.77 2.2 1.77 3.31 2.76 1.1 1 2.21 1.66 3.54 2.32 1.21.55 2.98.55 4.3.33 1.22-.22 2.55-.88 3.66-1.43 2.54-1.33 5.08-2.77 7.73-3.87 1.44-.55 2.76-1.1 4.2-1.55 1.55-.44 2.87-.55 4.42-.55a8.36 8.36 0 0 0-5.97-1.44c-2.32 0-4.2.89-6.3 1.66-2.54.88-5.74 1.33-8.28.44-1.33-.44-2.66-.88-3.87-1.65-1.22-.78-2.65-2.1-3.87-2.88-2.43-1.44-4.75-2.76-7.62-2.76"/></svg>