<svg xmlns="http://www.w3.org/2000/svg" width="192" height="192" viewBox="0 0 192 192"><path d="M71.439 32.084a13.4 13.4 0 0 0-3.91.534c-6.942 2.018-10.907 9.156-8.848 15.946 58.238 191.87-28.473-94.056 35.92 118.26l.007-.008c2.066 6.79 9.364 10.67 16.307 8.652 6.954-2.018 10.914-9.164 8.856-15.962L83.844 41.266c-1.679-5.523-6.809-9.117-12.405-9.186z" opacity=".8"/><path d="M123.76 16.012c-4.652.153-9.076 2.724-11.306 7.082-18.821 36.775-37.631 73.553-56.442 110.33-3.236 6.33-.615 14.042 5.873 17.21 6.484 3.167 14.359.6 17.603-5.747 18.83-36.764 37.63-73.543 56.442-110.32 4.58-8.96-2.656-18.873-12.17-18.56z" opacity=".6"/></svg>