<svg xmlns="http://www.w3.org/2000/svg" width="192" height="192" viewBox="0 0 192 192"><path d="M75.077 127.03 48.966 91.632s-6.96-10.263-11.391-17.311c-4.904-7.664.632-19.007 11.391-19.007q2.136 0 3.792.464l9.175-16.239a36 36 0 0 0-12.967-2.608c-11.079 0-23.255 5.52-29.582 18.24-7.28 14.55-.952 26.046 1.736 29.877l45.566 65.43c.32.607 3.32 4.75 8.064 4.75 4.903 0 7.6-3.983 8.071-4.599l13.76-20.23-11.864-16.856zm77.676-36.47-26.423 37.694-13.599-20.223 15.655-22.679c2.848-3.984 9.175-15.175 1.896-30.342-5.856-12.255-18.511-18.239-29.582-18.239s-23.255 5.52-29.582 18.239c-7.28 14.559-.944 26.047 1.744 29.878l45.558 65.589c.16.152 3.008 4.288 7.911 4.288 4.744 0 7.592-4.136 8.064-4.6l41.606-59.597zm-52.053.92s-6.96-10.263-11.391-17.311c-4.904-7.664.64-19.007 11.391-19.007 10.919 0 16.295 11.343 11.391 19.007-4.432 7.2-11.391 17.31-11.391 17.31"/></svg>