<svg xmlns="http://www.w3.org/2000/svg" width="192" height="192" viewBox="0 0 192 192"><path d="M76.306 96.017c0-10.873 8.814-19.686 19.686-19.686s19.686 8.814 19.686 19.686-8.814 19.686-19.686 19.686-19.686-8.814-19.686-19.686m19.686-76.983c-42.513.01-76.974 34.47-76.983 76.983a77 77 0 0 0 .265 5.989l41.358-41.34.026.026a50.05 50.05 0 0 1 35.334-14.69c26.038.007 47.716 19.99 49.836 45.943l22.416-22.416c-11.1-30.317-39.932-50.491-72.217-50.53zm35.121 112.58a50.05 50.05 0 0 1-35.121 14.416c-25.865-.02-47.449-19.756-49.776-45.516l-22.347 22.313c11.205 30.144 39.964 50.149 72.123 50.17 42.519 0 76.991-34.464 77-76.983a77 77 0 0 0-.214-5.57z"/></svg>