<svg xmlns="http://www.w3.org/2000/svg" width="192" height="192" viewBox="0 0 192 192"><path d="M97.293 171.92c-2.347-1.484-.96-18.418 2.649-32.524 3.44-13.413 4.427-14.898 9.182-13.929l6.765 1.387c3.422.71 5.253-.8 5.288-4.32.018-1.511-1.777-1.956-9.99-2.436-6.232-.373-12.579-1.556-16.863-3.147-9.422-3.51-13.19-4.08-14.4-2.16-1.973 3.111-.933 4.054 5.938 5.334 9.76 1.813 10.578 2.72 9.902 11.076-.897 11.129-11.449 34.604-16.418 36.515-4.329 1.662-20.284-10.204-21.796-16.213-1.253-5.014.543-13.28 5.822-26.773 4.632-11.813 5.316-14.73 5.912-25.156l.675-11.787L63.39 66.63c-9.306-30.027-8.915-36.018 2.356-36.018 7.484 0 9.333 2.453 12.062 16.07 1.244 6.258 3.493 15.485 4.987 20.517 1.493 5.03 3.048 11.058 3.457 13.396.41 2.337 1.227 4.56 1.831 4.933.614.382 5.476.889 10.8 1.138 9.076.435 15.44 2.329 17.156 5.093.383.622 4.143 3.164 8.356 5.636 4.222 2.47 9.413 6.31 11.547 8.533 3.733 3.875 3.858 4.284 3.209 10.667-.365 3.653-2.267 10.649-4.204 15.547a106.7 106.7 0 0 0-5.067 19.182c-1.769 11.893-2.782 13.378-12.471 18.222-7.022 3.502-16.551 4.631-20.116 2.382M31.782 121.28a124 124 0 0 0-9.778-10.596c-6.453-6.222-7.44-9.484-4.222-14.062 3.804-5.44 17.369-1.511 23.369 6.773 4.267 5.885 6.418 14.667 4.498 18.32-1.823 3.458-3.245 4.347-7.005 4.365-2.266.009-4.07-1.245-6.862-4.8m110.28-10.81c-2.516-1.013-1.556-7.733 1.876-13.155 5.795-9.13 16.036-22.48 18.667-24.32 3.289-2.302 9.377-2.294 11.689.009 2.364 2.364 2.266 7.182-.214 10.933-2.95 4.444-27.422 27.307-29.12 27.2a11.6 11.6 0 0 1-2.889-.667zm-23.547-23.057c-3.636-4.018-1.778-10.613 6.098-21.6 2.569-3.582 5.484-9.37 6.489-12.853 2.702-9.396 5.76-14.73 9.866-17.244 4.445-2.702 5.823-2.782 8.16-.445 3.254 3.254 2.16 10.01-3.733 23.084-3.049 6.756-6.409 14.853-7.467 18-1.066 3.147-2.569 6.516-3.333 7.485-4.418 5.609-12.596 7.422-16.08 3.573m-24.24-7.573c-3.138-3.138-3.769-9.511-1.511-15.13.702-1.777 1.636-10.932 2.071-20.372.578-12.622 1.289-18.116 2.693-20.791 3.716-7.05 10.116-5.894 12.338 2.23 1.53 5.6.667 29.29-1.2 32.774-.657 1.218-1.19 5.635-1.19 9.813 0 6.871-.32 7.911-3.343 10.933-4.08 4.09-6.204 4.196-9.867.533"/></svg>