<svg xmlns="http://www.w3.org/2000/svg" width="192" height="192" viewBox="0 0 192 192"><path d="M37.609 115.93c7.287 0 13.416-5.426 13.416-14.144V68.922h8.192v53.248h-8.112v-4.944c-3.313 3.411-8.224 5.848-14.432 5.848-12.792 0-20.793-9.625-20.672-20.832V68.93h8.192v32.864c0 7.751 4.965 14.136 13.416 14.136m35.728-47.008v19.4c2.54-2.474 7.228-5.784 14.12-5.784 11.271-.095 20.89 8.81 20.912 20.312 0 11.012-9.15 20.232-20.912 20.232-6.98 0-11.695-3.357-14.192-5.784v4.864h-7.808V68.93zm13.584 47.392c7.688.01 13.64-6.258 13.64-13.464 0-7.456-6.125-13.538-13.648-13.464-7.721-.04-13.793 6.229-13.728 13.456q0 2.816 1.048 5.256c2.205 5.062 7.268 8.205 12.688 8.216m44.768-33.712c11.38 0 19.896 8.476 19.896 20.16v2.512h-32.384c1.096 6.442 6.661 11.032 13.184 11.032q7.104 0 11.472-5.712l5.688 4.112c-4.212 5.572-10.701 8.382-17.16 8.288-12.604.106-21.283-9.75-21.144-20.232q-.001-4.104 1.564-7.76c2.979-6.968 9.787-12.4 18.884-12.4m-12.328 16.584h24.256c-1.16-5.688-6.125-9.972-12.08-9.888-5.915 0-10.723 3.852-12.176 9.888m46.96-6.312q-2.48 2.664-2.48 7.224v22.064h-7.888v-38.8h7.8v4.8a11.2 11.2 0 0 1 3.864-3.728q2.377-1.368 5.656-1.368h2.728v7.144h-3.28a8.4 8.4 0 0 0-6.4 2.664"/></svg>