<svg xmlns="http://www.w3.org/2000/svg" width="192" height="192" viewBox="0 0 192 192"><path d="M113.44 16c-15.989.018-29.837 11.107-33.359 26.703l7.687 1.703c2.695-12.015 13.36-20.545 25.672-20.53 14.574-.028 26.402 11.785 26.375 26.358.032 14.577-11.798 26.402-26.375 26.375v7.875c11.458-.026 21.598-5.663 27.812-14.313 6.068 14.328.068 31.692-14.797 38.578l-1.14.516v49.609l-10.031 13.187h-2.422l-9.719-13.172V109.31l-1.172-.516C72.75 95.82 82.061 52.14 114.033 52.201c4.192 0 8.19.87 11.75 2.406l1.563-3.625a33.6 33.6 0 0 0-13.313-2.718c-18.503.022-33.494 15.028-33.516 33.53 0 13.177 7.623 24.498 18.688 29.97v48.422l11.672 15.812h6.36l12.015-15.797v-48.484c12.263-6.241 18.297-18.45 18.297-29.922a33.56 33.56 0 0 0-3.844-15.594 34.14 34.14 0 0 0 3.985-15.953c-.04-18.895-15.355-34.206-34.25-34.25zm-40.609 85.078-25.922 25.906-2.594 18.156 4.266 4.281 18.172-2.593 25.188-25.203-2.782-2.782-24.266 24.266-14.922 2.14-1.484-1.5 2.125-14.905 24.984-24.984z"/></svg>