<svg xmlns="http://www.w3.org/2000/svg" width="192" height="192" viewBox="0 0 192 192"><path d="M125.23 108.99c-.89-.25-1.743-.62-2.536-1.096-.552-.416-.792-.864-.72-1.448.06-.61.42-1.15.96-1.44.552-.352 1.336-.48 2.368-.48 1.104 0 2 .24 2.616.72s.856 1.096.856 1.992h4.367a5.9 5.9 0 0 0-.552-2.616c-1.462-3.085-5.276-3.767-7.319-3.744-1.784 0-7.334.422-7.8 5.64-.064 2.464 1.44 4.296 4.6 5.568 2.304.855 3.999 1.511 4.856 1.815 1.761.659 2.125 1.324 1.992 2.544-.574 1.992-3.67 1.684-3.712 1.68a4.48 4.48 0 0 1-2.96-1.096c-.649-.656-.96-1.504-.96-2.784h-4.368c0 2.975 1.082 4.586 2.136 5.64 2.141 1.93 5.609 1.993 6.047 1.993 1.2 0 2.305-.176 3.265-.416a6.2 6.2 0 0 0 4.055-3.12c.416-.72.552-1.585.656-2.72 0-1.44-.32-2.545-.968-3.44-.576-.577-2.023-1.44-4.16-2.232zm-17.967 1.44h-4.056v-5.504h4.056c3.076 0 3.19 2.164 3.168 2.728 0 2.6-2.17 2.776-3.168 2.776m8.287 11.216-4.783-7.807a5.6 5.6 0 0 0 2.784-2.305c.655-.96.863-2.304.863-3.88.045-1.238-.216-4.822-4.543-6.055a12.8 12.8 0 0 0-3.2-.416h-7.936v20.383h4.367v-7.32h3.44l3.64 7.32h5.33v.072zm-33.583 0 1.336-4.48h7.393l1.344 4.472h4.775l-7.143-20.375h-5.338l-7.143 20.383zm2.2-8.431 2.712-8.28h.24l2.72 8.28zm-23.198 8.423h13.806v-4.224h-9.44v-4.303h8.432v-3.817h-8.431v-4.36h9.135v-3.743H60.936v20.447zm98.811-27.463h16.216v-4.952H164.86v-5.016h9.936v-4.504h-9.936V74.56h10.76v-4.367h-15.952v24.03h.104zm-15.128 0h5.153V74.623h7.015v-4.368h-19.183v4.368h7.016zm-24.135 0 1.592-5.16h8.688l1.584 5.16h5.64l-8.424-24.015h-6.288l-8.423 24.023zm2.656-9.872 3.2-9.68h.233l3.2 9.688zm-10.824-14.144h-8.183L99.63 87.175h-.24l-4.536-17.016H86.67v24.023h4.528V74.615h.248l5.736 19.559h4.712l5.735-19.558h.24v19.558h4.536zm-35.96 24.023h5.16V70.159h-5.16zm-15.598 0h5.152V74.615h7.007v-4.36H53.776v4.36h7.015zm-20.872 0H55.91v-4.95H45.079V70.118h-5.152zm-23.91-24.023v13.68c-.067 1.502.118 2.987.312 4.472.138 1.03.668 1.907 1.2 2.776 1.68 2.376 4.368 3.52 8.28 3.52 3.92 0 6.6-1.2 8.288-3.52.64-.82.918-1.802 1.2-2.784.263-1.476.305-2.969.311-4.464v-13.68h-5.16v13.783c.263 5.625-3.456 5.921-4.599 5.88-1.321.028-4.85-.408-4.6-5.88v-13.76H16.01z"/></svg>