<svg xmlns="http://www.w3.org/2000/svg" width="192" height="192" viewBox="0 0 192 192"><path d="M172.8 91.881c.212 2.272.152 5.576.152 7.9.1 42.01-34.281 76.128-76.78 76.22-42.496.093-77.032-33.882-77.125-75.88A75.58 75.58 0 0 1 41.875 45.9l-7.788-7.382V16L54.67 35.831a77.85 77.85 0 0 1 83.16.316L159.04 16v22.524l-8.492 7.796a75.6 75.6 0 0 1 18.865 30.696H152.19C139.458 46.448 104.065 31.88 73.138 44.46 42.206 57.052 27.462 92.028 40.202 122.6c12.731 30.56 48.128 45.136 79.057 32.545 19.66-8 33.636-25.6 36.816-46.385h-50.608L89.408 91.88z"/></svg>