<svg xmlns="http://www.w3.org/2000/svg" width="192" height="192" viewBox="0 0 192 192"><path d="M74.045 16c-6.909 0-13.191 2.715-17.733 7.088-4.55 4.374-7.37 10.411-7.37 17.053v78.074c0 5.494 5.762 4.5 9.39 4.152l.164-82.226c0-4.106 1.753-7.842 4.57-10.554A15.8 15.8 0 0 1 74.04 25.2h43.909c4.269 0 8.161 1.68 10.979 4.387 2.817 2.712 4.564 6.447 4.564 10.554l.013 64.316c3.694.086 9.547.881 9.547-4.485V40.14c0-6.647-2.817-12.676-7.363-17.053-4.547-4.374-10.825-7.089-17.733-7.089zm5.009 13.333c-1.78 0-3.224 1.493-3.224 3.335 0 1.838 1.449 3.328 3.224 3.328h27.176c1.774 0 3.217-1.493 3.217-3.335 0-1.838-1.443-3.328-3.217-3.328zm6.86 26.666c-5.553 0-10.084 4.494-10.084 10.004 0 5.506 4.534 9.998 10.09 9.998 5.552 0 10.076-4.494 10.076-10.004 0-5.506-4.527-9.998-10.083-9.998m-.184 26.666c-4.22 0-7.637 3.247-7.637 7.252v49.499c-.054 3.72-.637 9.442-3.682 10.92-2.122 1.03-5.825.799-8.03-2.524-3.284-5.805-3.873-11.12-3.877-11.201-.352-3.529-3.64-6.137-7.363-5.833-3.723.312-6.483 3.395-6.173 6.931.062.743 1.766 18.353 17.295 29.517 8.125 5.842 18.302 8.775 30.386 8.775q7.763-.001 16.556-1.615c6.702-1.23 26.551-9.32 29.765-29.673.1-.648.085-2.134.085-2.897v-19.74c0-3.418-2.92-6.193-6.519-6.193s-6.52 2.775-6.52 6.192v9.397h-2.255v-19.447c0-3.56-3.042-6.44-6.794-6.44s-6.794 2.88-6.794 6.44v19.447h-3.197v-25.946c0-3.959-3.383-7.16-7.553-7.16s-7.552 3.201-7.552 7.16v25.946h-2.498V89.917c0-4.004-3.424-7.252-7.644-7.252z"/></svg>