<svg xmlns="http://www.w3.org/2000/svg" width="192" height="192" viewBox="0 0 192 192"><path d="m24.485 32.661-3.734 74.505c-.248 5.071 3.188 9.795 6.484 13.17 4.132-23.257 7.986-38.819 12.639-50.024 4.135-7.63 10.66-13.936 18.763-18.591l.89-17.294c.662-12.855-11.103-18.404-16.654-18.404q-.9-.045-1.78 0c-4.502 0-16 4.25-16.608 16.638m59.054-9.436a5.6 5.6 0 0 0-1 .125 5.6 5.6 0 0 0-4.374 5.452l-.078 21.356a59.2 59.2 0 0 0-19.778 8.358c-5.848 3.936-10.474 8.86-13.53 14.482-4.583 8.455-8.196 22.94-7.78 26.043.096.72 1.584 2.432 4.36 4.656a56 56 0 0 0 4.249 3.062 88 88 0 0 0 9.686 5.484c20.205 9.862 56.538 19.185 105.91 4.827.568-7.239.094-18.915-3.265-29.761a37 37 0 0 0-2.844-7.358c-1.32-2.776-2.878-5.405-4.718-7.765l14.14-12.95c4.624-4.585-1.89-11.692-6.86-7.484l-14.59 13.388c-9.055-7.679-21.401-13.42-35.48-15.732a80 80 0 0 0-18.293-.906l.078-19.67a5.6 5.6 0 0 0-5.827-5.608zM65.026 73.249c1.286-.061 2.536.245 3.625.968 3.159 2.088 3.69 6.887 1.171 10.702-2.527 3.816-7.151 5.22-10.31 3.125-3.16-2.088-3.685-6.886-1.157-10.702 1.659-2.51 4.216-3.977 6.671-4.093m49.071 16.654c3.1-.1 6.221 2.252 7.483 5.89 1.512 4.327-.173 8.844-3.765 10.092-3.583 1.231-7.706-1.274-9.202-5.593-1.495-4.32.198-8.837 3.781-10.077a5.7 5.7 0 0 1 1.703-.313zm-79.473 16.045-10.139 41.947h110.11v-6.718c-.07-7.647 4-12.732 4.903-13.463-21.622 3.46-46.532 3.683-71.222-4.284-5.711-1.84-10.786-3.91-15.17-6.046-4.12-1.992-7.634-4.025-10.53-5.937zm122.01 19.59c-8.967-.54-16.518 6.625-16.451 15.608l.219 6.765s6.603.08 15.17 0c8.574-.08 15.685 0 15.685 0l-.048-7.015c-.07-8.153-6.437-14.862-14.576-15.357zm-114.92 30.169v11.95a10.4 10.4 0 0 0 .547 3.516c.981 2.703 2.885 3.828 3.968 4.265 1.018.383 2.1.573 3.187.562v-.016a8 8 0 0 0 3.187-.609 6.96 6.96 0 0 0 3.984-4.312c.373-1.034.562-2.174.562-3.406v-11.95H53.4v12.17a6.4 6.4 0 0 1-.25 1.827c-.256.902-.896 1.894-1.983 2.422-.553.234-1.15.34-1.75.312a4 4 0 0 1-1.719-.312c-1.108-.528-1.744-1.523-2-2.422a6.4 6.4 0 0 1-.25-1.828v-12.17zm45.665 0v19.84h3.734v-7.92h7.952v-3.546h-7.952v-4.828h8.842v-3.546zm48.274 0v19.857h8.061c3.386-.007 6.58-2.141 6.5-5.53.07-2.253-1.535-4.008-3.375-4.656v-.219c1.6-.76 2.718-2.373 2.656-4.265.025-3.1-3.054-5.207-6.077-5.187zm-26.418.344-4.609 6.561a24 24 0 0 0-1.921 3.265c-.502 1.046-.766 2.22-.766 3.5.001.87.16 1.733.469 2.546a6.4 6.4 0 0 0 1.39 2.11 7.2 7.2 0 0 0 2.156 1.437c.894.358 1.85.533 2.812.515a7.2 7.2 0 0 0 2.516-.453c2.325-.944 4.18-3.204 4.186-6.03.002-3.099-2.277-6.014-5.702-6.14a4 4 0 0 0-1.468.266l-.141-.157 3.874-5.499zm-28.918.546-5.577 2.61 1.328 3.077 3.359-1.422v14.685h3.64v-18.95zm45.806 0-8.42 12.53v2.936h8.764v3.484h3.593v-3.484h2.39v-3.39h-2.39v-12.076zm13.279 2.469h3.859c1.374-.083 2.635.951 2.609 2.359-.002.229-.095 2.375-2.718 2.375v.016h-3.75zm-74.442 2.656v4.718h-4.718v3.202h4.702v4.719h3.219v-4.719h4.749v-3.202h-4.734v-4.718zm61.257.265h.234v6.703h-4.733zm-16.326 4.64c1.377.501 1.99 1.834 2 2.921.006 1.76-1.455 3.073-3.172 3.094-1.467.031-2.532-.917-2.984-1.812-.16-.4-.234-.828-.234-1.282-.01-.438.07-.874.234-1.28a3.31 3.31 0 0 1 2.844-1.86c-.013.013.572-.066 1.312.219m29.511.406h4.046c2.813 0 3.043 2.049 3.031 2.563.03.867-.465 2.53-2.921 2.53h-4.156z"/></svg>