<svg xmlns="http://www.w3.org/2000/svg" width="192" height="192"><path d="M129.37 16a150.7 150.7 0 0 1 46.562 46.562V38.724c0-12.522-10.203-22.725-22.725-22.725zm-81.808.092c-11.316 1.391-20.127 10.946-20.127 22.633v2.783c7.328-1.67 15.027-2.598 22.818-2.598 52.198 0 95.218 38.9 101.8 89.224a6.5 6.5 0 0 1 .924-.066c1.22 0 2.435.363 3.428.93 1.23.703 2.234 1.908 2.75 3.144l4.095 9.719 10.736.941.108.014c.56.08 1.149.223 1.73.455l.014-.2v-1.484c.093-69.194-56.208-125.5-125.59-125.5zm2.691 45.728c-7.976 0-15.584 1.206-22.818 3.34v24.578c6.957-3.061 14.75-4.823 22.818-4.823 31.351 0 56.763 25.415 56.763 56.765 0 8.07-1.67 15.768-4.73 22.725h24.58a79 79 0 0 0 2.135-9.267l-.764-.66-.03-.028c-.953-.859-1.77-2.115-2.071-3.5a6.9 6.9 0 0 1 .25-3.728 7 7 0 0 1 1.931-2.852 6.2 6.2 0 0 1 1.78-1.086q.015-.8.015-1.603c.093-44.058-35.709-79.861-79.859-79.861m0 45.726c-18.903 0-34.227 15.324-34.226 34.226s15.324 34.227 34.226 34.226 34.227-15.324 34.226-34.226-15.324-34.227-34.226-34.226m102.73 24.52q-.738 0-1.443.403t-1.041 1.21l-5.037 11.954-13.03 1.143q-.94.134-1.478.603a2.9 2.9 0 0 0-.804 1.21q-.27.738-.102 1.511t.84 1.377l9.873 8.53-2.955 12.692q-.202.873.135 1.578.335.706.94 1.176.603.47 1.41.537c.806.067 1.052-.09 1.544-.404l11.148-6.715 11.148 6.715q.74.471 1.545.404a2.6 2.6 0 0 0 1.41-.537q.605-.47.942-1.176.335-.705.133-1.578l-2.956-12.693 9.873-8.529q.672-.604.84-1.377a2.7 2.7 0 0 0-.101-1.512 2.9 2.9 0 0 0-.805-1.209q-.538-.47-1.478-.603l-13.03-1.143-5.037-11.955q-.335-.806-1.04-1.209a2.9 2.9 0 0 0-1.444-.402zm0 9.538 3.897 9.133 9.805.873-7.455 6.449 2.216 9.67-8.463-5.172-8.46 5.105 2.214-9.603-7.455-6.516 9.807-.873z"/></svg>