<svg xmlns="http://www.w3.org/2000/svg" width="192" height="192" viewBox="0 0 192 192"><path d="M158.13 138.82a56 56 0 0 1-.696-8.52 56 56 0 0 1 .696-8.649 53 53 0 0 1 8.52-.704 56 56 0 0 1 8.657.704 56 56 0 0 1 .696 8.513 56 56 0 0 1-.696 8.648 56 56 0 0 1-8.528.704 56 56 0 0 1-8.641-.696m4.336-57.683-12.449 5.36h-.232l-12.449-5.36a.424.424 0 0 1 0-.824l12.45-5.36h.231l12.45 5.328a.424.424 0 0 1 0 .824m-18.81 8.129-12.449 5.36h-.24l-12.44-5.36a.424.424 0 0 1 0-.825l12.448-5.344h.232l12.45 5.36a.424.424 0 0 1 0 .825m-18.81 8.136-12.457 5.36h-.224l-12.449-5.36a.424.424 0 0 1 0-.824l12.45-5.36h.223l12.457 5.36a.448.448 0 0 1 0 .824m-18.817 8.12-12.449 5.369h-.224l-12.457-5.36a.424.424 0 0 1 0-.825l12.457-5.36h.224l12.45 5.36a.424.424 0 0 1 0 .817M73.23 70.305l-12.442-5.36a.424.424 0 0 1 0-.817l12.45-5.36h.215l12.45 5.36a.424.424 0 0 1 0 .816l-12.45 5.36zm-6.13 2.768-12.448 5.36h-.24l-12.433-5.36a.448.448 0 0 1 0-.824l12.449-5.36h.232l12.449 5.36a.448.448 0 0 1 0 .824M48.308 81.2l-12.457 5.36h-.24l-12.45-5.36a.424.424 0 0 1 0-.816l12.45-5.368h.24l12.457 5.36a.424.424 0 0 1 0 .824M79.598 56l12.449-5.361h.232L104.728 56a.448.448 0 0 1 0 .824l-12.45 5.36h-.231l-12.45-5.36a.448.448 0 0 1 0-.824m89.566 25.09v-.185l-.04-.192a.8.8 0 0 0-.08-.224l-.056-.08a.8.8 0 0 0-.392-.344L92.919 47.44a.8.8 0 0 0-.584 0L16.683 80.033a1.136 1.136 0 0 0 0 2.08l75.1 32.362a2.16 2.16 0 0 0 1.704 0l71.596-30.866v30.186a2.13 2.13 0 0 0 1.704 2.128 2.048 2.048 0 0 0 2.392-2.024V81.073M43.15 123.155c26.065 28.178 75.66 28.586 95.31 1.408a3.2 3.2 0 0 0 .56-1.824l.063-19.44c0-2.04-1.312-2.745-2.984-1.953L93.6 119.46a2.24 2.24 0 0 1-1.944 0L45.205 99.3c-1.656-.785-2.88-.08-2.872 1.967l.024 19.81a3.2 3.2 0 0 0 .776 2.071"/></svg>