<svg xmlns="http://www.w3.org/2000/svg" width="192" height="192"><path d="M80.166 16v63.869h12.929V43.278l16.762 36.591h12.962V16h-12.962v36.536L93.095 16zm63.797.005v63.868h12.978V16.005zm-123.49.002v42.645c0 11.982 9.36 21.223 21.287 21.223 11.95 0 21.088-9.242 21.088-21.223V16.007H50.38v42.645c0 4.844-3.817 8.748-8.62 8.748-4.78 0-8.628-3.904-8.628-8.748V16.007zm59.689 83.216v63.845h42.653v-12.985H93.091V99.224zm-38.414.003c-11.91 0-21.279 9.544-21.279 21.095v21.653c0 11.4 9.369 21.095 21.279 21.095 1.442 0 2.844-.15 4.183-.397L50.376 176h12.468l-5.904-19.184c3.458-3.952 5.904-9.329 5.904-14.842V120.32c0-11.552-9.138-21.095-21.095-21.095zm108.68 0c-11.942 0-21.103 9.544-21.103 21.095v21.653c0 11.4 9.161 21.095 21.103 21.095 11.918 0 21.096-9.695 21.096-21.095v-21.653c0-11.552-9.178-21.095-21.096-21.095m-108.68 12.491c4.812 0 8.628 3.832 8.628 8.604v21.653c0 4.198-3.816 8.11-8.628 8.11-4.772 0-8.62-3.912-8.62-8.11V120.32a8.59 8.59 0 0 1 8.62-8.604m108.68 0c4.748 0 8.653 3.832 8.653 8.604v21.653c0 4.198-3.905 8.11-8.653 8.11-4.772 0-8.652-3.912-8.652-8.11V120.32c0-4.772 3.88-8.604 8.652-8.604"/></svg>