<svg xmlns="http://www.w3.org/2000/svg" width="192" height="192" viewBox="0 0 192 192"><path d="M84.102 139.42c-28.805-.104-41.836.16-48.187 0-4.671-.12-5.775-.608-6.615-.896-4.88-1.656-9.071-5.575-11.511-10.775-1.392-2.984-1.552-3.64-1.728-7.135a28 28 0 0 1 .256-6.04c1.4-6.719 7.503-13.263 13.903-14.919a20 20 0 0 1 4.08-.592c1.68 0 1.84-.08 2.04-1.04.903-4.375 1.84-6.775 4.079-10.542 6.191-10.4 16.838-16.582 28.5-16.582h2.96l1.696-2.192c4.344-5.592 12.103-11.143 18.742-13.415 9.615-3.28 18.318-3.68 26.805-1.192a43.76 43.76 0 0 1 29.541 28.973l1.056 3.44h1.784c6.655 0 14.04 3.871 18.782 9.847 2.64 3.343 3.008 3.967 4.136 7.087 2.64 7.311 1.92 16.518-1.784 22.83-3.36 5.743-9.407 10.567-15.342 12.247-3.408.96-14.871 1.104-73.193.896"/></svg>