<svg xmlns="http://www.w3.org/2000/svg" width="192" height="192" viewBox="0 0 192 192"><path d="M146.26 45.242c-3.336 0-6.783.6-10.239 1.88-1.072.36-2.144.888-3.472 1.424-.984.536-1.96 1.064-2.848 1.688a52.8 52.8 0 0 0-9.159 7.735 43 43 0 0 0-3.44 4.152l-1.448-3.888c0-.08-.088-.08-.088-.176a2.344 2.344 0 0 0-3.024-1.424l-13.519 5.072a3.2 3.2 0 0 0-.8.448L92 68.464a2.32 2.32 0 0 0-.528 2.48L93.6 76.64l-11.56-7.56a2.32 2.32 0 0 0-2.127-.264l-11.831 4.36a1.6 1.6 0 0 0-.752.424l-12.935 4.816a2.4 2.4 0 0 0-1.072.8l-5.951 5.96a2.32 2.32 0 0 0-.72 2.671l10.95 29.246c.353.896.537 1.696.713 2.496.08.528.176 1.064.176 1.6h-.888a5.6 5.6 0 0 1-3.472-1.424c-1.24-1.064-2.128-2.664-2.752-4.36L40.436 86.16a2.344 2.344 0 0 0-3.024-1.424L23.813 89.8a2.4 2.4 0 0 0-.8.536L16.87 96.47a2.32 2.32 0 0 0-.712 2.664l10.67 28.638c2.76 7.2 6.76 12.8 12.184 16 4 2.4 8.623 3.375 13.959 2.847a33.6 33.6 0 0 0 15.647-5.872 20.3 20.3 0 0 0 3.647-3.111l.08-.088c.544-.536 1.256-1.16 1.872-1.776 1.536-1.488 3.064-2.976 4.384-4.448l1.128 3.024a2.344 2.344 0 0 0 3.024 1.424l13.599-5.072a2.4 2.4 0 0 0 .8-.536l6.32-6.311a2.08 2.08 0 0 0 .711-1.6 3.2 3.2 0 0 0-.36-1.24l-2.4-6.32 12.543 8.36a2.32 2.32 0 0 0 2.128.272l11.12-4.096a1.84 1.84 0 0 0 .88-.528l6.615-6.64a28.8 28.8 0 0 0 17.039-1.191 35.2 35.2 0 0 0 9.96-5.776c1.605-1.348 13.501-11.793 14.23-25.966a32.4 32.4 0 0 0-2.048-13.423c-2.936-7.92-8.535-14.223-15.47-17.6a27.2 27.2 0 0 0-12.16-2.863m-6.207 25.006q.984.015 2.183.344c1.52.448 2.936 1.336 4.096 2.584 2.291 2.457 3.35 5.682 3.552 6.487.088.448.176.8.272 1.248.264 1.6.44 2.84.264 3.824a2.72 2.72 0 0 1-.712 1.6 3.36 3.36 0 0 1-2.224.712c-1.152.08-2.576-.272-4.088-.896a10.4 10.4 0 0 1-3.2-2.752 16.5 16.5 0 0 1-3.383-8c-.407-2.678-.062-4.316 1.512-4.895a4.8 4.8 0 0 1 1.728-.256" opacity=".5"/><path d="M146.09 50.673c-2.707.01-5.447.508-8.124 1.516-13.071 4.8-18.225 18.857-13.25 31.92 4.896 13.07 18.063 20.174 31.046 15.374 12.895-4.8 18.137-18.857 13.249-31.92-4.044-10.808-13.251-16.928-22.92-16.89zm-.078 7.921c6.19.037 11.832 4.231 14.64 11.734 3.28 8.8.792 17.867-8.015 21.155s-16.72-1.95-20-10.749c-3.295-8.72-.706-17.883 8.094-21.17 1.769-.66 3.547-.979 5.28-.968zm-34.451 4.172-7.828 2.937 11.921 31.92-35.388-23.108-7.546 2.844 17.233 46.044 7.921-2.938-12.452-33.34 36.544 24.28 6.843-2.5zM67.033 79.484 59.11 82.42l9.859 26.404c3.376 8.712-.794 14.572-6.578 16.796-5.775 2.136-12.703.36-15.999-8.359L36.52 90.858l-7.906 2.938 9.515 25.873c4 10.67 11.9 19.21 26.842 13.874.045 0 .487-.172.532-.172 15.207-5.96 15.208-17.35 11.296-27.748z"/></svg>