<svg width="192" height="192" fill="none" xmlns="http://www.w3.org/2000/svg"><path d="M168 98a71.986 71.986 0 0 1-5.481 27.553 71.988 71.988 0 0 1-38.966 38.966 71.986 71.986 0 0 1-55.106 0 71.99 71.99 0 0 1-38.966-38.966A71.997 71.997 0 0 1 24 98" stroke="#000" stroke-width="12" stroke-linecap="round" stroke-linejoin="round"/><path d="M120 98a23.996 23.996 0 0 1-14.816 22.173 23.997 23.997 0 0 1-31.357-12.989A23.994 23.994 0 0 1 72 98" stroke="#000" stroke-width="12" stroke-linecap="round" stroke-linejoin="round"/><path d="M96 122a23.997 23.997 0 0 1 22.173 14.816 23.996 23.996 0 0 1-12.989 31.357A23.997 23.997 0 0 1 96 170" stroke="#000" stroke-width="12" stroke-linecap="round" stroke-linejoin="round"/><circle cx="144" cy="46" r="24" stroke="#000" stroke-width="12" stroke-linecap="round" stroke-linejoin="round"/><circle cx="48" cy="46" r="24" stroke="#000" stroke-width="12" stroke-linecap="round" stroke-linejoin="round"/><path d="M24 94a24 24 0 0 1 48 0m48 0a24.003 24.003 0 0 1 24-24 24.002 24.002 0 0 1 24 24m-48 0v4m-96-4v4m144-4v4m-96-4v4" stroke="#000" stroke-width="12" stroke-linecap="round" stroke-linejoin="round"/></svg>