<svg width="192" height="192" fill="none" xmlns="http://www.w3.org/2000/svg"><path d="M26.358 98.319A75 75 0 0 1 63.583 26m0 0H22m41.583 0v36.583" stroke="#000" stroke-width="12" stroke-linecap="round" stroke-linejoin="round"/><path d="M96 31a5 5 0 1 0 0-10 5 5 0 0 0 0 10Zm60.622 25a5 5 0 1 1 0 10 5 5 0 0 1 0-10ZM166 101a5 5 0 1 0 0-10 5 5 0 0 0 0 10Zm-35-60.622a5 5 0 1 0 0-10 5 5 0 0 0 0 10ZM96 171a5 5 0 1 0 0-10 5 5 0 0 0 0 10Zm60.622-35a5 5 0 1 0-.001-10.001 5 5 0 0 0 .001 10.001ZM35.378 126a5 5 0 1 1 0 10 5 5 0 0 1 0-10ZM61 161.622a5 5 0 1 0 0-10 5 5 0 0 0 0 10Zm70-10a5 5 0 1 1-.001 10.001 5 5 0 0 1 .001-10.001Z" stroke="#000" stroke-width="10" stroke-linecap="round" stroke-linejoin="round"/></svg>