<svg xmlns="http://www.w3.org/2000/svg" width="192" height="192"><path d="M73.584 35.094v35.778a10.892 11.03 0 0 1-21.763 0V60.484a57.115 57.838 0 0 0-10.913 24.309 10.892 11.03 0 1 1-21.361-4.23 78.91 79.909 0 0 1 15.735-34.461h-7.91a10.892 11.03 0 1 1 0-22.039h35.32a10.892 11.03 0 0 1 10.892 11.03zm-34.368 98.917a10.871 11.009 0 0 1-14.361-5.6 79.28 80.284 0 0 1-3.913-11.095 10.892 11.03 0 1 1 20.97-5.89 57.887 58.62 0 0 0 2.845 8.043 10.882 11.019 0 0 1-5.541 14.542m30.72 26.119a10.871 11.009 0 0 1-15.016 3.448 79.544 80.551 0 0 1-9.359-6.982 10.892 11.03 0 0 1 14.17-16.738 57.475 58.202 0 0 0 6.8 5.065 10.892 11.03 0 0 1 3.405 15.206zm38.916 4.69A10.892 11.03 0 0 1 98.129 176h-1.12a79.185 80.187 0 0 1-8.577-.47 10.892 11.03 0 0 1 2.369-21.91 57.21 57.934 0 0 0 7.021.331h.148a10.892 11.03 0 0 1 10.892 10.87zm.36-137.58A10.892 11.03 0 0 1 98.33 38.056h-.35a10.893 11.03 0 0 1 .18-22.06h.18l.201.011a10.892 11.03 0 0 1 10.67 11.244zm34.22 120.47a10.882 11.019 0 0 1-3.173 15.26 79.069 80.069 0 0 1-8.428 4.851 10.892 11.03 0 1 1-9.57-19.8 57.94 58.673 0 0 0 6.112-3.512 10.892 11.03 0 0 1 15.059 3.213zM122.42 31.04a10.882 11.019 0 0 1 14.91-3.844l.191.118a10.892 11.03 0 1 1-11.209 18.89l-.106-.064a10.882 11.019 0 0 1-3.786-15.1m45.049 101.14a79.312 80.316 0 0 1-3.332 5.997 10.892 11.03 0 1 1-18.495-11.63 52.98 53.651 0 0 0 2.412-4.337 10.892 11.03 0 1 1 19.416 9.96zm-20.716-64.809a10.892 11.03 0 0 1 18.929-10.88l.084.14a10.892 11.03 0 1 1-18.93 10.89zm29.229 26.633a98.632 99.881 0 0 1 0 3.92 10.892 11.03 0 0 1-10.882 10.762h-.265a10.892 11.03 0 0 1-10.617-11.298 48.909 49.528 0 0 0 0-2.849 10.892 11.03 0 0 1 10.607-11.298h.275a10.892 11.03 0 0 1 10.882 10.752z"/></svg>