<svg xmlns="http://www.w3.org/2000/svg" width="192" height="192" viewBox="0 0 192 192"><path d="M139.28 104.75c-3.75 7.917-8.333 14.999-13.749 20.832 3.75-14.165 2.084-32.498-6.25-49.998-4.166-9.166-10-17.499-16.665-24.582 10.416-7.917 21.25-10.417 29.582-6.667 5.417 2.5 9.583 7.084 11.666 13.75 5 12.915 2.916 29.998-4.584 46.664m-86.662 0c-7.5-16.666-9.583-33.748-4.583-46.665 2.084-6.665 6.25-11.249 11.666-13.749 8.332-3.75 19.166-1.25 29.582 6.667-6.666 7.083-12.5 15.416-16.665 24.582-8.334 17.499-10 35.832-6.25 49.998-5.417-5.833-10-12.915-13.749-20.832m51.248 35.831a19.58 19.58 0 0 1-15.833 0c-15.832-7.083-19.165-35.414-7.083-61.663 4.167-8.334 9.167-15.416 15-21.666 5.832 6.25 10.831 13.332 14.998 21.666 12.082 26.249 8.75 54.58-7.082 61.663m21.665-106.66c-9.583-.417-20 3.333-29.582 11.249-9.583-7.917-20-11.666-29.582-11.249 17.843-12.171 41.32-12.171 59.163 0M153.03 55.17c-8.333-23.333-30.832-39.165-57.08-39.165-26.25 0-49.165 15.832-57.08 39.165-5.939 17.93-1.968 36.316 5 53.33 11.664 24.999 32.913 42.498 52.08 42.498 19.166 0 40.415-17.499 52.081-42.498 8.334-18.749 10.416-38.331 5-53.33m-40.83 109.58c-7.236 2.227-19.158 4.31-32.082 0-2.5-.417-5.416.833-5.833 2.917-.833 2.5.416 5 2.916 5.833 12.607 3.362 25.035 3.324 37.498 0 2.5-.833 3.75-3.333 3.333-5.417-.833-2.5-3.75-3.75-5.832-3.333"/></svg>