<svg width="192" height="192" fill="none" xmlns="http://www.w3.org/2000/svg"><path d="M121 64V28a6 6 0 0 0-6-6H45a6 6 0 0 0-6 6v36" stroke="#000" stroke-width="12" stroke-linecap="round" stroke-linejoin="round"/><path d="M117 61H83a6 6 0 0 0-6 6v103l22.203-30.529a6.002 6.002 0 0 1 4.852-2.471H117m0 0a38.001 38.001 0 0 0 26.87-64.87A38 38 0 0 0 117 61" stroke="#000" stroke-width="12" stroke-linecap="round" stroke-linejoin="round"/><path d="M39 64a41 41 0 1 0 82 0" stroke="#000" stroke-width="12" stroke-linecap="round" stroke-linejoin="round"/></svg>