<svg width="192" height="192" fill="none" xmlns="http://www.w3.org/2000/svg"><path d="M128 123c0-34.527-5.778-55.473-8.482-63.383-.764-2.236-2.884-3.617-5.247-3.617H77.729c-2.363 0-4.483 1.38-5.248 3.617-2.542 7.44-7.805 26.41-8.422 57.367C63.993 120.297 66.686 123 70 123h30m28 0h36m-36 0c-12.5 5.667-32 21-32 45.5m32-45.5h-28m0 0c-24 0-47 27-47 33" stroke="#000" stroke-width="12" stroke-linecap="round" stroke-linejoin="round"/><path d="M85 100a3 3 0 1 1 0 6 3 3 0 0 1 0-6Zm22 0a3 3 0 1 1 0 6 3 3 0 0 1 0-6Z" stroke="#000" stroke-width="6" stroke-linejoin="round"/><path d="M68 80h52" stroke="#000" stroke-width="10" stroke-linecap="round"/><path d="M124 77.5c5 26.5 44 25.5 44 25.5" stroke="#000" stroke-width="12" stroke-linecap="round"/><path d="m95.999 59-2 20" stroke="#000" stroke-width="10" stroke-linecap="round"/><path d="M96 170c40.869 0 74-33.131 74-74 0-40.87-33.131-74-74-74-40.87 0-74 33.13-74 74 0 40.869 33.13 74 74 74Z" stroke="#000" stroke-width="12" stroke-linejoin="round"/></svg>