<svg width="192" height="192" fill="none" xmlns="http://www.w3.org/2000/svg"><path d="M147.297 74.297c0 33.779-27.383 61.162-61.162 61.162-10.636 0-20.639-2.715-29.352-7.49m90.514-53.672c0-10.648-2.721-20.66-7.505-29.38m7.505 29.38c0-6.905-1.479-10.958-4.161-14.017a16.771 16.771 0 0 0-28.3 5.139m14.576-34.34a61.374 61.374 0 0 1 10.38 13.838M56.784 127.97c-17.804-9.757-30.224-28.114-31.67-49.482m31.67 49.482a36.088 36.088 0 0 0 15.647 3.545c20.1 0 36.393-16.377 36.393-36.579m-52.04 33.034a36.272 36.272 0 0 1-4.11-2.309m20.797-16.093c-22.971 0-41.593-18.716-41.593-41.804 0-2.759.266-5.455.774-8.065m53.296 28.967c-18.376 0-33.273-14.973-33.273-33.443a33.43 33.43 0 0 1 10.64-24.513m22.82-7.048-4.113 3.183a22.992 22.992 0 0 0-8.551 17.927c0 12.03 9.192 21.901 20.901 22.908m45.42-22.762c-4.63-6.686-12.355-11.066-21.103-11.066-8.684 0-16.36 4.316-21 10.92" stroke="#000" stroke-width="10" stroke-linecap="round" stroke-linejoin="round"/><path d="M114 167.795A74.16 74.16 0 0 1 96 170c-40.87 0-74-33.131-74-74 0-40.87 33.13-74 74-74 40.869 0 74 33.13 74 74 0 8.4-1.4 16.474-3.979 24" stroke="#000" stroke-width="12" stroke-linecap="round" stroke-linejoin="round"/><path d="M170 170v-30l-18 22-18-22v30" stroke="#000" stroke-width="12" stroke-linecap="round" stroke-linejoin="round"/></svg>