<svg xmlns="http://www.w3.org/2000/svg" width="192" height="192" viewBox="0 0 192 192"><path d="M50.106 156.99a13.2 13.2 0 0 1-6.288-4.928c-.369-.563-27.729-61.09-27.816-65.807-.04-2.832.52-5.12 3.528-6.264 2.704-1.024 3.312-1.04 7.512-1.08h44.023l-6.104 14.896-29.968.408 20.16 45.167c.2-.368 9.368-21.608 20.368-47.207 11-25.6 20.336-47.199 20.752-47.999 1.12-2.16 4.896-6.032 7.192-7.376 4.144-2.432 6.256-2.576 37.44-2.576 27.104 0 28.96.056 30.816.904 2.92 1.32 4.28 3.504 4.28 6.856 0 3.12-.976 4.824-3.656 6.4-1.568.928-2.72.976-30.96 1.2-22.568.192-29.56.392-30.4.864a5.9 5.9 0 0 0-1.84 2.104c-.832 1.616-11.256 25.84-11.256 26.16 0 .112 8.28.2 18.4.2 16.984 0 18.52.08 20.064.896 5.08 2.704 4.96 10.776-.192 13.224-1.44.688-4.32.784-23.264.784H91.281l-12.424 28.96c-11.536 26.888-12.584 29.12-14.616 31.168-3.528 3.536-9.368 4.8-14.136 3.04zm105.46-64.255c-2.664-1.808-3.6-3.48-3.6-6.368 0-4.24 3.208-7.456 7.44-7.456s7.456 3.216 7.456 7.456-3.216 7.448-7.448 7.448a6.4 6.4 0 0 1-3.848-1.08"/></svg>