<svg width="191" height="192" fill="none" xmlns="http://www.w3.org/2000/svg"><path d="M49.242 53H21.885l27.583 61m.271-61 16.912 37.4L83.563 53m.497 0h27.357l-27.583 61m0 0L66.65 152l-17.183-38m34.366 0H49.468" stroke="#000" stroke-width="12" stroke-linecap="round" stroke-linejoin="round"/><path d="M134.82 77.948c-7.845 1.364-13.813 8.256-13.813 16.552 0 9.277 7.462 16.798 16.668 16.798 4.729 0 8.999-1.985 12.032-5.173l18.435 16.296C160.61 130.763 149.749 136 137.675 136c-22.743 0-41.18-18.58-41.18-41.5S114.932 53 137.675 53a41 41 0 0 1 9.054 1.006M134.82 77.948a16.662 16.662 0 0 1 2.855-.246c5.259 0 9.95 2.455 13.005 6.29l18.435-16.297c-5.69-6.77-13.495-11.679-22.386-13.689M134.82 77.948l11.909-23.942" stroke="#000" stroke-width="12" stroke-linecap="round" stroke-linejoin="round"/></svg>