<svg xmlns="http://www.w3.org/2000/svg" width="192" height="192" viewBox="0 0 192 192"><path d="M93.371 16h14.401v3.72l.28 3.52c.89 6.621 3.186 11.1 4.424 13.49a44.2 44.2 0 0 0 7.041 9.968l14.697 15.681a55.6 55.6 0 0 1 8.529 11.905l.344.64a50.7 50.7 0 0 1 5.872 27.33c-.159 2.498-.48 7.034-2.144 12.857l-.872 3.04a85 85 0 0 1-4.544 12.322l-3.889 8.504c-3.917 8.924-17.28 2.818-13.097-5.984l3.889-8.497a73 73 0 0 0 3.8-10.297l.872-3.04c1.261-4.434 1.484-7.776 1.616-9.857a36.5 36.5 0 0 0-4.208-19.602l-.344-.64a41.6 41.6 0 0 0-6.329-8.833l-14.697-15.68-1.24-1.369v88.488c.054 11.004-8.673 22.576-22.378 28.586-16.768 7.37-35.087 3.675-40.811-9.393-5.742-13.109 3.977-29.059 20.706-36.395 11.259-4.943 21.413-4.337 28.082-1.96zM57.76 157.08c1.95 4.486 11.559 6.513 21.85 1.992 10.312-4.53 15.288-12.955 13.313-17.425-1.968-4.503-11.538-6.512-21.842-2-10.231 4.48-15.291 12.904-13.321 17.433"/></svg>