<svg xmlns="http://www.w3.org/2000/svg" width="192" height="192" viewBox="0 0 192 192"><path d="M92.004 16c-12.847.187-40.447 2.293-55.868 16.447-11.454 11.467-15.494 28.221-15.914 49.001-.42 20.774-.967 59.728 36.581 70.288h.02l-.027 16.107s-.246 6.514 4.067 7.847c5.18 1.613 8.227-3.334 13.2-8.68 2.713-2.934 6.48-7.227 9.314-10.534 25.667 2.173 45.414-2.774 47.668-3.5 5.173-1.68 34.507-5.44 39.28-44.382 4.934-40.134-2.4-65.535-15.6-76.974-3.973-3.667-20.04-15.335-55.833-15.488 0 0-2.634-.166-6.914-.113zm.387 11.287c3.633-.027 5.866.113 5.866.113 30.281.134 44.781 9.254 48.148 12.307 11.167 9.567 16.867 32.454 12.707 65.981v.014c-4.026 32.52-27.827 34.56-32.214 35.967-1.866.6-19.214 4.913-41.02 3.493 0 0-16.24 19.6-21.315 24.694-.8.8-1.733 1.113-2.346.96-.867-.22-1.107-1.253-1.1-2.76l.133-26.787c-31.747-8.8-29.9-41.947-29.534-59.301.36-17.36 3.62-31.587 13.307-41.154C58.09 28.994 81.517 27.36 92.424 27.28zm.506 19.36c0 1.113.887 2.02 2 2.033 10.827.067 19.64 3.58 26.854 10.614 7.154 6.974 10.8 16.454 10.887 28.894.014 1.114.934 2 2.047 2 1.107-.013 2-.92 2-2.026-.093-13.227-4.12-23.974-12.107-31.761-7.933-7.734-17.947-11.687-29.647-11.767-.894 0-2.025.696-2.033 2.013zm-24.374 2.62c-1.266-.213-2.666.033-4.106.78l-.067.013a30.8 30.8 0 0 0-7.64 6.214c-.014.027-.04.027-.054.053-1.78 2.154-2.8 4.254-3.066 6.32a4 4 0 0 0-.047.934c0 1.23.319 2.578.52 2.733.9 3.2 3.154 8.507 8.034 17.36 2.8 5.12 6.02 10 9.64 14.574a74 74 0 0 0 5.8 6.56l.88.88a75 75 0 0 0 6.56 5.8 103.5 103.5 0 0 0 14.574 9.647c8.854 4.887 14.174 7.134 16.234 7.774s2.96.786 3.873.78c.307.013.614 0 .92-.054 2.067-.24 4.18-1.266 6.32-3.066.027 0 .02-.014.054-.034 2.467-2.2 4.553-4.8 6.2-7.653l.02-.067c1.5-2.88 1-5.613-1.2-7.467-.027 0-4.653-3.866-6.914-5.533-2.4-1.7-4.866-3.28-7.42-4.733-3.4-1.9-6.88-.707-8.32 1.16l-2.98 3.76c-1.533 1.886-4.38 1.64-4.38 1.64-20.8-5.307-26.367-26.367-26.367-26.367s-.247-2.84 1.653-4.374l3.754-2.986c1.846-1.434 3.04-4.914 1.133-8.32a85 85 0 0 0-4.733-7.434c-1.667-2.267-5.507-6.887-5.534-6.9-.913-1.1-2.066-1.767-3.346-1.98zm27.934 7.747a2.037 2.037 0 0 0 1.88 2.16c7.734.567 13.447 3.107 17.634 7.667 4.2 4.587 6.2 10.16 6.04 17.134a2.037 2.037 0 0 0 2 2.066 2.04 2.04 0 0 0 2.067-1.98c.167-7.833-2.227-14.62-7.113-19.96-4.934-5.4-11.847-8.353-20.334-8.973-.546-.062-2.077.354-2.174 1.887zm3.087 10.9a2.04 2.04 0 0 0 1.92 2.133c3.487.187 5.833 1.167 7.42 2.814 1.6 1.633 2.587 4.133 2.774 7.76a2.024 2.024 0 0 0 2.12 1.913 2.014 2.014 0 0 0 1.913-2.113c-.2-4.294-1.433-7.854-3.867-10.38-2.446-2.52-5.953-3.827-10.134-4.047-.41-.064-2.045.293-2.146 1.92"/></svg>