<svg xmlns="http://www.w3.org/2000/svg" width="192" height="192" viewBox="0 0 192 192"><path d="M33.156 30.203v19.75L16 50.25v11.516h17.156V96h11.766V61.734l20.578.297 12.25 34 12.812-.297 22.719-65.531h-13.094L83.984 76.89 73.515 50.25l-28.594-.281V30.203zM148.716 40v9.969l-34.453.28-3.922 11.25 38.375.282v78.36h-103.8v-35.579H33.15v47.078h115.56v10.156h7.485v-7.25a2.8 2.8 0 0 1 2.812-2.797h6.703a2.79 2.79 0 0 1 2.797 2.797v7.25h7.484v-121.8h-7.484v7.25a2.79 2.79 0 0 1-2.797 2.797h-6.703a2.8 2.8 0 0 1-2.812-2.797v-7.25zm10.297 19.39h6.703a2.79 2.79 0 0 1 2.797 2.798v7.25a2.79 2.79 0 0 1-2.797 2.797h-6.703a2.8 2.8 0 0 1-2.812-2.797v-7.25a2.8 2.8 0 0 1 2.812-2.797m0 22.189h6.703a2.79 2.79 0 0 1 2.797 2.797v7.25a2.79 2.79 0 0 1-2.797 2.797h-6.703a2.8 2.8 0 0 1-2.812-2.797v-7.25a2.8 2.8 0 0 1 2.812-2.797m0 22.188h6.703a2.8 2.8 0 0 1 2.797 2.812v7.235a2.8 2.8 0 0 1-2.797 2.812h-6.703a2.815 2.815 0 0 1-2.812-2.812v-7.235a2.815 2.815 0 0 1 2.812-2.812m-.297 22.203c.094-.01.2 0 .297 0h6.703a2.79 2.79 0 0 1 2.797 2.797v7.25a2.79 2.79 0 0 1-2.797 2.797h-6.703a2.8 2.8 0 0 1-2.812-2.797v-7.25c0-1.454 1.1-2.654 2.515-2.797"/></svg>