<svg width="192" height="192" fill="none" xmlns="http://www.w3.org/2000/svg"><path d="M25 69c0-24.3 19.7-44 44-44h54c24.301 0 44 19.7 44 44v54c0 24.301-19.699 44-44 44H69c-24.3 0-44-19.699-44-44V69Z" stroke="#000" stroke-width="12" stroke-linecap="round" stroke-linejoin="round"/><path d="M76 82a6 6 0 0 1 6-6h28a6 6 0 0 1 6 6v28a6 6 0 0 1-6 6H82a6 6 0 0 1-6-6V82Z" stroke="#000" stroke-width="12" stroke-linecap="round" stroke-linejoin="round"/><path d="M54 78c0-13.255 10.745-24 24-24h36c13.255 0 24 10.745 24 24v36c0 13.255-10.745 24-24 24H78c-13.255 0-24-10.745-24-24V78Z" stroke="#000" stroke-width="12" stroke-linecap="round" stroke-linejoin="round"/></svg>