<svg xmlns="http://www.w3.org/2000/svg" width="192" height="192" viewBox="0 0 192 192"><path d="M29.616 96.1c0-10.115 4.277-15.928 11.984-15.928 10.953 0 12.088 11.25 12.088 15.912 0 3.627-.533 15.824-12.088 15.824-10.229 0-12.008-9.547-12.008-15.824zM16 96.1c0 15.342 9.608 25.968 25.608 25.968 15.559 0 25.672-10.103 25.672-25.984 0-16.746-11.194-26.168-25.68-26.168-14.846 0-25.6 9.833-25.6 26.16zm58.089-24.824v49.529h13.6V94.829c0-9.311 2.718-14.176 10.544-14.176 4.803 0 8.728 1.975 8.728 12.184v27.969h13.616V90.333q0-4.616-.872-8.336c-1.39-6.875-5.472-9.395-8.336-10.552q-3.44-1.536-8.92-1.536-4.312 0-8.424 2.016-4.129 1.92-6.713 6.232h-.288v-6.912zm66.057 19.44c.33-4.552 2.347-7.633 5.864-9.392q2.209-1.168 5.464-1.168 4.985 0 7.376 2.72 2.496 2.672 3.448 7.84zm0 8.624h35.769q.385-5.744-.968-11.016c-2.028-8.014-8.58-18.408-23.104-18.408-12.341 0-20.359 7.54-23.464 15.808q-1.824 4.809-1.824 10.376 0 5.76 1.728 10.56c2.005 5.259 5.821 10.672 13.032 13.608q4.695 1.824 10.528 1.824 8.44 0 14.4-3.84 5.928-3.84 8.8-12.744h-11.968q-.68 2.288-3.648 4.4-2.96 2.024-7.096 2.024-5.744 0-8.824-2.992-3.065-2.96-3.36-9.576z"/></svg>