<svg xmlns="http://www.w3.org/2000/svg" width="192" height="192" viewBox="0 0 192 192"><path d="M99.871 19.097a77 77 0 1 0 50.672 131.25 77 77 0 0 0 0-108.7 77 77 0 0 0-50.672-22.553zM58.055 57.464c2.29-.025 4.577.545 6.549 1.772 2.194 1.257 3.757 3.298 4.91 5.503l17.889 30.94c3.279 6.09 9.899 10.182 16.812 10.394 7.436.516 14.949-3.437 18.736-9.857 1.541-2.588 2.58-5.521 2.824-8.531-.01-1.494.046-2.993-.135-4.48a21.5 21.5 0 0 0-2.046-7.034c-2.311-4.627-1.41-10.593 2.166-14.33 3.475-3.83 9.364-5.15 14.143-3.172 4.364 1.715 7.78 6.057 7.959 10.803a13.36 13.36 0 0 1-1.94 7.278l-38.05 66.412c-2.133 4.293-6.813 7.016-11.573 7-4.632.141-9.119-2.664-11.14-6.813l-38.245-66.6c-2.666-4.462-2.196-10.517 1.129-14.512 2.375-3.04 6.196-4.732 10.012-4.773"/></svg>