<svg width="192" height="192" fill="none" xmlns="http://www.w3.org/2000/svg"><path d="M92.278 47a35.997 35.997 0 0 0-41.301-24.308A36 36 0 0 0 58 94h2m39.722-47a35.993 35.993 0 0 1 20.501-22.26 36.002 36.002 0 0 1 47.037 47.037A36.002 36.002 0 0 1 134 94h-2" stroke="#000" stroke-width="12" stroke-linecap="round" stroke-linejoin="round"/><path d="M22 132a38 38 0 1 0 38-38m72 0c-1.432 0-2.857.08-4.27.24M170 132a38.004 38.004 0 0 1-23.458 35.107 37.994 37.994 0 0 1-41.412-8.237A38.005 38.005 0 0 1 96 144.166m0-24.332a38 38 0 0 1 31.73-25.593m0 0A33.92 33.92 0 0 0 130 82c0-18.778-15.222-34-34-34S62 63.222 62 82c0 4.315.804 8.443 2.27 12.24M22 58v74m148-74v74" stroke="#000" stroke-width="12" stroke-linecap="round" stroke-linejoin="round"/></svg>