<svg xmlns="http://www.w3.org/2000/svg" width="192" height="192"><path d="M96 16c-44.12 0-80 35.88-80 80s35.88 80 80 80 80-35.88 80-80-35.88-80-80-80m0 10.667c4.05 0 8.017.345 11.874 1.008V76.87A22.34 22.34 0 0 0 96 73.46c-12.386 0-22.54 10.154-22.54 22.54S83.614 118.54 96 118.54s22.54-10.154 22.54-22.54V30.398c27.255 9.333 46.793 35.14 46.793 65.602 0 38.355-30.978 69.333-69.333 69.333S26.667 134.355 26.667 96 57.645 26.667 96 26.667m-5.64 17.682a5 5 0 0 0-.697.04C66.993 47.171 48.757 64.476 44.79 86.97s7.25 44.993 27.602 55.362c20.35 10.37 45.148 6.22 61.014-10.21s19.147-41.356 8.074-61.332a5.333 5.333 0 0 0-7.25-2.08 5.333 5.333 0 0 0-2.08 7.25 41.29 41.29 0 0 1-6.417 48.752 41.29 41.29 0 0 1-48.497 8.116c-16.212-8.261-25.101-26.086-21.941-44.005s17.608-31.63 35.668-33.848a5.333 5.333 0 0 0 4.644-5.944 5.33 5.33 0 0 0-5.247-4.683zM96 84.126c6.621 0 11.874 5.253 11.874 11.874S102.622 107.874 96 107.874 84.126 102.622 84.126 96 89.379 84.126 96 84.126"/></svg>