<svg width="192" height="192" fill="none" xmlns="http://www.w3.org/2000/svg"><path d="M150.848 144.567a74.016 74.016 0 0 0-36.82-120.078 73.99 73.99 0 0 0-48.89 3.805A74.004 74.004 0 0 0 29.36 61.837a74.022 74.022 0 0 0 17.974 90.787A73.996 73.996 0 0 0 93.192 170m-19.294-52.064 57.252 51.558m-15.801-96.086c12.481 11.24 13.489 30.472 2.251 42.955-11.239 12.483-30.467 13.491-42.949 2.251-12.481-11.24-13.49-30.472-2.25-42.955 11.238-12.483 30.466-13.491 42.948-2.251Z" stroke="#000" stroke-width="12" stroke-linecap="round" stroke-linejoin="round"/></svg>