<svg xmlns="http://www.w3.org/2000/svg" width="192" height="192" viewBox="0 0 192 192"><path d="M107.96 52.248a3.234 3.234 0 0 0-3.085 3.23v79.488a2.44 2.44 0 0 0 2.44 2.44h13.174a2.44 2.44 0 0 0 2.44-2.44V92.718a.606.606 0 0 1 1.034-.428l46.52 46.519a3.233 3.233 0 0 0 5.52-2.287V57.034a2.44 2.44 0 0 0-2.44-2.44H160.39a2.44 2.44 0 0 0-2.44 2.44v42.248a.606.606 0 0 1-1.035.429l-46.519-46.519a3.23 3.23 0 0 0-2.436-.944m-90.433 2.445a1.525 1.525 0 0 0-1.37 2.193l38.509 78.956a2.856 2.856 0 0 0 5.132 0l38.51-78.956a1.524 1.524 0 0 0-1.37-2.193H81.784a3.12 3.12 0 0 0-2.807 1.754L58.088 99.28a.952.952 0 0 1-1.712 0l-20.89-42.833a3.12 3.12 0 0 0-2.807-1.754z"/></svg>