<svg width="192" height="192" fill="none" xmlns="http://www.w3.org/2000/svg"><path d="M132.77 37.23A52.013 52.013 0 0 0 96 22a52 52 0 0 0-36.77 15.23m57.983 15.557a30.002 30.002 0 0 0-42.426 0" stroke="#000" stroke-width="12" stroke-linecap="round" stroke-linejoin="round"/><circle cx="96" cy="70" r="5" stroke="#000" stroke-width="10" stroke-linecap="round" stroke-linejoin="round"/><circle cx="96" cy="144" r="5" stroke="#000" stroke-width="10" stroke-linecap="round" stroke-linejoin="round"/><path d="M22 134c0-8.837 7.163-16 16-16h126a6 6 0 0 1 6 6v30c0 8.837-7.163 16-16 16H38c-8.837 0-16-7.163-16-16v-20Zm74-64v48" stroke="#000" stroke-width="12" stroke-linecap="round" stroke-linejoin="round"/></svg>