<svg xmlns="http://www.w3.org/2000/svg" width="192" height="192"><path d="M128.32 49.014v91.199h9.815V49.014zM57.065 61.495c-10.56 0-19.199 8.64-19.199 19.199s8.532 19.199 19.199 19.199c10.56 0 19.204-8.64 19.204-19.199s-8.644-19.199-19.204-19.199m53.014 7.144v53.333h9.815V68.639zm37.866 0v53.333h9.815V68.639zm-56.106 19.63v16.851h9.815V88.27zm74.347 0v16.851h9.815V88.27zM55.996 109.6c-13.333 0-40 6.4-40 19.094v9.384c0 2.666 2.347 4.907 5.12 4.907h69.76c2.88 0 5.12-2.24 5.12-4.907v-9.385c0-12.692-26.667-19.092-40-19.092z"/></svg>