<svg width="192" height="192" fill="none" xmlns="http://www.w3.org/2000/svg"><path d="M30.373 61.774 74 145l18.387-40h7.226L118 145l43.626-83.226M64.653 28.948a74.31 74.31 0 0 0-34.28 32.826C25.026 72.01 22 83.651 22 96c0 40.869 33.13 74 74 74 40.869 0 74-33.131 74-74 0-12.349-3.025-23.99-8.374-34.226a74.307 74.307 0 0 0-34.279-32.826C117.828 24.49 107.205 22 96 22c-11.205 0-21.828 2.49-31.347 6.948Zm62.694 0L101.581 85H90.419L64.653 28.948" stroke="#000" stroke-width="12" stroke-linecap="round" stroke-linejoin="round"/></svg>