<svg xmlns="http://www.w3.org/2000/svg" width="192" height="192" viewBox="0 0 192 192"><path d="M172.5 95.986c2.053 10.31-1.369 34.394-26.266 40.947-1.283.342-2.139 1.626-2.31 2.969a37.82 37.82 0 0 1-16.341 27.044c-16.735 11.208-39.125 6.365-50.29-10.558-.89-1.412-2.207-1.968-4.03-1.42a35.25 35.25 0 0 1-30.8-4.021c-16.812-11.08-21.697-34.111-10.934-51.445a3.72 3.72 0 0 0-.641-4.655c-12.32-11.08-15.34-28.08-7.76-43 8.77-17.215 29.474-23.469 46.868-14.195 1.369.736 3.123.856 4.132-.333C83 26.744 93.755 19.053 110.96 19c26.933-.069 46.235 23.442 45.422 50.675a3.08 3.08 0 0 0 1.557 2.994c2.336 1.455 11.61 8.496 14.553 23.314zm-41.563 36.147c.009-3.054 1.703-4.86 4.791-4.988 13.107-.778 23.451-12.389 22.698-25.898-.23-3.893-1.916-8.923-3.85-12.286-.94-1.625-2.96-2.395-4.534-1.42a4.3 4.3 0 0 0-1.31 1.566c-3.13 6.245-8.178 12.012-13.62 16.256a4.96 4.96 0 0 1-6.802-.77c-1.797-2.13-1.617-5.442.505-7.187 15.965-13.287 18.01-35.446 5.424-50.632-12.252-14.776-31.776-16.452-47.039-5.04-1.934 1.455-5.63 4.595-7.957 9.3-1.197 2.379-4.85 3.252-6.964 1.66-.043-.025-.368-.359-.41-.393-10.738-8.787-25.599-6.648-33.009 3.764-7.76 10.917-5.903 25.983 5.288 34.137 3.662 2.67 7.811 3.653 12.277 3.944a4.62 4.62 0 0 1 4.243 4.62 4.594 4.594 0 0 1-4.491 4.706 33.4 33.4 0 0 1-9.403-1.275c-1.583-.42-2.994.402-3.747 1.763-6.793 12.32-2.601 27.985 9.377 34.975a24.3 24.3 0 0 0 17.23 2.84 3.397 3.397 0 0 0 2.653-3.739 36.8 36.8 0 0 1 6.596-25.52 4.93 4.93 0 0 1 6.913-1.447 5.133 5.133 0 0 1 1.429 7.033c-7.161 11.336-4.038 26.514 6.973 33.88 11.01 7.384 25.735 4.158 32.896-7.178a24.9 24.9 0 0 0 3.841-12.671"/></svg>