<svg xmlns="http://www.w3.org/2000/svg" width="192" height="192" viewBox="0 0 192 192"><path d="M146.32 76.195a4.96 4.96 0 0 0-3.488 1.272 4 4 0 0 0-1.376 2.92v19.24c0 5.918-2.314 7.336-5.616 7.336-3.198 0-5.544-1.17-5.544-7.336v-19.32a3.52 3.52 0 0 0-1.736-3.104c-1.544-.976-3.08-1.328-4.944-.704a8 8 0 0 0-1.6.736 4.8 4.8 0 0 0-1.312 1.176 2.8 2.8 0 0 0-.584 1.68v19.536c0 6.122-2.311 7.344-5.543 7.344-3.331 0-5.616-1.357-5.616-7.344v-19.24a4 4 0 0 0-1.376-2.92 5.04 5.04 0 0 0-3.56-1.272 5.44 5.44 0 0 0-3.696 1.256 3.84 3.84 0 0 0-1.464 2.936v18.936c0 9.25 3.084 17.144 14.968 17.144 2.15-.004 7.612-.121 11.368-5.16 3.537 4.891 8.703 5.152 11.384 5.152 6.391 0 14.94-2.176 14.896-17.136V80.387q0-1.649-1.424-2.928-1.384-1.264-3.736-1.264m-2.344 69.887s.008-.448.128-1.144a7.52 7.52 0 0 1 4.08-5.456l.248-.16c9.184-5.328 15.904-13.912 18.272-24.63-2.384 5.92-20.056 10.527-41.52 10.527-21.447 0-39.118-4.6-41.502-10.528a36.6 36.6 0 0 0 2.24 6.88c.792 4.488 1.864 15.056-3.208 24.303-4.472 8.152-26.543 19.256-59.295 12.88 0 0-1.312-.92-1.712-.16-.592 1.12 1.816 2.016 4.296 2.672 22.8 6.032 57.223 3.576 68.03-5.328 4.929-4.056 6.833-9.528 7.32-15.416v.008s.129-1.536 2.057-.384c.56.336 2.552 1.632 2.864 3.104.28 2.08.303 4.648-.776 6.448-1.544 2.56-1.56 2.936.472 4.384 4.324 3.216 8.906 6.057 13.464 8.92 1.496.904 3.575 3.111 3.575 3.111 3.192 3.688 10.128 11.12 13.144 9.712 1.432-.656-.056-3.632-.056-3.632s2.368 3.08 3.64 2.032c.976-.8-.56-3.872-.56-3.872s2.072 1.8 3.304 1.136c1.504-.816-.224-5.527-12.08-12.736-11.856-7.207-15.072-8.32-15.36-11.536.007-.396.063-2.688 2.232-2.488 8.038 1.3 14.782.249 17.144-.224.336-.048 1-.024 1.008.8a6.4 6.4 0 0 1-1.016 3.024c-1.736 2.592-1.16 2.96.648 4.624 1.12 1.024 6.24 5.536 13.264 9.896l.04.032c1.496.904 4.08 3.376 4.08 3.376 2.912 2.952 8.264 7.896 11.176 7.6 1.976-.2.368-3.6.368-3.6s2.496 2.408 3.712 1.704c1.368-.8-.56-3.304-.56-3.304s1.6.848 2.728.56 1.424-3.16-10.368-10.464-15.76-9.872-15.52-12.672zM96.314 62.996c1.92-1.176 12.24-6.656 28.879.216 17.12 7.064 27.743.928 29.055.096-4.136-6.8-9.056-12.72-14.504-16.712l1.128-.312c7.216-2.08 9.048-8.2 9.44-13.432.432-5.936.736-6.024 2.024-11.368 1.24-5.128-.144-6.16-1.416-5.12-.688.56-6.648 1.936-10.192 4.696-5.712 4.456-9.232 12.936-10.832 17.624l-.32.944c-.736 1.8-2.224 1.792-2.224 1.792a20 20 0 0 0-4.104-.024h-.032c-1.896.28-2.936-2.032-3.152-2.584-2.216-6.352-8.168-18.88-21.552-22.256 0 0-2.432-1.864-1.688 1.28.704 3.016 2.16 6.056 1.84 10.48-.16 2.04-1.416 12.512 8.208 17.96q1.36.784 2.456 1.32c-4.848 3.88-9.248 9.28-13.016 15.4"/></svg>