<svg xmlns="http://www.w3.org/2000/svg" width="192" height="192" viewBox="0 0 192 192"><path d="m165.35 93.54-6.68 11.903V93.54zM67.603 16C53.788 29.41 40.287 43.209 26.685 56.854l-.032.056 30.278-2.624c3.696-.328 7-3.64 7.384-7.392l3.287-30.87zm0 .024v33.502a7.386 7.386 0 0 1-7.384 7.384H26.717l-.032.032v111.66a7.386 7.386 0 0 0 7.384 7.383h77.396q.16-28.014.296-56.029H65.555l46.158-82.332 3.296 1.84-43.006 76.716h43.55l-.312 59.821h36.046a7.386 7.386 0 0 0 7.383-7.383V105.46l-27.943 49.83v-47.646H95.633l35.094-62.053v47.942h27.943V23.377a7.36 7.36 0 0 0-7.383-7.36z"/></svg>