<svg xmlns="http://www.w3.org/2000/svg" width="192" height="192" aria-label="watchlist.guide" class="brand-mark" viewBox="4 4 192 192"><rect width="122.35" height="23.529" x="38.824" y="42.353" rx="11.765"/><path d="M44.706 84.706c-8.554 0-15.294 6.74-15.294 15.294s6.74 15.294 15.294 15.294h110.59c8.554 0 15.294-6.74 15.294-15.294s-6.74-15.294-15.294-15.294zm3.53 5.882L64.705 100l-16.47 9.412z" opacity=".8"/><path d="M44.706 75.294C31.1 75.294 20 86.394 20 100s11.1 24.706 24.706 24.706h110.59c13.606 0 24.706-11.1 24.706-24.706s-11.1-24.706-24.706-24.706zm0 9.412h110.59c8.554 0 15.294 6.74 15.294 15.294s-6.74 15.294-15.294 15.294H44.706c-8.554 0-15.294-6.74-15.294-15.294s6.74-15.294 15.294-15.294" opacity=".4"/><rect width="122.35" height="23.529" x="38.824" y="134.12" rx="11.765"/></svg>