<svg width="192" height="192" fill="none" xmlns="http://www.w3.org/2000/svg"><circle cx="130" cy="40" r="5" stroke="#000" stroke-width="10" stroke-linecap="round" stroke-linejoin="round"/><path d="m130.794 117.307 12.53-28.075a13.976 13.976 0 0 1 3.125-4.465 13.92 13.92 0 0 1 9.953-3.862c1.83.044 3.635.45 5.309 1.193a14 14 0 0 1 7.354 7.765 14.046 14.046 0 0 1-.258 10.705l-13.954 31.656m0 0a8.871 8.871 0 0 1-2.986 3.416 8.818 8.818 0 0 1-8.734.649 8.843 8.843 0 0 1-3.456-2.936l-26.662-41.745m41.838 40.616-9.749 19.262c-1.096 2.534-4.085 6.062-7.376 7.183a13.89 13.89 0 0 1-10 .389 13.932 13.932 0 0 1-7.677-6.436l-24.63-41.187M61.2 117.948 48.676 89.221a13.966 13.966 0 0 0-3.126-4.465 13.897 13.897 0 0 0-15.26-2.666 14.003 14.003 0 0 0-7.354 7.766 14.053 14.053 0 0 0 .258 10.705l14.049 31.844m0 0 9.78 19.266a13.933 13.933 0 0 0 4.094 5.317 13.889 13.889 0 0 0 6.1 2.78v-.012a13.91 13.91 0 0 0 8.508-1.077 13.963 13.963 0 0 0 6.27-5.867s11.193-22.115 16.52-31.962v-.004c18.86-34.853 36.045-33.383 32.085-39.9-6.907-11.35-34.318-5.967-47.456 16.603-4.251 7.293-13.837 24.07-19.97 34.807-.015-.012-.03-.006-.042.019a8.889 8.889 0 0 1-3.265 3.608 8.85 8.85 0 0 1-9.346.018 8.886 8.886 0 0 1-3.278-3.596Zm28.302-62.696c-2.192-.796-7.52-20.679 6.82-33.44 20.64-18.356 42.416 8.317 13.056 19.782-19.536 7.622-17.696 14.457-19.876 13.658Z" stroke="#000" stroke-width="12" stroke-linecap="round" stroke-linejoin="round"/></svg>