<svg xmlns="http://www.w3.org/2000/svg" width="192" height="192" viewBox="0 0 192 192"><path d="M94.534 18.668c-5.584-.24-11.184 0-15.544.76a81.6 81.6 0 0 0-30.153 11.776c-5.352 3.48-15.432 13.456-19.08 18.88-5.8 8.632-10.68 20.08-12.392 29.041-6.296 33.129 9.592 65.937 39.441 81.442 23.2 12.04 51.473 10.88 74.001-3.04l2.2-1.36 6.44 6.24c7.384 7.184 9.76 8.96 13.616 10.16 3.96 1.24 7.176 1.136 11.176-.36 7.704-2.88 11.792-8.736 11.76-16.864-.016-6.768-1.376-9.176-10.256-18.264-4.184-4.272-7.608-8.048-7.608-8.376s1.024-3.12 2.272-6.208c9.626-23.687 4.148-45.536 3.52-47.857-7.12-26.321-27.889-47.065-53.969-53.905-4.28-1.128-9.848-1.84-15.44-2.08zM88.55 54.589a37 37 0 0 1 9.592.64c18.704 3.688 31.481 18.904 31.513 37.505.016 15.712-9.224 30.081-23.056 35.825-3.12 1.296-3.2 1.408-7.392 10.264-2.336 4.92-4.44 9.072-4.68 9.216s-2.16-3.44-4.272-7.968l-3.84-8.248-5.696-1.728c-7.073-2.152-11.888-5.032-16.736-10.016-7.185-7.384-10.376-14.584-10.944-24.712-.625-11.104 2.68-20.368 10.143-28.401 6.929-7.472 15.896-11.76 25.37-12.376"/></svg>