<svg xmlns="http://www.w3.org/2000/svg" width="192" height="192" viewBox="0 0 192 192"><path d="M103.2 19.003c-16.633.17-31.511 5.721-44.295 16.709C44.079 48.408 35.96 64.604 34.677 84.118c-.12 2.524-.117 5.054-.117 7.586s-.005 5.053-.134 7.586c0 2.002-.456 4.094-1.286 5.865-1.882 3.995-5.649 5.653-9.892 6.115-3.516.36-4.832 2-3.993 5.414a30 30 0 0 0 2.706 7.034c6.246 11.284 15.28 19.635 26.701 25.615 1.053.59 1.398 1.073 1.287 2.356-.479 7.657 2.355 13.881 8.822 17.996 6.245 3.995 12.954 4.107 19.533.702h.017c5.184-2.695 8.358-7.047 9.641-12.916h3.041a163 163 0 0 1 12.147.234c.342 0 .925.573 1.036 1.053 3.405 11.994 16.346 17.64 27.536 12.114a19.334 19.334 0 0 0 9.407-23.042c-.35-.941-.128-1.407.702-1.989 1.531-.94 2.96-2.005 4.244-3.057 22.243-18.205 30.946-41.585 25.197-69.56-6.356-30.9-33.308-52.997-64.73-54.17a78 78 0 0 0-3.342-.05zm31.48 46c4.115 0 7.516 3.402 7.636 7.62a7.785 7.785 0 0 1-7.519 7.769h-.017c-4.234 0-7.636-3.315-7.636-7.653a7.7 7.7 0 0 1 7.536-7.736m-46.267.117a7.636 7.636 0 1 1 0 15.272 7.636 7.636 0 1 1 0-15.272m-1.454 30.494c1.52-.146 2.92 1 4.027 2.757 1.532 2.37 3.086 4.701 5.08 6.583 11.053 10.454 29.17 7.184 36.125-6.332.821-1.634 1.883-2.941 3.876-2.941 2.935.111 4.592 3.061 3.292 5.764-3.645 7.4-9.41 12.797-17.177 15.372-2.533.864-5.131 1.345-7.219 1.738l-1.955.368c-13.893-.702-23.07-6.225-28.957-17.26-1.411-2.712-.113-5.4 2.59-5.999.103-.021.217-.04.318-.05"/></svg>