<svg xmlns="http://www.w3.org/2000/svg" width="192" height="192" viewBox="0 0 192 192"><path d="M141.95 101.31a16.615 16.615 0 1 0 0-33.23 16.615 16.615 0 0 0 0 33.23m18.529-35.24a15.521 15.521 0 1 0 0-31.043 15.521 15.521 0 0 0 0 31.043m-40.495 91.149a15.54 15.54 0 0 1-14.187-9.213l-40.696-91.38A15.532 15.532 0 1 1 93.484 44l40.696 91.39a15.525 15.525 0 0 1-14.195 21.83m-48.026-.24c-6.489 0-12.657-3.75-15.461-10.03L17.252 58.747A16.903 16.903 0 0 1 48.118 45l39.262 88.21a16.903 16.903 0 0 1-15.413 23.776"/></svg>