<svg width="192" height="192" fill="none" xmlns="http://www.w3.org/2000/svg"><path d="m73 80 11 36 12-34 12 34 11-36" stroke="#000" stroke-width="12" stroke-linecap="round" stroke-linejoin="round"/><circle cx="96" cy="96" r="50" stroke="#000" stroke-width="12" stroke-linecap="round" stroke-linejoin="round"/><path d="M64.257 56c1.883-8.079 3.254-17.405 3.636-28.001C68.013 24.687 70.686 22 74 22h44c3.314 0 5.988 2.687 6.107 5.999.382 10.596 1.753 19.922 3.636 28.001m-63.486 80c1.883 8.079 3.254 17.405 3.636 28.001.12 3.312 2.793 5.999 6.107 5.999h44c3.314 0 5.988-2.687 6.107-5.999.382-10.596 1.753-19.922 3.636-28.001" stroke="#000" stroke-width="12" stroke-linecap="round" stroke-linejoin="round"/></svg>