<svg width="192" height="192" version="1.1" xmlns="http://www.w3.org/2000/svg"><path d="m76.284 23.393a29.985 29.985 0 0 1 39.432 0 29.999 29.999 0 0 0 17.683 7.3235 29.985 29.985 0 0 1 27.879 27.883 29.963 29.963 0 0 0 7.3271 17.68 29.999 29.999 0 0 1 5.8544 29.203 50.981 50.981 0 0 0-36.596-16.741h-0.13818l-1.0072-0.01454h-0.13091c-17.614 0-33.396 8.9016-42.421 22.69-20.494 0.18908-38.174 16.4-38.174 37.737v0.14545l0.04364 1.6836 0.0073 0.14545c0.18182 3.5381 0.86907 6.9162 1.9563 10.094a29.963 29.963 0 0 1-27.279-27.829 29.999 29.999 0 0 0-7.3271-17.68 29.999 29.999 0 0 1 0-39.436 29.963 29.963 0 0 0 7.3271-17.68 29.985 29.985 0 0 1 27.879-27.883 29.999 29.999 0 0 0 17.683-7.3235" opacity=".6"/><path d="m94.047 16.065a29.985 29.985 0 0 0-17.762 7.3294l-0.94458 0.78834a29.999 29.999 0 0 1-16.74 6.5411l-1.392 0.12074a29.985 29.985 0 0 0-26.491 27.755l-0.10653 1.2216a29.999 29.999 0 0 1-7.2158 16.463l-0.89487 1.0724a29.985 29.985 0 0 0 0.89487 38.359 29.999 29.999 0 0 1 7.3294 17.684l0.12074 1.392a29.978 29.978 0 0 0 27.151 26.434c-1.0873-3.1781-1.7713-6.5648-1.9531-10.099l-0.0071-0.14204-0.02841-1.1221a19.072 19.072 0 0 1-14.403-17.208 40.908 40.908 0 0 0-9.9856-24.112 19.076 19.076 0 0 1 0-25.085 40.908 40.908 0 0 0 9.9856-24.112 19.076 19.076 0 0 1 17.741-17.741 40.908 40.908 0 0 0 24.112-9.9856 19.072 19.072 0 0 1 25.085 0 40.908 40.908 0 0 0 24.112 9.9856 19.076 19.076 0 0 1 17.741 17.741 40.908 40.908 0 0 0 9.9856 24.112 19.054 19.054 0 0 1 4.6519 13.878 50.181 50.181 0 0 1 9.4174 8.1461 29.963 29.963 0 0 0-5.8451-29.197 29.999 29.999 0 0 1-7.3294-17.684 29.985 29.985 0 0 0-27.876-27.876 29.999 29.999 0 0 1-17.684-7.3294 29.985 29.985 0 0 0-21.669-7.3294zm42.513 83.571c-16.166 0.0084-30.232 9.4959-36.256 23.274-1.881-0.39325-3.81-0.58652-5.7669-0.58947h-0.0071c-15.078 0-27.627 11.956-27.627 26.832v0.071l0.03551 1.3281v0.0781c0.78962 14.218 13.016 25.362 27.592 25.362h24.865c8.7178 4e-3 17.005 0.15534 25.624-0.90907l0.26278-0.0355 0.26278-0.0568c4.9948-1.1241 9.7282-3.1994 13.941-6.1078h7e-3v-7e-3c9.624-6.6706 16.085-17.534 16.477-29.857v-0.0426l0.0213-1.115v-0.0497c0-20.817-17.267-37.647-38.394-38.167h-0.0497l-0.96589-0.0071zm7e-3 10.909 0.75993 7e-3c15.539 0.38215 27.751 12.458 27.755 27.251v7e-3l-0.0142 0.85936c-0.27745 8.7312-4.8248 16.415-11.79 21.242-3.0055 2.0722-6.3882 3.5276-9.943 4.3536-7.5329 0.90061-15.234 0.82035-23.934 0.81675h-24.872c-9.0694 0-16.229-6.7433-16.697-15.042-2.65e-4 -5e-3 2.62e-4 -9e-3 0-0.0142l-0.0213-0.87357v-0.0142c8e-3 -8.7512 7.3259-15.905 16.711-15.909 1.2504 2e-3 2.4305 0.12614 3.5582 0.36221l8.6717 1.7968 3.544-8.1035c4.2594-9.7418 14.372-16.734 26.271-16.74z"/></svg>
