<svg xmlns="http://www.w3.org/2000/svg" width="192" height="192"><path d="M37.356 32.01a21.33 21.33 0 0 0-21.33 21.33v24.048c45.006 1.36 81.241 37.595 82.627 82.601h56.017a21.33 21.33 0 0 0 21.33-21.33V53.34a21.33 21.33 0 0 0-21.33-21.33zm93.318 10.665c19.144 0 34.661 15.517 34.661 34.661s-15.517 34.661-34.661 34.661S96.013 96.48 96.013 77.336s15.517-34.661 34.661-34.661m-90.652 7.999a5.333 5.333 0 0 1 0 10.665 5.333 5.333 0 0 1 0-10.665m31.995 0a5.333 5.333 0 0 1 0 10.665 5.333 5.333 0 0 1 0-10.665m-16.362.01a5.333 5.333 0 0 1 5.697 5.322 5.333 5.333 0 0 1-10.665 0 5.333 5.333 0 0 1 4.968-5.322m69.832 12.993a2.666 2.666 0 0 0-2.786 2.645V88.35a2.666 2.666 0 0 0 4.135 2.214l16.529-11.014a2.666 2.666 0 0 0 0-4.427l-16.53-11.014a2.67 2.67 0 0 0-1.348-.432M16.027 96.052v10.665c28.795 1.36 51.913 24.477 53.273 53.273h10.665c-1.36-34.688-29.25-62.578-63.937-63.937zm-.026 29.355v10.691a26.66 26.66 0 0 1 23.887 23.892h10.696c-1.307-18.477-16.08-33.276-34.583-34.583"/></svg>