<svg xmlns="http://www.w3.org/2000/svg" width="192" height="192" viewBox="0 0 192 192"><path d="M60.634 33.766a8.88 8.88 0 0 0-8.612 6.086l-35.56 106.64a8.877 8.877 0 0 0 5.628 11.254 8.876 8.876 0 0 0 11.254-5.625L68.9 45.48a8.876 8.876 0 0 0-5.626-11.254 9 9 0 0 0-2.641-.461zm53.306 0a8.88 8.88 0 0 0-8.612 6.086l-35.56 106.64a8.877 8.877 0 0 0 5.628 11.254 8.877 8.877 0 0 0 11.254-5.627l35.559-106.64a8.877 8.877 0 0 0-5.627-11.254 9 9 0 0 0-2.642-.46zm53.331.023a8.88 8.88 0 0 0-8.614 6.086L123.1 146.515a8.876 8.876 0 0 0 5.625 11.254 8.877 8.877 0 0 0 11.254-5.627l35.559-106.64a8.877 8.877 0 0 0-5.627-11.254 9 9 0 0 0-2.64-.46z"/></svg>