<svg xmlns="http://www.w3.org/2000/svg" width="192" height="192"><path d="M51.101 58.651c-1.813-1.104-2.444-3.548-1.34-5.36l9.224-15.374 8.12-13.48c3.075-5.125 10.485-5.125 13.56 0L92.333 43.83l-9.697 16.24-5.676 9.46c-1.262 1.814-3.706 2.445-5.598 1.34zm122.36 43.834-10.564-17.66c-1.104-1.813-3.469-2.444-5.36-1.42l-20.499 11.827c-1.892 1.104-2.523 3.548-1.419 5.44l15.373 25.7h8.593c4.81 0 9.46-2.05 12.535-5.754a15.87 15.87 0 0 0 3.548-10.012c0-2.838-.788-5.598-2.207-8.12zm-45.095 63.306h11.826c5.992 0 11.431-3.39 14.112-8.75l11.431-22.785h-37.369v-6.228c0-3.548-4.257-5.282-6.701-2.76l-21.996 21.997c-1.577 1.576-1.577 4.02 0 5.597l21.996 21.996c2.444 2.444 6.701.71 6.701-2.76zm-51.244-31.535H47.164l-6.622 11.116c-2.365 3.942-2.523 8.83-.473 13.008 2.207 4.494 6.858 7.41 11.983 7.41h25.07a3.904 3.904 0 0 0 3.942-3.941v-23.651a3.904 3.904 0 0 0-3.942-3.942m-26.647-20.892 5.519 3.311c2.995 1.814 6.7-.946 5.834-4.336l-7.569-30.274c-.473-2.05-2.601-3.39-4.73-2.838l-30.195 7.569c-3.39.867-4.1 5.36-1.104 7.174l5.204 3.153-3.233 5.44c-2.759 4.651-2.995 10.328-.552 15.137l12.85 25.701zm85.933-72.609-10.249-17.108c-2.917-4.73-8.041-7.647-13.56-7.647h-27.83l24.597 40.995-5.44 3.232c-2.996 1.813-2.365 6.386 1.104 7.174l30.195 7.569c2.129.552 4.257-.789 4.809-2.838l7.568-30.195c.868-3.39-2.838-6.15-5.834-4.336z"/></svg>