<svg xmlns="http://www.w3.org/2000/svg" width="192" height="192" viewBox="0 0 192 192"><path d="M131.11 111.28c-1.906-.956-11.28-5.563-13.026-6.205-1.752-.635-3.022-.95-4.3.963-1.263 1.905-4.92 6.198-6.03 7.469-1.111 1.277-2.227 1.43-4.133.48-1.906-.962-8.053-2.97-15.336-9.464-5.666-5.056-9.497-11.3-10.607-13.212-1.11-1.905-.116-2.939.834-3.888.86-.854 1.912-2.227 2.862-3.337.956-1.116 1.27-1.912 1.912-3.189.635-1.27.32-2.38-.16-3.337-.482-.956-4.293-10.344-5.878-14.162-1.553-3.715-3.125-3.208-4.293-3.272a82 82 0 0 0-3.657-.064c-1.27 0-3.337.474-5.082 2.387-1.746 1.905-6.674 6.519-6.674 15.907 0 9.38 6.834 18.448 7.784 19.725.956 1.27 13.449 20.533 32.577 28.792 4.55 1.963 8.098 3.137 10.87 4.01 4.568 1.457 8.726 1.251 12.006.757 3.664-.545 11.28-4.613 12.872-9.067 1.591-4.453 1.591-8.27 1.11-9.066-.475-.796-1.745-1.27-3.658-2.227m-34.785 47.503h-.025a63.33 63.33 0 0 1-32.282-8.842l-2.317-1.373-24.005 6.3 6.404-23.407-1.508-2.4a63.27 63.27 0 0 1-9.69-33.752c.007-34.97 28.465-63.422 63.449-63.422 16.94 0 32.866 6.61 44.84 18.595a63.04 63.04 0 0 1 18.563 44.878c-.02 34.971-28.471 63.422-63.43 63.422m53.984-117.41a75.8 75.8 0 0 0-53.983-22.38c-42.061 0-76.294 34.232-76.313 76.306 0 13.45 3.51 26.578 10.19 38.147l-10.831 39.546 40.457-10.613a76.24 76.24 0 0 0 36.466 9.291h.032c42.055 0 76.294-34.233 76.313-76.313a75.85 75.85 0 0 0-22.33-53.983z"/></svg>