<svg width="192" height="192" fill="none" xmlns="http://www.w3.org/2000/svg"><path d="M72 58 53 77m19 19L53 77m0 0s44-5 60 23" stroke="#000" stroke-width="12" stroke-linecap="round" stroke-linejoin="round"/><path d="M142 60.066c15.636 1.029 28 14.037 28 29.934v68a6 6 0 0 1-6 6H80c-16.569 0-30-13.431-30-30v-2m92-71.934V58c0-16.569-13.431-30-30-30H52c-16.569 0-30 13.431-30 30v68a6 6 0 0 0 6 6h22m92-71.934V102c0 16.569-13.431 30-30 30H50" stroke="#000" stroke-width="12" stroke-linecap="round" stroke-linejoin="round"/></svg>