<svg xmlns="http://www.w3.org/2000/svg" width="192" height="192" viewBox="0 0 192 192"><path d="M96.32 19c-42.061 0-76.292 34.233-76.312 76.308 0 13.449 3.51 26.578 10.189 38.147l-10.832 39.546 40.458-10.613a76.24 76.24 0 0 0 36.465 9.29h.032c42.054 0 76.294-34.232 76.314-76.313a76 76 0 0 0-2.126-18.054h-13.345a63 63 0 0 1 2.586 18.056c-.02 34.97-28.471 63.422-63.43 63.422v-.002h-.024a63.33 63.33 0 0 1-32.283-8.842l-2.316-1.373-24.006 6.302 6.403-23.409-1.507-2.4a63.27 63.27 0 0 1-9.69-33.75c.007-34.972 28.465-63.423 63.449-63.423 6.548 0 12.942 1 19.017 2.903v-13.37a75.8 75.8 0 0 0-19.042-2.424zm43.258 2.065v18.522h-17.816V52.33h17.816v18.522h12.74V52.33h17.814V39.587h-17.814V21.065zM69.301 60.067c-1.27 0-3.338.475-5.083 2.387-1.746 1.906-6.673 6.518-6.673 15.906 0 9.38 6.834 18.448 7.783 19.724.957 1.27 13.45 20.533 32.579 28.792 4.549 1.963 8.097 3.137 10.869 4.01 4.568 1.456 8.726 1.251 12.005.757 3.663-.545 11.28-4.614 12.871-9.067s1.593-8.271 1.111-9.067c-.474-.795-1.742-1.27-3.65-2.224-1.905-.956-11.28-5.563-13.026-6.205-1.751-.635-3.023-.951-4.3.96-1.263 1.907-4.92 6.2-6.03 7.471-1.11 1.277-2.228 1.431-4.133.482-1.906-.963-8.052-2.973-15.335-9.466-5.666-5.056-9.497-11.3-10.606-13.213-1.11-1.906-.116-2.938.834-3.887.86-.854 1.912-2.227 2.862-3.337.956-1.117 1.268-1.912 1.91-3.19.635-1.27.322-2.38-.16-3.336-.48-.956-4.292-10.344-5.877-14.162-1.553-3.715-3.125-3.208-4.293-3.272a82 82 0 0 0-3.657-.064z"/></svg>