<svg xmlns="http://www.w3.org/2000/svg" width="192" height="192" viewBox="0 0 192 192"><path d="M95.12 16c-16.985 0-17.399 5.082-17.399 5.082h-7.508a29.07 29.07 0 0 0-29.048 29.047v58.006a29.07 29.07 0 0 0 29.048 29.047v-.015h51.604a29.07 29.07 0 0 0 29.048-29.048v-57.99a29.07 29.07 0 0 0-29.049-29.048h-7.508S115.025 16 95.12 16m-4.611 7.918h11.013a2.897 2.897 0 0 1 2.988 2.822v.166a3.03 3.03 0 0 1-2.912 3.08H90.51a2.99 2.99 0 0 1-2.58-3.08c0-1.537 1.127-2.825 2.58-2.988zm-30.99 24.59h72.825a3.95 3.95 0 0 1 3.959 3.958v21.282a3.95 3.95 0 0 1-3.96 3.96H59.52a3.95 3.95 0 0 1-3.96-3.96V52.466a3.95 3.95 0 0 1 3.96-3.959m12.636 51.057a9.264 9.264 0 0 1 9.298 9.314 9.24 9.24 0 0 1-9.298 9.298 9.24 9.24 0 0 1-9.299-9.298c0-5.173 4.11-9.314 9.299-9.314m47.72 0c5.18 0 9.3 4.141 9.3 9.314 0 5.017-3.88 9.057-8.89 9.298h-.41a9.24 9.24 0 0 1-9.298-9.298c0-5.173 4.118-9.314 9.299-9.314zM66.559 146.8l-28.805 28.805 14.486.394 5.096-5.096h77.345l5.097 5.096 14.471-.394L125.55 146.8h-14.972l3.96 3.96H77.493l3.96-3.96zm3.488 11.407h51.938l5.249 5.264H64.798z"/></svg>