<svg width="192" height="192" fill="none" xmlns="http://www.w3.org/2000/svg"><path d="M56 148h14m26-63v57a6 6 0 0 0 6 6h41" stroke="#000" stroke-width="12" stroke-linecap="round" stroke-linejoin="round"/><path d="M56 148a34 34 0 0 1-3.468-67.823A44.001 44.001 0 0 1 140 87v7.167a26.998 26.998 0 0 1 28.837 34.671A26.99 26.99 0 0 1 143 148" stroke="#000" stroke-width="12" stroke-linecap="round" stroke-linejoin="round"/><path d="m76 101 15.757-15.757a6 6 0 0 1 8.486 0L116 101" stroke="#000" stroke-width="12" stroke-linecap="round" stroke-linejoin="round"/></svg>