<svg width="192" height="192" fill="none" xmlns="http://www.w3.org/2000/svg"><circle cx="137" cy="137" r="30" stroke="#000" stroke-width="12" stroke-linecap="round" stroke-linejoin="round"/><path d="M25 126c0-9.941 8.059-18 18-18h22c9.941 0 18 8.059 18 18v22c0 9.941-8.059 18-18 18H43c-9.941 0-18-8.059-18-18v-22Zm0-83c0-9.941 8.059-18 18-18h106c9.941 0 18 8.059 18 18v22c0 9.941-8.059 18-18 18H43c-9.941 0-18-8.059-18-18V43Z" stroke="#000" stroke-width="12" stroke-linecap="round" stroke-linejoin="round"/></svg>