<svg width="192" height="192" fill="none" xmlns="http://www.w3.org/2000/svg"><path d="M59 102a6 6 0 0 1 6-6h50.515a6 6 0 0 1 4.242 1.757l11.486 11.486a6 6 0 0 1 1.757 4.242V164a6 6 0 0 1-6 6H65a6 6 0 0 1-6-6v-62Z" stroke="#000" stroke-width="12" stroke-linecap="round" stroke-linejoin="round"/><path d="M81 133h30m0-37v13a6 6 0 0 1-6 6H87a6 6 0 0 1-6-6V96m0 55h30" stroke="#000" stroke-width="10" stroke-linecap="round" stroke-linejoin="round"/><path d="M148.326 43.674A74.006 74.006 0 0 0 96 22a74.001 74.001 0 0 0-52.326 21.674M132.77 59.23A52.013 52.013 0 0 0 96 44a52 52 0 0 0-36.77 15.23m57.983 15.557a30.002 30.002 0 0 0-42.426 0" stroke="#000" stroke-width="12" stroke-linecap="round" stroke-linejoin="round"/></svg>