<svg xmlns="http://www.w3.org/2000/svg" width="192" height="192" viewBox="0 0 192 192"><path d="M64.849 58.896C52.335 58.756 34.196 62.473 16 79.5c0 .127 11.319 12.592 11.319 12.592s16.152-15.644 36.12-17.297 36.374 6.118 36.374 6.118 7.757-4.718 15.388-5.482v-.002S86.839 63.347 79.081 60.93c-2.667-.83-7.678-1.961-14.233-2.034zm80.468 6.9c-2.625.025-5.183.476-7.28 1.585-5.595 2.958-8.334 12.401-8.334 12.592-1.336-3.91-4.29-3.817-5.532-2.767-1.24 1.049-1.813 3.052-.955 4.483.859 1.431 4.388 7.06 6.2 9.73 1.814 2.67 6.584 5.723 12.784 4.197 6.2-1.527 8.487-12.723 8.487-12.723h2.578l.953-4.447-4.006.095c-3.294.079-4.784-1.97-5.315-2.701l-.192-.243c.646.278 3.85.237 6.592.201.859-.01 1.673-.022 2.348-.022 2.32 0 2.509-1.003 2.752-2.299.438-1.753.667-3.529.777-5.332-2.92-1.252-7.481-2.393-11.857-2.35zm-33.242 14.24c-1.037.01-2.069.126-2.975.412-3.624 1.145-16.025 6.583-31.764 28.33-2.575 3.912-1.718 7.25 4.196 6.295.52-.083 1.103-.172 1.74-.27 6.619-1.01 19.201-2.934 29.642-9.459 3.911-2.67 4.578-4.293.572-4.006s-16.447.763-17.905.763c-1.457 0-1.744-.19.832-.858s13.354-2.671 20.412-1.812c3.91.858 5.056 3.051 1.717 5.723-3.337 2.67-9.73 7.726-27.47 13.067 0-.19.763 4.388-7.06 8.107-2.057.98-4.01 1.833-5.696 2.57-4.719 2.063-7.342 3.21-4.32 3.632 4.103.572 29.57 3.243 60.476-10.78 5.7-2.43 5.605-5.866 5.522-8.874-.076-2.935-1.42-11-1.802-13.255 0 0-6.771.191-12.685-6.962-5.915-7.154-7.156-11.751-7.156-11.751s-3.164-.904-6.276-.872m62.613 2.863c-.337-.025-.737.041-1.202.22-2.48.954-21.655 6.296-21.655 6.2-4.58 11.638-10.106 9.878-10.106 9.878s2.38 12.255 2.475 12.349c24.99-13.45 29.952-21.843 31.192-24.514 1.007-2.17.755-4.026-.705-4.134zm-99.604 1.164c-28.708.467-40.388 15.405-40.388 15.405s11.447 11.957 11.447 12.083c15.134-12.336 30.524-9.665 30.651-9.41C81.5 94.764 92.819 85.48 92.819 85.48c-6.518-1.093-12.418-1.504-17.734-1.417zm-5.54 27.148c-3.137.013-9.197 1.34-16.28 8.86l10.495 11.192s7.184-3.308 13.544-5.596c6.359-2.29 8.267-5.596 8.267-5.596s-18.696.89-13.736-8.522c-.04-.08-.863-.344-2.29-.338"/></svg>