<svg xmlns="http://www.w3.org/2000/svg" width="192" height="192" viewBox="0 0 192 192"><path d="M36.672 133.28 16 58.736h11.832l14.52 57.736h.688l15.12-57.744h11.712l15.104 57.768h.688l14.488-57.76h11.872l-20.72 74.536H80l-15.688-55.84h-.584l-15.688 55.84zm85.6 0V58.736h27.296q7.944 0 13.136 2.624 5.208 2.592 7.792 7.024 2.592 4.4 2.584 9.944 0 4.648-1.704 7.856a14.1 14.1 0 0 1-4.584 5.096 20 20 0 0 1-6.264 2.76v.736q3.712.184 7.24 2.4 3.568 2.168 5.896 6.224 2.328 4.048 2.336 9.824 0 5.712-2.704 10.264-2.648 4.512-8.224 7.176-5.56 2.616-14.232 2.616zm11.248-9.64h16.224q8.088 0 11.584-3.136 3.488-3.12 3.496-7.824 0-3.528-1.792-6.48a12.8 12.8 0 0 0-5.096-4.696 16.3 16.3 0 0 0-7.784-1.744H133.52zm0-32.648h15.064q3.792 0 6.808-1.456a12 12 0 0 0 4.848-4.08q1.816-2.656 1.816-6.264 0-4.608-3.248-7.752-3.232-3.12-9.928-3.12h-15.36z"/></svg>