<svg xmlns="http://www.w3.org/2000/svg" width="192" height="192"><path d="M131.07 45.474a5.3 5.3 0 0 0-1.956.309l-29.29 10.639a3.49 3.49 0 0 0-1.971 4.772l9.939 21.366 7.443 15.937 1.532 3.284c2.408 5.166 7.225 8.843 12.83 9.85l8.274 1.445c1.139.22 2.102.92 2.583 1.97l1.314 2.802 1.751 3.766c1.183 2.583-1.007 5.429-3.765 4.947l-9.107-1.62c-1.4-.262-2.495 1.182-1.882 2.452l7.968 17.032a3.47 3.47 0 0 0 3.153 2.013h16.769c11.559.044 19.177-11.909 14.317-22.373l-6.83-14.666a1.74 1.74 0 0 1 .481-2.101v.043a55 55 0 0 0 11.296-11.909c.263-.394-.175-.876-.569-.657-4.772 2.583-9.983 4.466-15.5 5.561-3.459.657-7.005 1.007-10.639 1.007s-8.363-.481-12.347-1.401c6.524-.832 12.697-2.846 18.258-5.735a1.78 1.78 0 0 0 .789-2.321l-20.228-43.388c-.854-1.839-2.669-2.964-4.612-3.023zM89.914 60.328a3.5 3.5 0 0 0-1.294.206l-23.424 8.538a3.49 3.49 0 0 0-1.97 4.772l32.924 70.578c.57 1.226 1.796 2.058 3.153 2.058h27.409c2.583 0 4.29-2.671 3.195-4.992L92.998 62.33a3.56 3.56 0 0 0-3.084-2zM55.325 72.919a3.4 3.4 0 0 0-1.294.23L21.413 85.014a1.77 1.77 0 0 0-1.007 2.408c.306.613.92 1.007 1.576 1.007h5.429c1.357 0 2.583.788 3.152 2.014L34.68 99.2c.438.919.438 2.014 0 2.977l-18.345 39.36c-1.095 2.32.613 4.991 3.196 4.991h27.277c1.357 0 2.583-.788 3.196-2.014l2.102-4.51c.306-.656 1.27-.656 1.576 0l2.102 4.51c.569 1.226 1.795 2.014 3.196 2.014h27.277c2.583 0 4.247-2.67 3.196-4.991h-.043l-31-66.593c-.59-1.248-1.797-2.003-3.084-2.026z"/></svg>