<svg xmlns="http://www.w3.org/2000/svg" width="192" height="192" viewBox="0 0 192 192"><path d="M116.84 19.042a56.161 56.161 0 1 0 56.161 56.161 56.16 56.16 0 0 0-56.161-56.161m.67 100.87a45.376 45.376 0 1 1 45.376-45.376 45.376 45.376 0 0 1-45.376 45.376m17.499-64.999h13.11l-9.846 44.359h-13.657l-7.775-27.669-7.776 27.669H95.408l-9.846-44.359h13.11l4.658 24.189 6.798-24.189h13.426l6.798 24.189zm-62.397 64.422a58 58 0 0 0 6.451 5.543s-12.695 13.319-18.4 20.44c-7.121 8.869-15.128 20.986-17.368 23.219a12.01 12.01 0 0 1-10.124 4.388 14 14 0 0 1-9.885-4.257 14 14 0 0 1-4.257-9.885 12.01 12.01 0 0 1 4.388-10.124c2.24-2.24 14.358-10.247 23.227-17.368 7.114-5.712 20.44-18.4 20.44-18.4a58 58 0 0 0 5.543 6.444"/></svg>