<svg xmlns="http://www.w3.org/2000/svg" width="192" height="192"><path d="M26.464 43.715c-5.353 0-9.755 4.06-10.325 9.27a10.38 10.38 0 0 0 .999 6.411L59.46 142.6a10.4 10.4 0 0 0 9.292 5.685 10.39 10.39 0 0 0 9.282-5.685l46.714-91.828.136-.238c1.266-2.33 2.76-4.016 4.493-5.06 1.805-1.089 3.728-1.68 5.776-1.76h-22.807a11.97 11.97 0 0 0-10.666 6.547l-32.928 64.732-25.666-50.447h31.158L80.78 77.39l11.676-22.92-2.212-4.345c-1.566-3.764-5.275-6.411-9.6-6.411zm115.84 0c-2.048.079-3.971.67-5.775 1.759-1.733 1.044-3.24 2.73-4.505 5.06l-.136.261-7.001 13.752h24.021l-25.666 50.436-12.005-23.6-9.145 17.972-.046-.011-2.507 4.913 14.433 28.366a10.38 10.38 0 0 0 9.088 5.662h.364c3.72-.06 7.29-2.117 9.1-5.662l42.345-83.25a10.35 10.35 0 0 0 1.123-5.186v-.08c0-5.74-4.654-10.392-10.393-10.392z"/></svg>