<svg xmlns="http://www.w3.org/2000/svg" width="192" height="192" viewBox="0 0 192 192"><path d="M169.4 173h-24.64a1.77 1.77 0 0 1-1.57-.808l-16.556-23.716-.2-.409-8.277-24.524-.986-1-20.097-10.457-.993-1.208-2.957-15.076-.393-.609-6.699-10.249a2 2 0 0 1-.2-1.81l4.143-9.047q.585-1.2 1.77-1.208l7.685-.4q.886 0 1.186-.601l5.713-4.428c.986-.8 2.765-.4 3.35.809l19.319 40.409.2.4 2.556 16.285.4 1.001 38.824 43.427c1.186 1.209.2 3.219-1.579 3.219m-105.44-8.848c.193.609.193 1.21-.2 1.61l-3.742 6.237a2.08 2.08 0 0 1-1.771 1H22.557a2.002 2.002 0 0 1-1.771-3.018l22.869-34.372.385-.608 10.449-45.837a2.08 2.08 0 0 1 .986-1.201l14.199-8.054a1.54 1.54 0 0 0 .985-1.41l1.971-8.439c.393-1.81 2.957-2.21 3.943-.608l.593 1.209c.384.4.384 1 .192 1.61l-13.013 38.19v1.009l3.157 18.295v1.001l-7.877 17.702v1.201l4.335 14.476zm55.377-8.439v.801l-1.178 14.676c0 1.001-.985 1.81-1.971 1.81H79.328a2.39 2.39 0 0 1-1.971-1.001l-6.106-11.665-5.721-14.276v-1.61L75 125.553c.386-.6.386-1 .193-1.609l-4.735-13.067c-.193-.4 0-1.001.2-1.41l7.684-16.885c.793-1.61 3.357-1.61 3.943.2l2.364 7.638 7.492 20.305c.2.409.592 1.01 1.185 1.21l15.77 5.428c.585.2 1.177.6 1.378 1.209l8.87 27.142m-45.33-109.17c0-4.62 2.958-8.647 6.9-10.456l-.393-1.61c0-2.21 2.564-4.019 5.714-4.019h.2a7.7 7.7 0 0 1 3.033-2.849 7.4 7.4 0 0 1 4.058-.77l.593-.4c2.172-3.219 7.292-5.429 13.398-5.429 2.372 0 4.543.4 6.314.809a3.85 3.85 0 0 1 2.757-1.21c1.185 0 2.364.601 2.764 1.61a10 10 0 0 1 7.476-3.218c4.928 0 8.87 3.218 8.87 7.238l-.192 1.409.585.8c3.157 1.21 5.329 3.42 5.329 6.03 0 2.818-2.957 5.428-6.7 6.437q-.6 0-.592.6c0 2.21-2.172 4.227-5.128 4.428v.2c0 4.42-8.085 8.038-18.133 8.038-2.172 0-4.143-.2-6.114-.6v.2c0 1.81-2.364 3.219-5.12 3.219h-.393l.385 1.4c0 2.82-3.542 5.029-7.877 5.029h-1.386l-.785.4a3.16 3.16 0 0 1-2.957 2.418 3.157 3.157 0 0 1-3.157-3.218c0-1.001.2-1.61.793-2.21l.2-.809c-.392-.6-.392-1-.392-1.61 0-.4-.4-.6-.593-.6-5.32-1.2-9.463-5.828-9.463-11.257z"/></svg>