<svg xmlns="http://www.w3.org/2000/svg" width="192" height="192" viewBox="0 0 192 192"><path d="M96.165 16c-7.826 0-14.385 2.154-20.344 5.734-.067.04-.098.117-.062.188.031.074.113.096.187.078 6.666-1.705 17.252 3.836 20.125 5.484.025.014.058.047.094.047.032 0 .043-.029.078-.047 1.083-.647 12.53-7.158 20.062-5.53.078.02.153.007.188-.063.025-.075.012-.153-.063-.188C110.472 18.158 104.015 16 96.164 16zM70.009 26.953c-.868-.004-1.202.295-1.187.281a38.8 38.8 0 0 0-11.594 27.688c0 8.517 2.783 16.81 7.953 23.578.052.067.14.102.218.063.07-.043.075-.13.047-.203-2.965-9.175 12.194-31.412 20.031-40.734a.14.14 0 0 0 .063-.11c0-.053-.044-.093-.079-.125-9.063-9.02-13.544-10.429-15.453-10.437zm52.313 0c-1.903.002-6.387 1.402-15.453 10.422-.04.032-.078.065-.078.125 0 .037.01.077.047.11 7.833 9.326 22.996 31.574 20.03 40.75-.027.074-.016.163.048.203.078.038.154.001.203-.063a38.84 38.84 0 0 0 7.953-23.578 38.77 38.77 0 0 0-11.578-27.688c.015.013-.307-.282-1.172-.281M96.166 47.219c-.046 0-.09.038-.125.062-11.637 8.856-31.575 30.746-25.5 36.938a38.78 38.78 0 0 0 25.625 9.625 38.76 38.76 0 0 0 25.609-9.625c6.086-6.19-13.837-28.08-25.484-36.938-.028-.024-.083-.062-.125-.062M46.807 100.75a16 16 0 0 0-6.562 1.188c-2.072.695-3.62 1.905-5.172 3.28a16 16 0 0 0-3.282 5.532 22.4 22.4 0 0 0-1.03 7.078c0 2.416.334 4.834 1.03 6.906.688 2.072 1.898 3.964 3.282 5.516 1.376 1.552 3.111 2.76 5.015 3.625s3.96 1.219 6.375 1.219 4.475-.355 6.203-1.22c1.728-.863 3.292-2.052 4.5-3.78v4.312h4.657V117.14H47.667v4.328h9.671a9.6 9.6 0 0 1-3.109 6.719c-1.896 1.728-4.49 2.594-7.25 2.594-3.28 0-6.033-1.205-7.937-3.453-1.896-2.24-2.938-5.353-2.938-9.313 0-3.976 1.042-7.088 2.938-9.328 1.904-2.248 4.485-3.453 7.765-3.453 2.416 0 4.483.683 6.219 1.89 1.72 1.208 2.761 2.932 3.281 5.172h5.172c-.52-3.448-2.072-6.38-4.656-8.453s-6.048-3.094-10.016-3.094zm30.563.688-12.953 32.969h5.188l3.109-8.641h14.672l3.11 8.64h5.171l-12.594-32.968zm21.562 0v32.797h4.844v-26.078c.688 2.064 1.542 4.318 2.406 6.734l7.594 19.328h4.14l7.422-19.328c1.04-2.592 1.734-4.838 2.422-6.734v26.25h4.828v-32.97h-6.734l-6.563 17.079c-1.376 3.456-2.405 6.735-3.437 9.671a232 232 0 0 0-3.281-9.14l-6.735-17.61zm38.656 0v32.797h23.484v-4.5h-18.469v-10.172h16.391v-4.141h-16.391v-9.5h18.641v-4.484zm-57.297 4.828 5.688 15.188H74.604zm27.094 35.719c-3.448 0-6.381.885-8.453 2.437-2.072 1.72-3.11 3.787-3.11 6.547s.866 4.839 2.594 6.39c1.728 1.553 4.318 2.586 7.766 3.282l2.766.515c2.76.52 4.827 1.215 5.859 2.079 1.04.688 1.562 1.897 1.562 3.28a4.72 4.72 0 0 1-1.906 3.954c-1.208.864-3.1 1.39-5.515 1.39-2.936 0-5.01-.698-6.563-1.906-1.384-1.208-2.234-3.107-2.234-5.515h-5.016c0 3.792 1.201 6.72 3.625 8.625 2.416 1.896 5.868 2.937 10.188 2.937 3.968 0 7.245-.866 9.485-2.594 2.24-1.72 3.453-4.146 3.453-7.25 0-2.592-.855-4.667-2.407-5.875-1.56-1.552-4.317-2.573-8.109-3.437l-2.937-.531c-2.763-.512-4.669-1.194-5.704-2.063a4.08 4.08 0 0 1-1.546-3.453c0-1.552.678-2.59 1.718-3.453 1.2-.864 2.928-1.203 5-1.203 2.76 0 4.84.522 6.047 1.562q1.814 1.552 2.078 4.656h4.64c-.167-3.104-1.189-5.705-3.437-7.609-2.24-1.896-5.523-2.75-9.843-2.75zm29.344 0c-3.448 0-6.381.885-8.453 2.437-2.08 1.72-3.11 3.787-3.11 6.547s.874 4.839 2.594 6.39 4.318 2.586 7.766 3.282l2.75.515c2.76.52 4.835 1.215 5.875 2.079 1.04.688 1.562 1.897 1.562 3.28a4.72 4.72 0 0 1-1.906 3.954c-1.2.864-3.115 1.39-5.531 1.39-2.928 0-4.995-.698-6.547-1.906-1.376-1.208-2.25-3.107-2.25-5.515h-5c0 3.792 1.209 6.72 3.625 8.625 2.416 1.896 5.86 2.937 10.172 2.937 3.976 0 7.252-.866 9.5-2.594 2.24-1.72 3.453-4.146 3.453-7.25 0-2.592-.87-4.667-2.422-5.875-1.552-1.552-4.31-2.573-8.11-3.437l-2.937-.531c-2.757-.512-4.652-1.194-5.687-2.063a4.08 4.08 0 0 1-1.563-3.453c0-1.552.703-2.59 1.735-3.453 1.208-.864 2.928-1.203 5-1.203 2.76 0 4.839.522 6.047 1.562 1.205 1.035 1.902 2.587 2.078 4.656h4.656c-.168-3.104-1.205-5.705-3.453-7.609-2.24-1.896-5.524-2.75-9.844-2.75zm-95.953.359v32.953h5v-12.078h8.969c3.632 0 6.4-.846 8.297-2.75 1.896-1.896 2.922-4.49 2.922-7.61.168-3.271-.85-5.853-2.922-7.75-1.896-1.895-4.841-2.765-8.297-2.765zm34.688 0-12.953 32.953h5.188l3.109-8.61H85.48l3.094 8.626h5.187l-12.609-32.97zm-29.688 4.484h8.969c2.075 0 3.637.523 4.672 1.563 1.04 1.04 1.547 2.58 1.547 4.469 0 1.904-.515 3.46-1.547 4.5-1.04 1.034-2.603 1.547-4.672 1.547h-8.953zm32.438.344 5.703 15.203H72.542z"/></svg>