<svg xmlns="http://www.w3.org/2000/svg" width="192" height="192" viewBox="0 0 192 192"><path d="M77.169 128.66H59.13a.64.64 0 0 1-.56-.312l-11.655-18.831-11.671 18.831a.64.64 0 0 1-.552.312H16.653a.656.656 0 0 1-.544-1.016l21.663-32.198L16.373 64.36a.656.656 0 0 1 .544-1.024h18.151a.64.64 0 0 1 .552.312l11.295 17.967L58.138 63.76a.88.88 0 0 1 .744-.416h18.031c.523.006.83.591.536 1.024L56.05 95.446l21.663 32.198a.656.656 0 0 1-.544 1.016m34.79-96.691a63.83 63.83 0 0 0-47.005 20.543.336.336 0 0 0 .24.552h2.848a.64.64 0 0 0 .416-.16 58 58 0 0 1 38.174-14.239c31.974 0 57.885 25.679 57.885 57.341s-25.903 57.333-57.877 57.333A58 58 0 0 1 68.474 139.1a.64.64 0 0 0-.424-.16h-2.84a.336.336 0 0 0-.24.56 63.84 63.84 0 0 0 46.997 20.535c35.366-.002 64.035-28.674 64.033-64.041s-28.674-64.035-64.041-64.033zm25.383 69.844H89.089c.424 7.32 6.88 13.631 16.255 13.631 7.208 0 11.807-2.872 14.591-7.28a.64.64 0 0 1 .856-.24l12.207 6.328c.344.181.455.62.24.944-5.808 8.776-15.775 14.575-27.982 14.575h-.088c-19.335 0-32.574-14.15-32.574-33.774 0-19.623 13.23-33.774 32.558-33.774s33.262 15.12 33.262 33.774a32 32 0 0 1-.376 5.096c-.064.336-.296.72-.688.72zM122.183 88.59a16.56 16.56 0 0 0-16.247-12.039c-9.968 0-15.095 6.24-16.311 12.039z"/></svg>