<svg xmlns="http://www.w3.org/2000/svg" width="192" height="192"><path d="M32.574 17.577c3.596-1.457 7.57-1.868 11.408-1.382 5.011.62 9.757 2.513 14.287 4.666 3.55 1.688 6.985 3.6 10.457 5.44 3.097 1.613 6.169 3.278 9.35 4.72 4.786 2.184 9.825 3.998 15.09 4.513 4.535.466 9.126-.254 13.444-1.649 6.77-2.18 12.977-5.728 19.217-9.077 5.456-2.924 10.988-5.858 16.985-7.518 4.364-1.213 9.03-1.6 13.475-.575 1.563.375 3.124.833 4.571 1.544 2.764 1.41 4.67 4.273 5.059 7.333.283 2.063-.26 4.17-1.23 5.989-.733 1.478-1.45 2.966-2.302 4.382-1.878 3.172-4.041 6.162-6.174 9.165a158 158 0 0 1-7.416 9.704c-5.398 6.503-11.268 12.61-17.382 18.443a265 265 0 0 1-4.453 4.156c-.263.214-.479.494-.746.69-1.33 1.22-2.658 2.44-4.011 3.632-1.461 1.249-2.876 2.552-4.339 3.8-2.18 1.866-4.348 3.746-6.554 5.58a754 754 0 0 1-5.843 4.869c2.401 2.034 4.767 4.11 7.145 6.171 4.246 3.714 8.507 7.408 12.724 11.154 9.3 8.344 18.251 17.124 26.223 26.76 4.06 4.954 7.91 10.121 11.016 15.736.941 1.708 1.787 3.47 2.473 5.297.518 1.288.87 2.655.946 4.044.03 2.114-.633 4.244-1.942 5.913-1.43 1.842-3.533 3.039-5.72 3.754-3.697 1.276-7.713 1.451-11.552.798-5.077-.853-9.853-2.906-14.443-5.167-3.1-1.525-6.117-3.21-9.173-4.819-3.058-1.595-6.094-3.237-9.237-4.661-4.785-2.184-9.824-3.998-15.09-4.513-4.534-.466-9.125.253-13.443 1.648-6.771 2.181-12.977 5.728-19.217 9.078-5.457 2.924-10.988 5.858-16.985 7.518-4.365 1.212-9.031 1.599-13.475.574-1.564-.374-3.125-.833-4.572-1.544-2.764-1.409-4.669-4.273-5.058-7.332-.283-2.064.26-4.17 1.23-5.99.732-1.478 1.45-2.966 2.302-4.381 1.877-3.172 4.04-6.162 6.173-9.165a158 158 0 0 1 10.149-12.917c.73-.816 1.439-1.651 2.177-2.46a188 188 0 0 1 6.594-6.985 254 254 0 0 1 5.795-5.705c.494-.487 1.013-.948 1.499-1.443l-.867.834a408 408 0 0 1 7.138-6.586c.803-.722 1.623-1.426 2.418-2.157.871-.727 1.698-1.506 2.56-2.244 1.874-1.651 3.803-3.24 5.674-4.893 2.54-2.101 5.062-4.224 7.607-6.318-1.417-1.17-2.77-2.415-4.178-3.597-4.583-3.97-9.143-7.965-13.7-11.964-9.057-7.994-17.78-16.401-25.694-25.54-4.636-5.396-9.038-11.034-12.656-17.171-1.284-2.195-2.459-4.462-3.35-6.847-.519-1.287-.871-2.655-.947-4.043-.03-2.215.692-4.456 2.134-6.152a10.7 10.7 0 0 1 2.807-2.313 14 14 0 0 1 1.624-.797z"/></svg>