<svg xmlns="http://www.w3.org/2000/svg" width="192" height="192" viewBox="0 0 192 192"><path d="M96 19c-42.527 0-77 34.473-77 77s34.473 77 77 77 77-34.473 77-77-34.473-77-77-77m-.571 15.415A7.7 7.7 0 0 1 103.7 42.1a7.7 7.7 0 0 1-15.4 0 7.7 7.7 0 0 1 7.129-7.685M96 65.2a30.8 30.8 0 0 1 0 61.6 30.8 30.8 0 0 1 0-61.6m0 7.7a23.1 23.1 0 0 0 0 46.2 23.1 23.1 0 0 0 0-46.2M41.529 88.315A7.7 7.7 0 0 1 49.801 96a7.7 7.7 0 0 1-15.4 0 7.7 7.7 0 0 1 7.128-7.685m107.8 0A7.7 7.7 0 0 1 157.601 96a7.7 7.7 0 0 1-15.4 0 7.7 7.7 0 0 1 7.128-7.685m-53.9 53.9a7.7 7.7 0 0 1 8.272 7.685 7.7 7.7 0 0 1-15.4 0 7.7 7.7 0 0 1 7.128-7.685"/></svg>