<svg width="192" height="192" fill="none" xmlns="http://www.w3.org/2000/svg"><path d="M30.225 55.445A5.979 5.979 0 0 0 27 60.748v70.504a5.979 5.979 0 0 0 3.225 5.303l63 32.767a6.02 6.02 0 0 0 5.55 0l63-32.767a5.979 5.979 0 0 0 3.225-5.303V60.748a5.979 5.979 0 0 0-3.225-5.303l-63-32.767a6.017 6.017 0 0 0-5.55 0l-63 32.767ZM129 78v36M85 99v15" stroke="#000" stroke-width="12" stroke-linecap="round" stroke-linejoin="round"/><path d="M63 114V84a6 6 0 0 1 6-6h26c6.627 0 12 5.373 12 12v24" stroke="#000" stroke-width="12" stroke-linecap="round" stroke-linejoin="round"/></svg>