<svg xmlns="http://www.w3.org/2000/svg" width="192" height="192" viewBox="0 0 192 192"><path d="M109.21 16.004c-1.631-.012-3.15.002-3.38.026s-1.135.119-1.993.228c-.857.097-2.49.365-3.625.595a68 68 0 0 0-3.805.894c-.967.266-2.624.788-3.687 1.151a84 84 0 0 0-3.866 1.463 93 93 0 0 0-3.99 1.817A76 76 0 0 0 81 24.236a79 79 0 0 0-3.565 2.202 67 67 0 0 0-3.319 2.339 96 96 0 0 0-2.78 2.189c-.664.557-2.056 1.865-3.083 2.894-1.039 1.03-2.354 2.471-2.946 3.21-.58.738-1.437 1.898-1.896 2.6a31 31 0 0 0-1.498 2.545 26 26 0 0 0-1.077 2.544c-.23.702-.509 1.754-.617 2.36-.097.605-.18 1.525-.18 2.058s.062 1.32.123 1.755c.072.436.24 1.137.385 1.572.133.436.46 1.199.714 1.695s.738 1.234 1.064 1.633c.326.4.963 1.02 1.41 1.37.459.364 1.21.834 1.681 1.051.471.23 1.281.524 1.813.657.532.146 1.557.313 2.294.386.737.06 1.788.084 2.356.048s1.44-.132 1.935-.193a47 47 0 0 0 1.813-.302 62 62 0 0 0 2.356-.596 34 34 0 0 0 2.658-.893c.664-.254 1.978-.859 2.92-1.33a57 57 0 0 0 3.385-1.853c.918-.545 3.491-2.158 5.714-3.586 2.223-1.44 4.81-3.06 5.74-3.617a69 69 0 0 1 3.744-2.058c1.136-.569 2.66-1.286 3.385-1.576s1.87-.691 2.535-.885 1.62-.434 2.115-.543 1.753-.23 2.78-.267c1.233-.048 2.172-.013 2.776.083.496.085 1.26.268 1.695.425.435.145 1.025.4 1.327.582.302.17.763.497 1.029.727.266.218.701.726.967 1.126a8 8 0 0 1 .736 1.502c.157.435.34 1.268.412 1.874.096.799.096 1.44 0 2.421a22 22 0 0 1-.543 2.907c-.218.86-.605 2.12-.859 2.785a47 47 0 0 1-1.186 2.842c-.411.896-1.109 2.292-1.568 3.091a67 67 0 0 1-1.607 2.662 60 60 0 0 1-1.79 2.54 75 75 0 0 1-1.74 2.242 88 88 0 0 1-2.223 2.518c-.81.883-2.236 2.31-3.166 3.17s-2.296 2.058-3.022 2.675a92 92 0 0 1-3.14 2.47c-.99.75-2.55 1.855-3.445 2.46a64 64 0 0 1-3.14 1.95 37 37 0 0 1-2.837 1.426c-.725.303-1.85.693-2.478.85-.906.23-1.38.29-2.238.254-.906-.036-1.182-.1-1.629-.355-.326-.193-.627-.48-.735-.722-.109-.23-.244-.582-.28-.775-.049-.194-.025-.666.048-1.03.072-.362.303-1.042.52-1.514s.64-1.198.929-1.633.884-1.224 1.331-1.756a42 42 0 0 1 1.703-1.879c.496-.496 1.69-1.62 2.645-2.491a72 72 0 0 0 2.671-2.544c.508-.533 1.15-1.307 1.427-1.743s.592-1.065.701-1.392c.133-.424.168-.874.131-1.515-.036-.654-.146-1.075-.363-1.51-.17-.34-.59-.86-.928-1.187-.339-.315-.956-.727-1.366-.933-.423-.194-1.136-.446-1.607-.543-.484-.097-1.473-.184-2.295-.184-1.05 0-1.741.072-2.478.254-.568.133-1.51.471-2.115.762a16 16 0 0 0-1.992 1.125c-.496.34-1.343.994-1.874 1.454a24 24 0 0 0-1.97 1.988c-.557.617-1.448 1.789-1.98 2.588a35 35 0 0 0-1.642 2.784c-.362.727-.833 1.792-1.05 2.36s-.532 1.577-.701 2.242a28 28 0 0 0-.46 2.238c-.085.63-.123 1.674-.075 2.667.037.932.147 1.948.268 2.36.108.4.397 1.137.639 1.633.326.678.69 1.152 1.414 1.878.58.581 1.255 1.123 1.69 1.353.399.206.993.474 1.331.583.327.109 1.016.28 1.511.376.495.097 1.45.18 2.115.18s1.86-.059 2.658-.132a42 42 0 0 0 2.837-.376 54 54 0 0 0 2.838-.604 51 51 0 0 0 2.78-.802c.725-.23 2.09-.727 3.021-1.09a83 83 0 0 0 3.262-1.401c.858-.4 2.282-1.104 3.14-1.577a84 84 0 0 0 2.903-1.633 79 79 0 0 0 2.96-1.887c.894-.593 2.115-1.442 2.719-1.865a92 92 0 0 0 2.535-1.936c.798-.641 2.019-1.65 2.72-2.255.7-.593 2.416-2.237 3.817-3.63 1.402-1.404 3.166-3.294 3.915-4.19a72 72 0 0 0 2.452-3.087c.604-.799 1.449-1.996 1.896-2.662s1.174-1.838 1.633-2.6c.447-.764 1.242-2.268 1.774-3.333.52-1.065 1.219-2.626 1.545-3.485.339-.848.8-2.178 1.03-2.965.229-.775.53-1.903.652-2.509.133-.605.324-1.633.433-2.299s.23-2.19.267-3.389c.048-1.356.01-2.7-.074-3.573a42 42 0 0 0-.447-2.846 32 32 0 0 0-.797-2.903 29 29 0 0 0-1.05-2.662 34 34 0 0 0-1.244-2.364c-.362-.63-1.087-1.706-1.594-2.396-.508-.678-1.34-1.682-1.848-2.215a27 27 0 0 0-1.852-1.743c-.495-.424-1.446-1.128-2.11-1.576a29 29 0 0 0-2.658-1.51c-.798-.4-2.189-.96-3.083-1.262-.894-.29-2.26-.675-3.021-.845s-2.04-.4-2.838-.52c-1.002-.134-2.36-.208-4.413-.22zm-74.139 96.821 7.387 10.145-7.816 10.666h4.965l5.382-7.632 5.394 7.632h4.961l-7.816-10.666 7.391-10.145h-4.97l-4.96 7.08-4.966-7.08zm38.891 1.38v4.72h-2.5v3.262h2.482v6.62c0 3.464 2.174 5.136 5.408 5.136 1.195 0 2.656-.291 3.56-.735l-.368-3.267c-.827.337-1.764.508-2.5.508-1.318 0-2.176-.674-2.176-2.207v-6.055h4.321v-3.262h-4.413v-4.72zm-10.719 4.413c-3.203 0-5.75 1.778-5.75 4.536 0 3.02 2.273 4.044 5.492 4.764 1.793.399 2.57.677 2.57 1.458 0 .828-.917 1.288-2.098 1.288-1.486 0-2.99-.89-3.879-2.268l-2.636 2.128c1.334 2.084 3.663 3.42 6.56 3.42 3.141 0 5.81-1.794 5.81-4.568 0-2.911-2.084-3.971-5.364-4.768-1.824-.444-2.759-.705-2.759-1.502 0-.735.874-1.178 2.146-1.178 1.563 0 2.65.795 3.293 1.822l2.513-2.067c-1.057-1.594-2.91-3.065-5.898-3.065m30.567 0c-1.655 0-3.08.78-3.831 2.312l-.075-2.006h-3.8v14.713h3.936v-7.54c0-3.035 1.824-3.972 3.555-3.972.782 0 1.424.2 1.822.337l.31-3.507a6 6 0 0 0-1.917-.337m11.052 0c-4.368 0-7.551 3.155-7.566 7.645 0 4.291 3.034 7.693 7.754 7.693 2.59 0 5.163-1.239 6.542-3.538l-2.79-2.084c-.95 1.395-2.204 2.067-3.66 2.067-1.87 0-3.632-1.21-3.923-2.943h10.631c.092-.582.14-1.132.14-1.668 0-4.46-3.082-7.172-7.128-7.172m16.573 0c-3.096 0-5.274 1.778-6.27 3.065l2.255 2.25c.965-1.026 2.191-1.852 3.892-1.852 1.87 0 3.188 1.178 3.188 2.803v.337c-.95-.337-2.084-.504-3.096-.504-3.908 0-6.454 1.93-6.454 4.703 0 2.728 2.224 4.523 5.565 4.523 1.855 0 3.372-.753 4.169-1.948v1.642h3.74v-9.06c0-3.678-2.683-5.96-6.989-5.96m20.111 0c-2.16 0-3.755.979-4.506 2.005l-.074-1.699h-3.744v14.713h3.941v-8.232c0-2.039 1.517-3.14 3.218-3.14 1.656 0 2.93 1.101 2.93 3.14v8.232h3.936v-8.324c0-1.993 1.55-3.048 3.236-3.048s2.942 1.101 2.942 3.14v8.232h3.937v-9.244c0-3.586-2.404-5.775-5.776-5.775-2.191 0-4.063 1.042-5.105 2.605-.858-1.67-2.697-2.605-4.935-2.605m-36.636 3.31c1.87 0 3.216 1.255 3.415 2.895h-7.05c.215-1.67 1.689-2.895 3.635-2.895m16.77 5.408c1.165 0 2.1.247 2.82.57 0 1.854-1.487 3.108-3.372 3.108-1.502 0-2.452-.705-2.452-1.808 0-1.12 1.21-1.87 3.004-1.87m-32.485 20.65v21.578h3.923v-21.578zm-20.045.766v20.794h4.151v-7.137h4.948c4.52 0 7.452-2.868 7.452-6.791 0-4.092-2.931-6.866-7.452-6.866zm4.151 3.586h4.69c2.283 0 3.463 1.395 3.463 3.28 0 1.777-1.18 3.205-3.464 3.205h-4.689zm30.322 2.207c-3.096 0-5.274 1.778-6.27 3.065l2.255 2.25c.965-1.026 2.191-1.852 3.892-1.852 1.87 0 3.188 1.178 3.188 2.803v.337c-.95-.337-2.084-.504-3.096-.504-3.908 0-6.454 1.934-6.454 4.707 0 2.728 2.224 4.52 5.565 4.52 1.855 0 3.372-.754 4.169-1.95v1.643h3.74v-9.06c0-3.678-2.683-5.959-6.989-5.959m9.488.307 6.087 14.725c-.46 1.854-1.627 3.003-3.267 3.003a5 5 0 0 1-1.852-.38l-.49 3.156a6.35 6.35 0 0 0 2.802.644c3.157 0 4.967-1.607 6.148-4.427l6.944-16.722h-4.37l-3.8 10.715-3.85-10.715zm-9.243 8.415c1.165 0 2.1.244 2.82.565 0 1.855-1.487 3.109-3.372 3.109-1.501 0-2.452-.7-2.452-1.804 0-1.119 1.211-1.87 3.004-1.87"/></svg>