<svg xmlns="http://www.w3.org/2000/svg" width="192" height="192" viewBox="0 0 192 192"><path d="M40.036 37.222c-7.225 0-13.672 3.184-18.081 8.163-3.592 4.123-3.836 10.495-.04 14.414.53.531 1.063 1.018 1.634 1.467l60.532 50.2c6.899 5.715 16.938 5.715 23.876 0l60.532-50.2a26 26 0 0 0 1.555-1.427c3.837-3.959 3.633-10.29 0-14.414-4.408-5.02-10.856-8.203-18.081-8.203zM16 67.221v63.514c0 13.266 10.729 24.044 24.036 24.044h111.93c13.306 0 24.036-10.778 24.036-24.044V67.221l-60.365 50.049c-11.021 9.143-26.815 9.425-38.162.853l-1.108-.853z"/></svg>