<svg xmlns="http://www.w3.org/2000/svg" width="192" height="192" viewBox="0 0 192 192"><path d="M173 90.387c-3.89-2.382-9.036-4.77-15.332-7.043-14.186-5.336-33.522-10.105-54.461-13.516-6.06-1.02-26.085-3.86-45.308-4.883-11.441-.68-20.822-.566-27.801.226-2.174.227-4.23.567-6.065 1.024A77.69 77.69 0 0 1 95.548 19.17c40.954 0 74.477 31.461 77.452 71.215zm-84.763 59.389a11.677 11.677 0 0 0 23.005 3.995l.625-3.61a4.87 4.87 0 0 1 9.598 1.667l-.634 3.61a21.415 21.415 0 0 1-42.192-7.329l6.907-39.687c-15.54-2.894-30.537-6.5-42.06-10.309-7.668-2.5-13.615-4.887-17.737-7.27-2.174-1.25-3.89-2.5-5.032-3.75C19 85.277 19 83.914 19 83.461c.226-1.59 1.603-2.84 3.89-3.864 2.062-.906 4.92-1.59 8.58-2.043 6.295-.68 14.874-.797 25.631-.226 16.818.906 34.551 3.293 41.987 4.425.802.118 1.486.226 2.061.344 1.373.227 2.627.453 3.886.68 18.652 3.18 35.583 7.496 48.17 12.265 6.41 2.387 11.323 4.774 14.644 7.043 1.604 1.132 2.863 2.16 3.547 3.18 1.146 1.476.915 2.5.802 2.84-.227.905-1.142 1.816-2.858 2.5-1.49.68-3.665 1.25-6.296 1.703-4.92.797-11.9 1.25-20.133 1.363h-.802c-13.615 0-29.404-1.132-42.79-2.953h-.004l-4.168-.657z"/></svg>