<svg xmlns="http://www.w3.org/2000/svg" width="192" height="192" viewBox="0 0 192 192"><path d="M28.977 58.224a77.15 77.15 0 0 0 0 75.56zm11.958 91.507a77 77 0 0 0 11.95 10.018v-127.5a77 77 0 0 0-11.943 10.025zm23.908-107.88v108.29l93.786-54.146zm11.95 87.588V62.557l57.935 33.441zm20.189 43.559a77 77 0 0 0 65.373-37.73zm-34.488-7.692a77 77 0 0 0 14.645 5.351l93.085-53.746a77 77 0 0 0 2.68-15.346zm110.41-74.875a77 77 0 0 0-2.68-15.346L77.14 21.347a77 77 0 0 0-14.645 5.343zm-10.549-33.703a77 77 0 0 0-65.373-37.73z"/></svg>