<svg xmlns="http://www.w3.org/2000/svg" xml:space="preserve" width="192" height="192" viewBox="0 0 192 192"><path d="m25.712 29.801-6.456.057s-3.053.09-1.348 2.957c1.46 2.454 13.313 24.06 13.313 24.06s1.492 2.93-.129 6.259c-1.38 2.836-2.446 4.426-5.616 4.622-2.859.176-4.524-.832-4.524-.832-.718-.39-1.806-.813-2.288.193-.38.798-2.515 4.303-2.515 4.303s-.715 1.336.996 2.568c1.9 1.367 5.205 1.95 8.484 1.95s8.522.724 12.237-6.44c3.705-7.146 7.99-16.232 8.011-16.278v-.002c.003-.004.997-1.634-.103-2.196-.85-.432-1.515-.213-2.802.051-3.058.628-6.344.642-7.366-1.905-1.7-4.239-8.083-17.87-8.083-17.87s-.501-1.386-1.811-1.497m17.988.628c-4.248 0-7.693 3.424-7.693 7.644s3.445 7.64 7.693 7.64 7.69-3.42 7.69-7.64-3.443-7.644-7.69-7.644m73.717 10.454v.002c-8.08 0-10.389 3.622-10.389 3.622s-.186-3.297-2.131-3.31c-1.36-.01-2.308-.018-3.577 0-3.861.05-4.504.244-4.776 1.789l-.027 32.85 10.38.067V57.19c-.091-4.536 3.054-6.954 7.614-7.076 2.675-.071 7.506-.077 7.827 6.045l.073 19.698h9.86V54.834c-.098-6.836-3.4-13.952-14.853-13.952zm-47.363.17c-11.584 0-18.805 6.967-18.805 17.387s7.221 17.451 18.805 17.451 18.73-6.965 18.73-17.45c0-10.487-7.07-17.389-18.73-17.389m87.217 0c-11.584 0-18.807 6.967-18.807 17.387s7.223 17.451 18.807 17.451 18.73-6.965 18.73-17.45c0-10.487-7.07-17.389-18.73-17.389m-87.217 8.09c5.265 0 8.545 3.175 8.545 9.297s-3.203 9.36-8.545 9.36c-5.265 0-8.62-3.174-8.62-9.36s3.355-9.297 8.62-9.297m87.217 0c5.265 0 8.545 3.175 8.545 9.297s-3.203 9.36-8.545 9.36c-5.265 0-8.622-3.174-8.622-9.36s3.357-9.297 8.622-9.297M66.965 94.93c-8.319.001-15.062 6.75-15.062 15.074 0 7.803 5.927 14.222 13.522 14.995v-10.95a4.33 4.33 0 0 1-2.796-4.044 4.34 4.34 0 0 1 4.335-4.33 4.34 4.34 0 0 1 4.336 4.33 4.33 4.33 0 0 1-2.794 4.044V125c7.597-.771 13.52-7.192 13.52-14.995 0-8.323-6.742-15.073-15.06-15.074zm30.359.088c-2.731 0-5.243.872-7.072 2.454-1.86 1.604-2.884 3.82-2.884 6.237s.916 4.262 2.796 5.823c1.583 1.314 3.552 2.16 5.458 2.981 2.602 1.12 4.852 2.085 4.852 3.807 0 1.312-.89 2.715-3.384 2.715-3.573 0-6.444-2.722-6.47-2.75l-.54-.52-3.48 4.817.345.387c.036.04.939 1.036 2.632 2.02a14.73 14.73 0 0 0 7.436 1.984c2.917 0 5.405-.893 7.192-2.583 1.682-1.59 2.607-3.788 2.607-6.184 0-2.395-.926-4.436-2.835-6.017h-.002c-1.604-1.327-3.685-2.186-5.516-2.944-2.53-1.044-4.714-1.945-4.714-3.613 0-.73.342-1.4.966-1.88.656-.51 1.57-.792 2.576-.792 3.162 0 5.681 2.23 5.706 2.253l.612.557 2.8-5.244-.317-.338c-.123-.13-3.076-3.17-8.764-3.17m12.215.435v29.087h10.739c2.846 0 5.308-.72 7.121-2.08 2.057-1.543 3.142-3.842 3.142-6.648 0-1.596-.417-3.097-1.208-4.341h.002a6.7 6.7 0 0 0-2.587-2.359c1.698-1.36 2.66-3.45 2.66-5.834s-.92-4.416-2.66-5.816c-1.642-1.314-3.922-2.009-6.59-2.009zm24.033 0v29.089h6.527v-29.09zm-17.868 5.447h4.378c1.964 0 3.089 1.097 3.089 3.006s-1.015 2.908-3.012 2.908h-1.51v5.352h2.02c1.104 0 2.02.343 2.656.994.667.685.938 1.366.938 2.34 0 2.218-1.376 3.592-3.593 3.592h-4.966zm-44.171 44.12v17.18h12.713v-3.645h-8.549V145.02zm14.804 0v17.18h4.165v-17.18zm6.2 0v3.644h5.726V162.2h4.165v-13.535h5.726v-3.644zm17.654 0v17.18h12.713v-3.645h-8.549v-3.489h6.194v-3.278h-6.194v-3.123h8.549v-3.644h-8.549z"/></svg>