<svg xmlns="http://www.w3.org/2000/svg" width="192" height="192" viewBox="0 0 192 192"><path d="m25.713 48.401-6.457.057s-3.052.09-1.348 2.957c1.46 2.454 13.312 24.059 13.312 24.059s1.492 2.932-.129 6.26c-1.38 2.836-2.445 4.425-5.615 4.62-2.859.177-4.525-.83-4.525-.83-.718-.39-1.805-.814-2.287.192-.381.798-2.516 4.303-2.516 4.303s-.715 1.336.996 2.568c1.9 1.367 5.206 1.951 8.485 1.951s8.521.725 12.236-6.44c3.705-7.145 7.99-16.233 8.011-16.278v-.002c.003-.005.997-1.634-.103-2.196-.85-.432-1.514-.212-2.801.051-3.058.628-6.344.643-7.365-1.904-1.701-4.239-8.084-17.871-8.084-17.871s-.501-1.385-1.81-1.496zm17.986.629c-4.248 0-7.691 3.423-7.691 7.643s3.443 7.64 7.691 7.64 7.691-3.421 7.691-7.64c0-4.22-3.444-7.643-7.691-7.643m73.717 10.453v.002c-8.08 0-10.389 3.621-10.389 3.621s-.185-3.297-2.13-3.31c-1.362-.01-2.308-.018-3.577 0-3.861.05-4.505.244-4.777 1.789l-.028 32.852 10.38.066V75.792c-.091-4.536 3.054-6.954 7.614-7.076 2.675-.07 7.508-.078 7.829 6.045l.072 19.697h9.861V73.435c-.099-6.836-3.401-13.951-14.855-13.951zm-47.363.168c-11.584 0-18.805 6.968-18.805 17.389s7.22 17.45 18.805 17.45c11.584 0 18.73-6.964 18.73-17.45s-7.07-17.39-18.73-17.39m87.217 0c-11.584 0-18.807 6.968-18.807 17.389s7.222 17.45 18.807 17.45S176 87.527 176 77.04s-7.07-17.39-18.73-17.39m-87.217 8.092c5.265 0 8.545 3.174 8.545 9.297s-3.203 9.359-8.545 9.359c-5.265 0-8.62-3.173-8.62-9.36s3.355-9.296 8.62-9.296m87.217 0c5.265 0 8.545 3.174 8.545 9.297s-3.203 9.359-8.545 9.359c-5.265 0-8.621-3.173-8.621-9.36s3.356-9.296 8.621-9.296M66.965 113.53c-8.319 0-15.062 6.75-15.062 15.074 0 7.802 5.928 14.22 13.523 14.994v-10.95a4.33 4.33 0 0 1-2.797-4.044 4.34 4.34 0 0 1 4.336-4.33 4.34 4.34 0 0 1 4.336 4.33 4.33 4.33 0 0 1-2.795 4.045v10.949c7.597-.772 13.52-7.192 13.52-14.994 0-8.324-6.74-15.073-15.059-15.074zm30.359.088c-2.732 0-5.243.87-7.072 2.453-1.86 1.603-2.885 3.819-2.885 6.236s.917 4.263 2.797 5.824c1.582 1.313 3.551 2.16 5.457 2.98 2.602 1.12 4.853 2.085 4.853 3.807 0 1.312-.891 2.715-3.385 2.715-3.573 0-6.444-2.72-6.47-2.748l-.54-.521-3.48 4.818.346.387c.036.04.938 1.035 2.63 2.02a14.7 14.7 0 0 0 7.436 1.982c2.918 0 5.406-.892 7.194-2.582 1.681-1.591 2.607-3.789 2.607-6.184s-.927-4.437-2.836-6.018h-.002c-1.604-1.327-3.684-2.185-5.515-2.943-2.53-1.044-4.713-1.945-4.713-3.613 0-.73.34-1.4.965-1.88.655-.509 1.57-.792 2.576-.792 3.161 0 5.68 2.228 5.705 2.252l.613.558 2.801-5.244-.318-.338c-.123-.13-3.076-3.17-8.764-3.17zm12.215.435v29.086h10.738c2.846 0 5.308-.72 7.121-2.08 2.057-1.542 3.143-3.842 3.143-6.648 0-1.597-.418-3.098-1.21-4.342h.003a6.7 6.7 0 0 0-2.586-2.358c1.697-1.36 2.66-3.45 2.66-5.834s-.92-4.417-2.66-5.816c-1.643-1.315-3.922-2.008-6.59-2.008zm24.033 0v29.088h6.527v-29.088zm-17.869 5.447h4.379c1.964 0 3.088 1.095 3.088 3.004s-1.013 2.909-3.01 2.909h-1.512v5.351h2.022c1.103 0 2.02.345 2.656.996.667.685.938 1.366.938 2.34 0 2.217-1.376 3.592-3.594 3.592h-4.967z"/></svg>