<svg xmlns="http://www.w3.org/2000/svg" width="192" height="192" viewBox="0 0 192 192"><path d="M76.297 161.06c-.088-15.944-.112-16.384-1.088-19.944-1.072-3.904-3.28-7.152-5.68-8.376a4 4 0 0 1-.928-.64l-8-107.9 35.344-8.192 35.64 8.208-8.456 106.77c-.112.992-.136 1.016-1.328 1.768-3.08 1.944-4.992 5.36-6.016 10.704-.376 1.992-.4 2.816-.472 17.32l-.072 15.232H76.377zm-24.24-45.48c-5.76-1.28-8.344-8.056-4.872-12.768 1.52-2.056 3.128-2.928 6.504-3.504.95-.182 1.913-.29 2.88-.32 1.216.104 1.312.432 1.656 5.56l.48 6.832c.256 3.336.248 3.464-.28 4-.448.44-.56.456-2.896.448a24 24 0 0 1-3.472-.256zm80.88-.224c-.464-.592-.464-.512-.216-3.88l.28-4.176c.408-6.536.496-7.312.84-7.784.456-.64 1.024-.664 3.84-.2 2.8.472 4.296 1.12 5.672 2.496 1.192 1.2 1.8 2.24 2.192 3.784a8.24 8.24 0 0 1-5.176 9.728c-.904.336-1.624.416-4.064.48l-2.96.072zM50.985 86.988a8.24 8.24 0 0 1-7.48-6.976 8.24 8.24 0 0 1 2.36-6.936c1.44-1.44 2.744-2 5.952-2.552 2.56-.44 2.736-.448 3.192-.16.277.185.498.443.64.744.08.224.336 3.32.56 6.864.24 3.552.472 6.816.528 7.256.096.712.04.864-.472 1.376-.552.56-.632.576-2.152.552a56 56 0 0 1-3.12-.16zm84.4-.288c-.552-.576-.552-.488.064-9.424.448-6.472.48-6.656 1.376-6.992.4-.16 4 .336 5.52.752 1.976.544 4.024 2.288 4.984 4.24a7.92 7.92 0 0 1-1.592 9.36c-1.96 1.952-3.76 2.528-8 2.536-1.8.008-1.936-.016-2.36-.472zm2.696-28.384c-.888-.336-.912-.656-.44-8.112.24-3.832.512-7.264.608-7.64.288-1.176.728-1.264 3.68-.784 3.4.552 4.4.952 5.896 2.352 3.496 3.28 3.6 8.416.248 11.784a7.7 7.7 0 0 1-4.056 2.208c-1.336.256-5.416.384-5.928.192zm-90.392-.24c-4.096-1.12-6.8-5.232-6.096-9.256.48-2.704 2.56-5.36 4.904-6.24 1.4-.536 5.672-1.248 6.384-1.072.824.208 1 .96 1.264 5.248.128 2.136.336 5.336.472 7.12.248 3.4.16 4.056-.576 4.336-.544.208-5.464.104-6.352-.136"/></svg>