<svg xmlns="http://www.w3.org/2000/svg" width="192" height="192" viewBox="0 0 192 192"><path d="M25.202 16a6.016 6.016 0 0 0-5.51 8.43C32.647 54 75.721 152.32 84.521 172.4a6.02 6.02 0 0 0 5.51 3.6h11.936a6.02 6.02 0 0 0 5.51-3.601c8.8-20.084 51.875-118.4 64.832-147.97a6.017 6.017 0 0 0-5.51-8.429h-7.791a4.3 4.3 0 0 0-3.935 2.57c-6.858 15.618-43.051 98.055-55.138 125.59a4.298 4.298 0 0 1-7.87 0L36.93 18.57A4.3 4.3 0 0 0 32.995 16zm30.563 0a5.156 5.156 0 0 0-4.466 7.734c9.35 16.192 30.886 53.497 40.235 69.69a5.157 5.157 0 0 0 8.932 0l40.235-69.69A5.156 5.156 0 0 0 136.235 16z"/></svg>