<svg width="192" height="192" fill="none" xmlns="http://www.w3.org/2000/svg"><path d="M96 143c25.957 0 47-21.043 47-47s-21.043-47-47-47-47 21.043-47 47 21.043 47 47 47Z" stroke="#000" stroke-width="10" stroke-linecap="round" stroke-linejoin="round"/><path d="M111.6 79c.884 0 1.6 1.79 1.6 4s-.716 4-1.6 4c-.884 0-1.6-1.79-1.6-4s.716-4 1.6-4Z" stroke="#000" stroke-width="8" stroke-linecap="round" stroke-linejoin="round"/><path d="M118.517 106A26.002 26.002 0 0 1 96 119.003 25.993 25.993 0 0 1 73.483 106m3.589-22a8 8 0 0 1 13.856 0" stroke="#000" stroke-width="10" stroke-linecap="round" stroke-linejoin="round"/><path d="M22 96h8m13.674-52.326 5.657 5.657M96 22v8m52.326 13.674-5.657 5.657M162 96h8m-27.331 46.669 5.657 5.657M96 162v8m-46.67-27.331-5.656 5.657M27.633 67.681l7.39 3.062m32.658-43.11 3.062 7.39m53.576-7.39-3.062 7.391m43.11 32.657-7.391 3.062m0 50.514 7.391 3.062m-43.11 32.657 3.062 7.391m-53.576-7.391-3.062 7.391m-32.657-43.11-7.391 3.062" stroke="#000" stroke-width="12" stroke-linecap="round" stroke-linejoin="round"/></svg>