<svg width="192" height="192" fill="none" xmlns="http://www.w3.org/2000/svg"><circle cx="138" cy="54" r="32" stroke="#000" stroke-width="12" stroke-linecap="round" stroke-linejoin="round"/><circle cx="139" cy="139" r="6" stroke="#000" stroke-width="12" stroke-linecap="round" stroke-linejoin="round"/><path d="m82 109-30 30m0 0-30 30m30-30-30-30m30 30 30 30m0-147L52 52m0 0L22 82m30-30L22 22m86 92a6 6 0 0 1 6-6h50a6 6 0 0 1 6 6v50a6 6 0 0 1-6 6h-50a6 6 0 0 1-6-6v-50Z" stroke="#000" stroke-width="12" stroke-linecap="round" stroke-linejoin="round"/></svg>