<svg xmlns="http://www.w3.org/2000/svg" width="192" height="192" viewBox="0 0 192 192"><path d="M152.86 111.42a31.2 31.2 0 0 0 13.816-7.992c6.056-6.024 9.36-14.568 9.328-23.768.08-9.552-4.112-18.144-10.736-23.52-6.6-5.448-15.104-7.976-23.96-7.984h-15.6c-14.644.027-26.51 11.891-26.536 26.536v65.496h17.688v-18.592a8.96 8.96 0 0 1 8.848-8.848h7.048l19.032 23.312 1.336 1.64a8.92 8.92 0 0 0 5.432 2.456l11.584.024.024-14.304s-4.32 1.2-7.536-2.24c-3.784-4.056-9.768-12.216-9.768-12.216m-27.152-16.352c-3.112.008-6.08 1.264-8.848 2.248V74.692a8.96 8.96 0 0 1 8.848-8.848h15.6c5.52 0 9.936 1.616 12.672 3.912 2.704 2.344 4.24 5.088 4.328 9.904-.024 5.176-1.672 8.76-4.136 11.256-2.512 2.48-6.08 4.12-11.264 4.16zM87.684 50.996H70.196l-.016 28.6C69.852 90.26 59.868 93.708 51.916 93.82c-9.088-.128-18.656-5.176-18.656-19.008V50.996H16.004v23.808c0 10.8 3.744 20.024 10.808 26.688 6.4 6.032 15.168 9.416 24.752 9.576 7.08 0 16.576-4.248 18.432-8.024v7.88c0 10.44-13.28 17.248-16.848 19.04l11.112 13.872c6.432-3.752 23.344-11.248 23.432-34.848z"/></svg>