<svg xmlns="http://www.w3.org/2000/svg" width="192" height="192" viewBox="0 0 192 192"><path d="M93.618 16.208a13.7 13.7 0 0 0-4.476 1.63l-57.404 33.14a13.72 13.72 0 0 0-6.858 11.878v66.284a13.72 13.72 0 0 0 6.858 11.878l57.404 33.142a13.72 13.72 0 0 0 13.716 0l57.404-33.142a13.72 13.72 0 0 0 6.858-11.878V62.857a13.72 13.72 0 0 0-6.858-11.878l-57.404-33.142a13.72 13.72 0 0 0-9.24-1.629M96 45.315c1.848 0 3.696.478 5.35 1.432l34.998 20.206a10.71 10.71 0 0 1 5.35 9.267v40.412a10.71 10.71 0 0 1-5.35 9.267l-34.998 20.206a10.71 10.71 0 0 1-10.7 0l-34.997-20.206a10.71 10.71 0 0 1-5.35-9.267V76.22a10.71 10.71 0 0 1 5.35-9.267L90.65 46.747A10.7 10.7 0 0 1 96 45.315m0 4.673c-1.04 0-2.079.27-3.012.809L57.99 71.003a6.02 6.02 0 0 0-3.012 5.217v40.412a6.02 6.02 0 0 0 3.012 5.217l34.998 20.206a6.02 6.02 0 0 0 6.024 0l34.998-20.206a6.02 6.02 0 0 0 3.012-5.217V76.22a6.02 6.02 0 0 0-3.012-5.217L99.012 50.797A6 6 0 0 0 96 49.988M80.47 72.613 121.273 96 80.47 119.385z"/></svg>