<svg xmlns="http://www.w3.org/2000/svg" width="192" height="192" viewBox="0 0 192 192"><path d="M129.64 91.307c23.551.216 42.294 18.919 42.294 42.382.098 23.442-18.956 42.457-42.398 42.31-23.412.058-42.386-18.971-42.262-42.382.056-23.575 18.903-42.15 42.366-42.31m-.56 69.029c.688 0 .976-.24 1.232-.848l18.879-46.582-10.935-.088c-.648 0-.72.4-.864.808l-7.552 21.439-7.927-21.455c-.216-.616-.512-.816-1.16-.8l-10.903.08 12.983 33.198c.32.832.4 1.536 0 2.392l-5.048 11.839zM36.188 57.596c0-5.176-.016-10.248 0-15.319a23.2 23.2 0 0 1 5.2-14.735c4.848-6.08 11.215-9.648 18.839-11.023 7.2-1.304 14.063-.112 20.55 3.152 5.665 2.856 10.169 6.983 13.032 12.759a21.6 21.6 0 0 1 2.28 9.727v15.4c1.2.095 2.336.08 3.44.271 6.503 1.232 10.16 5.072 11.199 11.567l-.008 18.615c-19.375 9.232-29.583 24.383-30.527 45.966H32.467c-6.4-.08-11.191-3.64-12.223-10.56a16 16 0 0 1-.16-1.968c0-16.927-.056-33.854.016-50.782.016-6.503 3.68-11.247 10.008-12.639 1.68-.36 3.455-.272 5.2-.4zm48.566-.016c-.144-4.728-.104-9.344-.464-13.919a18.72 18.72 0 0 0-6.304-12.623c-5.575-5.088-13.487-6.336-19.879-2.936-7.007 3.728-10.224 9.96-10.663 17.671l-.04 11.8zm-12.719 52.877-.016-16.527c0-.56.12-.944.576-1.304 2.24-1.76 3.456-4.096 3.824-6.92.904-6.84-5.688-12.83-12.383-11.127-4.128 1.04-6.808 3.728-7.68 7.872s.472 7.656 3.84 10.304c.411.286.644.764.616 1.264l-.016 16.423 11.239.016"/></svg>