<svg xmlns="http://www.w3.org/2000/svg" width="192" height="192" viewBox="0 0 192 192"><path d="m40.711 105.46-1.52 7c24.68 17.383 59.421 17.383 84.092 0l-1.52-7c-24.663 13.999-56.389 13.999-81.052 0m52.573-13.151a11.52 11.52 0 0 1-4.184 6.104 10.64 10.64 0 0 1-6.271 2.04c-1.92.168-4.528-.384-6.624-.856v9.007h-7.168V77.83c1.04-.536 1.944-.88 3.616-1.648 1.664-.776 3.008-1.192 4.928-1.52 2.792-.344 5.584 0 8.368.848 4.191 1.184 7.327 4.576 7.847 8.816.344 2.552.344 5.44-.528 7.984m-6.8-8.32a4.88 4.88 0 0 0-3.655-3.392 11.2 11.2 0 0 0-6.28.336s-.176 0-.176.168v12.391a7.52 7.52 0 0 0 8.2.168 5.2 5.2 0 0 0 1.736-2.544c.703-2.208.88-4.752.184-7.135m35.118 8.32a11.52 11.52 0 0 1-4.176 6.111 10.64 10.64 0 0 1-6.272 2.04c-1.92.168-4.528-.384-6.624-.848v9h-7.16V77.83c1.049-.536 1.953-.88 3.617-1.648a18.4 18.4 0 0 1 4.935-1.52c2.792-.344 5.576 0 8.368.848 4.184 1.184 7.328 4.575 7.848 8.815.344 2.552.344 5.44-.528 7.984m-6.8-8.32a4.88 4.88 0 0 0-3.656-3.392 11.2 11.2 0 0 0-6.28.336s-.176 0-.176.168v12.391a7.6 7.6 0 0 0 8.2.168 5.2 5.2 0 0 0 1.736-2.543c.704-2.208.88-4.752.176-7.136m17.759 1.12c1.92.336 4.008.16 5.76-.856a5.76 5.76 0 0 0 2.615-3.736c.336-1.52.52-2.88.696-4.408h6.624v2.376a15.2 15.2 0 0 1-1.576 5.6 9.9 9.9 0 0 1-3.136 3.392c-.344.168-.704.512-1.04.688l6.272 10.687.528 1.016c.14.319.198.668.168 1.016h-7.32l-5.76-10.183-3.831.344v10.016h-7.152V67.456h7.152zm-95.283-9.176c0 .344-.168.688-.336 1.2L26.472 94.941h10.807v6.112h-21.28c0-.344.185-.68.353-1.016L26.99 82.206H16.88v-6.28zm-12.551-3.223a3.36 3.36 0 0 1-1.04-3.728 3.6 3.6 0 0 1 2.96-2.376 3.76 3.76 0 0 1 3.488 1.016c1.04 1.024 1.224 2.376.88 3.744-.485 1.318-1.74 2.196-3.186 2.279s-2.424-.237-3.102-.936zm38.886 4.927a29.6 29.6 0 0 0-5.584-1.528 30.4 30.4 0 0 0-7.84-.504 10.24 10.24 0 0 0-6.271 2.88c-1.568 1.704-2.784 3.744-3.136 5.944a24 24 0 0 0-.528 5.096q0 3.304 1.568 6.111c.88 1.52 2.096 2.88 3.664 3.728 3.488 1.872 7.495 2.552 11.327 1.872 2.8-.344 5.407-1.192 8.2-1.696V78.31c-.353-.16-.873-.504-1.393-.672m-5.583 17.487c-2.44.84-5.056 1.008-7.496 0a4.56 4.56 0 0 1-2.616-2.72 12 12 0 0 1 .176-8.143 5.2 5.2 0 0 1 4.184-3.056c1.744-.176 3.664 0 5.224.84.176 0 .176.176.36.176zm115.69-17.823a40 40 0 0 0-6.448-1.528 21.6 21.6 0 0 0-6.624 0 10.72 10.72 0 0 0-8.367 7.296c-.88 2.88-1.224 5.936-.704 8.992.352 2.72 1.744 5.263 4.016 6.96.52.343 1.216.855 1.744 1.015 1.391.68 3.135 1.2 4.703 1.36a16 16 0 0 0 5.752 0c2.792-.512 5.576-1.184 8.2-1.696V78.326a32 32 0 0 0-2.264-1.016M169.2 95.133c-.344.16-.52.16-.864.16a18.4 18.4 0 0 1-4.36.512 5.52 5.52 0 0 1-4.368-2.2 5.6 5.6 0 0 1-1.04-2.375 12 12 0 0 1 .344-6.112 5.2 5.2 0 0 1 4.536-3.744c1.92-.336 3.84 0 5.584 1.024l.168 12.719"/></svg>