<svg xmlns="http://www.w3.org/2000/svg" width="192" height="192" viewBox="0 0 192 192"><path d="M43.112 131.4a274 274 0 0 1 7.552-40.36c1.424-5.32 4.272-14.904 4.992-16.784.224-.592.056-.624-2.04-.456-1.256.104-4.544.368-7.304.576-6.48.496-17.624 1.896-24.136 3.04-2.824.48-6.176 1.184-6.176.888V58.376l4.936-1.864c28.04-10.624 57.76-16.488 88.816-17.528l7.472-.248-1.648 2.56-3.296 5.144c-5.168 8.056-14.96 26.448-18.96 35.632-3.092 7.09-8.023 19.684-9.888 25.88l5-.816c14.912-2.432 25.368-3.192 43.792-3.168 17.608.024 26.024.616 41.792 2.96l1.984.256v13.44h-6.424c-16.12 0-34.32 1.864-51.344 5.232-24.704 4.904-50.528 13.872-71.272 24.752-2.8 1.464-5.176 2.664-5.28 2.664-.731 0 .985-17.845 1.432-21.872"/></svg>