<svg xmlns="http://www.w3.org/2000/svg" width="192" height="192" viewBox="0 0 192 192"><path d="M19.704 24.133a3.143 3.143 0 0 0-2.864 4.58L33.3 61.652a3.22 3.22 0 0 0 2.865 1.684h17.642l-37.628 100.34a3.143 3.143 0 0 0 2.88 4.186h102.29a3.143 3.143 0 0 0 3.006-4.06l-11.095-33.05a3.14 3.14 0 0 0-2.88-2.093H77.85a3.143 3.143 0 0 1-2.88-4.17l36.056-96.172a3.143 3.143 0 0 0-2.864-4.186zm99.178 5.744a3.27 3.27 0 0 0-3.006 1.967L99.934 75.358a3.22 3.22 0 0 0 0 2.235l31.491 88.177h-.016a3.38 3.38 0 0 0 2.093 2.093h39.202a3.126 3.126 0 0 0 3.006-4.438l-53.822-131.58a3.27 3.27 0 0 0-3.006-1.967z"/></svg>