<svg xmlns="http://www.w3.org/2000/svg" width="192" height="192" viewBox="0 0 192 192"><path d="M145.67 136.28a2.216 2.216 0 0 0-3.272.176q-1.52 1.824-3.2 3.552a59.566 59.566 0 0 1-76.417 7.881 2.96 2.96 0 0 1-.4-4.544l91.361-93.69a5.44 5.44 0 0 0 .296-7.448 72 72 0 0 0-2.592-2.776 76.65 76.65 0 0 0-110.32 0q-2.24 2.304-4.264 4.744a2.11 2.11 0 0 0 .144 2.84l9.385 9.377a2.216 2.216 0 0 0 3.28-.208A64 64 0 0 1 53.399 52a59.566 59.566 0 0 1 76.416-7.889c1.537 1.048 1.68 3.224.384 4.545l-91.353 93.697a5.44 5.44 0 0 0-.288 7.44q1.248 1.417 2.577 2.785a76.65 76.65 0 0 0 110.32 0q1.92-1.952 3.664-4.017a2.11 2.11 0 0 0-.128-2.856l-9.313-9.425zm-44.756-83.376L75.167 79.715a2.16 2.16 0 0 1-3.096 0l-9.441-9.761a2.08 2.08 0 0 1-.272-2.6C72.19 52.457 89.273 49.24 99.642 49.552c1.752.048 2.48 2.096 1.272 3.36zm16.082 57.966-25.739 26.811c-1.216 1.264-.488 3.304 1.264 3.36 10.37.312 27.46-2.904 37.284-17.81a2.08 2.08 0 0 0-.264-2.584l-9.457-9.777a2.16 2.16 0 0 0-3.096 0z"/></svg>