<svg xmlns="http://www.w3.org/2000/svg" width="192" height="192" viewBox="0 0 192 192"><path d="M47.436 16c-9.972 0-18 8.028-18 18v124c0 9.972 8.028 18 18 18h97.129c9.972 0 18-8.028 18-18V34c0-9.972-8.028-18-18-18zm66.885 26.68h16.799a4.9 4.9 0 0 1 4.9 4.9 4.9 4.9 0 0 1-4.9 4.9h-16.799a4.9 4.9 0 0 1-4.9-4.9 4.9 4.9 0 0 1 4.9-4.9m-53.42.041a4.9 4.9 0 0 1 3.465 1.434l4.904 4.906 4.906-4.906a4.9 4.9 0 0 1 3.465-1.434 4.9 4.9 0 0 1 3.465 1.434 4.9 4.9 0 0 1 0 6.93L76.2 55.99l4.906 4.906a4.9 4.9 0 0 1 0 6.93 4.9 4.9 0 0 1-6.93 0L69.27 62.92l-4.904 4.906a4.9 4.9 0 0 1-6.93 0 4.9 4.9 0 0 1 0-6.93l4.906-4.905-4.906-4.907a4.9 4.9 0 0 1 0-6.93 4.9 4.9 0 0 1 3.465-1.433m53.42 16.779h16.799a4.9 4.9 0 0 1 4.9 4.9 4.9 4.9 0 0 1-4.9 4.9h-16.799a4.9 4.9 0 0 1-4.9-4.9 4.9 4.9 0 0 1 4.9-4.9M69.272 83a4.9 4.9 0 0 1 4.898 4.9v3.5h3.5a4.9 4.9 0 0 1 4.9 4.9 4.9 4.9 0 0 1-4.9 4.901h-3.5v3.5a4.9 4.9 0 0 1-4.898 4.9 4.9 4.9 0 0 1-4.9-4.9v-3.5h-3.5a4.9 4.9 0 0 1-4.9-4.9 4.9 4.9 0 0 1 4.9-4.9h3.5v-3.5a4.9 4.9 0 0 1 4.9-4.901m45.049 8.4h16.799a4.9 4.9 0 0 1 4.9 4.9 4.9 4.9 0 0 1-4.9 4.901h-16.799a4.9 4.9 0 0 1-4.9-4.9 4.9 4.9 0 0 1 4.9-4.9m-52.82 31.94h69c6.648 0 12 5.351 12 12v9.5c0 6.647-5.352 12-12 12h-69c-6.648 0-12-5.353-12-12v-9.5c0-6.649 5.352-12 12-12"/></svg>