<svg width="192" height="192" fill="none" xmlns="http://www.w3.org/2000/svg"><path d="m96.173 67.935 19.455-19.557A31.765 31.765 0 0 1 138.149 39a31.765 31.765 0 0 1 22.522 9.378A32.105 32.105 0 0 1 170 71.018a32.105 32.105 0 0 1-9.329 22.64l-60.255 60.574a5.998 5.998 0 0 1-8.495.01l-40.897-40.92m45.15-45.387L76.626 48.378a31.99 31.99 0 0 0-45.254 0 32.028 32.028 0 0 0 0 45.28l19.651 19.664m45.15-45.387-45.15 45.387" stroke="#000" stroke-width="12" stroke-linecap="round" stroke-linejoin="round"/></svg>