<svg xmlns="http://www.w3.org/2000/svg" width="192" height="192" viewBox="0 0 192 192"><path d="M114.06 41.204s-7.2-2.352-16.224-3.704l72.111 68.351 6.048-7.128-59.351-56.47-2.584-1.04zM74.333 38.26s-2.76.928-4.056 3.064l85.44 81.415 6.151-7.264L79.629 37.06c-1.84.264-3.632.64-5.296 1.2M69.581 69.5l72.711 69.19 6.12-7.288L77.07 63.467c-.154.173-7.32 5.9-7.488 6.032M54.237 84.3s77.12 73.278 74.431 70.566l6.04-7.272-73.19-69.519a528 528 0 0 0-7.28 6.224m-16.76 13.2 34.166 32.535a36 36 0 0 1 11.592-2.136L44.461 90.98a456 456 0 0 0-6.984 6.52m-15.776 16s-5.52 5.488-5.696 13.144c-.128 3.456.888 7.376 4.016 11.416l.184.232c3.1 3.227 6.613 4.096 8.216 4.448 5.477 1.143 10.917.091 11.136.048 7.533-1.293 13.8-3.703 20.824-7.144l-31.35-29.856a315 315 0 0 0-7.329 7.712"/></svg>