<svg xmlns="http://www.w3.org/2000/svg" width="192" height="192" viewBox="0 0 192 192"><path d="M115.18 47.988H46.045A16 16 0 0 1 34.8 43.275c-6.225-6.25-6.261-16.347-.08-22.642a15.77 15.77 0 0 1 11.324-4.632h103.55a15.73 15.73 0 0 1 14.784 9.847 15.7 15.7 0 0 1 1.165 6.146 16.67 16.67 0 0 1-4.99 11.29l-84.18 100.73h73.221a15.73 15.73 0 0 1 14.784 9.856 16.1 16.1 0 0 1-3.53 17.427 16 16 0 0 1-11.254 4.704h-107.2a16.1 16.1 0 0 1-11.334-4.838 16.18 16.18 0 0 1-4.614-11.46 17.1 17.1 0 0 1 4.695-11.325l84.045-100.4z"/></svg>