<svg xmlns="http://www.w3.org/2000/svg" width="192" height="192" viewBox="0 0 192 192"><path d="M100.68 46.746c14.339 1.874 26.18 8.102 34.915 19.327 6.862 9.351 10.6 19.336 10.6 31.176q0 19.635-13.09 33.666c-13.09 14.031-19.336 14.964-32.426 16.213v20.568c0 3.123-1.874 4.988-4.363 4.988s-4.988-1.865-4.988-4.988v-21.192c-14.972-1.874-26.813-8.11-35.54-19.952-6.862-9.351-10.6-19.952-9.976-31.801 1.25-26.18 19.336-45.516 45.516-48.63V29.284H24.612c-3.114 0-5.612-1.865-5.612-4.98s1.882-4.987 5.612-4.987h142.78c3.123 0 5.612 1.874 5.612 4.988 0 3.123-1.865 4.988-5.612 4.988h-66.708zm0 91.023c19.336-1.865 37.413-19.327 35.54-43.017-1.25-23.699-20.576-36.789-35.54-38.029zm-9.351 0V56.731c-18.702 1.865-36.164 18.702-35.54 41.152 0 23.066 17.453 38.645 35.54 39.895z"/></svg>