<svg xmlns="http://www.w3.org/2000/svg" width="192" height="192" viewBox="0 0 192 192"><path d="M109.42 18.716a4.689 4.689 0 1 0 0 9.378h49.387a7.82 7.82 0 0 1 7.822 7.813v86.284a7.82 7.82 0 0 1-7.822 7.813h-47.182a4.71 4.71 0 0 0-3.956 2.152l-21.724 33.92a4.686 4.686 0 1 0 7.903 5.04l20.32-31.76h44.64a17.19 17.19 0 0 0 17.19-17.191V35.907a17.19 17.19 0 0 0-17.19-17.182zm-76.24 0a17.19 17.19 0 0 0-17.182 17.191v86.267c0 9.484 7.698 17.182 17.182 17.182h35.022a4.693 4.693 0 1 0 0-9.378H33.18a7.82 7.82 0 0 1-7.813-7.813v-86.25a7.82 7.82 0 0 1 7.813-7.821h44.391a4.684 4.684 0 1 0 0-9.37zm28.427 51.911a8.596 8.596 0 0 0-8.596 8.587 8.596 8.596 0 0 0 8.596 8.595 8.596 8.596 0 0 0 8.596-8.595 8.596 8.596 0 0 0-8.596-8.596m34.373 0a8.596 8.596 0 0 0-8.604 8.587A8.596 8.596 0 0 0 95.98 87.8a8.596 8.596 0 0 0 8.596-8.595 8.596 8.596 0 0 0-8.596-8.596m34.364 0a8.596 8.596 0 0 0-8.596 8.587 8.596 8.596 0 0 0 8.596 8.595 8.596 8.596 0 0 0 8.596-8.595 8.596 8.596 0 0 0-8.596-8.596z"/></svg>