<svg xmlns="http://www.w3.org/2000/svg" width="192" height="192" viewBox="0 0 192 192"><path d="M142.37 31.15a4.6 4.6 0 0 1 4.88-2.032 4.56 4.56 0 0 1 3.68 3.784l15.6 88.461a4.64 4.64 0 0 1-1.024 3.84 4.64 4.64 0 0 1-3.6 1.68H71.189c-6.003.248-6.003 9.136 0 9.384h12.08l-8.544 23.615a4.72 4.72 0 0 1-4.416 3.095h-3.816a4.72 4.72 0 0 1-4.624-3.871L45.47 66.605l72.806-34.384c5.653-2.666 1.654-11.145-4-8.48L24.073 66.326A14.12 14.12 0 0 0 16.208 81.5l7.608 43.159a14.08 14.08 0 0 0 13.872 11.632h10.607l4.336 24.455a14.07 14.07 0 0 0 13.864 11.624h3.816c5.912 0 11.232-3.736 13.24-9.28l9.704-26.815h68.662c8.758 0 15.391-7.911 13.864-16.535h.008l-15.616-88.46a14 14 0 0 0-11.04-11.353 14 14 0 0 0-14.616 6.104m-96.821 100.87a4.69 4.69 0 0 1-4.624-3.88l-7.6-43.151a4.72 4.72 0 0 1 2.616-5.056l8.584-4.056L46.64 126.9zm104.68-95.75L105.377 87.87a14.04 14.04 0 0 1-11.792 6.4v-.008c-2.194 0-4.359-.512-6.32-1.496L65.65 81.91c-5.351-2.884-1.304-10.955 4.208-8.392l21.615 10.856a4.696 4.696 0 0 0 6.04-1.632l36.999-56.718m7.864 5.128-37 56.718a14.04 14.04 0 0 1-11.791 6.4v-.008a14.1 14.1 0 0 1-6.32-1.496L65.65 81.91c-5.352-2.884-1.304-10.955 4.208-8.392l21.615 10.856a4.696 4.696 0 0 0 6.04-1.632l36.999-56.718"/></svg>