<svg xmlns="http://www.w3.org/2000/svg" width="192" height="192" viewBox="0 0 192 192"><path d="M96.434 19.225a5.005 5.005 0 0 0-4.98 4.595v4.395a94 94 0 0 0-7.168.702 5.005 5.005 0 0 0 .702 9.926l.701-.034a86 86 0 0 1 5.765-.585V75.02a19.6 19.6 0 0 0-10.71 8.004 33.37 33.37 0 0 0-5.766 19.2 36 36 0 0 0 1.839 11.48 4.96 4.96 0 0 0 4.729 3.426v.017a5.005 5.005 0 0 0 4.728-6.567 25.7 25.7 0 0 1-1.32-8.305 23.53 23.53 0 0 1 3.894-13.435 10.01 10.01 0 0 1 7.603-4.662c5.196 0 9.713 5.764 11.079 13.368h-8.422a4.706 4.706 0 0 0-4.696 4.696 4.706 4.706 0 0 0 4.696 4.712h8.455a26 26 0 0 1-.919 3.61 5.005 5.005 0 0 0 9.475 3.124 36 36 0 0 0 1.821-11.43c0-13.497-6.933-24.491-16.51-27.354V23.82a5.005 5.005 0 0 0-4.996-4.595m33.036 7.62a5.005 5.005 0 0 0-2.924 9.29 67.6 67.6 0 0 1 33.587 40.139 5.005 5.005 0 0 0 4.779 3.525 5.1 5.1 0 0 0 1.437-.217 5.005 5.005 0 0 0 3.325-6.233 77.6 77.6 0 0 0-38.55-46.12h-.033a5 5 0 0 0-1.621-.384m-68.478 1.403a5 5 0 0 0-3.459.82A77.26 77.26 0 0 0 19 95.757a5.005 5.005 0 0 0 5.013 5.012l-.05.017a5.005 5.005 0 0 0 5.013-5.013A67.33 67.33 0 0 1 62.53 37.707a5.005 5.005 0 0 0-1.537-9.458zm57.299 25.65a5.005 5.005 0 0 0-1.487 9.325 38.671 38.671 0 1 1-41.708.05 5.005 5.005 0 0 0-5.38-8.405A48.655 48.655 0 0 0 96 144.484l.017-.018a48.664 48.664 0 0 0 26.168-89.649 5 5 0 0 0-3.893-.919zm49.478 34.24a5.005 5.005 0 0 0-4.796 5.564c.034.684.056 1.381.05 2.089a66.73 66.73 0 0 1-15.79 43.196 5.005 5.005 0 0 0 3.81 8.221 5.13 5.13 0 0 0 3.826-1.771A76.83 76.83 0 0 0 173 95.79c0-.799-.021-1.608-.05-2.406v-.05a5.005 5.005 0 0 0-5.18-5.197zM26.499 109.96a5.005 5.005 0 0 0-4.83 6.016 76.1 76.1 0 0 0 14.355 28.09 5.05 5.05 0 0 0 3.876 1.872 4.988 4.988 0 0 0 3.877-8.138 66.7 66.7 0 0 1-12.466-24.447 5.005 5.005 0 0 0-4.812-3.392zm28.29 39.32a5.005 5.005 0 0 0-4.127 8.739 77 77 0 0 0 45.35 14.738l-.017.017a77 77 0 0 0 43.864-13.702 5.005 5.005 0 0 0-5.68-8.205 67.12 67.12 0 0 1-77.653-.919 5 5 0 0 0-1.738-.668z"/></svg>