<svg xmlns="http://www.w3.org/2000/svg" width="192" height="192" viewBox="0 0 192 192"><path d="M48.658 19.009c-7.589.007-15.184 2.901-20.974 8.665-11.579 11.526-11.579 30.329 0 41.906 5.577 5.577 13.013 8.657 20.927 8.657s15.35-3.08 20.98-8.603c5.577-5.63 8.658-13.066 8.658-20.98S75.22 33.25 69.59 27.674c-5.763-5.79-13.344-8.67-20.933-8.665zm-.047 8.983c5.258 0 10.517 2.018 14.553 6.055 3.93 3.877 6.055 9.083 6.055 14.553s-2.178 10.675-6.055 14.553c-3.877 3.93-9.083 6.055-14.553 6.055s-10.676-2.178-14.553-6.055c-8.073-8.02-8.073-21.086 0-29.16 3.983-3.983 9.295-6.001 14.553-6.001m94.798 16.438c-7.589 0-15.184 2.895-20.974 8.685-5.577 5.577-8.657 13.012-8.657 20.926 0 7.86 3.027 15.297 8.657 20.927 5.736 5.79 13.332 8.657 20.928 8.657a29.77 29.77 0 0 0 20.98-8.657C169.92 89.39 173 81.955 173 74.04c0-7.861-3.081-15.296-8.658-20.926-5.763-5.79-13.344-8.685-20.933-8.685zm-.047 8.95c5.311 0 10.57 2.018 14.606 6.001 3.93 3.877 6.055 9.083 6.055 14.553s-2.178 10.676-6.055 14.553c-8.073 8.02-21.14 8.02-29.16 0-3.93-3.877-6.055-9.083-6.055-14.553s2.178-10.676 6.055-14.553c3.984-3.983 9.296-6.001 14.553-6.001zM31.982 83.336c-2.443 0-4.462 2.018-4.515 4.462-.106 11.313 2.868 22.414 8.604 32.08a4.5 4.5 0 0 0 3.878 2.231c.796 0 1.592-.212 2.336-.69 2.124-1.328 2.815-4.09 1.54-6.215-4.94-8.232-7.435-17.686-7.329-27.3a4.546 4.546 0 0 0-4.462-4.568zm106.15 28.533a4.56 4.56 0 0 0-4.014 2.327 52.5 52.5 0 0 1-8.603 11.366c-3.4 3.346-7.224 6.268-11.366 8.605-2.231 1.222-2.975 3.983-1.754 6.161.797 1.434 2.338 2.284 3.93 2.284.798 0 1.542-.212 2.232-.53 4.834-2.763 9.348-6.163 13.332-10.146a58.6 58.6 0 0 0 10.145-13.332c1.222-2.177.425-4.94-1.753-6.16a4.46 4.46 0 0 0-2.147-.574zm-64.138 1.901c-7.861 0-15.297 3.028-20.927 8.658-11.58 11.526-11.58 30.327 0 41.906 5.577 5.577 13.013 8.658 20.927 8.658s15.35-3.081 20.928-8.658c11.579-11.526 11.579-30.327 0-41.906-5.577-5.577-13.013-8.658-20.928-8.658m0 8.977c5.524 0 10.676 2.125 14.553 6.055 8.02 8.074 8.02 21.14 0 29.16-3.877 3.93-9.083 6.055-14.553 6.055s-10.676-2.178-14.553-6.056c-8.02-8.073-8.02-21.139 0-29.159 3.877-3.93 9.03-6.055 14.553-6.055m43.659-78.29a4.36 4.36 0 0 1-2.284-.637c-8.233-4.94-17.74-7.436-27.354-7.33h-.053c-2.443 0-4.462-1.965-4.515-4.461s1.965-4.568 4.462-4.568a61.05 61.05 0 0 1 32.134 8.604c2.124 1.275 2.868 4.037 1.54 6.215-.903 1.38-2.39 2.177-3.93 2.177"/></svg>