<svg xmlns="http://www.w3.org/2000/svg" width="192" height="192" viewBox="0 0 192 192"><path d="M95.018 172.02a13.45 13.45 0 0 1-9.582-3.97l-62.47-62.47c-5.288-5.295-5.288-13.87 0-19.165l62.47-62.47c2.567-2.559 5.963-3.962 9.582-3.962s7.015 1.403 9.582 3.961l13.74 13.74c4.26 4.26-2.13 10.651-6.39 6.391l-13.74-13.74a4.62 4.62 0 0 0-6.392 0L29.356 92.806a4.534 4.534 0 0 0 0 6.391l62.471 62.471c1.711 1.711 4.68 1.711 6.391 0l62.471-62.471a4.534 4.534 0 0 0 0-6.39l-13.132-13.133a4.534 4.534 0 0 1 0-6.382l14.544-14.544-16.204-16.195-47.679 47.679a4.654 4.654 0 0 1-6.39 0L81.132 79.538 64.656 96.007l30.09 30.097L134.5 86.348c4.26-4.26 10.651 2.13 6.391 6.39l-42.947 42.948a4.534 4.534 0 0 1-6.39 0l-36.472-36.48a4.534 4.534 0 0 1 0-6.382l22.86-22.86a4.534 4.534 0 0 1 6.391 0l10.694 10.694 47.67-47.687a4.534 4.534 0 0 1 6.382 0l22.594 22.577a4.5 4.5 0 0 1 0 6.382L157.13 76.474l9.942 9.941c5.286 5.294 5.286 13.87 0 19.164L104.6 168.05a13.47 13.47 0 0 1-9.582 3.961z"/></svg>