<svg xmlns="http://www.w3.org/2000/svg" width="192" height="192" viewBox="0 0 192 192"><path d="M95.966 126.36a30.423 30.423 0 0 1-30.364-30.364 30.423 30.423 0 0 1 30.364-30.355 30.423 30.423 0 0 1 29.345 38.106 4.527 4.527 0 1 0 8.76 2.284q1.284-4.928 1.284-10.087a39.18 39.18 0 0 0-11.524-27.865c-7.426-7.426-17.299-11.516-27.865-11.516s-20.43 4.09-27.865 11.516c-7.426 7.435-11.456 17.411-11.456 27.917s4.09 20.44 11.516 27.865c7.426 7.426 17.308 11.524 27.865 11.524q5.347-.017 10.455-1.386a4.56 4.56 0 0 0 3.191-5.57 4.56 4.56 0 0 0-5.578-3.182q-3.978 1.112-8.119 1.112zm75.691 38.851-18.155-18.095a77 77 0 0 0 13.372-21.184 77 77 0 0 0 6.057-29.936 76.1 76.1 0 0 0-6.057-29.936 77 77 0 0 0-16.504-24.469 76.57 76.57 0 0 0-54.405-22.552 76.1 76.1 0 0 0-29.987 6.049A77.9 77.9 0 0 0 41.509 41.6a75.3 75.3 0 0 0-16.452 24.469A76.1 76.1 0 0 0 19 95.996c0 10.404 2.019 20.49 6.057 29.944a77 77 0 0 0 16.504 24.469 77 77 0 0 0 24.469 16.504 76.1 76.1 0 0 0 29.936 6.049l72.508-.052a4.62 4.62 0 0 0 4.192-2.823 4.45 4.45 0 0 0-1.01-4.877m-75.69-1.274c-9.18 0-18.052-1.797-26.437-5.356a68.4 68.4 0 0 1-21.594-14.544 66.7 66.7 0 0 1-14.544-21.603c-3.56-8.385-5.365-17.248-5.365-26.437s1.797-18.044 5.365-26.437a68.4 68.4 0 0 1 14.544-21.594A66.7 66.7 0 0 1 69.538 33.42c8.384-3.56 17.248-5.364 26.428-5.364s18.052 1.805 26.437 5.364a68.4 68.4 0 0 1 21.603 14.544 66.7 66.7 0 0 1 14.544 21.603c3.55 8.384 5.355 17.248 5.355 26.437a67.6 67.6 0 0 1-16.769 44.686L106.9 100.514h5.998a4.513 4.513 0 1 0 0-9.026h-16.88a4.534 4.534 0 0 0-4.509 5.304v16.033a4.513 4.513 0 1 0 9.026 0v-5.895l57.057 56.954z"/></svg>