<svg xmlns="http://www.w3.org/2000/svg" width="192" height="192" viewBox="0 0 192 192"><path d="m94.379 16.419-66.556 38.34c-1.193 1.067-1.54 1.56-1.547 2.86v76.82a3.04 3.04 0 0 0 1.547 2.702l67.14 38.652c.725.375 1.68.165 2.142-.043.058-.014 67.064-38.657 67.064-38.657a3.2 3.2 0 0 0 1.547-2.702V57.899c.103-1.679-.876-2.638-1.688-3.14l-66.524-38.34a3.12 3.12 0 0 0-3.125 0m1.578 6.28 60.4 34.857-33.668 19.42L97.504 62.43a3.2 3.2 0 0 0-3.14 0L69.288 76.914 35.635 57.51zm-63.4 40.309 33.668 19.404v28.966a3.04 3.04 0 0 0 1.547 2.702l25.044 14.405v38.965l-60.259-34.778zm126.86.062v69.54l-60.306 34.81v-38.903l25.107-14.498a3.2 3.2 0 0 0 1.547-2.703v-28.84zm-63.462 5.765 20.42 11.78L96.05 92.333 75.6 80.553zm-23.45 17.201 20.31 11.718v23.498l-20.31-11.718zm46.963.078v23.435L99.111 121.3V97.846z"/></svg>