<svg xmlns="http://www.w3.org/2000/svg" width="192" height="192" viewBox="0 0 192 192"><path d="m169.04 100.53-51.648-28.752c-3.17-1.787-3.197-6.344-.048-8.168l51.568-29.992c3.133-1.817 7.061.426 7.088 4.048v58.752c0 3.544-3.802 5.816-6.96 4.112m-2.44-12.088v-42.56l-37.384 21.752c12.39 7.065 24.891 13.929 37.384 20.808M48.77 128.954c-6.277 0-6.277-9.416 0-9.416l44.648-.048c6.272 0 6.272 9.408 0 9.408zm0-28.056c-6.272 0-6.272-9.408 0-9.408l44.648-.048c6.272 0 6.272 9.408 0 9.408zm91.664 65.68H30.084c-7.76 0-14.08-6.32-14.08-14.088V39.51c0-7.76 6.32-14.08 14.08-14.08h119.68c6.272 0 6.272 9.408 0 9.408H30.084a4.69 4.69 0 0 0-4.672 4.672v112.98a4.69 4.69 0 0 0 4.672 4.672h110.35a4.69 4.69 0 0 0 4.68-4.672v-47.632c0-6.272 9.408-6.272 9.408 0v47.632c0 7.76-6.32 14.088-14.08 14.088zm-74.056-94.24H48.93c-6.272 0-6.272-9.408 0-9.408h17.44c6.272 0 6.272 9.408 0 9.408"/></svg>