<svg xmlns="http://www.w3.org/2000/svg" width="192" height="192" viewBox="0 0 192 192"><path d="M69.715 19.065a18 18 0 0 0-1.972.033c-9.413.699-16.694 8.541-16.693 17.98.012 9.953 8.078 18.018 18.03 18.03a18.05 18.05 0 0 0 14.588-7.67l17.512 6.668a28.3 28.3 0 0 0-.568 5.681c0 4.55 1.102 8.84 3.025 12.65l-14.89 10.761q-.62-.675-1.27-1.32c-7.58-7.58-17.661-11.764-28.373-11.764s-20.777 4.184-28.357 11.764C23.175 89.45 19 99.523 19 110.235a39.87 39.87 0 0 0 11.747 28.34 39.87 39.87 0 0 0 28.357 11.747 39.87 39.87 0 0 0 28.374-11.73 39.9 39.9 0 0 0 7.285-9.976l16.326 6.2a31.4 31.4 0 0 0-.752 6.8c.023 17.295 14.037 31.309 31.331 31.332h.017c17.901-.114 30.984-14.758 31.314-31.332 0-17.282-14.049-31.331-31.33-31.331-11.747 0-22.007 6.489-27.372 16.075l-16.309-6.2a40 40 0 0 0 1.237-9.926 39.87 39.87 0 0 0-5.18-19.735l14.872-10.745c5.106 5.088 12.146 8.239 19.902 8.239 15.57 0 28.223-12.661 28.223-28.207 0-15.545-12.678-28.207-28.223-28.207-10.393 0-19.47 5.673-24.363 14.07L86.86 38.965q.174-.938.25-1.889c-.001-9.709-7.692-17.673-17.395-18.013zm-.635 9.04a8.983 8.983 0 0 1 0 17.963 8.983 8.983 0 0 1 0-17.963m59.738 12.5c10.589.012 19.17 8.593 19.183 19.182-.013 10.59-8.594 19.17-19.183 19.183-10.591-.009-19.174-8.592-19.183-19.183.009-10.59 8.592-19.174 19.183-19.183m-69.714 38.55c17.145 0 31.097 13.935 31.097 31.063S76.24 141.3 59.104 141.3c-17.153-.024-31.049-13.928-31.064-31.08.024-17.147 13.918-31.04 31.064-31.065zm-4.495 14.12v14.62l-7.987 5.732c-3.594 2.546-1.78 8.204 2.623 8.188a4.6 4.6 0 0 0 2.64-.82l9.876-7.084a4.53 4.53 0 0 0 1.888-3.693V93.274a4.529 4.529 0 0 0-9.04 0m82.565 48.325a4.53 4.53 0 0 0 2.908 4.228l20.269 7.72a22.33 22.33 0 0 1-18.7 10.377c-12.314-.012-22.295-9.993-22.307-22.308a22.33 22.33 0 0 1 17.83-21.706zm9.023-21.69a22.33 22.33 0 0 1 17.746 21.706 22 22 0 0 1-.467 3.476l-17.278-6.584z"/></svg>