<svg xmlns="http://www.w3.org/2000/svg" width="192" height="192" viewBox="0 0 192 192"><path d="m146.77 78.999-8.4 3.15-1.1 4.74-2.97.13-.77 6.52h2.72l-1.4 10.082c-.89 6.25.23 9.2 5.75 9.2 3.27 0 6.08-1.16 7.58-1.98l.96-6c-1.11.56-2.9 1.26-4.11 1.26-1.65 0-1.84-.86-1.5-3.24l1.26-9.32h5.61c.2-1.36.88-5.841 1.07-6.661h-5.76zm-25.202 6.68a24 24 0 0 0-2.4.18 24 24 0 0 0-8.98 2.88l1.73 5.25c1.8-1 4.1-1.86 6.52-2.17 3.59-.44 5.04.67 5.27 2.501a8 8 0 0 1-.04 1.92l-.1.38a23.2 23.2 0 0 0-7.3-.24c-3.45.42-6.3 1.82-8.03 4a8.8 8.8 0 0 0-1.501 6.9c.85 3.88 3.69 5.601 8 5.061 3-.36 5.4-1.8 7.17-4.2a16 16 0 0 1-.2 2.03 12 12 0 0 1-.48 1.93h8.301q-.06-1.215 0-2.43.34-4.58 1.63-13.671a16 16 0 0 0-.01-3.94c-.53-4.28-4.19-6.45-9.57-6.38zM151.1 101.71c0 6.4 3.68 11.291 10.851 11.291 8 0 14.051-7.12 14.051-15.66 0-6.341-3.58-11.242-10.851-11.242-7.96 0-14.051 7.12-14.051 15.611M86.626 86.38c-3.58 0-7.46 3.1-10.131 8.24.68-3.36.53-7.18.34-8a60 60 0 0 1-8.57.82 48 48 0 0 1-.5 8.29l-1.11 7.63c-.44 3-.92 6.46-1.4 8.64h9.01c.05-1.32.39-3.4.64-5.23l.76-5.24c.64-3.41 3.36-7.43 5.44-7.43 1.21 0 1.16 1.17.83 3.36l-.88 5.9c-.43 3-.91 6.46-1.4 8.64h9.11c.06-1.32.34-3.4.58-5.23l.78-5.24c.62-3.42 3.341-7.43 5.421-7.43 1.22 0 1.17 1.12.98 2.64l-2.18 15.261h8.32l2.92-17.401c.64-4.32.3-8.23-4.5-8.23-3.5 0-7.27 2.95-9.94 7.88.58-4.07.24-7.88-4.52-7.88zm-32.532.04c-7.84 0-13.871 7.03-13.871 15.42 0 6.3 3.64 11.141 10.721 11.141 7.9 0 13.871-7.02 13.871-15.47 0-6.251-3.54-11.092-10.711-11.092zm-35.342 8.15c2.19-.06 4.13-.1 9.41-.1l-12.06 13.05-.1 4.701c2.95-.2 6.63-.27 10.86-.27 3.77 0 7.561.06 9.981.27q.55-3.823 1.4-7.59-5.038.2-10.08.16l12.06-13.131.16-4.63c-2.92.16-5.53.2-10.13.2-5.001 0-6.501-.05-10.332-.2a104 104 0 0 1-1.17 7.54zm37.142 3.32c0 4.57-1.84 8.33-4.17 8.33-1.74 0-2.76-1.56-2.76-4.68 0-4.62 1.89-8.32 4.205-8.32 1.705 0 2.725 1.52 2.725 4.67m110.87 0c0 4.57-1.84 8.33-4.18 8.33-1.74 0-2.77-1.56-2.77-4.68 0-4.62 1.9-8.32 4.23-8.32 1.7 0 2.72 1.52 2.72 4.67m-43.703 2.77-.08.78c-.5 2.94-2.6 5.87-5.65 6.26-2.07.24-3.86-1-4.06-2.6a3.6 3.6 0 0 1 .76-2.74c.78-1.06 2.24-1.78 4-2q.683-.08 1.37-.1c1.37-.01 2.69.16 3.66.4"/></svg>