<svg xmlns="http://www.w3.org/2000/svg" width="192" height="192" viewBox="0 0 192 192"><path d="m146.77 58.599-8.4 3.16-1.1 4.73-2.97.14-.77 6.52h2.72l-1.4 10.072c-.89 6.26.23 9.2 5.75 9.2 3.27 0 6.08-1.16 7.58-1.98l.96-6c-1.11.56-2.9 1.27-4.11 1.27-1.65 0-1.84-.87-1.5-3.25l1.26-9.31h5.61c.2-1.37.88-5.841 1.07-6.671h-5.76zm-25.202 6.68a24 24 0 0 0-2.4.18 24 24 0 0 0-8.98 2.88l1.73 5.26c1.8-1 4.1-1.87 6.52-2.17 3.59-.44 5.04.66 5.27 2.501a8 8 0 0 1-.04 1.91l-.1.39a23.2 23.2 0 0 0-7.3-.24c-3.45.41-6.3 1.81-8.03 4a8.8 8.8 0 0 0-1.501 6.89c.85 3.88 3.69 5.601 8 5.071 3-.37 5.4-1.8 7.17-4.2q-.035 1.016-.2 2.02a12 12 0 0 1-.48 1.94h8.301q-.06-1.215 0-2.43c.23-3.06.77-7.62 1.63-13.681a16 16 0 0 0-.01-3.93c-.53-4.29-4.19-6.46-9.57-6.39zm43.583.43c-7.96 0-14.051 7.11-14.051 15.601 0 6.4 3.68 11.301 10.851 11.301 8 0 14.051-7.13 14.051-15.67 0-6.341-3.58-11.232-10.851-11.232m-78.515.26v.01c-3.59 0-7.47 3.1-10.141 8.241.68-3.36.53-7.18.34-8a60 60 0 0 1-8.57.82 48 48 0 0 1-.5 8.3l-1.11 7.62c-.44 3-.92 6.47-1.4 8.641h9.01c.05-1.32.39-3.4.64-5.23l.76-5.24c.64-3.4 3.36-7.421 5.44-7.421 1.21 0 1.16 1.17.83 3.36l-.88 5.9c-.43 3-.91 6.46-1.4 8.631h9.1c.07-1.32.35-3.4.6-5.23l.77-5.24c.62-3.41 3.341-7.421 5.421-7.421 1.22 0 1.17 1.12.98 2.64l-2.18 15.251h8.32l2.92-17.39c.64-4.331.3-8.241-4.5-8.241-3.5 0-7.27 2.95-9.94 7.88.58-4.07.24-7.88-4.52-7.88zm-32.542.06c-7.84 0-13.861 7.02-13.861 15.411 0 6.3 3.63 11.141 10.711 11.141 7.9 0 13.871-7.02 13.871-15.46 0-6.25-3.54-11.102-10.711-11.102zm-34.172.6a104 104 0 0 1-1.17 7.541c2.19-.05 4.13-.1 9.41-.1l-12.06 13.051-.1 4.7c2.95-.2 6.63-.26 10.86-.26 3.77 0 7.561.05 9.981.26.43-3.05.86-5.09 1.4-7.58q-5.038.2-10.08.16l12.06-13.141.16-4.62c-2.92.16-5.53.2-10.13.2-5.001 0-6.501-.05-10.332-.2zm33.252 6.2c1.7 0 2.72 1.511 2.72 4.661 0 4.58-1.84 8.34-4.17 8.34-1.74 0-2.76-1.57-2.76-4.68 0-4.63 1.89-8.33 4.2-8.33zm110.87 0c1.7 0 2.72 1.511 2.72 4.661 0 4.58-1.84 8.34-4.18 8.34-1.74 0-2.76-1.57-2.76-4.68 0-4.63 1.89-8.33 4.22-8.33zm-44.643 7.041c1.37-.02 2.69.16 3.66.39l-.08.78c-.5 2.94-2.6 5.88-5.65 6.26-2.07.24-3.86-1-4.06-2.6a3.6 3.6 0 0 1 .76-2.74c.78-1.05 2.24-1.78 4-2q.683-.08 1.37-.1zm-69.274 20.711c-2.34 0-4.52.39-5.81 1.01a15.6 15.6 0 0 0-8.801 8.22c-3.8 8.241-.17 18.502 7.9 22.112a17.97 17.97 0 0 0 11.812.86c2.48-.7 4.7-1.9 6.52-3.75 3.82-3.85 4.68-8.46 4.65-13.641h-16.42l.04 6.02 8.13.07c-.6 2-1.62 3.3-3.37 4.41a7.96 7.96 0 0 1-3.64.98c-2.36.06-4.591-.5-6.331-2.15-1.96-1.87-2.75-4.63-2.82-7.28-.07-2.75.49-5.72 2.45-7.77a7.66 7.66 0 0 1 5.42-2.23c4.3-.14 6.13 2.52 7.12 4.36l6.401-4.66c-1.5-2.24-4.7-4.62-6.45-5.25a16.6 16.6 0 0 0-6.8-1.301zm35.842 0c-9.06 0-16.406 7.345-16.406 16.406s7.345 16.406 16.406 16.406c9.058 0 16.401-7.343 16.401-16.4s-7.343-16.402-16.401-16.402zm55.263.63c-1.7-.02-3.2.05-4.97.04l-6.4.04v31.362l6.4.04c1.64 0 3.31.06 4.97.04s3.3-.12 4.85-.44c3.78-.8 7.28-2.88 9.4-6.17 3.361-5.23 3.361-13.071 0-18.301-2.12-3.3-5.62-5.36-9.4-6.17a25 25 0 0 0-4.85-.44zm-35.652.08-.05 31.352h21.181v-6.8H113.23V101.3h-7.65zm39.022 6.98a6.62 6.62 0 0 1 4.25 3.22c1.7 3.001 1.7 7.971 0 10.962a6.62 6.62 0 0 1-4.25 3.22c-2.18.6-4.74.44-6.99.36-.06-6.04-.03-12.08 0-18.12.85-.03 1.73-.07 2.63-.08 1.49-.01 3 .06 4.36.44zm-58.634-.23c.18.02.35.12.44.33l4.32 9.401 5.83-2.82c.4-.2.88.23.6 1.05l-3.24 9.23c-.1.27-.18.43-.44.55-.28.12-3.88.16-7.51.16-3.64 0-7.24-.04-7.52-.16-.26-.12-.35-.28-.44-.55l-3.23-9.23c-.29-.82.18-1.24.59-1.05l5.83 2.81 4.32-9.4c.1-.2.27-.3.45-.32z"/></svg>