<svg xmlns="http://www.w3.org/2000/svg" width="192" height="192" viewBox="0 0 192 192"><path d="m151.86 59.488-47.76 47.824c-.88.856-2.032-.52-1.392-1.664l17.52-39.328c.48-1.104-.152-2.456-1.16-2.456H51.132c-10.52 0-19.128-10.776-19.128-23.944S40.612 16 51.132 16h89.752c10.512 0 19.12 10.76 19.12 23.92 0 8.064-3.224 15.224-8.144 19.568m-10.976 116.51c10.512 0 19.12-10.768 19.12-23.928s-8.608-23.936-19.128-23.936H72.94c-1.008 0-1.648-1.352-1.152-2.448l17.52-39.336c.632-1.144-.52-2.52-1.408-1.664l-47.752 47.816c-4.92 4.344-8.144 11.504-8.144 19.568 0 13.16 8.608 23.928 19.128 23.928z"/></svg>